<svg xmlns="http://www.w3.org/2000/svg" width="25.92" height="21.566" viewBox="0 0 25.92 21.566">
  <g id="Group_36864" data-name="Group 36864" transform="translate(1.694 1.5)">
    <path id="check-2" d="M5.934,16.524.618,10.789a2.428,2.428,0,0,1,0-3.237,2.049,2.049,0,0,1,1.5-.671,2.049,2.049,0,0,1,1.5.671l3.812,4.113L17.625.671a2.019,2.019,0,0,1,3.007,0,2.422,2.422,0,0,1,0,3.237L8.939,16.526a2.019,2.019,0,0,1-3.005,0Z" transform="translate(1.277 1.369)" stroke="#000" stroke-width="3"/>
    <path id="check-2-2" data-name="check-2" d="M5.934,16.524.618,10.789a2.428,2.428,0,0,1,0-3.237,2.049,2.049,0,0,1,1.5-.671,2.049,2.049,0,0,1,1.5.671l3.812,4.113L17.625.671a2.019,2.019,0,0,1,3.007,0,2.422,2.422,0,0,1,0,3.237L8.939,16.526a2.019,2.019,0,0,1-3.005,0Z" transform="translate(0 0)" fill="#f7d854" stroke="#000" stroke-width="3"/>
  </g>
</svg>
