<svg xmlns="http://www.w3.org/2000/svg" width="2115.778" height="410" viewBox="0 0 2115.778 410">
  <g id="Group_37040" data-name="Group 37040" transform="translate(-7773.688 -2797)">
    <path id="Path_37705" data-name="Path 37705" d="M0,0H2115.344V410H0Z" transform="translate(7774.122 2797)" fill="#f7d854"/>
    <path id="Path_37172" data-name="Path 37172" d="M-14117.878,1416.767c135.711,30.215,352.85,235.68,491.574,172.228s298.562-154.1,425.226-142.012,512.683,151.077,684.584,181.292,346.815-114.818,346.815-114.818l165.869-96.689" transform="translate(21892 1481.719)" fill="none" stroke="#000" stroke-width="4"/>
    <path id="Path_37173" data-name="Path 37173" d="M-14117.52,1566.481c34.818-4.642,340.405,157.617,491.285,108.87s406.216,0,406.216,0,99.814,44.1,276.228-113.74,324.973-192.663,466.568-171.771,320.211,75.906,473.413-47.12" transform="translate(21892 1482)" fill="none" stroke="#000" stroke-width="4"/>
    <path id="Path_37174" data-name="Path 37174" d="M-14066,1353.976s1614.281-41.257,2043.986,368.735" transform="translate(21840.48 1482)" fill="none" stroke="#000" stroke-width="4" stroke-dasharray="40"/>
  </g>
</svg>
