<svg xmlns="http://www.w3.org/2000/svg" width="32.92" height="38.975" viewBox="0 0 32.92 38.975">
  <g id="Group_37046" data-name="Group 37046" transform="translate(-1704.544 -40.013)">
    <g id="Group_35805" data-name="Group 35805" transform="translate(1706.105 41.575)">
      <path id="Path_37171" data-name="Path 37171" d="M1683.6,2373.25l-.577-1.827a18.242,18.242,0,0,0,2.693-2.308c.1-.384.77-7.4.77-7.4a39.766,39.766,0,0,1,.673-5.289c.288-.384,5.481-5.1,6.155-5.289s7.982,0,7.982,0l4.808,5.289,2.5,6.636v4.616l.673,2.789,2.115,1.827-.769,2.308s-.866.48-2.693,1.346-6.635,0-6.635,0v3.366l-2.693,2.6h-4.616l-1.635-3.077-.481-2.885h-4.712l-3.558-.769Z" transform="translate(-1681.428 -2346.362)" fill="#f4cb1b"/>
      <path id="Layer_2" data-name="Layer 2" d="M34.823,26.418a1.453,1.453,0,0,1-.687-1.3V20.046a13.089,13.089,0,0,0-7.81-12.027,4.686,4.686,0,0,0-9.262,0,12.5,12.5,0,0,0-4.077,2.64,12.37,12.37,0,0,0-3.842,8.934v5.529a1.453,1.453,0,0,1-.687,1.3,4.686,4.686,0,0,0-2.437,4.889,4.826,4.826,0,0,0,4.858,3.9h4.514a6.248,6.248,0,1,0,12.5,0H32.4a4.826,4.826,0,0,0,4.858-3.9,4.686,4.686,0,0,0-2.437-4.889ZM21.641,38.336a3.124,3.124,0,0,1-3.124-3.124h6.248A3.124,3.124,0,0,1,21.641,38.336ZM32.4,32.088H10.879a1.7,1.7,0,0,1-1.734-1.281,1.562,1.562,0,0,1,.8-1.656,4.576,4.576,0,0,0,2.327-4.03V19.593a9.371,9.371,0,0,1,2.843-6.732,8.762,8.762,0,0,1,2.546-1.734,9.137,9.137,0,0,1,3.983-.906h.3a8.872,8.872,0,0,1,3.67.937,9.949,9.949,0,0,1,5.4,8.887v5.076a4.576,4.576,0,0,0,2.312,4.03,1.562,1.562,0,0,1,.812,1.64,1.7,1.7,0,0,1-1.734,1.3Z" transform="translate(-5.962 -4.047)"/>
    </g>
    <g id="Group_35806" data-name="Group 35806" transform="translate(1704.544 40.013)">
      <path id="Path_37171-2" data-name="Path 37171" d="M1683.6,2373.25l-.577-1.827a18.242,18.242,0,0,0,2.693-2.308c.1-.384.77-7.4.77-7.4a39.766,39.766,0,0,1,.673-5.289c.288-.384,5.481-5.1,6.155-5.289s7.982,0,7.982,0l4.808,5.289,2.5,6.636v4.616l.673,2.789,2.115,1.827-.769,2.308s-.866.48-2.693,1.346-6.635,0-6.635,0v3.366l-2.693,2.6h-4.616l-1.635-3.077-.481-2.885h-4.712l-3.558-.769Z" transform="translate(-1681.428 -2346.362)" fill="#f7d854"/>
      <path id="Layer_2-2" data-name="Layer 2" d="M34.823,26.418a1.453,1.453,0,0,1-.687-1.3V20.046a13.089,13.089,0,0,0-7.81-12.027,4.686,4.686,0,0,0-9.262,0,12.5,12.5,0,0,0-4.077,2.64,12.37,12.37,0,0,0-3.842,8.934v5.529a1.453,1.453,0,0,1-.687,1.3,4.686,4.686,0,0,0-2.437,4.889,4.826,4.826,0,0,0,4.858,3.9h4.514a6.248,6.248,0,1,0,12.5,0H32.4a4.826,4.826,0,0,0,4.858-3.9,4.686,4.686,0,0,0-2.437-4.889ZM21.641,38.336a3.124,3.124,0,0,1-3.124-3.124h6.248A3.124,3.124,0,0,1,21.641,38.336ZM32.4,32.088H10.879a1.7,1.7,0,0,1-1.734-1.281,1.562,1.562,0,0,1,.8-1.656,4.576,4.576,0,0,0,2.327-4.03V19.593a9.371,9.371,0,0,1,2.843-6.732,8.762,8.762,0,0,1,2.546-1.734,9.137,9.137,0,0,1,3.983-.906h.3a8.872,8.872,0,0,1,3.67.937,9.949,9.949,0,0,1,5.4,8.887v5.076a4.576,4.576,0,0,0,2.312,4.03,1.562,1.562,0,0,1,.812,1.64,1.7,1.7,0,0,1-1.734,1.3Z" transform="translate(-5.962 -4.047)"/>
    </g>
  </g>
</svg>
