<svg xmlns="http://www.w3.org/2000/svg" width="24.4" height="28.375" viewBox="0 0 24.4 28.375"><defs><style>.a{fill:#e2f9ff;}.b{fill:#327c8f;stroke:#327c8f;}.c{fill:#80d5ec;}</style></defs><g transform="translate(0.5 0.5)"><path class="a" d="M33.869,6a2.214,2.214,0,0,1,2.208,2.208V32.05H14V6Z" transform="translate(-13.338 -5.338)"/><path class="b" d="M11.662,30.375A.65.65,0,0,1,11,29.713V3.662a.662.662,0,1,1,1.325,0v26.05A.65.65,0,0,1,11.662,30.375Zm22.077,0a.65.65,0,0,1-.662-.662V5.87a1.536,1.536,0,0,0-1.545-1.545H23.584a.662.662,0,1,1,0-1.325h7.948A2.864,2.864,0,0,1,34.4,5.87V29.713A.65.65,0,0,1,33.739,30.375ZM23.8,22.648H16.078a.662.662,0,1,1,0-1.325H23.8a.662.662,0,1,1,0,1.325Z" transform="translate(-11 -3)"/><path class="b" d="M43.8,67.325H31.662a.662.662,0,0,1,0-1.325H43.8a.662.662,0,1,1,0,1.325Z" transform="translate(-26.585 -52.092)"/><path class="c" d="M33.566,10.131l-.221-.419A13.7,13.7,0,0,1,31.91,3.662.65.65,0,0,0,31.248,3H25.662A.65.65,0,0,0,25,3.662a20.535,20.535,0,0,0,2.164,9.14l.221.419a.665.665,0,0,0,.6.375h0a.691.691,0,0,0,.6-.375l1.457-2.958,2.782.795a.67.67,0,0,0,.684-.221A.633.633,0,0,0,33.566,10.131Z" transform="translate(-21.909 -3)"/></g></svg>