<svg xmlns="http://www.w3.org/2000/svg" xmlns:xlink="http://www.w3.org/1999/xlink" width="1035" height="411" viewBox="0 0 1035 411">
  <defs>
    <clipPath id="clip-path1">
      <rect id="Rectangle_2909" data-name="Rectangle 2909" width="1035" height="411" transform="translate(0 177)" fill="#fff" stroke="#707070" stroke-width="1"/>
    </clipPath>
  </defs>
  <g id="Mask_Group_27" data-name="Mask Group 27" transform="translate(0 -177)" clip-path="url(#clip-path)">
    <g id="Group_376755" data-name="Group 376755">
      <path id="Path_38807" data-name="Path 38807" d="M-7231.209,3640.323c316.326,16.874,616.48-47.671,616.51-159.331,2.226-26.71-12.22-58.28-28.158-70.494-28.159-21.58-109.323-38.844-152.206,32.627s59.447,118.43,167.96,153.173,169.36,51.057,282.733,31.607c110.993-19.042,314.926-235.651,439.5-240.7s109.409,93.18,11.2,102.115-192.456-44.979-153.965-102.115,216.4-152.8,403.935-92.951S-5385.3,3534-5385.3,3534" transform="translate(6597.303 -3054.572)" fill="none" stroke="#070707" stroke-width="4" stroke-dasharray="20 20"/>
      <g id="Group_37339" data-name="Group 37339" transform="translate(327.434 499.098)">
        <path id="Path_38569" data-name="Path 38569" d="M544.3,1058.139l20.282-24.268s7.847-12.492,10.1-15.892a7.818,7.818,0,0,1,.591-.845c.033,0,.4.17,1.048.486.947.457,2.5,1.214,4.5,2.205,14.681,7.211,54.193,26.85,54.193,26.85l-4.383,17.117c-20.007.292-46.209-18.991-46.209-18.991-8,12.662-18.874,24.6-24.984,28.605-2.25,1.477-4.031-2.541-4.031-2.541,3.9-2.177,8.826-8.939,9.13-9.364-3.258,2.8-11.181,7.337-11.181,7.337C549.212,1065.977,544.3,1058.139,544.3,1058.139Z" transform="translate(-544.3 -1017.134)" fill="#fff" stroke="#000" stroke-width="4"/>
      </g>
      <g id="Group_37658" data-name="Group 37658" transform="translate(659.121 186.821)">
        <path id="Path_38569-2" data-name="Path 38569" d="M544.3,1032.728,564.581,1057s7.847,12.492,10.1,15.892a7.818,7.818,0,0,0,.591.845c.033,0,.4-.17,1.048-.486.947-.457,2.5-1.214,4.5-2.205,14.681-7.211,54.193-26.85,54.193-26.85l-4.383-17.117c-20.006-.292-46.208,18.991-46.208,18.991-8-12.662-18.874-24.6-24.984-28.605-2.25-1.477-4.031,2.541-4.031,2.541,3.9,2.177,8.826,8.939,9.13,9.364-3.258-2.8-11.181-7.337-11.181-7.337C549.212,1024.89,544.3,1032.728,544.3,1032.728Z" transform="translate(-544.3 -1017.134)" fill="#fff" stroke="#000" stroke-width="4"/>
      </g>
      <g id="Group_37340" data-name="Group 37340" transform="translate(327.434 498.709)">
        <path id="Path_38570" data-name="Path 38570" d="M544.3,1058.528l20.282-24.268s7.846-12.492,10.1-15.892l1.639-.359,4.063-.875.437,3.08,3.6,24.976c-8,12.662-18.873,24.6-24.984,28.605-2.25,1.477-4.03-2.541-4.03-2.541,3.9-2.177,8.826-8.939,9.129-9.364-3.258,2.8-11.181,7.337-11.181,7.337C549.213,1066.366,544.3,1058.528,544.3,1058.528Z" transform="translate(-544.3 -1017.134)" fill="#fff" stroke="#000" stroke-width="4"/>
      </g>
      <g id="Group_37659" data-name="Group 37659" transform="translate(659.122 186.821)">
        <path id="Path_38570-2" data-name="Path 38570" d="M544.3,1032.728,564.582,1057s7.846,12.492,10.1,15.892l1.639.359,4.063.875.437-3.08,3.6-24.976c-8-12.662-18.873-24.6-24.984-28.605-2.25-1.477-4.03,2.541-4.03,2.541,3.9,2.177,8.826,8.939,9.129,9.364-3.258-2.8-11.181-7.337-11.181-7.337C549.212,1024.89,544.3,1032.728,544.3,1032.728Z" transform="translate(-544.3 -1017.134)" fill="#fff" stroke="#000" stroke-width="2"/>
      </g>
      <g id="Group_37341" data-name="Group 37341" transform="translate(321.832 441.318)">
        <path id="Path_38571" data-name="Path 38571" d="M530.46,1154.071s24.017,4.981,43.623-27.992l13.783-70.6s-14.584,20.983-35.178,23.257Z" transform="translate(-530.46 -1055.477)" fill="#f7d854" stroke="#000" stroke-width="4"/>
        <path id="Path_38572" data-name="Path 38572" d="M638.27,1143.081s20.213,23.678,56.22,21.192l11.112-73.864s-28.837,2.651-53.55-17.931Z" transform="translate(-594.643 -1072.474)" fill="#f7d854" stroke="#000" stroke-width="4"/>
      </g>
      <g id="Group_37660" data-name="Group 37660" transform="translate(653.52 202.337)">
        <path id="Path_38571-2" data-name="Path 38571" d="M530.46,1055.745s24.017-4.981,43.623,27.992l13.783,70.6s-14.584-20.983-35.177-23.257Z" transform="translate(-530.459 -1055.477)" fill="#80d5ec" stroke="#000" stroke-width="4"/>
        <path id="Path_38572-2" data-name="Path 38572" d="M638.27,1093.853s20.213-23.677,56.22-21.192l11.112,73.864s-28.836-2.651-53.549,17.931Z" transform="translate(-594.643 -1065.598)" fill="#80d5ec" stroke="#000" stroke-width="4"/>
      </g>
    </g>
  </g>
</svg>
