<svg xmlns="http://www.w3.org/2000/svg" width="177.595" height="186.844" viewBox="0 0 177.595 186.844">
  <g id="boy-celebrating-graduation" transform="translate(-252.784 -218.51) rotate(7)">
    <path id="Path_38418" data-name="Path 38418" d="M366.772,269.232l-8.268-2.865,0,0,20.891-7.244,20.89,7.244v0l-8.267,2.865" transform="translate(-10.585 -18.96)" fill="#ec85c0"/>
    <path id="Path_38419" data-name="Path 38419" d="M391.9,251.193a.857.857,0,0,1-.863-.625.757.757,0,0,1,.54-.859l6.2-2.149-18.5-6.416-18.5,6.416,6.2,2.149a.742.742,0,0,1,.494,1,.924.924,0,0,1-1.14.432l-8.226-2.851a.744.744,0,0,1,.011-1.46l20.841-7.226a.991.991,0,0,1,.647,0l20.837,7.225a.743.743,0,0,1,.022,1.458l-8.234,2.854A1.028,1.028,0,0,1,391.9,251.193ZM420.8,192.853a1.025,1.025,0,0,1-.229-.026q-4.941-1.163-9.94-2.12a.748.748,0,0,1-.075-.012c-.224-.047-.46-.092-.684-.134a.777.777,0,0,1-.677-.912.885.885,0,0,1,1.042-.593q.362.066.722.14,5.063.968,10.07,2.146a.778.778,0,0,1,.644.844.848.848,0,0,1-.872.668Zm37.342,12.925a.977.977,0,0,1-.416-.091l-.165-.08q-.141-.069-.285-.133-.049-.023-.1-.049c-4.277-2.041-8.87-3.971-13.653-5.735-5.2-1.922-10.723-3.674-16.426-5.21a.752.752,0,0,1-.548-.952.9.9,0,0,1,1.065-.518c5.76,1.552,11.343,3.322,16.593,5.264,4.852,1.79,9.514,3.75,13.855,5.823l.059.031c.1.045.192.089.284.134l.15.072a.737.737,0,0,1,.435.865.866.866,0,0,1-.852.581Zm-14.321-17.54a.976.976,0,0,1-.239-.029l.239-.74-.3.724.174-.756.239-.74.128.032a.775.775,0,0,1,.63.845A.849.849,0,0,1,443.816,188.238ZM431.2,184.718h-.006a.99.99,0,0,1-.289-.043q-8.157-2.488-16.084-5.5a.793.793,0,0,1-.543-.619.731.731,0,0,1,.355-.716.984.984,0,0,1,.887-.075q7.851,2.986,15.94,5.454a.79.79,0,0,1,.615.733.72.72,0,0,1-.255.544A.941.941,0,0,1,431.2,184.718Zm8.383,2.414a1.146,1.146,0,0,1-.424-.086.734.734,0,0,1-.435-.946.905.905,0,0,1,1.021-.492.792.792,0,0,1,.709.827A.842.842,0,0,1,439.582,187.132Zm24.521,5.444a1.054,1.054,0,0,1-.182-.016l-.264-.048q-.27-.046-.538-.1-7.839-1.4-15.562-3.234a.764.764,0,0,1-.617-.944.9.9,0,0,1,1.079-.54q7.677,1.826,15.476,3.216c.186.038.348.066.509.095l.279.049a.789.789,0,0,1,.695.832.844.844,0,0,1-.875.69Z" transform="translate(-10.464 -0.151)"/>
    <path id="Path_38449" data-name="Path 38449" d="M7.233.346c3.995.191,7.317,2.272,7.42,4.648S11.6,9.141,7.606,8.951.29,6.679.187,4.3,3.238.155,7.233.346Z" transform="translate(443.595 203.429) rotate(-68.432)" fill="#d3e4ec"/>
    <path id="Path_38420" data-name="Path 38420" d="M472.546,209.887a3.73,3.73,0,0,1-1.229-.2c-2.74-.948-3.435-4.9-1.583-9.005a11.648,11.648,0,0,1,3.551-4.56,5.061,5.061,0,0,1,4.639-1.064,4.039,4.039,0,0,1,2.554,3.552,10.261,10.261,0,0,1-.971,5.452C477.922,207.572,475.057,209.887,472.546,209.887Zm-.584-1.632c1.538.529,4.345-1.293,5.911-4.759a8.882,8.882,0,0,0,.86-4.706,2.614,2.614,0,0,0-1.455-2.3,3.31,3.31,0,0,0-2.862.811,10.065,10.065,0,0,0-3.048,3.948C469.8,204.712,470.424,207.722,471.962,208.255Z" transform="translate(-23.964 -4.114)"/>
    <path id="Path_38450" data-name="Path 38450" d="M6.216.3C9.649.461,12.507,2.325,12.6,4.459S9.984,8.192,6.551,8.028.26,6,.168,3.865,2.783.133,6.216.3Z" transform="translate(395.92 188.378) rotate(-68.432)" fill="#d3e4ec"/>
    <path id="Path_38421" data-name="Path 38421" d="M411.856,190.679a3.567,3.567,0,0,1-1.176-.194c-2.508-.868-3.206-4.354-1.589-7.934s4.85-5.71,7.358-4.839,3.206,4.354,1.589,7.934C416.665,188.687,414.127,190.679,411.856,190.679Zm-.53-1.623c1.34.458,3.759-1.054,5.077-3.974s.742-5.475-.6-5.94-3.759,1.053-5.078,3.974-.742,5.474.6,5.939ZM372.748,278.9a.957.957,0,0,1-.543-.165,15.872,15.872,0,0,1-6.48-9.931,17.092,17.092,0,0,1-.366-3.525,16.879,16.879,0,0,1,1.426-6.842A.922.922,0,0,1,367.92,258a.743.743,0,0,1,.5.994,15.517,15.517,0,0,0-1.308,6.29,15.7,15.7,0,0,0,.337,3.247,14.55,14.55,0,0,0,5.838,9,.713.713,0,0,1,.286.855.878.878,0,0,1-.829.517Zm14.968-.005a.879.879,0,0,1-.83-.517.713.713,0,0,1,.287-.856,14.55,14.55,0,0,0,5.908-9.359,15.691,15.691,0,0,0,.262-2.882,15.524,15.524,0,0,0-1.308-6.29.743.743,0,0,1,.5-.994.922.922,0,0,1,1.136.441,17.191,17.191,0,0,1,1.141,9.971,16.064,16.064,0,0,1-6.556,10.321.956.956,0,0,1-.543.165Z" transform="translate(-11.417 -0.111)"/>
    <path id="Path_38422" data-name="Path 38422" d="M393.164,270.638a39.11,39.11,0,0,0-25.25,0v9.1a39.11,39.11,0,0,1,25.25,0Z" transform="translate(-11.728 -21.135)" fill="#ec85c0"/>
    <path id="Path_38423" data-name="Path 38423" d="M392.377,280.28a.994.994,0,0,1-.311-.049,38.3,38.3,0,0,0-24.627,0,1,1,0,0,1-.811-.086.749.749,0,0,1-.38-.633v-9.1a.781.781,0,0,1,.568-.72,40.265,40.265,0,0,1,25.873,0,.78.78,0,0,1,.568.72v9.1A.83.83,0,0,1,392.377,280.28Zm-12.624-3.624a40.667,40.667,0,0,1,11.746,1.759v-7.47a38.243,38.243,0,0,0-23.493,0v7.47a40.642,40.642,0,0,1,11.747-1.759Zm13.991,12.923a2.663,2.663,0,0,1-.373-.021.785.785,0,0,1-.707-.878.869.869,0,0,1,.987-.64.647.647,0,0,0,.094,0,2.271,2.271,0,1,0,0-4.5,2.369,2.369,0,0,0-.238.012.868.868,0,0,1-.97-.681.8.8,0,0,1,.778-.849,4.74,4.74,0,0,1,3.333.962,3.6,3.6,0,0,1,1.426,2.807,4.09,4.09,0,0,1-4.329,3.788Zm-27.977,0a3.823,3.823,0,1,1,0-7.578,4.191,4.191,0,0,1,.423.021.8.8,0,0,1,.771.852.742.742,0,0,1-.325.516.961.961,0,0,1-.649.159q-.11-.011-.221-.011a2.271,2.271,0,1,0,0,4.5l.09,0a.893.893,0,0,1,.981.664.768.768,0,0,1-.7.854,2.4,2.4,0,0,1-.369.022Zm20.169-4.216h-1.042a.776.776,0,1,1,0-1.538h1.042a.776.776,0,1,1,0,1.538Zm1.3-3.076a.99.99,0,0,1-.265-.036,6.523,6.523,0,0,0-3.691-.024.932.932,0,0,1-1.147-.412.734.734,0,0,1,.46-1,8.5,8.5,0,0,1,4.906-.026.77.77,0,0,1,.6.849A.851.851,0,0,1,387.238,282.287Zm-12.621,3.076h-1.041a.776.776,0,1,1,0-1.538h1.041a.776.776,0,1,1,0,1.538Zm-2.343-3.076a.851.851,0,0,1-.867-.652.769.769,0,0,1,.6-.85,8.5,8.5,0,0,1,4.906.026.737.737,0,0,1,.465,1.009.929.929,0,0,1-1.152.406,6.541,6.541,0,0,0-3.689.025.978.978,0,0,1-.264.036Zm7.479,10.6a.835.835,0,0,1-.9-.751.823.823,0,0,1,.858-.787c.763-.033,2.911-.343,3.665-1.365a.956.956,0,0,1,1.215-.228.714.714,0,0,1,.261,1.063c-1.4,1.9-4.909,2.061-5.058,2.067Zm.391-4.215a.829.829,0,0,1-.879-.769v-3.874a.886.886,0,0,1,1.757,0V287.9A.829.829,0,0,1,380.143,288.667Z" transform="translate(-10.941 -20.907)"/>
    <path id="Path_38426" data-name="Path 38426" d="M353.061,292.834c-.242,0-.485-.006-.728-.023a.808.808,0,0,1-.8-.83.855.855,0,0,1,.948-.7,9.692,9.692,0,0,0,7.4-2.783,9.348,9.348,0,0,0,2.987-7.681.712.712,0,0,1,.228-.587,1.012,1.012,0,0,1,1.2-.084,12.067,12.067,0,0,0,13.872,0,.984.984,0,0,1,.927-.087.769.769,0,0,1,.5.691v.154a7.988,7.988,0,0,0,3.771,6.654,10.56,10.56,0,0,0,8.332,1.4c.2-.049.4-.1.6-.158a.908.908,0,0,1,1.1.5.755.755,0,0,1-.575.964c-.22.06-.433.115-.653.171a12.51,12.51,0,0,1-9.873-1.653,9.631,9.631,0,0,1-4.375-6.611,14.181,14.181,0,0,1-13.269.067,10.956,10.956,0,0,1-3.477,7.3,11.875,11.875,0,0,1-8.111,3.3Zm76.17-20.586a1,1,0,0,1-.213-.023,64.609,64.609,0,0,1-19.978-7.836.723.723,0,0,1-.346-.821c4.905-16.727,5.868-36.846,6.887-58.146l.053-1.1-3.625-9.081a2.631,2.631,0,0,1,1.356-3.313,3.52,3.52,0,0,1,1.661-.41,3.325,3.325,0,0,1,2.68,1.268l2.331,3.108a.713.713,0,0,1-.252,1.065.957.957,0,0,1-1.217-.221l-2.333-3.111a1.594,1.594,0,0,0-1.953-.388,1.184,1.184,0,0,0-.613,1.495l3.68,9.218a.667.667,0,0,1,.048.286l-.06,1.247c-1.012,21.165-1.97,41.167-6.79,57.946a62.736,62.736,0,0,0,17.979,7.1l.063-.322a30.989,30.989,0,0,0,.577-5.321l1.245-56.764a.694.694,0,0,1,.126-.381l4.519-6.582a.955.955,0,0,1,1.192-.244.718.718,0,0,1,.314,1.036l-4.4,6.406-1.241,56.557a32.276,32.276,0,0,1-.6,5.549l-.224,1.145a.855.855,0,0,1-.866.642Zm-117.875.351a.851.851,0,0,1-.868-.652q-.176-1-.286-2l-6.379-56.293-10.57-13.2a2.318,2.318,0,0,1-.206-2.688,3.031,3.031,0,0,1,2.651-1.415,3.343,3.343,0,0,1,1.114.19l-.418-.521a2.161,2.161,0,0,1-.455-1.843,2.412,2.412,0,0,1,1.195-1.57,3.186,3.186,0,0,1,3.184.086,2.216,2.216,0,0,1,.755-1.74,2.911,2.911,0,0,1,1.956-.728,2.7,2.7,0,0,1,2.515,1.508l1.078,2.406.165-2.959a2.691,2.691,0,0,1,2.81-2.348,2.82,2.82,0,0,1,2.7,1.76l3.032,8.92,1.5-2.395a3.437,3.437,0,0,1,4.253-1.152,2.77,2.77,0,0,1,1.752,2.5,2.532,2.532,0,0,1-.1.7l-2.79,9.309.145,1.041c2.823,20.253,5.49,39.383,11.31,55.29a.723.723,0,0,1-.37.885,67.234,67.234,0,0,1-19.477,6.89,1.013,1.013,0,0,1-.192.018ZM295.7,197.887a1.24,1.24,0,0,0-1.087.578.948.948,0,0,0,.08,1.1l10.7,13.363a.713.713,0,0,1,.155.366l6.4,56.5c.042.379.09.745.142,1.1a65.423,65.423,0,0,0,17.42-6.192c-5.727-15.928-8.373-34.913-11.172-55l-.165-1.187a.682.682,0,0,1,.022-.288l2.831-9.442a1.152,1.152,0,0,0,.044-.315,1.247,1.247,0,0,0-.786-1.131,1.55,1.55,0,0,0-1.921.518l-2.508,4.012a.907.907,0,0,1-.864.4.858.858,0,0,1-.749-.545l-3.632-10.687a1.061,1.061,0,0,0-1.017-.662,1.028,1.028,0,0,0-1.054.885l-.364,6.538a.814.814,0,0,1-.735.721.9.9,0,0,1-.96-.478l-2.576-5.747a1.035,1.035,0,0,0-1.248-.465.8.8,0,0,0-.533,1.034l2.182,5.606a.738.738,0,0,1-.469.955.942.942,0,0,1-1.127-.329l-3.171-4.9a1.132,1.132,0,0,0-1.437-.3.88.88,0,0,0-.436.573.784.784,0,0,0,.165.671l3.761,4.691a.7.7,0,0,1-.121,1,.974.974,0,0,1-1.152.036l-3.857-2.739a1.315,1.315,0,0,0-.765-.238Z" transform="translate(-2.409 -2.724)"/>
    <path id="Path_38427" data-name="Path 38427" d="M381.132,311.241a14.069,14.069,0,0,1-8.022-2.52.707.707,0,0,1-.145-1.08.965.965,0,0,1,1.234-.127,12.067,12.067,0,0,0,13.872,0,.965.965,0,0,1,1.234.127.706.706,0,0,1-.145,1.08,14.083,14.083,0,0,1-8.028,2.525Z" transform="translate(-12.318 -30.096)"/>
    <path id="Path_38428" data-name="Path 38428" d="M432.022,293.981c-3.11,15.764-15.082,74.594-21.5,80.208l-54.272,6.152c-13.084-10.42-37.35-69.033-41.3-82.6a33.574,33.574,0,0,1-.8-3.408,66.042,66.042,0,0,0,19.2-6.79,75.115,75.115,0,0,0,12.032,22.006,14.307,14.307,0,0,0,8.741,4.876,9.441,9.441,0,0,0,1.075.122c3.942,4.61,11.067,7.693,19.206,7.693,9.542,0,17.694-4.237,20.944-10.214a15.133,15.133,0,0,0,4.106-1.876,12.761,12.761,0,0,0,3.535-3.429,71.33,71.33,0,0,0,9.348-20.459,63.865,63.865,0,0,0,19.686,7.72Z" transform="translate(-5.2 -25.227)" fill="#a4e3dc"/>
    <path id="Path_38429" data-name="Path 38429" d="M356.126,380.879a.949.949,0,0,1-.591-.2c-13.6-10.831-37.9-70.414-41.564-82.979a34.207,34.207,0,0,1-.813-3.478.781.781,0,0,1,.678-.871,65.33,65.33,0,0,0,18.923-6.69.988.988,0,0,1,.769-.071.825.825,0,0,1,.535.488,73.986,73.986,0,0,0,11.911,21.793,13.34,13.34,0,0,0,8.193,4.567,8.844,8.844,0,0,0,.97.111.916.916,0,0,1,.641.305c3.955,4.625,10.872,7.386,18.5,7.386,8.873,0,16.971-3.928,20.15-9.775a.854.854,0,0,1,.517-.4A14.13,14.13,0,0,0,398.8,309.3a11.9,11.9,0,0,0,3.311-3.211,70.185,70.185,0,0,0,9.25-20.254.818.818,0,0,1,.547-.529.987.987,0,0,1,.809.091,62.718,62.718,0,0,0,19.395,7.6.776.776,0,0,1,.653.877c-3.445,17.465-15.2,74.893-21.747,80.621a.934.934,0,0,1-.508.219l-54.272,6.151q-.056,0-.113.005Zm-41.1-86.189q.266,1.325.644,2.629c3.9,13.38,27.894,71.157,40.75,81.982l53.838-6.61c4.928-5.1,13.689-43.256,20.634-78.372a65.153,65.153,0,0,1-18.148-7.037,70.7,70.7,0,0,1-9.129,19.6,13.508,13.508,0,0,1-3.762,3.649,15.911,15.911,0,0,1-4,1.885c-3.615,6.3-12.034,10.36-21.574,10.36-8.031,0-15.35-2.882-19.669-7.727q-.4-.036-.787-.105a15.118,15.118,0,0,1-9.28-5.183,74.619,74.619,0,0,1-11.809-21.287,67.606,67.606,0,0,1-17.7,6.213Z" transform="translate(-5.078 -24.996)"/>
    <path id="Path_38432" data-name="Path 38432" d="M452.034,197.159a3.1,3.1,0,0,1-.838-.115,2.734,2.734,0,0,1-1.711-1.333,2.2,2.2,0,0,1-.015-2.012,17.531,17.531,0,0,1,4.722-6.118,3.187,3.187,0,0,1,3.162-.322,2.557,2.557,0,0,1,1.532,1.806,2.291,2.291,0,0,1-.732,2.153,15.9,15.9,0,0,0-3.471,4.372A2.9,2.9,0,0,1,452.034,197.159Zm4.009-8.637a1.178,1.178,0,0,0-.708.228,16.018,16.018,0,0,0-4.254,5.563.822.822,0,0,0,0,.763,1.02,1.02,0,0,0,.646.5,1.157,1.157,0,0,0,1.324-.57,17.386,17.386,0,0,1,3.816-4.843.886.886,0,0,0,.284-.834,1,1,0,0,0-.6-.7,1.284,1.284,0,0,0-.516-.108Zm1.47,2.17h0Zm-13.055,3.458a3.132,3.132,0,0,1-.838-.115,2.734,2.734,0,0,1-1.711-1.333,2.2,2.2,0,0,1-.016-2.012,17.562,17.562,0,0,1,4.722-6.118,3.187,3.187,0,0,1,3.162-.322,2.554,2.554,0,0,1,1.531,1.807,2.29,2.29,0,0,1-.731,2.152,15.866,15.866,0,0,0-3.471,4.372,2.9,2.9,0,0,1-2.648,1.568Zm4.01-8.637a1.178,1.178,0,0,0-.708.228A16.033,16.033,0,0,0,443.5,191.3a.822.822,0,0,0,.005.763,1.02,1.02,0,0,0,.646.5,1.156,1.156,0,0,0,1.324-.57,17.376,17.376,0,0,1,3.816-4.843.894.894,0,0,0,.284-.837,1,1,0,0,0-.6-.7,1.266,1.266,0,0,0-.515-.108Zm1.47,2.17h0Z" transform="translate(-20.681 -1.603)"/>
    <path id="Path_38433" data-name="Path 38433" d="M440.089,192.291a3.112,3.112,0,0,1-.839-.115,2.737,2.737,0,0,1-1.713-1.334,2.2,2.2,0,0,1-.017-2,13.857,13.857,0,0,1,4.417-5.762,3.143,3.143,0,0,1,2.462-.417,2.7,2.7,0,0,1,2,1.7,2.27,2.27,0,0,1-.614,2.392,14.6,14.6,0,0,0-3.05,3.968A2.9,2.9,0,0,1,440.089,192.291Zm3.554-8.183a1.118,1.118,0,0,0-.626.179,12.6,12.6,0,0,0-3.884,5.163.815.815,0,0,0,.005.756,1.02,1.02,0,0,0,.648.5,1.156,1.156,0,0,0,1.324-.57,15.865,15.865,0,0,1,3.368-4.414.87.87,0,0,0,.239-.927,1.03,1.03,0,0,0-.773-.657A1.335,1.335,0,0,0,443.643,184.107Zm1.489,2.133h0Z" transform="translate(-20.15 -1.278)"/>
    <path id="Path_38434" data-name="Path 38434" d="M440.089,192.291a3.112,3.112,0,0,1-.839-.115,2.737,2.737,0,0,1-1.713-1.334,2.2,2.2,0,0,1-.017-2,13.857,13.857,0,0,1,4.417-5.762,3.143,3.143,0,0,1,2.462-.417,2.7,2.7,0,0,1,2,1.7,2.27,2.27,0,0,1-.614,2.392,14.6,14.6,0,0,0-3.05,3.968A2.9,2.9,0,0,1,440.089,192.291Zm3.554-8.183a1.118,1.118,0,0,0-.626.179,12.6,12.6,0,0,0-3.884,5.163.815.815,0,0,0,.005.756,1.02,1.02,0,0,0,.648.5,1.156,1.156,0,0,0,1.324-.57,15.865,15.865,0,0,1,3.368-4.414.87.87,0,0,0,.239-.927,1.03,1.03,0,0,0-.773-.657A1.335,1.335,0,0,0,443.643,184.107Zm1.489,2.133h0Z" transform="translate(-12.29 1.402)"/>
  </g>
</svg>
