<svg xmlns="http://www.w3.org/2000/svg" width="18.668" height="18.668" viewBox="0 0 18.668 18.668">
  <g id="Group_40098" data-name="Group 40098" transform="translate(2068.584 5632.584)">
    <g id="Group_40096" data-name="Group 40096" transform="translate(-2068.584 -5632.584)">
      <g id="cancel" transform="translate(1.05 1.05)">
        <path id="Path_38478" data-name="Path 38478" d="M10.423,18.635a8.278,8.278,0,1,1,5.858-2.422,8.255,8.255,0,0,1-5.858,2.422Zm0-15.239a6.96,6.96,0,1,0,4.92,2.039A6.911,6.911,0,0,0,10.424,3.4Z" transform="translate(-2.143 -2.07)"/>
        <path id="Path_38479" data-name="Path 38479" d="M10.057,16.277a.662.662,0,0,1-.469-1.131l5.623-5.623a.663.663,0,0,1,.937.937l-5.623,5.623a.658.658,0,0,1-.469.194Z" transform="translate(-4.589 -4.518)"/>
        <path id="Path_38480" data-name="Path 38480" d="M15.681,16.277a.661.661,0,0,1-.469-.194L9.589,10.459a.663.663,0,0,1,.937-.937l5.623,5.623a.662.662,0,0,1-.469,1.131Z" transform="translate(-4.589 -4.518)"/>
      </g>
      <circle id="Ellipse_350" data-name="Ellipse 350" cx="7.621" cy="7.621" r="7.621" transform="matrix(-0.966, -0.259, 0.259, -0.966, 14.723, 18.668)"/>
    </g>
    <g id="Group_40097" data-name="Group 40097" transform="translate(-2068.584 -5632.584)">
      <ellipse id="Ellipse_349" data-name="Ellipse 349" cx="7.29" cy="7.621" rx="7.29" ry="7.621" transform="translate(1.325 0.663)" fill="#ec85c0"/>
      <g id="cancel-2" data-name="cancel" transform="translate(0 0)">
        <path id="Path_38478-2" data-name="Path 38478" d="M10.423,18.635a8.278,8.278,0,1,1,5.858-2.422,8.255,8.255,0,0,1-5.858,2.422Zm0-15.239a6.96,6.96,0,1,0,4.92,2.039A6.911,6.911,0,0,0,10.424,3.4Z" transform="translate(-2.143 -2.07)"/>
        <path id="Path_38479-2" data-name="Path 38479" d="M10.057,16.277a.662.662,0,0,1-.469-1.131l5.623-5.623a.663.663,0,0,1,.937.937l-5.623,5.623a.658.658,0,0,1-.469.194Z" transform="translate(-4.589 -4.518)"/>
        <path id="Path_38480-2" data-name="Path 38480" d="M15.681,16.277a.661.661,0,0,1-.469-.194L9.589,10.459a.663.663,0,0,1,.937-.937l5.623,5.623a.662.662,0,0,1-.469,1.131Z" transform="translate(-4.589 -4.518)"/>
      </g>
    </g>
  </g>
</svg>
