<svg xmlns="http://www.w3.org/2000/svg" width="32.666" height="33.1" viewBox="0 0 32.666 33.1">
  <g id="checkbox_filled" data-name="checkbox filled" transform="translate(2.5 2.5)">
    <g id="checkbox_on-2" transform="translate(1.816 2.007)">
      <g id="checked-2">
        <path d="M 17.89582443237305 27.34249687194824 L 7.953703880310059 27.34249687194824 C 5.421773910522461 27.34249687194824 3.230773687362671 26.42676734924316 1.441573739051819 24.62074661254883 C -0.3444163203239441 22.81795692443848 -1.249996304512024 20.61196708679199 -1.249996304512024 18.06403732299805 L -1.249996304512024 13.0462474822998 L -1.249996304512024 8.028457641601562 C -1.249996304512024 5.480537414550781 -0.3444263339042664 3.274537563323975 1.441573739051819 1.471737504005432 C 3.230783700942993 -0.3342725038528442 5.421773910522461 -1.250002503395081 7.953703880310059 -1.250002503395081 L 17.89582443237305 -1.250002503395081 C 20.42775344848633 -1.250002503395081 22.61874389648438 -0.3342725038528442 24.4079532623291 1.471737504005432 C 26.19395446777344 3.274537563323975 27.09952354431152 5.480537414550781 27.09952354431152 8.028457641601562 L 27.09952354431152 18.06403732299805 C 27.09952354431152 20.61196708679199 26.19394302368164 22.81795692443848 24.4079532623291 24.62074661254883 C 22.61875343322754 26.42676734924316 20.42775344848633 27.34249687194824 17.89582443237305 27.34249687194824 Z" stroke="none"/>
        <path d="M 7.953702926635742 -1.9073486328125e-06 C 5.757343292236328 -1.9073486328125e-06 3.88264274597168 0.7838268280029297 2.329584121704102 2.351476669311523 C 0.7765235900878906 3.919137954711914 3.814697265625e-06 5.811456680297852 3.814697265625e-06 8.028457641601562 L 3.814697265625e-06 18.06403732299805 C 3.814697265625e-06 20.28102684020996 0.7765235900878906 22.1733570098877 2.329584121704102 23.74100685119629 C 3.88264274597168 25.30866813659668 5.757343292236328 26.09249687194824 7.953702926635742 26.09249687194824 L 17.89582443237305 26.09249687194824 C 20.09218406677246 26.09249687194824 21.96688461303711 25.30866813659668 23.51994323730469 23.74100685119629 C 25.07299423217773 22.1733570098877 25.84952354431152 20.28102684020996 25.84952354431152 18.06403732299805 L 25.84952354431152 8.028457641601562 C 25.84952354431152 5.811456680297852 25.07299423217773 3.919137954711914 23.51994323730469 2.351476669311523 C 21.96688461303711 0.7838268280029297 20.09218406677246 -1.9073486328125e-06 17.89582443237305 -1.9073486328125e-06 L 7.953702926635742 -1.9073486328125e-06 M 7.953702926635742 -2.500001907348633 L 17.89582443237305 -2.500001907348633 C 20.77358436584473 -2.500001907348633 23.26335334777832 -1.45970344543457 25.29595375061035 0.5919971466064453 C 27.32216453552246 2.637256622314453 28.34952354431152 5.139238357543945 28.34952354431152 8.028457641601562 L 28.34952354431152 18.06403732299805 C 28.34952354431152 20.9532585144043 27.32215309143066 23.45523834228516 25.29596328735352 25.50048828125 C 23.26336288452148 27.55219650268555 20.77359390258789 28.59249687194824 17.89582443237305 28.59249687194824 L 7.953702926635742 28.59249687194824 C 5.075933456420898 28.59249687194824 2.586164474487305 27.55219650268555 0.5535640716552734 25.50048828125 C -1.472625732421875 23.45525741577148 -2.499996185302734 20.95326805114746 -2.499996185302734 18.06403732299805 L -2.499996185302734 8.028457641601562 C -2.499996185302734 5.139226913452148 -1.472625732421875 2.637247085571289 0.5535640716552734 0.5919971466064453 C 2.586174011230469 -1.45970344543457 5.075942993164062 -2.500001907348633 7.953702926635742 -2.500001907348633 Z" stroke="none" fill="#000"/>
      </g>
      <path id="check-2" d="M3.214,9.221.335,6.021a1.386,1.386,0,0,1,0-1.806,1.1,1.1,0,0,1,.814-.375,1.1,1.1,0,0,1,.814.375l2.065,2.3L9.546.375a1.072,1.072,0,0,1,1.629,0,1.382,1.382,0,0,1,0,1.806L4.842,9.222a1.072,1.072,0,0,1-1.628,0Z" transform="translate(7.159 8.241)"/>
    </g>
    <g id="checkbox_on-2-2" data-name="checkbox_on-2" transform="translate(0)">
      <g id="checked-2-2" data-name="checked-2" fill="#f7d854">
        <path d="M 17.89582443237305 27.34249687194824 L 7.953703880310059 27.34249687194824 C 5.421773910522461 27.34249687194824 3.230773687362671 26.42676734924316 1.441573739051819 24.62074661254883 C -0.3444163203239441 22.81795692443848 -1.249996304512024 20.61196708679199 -1.249996304512024 18.06403732299805 L -1.249996304512024 13.0462474822998 L -1.249996304512024 8.028457641601562 C -1.249996304512024 5.480537414550781 -0.3444263339042664 3.274537563323975 1.441573739051819 1.471737504005432 C 3.230783700942993 -0.3342725038528442 5.421773910522461 -1.250002503395081 7.953703880310059 -1.250002503395081 L 17.89582443237305 -1.250002503395081 C 20.42775344848633 -1.250002503395081 22.61874389648438 -0.3342725038528442 24.4079532623291 1.471737504005432 C 26.19395446777344 3.274537563323975 27.09952354431152 5.480537414550781 27.09952354431152 8.028457641601562 L 27.09952354431152 18.06403732299805 C 27.09952354431152 20.61196708679199 26.19394302368164 22.81795692443848 24.4079532623291 24.62074661254883 C 22.61875343322754 26.42676734924316 20.42775344848633 27.34249687194824 17.89582443237305 27.34249687194824 Z" stroke="none"/>
        <path d="M 7.953702926635742 -1.9073486328125e-06 C 5.757343292236328 -1.9073486328125e-06 3.88264274597168 0.7838268280029297 2.329584121704102 2.351476669311523 C 0.7765235900878906 3.919137954711914 3.814697265625e-06 5.811456680297852 3.814697265625e-06 8.028457641601562 L 3.814697265625e-06 18.06403732299805 C 3.814697265625e-06 20.28102684020996 0.7765235900878906 22.1733570098877 2.329584121704102 23.74100685119629 C 3.88264274597168 25.30866813659668 5.757343292236328 26.09249687194824 7.953702926635742 26.09249687194824 L 17.89582443237305 26.09249687194824 C 20.09218406677246 26.09249687194824 21.96688461303711 25.30866813659668 23.51994323730469 23.74100685119629 C 25.07299423217773 22.1733570098877 25.84952354431152 20.28102684020996 25.84952354431152 18.06403732299805 L 25.84952354431152 8.028457641601562 C 25.84952354431152 5.811456680297852 25.07299423217773 3.919137954711914 23.51994323730469 2.351476669311523 C 21.96688461303711 0.7838268280029297 20.09218406677246 -1.9073486328125e-06 17.89582443237305 -1.9073486328125e-06 L 7.953702926635742 -1.9073486328125e-06 M 7.953702926635742 -2.500001907348633 L 17.89582443237305 -2.500001907348633 C 20.77358436584473 -2.500001907348633 23.26335334777832 -1.45970344543457 25.29595375061035 0.5919971466064453 C 27.32216453552246 2.637256622314453 28.34952354431152 5.139238357543945 28.34952354431152 8.028457641601562 L 28.34952354431152 18.06403732299805 C 28.34952354431152 20.9532585144043 27.32215309143066 23.45523834228516 25.29596328735352 25.50048828125 C 23.26336288452148 27.55219650268555 20.77359390258789 28.59249687194824 17.89582443237305 28.59249687194824 L 7.953702926635742 28.59249687194824 C 5.075933456420898 28.59249687194824 2.586164474487305 27.55219650268555 0.5535640716552734 25.50048828125 C -1.472625732421875 23.45525741577148 -2.499996185302734 20.95326805114746 -2.499996185302734 18.06403732299805 L -2.499996185302734 8.028457641601562 C -2.499996185302734 5.139226913452148 -1.472625732421875 2.637247085571289 0.5535640716552734 0.5919971466064453 C 2.586174011230469 -1.45970344543457 5.075942993164062 -2.500001907348633 7.953702926635742 -2.500001907348633 Z" stroke="none" fill="#000"/>
      </g>
      <path id="check-2-2" data-name="check-2" d="M3.214,8.45.335,5.517a1.19,1.19,0,0,1,0-1.655,1.137,1.137,0,0,1,1.629,0l2.065,2.1L9.546.343a1.137,1.137,0,0,1,1.629,0,1.187,1.187,0,0,1,0,1.655L4.842,8.451a1.137,1.137,0,0,1-1.628,0Z" transform="translate(7.159 9.043)"/>
    </g>
  </g>
</svg>
