<svg xmlns="http://www.w3.org/2000/svg" width="56.92" height="44.668" viewBox="0 0 56.92 44.668">
  <g id="Group_36864" data-name="Group 36864" transform="translate(-1511.144 -217.668)">
    <path id="check-2" d="M13.94,36.2,1.452,23.633a5.054,5.054,0,0,1,0-7.091,4.975,4.975,0,0,1,7.063,0l8.954,9.009L41.4,1.471a4.975,4.975,0,0,1,7.063,0,5.042,5.042,0,0,1,0,7.091L21,36.2a4.975,4.975,0,0,1-7.059,0Z" transform="translate(1516.144 222.668)" stroke="#000" stroke-width="4"/>
    <path id="check-2-2" data-name="check-2" d="M13.94,36.2,1.452,23.633a5.054,5.054,0,0,1,0-7.091,4.975,4.975,0,0,1,7.063,0l8.954,9.009L41.4,1.471a4.975,4.975,0,0,1,7.063,0,5.042,5.042,0,0,1,0,7.091L21,36.2a4.975,4.975,0,0,1-7.059,0Z" transform="translate(1513.144 219.668)" fill="#f7d854" stroke="#000" stroke-width="4"/>
  </g>
</svg>
