<svg xmlns="http://www.w3.org/2000/svg" width="41.541" height="41.541" viewBox="0 0 41.541 41.541">
  <g id="checkbox_filled" data-name="checkbox filled" transform="translate(2.5 2.5)">
    <g id="checkbox_on-2" transform="translate(2.61 2.61)">
      <g id="checked-2">
        <path d="M 23.49065780639648 35.18095779418945 L 10.44029712677002 35.18095779418945 C 7.227177143096924 35.18094635009766 4.445996761322021 34.02893829345703 2.174006938934326 31.75693702697754 C -0.09799300879240036 29.48493766784668 -1.250002980232239 26.70375633239746 -1.250002980232239 23.49065780639648 L -1.250002980232239 16.96547698974609 L -1.250002980232239 10.44029712677002 C -1.250002980232239 7.227197170257568 -0.09799300879240036 4.446016788482666 2.174016952514648 2.174006938934326 C 4.446016788482666 -0.09799300879240036 7.227197170257568 -1.250002980232239 10.44029712677002 -1.250002980232239 L 23.49065780639648 -1.250002980232239 C 26.70375633239746 -1.250002980232239 29.48493766784668 -0.09799300879240036 31.7569465637207 2.174016952514648 C 34.02893829345703 4.445996761322021 35.18094635009766 7.227177143096924 35.18095779418945 10.44029712677002 L 35.18095779418945 23.49065780639648 C 35.18094635009766 26.70377731323242 34.02893829345703 29.48495674133301 31.75693702697754 31.7569465637207 C 29.48495674133301 34.02893829345703 26.70377731323242 35.18094635009766 23.49065780639648 35.18095779418945 Z" stroke="none"/>
        <path d="M 10.4402961730957 -3.814697265625e-06 C 7.557287216186523 -3.814697265625e-06 5.096487045288086 1.019298553466797 3.057886123657227 3.057886123657227 C 1.019298553466797 5.096487045288086 -3.814697265625e-06 7.557287216186523 -3.814697265625e-06 10.4402961730957 L -3.814697265625e-06 23.49065780639648 C -3.814697265625e-06 26.37366676330566 1.019298553466797 28.8344669342041 3.057886123657227 30.87305641174316 C 5.096487045288086 32.91165542602539 7.557287216186523 33.93094635009766 10.4402961730957 33.93095779418945 L 23.49065780639648 33.93095779418945 C 26.37366676330566 33.93094635009766 28.8344669342041 32.91165542602539 30.87305641174316 30.87305641174316 C 32.91165542602539 28.8344669342041 33.93094635009766 26.37366676330566 33.93095779418945 23.49065780639648 L 33.93095779418945 10.4402961730957 C 33.93094635009766 7.557287216186523 32.91165542602539 5.096487045288086 30.87305641174316 3.057886123657227 C 28.8344669342041 1.019298553466797 26.37366676330566 -3.814697265625e-06 23.49065780639648 -3.814697265625e-06 L 10.4402961730957 -3.814697265625e-06 M 10.4402961730957 -2.500003814697266 L 23.49065780639648 -2.500003814697266 C 27.04731750488281 -2.500003814697266 30.12588691711426 -1.224822998046875 32.64082717895508 1.290115356445312 C 35.15575790405273 3.805057525634766 36.43094635009766 6.883617401123047 36.43095779418945 10.44028663635254 L 36.43095779418945 23.49065780639648 C 36.43094635009766 27.04734802246094 35.15575790405273 30.12589645385742 32.64081573486328 32.64082717895508 C 30.12589645385742 35.15575790405273 27.04734802246094 36.43094635009766 23.49066734313965 36.43095779418945 L 10.4402961730957 36.43095779418945 C 6.883617401123047 36.43094635009766 3.805057525634766 35.15575790405273 1.290115356445312 32.64082717895508 C -1.224822998046875 30.12588691711426 -2.500003814697266 27.04731750488281 -2.500003814697266 23.49065780639648 L -2.500003814697266 10.4402961730957 C -2.500003814697266 6.883636474609375 -1.224822998046875 3.805076599121094 1.290115356445312 1.290126800537109 C 3.805076599121094 -1.224822998046875 6.883636474609375 -2.500003814697266 10.4402961730957 -2.500003814697266 Z" stroke="none" fill="#000"/>
      </g>
      <path id="check-2" d="M4.618,11.991.481,7.829a1.674,1.674,0,0,1,0-2.349,1.648,1.648,0,0,1,2.34,0L5.787,8.465,13.715.487a1.648,1.648,0,0,1,2.34,0,1.67,1.67,0,0,1,0,2.349l-9.1,9.156a1.648,1.648,0,0,1-2.339,0Z" transform="translate(8.684 10.716)"/>
    </g>
    <g id="checkbox_on-2-2" data-name="checkbox_on-2" transform="translate(0 0)">
      <g id="checked-2-2" data-name="checked-2" fill="#a4e3dc">
        <path d="M 23.49065780639648 35.18095779418945 L 10.44029712677002 35.18095779418945 C 7.227177143096924 35.18094635009766 4.445996761322021 34.02893829345703 2.174006938934326 31.75693702697754 C -0.09799300879240036 29.48493766784668 -1.250002980232239 26.70375633239746 -1.250002980232239 23.49065780639648 L -1.250002980232239 16.96547698974609 L -1.250002980232239 10.44029712677002 C -1.250002980232239 7.227197170257568 -0.09799300879240036 4.446016788482666 2.174016952514648 2.174006938934326 C 4.446016788482666 -0.09799300879240036 7.227197170257568 -1.250002980232239 10.44029712677002 -1.250002980232239 L 23.49065780639648 -1.250002980232239 C 26.70375633239746 -1.250002980232239 29.48493766784668 -0.09799300879240036 31.7569465637207 2.174016952514648 C 34.02893829345703 4.445996761322021 35.18094635009766 7.227177143096924 35.18095779418945 10.44029712677002 L 35.18095779418945 23.49065780639648 C 35.18094635009766 26.70377731323242 34.02893829345703 29.48495674133301 31.75693702697754 31.7569465637207 C 29.48495674133301 34.02893829345703 26.70377731323242 35.18094635009766 23.49065780639648 35.18095779418945 Z" stroke="none"/>
        <path d="M 10.4402961730957 -3.814697265625e-06 C 7.557287216186523 -3.814697265625e-06 5.096487045288086 1.019298553466797 3.057886123657227 3.057886123657227 C 1.019298553466797 5.096487045288086 -3.814697265625e-06 7.557287216186523 -3.814697265625e-06 10.4402961730957 L -3.814697265625e-06 23.49065780639648 C -3.814697265625e-06 26.37366676330566 1.019298553466797 28.8344669342041 3.057886123657227 30.87305641174316 C 5.096487045288086 32.91165542602539 7.557287216186523 33.93094635009766 10.4402961730957 33.93095779418945 L 23.49065780639648 33.93095779418945 C 26.37366676330566 33.93094635009766 28.8344669342041 32.91165542602539 30.87305641174316 30.87305641174316 C 32.91165542602539 28.8344669342041 33.93094635009766 26.37366676330566 33.93095779418945 23.49065780639648 L 33.93095779418945 10.4402961730957 C 33.93094635009766 7.557287216186523 32.91165542602539 5.096487045288086 30.87305641174316 3.057886123657227 C 28.8344669342041 1.019298553466797 26.37366676330566 -3.814697265625e-06 23.49065780639648 -3.814697265625e-06 L 10.4402961730957 -3.814697265625e-06 M 10.4402961730957 -2.500003814697266 L 23.49065780639648 -2.500003814697266 C 27.04731750488281 -2.500003814697266 30.12588691711426 -1.224822998046875 32.64082717895508 1.290115356445312 C 35.15575790405273 3.805057525634766 36.43094635009766 6.883617401123047 36.43095779418945 10.44028663635254 L 36.43095779418945 23.49065780639648 C 36.43094635009766 27.04734802246094 35.15575790405273 30.12589645385742 32.64081573486328 32.64082717895508 C 30.12589645385742 35.15575790405273 27.04734802246094 36.43094635009766 23.49066734313965 36.43095779418945 L 10.4402961730957 36.43095779418945 C 6.883617401123047 36.43094635009766 3.805057525634766 35.15575790405273 1.290115356445312 32.64082717895508 C -1.224822998046875 30.12588691711426 -2.500003814697266 27.04731750488281 -2.500003814697266 23.49065780639648 L -2.500003814697266 10.4402961730957 C -2.500003814697266 6.883636474609375 -1.224822998046875 3.805076599121094 1.290115356445312 1.290126800537109 C 3.805076599121094 -1.224822998046875 6.883636474609375 -2.500003814697266 10.4402961730957 -2.500003814697266 Z" stroke="none" fill="#000"/>
      </g>
      <path id="check-2-2" data-name="check-2" d="M4.618,11.991.481,7.829a1.674,1.674,0,0,1,0-2.349,1.648,1.648,0,0,1,2.34,0L5.787,8.465,13.715.487a1.648,1.648,0,0,1,2.34,0,1.67,1.67,0,0,1,0,2.349l-9.1,9.156a1.648,1.648,0,0,1-2.339,0Z" transform="translate(8.684 10.716)"/>
    </g>
  </g>
</svg>
