<svg xmlns="http://www.w3.org/2000/svg" xmlns:xlink="http://www.w3.org/1999/xlink" width="733" height="920" viewBox="0 0 733 920">
  <defs>
    <clipPath id="clip-path1">
      <rect id="Rectangle_2908" data-name="Rectangle 2908" width="733" height="920" transform="translate(13461 4033)" fill="#fff" stroke="#707070" stroke-width="1"/>
    </clipPath>
  </defs>
  <g id="Mask_Group_26" data-name="Mask Group 26" transform="translate(-13461 -4033)" clip-path="url(#clip-path)">
    <g id="Group_37679" data-name="Group 37679" transform="translate(12438.859 3897)">
      <g id="Component_5_3" data-name="Component 5 – 3" transform="translate(1032.141 139.728)">
        <g id="Rectangle_2901" data-name="Rectangle 2901" transform="translate(31.691 71.187)" stroke="#000" stroke-width="4">
          <rect width="678.169" height="771" rx="24" stroke="none"/>
          <rect x="2" y="2" width="674.169" height="767" rx="22" fill="none"/>
        </g>
        <g id="Rectangle_2900" data-name="Rectangle 2900" transform="translate(14.691 63.187)" fill="#a4e3db" stroke="#000" stroke-width="4">
          <rect width="683.169" height="771" rx="24" stroke="none"/>
          <rect x="2" y="2" width="679.169" height="767" rx="22" fill="none"/>
        </g>
        <path id="Path_39231" data-name="Path 39231" d="M136.774-1.7l11.648,8.463L163.017.237l22.1,9.668L200.482,36.09,189.646,55,154.729,92.5l7.08,41.335L239.793,253.89,260.4,270.677l27.836,23.586,39.688,19.761-1.229-33.36-34.423-33.148-38.248-40.16,17.424-22.948,57.58-78.924,41.652,9.866,42.5,45.472,27.836,15.512-4.25,48.447-51.847,60.559-14.453-6.1,2.554,34.79,52.06-24.011,59.748-51.662L557.25,126.4l6.374-35.911,6.8-14.662L588.418,53l7.182-4.972,9.247,8.25,10.2,2.125,4.888,8.712,12.324,1.275,5.949,8.5h10.982l4.954,11.474-21.886,33.786L607.821,157.42l-28.473,51.422L544.5,270.677l-92.9,145.9L222.793,392l-54.608-96.25,9.3-8.782L106.3,158.837l-35.745,55.59-8.4,4.2L27.607,198.088l-6.068-10.737L9.868,162.609l75.16-65.357,23.659-35.876Z" transform="translate(-6.909 262.693)" fill="#fff"/>
        <g id="degree-holder" transform="translate(-46.225 211.631)">
          <g id="Group_37656" data-name="Group 37656" transform="translate(46.225 47.384)">
            <path id="Path_39171" data-name="Path 39171" d="M542.314,539.733c-9.3.5-16.972,6.7-24.969,10.712a54.41,54.41,0,0,1-33.4,5.01,1.284,1.284,0,0,0-.468,2.525,56.976,56.976,0,0,0,35.016-5.239c8.091-4.05,15.354-9.984,23.961-10.443a19.4,19.4,0,0,1,13.616,34.168c-7.567,6.406-18.864,6.273-28.884,7.48-5.239.616-22.548,3.668-25.344,17.041a31.092,31.092,0,0,0-.2,8.454,1.285,1.285,0,0,0,2.564-.168,28.855,28.855,0,0,1,.15-7.759c2.443-11.7,18.323-14.452,23.133-15.019,10.484-1.261,22.006-1.1,30.24-8.072a21.967,21.967,0,0,0-15.416-38.689ZM156.145,437.108c-10.115,3.521-25.011,9.911-29.348,19.669-2.206,5.1-1.63,10.187,1.541,13.6,4.746,5.088,8.028,8.019,16.964,12.213a123.091,123.091,0,0,0,16.069,6.08,1.928,1.928,0,0,0,2.492-1.995c-1.686-20.815-3.429-36.983-5.182-48.055A1.925,1.925,0,0,0,156.145,437.108Zm221.528,47.451c27.461-11.286,33.208-27.877,7.956-41.349a1.928,1.928,0,0,0-2.779,1.24c-3.281,13.4-5.909,26.195-7.81,38.023A1.925,1.925,0,0,0,377.674,484.559ZM557.693,95.12c-.492-8.73-8.912-14.71-17.563-11.089a12.646,12.646,0,0,0-15.571-10.559,12.638,12.638,0,0,0-10.572-6.338c-9.21-.121-13.141,9.7-17.7,17.978-2.334.135-4.338,1.215-6.858,3.456-9.616,8.487-10.414,21.618-12.142,33.517-2.778,21.441-2.312,19.24-3.045,20.369-1.158,1.757-71.316,108.174-72.568,110.1a1.924,1.924,0,1,0,3.215,2.115c.24-.369,9.649-14.668,72.524-110.032,1.373-1.863.955-.629,3.693-22.048,1.522-10.73,2.193-23.473,10.877-31.138,3.2-2.849,4.476-3.217,9.063-1.509a38.772,38.772,0,0,1,21.3,20.1c3.132,7.152-.055,13.863-8.964,13.481-4.884-.214-9.634-2.984-14.065-5.1a1.927,1.927,0,0,0-2.611,2.475c.947,2.273,2.019,4.847,2.086,7.349a10.014,10.014,0,0,1-4.112,8.259,1.925,1.925,0,1,0,2.219,3.146c4.419-3.114,6.989-8.9,5.061-15.645,5.682,2.724,11.537,4.589,17.47,2.542a10.568,10.568,0,0,0,.446,5.788c2.461,6.287,12.245,8.821,19.741,1.193.885,3.356,4.473,6.049,8.06,6.51-.167.254-22.583,33.144-22.434,32.891-3.3,5.6,16.32-29.734-63.338,115.392a1.926,1.926,0,0,0,3.378,1.854l63.265-115.291c6.785-10.408,16.458-23.667,23.263-34.115a1.876,1.876,0,0,0,.277-1.136c6.932-2.215,12.421-10.617,15.531-16.339,2.6-4.711,4.575-8.306,7.026-13.3C578.773,101.561,568.877,90.976,557.693,95.12Zm-57.307-9.46c3.463-6.192,6.838-14.676,13.544-14.676a8.792,8.792,0,0,1,7.445,4.746c-2.76,5.679-5.145,10.375-8.3,16.572A40.2,40.2,0,0,0,500.386,85.66Zm15.71,9.209c3.259-6.415,5.8-11.389,8.739-17.444a8.843,8.843,0,0,1,7.99,1.245,9.828,9.828,0,0,1,3.588,7.03c-3.214,6.969-7.022,14.449-10.74,22.392A41.422,41.422,0,0,0,516.1,94.868Zm15.367,39.284c-2.956.749-6.878-.362-8.008-3.242-.874-2.178-.107-4.874.8-7.473a11.942,11.942,0,0,0,3.026-9.638c.12-.258,1.493-3.4,5.212-11.061h0c.007-.012.012-.025.02-.035.483-1.209,1.812-3.477,6.611-13.717a1.909,1.909,0,0,0,.327-.173c3.212-2.352,7.482-2.635,10.392-.673a9.463,9.463,0,0,1,3.868,9.366c-.747.507-.635.914-2.685,5.059-3.389,7.159-6.892,14.56-9.712,21.876C538.3,130.165,535.255,133.168,531.463,134.152Zm39.724-25.862c-2.446,4.984-4.34,8.425-6.947,13.15a42.464,42.464,0,0,1-7.623,10.719c-4.132,3.939-8.6,6.063-12.472,1.842-2.094-2.294-1.663-4.4,12.282-33.864a4.255,4.255,0,0,0,.607-.385,10.274,10.274,0,0,1,10.493-.441C570.576,101.032,572.775,105.05,571.187,108.29Z" transform="translate(74.592 -17.277)" stroke="#000" stroke-width="2"/>
            <path id="Path_39172" data-name="Path 39172" d="M263.075,304.938a66.079,66.079,0,0,1,20.784-19.426c3.622-2.141,7.7-3.981,11.885-3.546,20.509,2.128,8.957,39.263,3.1,49.864-3.86-1.962-8.13-3.5-11.989-5.462,1.181-6.43,3.871-12.926,5.052-19.355-4,5.478-8.4,10.466-12.4,15.945l-14.255-14.435C263.633,306.882,261.77,306.842,263.075,304.938Z" transform="translate(283.701 310.148)" fill="#f7d854" stroke="#000" stroke-width="4"/>
            <path id="Path_39173" data-name="Path 39173" d="M151.823,133.306l-19.258,28.269c-.1,0,1.545-1.437,1.442-1.463C117.524,158.957,98.7,133.306,98.7,133.306c25.393-32.73,17.505-22.147,18.964-24.027l10.13,6.865c-3.441,10.22,3.2,22.135,16.673,17.163C144.729,133.5,152.171,133.563,151.823,133.306Zm-34.158-40.7c.444-.653-6.093-17.055-6.379-17.816-.206-.549-.329-3.81-1.144-3.6s-.4-2.5-4.052,9.193c-.095.3-2.359,7.989-2.65,7.671-.55-.6-8.088-1.415-13.729-2.81-.5-.124-3.17-2.711-3.6-2.286-.532.531-4.516-2.056,10.787,23.047.007.011,3.244,3.258,3.25,3.269.95,1.559,4.757-1.06,5.938-2.452C111.042,100.992,113.9,98.3,117.665,92.606ZM98.7,115.163c-.15-.475.147-1.389-20.105-6.865-.312-.084-1.288.693-1.545.981a.872.872,0,0,0,0,.98c.437.777,6.9,12.139,6.613,12.422s-17.731,7.131-18.144,7.294c-.364.144-1.512.744-1.308,1.3.116.314-5.155-1.137,2.452,0,2.1.313,12.089,1.935,12.749,2.034,14.4-13.584,17-14.943,19.288-17.163C99.049,115.806,98.766,115.367,98.7,115.163Z" transform="translate(-22.195 -16.029)" fill="#f7d854"/>
            <path id="Path_39174" data-name="Path 39174" d="M491.56,189.353c-2.55,1.995-66.875,109.792-76.443,125.04a13.364,13.364,0,0,0-1.691,3.837c-.732,2.7-2.146,7.826-3.787,14.592-14.1,57.237-10.408,77.048-11.487,79.674H189.625c-.55-1.435-5.151-90.755-11.663-100.022l-68.39-100.451c-1.06-1.565.025-3.105,1.01-4.746,9.886-16.929,59.336-48.181,73.792-46.325,1.829.2,3.167-.547,4.242.555,18.16,19.3,46.212,42.679,70.839,53.015,5.628,2.371,6.923,1.5,9.82,5.125,9.27,14.131,25.107,17.982,35.8,11.714,2.146-1.262,3.661-3.03,5.605-4.468a21.9,21.9,0,0,0,4.165-4.469c.32-.316.878-1.538,1.54-1.969.8-.547-.08.38,5.656-1.49,28.266-9.131,57.661-32.554,76.7-55.515,19.505-23.138,12.939-14.685,19.515-22.064,1.136-1.212,2.676-.555,4.292-.5C449.249,141.639,502.845,180.466,491.56,189.353Z" transform="translate(49.685 94.817)" fill="#ec85c0" stroke="#000" stroke-width="4"/>
            <path id="Path_39175" data-name="Path 39175" d="M529.242,320.217l-216,102.446a5.138,5.138,0,0,1-4.267.051L97.217,329.886a5.123,5.123,0,0,1,.606-9.593l77.5-23.276V230.494C296.682,290.1,396.7,251.17,449.34,223.552v60.741l79.321,26.432A5.129,5.129,0,0,1,529.242,320.217Z" transform="translate(26.866 221.191)" fill="#80d5ec" stroke="#000" stroke-width="4"/>
            <path id="Path_39176" data-name="Path 39176" d="M354.092,205.417c3.029-4.09,4.393-9.593,2.676-14.39-1.692-4.8-6.993-8.508-11.992-7.447a16.489,16.489,0,0,0,7.8-13.607c.173-12.476-13.477-19.913-23.1-15.324a10.537,10.537,0,0,0-4.065-8.356c-2.575-1.944-5.857-3.358-8.937-2.474-4.392-14.264-8.987-28.957-18.454-40.544C288.58,91.712,273.029,83.81,258.614,87.8c-3.938,1.086-5.453,1.792-9.467.959a56.188,56.188,0,0,0-67.153,47.335c-.605,4.039-.075,3.534-3.029,5.352-5.251,3.181-10.174,3.812-14.238,9.164a25.4,25.4,0,0,0-4.115,22.09c-10.711-2.956-29.685,23.955-20.626,43.144,3.812,8.129,13,13.91,21.862,12.345-6.791,8.078-6.942,21.761.227,29.537,7.2,7.75,20.3,9.063,28.855,2.9,3.6,6.718,8.729,13.659,16.334,14.541,3.938.455,8.2-1.136,10.325-4.468,2.979.4,5.958.808,8.937,1.187l-.959,29.562a48.245,48.245,0,0,0,3.686,4.721l1.212-36.4c11.087,6.026,24.01,7.012,36.959,1.919l4.065,32.87a8.1,8.1,0,0,1,1.489-1.919,3.474,3.474,0,0,1,1.363-.3c.253-.051.479-.1.732-.177l-3.181-25.624c11.007,3.3,26.587-2.834,32.743-17.571,6.658,3.624,16.916,6.99,24.312,5.276,4.14-.959,8.028-3.585,9.669-7.5,2.247-5.2-.429-11.764-2.549-17.015a13.067,13.067,0,0,0,12.824-3.711c7.12-7.745,1.7-20.7-6.993-21.736C346.569,212.284,351.063,209.482,354.092,205.417ZM206.886,132.685a54.521,54.521,0,0,0,30.673-28.5,1.933,1.933,0,1,1,3.534,1.566A57.888,57.888,0,0,1,208.2,136.3a1.946,1.946,0,0,1-2.474-1.161A1.912,1.912,0,0,1,206.886,132.685Zm105.8,63.8a2.02,2.02,0,0,0-1.944,1.565c-1.737,9.653-7.883,30.989-15.021,43.422-11.916,20.852-36.454,36.631-60.21,26.482-6.665-2.828-13.128-7.7-19.767-14.9-15.44-16.633-19.068-28.536-24.034-45.644a1.922,1.922,0,0,0-2.02-1.388c-5.041.458-13.263,3.755-19.918-.96-5.731-4.089-8.255-11.941-5.933-18.252a14.7,14.7,0,0,1,25.927-3.105,1.926,1.926,0,0,0,3.484-1.464c-1.995-9.215-.884-19.616,2.878-29.209,2.55-2.2,6.64-3.105,9.644-3.56,8.356-1.279,14.062-.561,49.279.151,2.5-5.781,4.973-11.562,7.473-17.343.3-.732.783-3.08,1.893-2.424.534.321.185.511,3.105,14.137.812,3.982,2.3,6.029,8.2,5.276a55.453,55.453,0,0,1,17.319.732c8.434,1.6,13.438,6.066,15.576,17.242.606,2.954.1,6.438.076,9.467,4.517-7.727,3.379-3.795,4.62-5.781,8.284-13.621,22.809-11.072,23.2,2.7C336.915,186.786,325.136,196.922,312.69,196.48Z" transform="translate(93.089 12.635)"/>
            <path id="Path_39177" data-name="Path 39177" d="M383.079,280.843c.254,0,13.429-.509,13.175-.52a1.924,1.924,0,0,0,1.847-2,1.859,1.859,0,0,0-2-1.847l-10.788.427,3.469-24.331a1.925,1.925,0,1,0-3.811-.542l-3.8,26.616A1.927,1.927,0,0,0,383.079,280.843Zm-20.04-40.534c-2.184-3.959-6.633-3.374-8.968.965-2.247,4.171-1.418,15.928,5.677,13.972a6.5,6.5,0,0,0,4.171-4.391A16.751,16.751,0,0,0,363.039,240.309Zm-12.754-8.75a14.2,14.2,0,0,1,18.382,2.379,1.926,1.926,0,0,0,2.875-2.564,18.055,18.055,0,0,0-23.382-3.025,1.925,1.925,0,0,0,2.125,3.21Zm68.183,9.071c-2.176-3.944-6.622-3.392-8.968.964-2.247,4.171-1.418,15.928,5.677,13.972a6.5,6.5,0,0,0,4.171-4.391A16.752,16.752,0,0,0,418.468,240.63Zm-12.754-8.75a14.193,14.193,0,0,1,18.382,2.379,1.926,1.926,0,0,0,2.875-2.564,18.047,18.047,0,0,0-23.382-3.025,1.925,1.925,0,0,0,2.125,3.21Zm52.026,7.427a18.462,18.462,0,0,0,9.452-8.3,1.926,1.926,0,0,0-3.378-1.854,14.773,14.773,0,0,1-7.475,6.56,1.927,1.927,0,0,0,1.4,3.59Zm-132.079,14.36a15.181,15.181,0,0,1-10.036-5.8,1.925,1.925,0,0,0-3.072,2.322,18.853,18.853,0,0,0,12.63,7.3,1.926,1.926,0,1,0,.478-3.821Zm61.806,40.405a1.926,1.926,0,1,0-2.145,3.2,16.1,16.1,0,0,0,24.089-8.136,1.926,1.926,0,1,0-3.644-1.247A12.206,12.206,0,0,1,387.466,294.072ZM172.32,165.079l.394.292-16.641,22.344c-13.259-1.489-28.142-18.717-31.944-23.374l17.221-22.171,9.011,6.678C144.792,161.632,155.317,172.6,172.32,165.079Zm22.08-24.967a29.476,29.476,0,0,0-7.6-11.352c-4.435-3.89-7.233-4.361-12.985-2.2A42.727,42.727,0,0,0,152.1,145.342l-9.4-6.971c28.19-39.288,37.7-62.715,41.556-67.932.389-.521.772-1.042,1.117-1.584a18.12,18.12,0,0,0,4.363,6.168,64.17,64.17,0,0,0,21.989,20.839c5.13,2.907,10.993,5.665,16.839,5.357C216.447,114.316,205,127.364,194.4,140.112ZM197.634,79.2c.22-3.741,1.7-9.084,5.272-10.446A12.829,12.829,0,0,1,213.5,69.958c8.316,4.643,14.633,17.671,16.614,27.162-5.38,1.049-11.079-1.544-16.493-4.609A59.477,59.477,0,0,1,197.634,79.2Zm3.1-25.051a45.071,45.071,0,0,1,21.217,7.327c13.584,8.887,17,23.324,11.669,33.561-3.087-13.148-13-30.788-26.984-30.788-6.767,0-10.483,3.774-12.149,10.221-2.785-3.152-7.294-6.385-6.094-12.734C189.358,56.633,195.46,53.877,200.734,54.148Zm-88.808,63.683,7.832,1.925c7.766,1.856,6.766,2.229,7.751,2.041,1.592-.32,2.114-1.622,5.8-14.612,2.876,7.731,3.688,10.033,5.335,15.3a1.883,1.883,0,0,0,.357,1.25,207.161,207.161,0,0,1-13.042,16.981C123.782,137.161,115.549,123.635,111.926,117.831Zm-18.663,44.12c3.054-1.226,11.728-4.709,12.216-4.906,5.937-2.423,5.559-1.592-1.334-13.86l15.8,4.3c-5.331,5.79-10.43,10.812-16.181,16.091C103.094,163.37,101.081,163.151,93.263,161.951Zm-40.378,45.93c12.27-9.133,41.61-27.5,68.685-56.457,21.925-23.453,36.665-48.363,43.807-74.037,2.053-7.374,5.829-14.777,8.594-22.3.319-.87,1.4-3.807,2.342-3.807.416,0,.234-.1,9.76,5.611-2.007,3.674-1.717,6.819-2.051,7.524-.267.575-.773.617-3.671,4.84-3.726,5.449-38.485,82.405-117.879,152.4l-10.466-8.037C49.81,211.931,48.813,210.906,52.885,207.882Zm86.172,6.4c-6.393,8.545-4.92,6-20.894,38.243-1.679,3.328-3.415,6.77-6.265,8.762-11.375,7.946-29.572-6.449-38.477-13.488-9.322-7.364-14.71-14.545-7.4-24.145a509.6,509.6,0,0,0,54.937-57.1c3.633,4.527,19.055,22.659,34.013,24.839C144.495,206.268,144.792,206.614,139.057,214.284Zm141.606,87.733c-1.363-2.1-78.917-119.688-79.018-119.815-.677-.97-3.2-28.879-5.756-37.868,11.739-14.188,24.589-28.805,38.222-43.422,2-1.332,4.034-6.261,4.7-8.558,3.9-13.394-3.2-26.545-14.743-34.107a49.4,49.4,0,0,0-23.125-7.952A18.215,18.215,0,0,0,188.9,54.082c-.279-.166-8.167-4.86-9.871-5.857-4.3-2.482-6.953.883-8.659,5.529-2.631,7.121-6.452,14.647-8.71,22.595a156.152,156.152,0,0,1-19.894,43.245c-.969-3.39-3.962-11.325-5.857-16.485-1.126-3.444-4.749-3.241-5.579.429-.855,3-3.006,10.7-4.165,13.936-1.888-.595-2.581-.769-15.223-3.863-3.787-1.223-5.417,1.493-3.635,4.115,2.954,4.625,13.927,22.655,16.005,26.053l-.454.53c-.051-.025-.076-.051-.1-.051l-20.222-5.5c-2.939-.823-4.335,1.67-3.055,4.039.149.266,4.85,8.488,5.705,10.2-1.366.639-17.467,7.018-17.722,7.119-3.523,1.12-3.03,4.683.859,5l11.815,1.767C78.4,186.228,64.724,194.27,50.577,204.8c-5.09,3.767-6.121,7.863-.909,11.89L60.6,225.068a15.831,15.831,0,0,0-1.818,7.548c.151,7.624,5.983,13.254,12.421,18.328,12.3,9.74,29.813,22.578,42.892,13.506,3.66-2.549,5.705-6.614,7.523-10.2,18.739-38.028,13.372-27.34,23.933-42.362,5.2,7.885,68.925,125.756,70.106,126.934.909-.858,1.868-1.717,2.878-2.6L151.028,213.178c-.025-.025-.05-.025-.05-.05a.091.091,0,0,1-.026-.076c-.984-1.464-1.994-3-3.055-4.57,8.23-12.294,16.965-24.538,26.079-36.53a13.827,13.827,0,0,0,5.352,7.927,1.939,1.939,0,0,0,2.7-.48,1.914,1.914,0,0,0-.48-2.676,10.052,10.052,0,0,1-4.141-8.23,23.657,23.657,0,0,1,2.1-7.422,1.91,1.91,0,0,0-2.6-2.449c-3.838,1.722-8.906,4.87-14.061,5.125-8.269.327-11.769-5.494-9.492-12.219a38.527,38.527,0,0,1,21.812-21.357c4.443-1.666,5.731-1.464,9.089,1.49,9.82,8.648,9.873,24.34,12.925,47.209.479,3.964.581,4.57,1.363,5.579.555.833,71.116,107.9,78.311,118.78a15.5,15.5,0,0,1,4.09-.025A1.845,1.845,0,0,0,280.663,302.017ZM521.729,569.078c1.9,5.52-.012,12.329-4.867,17.349-8.776,9.07-44.651,21.366-56.785,24.2-14.1,3.286-28.675,6.686-43.452,7.823-43.82,3.376-88.8-1.964-120.261-11.035-8.449-2.422-18.365-3.329-35.817-10.646-8.974-3.767-13.017-9.169-12.016-16.055l-2.539-.37c-1.193,8.192,3.37,14.514,13.564,18.791,17.654,7.408,28.729,8.628,36.1,10.747,23.1,6.652,58.589,12.191,93.336,12.191,31.493,0,44.725-2.665,71.668-8.947,12.176-2.84,48.369-14.907,58.047-24.913,5.52-5.707,7.66-13.545,5.448-19.967Z" transform="translate(-46.225 -47.384)" stroke="#000" stroke-width="1"/>
          </g>
        </g>
        <path id="Path_39236" data-name="Path 39236" d="M11574.314,4705.522a63.272,63.272,0,0,0-9.27-12.452,52.111,52.111,0,0,0-11.89-8.52" transform="matrix(0.966, 0.259, -0.259, 0.966, -9287.643, -6855.603)" fill="none" stroke="#000" stroke-linecap="round" stroke-width="4"/>
        <path id="Path_39237" data-name="Path 39237" d="M11574.314,4705.522a63.272,63.272,0,0,0-9.27-12.452,52.111,52.111,0,0,0-11.89-8.52" transform="translate(-10238.457 -5422.669) rotate(7)" fill="none" stroke="#000" stroke-linecap="round" stroke-width="4"/>
        <path id="Path_39238" data-name="Path 39238" d="M11622.029,4752.814s-12.949-23.466-30.172-40.53-38.7-27.733-38.7-27.733" transform="translate(-3164.959 12017.949) rotate(-95)" fill="none" stroke="#000" stroke-linecap="round" stroke-width="4"/>
        <path id="Path_39239" data-name="Path 39239" d="M11601.889,4729.2s-9.161-15.35-21.348-26.512-27.383-18.142-27.383-18.142" transform="translate(-3141.438 12024.266) rotate(-95)" fill="none" stroke="#000" stroke-linecap="round" stroke-width="4"/>
        <path id="Path_39240" data-name="Path 39240" d="M11637.09,4741.231s-15.779-19.483-36.77-33.653-47.162-23.027-47.162-23.027" transform="matrix(0.809, -0.588, 0.588, 0.809, -11984.154, 3214.055)" fill="none" stroke="#000" stroke-linecap="round" stroke-width="4"/>
        <path id="Path_39241" data-name="Path 39241" d="M11607.416,4727.518s-10.2-14.77-23.77-25.511-30.488-17.456-30.488-17.456" transform="matrix(0.809, -0.588, 0.588, 0.809, -11957.087, 3222.256)" fill="none" stroke="#000" stroke-linecap="round" stroke-width="4"/>
        <path id="Path_39242" data-name="Path 39242" d="M11607.416,4727.518s-10.2-14.77-23.77-25.511-30.488-17.456-30.488-17.456" transform="translate(-11041.864 -5074.579) rotate(5)" fill="none" stroke="#000" stroke-linecap="round" stroke-width="4"/>
        <path id="Path_39243" data-name="Path 39243" d="M11593.963,4716.872a101.589,101.589,0,0,0-17.875-19.19c-10.2-8.08-22.93-13.131-22.93-13.131" transform="translate(-10716.597 -5605.65) rotate(8)" fill="none" stroke="#000" stroke-linecap="round" stroke-width="4"/>
        <g id="paper2" data-name="Group 37657" transform="translate(-1040.14 -139.728)">
          <path id="Union_1" data-name="Union 1" d="M-12324.646-3759.558c-8.906-1.989-22.373-4.989-39.061-5.01-13.416-.015-22.584-.047-27.629-.342-4.681-.271-7.118-.75-8.31-2.732-.252-.414-.772-1.279-.878-6.953-.074-3.794.087-8.446.451-13.1a161.5,161.5,0,0,1,2.226-16.983,114.836,114.836,0,0,1,4.733-17.854,99.946,99.946,0,0,1,13.42-25.5c4.238-5.7,8.832-10.2,12.293-12.041a9.386,9.386,0,0,1,1.438-.632c2.895-.962,8.536-1.559,15.891-1.687a236.718,236.718,0,0,1,28.806,1.463c12.617,1.341,23.416,2.844,31.23,4.348,13.352,2.571,16.087,4.712,17,6.47.774,1.484.6,3.694-.566,7.164a89.375,89.375,0,0,1-4.46,10.32c-4.012,8.169-9.747,18.386-15.274,28.149-6.209,10.958-8.842,22.9-10.762,31.622-.787,3.563-1.466,6.641-2.237,9.028-.993,3.053-2.11,4.774-3.617,5.574a3.487,3.487,0,0,1-.4.187,7.6,7.6,0,0,1-2.858.466C-12315.879-3757.6-12319.55-3758.424-12324.646-3759.558Z" transform="translate(13586.391 4088.371)" fill="#fff"/>
          <path id="Union_1_-_Outline" data-name="Union 1 - Outline" d="M-12313.207-3755.6h0c-2.884,0-6.636-.835-11.829-1.991l-.045-.01c-8.813-1.968-22.131-4.941-38.629-4.963-13.458-.015-22.66-.048-27.743-.346-4.508-.261-8.1-.7-9.9-3.695-.532-.876-1.06-2.218-1.166-7.95-.075-3.845.087-8.568.457-13.3a163.592,163.592,0,0,1,2.254-17.2,116.838,116.838,0,0,1,4.818-18.166,101.94,101.94,0,0,1,13.7-26.013,66.538,66.538,0,0,1,6.644-7.7,28.875,28.875,0,0,1,6.316-4.909,11.41,11.41,0,0,1,1.743-.763c3.945-1.311,11.145-1.7,16.488-1.789.949-.016,1.938-.025,2.938-.025a249.819,249.819,0,0,1,26.115,1.5c12.673,1.347,23.53,2.859,31.4,4.372,6.231,1.2,10.675,2.4,13.587,3.671,2.517,1.1,4,2.283,4.812,3.84a7.072,7.072,0,0,1,.664,3.918,20.518,20.518,0,0,1-1.109,4.807,91.286,91.286,0,0,1-4.56,10.563c-4.022,8.191-9.778,18.449-15.33,28.254-6.065,10.705-8.657,22.474-10.549,31.067l-.011.051c-.794,3.593-1.479,6.7-2.276,9.163-1.165,3.582-2.574,5.654-4.569,6.719a5.417,5.417,0,0,1-.606.284,9.535,9.535,0,0,1-3.6.609Zm-33.963-104.816c-.977,0-1.941.008-2.867.024-7.058.123-12.632.7-15.295,1.585a7.382,7.382,0,0,0-1.126.5c-3.166,1.682-7.621,6.077-11.63,11.47a97.9,97.9,0,0,0-13.145,24.988,112.872,112.872,0,0,0-4.648,17.541,159.31,159.31,0,0,0-2.2,16.773c-.36,4.6-.519,9.185-.445,12.906.089,4.774.471,5.762.586,5.952l.006.01c.642,1.067,2.335,1.513,6.711,1.766,4.979.292,14.127.323,27.516.339,16.937.022,30.512,3.053,39.494,5.059l.045.01c4.943,1.1,8.515,1.9,10.959,1.9h0a5.691,5.691,0,0,0,2.11-.321l.012,0a1.5,1.5,0,0,0,.169-.079l.027-.015c1-.531,1.844-1.937,2.652-4.426.738-2.282,1.4-5.3,2.176-8.792l.011-.049c1.946-8.84,4.612-20.948,10.975-32.177,5.521-9.752,11.245-19.952,15.22-28.045a87.722,87.722,0,0,0,4.359-10.076c.939-2.792,1.171-4.677.688-5.6-.932-1.79-6.182-3.617-15.606-5.431-7.758-1.492-18.5-2.987-31.063-4.323A245.789,245.789,0,0,0-12347.17-3860.42Z" transform="translate(13586.391 4088.371)"/>
        </g>
        <g id="paper1" data-name="Group 37674" transform="translate(0 -29.876)">
          <path id="Union_3" data-name="Union 3" d="M-13364.787-3869.409c-8.909-1.987-22.375-4.989-39.062-5.009-13.415-.017-22.584-.047-27.627-.344-4.682-.273-7.12-.752-8.312-2.732-.249-.415-.772-1.279-.877-6.952-.074-3.795.088-8.45.452-13.1a161.178,161.178,0,0,1,2.223-16.981,114.74,114.74,0,0,1,4.736-17.854,99.874,99.874,0,0,1,13.419-25.5c4.239-5.7,8.834-10.2,12.291-12.042a9.4,9.4,0,0,1,1.44-.631c2.895-.961,8.538-1.562,15.888-1.687a237.914,237.914,0,0,1,28.808,1.461c12.619,1.343,23.416,2.847,31.231,4.348,13.352,2.574,16.087,4.716,17,6.47.772,1.484.6,3.7-.566,7.168a89.132,89.132,0,0,1-4.459,10.315c-4.011,8.173-9.749,18.387-15.277,28.149-6.207,10.963-8.841,22.9-10.761,31.627-.786,3.562-1.464,6.642-2.239,9.027-.992,3.053-2.105,4.773-3.613,5.576-.131.068-.267.132-.4.186a7.606,7.606,0,0,1-2.856.465C-13356.021-3867.457-13359.691-3868.274-13364.787-3869.409Z" transform="translate(13793.391 4004.147)" fill="#fff"/>
          <path id="Union_3_-_Outline" data-name="Union 3 - Outline" d="M-13353.349-3865.457h0c-2.892,0-6.659-.839-11.873-2-8.824-1.968-22.157-4.941-38.63-4.961-13.477-.017-22.689-.05-27.741-.348-4.512-.263-8.105-.7-9.908-3.7-.531-.886-1.058-2.226-1.163-7.947-.075-3.841.088-8.564.458-13.3a163.292,163.292,0,0,1,2.251-17.192,116.783,116.783,0,0,1,4.821-18.167,101.906,101.906,0,0,1,13.694-26.013,66.664,66.664,0,0,1,6.645-7.705,28.9,28.9,0,0,1,6.313-4.91,11.408,11.408,0,0,1,1.751-.764c3.955-1.313,11.146-1.7,16.482-1.788.938-.016,1.915-.024,2.9-.024a250.908,250.908,0,0,1,26.15,1.5c12.657,1.346,23.515,2.858,31.4,4.373,6.231,1.2,10.675,2.4,13.588,3.673,2.516,1.1,4,2.281,4.81,3.836a7.075,7.075,0,0,1,.664,3.92,20.5,20.5,0,0,1-1.108,4.81,90.762,90.762,0,0,1-4.56,10.56c-4,8.153-9.768,18.428-15.332,28.253-6.067,10.717-8.657,22.481-10.548,31.071l-.019.083c-.79,3.581-1.473,6.673-2.271,9.132-1.166,3.585-2.577,5.658-4.576,6.723l-.021.011c-.2.1-.392.192-.575.265A9.536,9.536,0,0,1-13353.349-3865.457Zm-34-104.815c-.965,0-1.918.008-2.834.024-7.045.12-12.618.7-15.292,1.585a7.43,7.43,0,0,0-1.131.5c-3.159,1.68-7.613,6.075-11.626,11.47a97.858,97.858,0,0,0-13.143,24.988,112.759,112.759,0,0,0-4.651,17.542,158.917,158.917,0,0,0-2.194,16.769c-.36,4.608-.52,9.193-.446,12.91a36.3,36.3,0,0,0,.353,5.131,2.263,2.263,0,0,0,.238.829c.641,1.065,2.335,1.511,6.714,1.767,4.947.291,14.105.324,27.514.341,16.91.021,30.5,3.052,39.494,5.057,4.964,1.106,8.551,1.9,11,1.9a5.685,5.685,0,0,0,2.107-.32l.006,0c.063-.025.135-.059.215-.1,1-.536,1.835-1.942,2.641-4.423.739-2.274,1.4-5.279,2.171-8.757l.018-.082c1.945-8.837,4.609-20.941,10.974-32.181,5.534-9.773,11.269-19.989,15.222-28.045a87.179,87.179,0,0,0,4.359-10.072c.938-2.793,1.17-4.68.688-5.607-.128-.245-.519-1-2.862-2.018a66.407,66.407,0,0,0-12.743-3.412c-7.774-1.493-18.517-2.988-31.064-4.323A246.85,246.85,0,0,0-13387.347-3970.271Z" transform="translate(13793.391 4004.147)"/>
        </g>
        <g id="paper3" data-name="Group 37675" transform="translate(0 -29.875)">
          <path id="Union_2" data-name="Union 2" d="M-13394.782-3874.74c-2.9-.308-6.3-3.211-11.923-8.028-6.933-5.936-17.412-14.907-32.14-22.76-11.835-6.311-19.917-10.645-24.23-13.271-4.006-2.441-5.933-4.006-6.055-6.318-.026-.483-.081-1.491,2.488-6.551,1.717-3.384,4.043-7.417,6.551-11.354a160.858,160.858,0,0,1,9.936-13.951,114.5,114.5,0,0,1,12.564-13.542,99.8,99.8,0,0,1,23.821-16.216c6.415-3.046,12.588-4.861,16.506-4.861a9.185,9.185,0,0,1,1.565.118c.211.036.435.08.668.131l.048-.02.1.053c3.1.713,8.013,2.75,14.007,5.805a237.542,237.542,0,0,1,24.747,14.813c10.513,7.109,19.343,13.508,25.535,18.5,10.581,8.535,11.99,11.713,11.974,13.694-.014,1.673-1.2,3.542-3.864,6.061a89.606,89.606,0,0,1-8.782,7.014c-7.379,5.334-17.236,11.659-26.7,17.682-10.628,6.764-18.562,16.073-24.349,22.871-2.369,2.779-4.411,5.179-6.216,6.919-2.309,2.231-4.1,3.225-5.811,3.225C-13394.488-3874.719-13394.638-3874.726-13394.782-3874.74Z" transform="translate(13750.152 4231.478)" fill="#fff"/>
          <path id="Union_2_-_Outline" data-name="Union 2 - Outline" d="M-13394.343-3872.719c-.208,0-.418-.01-.624-.029l-.026,0c-3.533-.374-7.1-3.432-13.014-8.5-6.865-5.878-17.241-14.762-31.779-22.513-11.871-6.331-19.979-10.679-24.329-13.328-3.86-2.352-6.827-4.428-7.012-7.921-.056-1.022.106-2.45,2.7-7.562,1.747-3.443,4.107-7.535,6.647-11.523a162.83,162.83,0,0,1,10.059-14.124,116.487,116.487,0,0,1,12.788-13.778,101.828,101.828,0,0,1,24.3-16.538,66.269,66.269,0,0,1,9.482-3.684,28.913,28.913,0,0,1,7.881-1.37,11.211,11.211,0,0,1,1.9.147l.126.022.358-.148.7.375c3.282.8,8.183,2.841,14.2,5.91a239.644,239.644,0,0,1,24.959,14.938c10.557,7.138,19.434,13.571,25.671,18.6,4.938,3.983,8.3,7.129,10.272,9.618,1.706,2.151,2.46,3.893,2.445,5.649a7.07,7.07,0,0,1-1.253,3.772,20.549,20.549,0,0,1-3.236,3.725,91.331,91.331,0,0,1-8.986,7.183c-7.4,5.349-17.3,11.7-26.8,17.749-10.393,6.614-18.2,15.785-23.9,22.48l-.1.114c-2.362,2.771-4.4,5.164-6.253,6.948C-13389.853-3873.887-13392.073-3872.719-13394.343-3872.719Zm-.242-4.01c.079.007.162.01.242.01,1.136,0,2.541-.846,4.421-2.663,1.711-1.651,3.692-3.975,5.987-6.666l.1-.113c5.863-6.888,13.9-16.323,24.8-23.261,9.452-6.016,19.293-12.331,26.6-17.616a87.724,87.724,0,0,0,8.581-6.847c2.139-2.025,3.229-3.582,3.237-4.624,0-.279.01-1.126-1.579-3.13a66.3,66.3,0,0,0-9.65-8.991c-6.151-4.964-14.935-11.327-25.4-18.4a235.619,235.619,0,0,0-24.535-14.688c-5.812-2.963-10.624-4.965-13.547-5.638l-.13-.029c-.2-.044-.394-.082-.57-.112l-.013,0a7.229,7.229,0,0,0-1.22-.088c-3.588,0-9.584,1.789-15.648,4.667a97.814,97.814,0,0,0-23.337,15.892,112.43,112.43,0,0,0-12.343,13.306,158.66,158.66,0,0,0-9.812,13.777c-2.473,3.882-4.765,7.854-6.455,11.186a36.5,36.5,0,0,0-2.1,4.7,2.263,2.263,0,0,0-.178.837c.066,1.262,1.306,2.408,5.1,4.719,4.259,2.594,12.319,6.916,24.131,13.214,14.925,7.958,25.5,17.013,32.5,23.005C-13400.273-3879.89-13396.881-3876.983-13394.585-3876.73Z" transform="translate(13750.152 4231.478)"/>
        </g>
        <g id="paper4" data-name="Group 37676" transform="translate(0 -29.875)">
          <path id="Union_4" data-name="Union 4" d="M-13398.748-3870.831c-1.8-1.741-3.847-4.141-6.213-6.919-5.79-6.8-13.723-16.107-24.351-22.87-9.465-6.024-19.321-12.348-26.7-17.682a88.622,88.622,0,0,1-8.781-7.017c-2.66-2.515-3.854-4.384-3.867-6.057-.017-1.984,1.4-5.158,11.976-13.7,6.193-5,15.022-11.395,25.534-18.5a237.444,237.444,0,0,1,24.747-14.812c6.551-3.34,11.816-5.462,14.821-5.969a9.225,9.225,0,0,1,1.568-.122c3.918,0,10.087,1.819,16.506,4.864a99.931,99.931,0,0,1,23.82,16.215,114.858,114.858,0,0,1,12.564,13.541,161.4,161.4,0,0,1,9.934,13.95c2.509,3.941,4.834,7.974,6.551,11.357,2.569,5.06,2.516,6.067,2.491,6.551-.125,2.309-2.052,3.877-6.057,6.318-4.313,2.626-12.4,6.96-24.232,13.271-14.725,7.852-25.2,16.823-32.14,22.762-5.621,4.813-9.015,7.717-11.922,8.024-.145.014-.29.024-.439.024C-13394.645-3867.6-13396.439-3868.6-13398.748-3870.831Z" transform="translate(13974.114 4635.188)" fill="#fff"/>
          <path id="Union_4_-_Outline" data-name="Union 4 - Outline" d="M-13392.937-3865.6c-2.268,0-4.488-1.169-7.2-3.79-1.881-1.818-3.95-4.248-6.346-7.061-5.706-6.7-13.521-15.873-23.9-22.48-9.5-6.047-19.4-12.4-26.8-17.748a90.5,90.5,0,0,1-8.984-7.186,20.523,20.523,0,0,1-3.236-3.721,7.061,7.061,0,0,1-1.256-3.773c-.015-1.756.74-3.5,2.447-5.65,1.975-2.488,5.334-5.634,10.272-9.619,6.242-5.035,15.118-11.468,25.67-18.6a239.456,239.456,0,0,1,24.959-14.937c4.762-2.428,11.3-5.466,15.391-6.159a11.25,11.25,0,0,1,1.907-.151,28.893,28.893,0,0,1,7.881,1.372,66.526,66.526,0,0,1,9.482,3.686,102.008,102.008,0,0,1,24.3,16.538,116.923,116.923,0,0,1,12.786,13.777,163.621,163.621,0,0,1,10.058,14.124c2.538,3.987,4.9,8.081,6.646,11.526,2.591,5.1,2.757,6.53,2.705,7.555v.009c-.189,3.491-3.155,5.566-7.013,7.917-4.358,2.654-12.464,7-24.333,13.327-14.534,7.751-24.912,16.637-31.779,22.517-5.914,5.064-9.483,8.121-13.013,8.494l-.021,0C-13392.544-3865.613-13392.744-3865.6-13392.937-3865.6Zm2.924-116.877a7.239,7.239,0,0,0-1.226.092l-.01,0c-2.764.466-7.956,2.573-14.246,5.779a235.579,235.579,0,0,0-24.535,14.687c-10.46,7.074-19.243,13.438-25.4,18.4-7.47,6.028-11.248,10.107-11.231,12.123.009,1.041,1.1,2.6,3.241,4.621a86.75,86.75,0,0,0,8.578,6.849c7.313,5.287,17.152,11.6,26.6,17.616,10.889,6.93,18.929,16.369,24.8,23.261,2.328,2.734,4.339,5.095,6.08,6.778,1.883,1.819,3.287,2.666,4.421,2.666.063,0,.139,0,.239-.014,2.292-.25,5.687-3.157,10.821-7.554,7-5.993,17.578-15.051,32.5-23.008,11.808-6.3,19.867-10.616,24.134-13.214,3.79-2.309,5.03-3.456,5.1-4.715a2.331,2.331,0,0,0-.18-.842,36.753,36.753,0,0,0-2.1-4.7c-1.691-3.334-3.984-7.308-6.455-11.189a159.232,159.232,0,0,0-9.81-13.777,112.837,112.837,0,0,0-12.342-13.3,97.94,97.94,0,0,0-23.338-15.892C-13380.437-3980.69-13386.434-3982.479-13390.014-3982.479Z" transform="translate(13974.114 4635.188)"/>
        </g>
      </g>
    </g>
  </g>
</svg>
