<svg xmlns="http://www.w3.org/2000/svg" width="11.855" height="14.943" viewBox="0 0 11.855 14.943">
  <g id="Group_37670" data-name="Group 37670" transform="translate(-1117.673 -511.175)">
    <g id="trash" transform="translate(-525.327 -1875.825)">
      <g id="Group_35800" data-name="Group 35800" transform="translate(1643.515 2387.515)">
        <path id="Path_37169" data-name="Path 37169" d="M1643.795,2390.221l1.046,10.455.906.488h6.622l.976-.488.767-10.943s-3.067.07-3.067,0v-1.673l-1.185-.418-2.23.418-.767.488v1.185Z" transform="translate(-1643.385 -2387.311)" fill="#d90d0d"/>
        <path id="trash_can" data-name="trash can" d="M16.2,4.231a.515.515,0,0,0-.381-.17H13.242V3.546A1.546,1.546,0,0,0,11.7,2H9.635A1.546,1.546,0,0,0,8.09,3.546v.515H5.513A.515.515,0,0,0,5,4.623l.948,10.4a1.546,1.546,0,0,0,1.546,1.407h6.353a1.546,1.546,0,0,0,1.546-1.407l.943-10.4a.515.515,0,0,0-.134-.392ZM9.12,3.546a.515.515,0,0,1,.515-.515H11.7a.515.515,0,0,1,.515.515v.515H9.12ZM8.6,5.092h6.647l-.139,1.546H6.219L6.08,5.092Zm5.756,9.837a.515.515,0,0,1-.515.469H7.487a.515.515,0,0,1-.515-.469l-.66-7.26H15.02ZM11.181,9.214v4.637a.515.515,0,1,1-1.031,0V9.214a.515.515,0,0,1,1.031,0ZM8.6,9.157l.515,4.637a.515.515,0,0,1-.453.567H8.6A.515.515,0,0,1,8.09,13.9L7.574,9.265A.518.518,0,0,1,8.6,9.152Zm5.153.113-.515,4.637a.515.515,0,0,1-.515.459H12.67a.515.515,0,0,1-.453-.567l.515-4.637a.518.518,0,0,1,1.031.113Z" transform="translate(-4.996 -2)"/>
      </g>
      <g id="Group_35801" data-name="Group 35801" transform="translate(1643 2387)">
        <path id="Path_37169-2" data-name="Path 37169" d="M1643.795,2390.221l1.046,10.455.906.488h6.622l.976-.488.767-10.943s-3.067.07-3.067,0v-1.673l-1.185-.418-2.23.418-.767.488v1.185Z" transform="translate(-1643.385 -2387.311)" fill="#ec85c0"/>
        <path id="trash_can-2" data-name="trash can" d="M16.2,4.231a.515.515,0,0,0-.381-.17H13.242V3.546A1.546,1.546,0,0,0,11.7,2H9.635A1.546,1.546,0,0,0,8.09,3.546v.515H5.513A.515.515,0,0,0,5,4.623l.948,10.4a1.546,1.546,0,0,0,1.546,1.407h6.353a1.546,1.546,0,0,0,1.546-1.407l.943-10.4a.515.515,0,0,0-.134-.392ZM9.12,3.546a.515.515,0,0,1,.515-.515H11.7a.515.515,0,0,1,.515.515v.515H9.12ZM8.6,5.092h6.647l-.139,1.546H6.219L6.08,5.092Zm5.756,9.837a.515.515,0,0,1-.515.469H7.487a.515.515,0,0,1-.515-.469l-.66-7.26H15.02ZM11.181,9.214v4.637a.515.515,0,1,1-1.031,0V9.214a.515.515,0,0,1,1.031,0ZM8.6,9.157l.515,4.637a.515.515,0,0,1-.453.567H8.6A.515.515,0,0,1,8.09,13.9L7.574,9.265A.518.518,0,0,1,8.6,9.152Zm5.153.113-.515,4.637a.515.515,0,0,1-.515.459H12.67a.515.515,0,0,1-.453-.567l.515-4.637a.518.518,0,0,1,1.031.113Z" transform="translate(-4.996 -2)"/>
      </g>
    </g>
  </g>
</svg>
