<svg xmlns="http://www.w3.org/2000/svg" width="26.494" height="26.377" viewBox="0 0 26.494 26.377">
  <g id="Group_39854" data-name="Group 39854" transform="translate(0.1 0.1)">
    <rect id="Rectangle_2429" data-name="Rectangle 2429" width="22.6" height="22.6" transform="translate(0.996 1.246)" fill="#80d5ec"/>
    <g id="linear-import" transform="translate(0.996 0.997)">
      <path id="Path_37745" data-name="Path 37745" d="M2.823,24.7A2.786,2.786,0,0,1,0,21.874V2.823A2.786,2.786,0,0,1,2.823,0h8.291c.353,0,.518.236.53.609s-.177.626-.53.626H2.823A1.581,1.581,0,0,0,1.235,2.823V21.7a1.581,1.581,0,0,0,1.588,1.588H21.7A1.581,1.581,0,0,0,23.286,21.7V14.113a.563.563,0,0,1,.529-.529c.529,0,.882.176.882.529v7.762A2.786,2.786,0,0,1,21.874,24.7H2.823Z" transform="translate(0 0.083)" stroke="#000" stroke-width="0.2"/>
      <path id="Path_37746" data-name="Path 37746" d="M293.563,17.811a.7.7,0,0,0,.5-.2l4.642-4.271a.863.863,0,0,0,.176-1.235c-.1-.147-.46-.569-1.235.176l-3.175,2.823c.353-6,6.527-12.348,11.819-13.936.618-.238.681-.595.42-1.282-.218-.628-1.126-.306-1.126-.306-5.645,1.764-12.172,8.82-12.7,15.347l-2.646-3.175a.679.679,0,0,0-.527-.209.69.69,0,0,0-.532.209.853.853,0,0,0,0,1.235l3.881,4.587a.481.481,0,0,0,.5.232Z" transform="translate(-281.946 0.497)" stroke="#000" stroke-width="0.2"/>
    </g>
    <g id="linear-import-2" data-name="linear-import" transform="translate(0 0)">
      <path id="Path_37745-2" data-name="Path 37745" d="M2.823,24.7A2.786,2.786,0,0,1,0,21.874V2.823A2.786,2.786,0,0,1,2.823,0h8.291c.353,0,.518.236.53.609s-.177.626-.53.626H2.823A1.581,1.581,0,0,0,1.235,2.823V21.7a1.581,1.581,0,0,0,1.588,1.588H21.7A1.581,1.581,0,0,0,23.286,21.7V14.113a.563.563,0,0,1,.529-.529c.529,0,.882.176.882.529v7.762A2.786,2.786,0,0,1,21.874,24.7H2.823Z" transform="translate(0 0.083)" stroke="#000" stroke-width="0.2"/>
      <path id="Path_37746-2" data-name="Path 37746" d="M293.563,17.811a.7.7,0,0,0,.5-.2l4.642-4.271a.863.863,0,0,0,.176-1.235c-.1-.147-.46-.569-1.235.176l-3.175,2.823c.353-6,6.527-12.348,11.819-13.936.618-.238.681-.595.42-1.282-.218-.628-1.126-.306-1.126-.306-5.645,1.764-12.172,8.82-12.7,15.347l-2.646-3.175a.679.679,0,0,0-.527-.209.69.69,0,0,0-.532.209.853.853,0,0,0,0,1.235l3.881,4.587a.481.481,0,0,0,.5.232Z" transform="translate(-281.946 0.497)" stroke="#000" stroke-width="0.2"/>
    </g>
    <g id="linear-import-3" data-name="linear-import" transform="translate(0.996 0.997)" opacity="0.02">
      <path id="Path_37745-3" data-name="Path 37745" d="M2.823,24.7A2.786,2.786,0,0,1,0,21.874V2.823A2.786,2.786,0,0,1,2.823,0h8.291c.353,0,.518.236.53.609s-.177.626-.53.626H2.823A1.581,1.581,0,0,0,1.235,2.823V21.7a1.581,1.581,0,0,0,1.588,1.588H21.7A1.581,1.581,0,0,0,23.286,21.7V14.113a.563.563,0,0,1,.529-.529c.529,0,.882.176.882.529v7.762A2.786,2.786,0,0,1,21.874,24.7H2.823Z" transform="translate(0 0.083)" stroke="#000" stroke-width="1"/>
      <path id="Path_37746-3" data-name="Path 37746" d="M293.563,17.811a.7.7,0,0,0,.5-.2l4.642-4.271a.863.863,0,0,0,.176-1.235c-.1-.147-.46-.569-1.235.176l-3.175,2.823c.353-6,6.527-12.348,11.819-13.936.618-.238.681-.595.42-1.282-.218-.628-1.126-.306-1.126-.306-5.645,1.764-12.172,8.82-12.7,15.347l-2.646-3.175a.679.679,0,0,0-.527-.209.69.69,0,0,0-.532.209.853.853,0,0,0,0,1.235l3.881,4.587a.481.481,0,0,0,.5.232Z" transform="translate(-281.946 0.497)" stroke="#000" stroke-width="1"/>
    </g>
  </g>
</svg>
