<svg xmlns="http://www.w3.org/2000/svg" width="14.497" height="14.789" viewBox="0 0 14.497 14.789">
  <g id="Group_39378" data-name="Group 39378" transform="translate(0 0)">
    <rect id="Rectangle_2429" data-name="Rectangle 2429" width="12.238" height="12.547" transform="translate(0.784 0.997)" fill="#80d5ec"/>
    <g id="linear-import" transform="translate(0 0)">
      <path id="Path_37745" data-name="Path 37745" d="M1.55,13.9A1.55,1.55,0,0,1,0,12.313V1.589A1.55,1.55,0,0,1,1.55,0H6.1c.194,0,.284.133.291.343S6.3.7,6.1.7H1.55a.879.879,0,0,0-.872.894V12.213a.879.879,0,0,0,.872.894H11.913a.879.879,0,0,0,.872-.894V7.944a.313.313,0,0,1,.291-.3c.291,0,.484.1.484.3v4.369A1.55,1.55,0,0,1,12.01,13.9H1.55Z" transform="translate(0.137 0.186)"/>
      <path id="Path_37745_-_Outline" data-name="Path 37745 - Outline" d="M10.647,12.681H.05v-.005a1.652,1.652,0,0,1-1.062-.495A1.745,1.745,0,0,1-1.5,10.953V.229A1.745,1.745,0,0,1-1.012-1a1.659,1.659,0,0,1,1.2-.5H4.738c.258,0,.418.179.427.478a.506.506,0,0,1-.123.373.407.407,0,0,1-.3.124H.186A.737.737,0,0,0-.549.229V10.853a.737.737,0,0,0,.735.754H10.55a.737.737,0,0,0,.735-.754V6.584a.425.425,0,0,1,.16-.333.448.448,0,0,1,.267-.105.828.828,0,0,1,.419.093.388.388,0,0,1,.2.345v4.369a1.745,1.745,0,0,1-.488,1.228A1.659,1.659,0,0,1,10.647,12.681ZM.323,12.4H10.647a1.416,1.416,0,0,0,1.413-1.449V6.584c0-.147-.266-.158-.348-.158-.032,0-.154.049-.154.158v4.27a1.041,1.041,0,0,1-.294.732.99.99,0,0,1-.714.3H.186a.99.99,0,0,1-.714-.3,1.041,1.041,0,0,1-.294-.732V.229A1.041,1.041,0,0,1-.528-.5.99.99,0,0,1,.186-.8H4.738a.143.143,0,0,0,.108-.039.237.237,0,0,0,.046-.169c-.006-.207-.1-.207-.154-.207H.186A1.416,1.416,0,0,0-1.227.229V10.953A1.416,1.416,0,0,0,.186,12.4Z" transform="translate(1.5 1.546)"/>
      <path id="Path_37746" data-name="Path 37746" d="M291.466,9.808a.38.38,0,0,0,.274-.11l2.549-2.4a.494.494,0,0,0,.1-.7c-.055-.082-.253-.321-.678.1l-1.743,1.589c.194-3.376,3.584-6.951,6.489-7.844.34-.134.374-.335.231-.721-.12-.354-.618-.172-.618-.172-3.1.993-6.683,4.965-6.974,8.639L289.64,6.4a.368.368,0,0,0-.289-.118.373.373,0,0,0-.292.118.488.488,0,0,0,0,.7l2.131,2.582a.262.262,0,0,0,.276.131Z" transform="translate(-284.951 0.637)"/>
      <path id="Path_37746_-_Outline" data-name="Path 37746 - Outline" d="M290.13,8.59H290.1a.388.388,0,0,1-.377-.183L287.595,5.83a.631.631,0,0,1,0-.889.551.551,0,0,1,.774,0l0,0,1.251,1.539a8.4,8.4,0,0,1,.755-2.478,11.366,11.366,0,0,1,.75-1.343,12.878,12.878,0,0,1,.927-1.252A13.226,13.226,0,0,1,293.119.287a12.157,12.157,0,0,1,1.149-.96,9.963,9.963,0,0,1,1.2-.757,7.3,7.3,0,0,1,1.2-.514A1.031,1.031,0,0,1,296.973-2a.462.462,0,0,1,.477.311.876.876,0,0,1,.068.543.576.576,0,0,1-.378.357l0,0-.005,0c-2.76.849-5.97,4.129-6.361,7.371l1.483-1.352a.8.8,0,0,1,.527-.279.421.421,0,0,1,.352.2.63.63,0,0,1-.109.878l0,0-2.547,2.4A.524.524,0,0,1,290.13,8.59Zm-.04-.284.027,0h.013a.256.256,0,0,0,.151-.071l0,0,2.547-2.4c.179-.185.208-.354.086-.5l0-.005,0-.005a.149.149,0,0,0-.131-.081.58.58,0,0,0-.34.2l0,0-1.99,1.813.019-.337a6.976,6.976,0,0,1,.7-2.577,9.826,9.826,0,0,1,.7-1.223,11.332,11.332,0,0,1,.866-1.137,11.892,11.892,0,0,1,.994-1.019A11.216,11.216,0,0,1,294.8.1a9.406,9.406,0,0,1,1.124-.683,7.037,7.037,0,0,1,1.122-.462c.162-.065.2-.13.21-.173a.652.652,0,0,0-.062-.366v0c-.013-.037-.042-.125-.22-.125a.76.76,0,0,0-.224.038l0,0c-3.005.963-6.585,4.809-6.878,8.517l-.027.341-1.663-2.045a.235.235,0,0,0-.189-.073.242.242,0,0,0-.2.077.346.346,0,0,0,0,.5l0,0,0,0,2.135,2.588a.24.24,0,0,0,.056.062.235.235,0,0,0,.091.013Z" transform="translate(-283.588 1.997)"/>
    </g>
    <g id="linear-import-2" data-name="linear-import" transform="translate(0 0)">
      <path id="Path_37745-2" data-name="Path 37745" d="M1.55,13.9A1.55,1.55,0,0,1,0,12.313V1.589A1.55,1.55,0,0,1,1.55,0H6.1c.194,0,.284.133.291.343S6.3.7,6.1.7H1.55a.879.879,0,0,0-.872.894V12.213a.879.879,0,0,0,.872.894H11.913a.879.879,0,0,0,.872-.894V7.944a.313.313,0,0,1,.291-.3c.291,0,.484.1.484.3v4.369A1.55,1.55,0,0,1,12.01,13.9H1.55Z" transform="translate(0.137 0.186)"/>
      <path id="Path_37745_-_Outline-2" data-name="Path 37745 - Outline" d="M10.647,12.681H.05v-.005a1.652,1.652,0,0,1-1.062-.495A1.745,1.745,0,0,1-1.5,10.953V.229A1.745,1.745,0,0,1-1.012-1a1.659,1.659,0,0,1,1.2-.5H4.738c.258,0,.418.179.427.478a.506.506,0,0,1-.123.373.407.407,0,0,1-.3.124H.186A.737.737,0,0,0-.549.229V10.853a.737.737,0,0,0,.735.754H10.55a.737.737,0,0,0,.735-.754V6.584a.425.425,0,0,1,.16-.333.448.448,0,0,1,.267-.105.828.828,0,0,1,.419.093.388.388,0,0,1,.2.345v4.369a1.745,1.745,0,0,1-.488,1.228A1.659,1.659,0,0,1,10.647,12.681ZM.323,12.4H10.647a1.416,1.416,0,0,0,1.413-1.449V6.584c0-.147-.266-.158-.348-.158-.032,0-.154.049-.154.158v4.27a1.041,1.041,0,0,1-.294.732.99.99,0,0,1-.714.3H.186a.99.99,0,0,1-.714-.3,1.041,1.041,0,0,1-.294-.732V.229A1.041,1.041,0,0,1-.528-.5.99.99,0,0,1,.186-.8H4.738a.143.143,0,0,0,.108-.039.237.237,0,0,0,.046-.169c-.006-.207-.1-.207-.154-.207H.186A1.416,1.416,0,0,0-1.227.229V10.953A1.416,1.416,0,0,0,.186,12.4Z" transform="translate(1.5 1.546)"/>
      <path id="Path_37746-2" data-name="Path 37746" d="M291.466,9.808a.38.38,0,0,0,.274-.11l2.549-2.4a.494.494,0,0,0,.1-.7c-.055-.082-.253-.321-.678.1l-1.743,1.589c.194-3.376,3.584-6.951,6.489-7.844.34-.134.374-.335.231-.721-.12-.354-.618-.172-.618-.172-3.1.993-6.683,4.965-6.974,8.639L289.64,6.4a.368.368,0,0,0-.289-.118.373.373,0,0,0-.292.118.488.488,0,0,0,0,.7l2.131,2.582a.262.262,0,0,0,.276.131Z" transform="translate(-284.951 0.637)"/>
      <path id="Path_37746_-_Outline-2" data-name="Path 37746 - Outline" d="M290.13,8.59H290.1a.388.388,0,0,1-.377-.183L287.595,5.83a.631.631,0,0,1,0-.889.551.551,0,0,1,.774,0l0,0,1.251,1.539a8.4,8.4,0,0,1,.755-2.478,11.366,11.366,0,0,1,.75-1.343,12.878,12.878,0,0,1,.927-1.252A13.226,13.226,0,0,1,293.119.287a12.157,12.157,0,0,1,1.149-.96,9.963,9.963,0,0,1,1.2-.757,7.3,7.3,0,0,1,1.2-.514A1.031,1.031,0,0,1,296.973-2a.462.462,0,0,1,.477.311.876.876,0,0,1,.068.543.576.576,0,0,1-.378.357l0,0-.005,0c-2.76.849-5.97,4.129-6.361,7.371l1.483-1.352a.8.8,0,0,1,.527-.279.421.421,0,0,1,.352.2.63.63,0,0,1-.109.878l0,0-2.547,2.4A.524.524,0,0,1,290.13,8.59Zm-.04-.284.027,0h.013a.256.256,0,0,0,.151-.071l0,0,2.547-2.4c.179-.185.208-.354.086-.5l0-.005,0-.005a.149.149,0,0,0-.131-.081.58.58,0,0,0-.34.2l0,0-1.99,1.813.019-.337a6.976,6.976,0,0,1,.7-2.577,9.826,9.826,0,0,1,.7-1.223,11.332,11.332,0,0,1,.866-1.137,11.892,11.892,0,0,1,.994-1.019A11.216,11.216,0,0,1,294.8.1a9.406,9.406,0,0,1,1.124-.683,7.037,7.037,0,0,1,1.122-.462c.162-.065.2-.13.21-.173a.652.652,0,0,0-.062-.366v0c-.013-.037-.042-.125-.22-.125a.76.76,0,0,0-.224.038l0,0c-3.005.963-6.585,4.809-6.878,8.517l-.027.341-1.663-2.045a.235.235,0,0,0-.189-.073.242.242,0,0,0-.2.077.346.346,0,0,0,0,.5l0,0,0,0,2.135,2.588a.24.24,0,0,0,.056.062.235.235,0,0,0,.091.013Z" transform="translate(-283.588 1.997)"/>
    </g>
    <g id="linear-import-3" data-name="linear-import" transform="translate(0.547 0.561)">
      <path id="Path_37745-3" data-name="Path 37745" d="M1.55,13.9A1.55,1.55,0,0,1,0,12.313V1.589A1.55,1.55,0,0,1,1.55,0H6.1c.194,0,.284.133.291.343S6.3.7,6.1.7H1.55a.879.879,0,0,0-.872.894V12.213a.879.879,0,0,0,.872.894H11.913a.879.879,0,0,0,.872-.894V7.944a.313.313,0,0,1,.291-.3c.291,0,.484.1.484.3v4.369A1.55,1.55,0,0,1,12.01,13.9H1.55Z" transform="translate(0.137 0.186)"/>
      <path id="Path_37745_-_Outline-3" data-name="Path 37745 - Outline" d="M10.647,12.681H.05v-.005a1.652,1.652,0,0,1-1.062-.495A1.745,1.745,0,0,1-1.5,10.953V.229A1.745,1.745,0,0,1-1.012-1a1.659,1.659,0,0,1,1.2-.5H4.738c.258,0,.418.179.427.478a.506.506,0,0,1-.123.373.407.407,0,0,1-.3.124H.186A.737.737,0,0,0-.549.229V10.853a.737.737,0,0,0,.735.754H10.55a.737.737,0,0,0,.735-.754V6.584a.425.425,0,0,1,.16-.333.448.448,0,0,1,.267-.105.828.828,0,0,1,.419.093.388.388,0,0,1,.2.345v4.369a1.745,1.745,0,0,1-.488,1.228A1.659,1.659,0,0,1,10.647,12.681ZM.323,12.4H10.647a1.416,1.416,0,0,0,1.413-1.449V6.584c0-.147-.266-.158-.348-.158-.032,0-.154.049-.154.158v4.27a1.041,1.041,0,0,1-.294.732.99.99,0,0,1-.714.3H.186a.99.99,0,0,1-.714-.3,1.041,1.041,0,0,1-.294-.732V.229A1.041,1.041,0,0,1-.528-.5.99.99,0,0,1,.186-.8H4.738a.143.143,0,0,0,.108-.039.237.237,0,0,0,.046-.169c-.006-.207-.1-.207-.154-.207H.186A1.416,1.416,0,0,0-1.227.229V10.953A1.416,1.416,0,0,0,.186,12.4Z" transform="translate(1.5 1.546)"/>
      <path id="Path_37746-3" data-name="Path 37746" d="M291.466,9.808a.38.38,0,0,0,.274-.11l2.549-2.4a.494.494,0,0,0,.1-.7c-.055-.082-.253-.321-.678.1l-1.743,1.589c.194-3.376,3.584-6.951,6.489-7.844.34-.134.374-.335.231-.721-.12-.354-.618-.172-.618-.172-3.1.993-6.683,4.965-6.974,8.639L289.64,6.4a.368.368,0,0,0-.289-.118.373.373,0,0,0-.292.118.488.488,0,0,0,0,.7l2.131,2.582a.262.262,0,0,0,.276.131Z" transform="translate(-284.951 0.637)"/>
      <path id="Path_37746_-_Outline-3" data-name="Path 37746 - Outline" d="M290.13,8.59H290.1a.388.388,0,0,1-.377-.183L287.595,5.83a.631.631,0,0,1,0-.889.551.551,0,0,1,.774,0l0,0,1.251,1.539a8.4,8.4,0,0,1,.755-2.478,11.366,11.366,0,0,1,.75-1.343,12.878,12.878,0,0,1,.927-1.252A13.226,13.226,0,0,1,293.119.287a12.157,12.157,0,0,1,1.149-.96,9.963,9.963,0,0,1,1.2-.757,7.3,7.3,0,0,1,1.2-.514A1.031,1.031,0,0,1,296.973-2a.462.462,0,0,1,.477.311.876.876,0,0,1,.068.543.576.576,0,0,1-.378.357l0,0-.005,0c-2.76.849-5.97,4.129-6.361,7.371l1.483-1.352a.8.8,0,0,1,.527-.279.421.421,0,0,1,.352.2.63.63,0,0,1-.109.878l0,0-2.547,2.4A.524.524,0,0,1,290.13,8.59Zm-.04-.284.027,0h.013a.256.256,0,0,0,.151-.071l0,0,2.547-2.4c.179-.185.208-.354.086-.5l0-.005,0-.005a.149.149,0,0,0-.131-.081.58.58,0,0,0-.34.2l0,0-1.99,1.813.019-.337a6.976,6.976,0,0,1,.7-2.577,9.826,9.826,0,0,1,.7-1.223,11.332,11.332,0,0,1,.866-1.137,11.892,11.892,0,0,1,.994-1.019A11.216,11.216,0,0,1,294.8.1a9.406,9.406,0,0,1,1.124-.683,7.037,7.037,0,0,1,1.122-.462c.162-.065.2-.13.21-.173a.652.652,0,0,0-.062-.366v0c-.013-.037-.042-.125-.22-.125a.76.76,0,0,0-.224.038l0,0c-3.005.963-6.585,4.809-6.878,8.517l-.027.341-1.663-2.045a.235.235,0,0,0-.189-.073.242.242,0,0,0-.2.077.346.346,0,0,0,0,.5l0,0,0,0,2.135,2.588a.24.24,0,0,0,.056.062.235.235,0,0,0,.091.013Z" transform="translate(-283.588 1.997)"/>
    </g>
  </g>
</svg>
