<svg xmlns="http://www.w3.org/2000/svg" width="12.928" height="12.235" viewBox="0 0 12.928 12.235">
  <g id="Group_37536" data-name="Group 37536" transform="translate(-1140.68 -364.378)">
    <g id="edit" transform="translate(1141.805 364.878)">
      <path id="Path_37168" data-name="Path 37168" d="M6,14.9V17.24H8.341l6.907-6.907L12.907,7.992Zm11.052-6.37a.625.625,0,0,0,0-.883L15.595,6.188a.625.625,0,0,0-.883,0L13.569,7.33,15.91,9.671l1.142-1.142Z" transform="translate(-6 -6.005)" stroke="#000" stroke-width="1"/>
    </g>
    <g id="edit-2" data-name="edit" transform="translate(1141.18 364.878)">
      <path id="Path_37168-2" data-name="Path 37168" d="M6,14.9V17.24H8.341l6.907-6.907L12.907,7.992Zm11.052-6.37a.625.625,0,0,0,0-.883L15.595,6.188a.625.625,0,0,0-.883,0L13.569,7.33,15.91,9.671l1.142-1.142Z" transform="translate(-6 -6.005)" fill="#a4e3dc" stroke="#000" stroke-width="1"/>
    </g>
  </g>
</svg>
