<svg xmlns="http://www.w3.org/2000/svg" width="10.415" height="10" viewBox="0 0 10.415 10">
  <g id="filter" transform="translate(22683.828 14519.092)">
    <g id="Group_36817" data-name="Group 36817" transform="translate(-22683.416 -14518.68)">
      <path id="Path_37707" data-name="Path 37707" d="M-22678.02-14508.207v-3.407l-3.246-4.45h9.08l-3.506,4.45v2.926l-2.164,1.146Z" transform="translate(22681.795 14516.688)" fill="#ec85c0"/>
      <path id="filter_1_" data-name="filter (1)" d="M28.153,39.56l-.191.244-.491.625-.669.85-.725.922q-.326.414-.652.829l-.459.583-.118.15-.024.031a1.029,1.029,0,0,0-.082.107.536.536,0,0,0-.069.264c0,.222,0,.444,0,.667v1.9a.645.645,0,0,1,0,.077l.018-.135a.354.354,0,0,1-.02.071l.051-.121a.39.39,0,0,1-.037.063l.079-.1a.363.363,0,0,1-.052.053l.1-.079a2.034,2.034,0,0,1-.208.123l-.44.251-1,.568c-.08.046-.158.094-.24.136l.121-.051A.165.165,0,0,1,23,47.6l.135-.018a.147.147,0,0,1-.037,0l.135.018a.192.192,0,0,1-.035-.009l.121.051a.172.172,0,0,1-.042-.024l.1.079a.3.3,0,0,1-.025-.025l.079.1a.2.2,0,0,1-.018-.031l.051.121a.218.218,0,0,1-.011-.037l.018.135a1.285,1.285,0,0,1,0-.165V44.155l-.018-.135a.562.562,0,0,0-.131-.224l-.017-.022-.128-.162-.543-.69-.775-.985-.821-1.043-.68-.864L20,39.579l-.016-.02.079.1a.325.325,0,0,1-.032-.055l.051.121a.266.266,0,0,1-.018-.069l.018.135a.314.314,0,0,1,0-.069l-.018.135a.3.3,0,0,1,.019-.065l-.051.121a.341.341,0,0,1,.036-.058l-.079.1a.307.307,0,0,1,.041-.041l-.1.079a.358.358,0,0,1,.06-.036l-.121.051A.388.388,0,0,1,19.928,40l-.135.018a2.167,2.167,0,0,1,.257,0h7.924c.108,0,.215,0,.324,0a.4.4,0,0,1,.05,0L28.213,40a.241.241,0,0,1,.059.016l-.121-.051a.274.274,0,0,1,.06.036l-.1-.079a.256.256,0,0,1,.041.041l-.079-.1a.341.341,0,0,1,.036.058l-.051-.121a.3.3,0,0,1,.019.065l-.018-.135a.314.314,0,0,1,0,.069l.018-.135a.277.277,0,0,1-.018.069l.051-.121a.3.3,0,0,1-.032.055.506.506,0,0,0-.051.391.519.519,0,0,0,.233.3.511.511,0,0,0,.391.051l.121-.051a.5.5,0,0,0,.182-.182.707.707,0,0,0,.085-.182.771.771,0,0,0,.034-.2.7.7,0,0,0-.064-.33.744.744,0,0,0-.231-.3.581.581,0,0,0-.112-.075A.869.869,0,0,0,28.349,39a.653.653,0,0,0-.077,0H19.859a.879.879,0,0,0-.387.09.748.748,0,0,0-.28.26.756.756,0,0,0-.12.374.59.59,0,0,0,.036.272.818.818,0,0,0,.123.227l.041.052c.059.076.119.151.179.226l.43.547.589.749q.329.419.658.838l.629.8.509.647.3.378.04.05c-.05-.12-.1-.239-.148-.359v3.709c0,.02,0,.042,0,.063a.665.665,0,0,0,1.011.567l.109-.062.985-.562c.241-.138.485-.271.724-.413a.821.821,0,0,0,.4-.7V44.15c-.05.12-.1.239-.148.359l.333-.423.793-1.009.965-1.228.829-1.054.406-.516.006-.007a.374.374,0,0,0,.1-.163.383.383,0,0,0,.044-.2.517.517,0,0,0-.148-.359.511.511,0,0,0-.359-.148.516.516,0,0,0-.359.154Z" transform="translate(-19.07 -39)"/>
    </g>
    <g id="Group_36818" data-name="Group 36818" transform="translate(-22683.828 -14519.092)">
      <path id="Path_37707-2" data-name="Path 37707" d="M-22678.02-14508.207v-3.407l-3.246-4.45h9.08l-3.506,4.45v2.926l-2.164,1.146Z" transform="translate(22681.795 14516.688)" fill="#ec85c0"/>
      <path id="filter_1_2" data-name="filter (1)" d="M28.153,39.56l-.191.244-.491.625-.669.85-.725.922q-.326.414-.652.829l-.459.583-.118.15-.024.031a1.029,1.029,0,0,0-.082.107.536.536,0,0,0-.069.264c0,.222,0,.444,0,.667v1.9a.645.645,0,0,1,0,.077l.018-.135a.354.354,0,0,1-.02.071l.051-.121a.39.39,0,0,1-.037.063l.079-.1a.363.363,0,0,1-.052.053l.1-.079a2.034,2.034,0,0,1-.208.123l-.44.251-1,.568c-.08.046-.158.094-.24.136l.121-.051A.165.165,0,0,1,23,47.6l.135-.018a.147.147,0,0,1-.037,0l.135.018a.192.192,0,0,1-.035-.009l.121.051a.172.172,0,0,1-.042-.024l.1.079a.3.3,0,0,1-.025-.025l.079.1a.2.2,0,0,1-.018-.031l.051.121a.218.218,0,0,1-.011-.037l.018.135a1.285,1.285,0,0,1,0-.165V44.155l-.018-.135a.562.562,0,0,0-.131-.224l-.017-.022-.128-.162-.543-.69-.775-.985-.821-1.043-.68-.864L20,39.579l-.016-.02.079.1a.325.325,0,0,1-.032-.055l.051.121a.266.266,0,0,1-.018-.069l.018.135a.314.314,0,0,1,0-.069l-.018.135a.3.3,0,0,1,.019-.065l-.051.121a.341.341,0,0,1,.036-.058l-.079.1a.307.307,0,0,1,.041-.041l-.1.079a.358.358,0,0,1,.06-.036l-.121.051A.388.388,0,0,1,19.928,40l-.135.018a2.167,2.167,0,0,1,.257,0h7.924c.108,0,.215,0,.324,0a.4.4,0,0,1,.05,0L28.213,40a.241.241,0,0,1,.059.016l-.121-.051a.274.274,0,0,1,.06.036l-.1-.079a.256.256,0,0,1,.041.041l-.079-.1a.341.341,0,0,1,.036.058l-.051-.121a.3.3,0,0,1,.019.065l-.018-.135a.314.314,0,0,1,0,.069l.018-.135a.277.277,0,0,1-.018.069l.051-.121a.3.3,0,0,1-.032.055.506.506,0,0,0-.051.391.519.519,0,0,0,.233.3.511.511,0,0,0,.391.051l.121-.051a.5.5,0,0,0,.182-.182.707.707,0,0,0,.085-.182.771.771,0,0,0,.034-.2.7.7,0,0,0-.064-.33.744.744,0,0,0-.231-.3.581.581,0,0,0-.112-.075A.869.869,0,0,0,28.349,39a.653.653,0,0,0-.077,0H19.859a.879.879,0,0,0-.387.09.748.748,0,0,0-.28.26.756.756,0,0,0-.12.374.59.59,0,0,0,.036.272.818.818,0,0,0,.123.227l.041.052c.059.076.119.151.179.226l.43.547.589.749q.329.419.658.838l.629.8.509.647.3.378.04.05c-.05-.12-.1-.239-.148-.359v3.709c0,.02,0,.042,0,.063a.665.665,0,0,0,1.011.567l.109-.062.985-.562c.241-.138.485-.271.724-.413a.821.821,0,0,0,.4-.7V44.15c-.05.12-.1.239-.148.359l.333-.423.793-1.009.965-1.228.829-1.054.406-.516.006-.007a.374.374,0,0,0,.1-.163.383.383,0,0,0,.044-.2.517.517,0,0,0-.148-.359.511.511,0,0,0-.359-.148.516.516,0,0,0-.359.154Z" transform="translate(-19.07 -39)"/>
    </g>
  </g>
</svg>
