<svg xmlns="http://www.w3.org/2000/svg" width="37.068" height="73.553" viewBox="0 0 37.068 73.553">
  <g id="Group_39803" data-name="Group 39803" transform="translate(-82.411 -2228)">
    <text id="_4" data-name="4" transform="translate(85.479 2283.553)" font-size="50" font-family="Poppins-BoldItalic, Poppins" font-weight="700" font-style="italic"><tspan x="0" y="0">4</tspan></text>
    <path id="_4_-_Outline" data-name="4 - Outline" d="M26.139,1H15.5l1.2-6.5H-.089l1.452-8.347L21.6-37H32.842l-3.9,22.1h4.1L31.39-5.5h-4.1ZM17.9-1h6.56l1.15-6.5h4.1l.949-5.4h-4.1l3.9-22.1H22.5L3.237-12.953,2.289-7.5H19.1Zm2.737-11.9H9.256L23.687-30.109Zm-7.095-2h5.418l1.451-8.191Z" transform="translate(85.479 2283.553)"/>
    <text id="_4-2" data-name="4" transform="translate(82.5 2281)" fill="#80d5ec" font-size="50" font-family="Poppins-BoldItalic, Poppins" font-weight="700" font-style="italic"><tspan x="0" y="0">4</tspan></text>
    <path id="_4_-_Outline-2" data-name="4 - Outline" d="M26.139,1H15.5l1.2-6.5H-.089l1.452-8.347L21.6-37H32.842l-3.9,22.1h4.1L31.39-5.5h-4.1ZM17.9-1h6.56l1.15-6.5h4.1l.949-5.4h-4.1l3.9-22.1H22.5L3.237-12.953,2.289-7.5H19.1Zm2.737-11.9H9.256L23.687-30.109Zm-7.095-2h5.418l1.451-8.191Z" transform="translate(82.5 2281)"/>
  </g>
</svg>
