<svg xmlns="http://www.w3.org/2000/svg" width="18.331" height="10.475" viewBox="0 0 18.331 10.475">
  <g id="graduate" transform="translate(-7.241 -35.785)">
    <path id="Path_38440" data-name="Path 38440" d="M16.112,41.56l8.274-2.43a.468.468,0,0,0,0-.9L16.112,35.8a.468.468,0,0,0-.263,0l-8.274,2.43a.468.468,0,0,0,0,.9l8.274,2.43A.468.468,0,0,0,16.112,41.56Z"/>
    <path id="Path_38441" data-name="Path 38441" d="M32.807,60.822V57.971a.221.221,0,0,0-.283-.221l-4.632,1.374a1.767,1.767,0,0,1-.992,0l-4.639-1.361a.221.221,0,0,0-.283.221v2.838a.442.442,0,0,0,.245.4,11.193,11.193,0,0,0,10.331,0A.442.442,0,0,0,32.807,60.822Zm3.534-.318V57.3a.685.685,0,0,0-.539-.685.663.663,0,0,0-.786.652V60.5l-.638,1.1a.554.554,0,0,0,.479.828H36.5a.554.554,0,0,0,.479-.833Z" transform="translate(-11.483 -16.223)"/>
  </g>
</svg>
