<svg xmlns="http://www.w3.org/2000/svg" xmlns:xlink="http://www.w3.org/1999/xlink" width="482" height="264.827" viewBox="0 0 482 264.827">
  <defs>
    <clipPath id="clip-path">
      <rect id="Rectangle_3930" data-name="Rectangle 3930" width="482" height="264.827" transform="translate(-8471 -6841.827)" fill="#80d5ec"/>
    </clipPath>
  </defs>
  <g id="Mask_Group_46" data-name="Mask Group 46" transform="translate(8471 6841.827)" clip-path="url(#clip-path)">
    <rect id="Rectangle_3880" data-name="Rectangle 3880" width="482" height="264.827" transform="translate(-8471 -6841.827)" fill="#80d5ec"/>
    <path id="Path_37203" data-name="Path 37203" d="M572.044,606.695c-16.671-7.886-66.08-10.945-100.079-2.288,0,0,4.783,18.476,44.708,23.21s55.371-20.921,55.371-20.921" transform="translate(-8267.845 -7442.045) rotate(45)" fill="#010101"/>
    <path id="Path_37204" data-name="Path 37204" d="M547.008,625.311c17.48-6.134,24.946-18.153,25.393-18.892a1.906,1.906,0,0,0-.817-2.7c-17.458-8.258-67.659-10.993-101.361-2.412a1.9,1.9,0,0,0-1.373,2.319c.207.807,5.578,19.793,46.326,24.623,13.059,1.547,23.564-.036,31.831-2.937m20.867-19.05c-4.311,5.636-19.844,22.048-52.25,18.207-30.527-3.618-39.808-15.458-42.287-20.009,31.635-7.446,76.414-5.314,94.537,1.8" transform="translate(-8267.834 -7440.253) rotate(45)" fill="#010101"/>
    <path id="Path_37205" data-name="Path 37205" d="M493.837,373.065c2.252-19.3,9.668-33.07,19.024-35.179,4.158-.922,8.129.635,11.435,4.409l25.211-73.124a1.918,1.918,0,0,1,.995-1.1,1.849,1.849,0,0,1,1.473-.054c7.344,2.779,19.886,12.046,14.831,27.23-4.522,13.591-9.3,28.913-11.147,34.9,5.372-.084,16.766.719,19.742,8.7,4.977-.785,11.98-1.647,16.952,2.126,2.773,2.108,4.57,5.4,5.354,9.793,7.6.24,15.831,4.037,17.862,14.19,2.815,14.028,1.653,34.813,1.024,43.1a62.471,62.471,0,0,1-3.654,16.454c-1.917,5.774-3.726,11.225-3.486,21.132.425,17.916,5.247,47.248,5.3,47.542a1.908,1.908,0,0,1-.449,1.575,1.893,1.893,0,0,1-1.515.635l-64.254-2.989a1.9,1.9,0,0,1-1.784-1.581c-.072-.425-7.122-42.061-12.1-50.8-2.228-3.923-4.666-6.421-8.356-10.2A222.5,222.5,0,0,1,505.314,405.3c-7.919-10.518-12.9-20.024-11.477-32.238m14.513,29.949a221.206,221.206,0,0,0,20.66,24.157c3.755,3.846,6.469,6.625,8.949,10.979,4.792,8.422,10.932,42.756,12.279,50.525l60.389,2.815c-1.156-7.356-4.618-30.542-4.984-45.751-.251-10.572,1.749-16.6,3.69-22.426a58.507,58.507,0,0,0,3.468-15.544c.617-8.128,1.755-28.494-.964-42.061-2.162-10.8-12.566-11.249-15.7-11.135a1.9,1.9,0,0,1-1.959-1.683c-.473-4.181-1.862-7.17-4.121-8.883-3.983-3.025-10.314-2-14.945-1.258l-.779.126a1.9,1.9,0,0,1-2.168-1.521c-1.7-8.895-18.76-7.29-18.927-7.272a1.909,1.909,0,0,1-1.659-.689,1.879,1.879,0,0,1-.348-1.761c.06-.2,6.212-20.294,11.974-37.587,4.211-12.669-6.367-19.455-10.776-21.665l-25.715,74.586a1.9,1.9,0,0,1-3.414.377c-1.953-3.163-5.205-6.721-9.614-5.744-6.121,1.372-13.734,11.92-16.065,31.908-1.282,10.991,3.157,19.443,10.734,29.506" transform="translate(-8403.003 -7389.316) rotate(45)" fill="#010101"/>
    <path id="Path_37206" data-name="Path 37206" d="M510.894,406.023a221.192,221.192,0,0,0,20.66,24.157c3.755,3.845,6.469,6.625,8.949,10.979,4.792,8.422,10.932,42.756,12.279,50.525l60.39,2.815c-1.156-7.356-4.618-30.542-4.984-45.751-.252-10.572,1.749-16.6,3.69-22.426a58.5,58.5,0,0,0,3.468-15.544c.617-8.128,1.755-28.494-.964-42.061-2.162-10.8-12.566-11.249-15.7-11.135a1.9,1.9,0,0,1-1.959-1.683c-.472-4.181-1.862-7.17-4.121-8.883-3.983-3.025-10.314-2-14.945-1.258l-.779.126a1.9,1.9,0,0,1-2.169-1.521c-1.7-8.895-18.76-7.29-18.927-7.272a1.908,1.908,0,0,1-1.659-.689,1.878,1.878,0,0,1-.348-1.761c.06-.2,6.211-20.294,11.974-37.586,4.211-12.669-6.367-19.455-10.776-21.665l-25.714,74.586a1.9,1.9,0,0,1-3.414.377c-1.953-3.163-5.205-6.721-9.614-5.744-6.121,1.372-13.734,11.92-16.065,31.908-1.282,10.991,3.157,19.443,10.734,29.506" transform="translate(-8402.674 -7393.24) rotate(45)" fill="#faf7f2"/>
    <path id="Path_37207" data-name="Path 37207" d="M617.328,423.044a22.889,22.889,0,0,0,3.548-1.618,1.9,1.9,0,0,0-1.849-3.326c-4.576,2.543-8.347,2.711-11.211.5-5.788-4.482-7.554-18.457-5.211-27.489,2.59-10,8.85-14.548,20.928-15.247a1.9,1.9,0,0,0-.219-3.8c-8.585.49-20.454,2.9-24.393,18.091-2.327,8.975-1.328,25.34,6.568,31.452,2.4,1.853,6.27,3.393,11.839,1.439" transform="translate(-8423.232 -7468.622) rotate(45)" fill="#010101"/>
    <path id="Path_37208" data-name="Path 37208" d="M581.508,435.865a13.894,13.894,0,0,0,6.753-5.65,1.9,1.9,0,1,0-3.142-2.147c-2.192,3.211-4.673,4.735-7.373,4.542-3.4-.24-7.024-3.3-9.235-7.787-2.615-5.314-1.959-13.925-1.523-19.625l.133-1.8c.607-8.8,7.7-10.433,19.307-12.074,1.731-.244,3.466-.489,5.159-.782a1.872,1.872,0,0,0,1.553-2.2,1.9,1.9,0,0,0-2.2-1.552c-1.659.285-3.357.524-5.051.764-10.178,1.439-21.709,3.071-22.57,15.581l-.13,1.768c-.465,6.111-1.172,15.349,1.907,21.593,2.837,5.768,7.582,9.564,12.376,9.9a9.975,9.975,0,0,0,4.031-.541" transform="translate(-8381.483 -7435.213) rotate(45)" fill="#010101"/>
    <path id="Path_37209" data-name="Path 37209" d="M577.429,501.486a1.9,1.9,0,0,0,1.235-2.158c-1.057-5.427,1.008-18.681,8.718-24.654a1.9,1.9,0,1,0-2.331-3.009c-9.052,7.014-11.368,21.983-10.122,28.391a1.9,1.9,0,0,0,2.231,1.5,2.05,2.05,0,0,0,.268-.073" transform="translate(-8358.965 -7460.617) rotate(45)" fill="#010101"/>
    <path id="Path_37210" data-name="Path 37210" d="M543.622,451.082c7.075-2.482,8.022-12.724,9.015-23.473a1.9,1.9,0,0,0-3.788-.351c-1.445,15.632-2.986,20.808-9.195,20.58-7.962-.27-8.982-8.813-9.717-22.853l-.1-1.8c-.58-10.787,4.265-11.553,24.885-13.045l1.057-.077a1.9,1.9,0,0,0-.275-3.793l-1.057.077c-19.458,1.409-29.218,2.119-28.408,17.042l.1,1.8c.668,12.806,1.361,26.047,13.386,26.458a11.144,11.144,0,0,0,4.1-.561" transform="translate(-8335.188 -7399.973) rotate(45)" fill="#010101"/>
    <path id="Path_37211" data-name="Path 37211" d="M538.742,858.9l92.384-34.423s30.362,62.185,81.059,53.572c48.026-8.143,67.153-37.409,72.209-99.643,4.158-51.008.773-168.2.773-168.2-27.66,9.605-72.7,16.835-100.1-2.281l-.68,114.551s-22.3-30.647-53.235-68.04c-30.957-37.352-39.009-45.37-60.917-46.092-9.006-.277-27.613,1.847-46.381,4.463-26.856,3.717-27.648,4.875-27.648,4.875Z" transform="translate(-8416.063 -7595.215) rotate(45)" fill="#f9be33" stroke="#070707" stroke-width="4"/>
    <rect id="Rectangle_1990" data-name="Rectangle 1990" width="18.743" height="124.73" transform="translate(-8292.653 -6745.185) rotate(-122)" fill="#f7d854"/>
    <path id="Path_37213" data-name="Path 37213" d="M605.545,366.8a1.9,1.9,0,0,0,1.227-1.373l27.7-121.615a1.9,1.9,0,0,0-1.432-2.277l-18.275-4.161a1.9,1.9,0,0,0-2.277,1.432l-27.7,121.615a1.9,1.9,0,0,0,1.432,2.277l18.275,4.161a1.893,1.893,0,0,0,1.051-.059m24.793-121.978L603.486,362.727l-14.566-3.315,26.852-117.906Z" transform="translate(-8462.396 -7431.377) rotate(45)" fill="#010101"/>
    <path id="Path_37214" data-name="Path 37214" d="M602.432,210.859,596.19,219.1l-8.267,10.911,19.639,4.474-2.877-13.259Z" transform="translate(-8448.223 -7407.291) rotate(45)" fill="#faf7f2"/>
    <path id="Path_37215" data-name="Path 37215" d="M606.926,235.033a2.029,2.029,0,0,0,1.312-2.344l-5.086-23.405a2.03,2.03,0,0,0-3.6-.795l-14.387,18.973a2.028,2.028,0,0,0,1.167,3.2L605.8,235.1a2.045,2.045,0,0,0,1.124-.064m-6.806-20.579,3.472,15.976L590.3,227.4Z" transform="translate(-8450.358 -7404.936) rotate(45)" fill="#010101"/>
    <rect id="Rectangle_1991" data-name="Rectangle 1991" width="18.738" height="11.354" transform="translate(-8302.284 -6739.178) rotate(-122)" fill="#ea83be"/>
    <path id="Path_37218" data-name="Path 37218" d="M651.8,459.29a1.895,1.895,0,0,0,1.224-1.372l2.52-11.072a1.9,1.9,0,0,0-1.432-2.277l-18.267-4.161a1.9,1.9,0,0,0-2.278,1.432l-2.524,11.071a1.9,1.9,0,0,0,1.432,2.277l18.27,4.162a1.9,1.9,0,0,0,1.053-.06m-.388-11.435-1.674,7.363L635.174,451.9l1.678-7.361Z" transform="translate(-8439.314 -7523.438) rotate(45)" fill="#010101"/>
    <path id="Path_37219" data-name="Path 37219" d="M602.755,366.085a1.9,1.9,0,0,0,1.228-1.376l27.552-121.642a1.9,1.9,0,1,0-3.712-.84L600.271,363.869a1.9,1.9,0,0,0,2.483,2.216" transform="translate(-8465.91 -7436.827) rotate(45)" fill="#010101"/>
    <path id="Path_37220" data-name="Path 37220" d="M643.717,852.7a1.591,1.591,0,0,0,.177-.073,1.9,1.9,0,0,0,.919-2.527c-3.649-7.813-4.663-12.227-3.5-15.241,1.054-2.727,4.173-4.924,11.129-7.835a1.906,1.906,0,0,0,1.169-1.735l.3-27.4a1.9,1.9,0,0,0-3.8-.04L649.821,824c-6.254,2.7-10.447,5.32-12.057,9.486-1.6,4.142-.59,9.25,3.6,18.218a1.9,1.9,0,0,0,2.351.992" transform="translate(-8339.555 -7625.957) rotate(45)" fill="#010101"/>
  </g>
</svg>
