<svg xmlns="http://www.w3.org/2000/svg" xmlns:xlink="http://www.w3.org/1999/xlink" width="374" height="322" viewBox="0 0 374 322">
  <defs>
    <clipPath id="clip-path">
      <rect id="Rectangle_2904" data-name="Rectangle 2904" width="374" height="322" transform="translate(1495 789)" fill="#fff" stroke="#707070" stroke-width="1"/>
    </clipPath>
    <clipPath id="clip-path-2">
      <rect id="Rectangle_2855" data-name="Rectangle 2855" width="409" height="409"/>
    </clipPath>
  </defs>
  <g id="Mask_Group_25" data-name="Mask Group 25" transform="translate(-1495 -789)" clip-path="url(#clip-path)">
    <g id="Group_37671" data-name="Group 37671">
      <g id="Group_37643" data-name="Group 37643" transform="translate(1443 82)">
        <ellipse id="Ellipse_387" data-name="Ellipse 387" cx="142" cy="141" rx="142" ry="141" transform="translate(108 714)"/>
        <path id="Ellipse_387_-_Outline" data-name="Ellipse 387 - Outline" d="M142,4a140.018,140.018,0,0,0-27.821,2.785,137.8,137.8,0,0,0-99.339,80.9A135.559,135.559,0,0,0,6.8,113.391a137.392,137.392,0,0,0,0,55.218,135.7,135.7,0,0,0,20.756,48.975,138.025,138.025,0,0,0,86.62,57.631,140.38,140.38,0,0,0,55.643,0,137.8,137.8,0,0,0,99.339-80.9,135.56,135.56,0,0,0,8.036-25.707,137.392,137.392,0,0,0,0-55.218,135.7,135.7,0,0,0-20.756-48.975,138.025,138.025,0,0,0-86.62-57.631A140.018,140.018,0,0,0,142,4m0-4c78.424,0,142,63.128,142,141S220.424,282,142,282,0,218.872,0,141,63.576,0,142,0Z" transform="translate(108 714)"/>
        <ellipse id="Ellipse_386" data-name="Ellipse 386" cx="141.5" cy="141" rx="141.5" ry="141" transform="translate(97 707)" fill="#fff"/>
        <path id="Ellipse_386_-_Outline" data-name="Ellipse 386 - Outline" d="M141.5,4a139.024,139.024,0,0,0-27.718,2.784,136.98,136.98,0,0,0,0,268.432,139.376,139.376,0,0,0,55.436,0,136.98,136.98,0,0,0,0-268.432A139.024,139.024,0,0,0,141.5,4m0-4C219.648,0,283,63.128,283,141S219.648,282,141.5,282,0,218.872,0,141,63.352,0,141.5,0Z" transform="translate(97 707)"/>
        <g id="download_10.28395061728431" transform="translate(56 672)" clip-path="url(#clip-path-2)">
          <g id="Group_37611" data-name="Group 37611" transform="translate(243.812 214.449)">
            <g id="Group_37609" data-name="Group 37609" transform="translate(13.108 13.101)">
              <g id="Group_37606" data-name="Group 37606" transform="translate(19.451 75.62)">
                <path id="Path_39136" data-name="Path 39136" d="M-16.642-6.968V3.6c0,3.176,8.707,5.723,19.466,5.723,10.732,0,19.438-2.547,19.438-5.723V-6.968c0,3.176-8.706,5.723-19.438,5.723C-7.935-1.245-16.642-3.792-16.642-6.968Z" transform="translate(16.642 6.968)"/>
                <path id="Path_39137" data-name="Path 39137" d="M-16.642-6.968V3.6c0,3.176,8.707,5.723,19.466,5.723,10.732,0,19.438-2.547,19.438-5.723V-6.968c0,3.176-8.706,5.723-19.438,5.723C-7.935-1.245-16.642-3.792-16.642-6.968Z" transform="translate(16.642 6.968)" fill="rgba(0,0,0,0)"/>
                <path id="Path_39137_-_Outline" data-name="Path 39137 - Outline" d="M-16.642-7.978a1.011,1.011,0,0,1,1.01,1.01c0,.749,1.3,2.005,4.972,3.083A50.028,50.028,0,0,0,2.824-2.256,49.881,49.881,0,0,0,16.283-3.885c3.667-1.078,4.969-2.334,4.969-3.083a1.011,1.011,0,0,1,1.011-1.01,1.011,1.011,0,0,1,1.01,1.01V3.6c0,4.42-10.287,6.733-20.449,6.733A52.064,52.064,0,0,1-11.228,8.62c-4.2-1.234-6.424-2.97-6.424-5.022V-6.968A1.011,1.011,0,0,1-16.642-7.978ZM2.824-.235A52.064,52.064,0,0,1-11.228-1.946a15.723,15.723,0,0,1-4.4-1.923V3.6c0,.749,1.3,2.005,4.972,3.083A50.028,50.028,0,0,0,2.824,8.311,49.881,49.881,0,0,0,16.283,6.681C19.95,5.6,21.252,4.347,21.252,3.6V-3.869C17.761-1.473,10.259-.235,2.824-.235Z" transform="translate(16.642 6.968)"/>
              </g>
              <g id="Group_37607" data-name="Group 37607" transform="translate(19.445 69.929)">
                <path id="Path_39138" data-name="Path 39138" d="M-16.642.811c0,3.176,8.706,5.723,19.466,5.723,10.732,0,19.438-2.547,19.438-5.723,0-3.149-8.706-5.695-19.438-5.695C-7.936-4.884-16.642-2.338-16.642.811Z" transform="translate(16.642 4.884)" fill="rgba(0,0,0,0)"/>
                <path id="Path_39138_-_Outline" data-name="Path 39138 - Outline" d="M2.824-5.894A52.079,52.079,0,0,1,16.852-4.187c4.2,1.23,6.421,2.958,6.421,5,0,4.42-10.287,6.733-20.449,6.733A52.065,52.065,0,0,1-11.229,5.833c-4.2-1.234-6.424-2.97-6.424-5.022s2.222-3.769,6.425-5A52.225,52.225,0,0,1,2.824-5.894Zm0,11.417A49.881,49.881,0,0,0,16.283,3.893C19.95,2.816,21.252,1.559,21.252.811s-1.3-1.985-4.968-3.058A50.04,50.04,0,0,0,2.824-3.873,50.188,50.188,0,0,0-10.66-2.248C-14.33-1.174-15.631.071-15.631.811s1.3,2.005,4.972,3.083A50.028,50.028,0,0,0,2.824,5.523Z" transform="translate(16.642 4.884)"/>
              </g>
              <g id="Group_37608" data-name="Group 37608" transform="translate(0 0)">
                <path id="Path_39139" data-name="Path 39139" d="M19.715,43.074,14.319-.135c-1.032-8.27-5.447-15.5-11.9-19.3C-4.778-23.665-11.961-27.809-19.178-32.2" transform="translate(19.178 32.2)" fill="rgba(0,0,0,0)"/>
                <path id="Path_39139_-_Outline" data-name="Path 39139 - Outline" d="M19.713,44.085a1.011,1.011,0,0,1-1-.885L13.317-.01c-1-8-5.265-14.937-11.413-18.552C0-19.683-1.94-20.817-3.814-21.914c-5.2-3.044-10.578-6.191-15.889-9.423a1.01,1.01,0,0,1-.338-1.389,1.01,1.01,0,0,1,1.389-.338c5.3,3.223,10.666,6.366,15.859,9.405,1.875,1.1,3.814,2.232,5.722,3.355C9.613-16.373,14.246-8.88,15.322-.26l5.4,43.209a1.01,1.01,0,0,1-.878,1.128A1.021,1.021,0,0,1,19.713,44.085Z" transform="translate(19.178 32.2)"/>
              </g>
            </g>
            <g id="Group_37610" data-name="Group 37610" transform="translate(22.547 22.902) rotate(-169.952)">
              <path id="Path_39140" data-name="Path 39140" d="M22.144,13.459a9.455,9.455,0,0,0-5-12.379C12.385-.957,2.422-.269.385,4.492-1.671,9.3,4.96,16.4,9.721,18.436A9.464,9.464,0,0,0,22.144,13.459Z" transform="translate(0 0)"/>
            </g>
          </g>
          <g id="Group_37615" data-name="Group 37615" transform="translate(123.934 229.983)">
            <g id="Group_37612" data-name="Group 37612" transform="translate(0 19.663)">
              <path id="Path_39141" data-name="Path 39141" d="M-54.766,22.969C-27.21,33.212-14.325,35.985,11.668,32.7S48.634,28.6,77.154,8.055C87.491.458,99.012-11.622,99.012-11.622s-4.348-5.232-15.033-10.759-16.486-6.011-21.518-6.632a286.584,286.584,0,0,0-39.9-1.639q1.227,1.736,2.665,3.4A67.837,67.837,0,0,1-9.219-24.563c.771-1.216,1.484-2.443,2.116-3.67A186.678,186.678,0,0,0-47.266-17.865,76.67,76.67,0,0,0-66.689-6.018a67.262,67.262,0,0,0-13.2,14.945S-64.074,19.139-54.766,22.969Z" transform="translate(60.918 30.71)" fill="#ec85c0"/>
            </g>
            <g id="Group_37614" data-name="Group 37614" transform="translate(51.313 0)">
              <path id="Path_39143" data-name="Path 39143" d="M-8.231-10.295c1.182,7.561-1.024,16.045-6.5,24.6a67.792,67.792,0,0,0,34.449-2.693C13.144,4,9.846-3.946,9.846-11.507" transform="translate(14.736 11.507)" fill="rgba(0,0,0,0)"/>
              <path id="Path_39143_-_Outline" data-name="Path 39143 - Outline" d="M-2.619,16.4a68.759,68.759,0,0,1-12.3-1.106,1.01,1.01,0,0,1-.746-.591,1.01,1.01,0,0,1,.076-.948c5.308-8.283,7.506-16.547,6.357-23.9a1.011,1.011,0,0,1,.842-1.154,1.011,1.011,0,0,1,1.154.842c1.166,7.459-.856,15.733-5.851,24.011a66.547,66.547,0,0,0,31.071-2.431,44.421,44.421,0,0,1-6.6-10.7,30.549,30.549,0,0,1-2.55-11.936,1.01,1.01,0,0,1,1.01-1.01,1.01,1.01,0,0,1,1.01,1.01c0,7.4,3.327,15.168,9.621,22.457a1.011,1.011,0,0,1-.429,1.614A67.977,67.977,0,0,1,2.726,16.2Q.055,16.4-2.619,16.4Z" transform="translate(14.736 11.507)"/>
            </g>
          </g>
          <g id="Group_37638" data-name="Group 37638" transform="translate(93.826 87.665)">
            <g id="Group_37619" data-name="Group 37619">
              <g id="Group_37616" data-name="Group 37616" transform="translate(145.269 74.13)">
                <path id="Path_39144" data-name="Path 39144" d="M-3.676-10.385A15.342,15.342,0,0,1,.647-7.572a13.144,13.144,0,0,1,4.262,10A14.507,14.507,0,0,1,.48,11.948a17.306,17.306,0,0,1-2.294,1.944" transform="translate(3.676 10.385)" fill="rgba(0,0,0,0)"/>
                <path id="Path_39144_-_Outline" data-name="Path 39144 - Outline" d="M-1.814,14.9a1.009,1.009,0,0,1-.826-.427A1.011,1.011,0,0,1-2.4,13.067a16.311,16.311,0,0,0,2.16-1.83A13.506,13.506,0,0,0,3.9,2.39,12.072,12.072,0,0,0-.044-6.834,14.4,14.4,0,0,0-4.081-9.459,1.01,1.01,0,0,1-4.6-10.79a1.011,1.011,0,0,1,1.331-.52,16.441,16.441,0,0,1,4.608,3A14.6,14.6,0,0,1,4.861-3.258,13.589,13.589,0,0,1,5.918,2.47,15.515,15.515,0,0,1,1.2,12.66a18.341,18.341,0,0,1-2.429,2.058A1.006,1.006,0,0,1-1.814,14.9Z" transform="translate(3.676 10.385)"/>
              </g>
              <g id="Group_37617" data-name="Group 37617" transform="translate(30.109 65.307)">
                <path id="Path_39145" data-name="Path 39145" d="M63.136-33.31c.539,2.708,1.079,5.424,1.576,8.147A111.063,111.063,0,0,1,66.939-2.43q-.023.933-.074,1.868c-.533,9.788-3.351,19.645-9.576,27.177C51.2,33.982,42.322,38.582,33.173,41.35c-19.514,5.906-41.793,3.823-58.681-7.6S-52.827,1.137-49.41-18.963" transform="translate(50.057 33.31)" fill="rgba(0,0,0,0)"/>
                <path id="Path_39145_-_Outline" data-name="Path 39145 - Outline" d="M11.459,45.568a73.564,73.564,0,0,1-8.73-.516A68.806,68.806,0,0,1-12.3,41.539a61.819,61.819,0,0,1-13.775-6.951A56.75,56.75,0,0,1-37.62,24.174a58.539,58.539,0,0,1-8.37-13.1A54.646,54.646,0,0,1-50.491-3.7a48.408,48.408,0,0,1,.084-15.432,1.011,1.011,0,0,1,1.166-.827,1.011,1.011,0,0,1,.827,1.166C-51.63.129-41.978,21.392-24.942,32.914c15.971,10.8,37.587,13.593,57.823,7.469C43.249,37.246,51.2,32.4,56.51,25.971,63.5,17.516,65.45,6.845,65.857-.617c.033-.61.058-1.228.072-1.838a110.553,110.553,0,0,0-2.212-22.527c-.5-2.73-1.044-5.476-1.573-8.131a1.01,1.01,0,0,1,.794-1.188,1.01,1.01,0,0,1,1.188.794c.53,2.663,1.078,5.417,1.579,8.163A112.4,112.4,0,0,1,67.95-2.4c-.015.629-.041,1.267-.075,1.9-.423,7.766-2.467,18.886-9.807,27.766a41.777,41.777,0,0,1-11.179,9.32,62.215,62.215,0,0,1-13.423,5.738A76.28,76.28,0,0,1,11.459,45.568Z" transform="translate(50.057 33.31)"/>
              </g>
              <g id="Group_37618" data-name="Group 37618">
                <path id="Path_39146" data-name="Path 39146" d="M-67.716,24.822a38.038,38.038,0,0,0,7.754,21.271A37.08,37.08,0,0,0-39.353,60.12c5.865,1.428,12.5,1.02,17.138-3.366a16.127,16.127,0,0,0,4.388-7.5l-1.786.255c.511-.357,1.02-.715,1.531-1.072A48.979,48.979,0,0,0,1.81,15.538C6.453,20.792,11.5,25.791,17.572,29.311s13.262,5.406,20.149,4.08,13.262-6.274,15.1-13.058a11.945,11.945,0,0,0,23.21,2.653l1.417,3.946C82.1,23.56,87.1,14.875,89.292,8.448c2.143-6.428,1.836-14.282-2.041-19.536A14.294,14.294,0,0,0,70.98-15.731c-5.662,2.041-10.2,7.091-13.11,13.008a34.584,34.584,0,0,0-3.162-26.27c-4.387-7.6-11.988-12.7-19.945-13.416a18.07,18.07,0,0,0-12.5,3.316,15.764,15.764,0,0,0-6.121,12.6c-5.713-11.834-17.5-19.485-29.28-18.975-6.937.306-14.384,3.927-17.139,11.272-1.683,4.438-1.427,9.539-.152,14.13A67.542,67.542,0,0,0-24.715-7.213c-2.96-2.5-6.12-4.947-9.691-5.814-3.622-.867-7.806.152-10,3.519S-45.729-.326-42.261,1.1c-6.172-3.315-12.752-2.346-17.956,2.755C-65.37,8.958-68.022,17.018-67.716,24.822Z" transform="translate(67.74 45.494)"/>
              </g>
            </g>
            <g id="Group_37637" data-name="Group 37637" transform="translate(18.225 75.365)">
              <g id="Group_37626" data-name="Group 37626" transform="translate(0)">
                <g id="Group_37622" data-name="Group 37622">
                  <g id="Group_37620" data-name="Group 37620">
                    <path id="Path_39147" data-name="Path 39147" d="M-15.587,6.325c2.028,13.8,11.856,23.84,21.962,22.356S23.006,14.757,20.978.953C18.945-12.891,9.124-22.887-.983-21.4S-17.621-7.518-15.587,6.325Z" transform="translate(15.958 21.549)" fill="#80d5ec"/>
                  </g>
                  <g id="Group_37621" data-name="Group 37621" transform="translate(3.56 13.361)">
                    <path id="Path_39148" data-name="Path 39148" d="M-7.79,3.161c1.013,6.9,5.925,11.917,10.977,11.174S11.5,7.375,10.485.476C9.468-6.444,4.56-11.44-.492-10.7S-8.807-3.759-7.79,3.161Z" transform="translate(7.976 10.771)"/>
                  </g>
                </g>
                <g id="Group_37625" data-name="Group 37625" transform="translate(17.04 32.187)">
                  <g id="Group_37623" data-name="Group 37623" transform="translate(0 0)">
                    <path id="Path_39149" data-name="Path 39149" d="M-12.972-6.462A34.5,34.5,0,0,0,17.353,8.579" transform="translate(12.972 6.462)" fill="rgba(0,0,0,0)"/>
                    <path id="Path_39149_-_Outline" data-name="Path 39149 - Outline" d="M15.324,9.654A35.089,35.089,0,0,1-.231,5.939,34.821,34.821,0,0,1-13.814-5.9a1.01,1.01,0,0,1,.283-1.4,1.011,1.011,0,0,1,1.4.283A33.318,33.318,0,0,0,17.288,7.57a1.01,1.01,0,1,1,.129,2.017Q16.374,9.654,15.324,9.654Z" transform="translate(12.972 6.462)"/>
                  </g>
                  <g id="Group_37624" data-name="Group 37624" transform="translate(26.983 9.678)">
                    <path id="Path_39150" data-name="Path 39150" d="M6.268-2A4.869,4.869,0,0,1,7.632,1.139,4.622,4.622,0,0,1,4.907,5.085a9.453,9.453,0,0,1-4.948.691A6.72,6.72,0,0,1-4.756,3.857,4.48,4.48,0,0,1-5.3-.771c1.509-3.357,6-4.381,9.147-2.978A7.2,7.2,0,0,1,6.268-2Z" transform="translate(5.705 4.359)"/>
                  </g>
                </g>
              </g>
              <g id="Group_37636" data-name="Group 37636" transform="translate(60.322 9.491)">
                <g id="Group_37627" data-name="Group 37627" transform="translate(23.122 8.914)">
                  <path id="Path_39151" data-name="Path 39151" d="M.032-9.71C-.826-7.641-.35-4.887.578-2.883S2.821.671,3.833,2.584A9.914,9.914,0,0,1,4.978,9.332,4.53,4.53,0,0,1,.957,12.986c-1.673.063-3.282-.852-4.832-1.78" transform="translate(3.875 9.71)" fill="rgba(0,0,0,0)"/>
                  <path id="Path_39151_-_Outline" data-name="Path 39151 - Outline" d="M.8,14a10.618,10.618,0,0,1-5.193-1.927,1.01,1.01,0,0,1-.348-1.386,1.011,1.011,0,0,1,1.386-.348c1.546.926,2.935,1.688,4.275,1.637A3.508,3.508,0,0,0,4,9.084,8.889,8.889,0,0,0,2.94,3.057c-.425-.8-.9-1.534-1.41-2.309A24.887,24.887,0,0,1-.339-2.459C-1.29-4.513-1.937-7.6-.9-10.1a1.011,1.011,0,0,1,1.321-.546A1.01,1.01,0,0,1,.966-9.323C.179-7.426.759-4.9,1.495-3.307A22.981,22.981,0,0,0,3.222-.358c.51.779,1.036,1.585,1.5,2.47.635,1.2,2.025,4.33,1.231,7.468a6.111,6.111,0,0,1-1.924,3.188A5.015,5.015,0,0,1,.995,14Q.9,14,.8,14Z" transform="translate(3.875 9.71)"/>
                </g>
                <g id="Group_37635" data-name="Group 37635" transform="translate(0 0)">
                  <g id="Group_37628" data-name="Group 37628" transform="translate(16.134 40.757)">
                    <path id="Path_39152" data-name="Path 39152" d="M10.65-1.12A7.382,7.382,0,0,1,5.037,2.89,12.125,12.125,0,0,1-1.939,1.66,35.323,35.323,0,0,1-7.961-2.246" transform="translate(7.961 2.246)" fill="rgba(0,0,0,0)"/>
                    <path id="Path_39152_-_Outline" data-name="Path 39152 - Outline" d="M3.569,4.013A14.039,14.039,0,0,1-2.37,2.574a36.407,36.407,0,0,1-6.2-4.013,1.011,1.011,0,0,1-.2-1.415,1.011,1.011,0,0,1,1.415-.2A34.852,34.852,0,0,0-1.508.746,11.288,11.288,0,0,0,4.879,1.892,6.327,6.327,0,0,0,9.727-1.533a1.01,1.01,0,0,1,1.335-.509,1.011,1.011,0,0,1,.509,1.335A8.36,8.36,0,0,1,5.2,3.888,10.386,10.386,0,0,1,3.569,4.013Z" transform="translate(7.961 2.246)"/>
                  </g>
                  <g id="Group_37631" data-name="Group 37631" transform="translate(6.071 7.329)">
                    <g id="Group_37629" data-name="Group 37629" transform="translate(36.399 0)">
                      <path id="Path_39153" data-name="Path 39153" d="M4.959-1.076a4.413,4.413,0,0,1-.867,4.087,4.907,4.907,0,0,1-5.3,1.628A4.008,4.008,0,0,1-3.7-.106,6.286,6.286,0,0,1-1.814-2.669C.122-4.456,4.051-3.736,4.959-1.076Z" transform="translate(3.852 3.652)"/>
                    </g>
                    <g id="Group_37630" data-name="Group 37630" transform="translate(0 5.58)">
                      <path id="Path_39154" data-name="Path 39154" d="M4.959-1.076a4.414,4.414,0,0,1-.867,4.087,4.907,4.907,0,0,1-5.3,1.628A4.008,4.008,0,0,1-3.7-.106,6.294,6.294,0,0,1-1.814-2.669C.121-4.456,4.051-3.736,4.959-1.076Z" transform="translate(3.852 3.652)"/>
                    </g>
                  </g>
                  <g id="Group_37634" data-name="Group 37634">
                    <g id="Group_37632" data-name="Group 37632" transform="translate(37.018)">
                      <path id="Path_39155" data-name="Path 39155" d="M8.75-1.521a10.531,10.531,0,0,0-8.218.072A26.936,26.936,0,0,0-6.541,3.109" transform="translate(6.541 2.324)" fill="rgba(0,0,0,0)"/>
                      <path id="Path_39155_-_Outline" data-name="Path 39155 - Outline" d="M-6.54,4.119a1.008,1.008,0,0,1-.781-.369,1.011,1.011,0,0,1,.139-1.422A28.1,28.1,0,0,1,.163-2.389,11.522,11.522,0,0,1,9.18-2.435a1.011,1.011,0,0,1,.484,1.345A1.011,1.011,0,0,1,8.32-.607a9.511,9.511,0,0,0-7.42.1,26.373,26.373,0,0,0-6.8,4.4A1.006,1.006,0,0,1-6.54,4.119Z" transform="translate(6.541 2.324)"/>
                    </g>
                    <g id="Group_37633" data-name="Group 37633" transform="translate(0 4.239)">
                      <path id="Path_39156" data-name="Path 39156" d="M9.06-1.532a10.662,10.662,0,0,0-8.474.078A31.62,31.62,0,0,0-6.773,3.18" transform="translate(6.773 2.376)" fill="rgba(0,0,0,0)"/>
                      <path id="Path_39156_-_Outline" data-name="Path 39156 - Outline" d="M-6.772,4.19a1.009,1.009,0,0,1-.8-.4,1.011,1.011,0,0,1,.187-1.417,32.364,32.364,0,0,1,7.6-4.771,13.834,13.834,0,0,1,4.612-.988,9.9,9.9,0,0,1,4.677.94,1.011,1.011,0,0,1,.467,1.35,1.011,1.011,0,0,1-1.35.467,9.635,9.635,0,0,0-7.66.109,30.848,30.848,0,0,0-7.117,4.5A1.006,1.006,0,0,1-6.772,4.19Z" transform="translate(6.773 2.376)"/>
                    </g>
                  </g>
                </g>
              </g>
            </g>
          </g>
        </g>
      </g>
    </g>
  </g>
</svg>
