<svg xmlns="http://www.w3.org/2000/svg" width="17.378" height="17.268" viewBox="0 0 17.378 17.268"><defs><style>.a{fill-rule:evenodd;}.b{fill:#ec85c0;}</style></defs><path class="a" d="M4.516,19.3A2.556,2.556,0,0,1,2,16.708V10.08a2.632,2.632,0,0,1,.833-1.929L8.7,2.7a2.46,2.46,0,0,1,3.367,0l5.871,5.449a2.632,2.632,0,0,1,.833,1.929v6.629A2.556,2.556,0,0,1,16.258,19.3Zm13-9.223v6.629a1.278,1.278,0,0,1-1.258,1.3H13.742V13.249a2.556,2.556,0,0,0-2.516-2.595H9.548a2.556,2.556,0,0,0-2.516,2.595v4.757H4.516a1.278,1.278,0,0,1-1.258-1.3V10.08a1.314,1.314,0,0,1,.417-.964L9.546,3.666a1.23,1.23,0,0,1,1.682,0L17.1,9.115a1.316,1.316,0,0,1,.417.964ZM8.29,18.006V13.249a1.278,1.278,0,0,1,1.258-1.3h1.677a1.278,1.278,0,0,1,1.258,1.3v4.757Z" transform="translate(-1.396 -2.035)"/><path class="b" d="M7.861.365l7.182,6.117v9.24L.512,16.148V7.3Z" transform="translate(0.383 0.274)"/><path class="a" d="M4.455,19.014A2.5,2.5,0,0,1,2,16.463V9.945a2.6,2.6,0,0,1,.813-1.9L8.542,2.691a2.387,2.387,0,0,1,3.285,0l5.729,5.358a2.6,2.6,0,0,1,.813,1.9v6.518a2.5,2.5,0,0,1-2.455,2.551ZM17.142,9.945v6.518a1.252,1.252,0,0,1-1.228,1.276H13.459V13.061A2.5,2.5,0,0,0,11,10.51H9.366a2.5,2.5,0,0,0-2.455,2.551v4.677H4.455a1.252,1.252,0,0,1-1.228-1.276V9.945A1.3,1.3,0,0,1,3.635,9L9.364,3.639a1.194,1.194,0,0,1,1.642,0L16.735,9a1.3,1.3,0,0,1,.407.948Zm-9,7.793V13.061a1.252,1.252,0,0,1,1.228-1.276H11a1.252,1.252,0,0,1,1.228,1.276v4.677Z" transform="translate(-2 -2.036)"/></svg>