<svg xmlns="http://www.w3.org/2000/svg" width="36.743" height="38.567" viewBox="0 0 36.743 38.567">
  <g id="Group_35489" data-name="Group 35489" transform="translate(10193 -1278)">
    <path id="Path_36882" data-name="Path 36882" d="M18.248,0C28.326,0,36.5,7.843,36.5,17.518s-8.17,17.518-18.248,17.518c-3.84,0-12.412.85-12.412.85l-1.427-8.2S0,20.686,0,17.518C0,7.843,8.17,0,18.248,0Z" transform="translate(-10193 1278.73)" fill="#a4e3dc"/>
    <g id="information-icon" transform="translate(-10193 1278)">
      <path id="Path_36880" data-name="Path 36880" d="M34.423,17.9a2.584,2.584,0,1,1-2.584-2.584A2.584,2.584,0,0,1,34.423,17.9ZM34.35,36.8c0,.08-.1.161-.19.2a10.051,10.051,0,0,1-2.453.8,3.358,3.358,0,0,1-2.467-.511,3.394,3.394,0,0,1-1.219-2.569,11.087,11.087,0,0,1,.372-2.92c.416-1.949.73-3.912,1.088-5.876a2.438,2.438,0,0,0-.036-1.343,1.8,1.8,0,0,0-1.131-.9c-.467-.153-.971-.2-1.46-.336-.277-.073-.117-.219,0-.292a4.993,4.993,0,0,1,.73-.321,7.825,7.825,0,0,1,1.46-.438,4.314,4.314,0,0,1,1.46-.073,3.066,3.066,0,0,1,2.474,2.241,5.978,5.978,0,0,1-.1,2.518L31.59,34.021a2.489,2.489,0,0,0,0,1.394,1.818,1.818,0,0,0,1.168.927c.474.161.985.212,1.46.336a.19.19,0,0,1,.117.066.1.1,0,0,1,.015.058Z" transform="translate(-12.207 -8.21)"/>
      <path id="Path_36881" data-name="Path 36881" d="M24.323,5.6A18.35,18.35,0,0,0,10.162,34.456a2.073,2.073,0,0,1,.372,1.292l-.307,6.263a2.029,2.029,0,0,0,2.737,2.007l6.19-2.292a2.073,2.073,0,0,1,1.263-.073A18.358,18.358,0,1,0,24.323,5.6Zm1.168,33.686h-.285a15.234,15.234,0,0,1-4.015-.555,2.088,2.088,0,0,0-1.277.051l-3.467,1.307L13.1,41.332A.336.336,0,0,1,12.644,41l.168-3.5.168-3.474a2.073,2.073,0,0,0-.38-1.292A15.328,15.328,0,1,1,25.469,39.3Z" transform="translate(-6.844 -5.579)"/>
    </g>
  </g>
</svg>
