<svg xmlns="http://www.w3.org/2000/svg" width="772.149" height="109.42" viewBox="0 0 772.149 109.42">
  <g id="Group_40106" data-name="Group 40106" transform="translate(7314.673 6974.994)">
    <path id="Path_38453" data-name="Path 38453" d="M-14117.879,1416.713c49.523,4.639,98.326,47.862,148.952,38.12s177.553-39.976,223.776-38.12,148.933,27.833,211.664,32.472,126.563-17.628,126.563-17.628l60.531-14.844" transform="translate(6803.393 -8379.48)" fill="none" stroke="#000" stroke-width="4" opacity="0.07"/>
    <path id="Path_38455" data-name="Path 38455" d="M-14066,1353.138s45.382,28.639,245.7,36.861c76.26,3.13,211.373-27.515,317.324-29,91.525-1.281,157.916,25.886,188.119,35" transform="translate(6752.965 -8263.492)" fill="none" stroke="#000" stroke-width="4" stroke-dasharray="40" opacity="0.07"/>
    <path id="Path_38454" data-name="Path 38454" d="M-14066,1418.783s46.04-43.858,249.266-56.449c77.365-4.793,214.438,42.138,321.926,44.408,92.853,1.961,160.205-39.643,190.847-53.6" transform="translate(6752.965 -8326.313)" fill="none" stroke="#000" stroke-width="4" stroke-dasharray="40" opacity="0.07"/>
  </g>
</svg>
