<svg xmlns="http://www.w3.org/2000/svg" width="43.56" height="31.591" viewBox="0 0 43.56 31.591">
  <g id="Group_35883" data-name="Group 35883" transform="translate(-13.767 -4.766)">
    <g id="Group_35458" data-name="Group 35458" transform="translate(16.768 33.357) rotate(-90)">
      <g id="Group_35457" data-name="Group 35457">
        <g id="upload-file" transform="translate(0 2.214)">
          <g id="Union_47" data-name="Union 47" transform="translate(0 0)">
            <path d="M 22.58889198303223 36.84553909301758 L 1.412042856216431 36.84553909301758 C -0.1936571151018143 36.84553909301758 -1.499997138977051 35.53925704956055 -1.499997138977051 33.93361663818359 L -1.499997138977051 12.75678730010986 C -1.499997138977051 11.15149784088135 -0.1936571151018143 9.845507621765137 1.412042856216431 9.845507621765137 L 7.765002727508545 9.845507621765137 C 8.241371154785156 9.845507621765137 8.691332817077637 9.960440635681152 9.088703155517578 10.16407108306885 L 9.088703155517578 8.439786911010742 L 9.066852569580078 8.461627960205078 C 8.517573356628418 9.011087417602539 7.78643274307251 9.313907623291016 7.008522987365723 9.313907623291016 C 6.231082916259766 9.313907623291016 5.500012874603271 9.011397361755371 4.949973106384277 8.46209716796875 C 3.815372943878174 7.325727462768555 3.815372943878174 5.479217529296875 4.948432922363281 4.344387531280518 L 9.941932678222656 -0.6471923589706421 C 10.49013328552246 -1.196642398834229 11.22179317474365 -1.500002384185791 12.00074291229248 -1.500002384185791 C 12.77921295166016 -1.500002384185791 13.51061248779297 -1.196642398834229 14.06021308898926 -0.6457923650741577 L 19.04837036132812 4.340446949005127 C 19.88957214355469 5.175721645355225 20.14001083374023 6.42300271987915 19.68640327453613 7.518607616424561 C 19.2335033416748 8.610617637634277 18.17821311950684 9.31569766998291 16.99758338928223 9.315727233886719 L 16.9949836730957 9.315727233886719 L 16.99123764038086 9.315717697143555 L 16.99026298522949 9.315717697143555 C 16.21286201477051 9.315737724304199 15.48203277587891 9.012357711791992 14.93241310119629 8.461447715759277 L 14.91204261779785 8.44107723236084 L 14.91204261779785 10.16416835784912 C 15.30947303771973 9.960458755493164 15.75946617126465 9.845507621765137 16.23593330383301 9.845507621765137 L 22.58889198303223 9.845507621765137 C 24.19449234008789 9.845507621765137 25.50074195861816 11.15149784088135 25.50074195861816 12.75678730010986 L 25.50074195861816 33.93361663818359 C 25.50074195861816 35.53925704956055 24.19449234008789 36.84553909301758 22.58889198303223 36.84553909301758 Z M 4.323893070220947 31.02236747741699 L 19.67685317993164 31.02236747741699 L 19.67685317993164 15.66870784759521 L 16.23593330383301 15.66870784759521 C 15.75946617126465 15.66870784759521 15.30947303771973 15.55373096466064 14.91204261779785 15.34997653961182 L 14.91204261779785 21.22763824462891 C 14.91204261779785 22.83327674865723 13.60604286193848 24.13956832885742 12.00074291229248 24.13956832885742 C 10.39504241943359 24.13956832885742 9.088703155517578 22.83327674865723 9.088703155517578 21.22763824462891 L 9.088703155517578 15.35007381439209 C 8.691332817077637 15.55375003814697 8.241371154785156 15.66870784759521 7.765002727508545 15.66870784759521 L 4.323893070220947 15.66870784759521 L 4.323893070220947 31.02236747741699 Z" stroke="none"/>
            <path d="M 22.58889198303223 35.34553909301758 C 23.36862373352051 35.34553909301758 24.00074195861816 34.71347808837891 24.00074195861816 33.93361663818359 L 24.00074195861816 12.75678730010986 C 24.00074195861816 11.97758769989014 23.36862373352051 11.34550762176514 22.58889198303223 11.34550762176514 L 16.23593330383301 11.34550762176514 C 15.45601272583008 11.34550762176514 14.82408332824707 11.97758769989014 14.82408332824707 12.75678730010986 C 14.82408332824707 13.53662776947021 15.45601272583008 14.16870784759521 16.23593330383301 14.16870784759521 L 21.17685317993164 14.16870784759521 L 21.17685317993164 32.52236938476562 L 2.823892831802368 32.52236938476562 L 2.823892831802368 14.16870784759521 L 7.765002727508545 14.16870784759521 C 8.544733047485352 14.16870784759521 9.176853179931641 13.53662776947021 9.176853179931641 12.75678730010986 C 9.176853179931641 11.97758769989014 8.544733047485352 11.34550762176514 7.765002727508545 11.34550762176514 L 1.412042856216431 11.34550762176514 C 0.6321228742599487 11.34550762176514 2.886657739509246e-06 11.97758769989014 2.886657739509246e-06 12.75678730010986 L 2.886657739509246e-06 33.93361663818359 C 2.886657739509246e-06 34.71347808837891 0.6321228742599487 35.34553909301758 1.412042856216431 35.34553909301758 L 22.58889198303223 35.34553909301758 M 12.00074291229248 22.63956832885742 C 12.7799129486084 22.63956832885742 13.41204261779785 22.00750732421875 13.41204261779785 21.22763824462891 L 13.41204261779785 4.819657802581787 L 15.99431324005127 7.402027606964111 C 16.2589225769043 7.667257785797119 16.61896324157715 7.816372394561768 16.99266242980957 7.815717697143555 C 17.56539535522461 7.817737579345703 18.08131217956543 7.473278045654297 18.30049324035645 6.944807529449463 C 18.5192928314209 6.416337490081787 18.39728355407715 5.807337760925293 17.99082374572754 5.404217720031738 L 12.99835300445557 0.4136676490306854 C 12.73374271392822 0.1484576463699341 12.37494277954102 -2.36083974414214e-06 12.00074291229248 -2.36083974414214e-06 C 11.62599277496338 -2.36083974414214e-06 11.26700305938721 0.1484576463699341 11.00239276885986 0.4136676490306854 L 6.009922981262207 5.404217720031738 C 5.459202766418457 5.955797672271729 5.459202766418457 6.849147796630859 6.009922981262207 7.40072774887085 C 6.561573028564453 7.951637744903564 7.455702781677246 7.951637744903564 8.00643253326416 7.40072774887085 L 10.58870315551758 4.819607734680176 L 10.58870315551758 21.22763824462891 C 10.58870315551758 22.00750732421875 11.22083282470703 22.63956832885742 12.00074291229248 22.63956832885742 M 22.58889198303223 38.34553909301758 L 1.412042856216431 38.34553909301758 C -1.020767092704773 38.34553909301758 -2.999997138977051 36.36635589599609 -2.999997138977051 33.93361663818359 L -2.999997138977051 12.75678730010986 C -2.999997138977051 10.32439804077148 -1.020767092704773 8.345507621765137 1.412042856216431 8.345507621765137 L 3.048373937606812 8.345507621765137 C 2.24266242980957 6.698071956634521 2.522743940353394 4.650888442993164 3.886952877044678 3.284557580947876 L 8.88148307800293 -1.708062410354614 C 9.711712837219238 -2.54018235206604 10.8204927444458 -3.000002384185791 12.00074291229248 -3.000002384185791 C 13.18052291870117 -3.000002384185791 14.28903293609619 -2.54018235206604 15.12207317352295 -1.705252408981323 L 20.10984802246094 3.280603408813477 C 21.38095855712891 4.546431541442871 21.75887680053711 6.434136390686035 21.07231330871582 8.09241771697998 C 21.03666114807129 8.178377151489258 20.99853515625 8.262781143188477 20.95805931091309 8.345507621765137 L 22.58889198303223 8.345507621765137 C 25.02159309387207 8.345507621765137 27.00074195861816 10.32439804077148 27.00074195861816 12.75678730010986 L 27.00074195861816 33.93361663818359 C 27.00074195861816 36.36635589599609 25.02159309387207 38.34553909301758 22.58889198303223 38.34553909301758 Z M 5.823893070220947 29.52236747741699 L 18.17685317993164 29.52236747741699 L 18.17685317993164 17.1687068939209 L 16.41204261779785 17.1687068939209 L 16.41204261779785 21.22763824462891 C 16.41204261779785 23.66038703918457 14.43314266204834 25.63956832885742 12.00074291229248 25.63956832885742 C 9.567933082580566 25.63956832885742 7.58870267868042 23.66038703918457 7.58870267868042 21.22763824462891 L 7.58870267868042 17.1687068939209 L 5.823893070220947 17.1687068939209 L 5.823893070220947 29.52236747741699 Z" stroke="none" fill="#000"/>
          </g>
        </g>
        <g id="upload-file-2" data-name="upload-file" transform="translate(1.59)">
          <g id="Union_47-2" data-name="Union 47" fill="#ec85c0">
            <path d="M 22.58889198303223 36.84553909301758 L 1.412042856216431 36.84553909301758 C -0.1936571151018143 36.84553909301758 -1.499997138977051 35.53925704956055 -1.499997138977051 33.93361663818359 L -1.499997138977051 12.75678730010986 C -1.499997138977051 11.15149784088135 -0.1936571151018143 9.845507621765137 1.412042856216431 9.845507621765137 L 7.765002727508545 9.845507621765137 C 8.241371154785156 9.845507621765137 8.691332817077637 9.960440635681152 9.088703155517578 10.16407108306885 L 9.088703155517578 8.439786911010742 L 9.066852569580078 8.461627960205078 C 8.517573356628418 9.011087417602539 7.78643274307251 9.313907623291016 7.008522987365723 9.313907623291016 C 6.231082916259766 9.313907623291016 5.500012874603271 9.011397361755371 4.949973106384277 8.46209716796875 C 3.815372943878174 7.325727462768555 3.815372943878174 5.479217529296875 4.948432922363281 4.344387531280518 L 9.941932678222656 -0.6471923589706421 C 10.49013328552246 -1.196642398834229 11.22179317474365 -1.500002384185791 12.00074291229248 -1.500002384185791 C 12.77921295166016 -1.500002384185791 13.51061248779297 -1.196642398834229 14.06021308898926 -0.6457923650741577 L 19.04837036132812 4.340446949005127 C 19.88957214355469 5.175721645355225 20.14001083374023 6.42300271987915 19.68640327453613 7.518607616424561 C 19.2335033416748 8.610617637634277 18.17821311950684 9.31569766998291 16.99758338928223 9.315727233886719 L 16.9949836730957 9.315727233886719 L 16.99123764038086 9.315717697143555 L 16.99026298522949 9.315717697143555 C 16.21286201477051 9.315737724304199 15.48203277587891 9.012357711791992 14.93241310119629 8.461447715759277 L 14.91204261779785 8.44107723236084 L 14.91204261779785 10.16416835784912 C 15.30947303771973 9.960458755493164 15.75946617126465 9.845507621765137 16.23593330383301 9.845507621765137 L 22.58889198303223 9.845507621765137 C 24.19449234008789 9.845507621765137 25.50074195861816 11.15149784088135 25.50074195861816 12.75678730010986 L 25.50074195861816 33.93361663818359 C 25.50074195861816 35.53925704956055 24.19449234008789 36.84553909301758 22.58889198303223 36.84553909301758 Z M 4.323893070220947 31.02236747741699 L 19.67685317993164 31.02236747741699 L 19.67685317993164 15.66870784759521 L 16.23593330383301 15.66870784759521 C 15.75946617126465 15.66870784759521 15.30947303771973 15.55373096466064 14.91204261779785 15.34997653961182 L 14.91204261779785 21.22763824462891 C 14.91204261779785 22.83327674865723 13.60604286193848 24.13956832885742 12.00074291229248 24.13956832885742 C 10.39504241943359 24.13956832885742 9.088703155517578 22.83327674865723 9.088703155517578 21.22763824462891 L 9.088703155517578 15.35007381439209 C 8.691332817077637 15.55375003814697 8.241371154785156 15.66870784759521 7.765002727508545 15.66870784759521 L 4.323893070220947 15.66870784759521 L 4.323893070220947 31.02236747741699 Z" stroke="none"/>
            <path d="M 22.58889198303223 35.34553909301758 C 23.36862373352051 35.34553909301758 24.00074195861816 34.71347808837891 24.00074195861816 33.93361663818359 L 24.00074195861816 12.75678730010986 C 24.00074195861816 11.97758769989014 23.36862373352051 11.34550762176514 22.58889198303223 11.34550762176514 L 16.23593330383301 11.34550762176514 C 15.45601272583008 11.34550762176514 14.82408332824707 11.97758769989014 14.82408332824707 12.75678730010986 C 14.82408332824707 13.53662776947021 15.45601272583008 14.16870784759521 16.23593330383301 14.16870784759521 L 21.17685317993164 14.16870784759521 L 21.17685317993164 32.52236938476562 L 2.823892831802368 32.52236938476562 L 2.823892831802368 14.16870784759521 L 7.765002727508545 14.16870784759521 C 8.544733047485352 14.16870784759521 9.176853179931641 13.53662776947021 9.176853179931641 12.75678730010986 C 9.176853179931641 11.97758769989014 8.544733047485352 11.34550762176514 7.765002727508545 11.34550762176514 L 1.412042856216431 11.34550762176514 C 0.6321228742599487 11.34550762176514 2.886657739509246e-06 11.97758769989014 2.886657739509246e-06 12.75678730010986 L 2.886657739509246e-06 33.93361663818359 C 2.886657739509246e-06 34.71347808837891 0.6321228742599487 35.34553909301758 1.412042856216431 35.34553909301758 L 22.58889198303223 35.34553909301758 M 12.00074291229248 22.63956832885742 C 12.7799129486084 22.63956832885742 13.41204261779785 22.00750732421875 13.41204261779785 21.22763824462891 L 13.41204261779785 4.819657802581787 L 15.99431324005127 7.402027606964111 C 16.2589225769043 7.667257785797119 16.61896324157715 7.816372394561768 16.99266242980957 7.815717697143555 C 17.56539535522461 7.817737579345703 18.08131217956543 7.473278045654297 18.30049324035645 6.944807529449463 C 18.5192928314209 6.416337490081787 18.39728355407715 5.807337760925293 17.99082374572754 5.404217720031738 L 12.99835300445557 0.4136676490306854 C 12.73374271392822 0.1484576463699341 12.37494277954102 -2.36083974414214e-06 12.00074291229248 -2.36083974414214e-06 C 11.62599277496338 -2.36083974414214e-06 11.26700305938721 0.1484576463699341 11.00239276885986 0.4136676490306854 L 6.009922981262207 5.404217720031738 C 5.459202766418457 5.955797672271729 5.459202766418457 6.849147796630859 6.009922981262207 7.40072774887085 C 6.561573028564453 7.951637744903564 7.455702781677246 7.951637744903564 8.00643253326416 7.40072774887085 L 10.58870315551758 4.819607734680176 L 10.58870315551758 21.22763824462891 C 10.58870315551758 22.00750732421875 11.22083282470703 22.63956832885742 12.00074291229248 22.63956832885742 M 22.58889198303223 38.34553909301758 L 1.412042856216431 38.34553909301758 C -1.020767092704773 38.34553909301758 -2.999997138977051 36.36635589599609 -2.999997138977051 33.93361663818359 L -2.999997138977051 12.75678730010986 C -2.999997138977051 10.32439804077148 -1.020767092704773 8.345507621765137 1.412042856216431 8.345507621765137 L 3.048373937606812 8.345507621765137 C 2.24266242980957 6.698071956634521 2.522743940353394 4.650888442993164 3.886952877044678 3.284557580947876 L 8.88148307800293 -1.708062410354614 C 9.711712837219238 -2.54018235206604 10.8204927444458 -3.000002384185791 12.00074291229248 -3.000002384185791 C 13.18052291870117 -3.000002384185791 14.28903293609619 -2.54018235206604 15.12207317352295 -1.705252408981323 L 20.10984802246094 3.280603408813477 C 21.38095855712891 4.546431541442871 21.75887680053711 6.434136390686035 21.07231330871582 8.09241771697998 C 21.03666114807129 8.178377151489258 20.99853515625 8.262781143188477 20.95805931091309 8.345507621765137 L 22.58889198303223 8.345507621765137 C 25.02159309387207 8.345507621765137 27.00074195861816 10.32439804077148 27.00074195861816 12.75678730010986 L 27.00074195861816 33.93361663818359 C 27.00074195861816 36.36635589599609 25.02159309387207 38.34553909301758 22.58889198303223 38.34553909301758 Z M 5.823893070220947 29.52236747741699 L 18.17685317993164 29.52236747741699 L 18.17685317993164 17.1687068939209 L 16.41204261779785 17.1687068939209 L 16.41204261779785 21.22763824462891 C 16.41204261779785 23.66038703918457 14.43314266204834 25.63956832885742 12.00074291229248 25.63956832885742 C 9.567933082580566 25.63956832885742 7.58870267868042 23.66038703918457 7.58870267868042 21.22763824462891 L 7.58870267868042 17.1687068939209 L 5.823893070220947 17.1687068939209 L 5.823893070220947 29.52236747741699 Z" stroke="none" fill="#000"/>
          </g>
        </g>
      </g>
    </g>
  </g>
</svg>
