<svg xmlns="http://www.w3.org/2000/svg" width="1921.78" height="661.207" viewBox="0 0 1921.78 661.207">
  <g id="Group_37048" data-name="Group 37048" transform="translate(-34.525 -491.793)">
    <g id="Group_37047" data-name="Group 37047">
      <path id="Path_37715" data-name="Path 37715" d="M0,0H1920V659.151H0Z" transform="translate(35 493.849)" fill="#ec85c0"/>
      <g id="Group_36848" data-name="Group 36848" transform="translate(31 -227.983)" opacity="0.17">
        <path id="Path_37718" data-name="Path 37718" d="M-14117.878,1416.767c123.253,30.176,320.458,235.374,446.448,172s271.153-153.9,386.189-141.828,465.62,150.88,621.74,181.057,314.979-114.669,314.979-114.669l150.643-96.563" transform="translate(14121.878 -316)" fill="none" stroke="#000" stroke-width="4"/>
        <path id="Path_37717" data-name="Path 37717" d="M-14083.518,1610.357c32.469-4.642,285.727,113.741,426.426,64.995s378.8,0,378.8,0,93.078,44.1,257.588-113.74,303.043-192.663,435.084-171.771,279.232,92.849,422.1-30.176" transform="translate(14087.518 -316)" fill="none" stroke="#000" stroke-width="4"/>
        <path id="Path_37716" data-name="Path 37716" d="M-14066,1353.861s1447.617-37.14,1832.959,331.937" transform="translate(14070 -316)" fill="none" stroke="#000" stroke-width="4" stroke-dasharray="40"/>
      </g>
    </g>
    <path id="Path_37714" data-name="Path 37714" d="M1933.806,0H13.764" transform="translate(21.194 493.793)" fill="none" stroke="#000" stroke-width="4"/>
  </g>
</svg>
