<svg xmlns="http://www.w3.org/2000/svg" xmlns:xlink="http://www.w3.org/1999/xlink" width="820" height="368" viewBox="0 0 820 368">
  <defs>
    <clipPath id="clip-path">
      <rect id="Rectangle_2908" data-name="Rectangle 2908" width="820" height="368" transform="translate(0 285)" fill="#fff" stroke="#707070" stroke-width="1"/>
    </clipPath>
  </defs>
  <g id="Mask_Group_26" data-name="Mask Group 26" transform="translate(0 -285)" clip-path="url(#clip-path)">
    <path id="Path_38807" data-name="Path 38807" d="M-7231.209,3640.323c316.326,16.874,616.48-47.671,616.51-159.331,2.226-26.71-12.22-58.28-28.158-70.494-28.159-21.58-109.323-38.844-152.206,32.627s59.447,118.43,167.96,153.173,169.36,51.057,282.733,31.607c110.993-19.042,314.926-235.651,439.5-240.7s109.409,93.18,11.2,102.115-192.456-44.979-153.965-102.115,216.4-152.8,403.935-92.951S-5385.3,3534-5385.3,3534" transform="translate(6610.303 -2990.296)" fill="none" stroke="#070707" stroke-width="2" stroke-dasharray="20 20"/>
  </g>
</svg>
