<svg xmlns="http://www.w3.org/2000/svg" width="29.691" height="35.028" viewBox="0 0 29.691 35.028">
  <g id="Group_35884" data-name="Group 35884" transform="translate(-1560.354 -152)">
    <g id="_05-Profile" data-name="05-Profile" transform="translate(1564.03 155.676)">
      <circle id="Ellipse_340" data-name="Ellipse 340" cx="6.705" cy="6.705" r="6.705" transform="translate(5.028 0)" fill="#bf9df6" stroke="#000" stroke-linecap="round" stroke-linejoin="round" stroke-width="4"/>
      <path id="Path_37176" data-name="Path 37176" d="M11.005,14H19.01a8.005,8.005,0,0,1,8.005,8.005v4H3v-4A8.005,8.005,0,0,1,11.005,14Z" transform="translate(-3 3.344)" fill="#bf9df6" stroke="#000" stroke-linecap="round" stroke-linejoin="round" stroke-width="4"/>
    </g>
    <g id="_05-Profile-2" data-name="05-Profile" transform="translate(1562.354 154)">
      <circle id="Ellipse_340-2" data-name="Ellipse 340" cx="6.705" cy="6.705" r="6.705" transform="translate(5.028 0)" fill="#80d5ec" stroke="#000" stroke-linecap="round" stroke-linejoin="round" stroke-width="4"/>
      <path id="Path_37176-2" data-name="Path 37176" d="M11.005,14H19.01a8.005,8.005,0,0,1,8.005,8.005v4H3v-4A8.005,8.005,0,0,1,11.005,14Z" transform="translate(-3 3.344)" fill="#80d5ec" stroke="#000" stroke-linecap="round" stroke-linejoin="round" stroke-width="4"/>
    </g>
  </g>
</svg>
