<svg
  xmlns="http://www.w3.org/2000/svg"
  width="500"
  height="135"
  viewBox="0 0 455 135"
>
  <g transform="translate(20821 12430.394)">
    <rect
      id="rec1"
      width="20"
      height="14"
      rx="7"
      transform="translate(-20821 -12309.394)"
      
    />
    <rect
      id="rec2"
      width="18"
      height="18"
      rx="7.5"
      transform="translate(-20788 -12313.394)"
    />
    <rect
      id="rec3"
      width="18"
      height="23"
      rx="7.5"
      transform="translate(-20757 -12318.394)"
    />
    <rect
      id="rec4"
      width="18"
      height="28"
      rx="7.5"
      transform="translate(-20726 -12323.394)"
    />
    <rect
      id="rec5"
      width="18"
      height="40"
      rx="7.5"
      transform="translate(-20695 -12335.394)"
    />
    <rect
      id="rec6"
      width="18"
      height="51"
      rx="7.5"
      transform="translate(-20664 -12346.394)"
    />
    <rect
      id="rec7"
      width="19"
      height="60"
      rx="7.5"
      transform="translate(-20633 -12355.394)"
    />
    <rect
      id="rec8"
      width="19"
      height="71"
      rx="7.5"
      transform="translate(-20602 -12366.394)"
    />
    <rect
      id="rec9"
      width="19"
      height="80"
      rx="7.5"
      transform="translate(-20571 -12375.394)"
    />
    <rect
      id="rec10"
      width="19"
      height="89"
      rx="7.5"
      transform="translate(-20540 -12384.394)"
    />
    <rect
      id="rec11"
      width="18"
      height="98"
      rx="7.5"
      transform="translate(-20508 -12393.394)"
    />
    <rect
      id="rec12"
      width="18"
      height="109"
      rx="7.5"
      transform="translate(-20477 -12404.394)"
    />
    <rect
      id="rec13"
      width="17"
      height="120"
      rx="7.5"
      transform="translate(-20445 -12415.394)"
    />
    <rect
      id="rec14"
      width="17"
      height="127"
      rx="7.5"
      transform="translate(-20414 -12422.394)"
    />
    <rect
      id="rec15"
      width="17"
      height="135"
      rx="7.5"
      transform="translate(-20383 -12430.394)"
    />
    
  </g>
</svg>
