<svg xmlns="http://www.w3.org/2000/svg" width="223.549" height="297.906" viewBox="0 0 223.549 297.906"><defs><style>.a{fill:#fff;}.b{fill:#010101;}.c{fill:#faf7f2;}.d{fill:#ec85c0;}.e{fill:#f7d854;}.f{fill:#ea83be;}</style></defs><g transform="translate(20711.537 10408.742)"><path class="a" d="M5.909-.126l5.716,9.833L-.193,9.959Z" transform="matrix(0.978, -0.208, 0.208, 0.978, -20663.439, -10404.123)"/><path class="b" d="M471.965,603.526c11.629-4.556,46.094-6.324,69.81-1.322,0,0-3.336,10.676-31.186,13.411s-38.624-12.089-38.624-12.089" transform="translate(-21181.27 -10870.702)"/><path class="b" d="M486.691,612.959c-12.193-3.544-17.4-10.489-17.713-10.916a.938.938,0,0,1-.132-.885,1.185,1.185,0,0,1,.7-.676c12.178-4.772,47.2-6.352,70.7-1.394a1.327,1.327,0,0,1,.815.505.936.936,0,0,1,.143.835c-.145.466-3.891,11.437-32.315,14.228a58.56,58.56,0,0,1-22.2-1.7m-14.556-11.008c3.008,3.257,13.842,12.74,36.447,10.521,21.294-2.091,27.768-8.932,29.5-11.561-22.067-4.3-53.3-3.07-65.944,1.041" transform="translate(-21179.42 -10868.65)"/><path class="b" d="M579.766,328.662c-1.571-11.152-6.744-19.109-13.27-20.327a8.966,8.966,0,0,0-7.977,2.547l-17.586-42.253a1.213,1.213,0,0,0-.694-.637,1.536,1.536,0,0,0-1.028-.031c-5.122,1.606-13.872,6.96-10.345,15.734,3.154,7.853,6.485,16.707,7.775,20.168-3.747-.048-11.695.415-13.771,5.029-3.472-.453-8.357-.952-11.825,1.229a8.47,8.47,0,0,0-3.735,5.659c-5.3.138-11.043,2.333-12.46,8.2-1.964,8.106-1.153,20.116-.714,24.9a30.966,30.966,0,0,0,2.549,9.508,26.583,26.583,0,0,1,2.432,12.211c-.3,10.352-3.66,27.3-3.694,27.471a.977.977,0,0,0,.313.91,1.39,1.39,0,0,0,.556.308,1.6,1.6,0,0,0,.5.059l44.82-1.727a1.267,1.267,0,0,0,1.245-.914c.05-.246,4.968-24.3,8.44-29.354a29.26,29.26,0,0,1,5.829-5.894,139.249,139.249,0,0,0,14.632-14.17c5.524-6.078,9-11.57,8.006-18.628m-10.124,17.306a138.426,138.426,0,0,1-14.411,13.959,31.541,31.541,0,0,0-6.242,6.344c-3.343,4.866-7.625,24.705-8.565,29.195L498.3,397.092c.806-4.25,3.221-17.648,3.476-26.436A28.474,28.474,0,0,0,499.2,357.7a29,29,0,0,1-2.419-8.982c-.43-4.7-1.224-16.464.673-24.3,1.508-6.24,8.765-6.5,10.955-6.434a1.269,1.269,0,0,0,1.367-.973,6.764,6.764,0,0,1,2.875-5.133c2.779-1.748,7.195-1.156,10.425-.727l.543.073a1.328,1.328,0,0,0,1.513-.879c1.182-5.14,13.086-4.212,13.2-4.2a1.475,1.475,0,0,0,1.157-.4.945.945,0,0,0,.243-1.018C539.693,304.6,535.4,293,531.383,283c-2.938-7.32,4.441-11.242,7.517-12.519l17.937,43.1a1.289,1.289,0,0,0,1.107.734,1.428,1.428,0,0,0,1.274-.516c1.362-1.827,3.631-3.883,6.706-3.319,4.27.793,9.58,6.888,11.206,18.437.894,6.351-2.2,11.235-7.487,17.049" transform="translate(-21193.863 -10654.067)"/><path class="c" d="M573.338,350.873a138.446,138.446,0,0,1-14.411,13.959,31.545,31.545,0,0,0-6.242,6.344c-3.342,4.866-7.625,24.705-8.565,29.194L501.995,402c.806-4.25,3.221-17.648,3.476-26.436A28.476,28.476,0,0,0,502.9,362.6a29,29,0,0,1-2.419-8.982c-.43-4.7-1.224-16.464.673-24.3,1.508-6.24,8.765-6.5,10.955-6.434a1.269,1.269,0,0,0,1.367-.973,6.763,6.763,0,0,1,2.874-5.133c2.779-1.748,7.195-1.156,10.425-.727l.543.073a1.328,1.328,0,0,0,1.513-.879c1.182-5.14,13.086-4.212,13.2-4.2a1.474,1.474,0,0,0,1.157-.4.945.945,0,0,0,.243-1.018c-.042-.118-4.333-11.726-8.352-21.718-2.938-7.32,4.441-11.242,7.517-12.519l17.937,43.1a1.288,1.288,0,0,0,1.107.734,1.428,1.428,0,0,0,1.274-.516c1.362-1.827,3.631-3.883,6.706-3.319,4.27.793,9.58,6.888,11.206,18.437.894,6.351-2.2,11.235-7.487,17.049" transform="translate(-21197.557 -10658.974)"/><path class="b" d="M603.4,401.519a17.737,17.737,0,0,1-2.475-.935,1.008,1.008,0,0,1-.515-1.495,1.49,1.49,0,0,1,1.8-.427c3.192,1.469,5.822,1.567,7.82.286,4.037-2.59,5.27-10.665,3.635-15.884-1.807-5.776-6.173-8.406-14.6-8.81a1.2,1.2,0,0,1-1.248-1.16,1.262,1.262,0,0,1,1.4-1.034c5.988.283,14.268,1.678,17.016,10.453,1.623,5.186.926,14.642-4.582,18.174-1.671,1.071-4.374,1.961-8.259.832" transform="translate(-21254.545 -10722.184)"/><path class="b" d="M570.913,415.137a9.547,9.547,0,0,1-4.711-3.265.989.989,0,0,1,.347-1.528,1.51,1.51,0,0,1,1.845.288,6.14,6.14,0,0,0,5.143,2.625c2.372-.139,4.9-1.9,6.441-4.5,1.824-3.07,1.367-8.046,1.063-11.34l-.093-1.039c-.423-5.083-5.368-6.029-13.468-6.977-1.207-.141-2.418-.283-3.6-.452a1.121,1.121,0,0,1-1.083-1.269,1.322,1.322,0,0,1,1.531-.9c1.157.165,2.342.3,3.523.442,7.1.832,15.143,1.774,15.744,9l.091,1.022c.325,3.531.817,8.869-1.33,12.477a11.228,11.228,0,0,1-8.633,5.722,8.306,8.306,0,0,1-2.812-.313" transform="translate(-21234.141 -10731.8)"/><path class="b" d="M582.075,488.728a1.089,1.089,0,0,1-.861-1.247c.737-3.136-.7-10.794-6.081-14.246a.98.98,0,0,1-.237-1.543,1.521,1.521,0,0,1,1.863-.2c6.314,4.053,7.929,12.7,7.06,16.405a1.339,1.339,0,0,1-1.556.869,1.662,1.662,0,0,1-.187-.042" transform="translate(-21241.037 -10787.055)"/><path class="b" d="M535.71,432.161c-4.935-1.434-5.6-7.352-6.289-13.563a1.177,1.177,0,0,1,1.2-1.2,1.278,1.278,0,0,1,1.443.993c1.008,9.032,2.083,12.024,6.414,11.892,5.554-.156,6.266-5.092,6.778-13.205l.067-1.04c.4-6.233-2.975-6.675-17.359-7.538l-.737-.044A1.186,1.186,0,0,1,526,407.284a1.269,1.269,0,0,1,1.419-1.016l.737.044c13.573.814,20.381,1.224,19.816,9.847l-.067,1.038c-.466,7.4-.95,15.051-9.337,15.288a9.275,9.275,0,0,1-2.858-.324" transform="translate(-21212.727 -10744.551)"/><path class="d" d="M661.161,757.107l-83.024-24.054s-21.179,35.932-56.542,30.955c-33.5-4.705-46.842-21.616-50.369-57.576-2.9-29.473-.539-97.192-.539-97.192,19.294,5.55,50.714,9.728,69.823-1.318l.475,66.191S556.537,656.4,578.117,634.8c21.594-21.583,27.21-26.216,42.492-26.633,6.282-.16,19.261,1.068,32.353,2.579,18.733,2.148,37.721,4.852,37.721,4.852l-28.01,134.317Z" transform="translate(-21179.996 -10876.698)"/><path class="b" d="M506.5,760.292c-24.2-7.033-35.28-23.685-38.435-55.855-2.873-29.2-.567-96.634-.543-97.313a1.067,1.067,0,0,1,.573-.873,1.563,1.563,0,0,1,1.19-.133c20.508,5.9,50.787,9.13,68.627-1.182a1.523,1.523,0,0,1,1.368-.074,1.093,1.093,0,0,1,.718.968l.45,62.884c5.164-5.755,18.284-20.156,34.81-36.7,21.07-21.063,27.251-26.59,43.47-27.032,5.519-.14,16.479.731,32.578,2.588,18.54,2.128,37.573,4.831,37.763,4.859a1.4,1.4,0,0,1,.859.448.952.952,0,0,1,.223.822L660.63,755.213a1.122,1.122,0,0,1-.636.758,1.569,1.569,0,0,1-1.109.09L576.943,732.32c-3.594,5.526-24.625,35.3-57.41,30.688a93.217,93.217,0,0,1-13.034-2.716M470.124,608.676c-.321,10.108-2.038,68.922.585,95.584,3.553,36.237,17.373,52.1,49.267,56.581,33.965,4.778,54.921-30,55.129-30.355a1.445,1.445,0,0,1,1.63-.554l81.549,23.627,1.242-5.92L687.31,614.411c-4.613-.646-20.67-2.862-36.37-4.663-15.727-1.815-26.837-2.7-32.129-2.568-14.53.4-19.592,4.327-41.511,26.236-21.307,21.331-36.928,39.082-37.082,39.26a1.49,1.49,0,0,1-1.48.4,1.171,1.171,0,0,1-.921-1.039l-.46-64.177c-18.252,9.186-46.108,6.617-67.232.818" transform="translate(-21178.16 -10874.328)"/><path class="e" d="M0,0,12.961.492,16.234,73.32,3.273,72.828Z" transform="translate(-20661.336 -10393.103) rotate(-13)"/><path class="b" d="M604.95,312.14a1.2,1.2,0,0,1-.856-.793l-19.321-70.272a.941.941,0,0,1,.171-.83,1.347,1.347,0,0,1,.828-.486l12.748-2.4a1.352,1.352,0,0,1,1.589.827l19.321,70.272a.942.942,0,0,1-.17.83,1.35,1.35,0,0,1-.829.486l-12.748,2.4a1.581,1.581,0,0,1-.733-.034m-17.294-70.482,18.731,68.129,10.161-1.915-18.73-68.129Z" transform="translate(-21246.926 -10634.083)"/><path class="f" d="M0,0,12.957.492l.3,6.63L.3,6.63Z" transform="translate(-20641.756 -10322.88) rotate(-13)"/><path class="b" d="M633.639,451.3a1.463,1.463,0,0,1-.268-.107,1.128,1.128,0,0,1-.586-.686l-1.758-6.4a1.112,1.112,0,0,1,1-1.316l12.742-2.4a1.352,1.352,0,0,1,1.589.827l1.76,6.4a.941.941,0,0,1-.171.83,1.348,1.348,0,0,1-.828.486l-12.744,2.405a1.586,1.586,0,0,1-.735-.035m.27-6.607,1.168,4.254,10.157-1.917-1.17-4.253Z" transform="translate(-21273.855 -10766.845)"/><path class="b" d="M620.333,313.17a1.2,1.2,0,0,1-.857-.8l-19.219-70.288a1.115,1.115,0,0,1,1-1.315,1.356,1.356,0,0,1,1.587.83l19.219,70.288a1.115,1.115,0,0,1-1,1.315,1.6,1.6,0,0,1-.73-.035" transform="translate(-21255.941 -10636.319)"/><path class="b" d="M585.749,223.633a1.6,1.6,0,0,1-.557-.275,1.033,1.033,0,0,1-.41-1.092l3.746-13.65a1.376,1.376,0,0,1,1.139-.905,1.724,1.724,0,0,1,1.515.442l10.6,11.065a.984.984,0,0,1,.214,1.119,1.431,1.431,0,0,1-1.073.749l-14.343,2.585a1.886,1.886,0,0,1-.828-.037m5.013-12-2.557,9.317L598,219.184Z" transform="translate(-21248.434 -10616.426)"/><path class="b" d="M593.957,210.859l4.354,4.76a9.6,9.6,0,0,1-5.926,1.229Z" transform="translate(-21252.072 -10618.418)"/></g></svg>