<svg xmlns="http://www.w3.org/2000/svg" width="19.513" height="19.13" viewBox="0 0 19.513 19.13"><defs><style>.a{fill:#80d5ec;}.b{font-size:12px;font-family:Helvetica;}</style></defs><g transform="translate(1.606 1.82)"><g transform="translate(0 0)"><path d="M15.7,16.4h-1.93a.772.772,0,0,0,0,1.544h.772a.772.772,0,0,0,1.544,0h0a1.939,1.939,0,0,0-.386-3.859h-.772a.386.386,0,0,1,0-.772h1.93a.772.772,0,0,0,0-1.544h-.772a.772.772,0,1,0-1.544,0v.039a1.93,1.93,0,0,0,.386,3.821H15.7a.386.386,0,0,1,0,.772Z" transform="translate(-6.366 -6.204)"/><path d="M12.953,21.31a8.808,8.808,0,0,0,8.953-8.655A8.808,8.808,0,0,0,12.953,4,8.808,8.808,0,0,0,4,12.655,8.808,8.808,0,0,0,12.953,21.31Zm0-15.868a7.34,7.34,0,0,1,7.461,7.213,7.34,7.34,0,0,1-7.461,7.213,7.34,7.34,0,0,1-7.461-7.213,7.34,7.34,0,0,1,7.461-7.213Z" transform="translate(-4 -4)"/></g></g><g transform="translate(0 0)"><path class="a" d="M8.909,0A8.91,8.91,0,1,1,0,8.91,8.91,8.91,0,0,1,8.909,0Z" transform="translate(0 0.352)"/><path d="M13.262,22.524A9.262,9.262,0,1,0,4,13.262a9.262,9.262,0,0,0,9.262,9.262Zm0-16.98a7.718,7.718,0,1,1-7.718,7.718,7.718,7.718,0,0,1,7.718-7.718Z" transform="translate(-4 -4)"/></g><text class="b" transform="translate(5.332 13.016)"><tspan x="0" y="0">+</tspan></text></svg>