<svg xmlns="http://www.w3.org/2000/svg" width="69.732" height="68.918" viewBox="0 0 69.732 68.918">
  <g id="Layer_2" data-name="Layer 2" transform="translate(0.01 20.228) rotate(-22)">
    <path id="Path_37257" data-name="Path 37257" d="M30.6,9.49l7.06,17.139,13.629,1a2.586,2.586,0,0,1,1.585,4.456L42.593,41.808,47.7,53.664l-2.969,3.4a2.48,2.48,0,0,1-2.842.689q-.1-.044-.193-.1l-12.01-6.474L17.674,57.66a2.586,2.586,0,0,1-3.753-2.829l2.855-13.024L6.491,32.075a2.567,2.567,0,0,1-.5-3.1c.388-.729,3.185-3.909,3.185-3.909l12.533,1.558,5.6-13a4.976,4.976,0,0,1,.695-1.125c.433-.528,2.6-3,2.6-3" transform="translate(-4.183 -6.988)" fill="#ec85c0"/>
    <path id="Path_37258" data-name="Path 37258" d="M43.318,7.211l5.6,13.013,13.629,1a2.586,2.586,0,0,1,1.585,4.458L53.851,35.4,56.7,48.424a2.586,2.586,0,0,1-3.751,2.831L40.94,44.782l-12.01,6.474a2.586,2.586,0,0,1-3.753-2.831L28.043,35.4l-10.3-9.722a2.586,2.586,0,0,1,1.585-4.458l13.629-1L38.569,7.211a2.586,2.586,0,0,1,4.754,0" transform="translate(-12.466 -4.157)" fill="#ffe8f5"/>
    <path id="Path_37259" data-name="Path 37259" d="M53.709,18.186A4.168,4.168,0,0,0,50.1,15.563L37.47,14.641,32.262,2.55A4.16,4.16,0,0,0,28.564,0a4.044,4.044,0,0,0-2.842,1.056h-.016l-.114.132a3.584,3.584,0,0,0-.309.351c-.264.306-2.192,2.5-2.625,3.037a6.339,6.339,0,0,0-.9,1.471L18,14.76l-11.141.8a4.31,4.31,0,0,0-2.377.946H4.413l-.528.594a39.509,39.509,0,0,0-3.4,4.186,4.046,4.046,0,0,0,.792,4.894l9.669,9.144-2.67,12.21a4.046,4.046,0,0,0,.792,3.434,4.141,4.141,0,0,0,3.191,1.54,4.06,4.06,0,0,0,1.939-.494L25.5,45.9,36.8,51.99c.1.053.2.1.3.145a3.8,3.8,0,0,0,1.54.325,4.03,4.03,0,0,0,3.037-1.4l2.953-3.391a3.613,3.613,0,0,0,.264-.3.5.5,0,0,0,.042-.061l.317-.362-.029-.063a4.057,4.057,0,0,0,.467-2.937L43.16,32.385l6.556-6.2a4.181,4.181,0,0,0,.364-.388c.906-1.1,2.969-3.574,2.969-3.574a4.025,4.025,0,0,0,.66-4.036Zm-2.036,3.336L41.387,31.244,44.24,44.268A2.58,2.58,0,0,1,40.489,47.1L36.4,44.9a.75.75,0,1,0-.71,1.321l4.089,2.2a4.023,4.023,0,0,0,1.793.491L40.55,50.083a2.554,2.554,0,0,1-1.91.885,2.3,2.3,0,0,1-.932-.2q-.1-.044-.193-.1L25.5,44.2,13.491,50.672a2.557,2.557,0,0,1-1.228.317,2.594,2.594,0,0,1-2.525-3.146L12.593,34.82,2.308,25.087a2.567,2.567,0,0,1-.5-3.1,14.96,14.96,0,0,1,1.228-1.616A4.052,4.052,0,0,0,4.252,22.6l.713.674a.749.749,0,0,0,1.027-1.091l-.716-.66a2.586,2.586,0,0,1,1.585-4.458l13.629-1L26.1,3.054a2.586,2.586,0,0,1,4.754,0l5.6,13.013,13.629,1a2.586,2.586,0,0,1,1.582,4.458Z" transform="translate(0 0)"/>
    <path id="Path_37260" data-name="Path 37260" d="M113.241,159.025a.753.753,0,0,0,.317.988l1.957,1.056a.75.75,0,1,0,.71-1.321l-1.957-1.057a.75.75,0,0,0-1.027.33" transform="translate(-83.282 -116.717)" fill="#313943"/>
    <path id="Path_37261" data-name="Path 37261" d="M92.128,17.041a.544.544,0,0,1-.2-.04.528.528,0,0,1-.288-.689l.858-2.076a.528.528,0,0,1,.977.4l-.853,2.076a.528.528,0,0,1-.494.328Zm23.636,8.523h-.04l-13.1-1L96.665,10.523a.826.826,0,0,0-1.532.021l-.568,1.384a.528.528,0,1,1-.977-.4l.568-1.384a1.883,1.883,0,0,1,3.478-.021l5.708,13.452,12.456.948a.529.529,0,0,1-.04,1.056Z" transform="translate(-67.412 -6.605)" fill="#fff"/>
  </g>
</svg>
