<svg xmlns="http://www.w3.org/2000/svg" width="33.979" height="73.553" viewBox="0 0 33.979 73.553">
  <g id="Group_39803" data-name="Group 39803" transform="translate(-82.5 -2228)">
    <text id="_3" data-name="3" transform="translate(85.479 2283.553)" font-size="50" font-family="Poppins-BoldItalic, Poppins" font-weight="700" font-style="italic"><tspan x="0" y="0">3</tspan></text>
    <path id="_3_-_Outline" data-name="3 - Outline" d="M19.05-38.35c3.528,0,6.3.837,8.247,2.488a8.3,8.3,0,0,1,3,6.612,11.985,11.985,0,0,1-.164,1.964l0,.014a11.17,11.17,0,0,1-2.864,5.89,12.526,12.526,0,0,1-2.894,2.268,7.729,7.729,0,0,1,2.125,1.94A7.873,7.873,0,0,1,27.95-12.35a11.746,11.746,0,0,1-.218,2.287A13.188,13.188,0,0,1,22.82-1.841,15.568,15.568,0,0,1,12.9,1.3C9.125,1.3,6.087.44,3.868-1.255,1.567-3.014.4-5.687.4-9.2a24.444,24.444,0,0,1,.207-2.467l.1-.883H11.033l-.141,1.124a9.415,9.415,0,0,0-.092.976,2.58,2.58,0,0,0,.689,1.975A3.3,3.3,0,0,0,13.8-7.8a3.7,3.7,0,0,0,2.868-1.131A4.216,4.216,0,0,0,17.75-11.95a1.872,1.872,0,0,0-.889-1.818,7.6,7.6,0,0,0-3.81-.682h-2.8l1.61-8.95H14.3a7.421,7.421,0,0,0,3.9-.848,3.306,3.306,0,0,0,1.52-2.326A4.918,4.918,0,0,0,19.8-27.3a1.8,1.8,0,0,0-.5-1.41,2.491,2.491,0,0,0-1.7-.49,3.139,3.139,0,0,0-2.343.857,5.151,5.151,0,0,0-1.34,2.4l-.2.744H3.412l.26-1.21a14.554,14.554,0,0,1,5.321-8.835A16.162,16.162,0,0,1,19.05-38.35Zm9.115,10.728A9.979,9.979,0,0,0,28.3-29.25,6.3,6.3,0,0,0,26-34.338c-1.573-1.335-3.912-2.012-6.953-2.012a14.217,14.217,0,0,0-8.843,2.695A12.2,12.2,0,0,0,5.934-27.2h6.284a7.036,7.036,0,0,1,1.624-2.557A5.1,5.1,0,0,1,17.6-31.2a4.381,4.381,0,0,1,3.048,1.01A3.725,3.725,0,0,1,21.8-27.3a6.752,6.752,0,0,1-.114,1.064l0,.02a5.277,5.277,0,0,1-2.428,3.664A9.319,9.319,0,0,1,14.3-21.4h-.764l-.89,4.95h.4a9.509,9.509,0,0,1,4.839.968A3.855,3.855,0,0,1,19.75-11.95a6.206,6.206,0,0,1-1.618,4.381A5.666,5.666,0,0,1,13.8-5.8a5.172,5.172,0,0,1-3.689-1.225A4.518,4.518,0,0,1,8.8-10.45c0-.028,0-.061,0-.1H2.5c-.077.756-.1,1.148-.1,1.35,0,2.9.877,4.976,2.682,6.355C6.944-1.422,9.575-.7,12.9-.7a13.626,13.626,0,0,0,8.68-2.709,11.1,11.1,0,0,0,4.186-7.018l0-.018a9.739,9.739,0,0,0,.181-1.9A5.852,5.852,0,0,0,24.9-15.977a6.234,6.234,0,0,0-3.034-2.131l-.665-.236v-1.636l.7-.222a9.542,9.542,0,0,0,3.934-2.566A9.21,9.21,0,0,0,28.165-27.622Z" transform="translate(85.479 2283.553)"/>
    <text id="_3-2" data-name="3" transform="translate(82.5 2281)" fill="#80d5ec" font-size="50" font-family="Poppins-BoldItalic, Poppins" font-weight="700" font-style="italic"><tspan x="0" y="0">3</tspan></text>
    <path id="_3_-_Outline-2" data-name="3 - Outline" d="M19.05-38.35c3.528,0,6.3.837,8.247,2.488a8.3,8.3,0,0,1,3,6.612,11.985,11.985,0,0,1-.164,1.964l0,.014a11.17,11.17,0,0,1-2.864,5.89,12.526,12.526,0,0,1-2.894,2.268,7.729,7.729,0,0,1,2.125,1.94A7.873,7.873,0,0,1,27.95-12.35a11.746,11.746,0,0,1-.218,2.287A13.188,13.188,0,0,1,22.82-1.841,15.568,15.568,0,0,1,12.9,1.3C9.125,1.3,6.087.44,3.868-1.255,1.567-3.014.4-5.687.4-9.2a24.444,24.444,0,0,1,.207-2.467l.1-.883H11.033l-.141,1.124a9.415,9.415,0,0,0-.092.976,2.58,2.58,0,0,0,.689,1.975A3.3,3.3,0,0,0,13.8-7.8a3.7,3.7,0,0,0,2.868-1.131A4.216,4.216,0,0,0,17.75-11.95a1.872,1.872,0,0,0-.889-1.818,7.6,7.6,0,0,0-3.81-.682h-2.8l1.61-8.95H14.3a7.421,7.421,0,0,0,3.9-.848,3.306,3.306,0,0,0,1.52-2.326A4.918,4.918,0,0,0,19.8-27.3a1.8,1.8,0,0,0-.5-1.41,2.491,2.491,0,0,0-1.7-.49,3.139,3.139,0,0,0-2.343.857,5.151,5.151,0,0,0-1.34,2.4l-.2.744H3.412l.26-1.21a14.554,14.554,0,0,1,5.321-8.835A16.162,16.162,0,0,1,19.05-38.35Zm9.115,10.728A9.979,9.979,0,0,0,28.3-29.25,6.3,6.3,0,0,0,26-34.338c-1.573-1.335-3.912-2.012-6.953-2.012a14.217,14.217,0,0,0-8.843,2.695A12.2,12.2,0,0,0,5.934-27.2h6.284a7.036,7.036,0,0,1,1.624-2.557A5.1,5.1,0,0,1,17.6-31.2a4.381,4.381,0,0,1,3.048,1.01A3.725,3.725,0,0,1,21.8-27.3a6.752,6.752,0,0,1-.114,1.064l0,.02a5.277,5.277,0,0,1-2.428,3.664A9.319,9.319,0,0,1,14.3-21.4h-.764l-.89,4.95h.4a9.509,9.509,0,0,1,4.839.968A3.855,3.855,0,0,1,19.75-11.95a6.206,6.206,0,0,1-1.618,4.381A5.666,5.666,0,0,1,13.8-5.8a5.172,5.172,0,0,1-3.689-1.225A4.518,4.518,0,0,1,8.8-10.45c0-.028,0-.061,0-.1H2.5c-.077.756-.1,1.148-.1,1.35,0,2.9.877,4.976,2.682,6.355C6.944-1.422,9.575-.7,12.9-.7a13.626,13.626,0,0,0,8.68-2.709,11.1,11.1,0,0,0,4.186-7.018l0-.018a9.739,9.739,0,0,0,.181-1.9A5.852,5.852,0,0,0,24.9-15.977a6.234,6.234,0,0,0-3.034-2.131l-.665-.236v-1.636l.7-.222a9.542,9.542,0,0,0,3.934-2.566A9.21,9.21,0,0,0,28.165-27.622Z" transform="translate(82.5 2281)"/>
  </g>
</svg>
