<svg xmlns="http://www.w3.org/2000/svg" width="33.467" height="31.394" viewBox="0 0 33.467 31.394"><defs><style>.a{fill:#ec85c0;}</style></defs><g transform="translate(5.089 0)"><path d="M19.075,0l7.84,6.629L18.472,13.1,15.356,23.426,2.892,10.945l4.021-1.22h5.528Z" transform="translate(-0.536 1.63)"/><path d="M30.567,8.777,22.032.4A1.367,1.367,0,0,0,20.1.4,6.284,6.284,0,0,0,18.476,6.25l-3.861,3.79C12.482,9.408,7.029,8.311,3,12.268a1.308,1.308,0,0,0,0,1.895c-.387,1.715,11.119,10.915,13.547,13.3a1.327,1.327,0,0,0,1.9,0c4.03-3.956,2.913-9.342,2.269-11.4l3.861-3.79a6.59,6.59,0,0,0,5.961-1.6,1.281,1.281,0,0,0,.034-1.895Zm-5.724.731a1.367,1.367,0,0,0-1.524.266l-5.08,4.987a1.329,1.329,0,0,0-.3,1.43,11.675,11.675,0,0,1,.711,3.424,7.829,7.829,0,0,1-1.219,4.92L11.669,18.95,5.912,13.3c3.624-2.394,8.3-.6,8.5-.5a1.383,1.383,0,0,0,1.49-.3l5.08-4.987a1.306,1.306,0,0,0,.271-1.5,3,3,0,0,1,0-2.593l6.232,6.117a3.307,3.307,0,0,1-2.642-.033Zm-8.027,7.214a5.4,5.4,0,0,1,.44,2.094,1.161,1.161,0,0,1-1.185,1.13h-.034a1.187,1.187,0,0,1-1.151-1.2,3.363,3.363,0,0,0-.237-1.1,1.136,1.136,0,0,1,.61-1.529,1.191,1.191,0,0,1,1.558.6Z" transform="translate(-2.593 0)"/></g><g transform="translate(-0.001 0)"><path class="a" d="M22.108.012l7.2,7.417-9.286,7.257L16.6,26.254,2.892,12.266,7.314,10.9l7.651-.45Z" transform="translate(0.745 1.63)"/><path d="M31.61,9.009,22.837.409a1.407,1.407,0,0,0-1.984,0,6.444,6.444,0,0,0-1.671,6.006l-3.969,3.89c-2.193-.648-7.8-1.774-11.941,2.286a1.341,1.341,0,0,0,0,1.945L9.26,20.406.418,29.073a1.341,1.341,0,0,0,0,1.945,1.513,1.513,0,0,0,.975.375,1.388,1.388,0,0,0,.975-.409l8.842-8.667L17.2,28.186a1.365,1.365,0,0,0,1.949,0c4.143-4.061,2.994-9.589,2.332-11.7l3.969-3.89a6.781,6.781,0,0,0,6.127-1.638,1.314,1.314,0,0,0,.035-1.945Zm-5.883.751a1.407,1.407,0,0,0-1.567.273l-5.222,5.119a1.363,1.363,0,0,0-.313,1.467,11.969,11.969,0,0,1,.731,3.515,8.027,8.027,0,0,1-1.253,5.05L12.184,19.45l-5.918-5.8c3.725-2.457,8.529-.614,8.738-.512a1.423,1.423,0,0,0,1.532-.307l5.222-5.119a1.339,1.339,0,0,0,.278-1.536,3.079,3.079,0,0,1,0-2.662l6.405,6.279a3.4,3.4,0,0,1-2.715-.034Zm-8.251,7.4a5.533,5.533,0,0,1,.453,2.15,1.193,1.193,0,0,1-1.218,1.16h-.035a1.219,1.219,0,0,1-1.184-1.228,3.448,3.448,0,0,0-.244-1.126,1.166,1.166,0,0,1,.627-1.57,1.225,1.225,0,0,1,1.6.614Z" transform="translate(0)"/></g></svg>