<svg xmlns="http://www.w3.org/2000/svg" width="34.317" height="73.553" viewBox="0 0 34.317 73.553">
  <g id="Group_39802" data-name="Group 39802" transform="translate(-80.812 -2228)">
    <text id="_2" data-name="2" transform="translate(85.479 2283.553)" font-size="50" font-family="Poppins-BoldItalic, Poppins" font-weight="700" font-style="italic"><tspan x="0" y="0">2</tspan></text>
    <path id="_2_-_Outline" data-name="2 - Outline" d="M25.436.5H-1.688L-.315-7.424,1.967-9.062c3.606-2.58,6.521-4.741,8.666-6.424a42.124,42.124,0,0,0,5.495-5.1,9.625,9.625,0,0,0,2.536-4.622l.009-.048a5.265,5.265,0,0,0,.128-1.09,1.975,1.975,0,0,0-.47-1.481A2.313,2.313,0,0,0,16.7-28.3a3.06,3.06,0,0,0-2.406,1.031,7.525,7.525,0,0,0-1.512,3.608l-.156.811H2.273l.248-1.2c.912-4.422,2.862-7.808,5.794-10.065A16.155,16.155,0,0,1,18.4-37.5c3.711,0,6.54.881,8.406,2.618A9.068,9.068,0,0,1,29.65-27.95a12.3,12.3,0,0,1-.217,2.385,18.92,18.92,0,0,1-5.549,10.02A70.551,70.551,0,0,1,15.5-8.45H27.046ZM.688-1.5H23.764l.89-4.95H9.11l2.677-1.826a73.62,73.62,0,0,0,10.679-8.679,16.965,16.965,0,0,0,5-8.969l0-.022a10.3,10.3,0,0,0,.181-2,7.054,7.054,0,0,0-2.206-5.468C23.959-34.8,21.589-35.5,18.4-35.5a14.2,14.2,0,0,0-8.865,2.967A13.857,13.857,0,0,0,4.763-24.85H11a8.688,8.688,0,0,1,1.81-3.756A5.023,5.023,0,0,1,16.7-30.3a4.184,4.184,0,0,1,3.02,1.031A3.889,3.889,0,0,1,20.8-26.35a7.232,7.232,0,0,1-.167,1.486,11.564,11.564,0,0,1-3.01,5.6,44.121,44.121,0,0,1-5.756,5.348c-2.168,1.7-5.107,3.88-8.735,6.476L1.516-6.276Z" transform="translate(85.479 2283.553)"/>
    <text id="_2-2" data-name="2" transform="translate(82.5 2281)" fill="#80d5ec" font-size="50" font-family="Poppins-BoldItalic, Poppins" font-weight="700" font-style="italic"><tspan x="0" y="0">2</tspan></text>
    <path id="_2_-_Outline-2" data-name="2 - Outline" d="M25.436.5H-1.688L-.315-7.424,1.967-9.062c3.606-2.58,6.521-4.741,8.666-6.424a42.124,42.124,0,0,0,5.495-5.1,9.625,9.625,0,0,0,2.536-4.622l.009-.048a5.265,5.265,0,0,0,.128-1.09,1.975,1.975,0,0,0-.47-1.481A2.313,2.313,0,0,0,16.7-28.3a3.06,3.06,0,0,0-2.406,1.031,7.525,7.525,0,0,0-1.512,3.608l-.156.811H2.273l.248-1.2c.912-4.422,2.862-7.808,5.794-10.065A16.155,16.155,0,0,1,18.4-37.5c3.711,0,6.54.881,8.406,2.618A9.068,9.068,0,0,1,29.65-27.95a12.3,12.3,0,0,1-.217,2.385,18.92,18.92,0,0,1-5.549,10.02A70.551,70.551,0,0,1,15.5-8.45H27.046ZM.688-1.5H23.764l.89-4.95H9.11l2.677-1.826a73.62,73.62,0,0,0,10.679-8.679,16.965,16.965,0,0,0,5-8.969l0-.022a10.3,10.3,0,0,0,.181-2,7.054,7.054,0,0,0-2.206-5.468C23.959-34.8,21.589-35.5,18.4-35.5a14.2,14.2,0,0,0-8.865,2.967A13.857,13.857,0,0,0,4.763-24.85H11a8.688,8.688,0,0,1,1.81-3.756A5.023,5.023,0,0,1,16.7-30.3a4.184,4.184,0,0,1,3.02,1.031A3.889,3.889,0,0,1,20.8-26.35a7.232,7.232,0,0,1-.167,1.486,11.564,11.564,0,0,1-3.01,5.6,44.121,44.121,0,0,1-5.756,5.348c-2.168,1.7-5.107,3.88-8.735,6.476L1.516-6.276Z" transform="translate(82.5 2281)"/>
  </g>
</svg>
