<svg id="Group_37360" data-name="Group 37360" xmlns="http://www.w3.org/2000/svg" width="22.786" height="24.049" viewBox="0 0 22.786 24.049">
  <g id="Group_35947" data-name="Group 35947">
    <path id="Path_37188" data-name="Path 37188" d="M2568.327-4142.628l9.842-9.759" transform="translate(-2559.416 4163.043)" fill="none" stroke="#80d5ec" stroke-linecap="round" stroke-width="4"/>
    <path id="Path_37189" data-name="Path 37189" d="M2549.667-4155.829l1.179-3.112,11.661-11.318,4.354,1.1,1.432,2.618-1.179,2.915-8.619,9.044v5.7l-5.875-1.058-2.953-4.645Z" transform="translate(-2548.378 4171.771)" fill="#80d5ec"/>
    <g id="Layer_2" data-name="Layer 2">
      <path id="attach" d="M10.964,26.048a7.885,7.885,0,0,1-5.607-2.379,7.594,7.594,0,0,1-.278-10.745l9.315-9.4A5.2,5.2,0,0,1,18.191,2a5.67,5.67,0,0,1,4.037,1.709,5.518,5.518,0,0,1,.19,7.758l-9.366,9.4a3.215,3.215,0,0,1-2.291.949,3.443,3.443,0,0,1-2.468-1.038,3.392,3.392,0,0,1-.1-4.771l4.516-4.536,4.129-4.147a1.266,1.266,0,0,1,1.734,1.785l-3.52,3.535L9.926,17.8a.861.861,0,0,0,.1,1.2.987.987,0,0,0,.671.291.709.709,0,0,0,.506-.2l9.353-9.4a2.987,2.987,0,0,0-.19-4.189,3.012,3.012,0,0,0-4.139-.19L6.876,14.657a5.063,5.063,0,0,0,.278,7.176,5.341,5.341,0,0,0,3.8,1.633,4.645,4.645,0,0,0,3.3-1.342l9.353-9.4a1.266,1.266,0,1,1,1.8,1.785l-9.353,9.4A7.151,7.151,0,0,1,10.964,26.048Z" transform="translate(-2.987 -1.999)"/>
    </g>
  </g>
</svg>
