<svg xmlns="http://www.w3.org/2000/svg" width="72.982" height="72.13" viewBox="0 0 72.982 72.13">
  <g id="Layer_2" data-name="Layer 2" transform="translate(0.01 21.17) rotate(-22)">
    <path id="Path_37257" data-name="Path 37257" d="M31.767,9.49l7.389,17.938L53.42,28.472a2.706,2.706,0,0,1,1.659,4.663L44.314,43.314l5.343,12.409-3.107,3.56A2.6,2.6,0,0,1,43.576,60q-.1-.046-.2-.1L30.8,53.13,18.233,59.905A2.706,2.706,0,0,1,14.3,56.945l2.988-13.631L6.529,33.128A2.687,2.687,0,0,1,6,29.88c.406-.763,3.334-4.091,3.334-4.091l13.117,1.631L28.32,13.811a5.208,5.208,0,0,1,.727-1.178c.453-.553,2.72-3.143,2.72-3.143" transform="translate(-4.113 -6.871)" fill="#f7d854"/>
    <path id="Path_37258" data-name="Path 37258" d="M44.547,7.284,50.413,20.9l14.264,1.042a2.706,2.706,0,0,1,1.659,4.666L55.571,36.787l2.985,13.631a2.706,2.706,0,0,1-3.925,2.963L42.059,46.606,29.49,53.382a2.706,2.706,0,0,1-3.928-2.963l3-13.631L17.78,26.612a2.706,2.706,0,0,1,1.659-4.666L33.7,20.9l5.874-13.62a2.706,2.706,0,0,1,4.976,0" transform="translate(-12.257 -4.087)" fill="#fbf2cd"/>
    <path id="Path_37259" data-name="Path 37259" d="M56.212,19.033a4.362,4.362,0,0,0-3.779-2.745l-13.216-.965L33.766,2.669A4.354,4.354,0,0,0,29.9,0,4.232,4.232,0,0,0,26.921,1.1H26.9l-.119.138a3.751,3.751,0,0,0-.323.368c-.276.321-2.294,2.612-2.748,3.179a6.634,6.634,0,0,0-.945,1.54l-3.928,9.122-11.66.84a4.511,4.511,0,0,0-2.488.99H4.619l-.553.622A41.35,41.35,0,0,0,.509,22.281,4.235,4.235,0,0,0,1.338,27.4l10.12,9.57L8.663,49.753a4.235,4.235,0,0,0,.829,3.594,4.334,4.334,0,0,0,3.339,1.612,4.249,4.249,0,0,0,2.029-.517l11.831-6.4L38.52,54.414c.1.055.2.105.31.152a3.975,3.975,0,0,0,1.612.34,4.218,4.218,0,0,0,3.179-1.465l3.09-3.549a3.782,3.782,0,0,0,.276-.312.52.52,0,0,0,.044-.064l.332-.379-.03-.066A4.246,4.246,0,0,0,47.822,46l-2.651-12.1L52.032,27.4A4.376,4.376,0,0,0,52.414,27c.948-1.153,3.107-3.74,3.107-3.74a4.213,4.213,0,0,0,.691-4.224Zm-2.131,3.491L43.317,32.7,46.3,46.331a2.7,2.7,0,0,1-3.925,2.963L38.1,46.989a.785.785,0,0,0-.744,1.382l4.279,2.305a4.21,4.21,0,0,0,1.877.514l-1.07,1.227a2.673,2.673,0,0,1-2,.926,2.4,2.4,0,0,1-.976-.2q-.1-.046-.2-.1L26.692,46.259,14.12,53.034a2.676,2.676,0,0,1-1.285.332,2.715,2.715,0,0,1-2.643-3.292L13.18,36.443,2.416,26.256a2.687,2.687,0,0,1-.525-3.248,15.657,15.657,0,0,1,1.285-1.692A4.24,4.24,0,0,0,4.45,23.652l.746.7a.784.784,0,0,0,1.075-1.142l-.749-.691a2.706,2.706,0,0,1,1.659-4.666l14.264-1.042L27.32,3.2a2.706,2.706,0,0,1,4.976,0l5.866,13.62,14.264,1.042a2.706,2.706,0,0,1,1.656,4.666Z" transform="translate(0 0)"/>
    <path id="Path_37260" data-name="Path 37260" d="M113.245,159.045a.788.788,0,0,0,.332,1.034l2.048,1.106a.785.785,0,0,0,.744-1.382L114.32,158.7a.785.785,0,0,0-1.075.346" transform="translate(-81.889 -114.765)" fill="#313943"/>
    <path id="Path_37261" data-name="Path 37261" d="M92.152,17.418a.57.57,0,0,1-.21-.041.553.553,0,0,1-.3-.721l.9-2.173a.553.553,0,0,1,1.023.42l-.893,2.173a.553.553,0,0,1-.517.343Zm24.738,8.92h-.041l-13.708-1.05L96.9,10.6a.864.864,0,0,0-1.6.022L94.7,12.066a.553.553,0,1,1-1.023-.42l.594-1.448a1.97,1.97,0,0,1,3.641-.022l5.974,14.079,13.036.992a.553.553,0,0,1-.041,1.106Z" transform="translate(-66.284 -6.495)" fill="#fff"/>
  </g>
</svg>
