<svg xmlns="http://www.w3.org/2000/svg" width="32.849" height="39.542" viewBox="0 0 32.849 39.542">
  <g id="Group_37557" data-name="Group 37557" transform="translate(0.516)">
    <g id="Group_37519" data-name="Group 37519" transform="translate(0.789 0.854)">
      <path id="Path_39111" data-name="Path 39111" d="M14.747,5.189l3.634.745.491,3.511,2.946.745,5.205,5.533.589,13.513L31.07,37.11H20.64l-1.178,3.83L15.631,42l-2.357-2.022-1.375-3.3-10.41.426,3.634-7.129V17.426l3.143-4.894,5.7-3.086Z" transform="translate(-0.579 -4.208)"/>
      <g id="notifications">
        <path id="Path_39109" data-name="Path 39109" d="M200.118,196.167H170.1a.771.771,0,0,1-.675-.383.686.686,0,0,1,.043-.742l1.935-2.695a9.567,9.567,0,0,0,1.823-5.606V178.45a10.635,10.635,0,0,1,.954-4.4,11.373,11.373,0,0,1,2.59-3.611,12.107,12.107,0,0,1,8.339-3.285h.022c6.554.012,11.859,5.028,11.859,11.21v8.383a9.567,9.567,0,0,0,1.823,5.606l1.935,2.695a.686.686,0,0,1,.043.742.771.771,0,0,1-.675.383Zm-28.577-1.44h27.14l-1.129-1.571a10.945,10.945,0,0,1-2.085-6.413V178.36c0-5.377-4.637-9.759-10.336-9.769h-.021a10.542,10.542,0,0,0-7.261,2.863,9.559,9.559,0,0,0-3.1,7v8.293a10.945,10.945,0,0,1-2.085,6.413Z" transform="translate(-169.339 -162.853)"/>
        <path id="Path_39110" data-name="Path 39110" d="M408.692,89.536a.765.765,0,0,1-.681-.41.728.728,0,0,1,.069-.778,1.768,1.768,0,0,0-.244-2.406,1.882,1.882,0,0,0-2.48,0,1.768,1.768,0,0,0-.244,2.406.732.732,0,0,1-.157,1.041.776.776,0,0,1-1.068-.153,3.229,3.229,0,0,1,.443-4.4,3.438,3.438,0,0,1,4.531,0,3.229,3.229,0,0,1,.443,4.4A.767.767,0,0,1,408.692,89.536Zm-2.1,33.14a4.722,4.722,0,0,1-3.723-1.8,4.471,4.471,0,0,1-.787-3.977.766.766,0,0,1,.939-.519.742.742,0,0,1,.532.915,3.033,3.033,0,0,0,1.224,3.33,3.218,3.218,0,0,0,3.628,0,3.033,3.033,0,0,0,1.224-3.33.742.742,0,0,1,.532-.915.766.766,0,0,1,.939.519,4.471,4.471,0,0,1-.787,3.977A4.722,4.722,0,0,1,406.6,122.676Z" transform="translate(-390.825 -83.988)"/>
      </g>
    </g>
    <g id="Group_37520" data-name="Group 37520">
      <path id="Path_39111-2" data-name="Path 39111" d="M14.747,5.189l3.634.745.491,3.511,2.946.745,5.205,5.533.589,13.513L31.07,37.11H20.64l-1.178,3.83L15.631,42l-2.357-2.022-1.375-3.3-10.41.426,3.634-7.129V17.426l3.143-4.894,5.7-3.086Z" transform="translate(-0.579 -4.208)" fill="#f7d854"/>
      <g id="notifications-2" data-name="notifications">
        <path id="Path_39109-2" data-name="Path 39109" d="M200.118,196.167H170.1a.771.771,0,0,1-.675-.383.686.686,0,0,1,.043-.742l1.935-2.695a9.567,9.567,0,0,0,1.823-5.606V178.45a10.635,10.635,0,0,1,.954-4.4,11.373,11.373,0,0,1,2.59-3.611,12.107,12.107,0,0,1,8.339-3.285h.022c6.554.012,11.859,5.028,11.859,11.21v8.383a9.567,9.567,0,0,0,1.823,5.606l1.935,2.695a.686.686,0,0,1,.043.742.771.771,0,0,1-.675.383Zm-28.577-1.44h27.14l-1.129-1.571a10.945,10.945,0,0,1-2.085-6.413V178.36c0-5.377-4.637-9.759-10.336-9.769h-.021a10.542,10.542,0,0,0-7.261,2.863,9.559,9.559,0,0,0-3.1,7v8.293a10.945,10.945,0,0,1-2.085,6.413Z" transform="translate(-169.339 -162.853)" stroke="#030303" stroke-width="1"/>
        <path id="Path_39110-2" data-name="Path 39110" d="M408.692,89.536a.765.765,0,0,1-.681-.41.728.728,0,0,1,.069-.778,1.768,1.768,0,0,0-.244-2.406,1.882,1.882,0,0,0-2.48,0,1.768,1.768,0,0,0-.244,2.406.732.732,0,0,1-.157,1.041.776.776,0,0,1-1.068-.153,3.229,3.229,0,0,1,.443-4.4,3.438,3.438,0,0,1,4.531,0,3.229,3.229,0,0,1,.443,4.4A.767.767,0,0,1,408.692,89.536Zm-2.1,33.14a4.722,4.722,0,0,1-3.723-1.8,4.471,4.471,0,0,1-.787-3.977.766.766,0,0,1,.939-.519.742.742,0,0,1,.532.915,3.033,3.033,0,0,0,1.224,3.33,3.218,3.218,0,0,0,3.628,0,3.033,3.033,0,0,0,1.224-3.33.742.742,0,0,1,.532-.915.766.766,0,0,1,.939.519,4.471,4.471,0,0,1-.787,3.977A4.722,4.722,0,0,1,406.6,122.676Z" transform="translate(-390.825 -83.988)"/>
      </g>
    </g>
    <g id="Group_37521" data-name="Group 37521" transform="translate(19.451 2.491)">
      <g id="Ellipse_378" data-name="Ellipse 378" transform="translate(0.789 0.854)" stroke="#000" stroke-width="2">
        <ellipse cx="3.549" cy="3.845" rx="3.549" ry="3.845" stroke="none"/>
        <ellipse cx="3.549" cy="3.845" rx="2.549" ry="2.845" fill="none"/>
      </g>
      <g id="Ellipse_379" data-name="Ellipse 379" fill="#ec85c0" stroke="#000" stroke-width="2">
        <ellipse cx="3.549" cy="3.845" rx="3.549" ry="3.845" stroke="none"/>
        <ellipse cx="3.549" cy="3.845" rx="2.549" ry="2.845" fill="none"/>
      </g>
    </g>
  </g>
</svg>
