<svg xmlns="http://www.w3.org/2000/svg" width="384.314" height="703.674" viewBox="0 0 384.314 703.674">
  <g id="Group_37586" data-name="Group 37586" transform="translate(-59.416 -171.799)">
    <path id="Path_38496" data-name="Path 38496" d="M-7164.407,960.528s121.856-43.28,93.985-98.3c-5.4-10.593-30.505-15.4-52.279-15.054-36.233.582-84.631,9.115-110.149,4.642-40.5-7.1-61.947-33.008-49.739-81.842s47.478-67.373,86.816-82.747,159.3-25.919,159.3-25.919" transform="translate(7403.448 -438.355)" fill="none" stroke="#000" stroke-width="3" stroke-dasharray="20"/>
    <g id="Group_37307" data-name="Group 37307" transform="translate(-97.497 -118.472)">
      <g id="developer-working-on-project" transform="translate(157.441 606)">
        <path id="Path_38491" data-name="Path 38491" d="M0,0H97.982V141.417H0Z" transform="translate(284.804 0)" fill="#fea300" stroke="#000" stroke-width="2"/>
        <rect id="Rectangle_2499" data-name="Rectangle 2499" width="5.263" height="3.003" transform="translate(293.212 9.892)" fill="#fff"/>
        <rect id="Rectangle_2500" data-name="Rectangle 2500" width="69.87" height="3.003" transform="translate(305.711 9.892)" fill="#fff"/>
        <rect id="Rectangle_2501" data-name="Rectangle 2501" width="5.263" height="3.003" transform="translate(293.212 19.018)" fill="#fff"/>
        <rect id="Rectangle_2502" data-name="Rectangle 2502" width="7.552" height="3.003" transform="translate(305.711 19.018)" fill="#fff"/>
        <rect id="Rectangle_2503" data-name="Rectangle 2503" width="17.471" height="3.003" transform="translate(326.052 19.018)" fill="#fff"/>
        <rect id="Rectangle_2504" data-name="Rectangle 2504" width="25.757" height="3.003" transform="translate(349.827 19.018)" fill="#fff"/>
        <rect id="Rectangle_2505" data-name="Rectangle 2505" width="5.263" height="3.003" transform="translate(293.212 28.143)" fill="#fff"/>
        <rect id="Rectangle_2506" data-name="Rectangle 2506" width="30.425" height="3.003" transform="translate(305.711 28.143)" fill="#fff"/>
        <rect id="Rectangle_2507" data-name="Rectangle 2507" width="31.879" height="3.003" transform="translate(343.702 28.143)" fill="#fff"/>
        <rect id="Rectangle_2508" data-name="Rectangle 2508" width="5.263" height="3.003" transform="translate(293.212 37.268)" fill="#fff"/>
        <rect id="Rectangle_2509" data-name="Rectangle 2509" width="12.429" height="3.003" transform="translate(363.155 37.268)" fill="#fff"/>
        <rect id="Rectangle_2510" data-name="Rectangle 2510" width="30.425" height="3.003" transform="translate(305.711 37.268)" fill="#fff"/>
        <rect id="Rectangle_2511" data-name="Rectangle 2511" width="5.263" height="3.003" transform="translate(293.212 46.394)" fill="#fff"/>
        <rect id="Rectangle_2512" data-name="Rectangle 2512" width="47.01" height="3.003" transform="translate(328.573 46.394)" fill="#fff"/>
        <rect id="Rectangle_2513" data-name="Rectangle 2513" width="12.415" height="3.003" transform="translate(305.711 46.394)" fill="#fff"/>
        <rect id="Rectangle_2514" data-name="Rectangle 2514" width="5.263" height="3.003" transform="translate(293.212 55.519)" fill="#fff"/>
        <rect id="Rectangle_2515" data-name="Rectangle 2515" width="27.005" height="3.003" transform="translate(305.711 55.519)" fill="#fff"/>
        <rect id="Rectangle_2516" data-name="Rectangle 2516" width="38.004" height="3.003" transform="translate(337.579 55.519)" fill="#fff"/>
        <rect id="Rectangle_2517" data-name="Rectangle 2517" width="5.263" height="3.003" transform="translate(293.212 64.645)" fill="#fff"/>
        <rect id="Rectangle_2518" data-name="Rectangle 2518" width="51.153" height="3.003" transform="translate(324.43 64.645)" fill="#fff"/>
        <rect id="Rectangle_2519" data-name="Rectangle 2519" width="5.263" height="3.003" transform="translate(293.212 73.772)" fill="#fff"/>
        <rect id="Rectangle_2520" data-name="Rectangle 2520" width="17.999" height="3.003" transform="translate(305.711 73.772)" fill="#fff"/>
        <rect id="Rectangle_2521" data-name="Rectangle 2521" width="15.489" height="3.003" transform="translate(330.374 73.772)" fill="#fff"/>
        <rect id="Rectangle_2522" data-name="Rectangle 2522" width="16.209" height="3.003" transform="translate(359.372 73.772)" fill="#fff"/>
        <rect id="Rectangle_2523" data-name="Rectangle 2523" width="5.263" height="3.003" transform="translate(293.212 82.898)" fill="#fff"/>
        <rect id="Rectangle_2524" data-name="Rectangle 2524" width="55.475" height="3.003" transform="translate(320.108 82.898)" fill="#fff"/>
        <rect id="Rectangle_2525" data-name="Rectangle 2525" width="5.263" height="3.003" transform="translate(293.212 92.023)" fill="#fff"/>
        <rect id="Rectangle_2526" data-name="Rectangle 2526" width="33.68" height="3.003" transform="translate(341.901 92.023)" fill="#fff"/>
        <rect id="Rectangle_2527" data-name="Rectangle 2527" width="5.263" height="3.003" transform="translate(293.212 101.148)" fill="#fff"/>
        <rect id="Rectangle_2528" data-name="Rectangle 2528" width="69.87" height="3.003" transform="translate(305.711 101.148)" fill="#fff"/>
        <rect id="Rectangle_2529" data-name="Rectangle 2529" width="5.263" height="3.003" transform="translate(293.212 110.274)" fill="#fff"/>
        <rect id="Rectangle_2530" data-name="Rectangle 2530" width="8.091" height="3.003" transform="translate(305.711 110.274)" fill="#fff"/>
        <rect id="Rectangle_2531" data-name="Rectangle 2531" width="46.109" height="3.003" transform="translate(329.473 110.274)" fill="#fff"/>
        <rect id="Rectangle_2532" data-name="Rectangle 2532" width="5.263" height="3.003" transform="translate(293.212 119.399)" fill="#fff"/>
        <rect id="Rectangle_2533" data-name="Rectangle 2533" width="37.271" height="3.003" transform="translate(305.711 119.399)" fill="#fff"/>
        <rect id="Rectangle_2534" data-name="Rectangle 2534" width="15.67" height="3.003" transform="translate(359.913 119.399)" fill="#fff"/>
        <rect id="Rectangle_2535" data-name="Rectangle 2535" width="5.263" height="3.003" transform="translate(293.212 128.525)" fill="#fff"/>
        <rect id="Rectangle_2536" data-name="Rectangle 2536" width="13.315" height="3.003" transform="translate(305.711 128.525)" fill="#fff"/>
        <rect id="Rectangle_2537" data-name="Rectangle 2537" width="20.533" height="3.003" transform="translate(329.294 128.525)" fill="#fff"/>
        <g id="Group_37240" data-name="Group 37240" transform="translate(0 43.192)">
          <path id="Path_38318" data-name="Path 38318" d="M1116.284,1894.226l-2.6-18.246-23.746,2.249,5.51,28.87Z" transform="translate(-904.353 -1586.886)" fill="#fff" stroke="#000" stroke-width="2"/>
          <path id="Path_38319" data-name="Path 38319" d="M1151.88,1943.444l.4,2.833a4.171,4.171,0,0,1-3.544,4.715l-45.1,6.423a4.165,4.165,0,0,1-4.616-3.045l-.877-3.272-5.184-19.3a2.2,2.2,0,0,1,1.819-2.753l16.744-2.384-.5-4.651a6.368,6.368,0,0,1,5.212-7.179,6.183,6.183,0,0,1,7.013,5.25s-.38,4.465.711,6.131c2.349,3.593,14.14,1.149,20.788,4.673C1150.809,1934.091,1151.88,1943.444,1151.88,1943.444Z" transform="translate(-906.648 -1617.101)" fill="#c16cf9" stroke="#000" stroke-width="2"/>
          <path id="Path_38321" data-name="Path 38321" d="M1170.414,1987.5l.4,2.833a4.169,4.169,0,0,1-3.542,4.718l-45.1,6.423a4.171,4.171,0,0,1-4.616-3.047l-.877-3.274Z" transform="translate(-925.185 -1661.161)"/>
          <g id="Group_37214" data-name="Group 37214" transform="translate(97.565 290.309)">
            <path id="Path_38322" data-name="Path 38322" d="M730.13,1903.118l1.677-18.352-23.625-3.286-1.293,29.363Z" transform="translate(-703.504 -1881.48)" fill="#fff" stroke="#000" stroke-width="2"/>
            <path id="Path_38323" data-name="Path 38323" d="M746.215,1970.6l-.261,2.848c-.21,2.291-1.813,1.793-4.109,1.583l-45.794-1.958a4.166,4.166,0,0,1-3.789-4.028l-.1-3.387-.6-19.977a2.205,2.205,0,0,1,2.406-2.26l16.843,1.54.583-4.64a6.368,6.368,0,0,1,6.726-5.784,6.183,6.183,0,0,1,5.614,6.726s-1.4,4.258-.72,6.131c1.458,4.037,14.564,3.032,20.225,7.994C748.4,1959.91,746.215,1970.6,746.215,1970.6Z" transform="translate(-691.566 -1922.796)" fill="#c16cf9" stroke="#000" stroke-width="2"/>
            <path id="Path_38325" data-name="Path 38325" d="M748.312,2020.413l-.261,2.848a4.169,4.169,0,0,1-4.534,3.774l-45.369-4.147a4.172,4.172,0,0,1-3.789-4.028l-.1-3.387Z" transform="translate(-693.665 -1972.61)"/>
          </g>
          <g id="Group_37239" data-name="Group 37239" transform="translate(0 0)">
            <path id="Path_38326" data-name="Path 38326" d="M807.432,1305.967H506.538a1.058,1.058,0,0,1,0-2.117H807.432a1.058,1.058,0,1,1,0,2.117Z" transform="translate(-449.032 -1141.17)"/>
            <path id="Path_38327" data-name="Path 38327" d="M747.243,1483.328l-9.28-178.409c-.031-.583.264.031.849,0s1.234-.694,1.265-.11l8.849,170.769c.031.583.583,8.036,0,8.067l-.37-.317Zm-303.628.072c-.077,0-.606.018-.686,0-.57-.128-.384.57-.256,0l27.153-122.988a1.058,1.058,0,1,1,2.064.464L444.5,1483.871C444.388,1484.364,444.1,1483.4,443.615,1483.4Z" transform="translate(-400.287 -1141.126)" stroke="#000" stroke-width="1"/>
            <path id="Path_38328" data-name="Path 38328" d="M1339.177,1179.031H1280.81l1.586-5.325a4.7,4.7,0,0,1,4.105-2.519h5.579l6.611-27.6.219-.91h22.164l2.828,11.788,4.006,16.719h5.566a4.719,4.719,0,0,1,4.112,2.512Z" transform="translate(-1053.049 -1015.611)" fill="#fff"/>
            <path id="Path_38329" data-name="Path 38329" d="M1361.74,1143.59l.219-.91h22.166Z" transform="translate(-1116.098 -1015.612)"/>
            <path id="Path_38330" data-name="Path 38330" d="M1337.321,1177.692h-58.367a.529.529,0,0,1-.508-.678l1.582-5.325a.564.564,0,0,1,.042-.1,5.258,5.258,0,0,1,4.574-2.8h5.159l6.735-28.1a.529.529,0,0,1,.515-.407h22.166a.529.529,0,0,1,.515.407l6.735,28.1h5.153a5.265,5.265,0,0,1,4.574,2.788.61.61,0,0,1,.044.1l1.589,5.332a.53.53,0,0,1-.506.68Zm-57.658-1.058h56.949l-1.37-4.6a4.2,4.2,0,0,0-3.619-2.192h-5.57a.529.529,0,0,1-.515-.406l-6.735-28.1h-21.331l-6.735,28.1a.529.529,0,0,1-.515.406h-5.577a4.2,4.2,0,0,0-3.619,2.2Z" transform="translate(-1051.191 -1013.742)" stroke="#000" stroke-width="1"/>
            <path id="Path_38331" data-name="Path 38331" d="M1202.525,719.457V795.91a11.111,11.111,0,0,1-11.107,11.114h-139.97a11.111,11.111,0,0,1-11.107-11.114V719.457a11.11,11.11,0,0,1,11.107-11.107h139.97A11.108,11.108,0,0,1,1202.525,719.457Z" transform="translate(-865.712 -677.249)" fill="#fff"/>
            <path id="Path_38332" data-name="Path 38332" d="M1040.33,1093.89v2.373a11.111,11.111,0,0,0,11.107,11.114h139.97a11.111,11.111,0,0,0,11.107-11.114v-2.373Z" transform="translate(-865.704 -977.602)"/>
            <path id="Path_38333" data-name="Path 38333" d="M1189.538,805.684h-139.97a11.654,11.654,0,0,1-11.638-11.644V717.588a11.652,11.652,0,0,1,11.638-11.638h139.97a11.651,11.651,0,0,1,11.638,11.638V794.04A11.654,11.654,0,0,1,1189.538,805.684ZM1049.57,707.008a10.592,10.592,0,0,0-10.579,10.579V794.04a10.594,10.594,0,0,0,10.579,10.586h139.97a10.6,10.6,0,0,0,10.579-10.586V717.588a10.592,10.592,0,0,0-10.579-10.579Z" transform="translate(-863.835 -675.379)" stroke="#000" stroke-width="1"/>
            <path id="Path_38334" data-name="Path 38334" d="M669,1357.457l69.335-2.753a27.092,27.092,0,0,1,27.2,19.881c10.274,37.322,28.192,92.153,27.562,94.509-1.982,7.411-28.044,13.461-36.449,9.561-5.718-2.654-26.47-85.5-26.47-85.5H681.235Z" transform="translate(-576.421 -1180.771)" fill="#80d4ec" stroke="#000" stroke-width="2"/>
            <path id="Path_38335" data-name="Path 38335" d="M1044.435,1823.092a52.587,52.587,0,0,1-6.51-.4.529.529,0,0,1,.13-1.049c17.939,2.229,31.793-5.46,38.455-10.239a.529.529,0,1,1,.616.859C1071.168,1816.534,1059.557,1823.092,1044.435,1823.092Z" transform="translate(-863.47 -1536.497)" stroke="#000" stroke-width="1"/>
            <path id="Path_38336" data-name="Path 38336" d="M734.566,1420.425s-9.311,82.5-12.8,85c-5.8,4.151-36.475,1.6-38.223-1.011s11.556-83.44,11.556-83.44Z" transform="translate(-588.255 -1208.518)" fill="#80d4ec" stroke="#000" stroke-width="2"/>
            <path id="Path_38337" data-name="Path 38337" d="M659.4,1417.9a51.629,51.629,0,0,1-22.436-4.8c-.265-.121-.121-.185,0-.451s.05-.663.317-.542c16.851,7.713,32.006,4.495,39.944,2a.527.527,0,1,1,.316,1.006A61.141,61.141,0,0,1,659.4,1417.9Zm.9,11.857a55.44,55.44,0,0,1-24.286-5.5.528.528,0,1,1,.461-.949,54.858,54.858,0,0,0,39.547,3.055c.28-.081-.082.217,0,.5a.871.871,0,0,1-.407.9A51.677,51.677,0,0,1,660.3,1429.76Zm-37.422,54.3a.968.968,0,0,0-1.72,0l.422-9.031,8.843-170.175a1.057,1.057,0,0,1,2.111.11l-8.843,170.175C623.661,1475.7,623.435,1484.056,622.876,1484.056Z" transform="translate(-539.443 -1141.171)" stroke="#000" stroke-width="1"/>
            <path id="Path_38338" data-name="Path 38338" d="M545.187,1025.656a44.238,44.238,0,1,1,10.484-35.547A44.062,44.062,0,0,1,545.187,1025.656Z" transform="translate(-419.567 -867.278)" fill="#ed85c0" stroke="#000" stroke-width="2"/>
            <path id="Path_38340" data-name="Path 38340" d="M1012.56,1177.621s10.685-9.368,17.767-7.384,18.308,18.242,16.676,19.917-8.469-3.882-8.469-3.882-2.691,6.507-4.059,6.065-2.028-2.4-2.028-2.4-9.793,5.966-10.5,6.408S1012.56,1177.621,1012.56,1177.621Z" transform="translate(-844.07 -1036.865)" fill="#fff"/>
            <path id="Path_38341" data-name="Path 38341" d="M1020.039,1195a.511.511,0,0,1-.159-.022c-.809-.245-4.061-6.642-9.665-19.013a.533.533,0,0,1,.133-.616c.444-.391,10.984-9.536,18.257-7.495,6.649,1.865,15.96,14.844,17.089,19.042.223.831.166,1.405-.177,1.754-1.662,1.708-6.5-1.732-8.633-3.4-1.122,2.6-2.963,6.193-4.437,5.721a4.03,4.03,0,0,1-2.115-2.137c-2.039,1.242-9.368,5.709-9.969,6.085A.634.634,0,0,1,1020.039,1195Zm-8.7-19.106c2.914,6.417,7.563,16.28,8.781,17.928,1.812-1.111,9.813-5.988,10.182-6.213a.53.53,0,0,1,.776.283c.161.477.782,1.779,1.69,2.07.557-.06,2.161-2.751,3.407-5.765a.528.528,0,0,1,.822-.21c3.12,2.537,6.982,4.719,7.758,3.924h0s.148-.362-.466-1.79c-2.086-4.843-10.458-15.7-15.973-17.25C1022.238,1167.166,1013.1,1174.429,1011.342,1175.894Z" transform="translate(-842.208 -1034.991)" stroke="#000" stroke-width="1"/>
            <path id="Path_38342" data-name="Path 38342" d="M1105.906,1208.781a.529.529,0,0,1-.495-.72,13.81,13.81,0,0,0,.89-3.557c-.128-.714-3.725-3.345-7-5.349a.529.529,0,1,1,.55-.9c2.258,1.379,7.51,4.75,7.51,6.253a14.6,14.6,0,0,1-.961,3.942A.524.524,0,0,1,1105.906,1208.781Zm-6.087,3.661a.539.539,0,0,1-.166-.026.529.529,0,0,1-.338-.667l1.611-4.9a.529.529,0,0,1,1.005.329l-1.611,4.9A.529.529,0,0,1,1099.818,1212.442Z" transform="translate(-911.445 -1058.844)" stroke="#000" stroke-width="1"/>
            <g id="Group_37215" data-name="Group 37215" transform="translate(100.452 111.611)">
              <path id="Path_38343" data-name="Path 38343" d="M707.03,1096.635s15.579,41.225,36.2,42.587c26.1,1.721,43.455-15.812,43.455-15.812l-12.908-23.6s-19.455,16.715-24.6,13.208c-9.806-6.679-18.443-37.914-18.443-37.914" transform="translate(-706.501 -1074.583)" fill="#ed85c0" stroke="#000" stroke-width="2"/>
              <path id="Path_38344" data-name="Path 38344" d="M744.929,1138.01c-1.18,0-2.38-.037-3.6-.119-20.726-1.368-36.022-41.232-36.663-42.929a.529.529,0,0,1,.99-.376c.155.409,15.694,40.923,35.742,42.246,23.79,1.571,40.421-13.182,42.761-15.383l-12.4-22.67c-3.529,2.983-19.722,16.245-24.749,12.822-9.852-6.713-18.3-36.928-18.655-38.21a.528.528,0,0,1,1.019-.281c.086.309,8.7,31.124,18.233,37.618,3.948,2.689,18.635-8.6,23.96-13.173a.532.532,0,0,1,.44-.119.523.523,0,0,1,.369.267l12.908,23.6a.529.529,0,0,1-.088.625C785.032,1122.095,768.986,1138.01,744.929,1138.01Z" transform="translate(-704.634 -1072.723)"/>
            </g>
            <g id="Group_37216" data-name="Group 37216" transform="translate(106.183 218.461)">
              <path id="Path_38345" data-name="Path 38345" d="M758.527,1677.776a1.058,1.058,0,0,1-1.032-.826l-26.9-119.355a1.058,1.058,0,0,1,2.064-.464l26.9,119.355a1.057,1.057,0,0,1-.8,1.264A1.038,1.038,0,0,1,758.527,1677.776Z" transform="translate(-730.572 -1556.306)"/>
            </g>
            <g id="Group_37217" data-name="Group 37217" transform="translate(0.526 99.493)">
              <path id="Path_38346" data-name="Path 38346" d="M356.8,1142.869H291.95a18.344,18.344,0,0,1-17.926-14.461L252.6,1029.237a9.375,9.375,0,0,1,9.163-11.357h69.366Z" transform="translate(-252.384 -1017.88)" fill="#faeba9"/>
            </g>
            <g id="Group_37218" data-name="Group 37218" transform="translate(77.925 99.496)">
              <path id="Path_38347" data-name="Path 38347" d="M699.381,1141.9v.981H629.692L602.68,1017.89h2.371a9.373,9.373,0,0,1,9.163,7.4l22.524,104.264h50.3A12.337,12.337,0,0,1,699.381,1141.9Z" transform="translate(-602.68 -1017.89)" fill="#faeba9"/>
            </g>
            <g id="Group_37219" data-name="Group 37219" transform="translate(77.397 98.97)">
              <path id="Path_38348" data-name="Path 38348" d="M697.519,1141.553H627.83a.528.528,0,0,1,0-1.056h69.161v-.451a11.83,11.83,0,0,0-11.817-11.816h-50.3a.53.53,0,0,1-.517-.418l-22.524-104.264a8.9,8.9,0,0,0-8.646-6.982h-2.371a.528.528,0,1,1,0-1.056h2.371a9.956,9.956,0,0,1,9.68,7.817L635.3,1127.173h49.872a12.89,12.89,0,0,1,12.875,12.875v.981A.531.531,0,0,1,697.519,1141.553Z" transform="translate(-600.29 -1015.51)" stroke="#000" stroke-width="1"/>
            </g>
            <g id="Group_37220" data-name="Group 37220" transform="translate(0 98.965)">
              <path id="Path_38349" data-name="Path 38349" d="M354.942,1141.538H290.094a18.965,18.965,0,0,1-18.439-14.881l-21.424-99.169a9.906,9.906,0,0,1,9.68-12H327.93a.528.528,0,1,1,0,1.056H259.912a8.85,8.85,0,0,0-8.648,10.718l21.424,99.169a17.9,17.9,0,0,0,17.4,14.046h64.192l-19.627-90.821a.529.529,0,1,1,1.034-.225l19.767,91.462a.527.527,0,0,1-.106.444A.518.518,0,0,1,354.942,1141.538Z" transform="translate(-250.006 -1015.49)" stroke="#000" stroke-width="1"/>
            </g>
            <g id="Group_37221" data-name="Group 37221" transform="translate(179.248 159.637)">
              <path id="Path_38350" data-name="Path 38350" d="M1137.3,1289.442h-62.084a.457.457,0,0,1-.469-.446v-3.279a.457.457,0,0,1,.469-.446H1137.3a.457.457,0,0,1,.469.446V1289A.458.458,0,0,1,1137.3,1289.442Z" transform="translate(-1074.75 -1285.27)"/>
            </g>
            <g id="Group_37222" data-name="Group 37222" transform="translate(170.478 262.963)">
              <path id="Path_38351" data-name="Path 38351" d="M1027.471,1770.312a52.808,52.808,0,0,1-5.438-.281.53.53,0,1,1,.108-1.054c18.112,1.865,31.851-6.191,38.426-11.156a.529.529,0,0,1,.636.844C1055.179,1763.217,1043.25,1770.312,1027.471,1770.312Z" transform="translate(-1021.558 -1757.714)" stroke="#000" stroke-width="1"/>
            </g>
            <g id="Group_37223" data-name="Group 37223" transform="translate(72.343 22.639)">
              <path id="Path_38352" data-name="Path 38352" d="M633.147,703.126a27.013,27.013,0,1,1,.389-10.069,30.466,30.466,0,0,1,3.816,5.884C638.487,701.546,635.615,702.653,633.147,703.126Z" transform="translate(-579.278 -670.052)" fill="#fff"/>
              <path id="Path_38353" data-name="Path 38353" d="M605.038,722.767a28.328,28.328,0,0,1-3.624-.234,27.543,27.543,0,1,1,30.763-31.541,29.76,29.76,0,0,1,3.8,5.888,2.753,2.753,0,0,1,.016,2.475c-.577,1.1-2.013,1.894-4.267,2.371A27.407,27.407,0,0,1,605.038,722.767Zm-.1-54.034a26.486,26.486,0,1,0,25.827,32.425.528.528,0,0,1,.415-.4c2.088-.4,3.425-1.054,3.867-1.894A1.728,1.728,0,0,0,635,697.3a29.128,29.128,0,0,0-3.747-5.769.524.524,0,0,1-.106-.25,26.491,26.491,0,0,0-26.207-22.553Z" transform="translate(-577.419 -663.779)" stroke="#000" stroke-width="1"/>
            </g>
            <g id="Group_37224" data-name="Group 37224" transform="translate(62.439 15.321)">
              <path id="Path_38354" data-name="Path 38354" d="M554.889,677.549s3.944-7.205,3.71-11.684a51.662,51.662,0,0,0-1.737-9.711l8.887,1.153s3.058-2.126,1.955-3.9-8.42-4.8-8.42-4.8,13.626.658,15.246-4.395-1.465-6.417-1.465-6.417,17.6,3.175,16.731-9.539-20.774-12.407-29.747-10.089-9.247,11.848-9.247,11.848-13.034-1.085-17.376,16.793C527.531,671.1,554.889,677.549,554.889,677.549Z" transform="translate(-532.594 -616.922)"/>
            </g>
            <g id="Group_37225" data-name="Group 37225" transform="translate(84.664)">
              <circle id="Ellipse_37" data-name="Ellipse 37" cx="20.44" cy="20.44" r="20.44"/>
            </g>
            <g id="Group_37226" data-name="Group 37226" transform="translate(64.312 15.16)">
              <circle id="Ellipse_38" data-name="Ellipse 38" cx="14.38" cy="14.38" r="14.38"/>
            </g>
            <g id="Group_37227" data-name="Group 37227" transform="translate(85.546 25.558)">
              <circle id="Ellipse_39" data-name="Ellipse 39" cx="14.888" cy="14.888" r="14.888"/>
            </g>
            <g id="Group_37228" data-name="Group 37228" transform="translate(82.264 53.078)">
              <path id="Path_38355" data-name="Path 38355" d="M631.309,805.282a7.571,7.571,0,1,1,5.979-13.189" transform="translate(-624.183 -789.672)" fill="#fff" stroke="#000" stroke-width="2"/>
              <path id="Path_38356" data-name="Path 38356" d="M629.445,803.939c-.022,0-.046,0-.068,0a8.1,8.1,0,1,1,6.4-14.11.529.529,0,0,1-.7.793,7.043,7.043,0,1,0-5.564,12.267.529.529,0,0,1-.066,1.054Z" transform="translate(-622.319 -787.801)" stroke="#000" stroke-width="2"/>
            </g>
            <g id="Group_37229" data-name="Group 37229" transform="translate(118.826 45.647)">
              <ellipse id="Ellipse_40" data-name="Ellipse 40" cx="1.666" cy="2.435" rx="1.666" ry="2.435" transform="translate(0 1.299) rotate(-22.942)"/>
            </g>
            <g id="Group_37230" data-name="Group 37230" transform="translate(116.39 43.623)">
              <path id="Path_38357" data-name="Path 38357" d="M783.969,747.423s-4.187-.2-4.819,3.513" transform="translate(-778.623 -746.889)" fill="#fff" stroke="#000" stroke-width="1"/>
              <path id="Path_38358" data-name="Path 38358" d="M777.3,749.587a.6.6,0,0,1-.088-.007.53.53,0,0,1-.433-.61c.561-3.305,3.752-4.037,5.365-3.953a.529.529,0,0,1-.051,1.056c-.155,0-3.73-.126-4.273,3.074A.528.528,0,0,1,777.3,749.587Z" transform="translate(-776.766 -745.012)" stroke="#000" stroke-width="1"/>
            </g>
            <g id="Group_37231" data-name="Group 37231" transform="translate(112.654 61.863)">
              <path id="Path_38359" data-name="Path 38359" d="M770.644,831.45s-4.81,3.272-8.394-1.5" transform="translate(-761.721 -829.422)" fill="#fff" stroke="#000" stroke-width="1"/>
              <path id="Path_38360" data-name="Path 38360" d="M765.1,831.205a6.244,6.244,0,0,1-5.133-2.8.529.529,0,1,1,.846-.634,5.491,5.491,0,0,0,7.674,1.381.529.529,0,1,1,.6.875A7.959,7.959,0,0,1,765.1,831.205Z" transform="translate(-759.858 -827.562)" stroke="#000" stroke-width="1"/>
            </g>
            <g id="Group_37232" data-name="Group 37232" transform="translate(193.599 43.676)">
              <circle id="Ellipse_41" data-name="Ellipse 41" cx="2.375" cy="2.375" r="2.375"/>
              <path id="Path_38361" data-name="Path 38361" d="M1298.892,774.686h-30.62a.528.528,0,1,1,0-1.056h30.62a.528.528,0,0,1,0,1.056Zm-36.022,0h-17.292a.528.528,0,1,1,0-1.056h17.292a.528.528,0,0,1,0,1.056Zm-24.437,0h-9.424a.528.528,0,0,1,0-1.056h9.424a.528.528,0,0,1,0,1.056Zm-21.311,0h-27.644a.528.528,0,0,1,0-1.056h27.644a.528.528,0,1,1,0,1.056Z" transform="translate(-1175.085 -771.781)"/>
            </g>
            <g id="Group_37233" data-name="Group 37233" transform="translate(193.599 51.977)">
              <circle id="Ellipse_42" data-name="Ellipse 42" cx="2.375" cy="2.375" r="2.375"/>
              <path id="Path_38362" data-name="Path 38362" d="M1298.893,812.246h-24.5a.528.528,0,0,1,0-1.056h24.5a.528.528,0,0,1,0,1.056Zm-34.4,0h-8.1a.528.528,0,0,1,0-1.056h8.1a.528.528,0,0,1,0,1.056Zm-24.754,0h-50.258a.528.528,0,0,1,0-1.056h50.258a.528.528,0,1,1,0,1.056Z" transform="translate(-1175.085 -809.343)"/>
            </g>
            <g id="Group_37234" data-name="Group 37234" transform="translate(193.599 60.276)">
              <circle id="Ellipse_43" data-name="Ellipse 43" cx="2.375" cy="2.375" r="2.375"/>
              <path id="Path_38363" data-name="Path 38363" d="M1391.91,849.816h-23.6a.528.528,0,1,1,0-1.056h23.6a.528.528,0,1,1,0,1.056Zm-31.276,0h-51.756a.528.528,0,1,1,0-1.056h51.756a.528.528,0,1,1,0,1.056Z" transform="translate(-1268.103 -846.911)"/>
            </g>
            <g id="Group_37235" data-name="Group 37235" transform="translate(193.599 76.876)">
              <circle id="Ellipse_44" data-name="Ellipse 44" cx="2.375" cy="2.375" r="2.375"/>
              <path id="Path_38364" data-name="Path 38364" d="M1379.212,924.936h-40.706a.528.528,0,1,1,0-1.056h40.706a.528.528,0,0,1,0,1.056Zm-51.332,0h-35.3a.528.528,0,1,1,0-1.056h35.3a.528.528,0,0,1,0,1.056Z" transform="translate(-1255.405 -922.033)"/>
            </g>
            <g id="Group_37236" data-name="Group 37236" transform="translate(193.599 85.176)">
              <circle id="Ellipse_45" data-name="Ellipse 45" cx="2.375" cy="2.375" r="2.375"/>
              <path id="Path_38365" data-name="Path 38365" d="M1321.145,962.506h-26.837a.528.528,0,1,1,0-1.056h26.837a.528.528,0,1,1,0,1.056Zm-32.679,0H1275.86a.528.528,0,1,1,0-1.056h12.605a.528.528,0,1,1,0,1.056Zm-23.876,0h-12.561a.528.528,0,1,1,0-1.056h12.561a.528.528,0,1,1,0,1.056Z" transform="translate(-1223.814 -959.601)"/>
            </g>
            <g id="Group_37237" data-name="Group 37237" transform="translate(193.599 93.477)">
              <circle id="Ellipse_46" data-name="Ellipse 46" cx="2.375" cy="2.375" r="2.375"/>
              <path id="Path_38366" data-name="Path 38366" d="M1298.892,1000.066h-25.215a.528.528,0,1,1,0-1.056h25.215a.528.528,0,0,1,0,1.056Zm-32.6,0h-16.572a.528.528,0,0,1,0-1.056h16.572a.528.528,0,0,1,0,1.056Zm-29.721,0h-47.094a.528.528,0,0,1,0-1.056h47.094a.528.528,0,1,1,0,1.056Z" transform="translate(-1175.085 -997.163)"/>
            </g>
            <g id="Group_37238" data-name="Group 37238" transform="translate(193.599 101.776)">
              <circle id="Ellipse_47" data-name="Ellipse 47" cx="2.375" cy="2.375" r="2.375"/>
              <path id="Path_38367" data-name="Path 38367" d="M1298.892,1037.636h-32.6a.528.528,0,0,1,0-1.056h32.6a.528.528,0,0,1,0,1.056Zm-45.749,0h-26.013a.528.528,0,1,1,0-1.056h26.013a.528.528,0,1,1,0,1.056Zm-36.022,0h-27.644a.528.528,0,0,1,0-1.056h27.644a.528.528,0,1,1,0,1.056Z" transform="translate(-1175.085 -1034.731)"/>
            </g>
          </g>
        </g>
        <g id="Group_37243" data-name="Group 37243" transform="translate(137.947 26.36)">
          <rect id="Rectangle_2538" data-name="Rectangle 2538" width="84.327" height="54.414" transform="translate(0.528 0.528)" fill="#fff"/>
          <rect id="Rectangle_2539" data-name="Rectangle 2539" width="84.327" height="7.568" transform="translate(0.528 0.528)"/>
          <path id="Path_38368" data-name="Path 38368" d="M959.188,546.881H874.858a.528.528,0,0,1-.528-.528V491.938a.528.528,0,0,1,.528-.528h84.327a.528.528,0,0,1,.528.528v54.414A.525.525,0,0,1,959.188,546.881Zm-83.8-1.058h83.269V492.466H875.388Z" transform="translate(-874.33 -491.41)" stroke="#000" stroke-width="1"/>
          <circle id="Ellipse_48" data-name="Ellipse 48" cx="1.29" cy="1.29" r="1.29" transform="translate(4.024 3.038)" fill="#fff"/>
          <g id="Group_37241" data-name="Group 37241" transform="translate(8.854 3.038)">
            <circle id="Ellipse_49" data-name="Ellipse 49" cx="1.29" cy="1.29" r="1.29" fill="#fff"/>
          </g>
          <g id="Group_37242" data-name="Group 37242" transform="translate(13.684 3.038)">
            <circle id="Ellipse_50" data-name="Ellipse 50" cx="1.29" cy="1.29" r="1.29" fill="#fff"/>
          </g>
        </g>
      </g>
      <path id="Path_38492" data-name="Path 38492" d="M3.19.81,1.981.038a.244.244,0,0,0-.345.091L.036,2.961a.278.278,0,0,0,.085.367L1.33,4.1a.244.244,0,0,0,.345-.09l1.6-2.832A.277.277,0,0,0,3.19.81Zm2.225,2.01L4.206,2.048a.244.244,0,0,0-.345.09L2.261,4.97a.278.278,0,0,0,.085.367l1.209.771a.244.244,0,0,0,.345-.09L5.5,3.186A.275.275,0,0,0,5.415,2.819ZM7.642,4.831,6.433,4.059a.244.244,0,0,0-.345.091l-1.6,2.832a.278.278,0,0,0,.085.367l1.209.771a.244.244,0,0,0,.345-.091L7.727,5.2A.277.277,0,0,0,7.642,4.831Z" transform="translate(375.499 959.732) rotate(-25)"/>
      <path id="Path_38493" data-name="Path 38493" d="M3.19.81,1.981.038a.244.244,0,0,0-.345.091L.036,2.961a.278.278,0,0,0,.085.367L1.33,4.1a.244.244,0,0,0,.345-.09l1.6-2.832A.277.277,0,0,0,3.19.81Zm2.225,2.01L4.206,2.048a.244.244,0,0,0-.345.09L2.261,4.97a.278.278,0,0,0,.085.367l1.209.771a.244.244,0,0,0,.345-.09L5.5,3.186A.275.275,0,0,0,5.415,2.819ZM7.642,4.831,6.433,4.059a.244.244,0,0,0-.345.091l-1.6,2.832a.278.278,0,0,0,.085.367l1.209.771a.244.244,0,0,0,.345-.091L7.727,5.2A.277.277,0,0,0,7.642,4.831Z" transform="translate(284.548 966.066) rotate(-25)"/>
      <path id="Path_38494" data-name="Path 38494" d="M14.4,2.834c.534,6.3-4.68,11.8-11.651,12.286a13.312,13.312,0,0,1-1.7.012A4.963,4.963,0,0,1,.031,12.5,10.842,10.842,0,0,1,3.094,4.154,13.234,13.234,0,0,1,11.837.133L13.75,0A10.546,10.546,0,0,1,14.4,2.834Z" transform="matrix(-0.309, 0.951, -0.951, -0.309, 313.275, 974.035)" fill="#fff" stroke="#000" stroke-width="2"/>
      <path id="Path_38495" data-name="Path 38495" d="M12.371,3.011C14.577,11.59,8.349,15.554,2.359,16.067A9.276,9.276,0,0,1,.9,16.08a6.049,6.049,0,0,1-.874-2.8A13.2,13.2,0,0,1,2.659,4.415,10.611,10.611,0,0,1,10.172.141L11.816,0A13.49,13.49,0,0,1,12.371,3.011Z" transform="translate(404.427 966.228) rotate(106)" fill="#fff" stroke="#000" stroke-width="2"/>
    </g>
    <g id="educational-institution" transform="translate(195.514 412.732)">
      <path id="Path_38023" data-name="Path 38023" d="M168.979,193.832q-.015-1.022-.048-2.043-.042-1.351-.116-2.7l-.009-.029c-2.754-.061-5.486-.14-8.249-.19a87.08,87.08,0,0,0-6.251-6.166,86.836,86.836,0,0,0-6.251,6.167c-2.763.05-5.493.129-8.246.191l-.01.029q-.074,1.351-.116,2.7c-.023.681-.037,1.361-.048,2.043a116.075,116.075,0,0,0,.647,13.952q.006.072.015.144c2.415.043,4.831.252,7.246.3h.362a5.475,5.475,0,0,0-.2-.857l.305-.193c.333-.009.671-.018,1.012-.024l.005-.193q-.028-3.054-.054-6.105v-.211c-.352,0-.705-.011-1.057-.02a3.183,3.183,0,0,0-.211-1.672l.3-.143c4.089-.083,8.733-.052,12.822-.135a2.474,2.474,0,0,0,0,1.715l-.213-.006c-.2.011-.4.024-.606.034v.324q.028,3.053.054,6.105l.037.175c.4-.008.795-.018,1.186-.028a4.277,4.277,0,0,0-.158,1.231c2.4-.045,4.8-.252,7.193-.3l.015-.144A116.9,116.9,0,0,0,168.979,193.832Zm-26.657-2.338.307-.117a14,14,0,0,1,2.8-.079,43.445,43.445,0,0,1,.235,6.235l.005.247-3.183.02Q142.321,194.649,142.322,191.494Zm3.514,14.537-3.183.02q-.159-3.149-.159-6.306l.305-.117a14,14,0,0,1,2.8-.079,43.629,43.629,0,0,1,.236,6.235Zm10.837-10.811a4.356,4.356,0,0,1-4.778-.156,4.3,4.3,0,0,1-1.567-4.508,4.241,4.241,0,0,1,3.692-3.012l.989.01a3.741,3.741,0,0,1,3.6,3.288A4.416,4.416,0,0,1,156.673,195.22Zm9.286,10.831-3.182-.02,0-.247a43.636,43.636,0,0,1,.236-6.235,14.008,14.008,0,0,1,2.8.079l.305.117Q166.12,202.9,165.958,206.051Zm.17-8.252-3.182-.02,0-.247a43.637,43.637,0,0,1,.236-6.235,14.009,14.009,0,0,1,2.8.079l.305.117Q166.293,194.648,166.129,197.8Z" transform="translate(-110.272 -60.67)" fill="#fff"/>
      <path id="Path_38024" data-name="Path 38024" d="M217.1,318.838a4.478,4.478,0,0,0,.156,1.082l-.222-.009a122.012,122.012,0,0,1-13.135.327,5.443,5.443,0,0,0-.22-2.255l.305-.193c.333-.009.671-.018,1.012-.024l1.447-.025,1.164-.015c1.982-.023,4.016-.032,6-.054l.951-.011,1.513-.025c.4-.008.795-.018,1.186-.028A4.395,4.395,0,0,0,217.1,318.838ZM216.8,311l-.213-.006c-.2.011-.4.024-.606.034-.473.027-.945.05-1.419.072q-4.057.191-8.121.173c-.5,0-.993-.008-1.49-.018-.352,0-.705-.011-1.057-.02a3.183,3.183,0,0,0-.211-1.672l.3-.143c4.089-.083,8.733-.052,12.822-.135A2.467,2.467,0,0,0,216.8,311Z" transform="translate(-166.248 -171.285)" fill="#ed85c0"/>
      <path id="Path_38025" data-name="Path 38025" d="M290.433,329.7l-1.513.025-.019-.13a34.051,34.051,0,0,1,.02-6.033v-.395c.474-.021.946-.045,1.419-.072v.324q.028,3.053.054,6.105Z" transform="translate(-240.609 -183.349)" fill="#f6d854"/>
      <path id="Path_38026" data-name="Path 38026" d="M239.215,341.1v.238c-1.982.023-4.016.032-6,.054l-.037-.2a14.627,14.627,0,0,1-.047-4.494,18.766,18.766,0,0,1,5.814-.18A28.96,28.96,0,0,0,239.215,341.1Z" transform="translate(-191.853 -194.954)" fill="#80d4ec"/>
      <path id="Path_38027" data-name="Path 38027" d="M215.224,331.065l.023.309-1.447.025.005-.193q-.028-3.054-.054-6.105v-.211c.5.009.993.015,1.49.018l0,.124A34.288,34.288,0,0,1,215.224,331.065Z" transform="translate(-175.047 -184.919)" fill="#f6d854"/>
      <path id="Path_38028" data-name="Path 38028" d="M233.559,324.066a34.171,34.171,0,0,0-.02,6.033l.019.13-.951.011V330a29.109,29.109,0,0,1-.269-4.578,18.768,18.768,0,0,0-5.814.18,14.588,14.588,0,0,0,.047,4.494l.037.2c-.39,0-.78.009-1.164.015L225.42,330a34.168,34.168,0,0,0,.02-6.033l0-.124q4.061.025,8.121-.173v.394Z" transform="translate(-185.245 -183.854)" fill="#fff"/>
      <path id="Path_38029" data-name="Path 38029" d="M164.348,256.81l.005.247-3.183.02q-.161-3.149-.16-6.306l.307-.117a14,14,0,0,1,2.8-.079A43.452,43.452,0,0,1,164.348,256.81Zm.171,8.251,0,.247-3.183.02q-.159-3.149-.159-6.306l.305-.117a14.008,14.008,0,0,1,2.8-.079A43.828,43.828,0,0,1,164.52,265.061Z" transform="translate(-128.961 -119.948)" fill="#80d4ec"/>
      <path id="Path_38030" data-name="Path 38030" d="M229.817,228.746a4.356,4.356,0,0,1-4.778-.156,4.3,4.3,0,0,1-1.567-4.508,4.241,4.241,0,0,1,3.691-3.012l.989.01a3.741,3.741,0,0,1,3.6,3.288A4.416,4.416,0,0,1,229.817,228.746Z" transform="translate(-183.417 -94.196)" fill="#f6d854"/>
      <path id="Path_38031" data-name="Path 38031" d="M31.376,253.58c-.023.681-.037,1.361-.048,2.043H31.2c-4.446-.1-9.4-.238-13.952-.072-.529.02-1.052.044-1.567.072,0-.593.037-1.183.04-1.776l.3-.025a107.564,107.564,0,0,1,15.183-.249Z" transform="translate(-1.966 -122.46)" fill="#80d4ec"/>
      <path id="Path_38032" data-name="Path 38032" d="M33.006,223.9l-.01.029q-.074,1.351-.116,2.7l-.177-.008a107.375,107.375,0,0,0-15.183.249l-.12-.208c1.171-.988,3.075-2.208,4.859-3.912a78.882,78.882,0,0,1,8.959-.1l.243-.021a4.165,4.165,0,0,0,.136,1.3Z" transform="translate(-3.47 -95.514)" fill="#ed85c0"/>
      <path id="Path_38033" data-name="Path 38033" d="M40.07,269.876h-.129c-4.446-.1-9.4-.238-13.952-.072l-.009.074a102.858,102.858,0,0,0-.112,13.944,140.308,140.308,0,0,1,14.606.006h.245A115.807,115.807,0,0,1,40.07,269.876Zm-10.414,1.638a10.327,10.327,0,0,1,2.051-.058,31.849,31.849,0,0,1,.174,4.573l0,.182q-1.168.006-2.334.015-.117-2.313-.119-4.626Zm2.262,10.714q-1.168.008-2.334.015-.117-2.311-.119-4.626l.225-.085a10.33,10.33,0,0,1,2.051-.058,31.85,31.85,0,0,1,.174,4.573Zm2.947-10.714a10.325,10.325,0,0,1,2.051-.058,31.849,31.849,0,0,1,.174,4.573l0,.182q-1.168.006-2.334.015-.117-2.313-.119-4.626Zm2.262,10.714q-1.168.008-2.334.015-.117-2.311-.119-4.626l.225-.085a10.327,10.327,0,0,1,2.051-.058,31.85,31.85,0,0,1,.174,4.573Z" transform="translate(-10.708 -136.714)" fill="#fff"/>
      <path id="Path_38034" data-name="Path 38034" d="M57.875,183.22l0,.182q-1.168.008-2.334.015-.117-2.311-.119-4.626l.225-.085a10.327,10.327,0,0,1,2.051-.058A31.826,31.826,0,0,1,57.875,183.22Zm5.209,0,0,.182q-1.168.008-2.334.015-.117-2.311-.119-4.626l.225-.085a10.324,10.324,0,0,1,2.051-.058A31.825,31.825,0,0,1,63.084,183.22ZM63.05,177.2l0,.182q-1.168.006-2.334.015-.117-2.313-.119-4.626l.225-.085a10.327,10.327,0,0,1,2.051-.058A31.824,31.824,0,0,1,63.05,177.2Zm-5.209,0,0,.182q-1.168.006-2.334.015-.117-2.313-.119-4.626l.225-.085a10.33,10.33,0,0,1,2.051-.058A32.008,32.008,0,0,1,57.841,177.2Zm34.843-8.491q0,3.153-.16,6.306L89.341,175l0-.247a43.638,43.638,0,0,1,.236-6.235,14.007,14.007,0,0,1,2.8.079Zm-.169,8.251q0,3.153-.16,6.306l-3.182-.02,0-.247a43.636,43.636,0,0,1,.236-6.235,14.006,14.006,0,0,1,2.8.079Zm4.093-10.657-1.407-.028c-2.754-.061-5.486-.14-8.249-.19a86.835,86.835,0,0,0-6.251-6.167,86.839,86.839,0,0,0-6.251,6.167c-2.763.05-5.493.129-8.246.19l-1.408.028a4.228,4.228,0,0,1,0-2.165l.355-.106a48.32,48.32,0,0,1,8.4-.344,76.932,76.932,0,0,1,6.832-6.771c.106-.1.212-.193.319-.288l.621.56a74.028,74.028,0,0,1,6.53,6.5,48.192,48.192,0,0,1,8.4.344l.355.106a4.086,4.086,0,0,1,.134.836A4.14,4.14,0,0,1,96.607,166.307Zm14.413,4.743c-.515-.028-1.038-.052-1.567-.072-4.548-.168-9.505-.029-13.951.072h-.129q-.015-1.022-.048-2.043L95.5,169a107.583,107.583,0,0,1,15.251.254l.23.02C110.985,169.868,111.017,170.457,111.02,171.05Z" transform="translate(-36.667 -37.889)" fill="#80d4ec"/>
      <path id="Path_38035" data-name="Path 38035" d="M386.534,226.652l-.052.213a107.581,107.581,0,0,0-15.251-.254l-.177.008q-.042-1.351-.116-2.7l-.009-.029,1.407.028a4.146,4.146,0,0,0,.135-1.33l.245.053a78.885,78.885,0,0,1,8.959.1C383.459,224.444,385.362,225.664,386.534,226.652Z" transform="translate(-312.397 -95.5)" fill="#ed85c0"/>
      <path id="Path_38036" data-name="Path 38036" d="M381.917,269.88l-.01-.074c-4.548-.168-9.505-.029-13.951.072h-.129a116.1,116.1,0,0,1-.647,13.952h.243a140.308,140.308,0,0,1,14.606-.006A102.85,102.85,0,0,0,381.917,269.88Zm-8.906,12.4q-1.168-.006-2.334-.015l0-.18a31.837,31.837,0,0,1,.174-4.573,10.407,10.407,0,0,1,2.05.057l.225.086Q373.131,279.968,373.011,282.278Zm.125-6.052-2.334-.015,0-.182a31.851,31.851,0,0,1,.174-4.573,10.327,10.327,0,0,1,2.051.058l.225.085Q373.255,273.914,373.136,276.226Zm5.084,6.052q-1.17-.006-2.335-.015l0-.18a31.648,31.648,0,0,1,.173-4.573,10.419,10.419,0,0,1,2.051.057l.225.086Q378.338,279.968,378.221,282.278Zm.125-6.052-2.335-.015,0-.182a32.027,32.027,0,0,1,.173-4.573,10.322,10.322,0,0,1,2.051.058l.225.085Q378.463,273.914,378.346,276.226Z" transform="translate(-309.12 -136.714)" fill="#fff"/>
      <path id="Path_38037" data-name="Path 38037" d="M397.322,283.389q0,2.314-.119,4.626L394.87,288l0-.182a31.843,31.843,0,0,1,.174-4.573,10.33,10.33,0,0,1,2.051.058Zm5.208,0q0,2.314-.117,4.626L400.078,288l0-.182a32.028,32.028,0,0,1,.173-4.573,10.324,10.324,0,0,1,2.051.058Zm-.125,6.054q0,2.315-.117,4.625-1.17-.006-2.335-.015l0-.18a31.657,31.657,0,0,1,.173-4.573,10.422,10.422,0,0,1,2.051.057Zm-5.209,0q0,2.315-.117,4.625-1.168-.006-2.334-.015l0-.18a31.833,31.833,0,0,1,.174-4.573,10.409,10.409,0,0,1,2.05.057Z" transform="translate(-333.187 -148.504)" fill="#80d4ec"/>
      <path id="Path_38038" data-name="Path 38038" d="M253.158,121.248c-.208-.191-.415-.376-.621-.56l-.319.288,0-.057a35.255,35.255,0,0,1-.135-5.251.521.521,0,0,1,.747-.019.946.946,0,0,1,.153.454c.01.1.011.212.014.318q.017,1.455.032,2.914c.005.39.009.78.014,1.17Z" transform="translate(-208.504 -1.945)" fill="#fff"/>
      <path id="Path_38039" data-name="Path 38039" d="M266.069,120.86l-.317.431a3.144,3.144,0,0,1-1.417,1.057c-1.435.534-3.028-.03-4.555.059l-.236.116q-.013-1.457-.032-2.914c0-.1,0-.212-.014-.318l.05-.044a2.959,2.959,0,0,1,2.247.356c.689.363,1.31.854,2.02,1.173A2.57,2.57,0,0,0,266.069,120.86Z" transform="translate(-215.025 -5.134)" fill="#ed85c0"/>
      <path id="Path_38040" data-name="Path 38040" d="M137.548,231.423q-.2,3.681-.169,7.368.032,3.669.3,7.333.15,2.072.372,4.137a.29.29,0,0,0,.284.284c2.417.044,4.828.252,7.246.3a.284.284,0,0,0,0-.568c-2.417-.044-4.828-.252-7.246-.3l.284.284q-.394-3.664-.558-7.349-.163-3.666-.092-7.339.04-2.076.153-4.151C138.136,231.057,137.569,231.058,137.548,231.423Z" transform="translate(-108.308 -103.003)"/>
      <path id="Path_38041" data-name="Path 38041" d="M201.421,376.381a5.377,5.377,0,0,1,.209,2.18.287.287,0,0,0,.284.284c3.42.1,6.844.053,10.262-.136q1.438-.08,2.874-.191a.291.291,0,0,0,.284-.284.286.286,0,0,0-.284-.284c-3.413.262-6.834.4-10.257.378q-1.44-.008-2.879-.052l.284.284a5.789,5.789,0,0,0-.23-2.331C201.86,375.882,201.311,376.03,201.421,376.381Z" transform="translate(-164.261 -229.607)"/>
      <path id="Path_38042" data-name="Path 38042" d="M202,318.041c3.476-.092,6.952-.081,10.429-.129q1.421-.019,2.842-.054l-.274-.36a4.812,4.812,0,0,0,0,2.464.284.284,0,0,0,.548-.151,4.216,4.216,0,0,1,0-2.162.287.287,0,0,0-.274-.36c-3.476.092-6.952.081-10.429.129q-1.421.019-2.842.054A.285.285,0,0,0,202,318.041Zm-.58-8.432a2.989,2.989,0,0,1,.212,1.52.289.289,0,0,0,.274.36q4.951.115,9.9-.1,1.4-.059,2.793-.141c.363-.021.366-.589,0-.568-3.294.194-6.595.294-9.9.28q-1.4-.006-2.8-.039l.274.36a3.522,3.522,0,0,0-.212-1.822.292.292,0,0,0-.349-.2A.284.284,0,0,0,201.417,309.609Z" transform="translate(-164.257 -171.251)"/>
      <path id="Path_38043" data-name="Path 38043" d="M204.134,307.743c3.345-.068,6.689-.061,10.034-.095q1.395-.015,2.789-.04l-.274-.359a2.862,2.862,0,0,0,0,1.865c.116.344.664.2.548-.152a2.356,2.356,0,0,1,0-1.563.286.286,0,0,0-.274-.36c-3.345.068-6.689.061-10.034.095q-1.395.015-2.789.042A.284.284,0,0,0,204.134,307.743Zm.689,1.76q.026,3.053.054,6.105a.284.284,0,0,0,.568,0q-.027-3.053-.054-6.105A.284.284,0,0,0,204.822,309.5Zm1.494-.071a34.538,34.538,0,0,1-.02,6.033.286.286,0,0,0,.284.284.289.289,0,0,0,.284-.284,34.66,34.66,0,0,0,.02-6.033.291.291,0,0,0-.284-.284A.288.288,0,0,0,206.316,309.433Z" transform="translate(-166.405 -169.32)"/>
      <path id="Path_38044" data-name="Path 38044" d="M239.995,329.879q-.026-3.053-.054-6.105a.284.284,0,0,0-.568,0q.026,3.053.054,6.105A.284.284,0,0,0,239.995,329.879Zm-1.494.069a34.536,34.536,0,0,1,.02-6.033.286.286,0,0,0-.284-.284.289.289,0,0,0-.284.284,34.66,34.66,0,0,0-.02,6.033.291.291,0,0,0,.284.284A.286.286,0,0,0,238.5,329.948Zm-6.978-.077a14.319,14.319,0,0,1-.047-4.343l-.2.2a18.628,18.628,0,0,1,5.738-.17l-.284-.284A28.794,28.794,0,0,0,237,329.85a.294.294,0,0,0,.284.284c.138,0,.3-.131.284-.284a28.654,28.654,0,0,1-.269-4.578.291.291,0,0,0-.284-.284,19.138,19.138,0,0,0-5.889.19.272.272,0,0,0-.2.2,15.285,15.285,0,0,0,.047,4.644.284.284,0,0,0,.548-.15Z" transform="translate(-189.923 -183.703)"/>
      <path id="Path_38045" data-name="Path 38045" d="M170.79,261.344q.061,2.231.12,4.462a.284.284,0,0,0,.568,0q-.061-2.231-.12-4.462A.284.284,0,0,0,170.79,261.344Zm-12.03-10.867q0,3.155.16,6.306a.288.288,0,0,0,.284.284l3.183-.02a.284.284,0,0,0,0-.568l-3.183.02.284.284q-.161-3.151-.16-6.306A.284.284,0,0,0,158.76,250.477Z" transform="translate(-126.995 -119.654)"/>
      <path id="Path_38046" data-name="Path 38046" d="M160.529,248.978a14.381,14.381,0,0,1,2.8-.079l-.284-.284a44.365,44.365,0,0,1,.236,6.235c-.018.365.55.365.568,0a44.373,44.373,0,0,0-.236-6.235.293.293,0,0,0-.284-.284,14.382,14.382,0,0,0-2.8.079.293.293,0,0,0-.284.284A.284.284,0,0,0,160.529,248.978Zm-.42,8.085q0,3.155.16,6.306a.288.288,0,0,0,.284.284l3.183-.02a.284.284,0,0,0,0-.568l-3.183.02.284.284q-.161-3.151-.16-6.306A.284.284,0,0,0,160.109,257.063Z" transform="translate(-128.174 -117.988)"/>
      <path id="Path_38047" data-name="Path 38047" d="M103.307,287.03a14.384,14.384,0,0,1,2.8-.079l-.284-.284a44.366,44.366,0,0,1,.236,6.235c-.018.365.55.365.568,0a44.371,44.371,0,0,0-.236-6.235.293.293,0,0,0-.284-.284,14.379,14.379,0,0,0-2.8.08.293.293,0,0,0-.284.284A.285.285,0,0,0,103.307,287.03Zm-8.877-4.358q0,2.314.117,4.626a.288.288,0,0,0,.284.284l2.335-.015a.284.284,0,0,0,0-.568l-2.335.015.284.284Q95,284.988,95,282.672A.284.284,0,0,0,94.43,282.672Z" transform="translate(-70.781 -147.787)"/>
      <path id="Path_38048" data-name="Path 38048" d="M95.8,281.635a10.621,10.621,0,0,1,2.051-.058l-.284-.284a32.58,32.58,0,0,1,.173,4.573c-.018.366.55.365.568,0a32.768,32.768,0,0,0-.173-4.573.293.293,0,0,0-.284-.284,10.621,10.621,0,0,0-2.051.058.293.293,0,0,0-.284.284A.285.285,0,0,0,95.8,281.635Zm-.384,5.855q0,2.314.117,4.626a.288.288,0,0,0,.284.284l2.335-.015a.284.284,0,0,0,0-.568l-2.335.015.284.284q-.117-2.311-.117-4.626A.284.284,0,0,0,95.42,287.489Z" transform="translate(-71.646 -146.551)"/>
      <path id="Path_38049" data-name="Path 38049" d="M58.983,288.923a10.615,10.615,0,0,1,2.051-.058l-.284-.284a32.582,32.582,0,0,1,.173,4.573c-.018.366.55.365.568,0a32.766,32.766,0,0,0-.173-4.573.293.293,0,0,0-.284-.284,10.618,10.618,0,0,0-2.051.058.293.293,0,0,0-.284.284A.284.284,0,0,0,58.983,288.923Zm-5.842-6.251q0,2.314.117,4.626a.288.288,0,0,0,.284.284l2.335-.015a.284.284,0,0,0,0-.568l-2.335.015.284.284q-.117-2.311-.117-4.626A.284.284,0,0,0,53.141,282.672Z" transform="translate(-34.701 -147.787)"/>
      <path id="Path_38050" data-name="Path 38050" d="M54.514,281.635a10.62,10.62,0,0,1,2.051-.058l-.284-.284a32.581,32.581,0,0,1,.173,4.573c-.018.366.55.365.568,0a32.766,32.766,0,0,0-.173-4.573.293.293,0,0,0-.284-.284,10.62,10.62,0,0,0-2.051.058.293.293,0,0,0-.284.284A.286.286,0,0,0,54.514,281.635Zm-.383,5.855q0,2.314.117,4.626a.288.288,0,0,0,.284.284l2.335-.015a.284.284,0,0,0,0-.568l-2.335.015.284.284q-.117-2.311-.117-4.626A.284.284,0,0,0,54.131,287.489Z" transform="translate(-35.566 -146.551)"/>
      <path id="Path_38051" data-name="Path 38051" d="M56.194,199.894a10.618,10.618,0,0,1,2.051-.058l-.284-.284a32.581,32.581,0,0,1,.173,4.573c-.018.366.55.365.568,0a32.766,32.766,0,0,0-.173-4.573.293.293,0,0,0-.284-.284,10.618,10.618,0,0,0-2.051.058.293.293,0,0,0-.284.284A.285.285,0,0,0,56.194,199.894Zm8.78-14.961a4.58,4.58,0,0,0,0,2.318.288.288,0,0,0,.274.208c2.465-.047,4.929-.115,7.393-.17l1.884-.04a1.938,1.938,0,0,0,.453-.018c.143-.039.251-.212.348-.317.2-.213.394-.426.593-.637q1.228-1.306,2.513-2.555,1.433-1.4,2.923-2.73c.273-.245-.13-.645-.4-.4-1.694,1.522-3.342,3.1-4.919,4.74q-.676.7-1.332,1.426l.2-.083c-2.507.048-5.012.116-7.518.174q-1.067.025-2.136.045l.274.208a3.951,3.951,0,0,1,0-2.015A.285.285,0,0,0,64.974,184.934Z" transform="translate(-37.121 -58.758)"/>
      <path id="Path_38052" data-name="Path 38052" d="M130.773,162.385a48.465,48.465,0,0,1,7.591-.375c.145,0,.291.009.437.015a1.05,1.05,0,0,0,.517-.023,1.37,1.37,0,0,0,.275-.3l.3-.337q.581-.653,1.186-1.283c.828-.864,1.683-1.7,2.551-2.522.954-.9,1.925-1.785,2.9-2.665.273-.245-.13-.646-.4-.4-1.949,1.756-3.888,3.531-5.691,5.439q-.749.793-1.46,1.62l.2-.083a48.583,48.583,0,0,0-6.542.14q-.931.083-1.86.2a.292.292,0,0,0-.284.284A.282.282,0,0,0,130.773,162.385Zm15.266.161a4.439,4.439,0,0,0-2.416,7.934,4.631,4.631,0,0,0,5.252.245,4.711,4.711,0,0,0,2.024-4.715,3.879,3.879,0,0,0-3.869-3.456.284.284,0,0,0,0,.568,3.124,3.124,0,0,1,2.039.733,3.854,3.854,0,0,1,1.151,1.77,4.141,4.141,0,0,1-1.177,4.262,4.044,4.044,0,0,1-4.539.5,4,4,0,0,1-1.983-3.97,3.944,3.944,0,0,1,2.972-3.216,3.521,3.521,0,0,1,.549-.086.291.291,0,0,0,.284-.284A.288.288,0,0,0,146.038,162.547Z" transform="translate(-102.291 -35.957)"/>
      <path id="Path_38053" data-name="Path 38053" d="M254.969,228.79l.121,3.249c.014.365.582.366.568,0l-.121-3.249C255.523,228.426,254.955,228.423,254.969,228.79Z" transform="translate(-211.066 -100.703)"/>
      <path id="Path_38054" data-name="Path 38054" d="M43.826,251.907a13.609,13.609,0,0,1,3.073-.049.286.286,0,0,0,.284-.284.29.29,0,0,0-.284-.284,13.61,13.61,0,0,0-3.073.049.294.294,0,0,0-.284.284A.285.285,0,0,0,43.826,251.907Zm-14.595-.592a108.2,108.2,0,0,0-12.052.02q-1.715.1-3.427.252a.29.29,0,0,0-.284.284c0,.593-.035,1.185-.039,1.776a.286.286,0,0,0,.284.284c2-.108,4.006-.146,6.009-.15,2.048,0,4.094.03,6.14.073q1.684.036,3.37.076a.284.284,0,0,0,0-.568c-2-.045-4.008-.095-6.013-.125-2.046-.03-4.093-.039-6.139,0-1.123.023-2.244.061-3.366.122l.284.284c0-.593.035-1.185.039-1.776l-.284.284a108.153,108.153,0,0,1,12.046-.4q1.718.038,3.434.131C29.6,251.9,29.6,251.335,29.232,251.315Z" transform="translate(0 -120.487)"/>
      <path id="Path_38055" data-name="Path 38055" d="M15.623,224.907c.7-.59,1.453-1.12,2.184-1.674A31.471,31.471,0,0,0,20.481,221l-.2.083c2.27-.168,4.533-.193,6.807-.145.717.015,1.434.033,2.151.047a.284.284,0,0,0,0-.568c-1.956-.038-3.912-.11-5.868-.061q-.749.019-1.5.058c-.27.014-.54.03-.811.047l-.415.028a1.547,1.547,0,0,0-.478.05,1.38,1.38,0,0,0-.333.286c-.11.1-.22.2-.332.3q-.316.282-.642.553c-.406.339-.82.666-1.24.988-.8.612-1.63,1.194-2.4,1.843a.286.286,0,0,0,0,.4A.294.294,0,0,0,15.623,224.907Zm.856,1.813a103.322,103.322,0,0,0-.25,10.88q.045,1.533.138,3.063a.288.288,0,0,0,.284.284c3.8-.235,7.61-.225,11.414-.111q1.6.047,3.192.117c.366.015.365-.553,0-.568-3.8-.163-7.611-.258-11.417-.149q-1.6.045-3.189.143l.284.284a103.006,103.006,0,0,1-.074-10.883q.07-1.531.187-3.061a.284.284,0,0,0-.568,0Zm43.272-4.746q.2,3.681.169,7.368-.032,3.669-.3,7.333-.15,2.072-.372,4.137l.284-.284c-2.417.044-4.828.252-7.246.3a.284.284,0,0,0,0,.568c2.417-.044,4.828-.252,7.246-.3a.292.292,0,0,0,.284-.284q.394-3.664.558-7.349.163-3.666.092-7.339-.04-2.076-.153-4.151C60.3,221.61,59.731,221.608,59.75,221.974Z" transform="translate(-1.492 -93.555)"/>
      <path id="Path_38056" data-name="Path 38056" d="M325.648,250.477q0,3.155-.16,6.306l.284-.284-3.183-.02a.284.284,0,0,0,0,.568l3.183.02a.289.289,0,0,0,.284-.284q.161-3.151.16-6.306A.284.284,0,0,0,325.648,250.477Z" transform="translate(-269.914 -119.654)"/>
      <path id="Path_38057" data-name="Path 38057" d="M324.447,248.411a14.392,14.392,0,0,0-2.8-.079.293.293,0,0,0-.284.284,44.361,44.361,0,0,0-.236,6.235c.018.363.585.366.568,0a44.368,44.368,0,0,1,.236-6.235l-.284.284a14.4,14.4,0,0,1,2.8.079.285.285,0,0,0,.284-.284A.291.291,0,0,0,324.447,248.411Zm-.148,8.653q0,3.155-.16,6.306l.284-.284-3.183-.02a.284.284,0,0,0,0,.568l3.183.02a.289.289,0,0,0,.284-.284q.161-3.151.16-6.306A.284.284,0,0,0,324.3,257.063Z" transform="translate(-268.735 -117.988)"/>
      <path id="Path_38058" data-name="Path 38058" d="M324.023,286.462a14.39,14.39,0,0,0-2.8-.08.293.293,0,0,0-.284.284,44.37,44.37,0,0,0-.236,6.235c.018.363.585.366.568,0a44.377,44.377,0,0,1,.236-6.235l-.284.284a14.4,14.4,0,0,1,2.8.079.285.285,0,0,0,.284-.284A.291.291,0,0,0,324.023,286.462Zm8.308-3.79q0,2.314-.117,4.626l.284-.284L330.162,287a.284.284,0,0,0,0,.568l2.335.015a.289.289,0,0,0,.284-.284q.117-2.311.117-4.626A.284.284,0,0,0,332.331,282.672Z" transform="translate(-268.481 -147.787)"/>
      <path id="Path_38059" data-name="Path 38059" d="M395.342,281.067a10.62,10.62,0,0,0-2.051-.058.293.293,0,0,0-.284.284,32.581,32.581,0,0,0-.173,4.573c.018.363.585.366.568,0a32.769,32.769,0,0,1,.173-4.573l-.284.284a10.62,10.62,0,0,1,2.051.058.285.285,0,0,0,.284-.284A.29.29,0,0,0,395.342,281.067Zm-.184,6.422q0,2.314-.117,4.626l.284-.284-2.335-.015a.284.284,0,0,0,0,.568l2.335.015a.289.289,0,0,0,.284-.284q.117-2.311.117-4.626A.284.284,0,0,0,395.158,287.489Z" transform="translate(-331.433 -146.551)"/>
      <path id="Path_38060" data-name="Path 38060" d="M395.015,288.355a10.618,10.618,0,0,0-2.051-.058.293.293,0,0,0-.284.284,32.581,32.581,0,0,0-.173,4.573c.018.363.585.366.568,0a32.769,32.769,0,0,1,.173-4.573l-.284.284a10.615,10.615,0,0,1,2.051.058.285.285,0,0,0,.284-.284A.29.29,0,0,0,395.015,288.355Zm5.275-5.683q0,2.314-.117,4.626l.284-.284L398.121,287a.284.284,0,0,0,0,.568l2.335.015a.289.289,0,0,0,.284-.284q.117-2.311.117-4.626A.284.284,0,0,0,400.289,282.672Z" transform="translate(-331.23 -147.787)"/>
      <path id="Path_38061" data-name="Path 38061" d="M436.633,281.067a10.62,10.62,0,0,0-2.051-.058.293.293,0,0,0-.284.284,32.581,32.581,0,0,0-.173,4.573c.018.363.585.366.568,0a32.764,32.764,0,0,1,.173-4.573l-.284.284a10.62,10.62,0,0,1,2.051.058.285.285,0,0,0,.284-.284A.291.291,0,0,0,436.633,281.067Zm-.184,6.422q0,2.314-.117,4.626l.284-.284-2.335-.015a.284.284,0,0,0,0,.568l2.335.015a.289.289,0,0,0,.284-.284q.117-2.311.117-4.626A.284.284,0,0,0,436.449,287.489Z" transform="translate(-367.515 -146.551)"/>
      <path id="Path_38062" data-name="Path 38062" d="M278.952,199.32a10.618,10.618,0,0,0-2.051-.058.293.293,0,0,0-.284.284,32.576,32.576,0,0,0-.173,4.573c.018.363.585.366.568,0a32.764,32.764,0,0,1,.173-4.573l-.284.284a10.615,10.615,0,0,1,2.051.058.285.285,0,0,0,.284-.284A.291.291,0,0,0,278.952,199.32Zm-9.326-14.241a3.966,3.966,0,0,1,0,2.015l.274-.208c-2.507-.048-5.012-.116-7.518-.174q-1.067-.025-2.136-.045l.2.083c-1.533-1.684-3.145-3.3-4.811-4.848q-.713-.666-1.441-1.317c-.271-.243-.674.156-.4.4,1.762,1.582,3.473,3.221,5.106,4.936.207.217.413.436.618.656.1.1.191.206.285.308s.218.3.368.338a1.937,1.937,0,0,0,.453.018l.472.01.911.019q1.862.042,3.724.088,2.085.051,4.171.093a.288.288,0,0,0,.274-.208,4.566,4.566,0,0,0,0-2.318A.286.286,0,0,0,269.626,185.079Z" transform="translate(-209.958 -58.752)"/>
      <path id="Path_38063" data-name="Path 38063" d="M269.535,161.818a48.516,48.516,0,0,0-6.531-.394c-.623.005-1.248.021-1.87.05l.2.083a65.023,65.023,0,0,0-5.535-5.592q-.8-.738-1.616-1.469c-.271-.243-.674.156-.4.4,1.755,1.582,3.5,3.178,5.148,4.872q.6.621,1.187,1.26c.2.216.39.433.58.652a2.108,2.108,0,0,0,.264.3c.134.1.356.053.515.047q1.9-.074,3.8,0,2.135.085,4.255.357a.285.285,0,0,0,.284-.284A.291.291,0,0,0,269.535,161.818Zm-.751,5.535a108.192,108.192,0,0,1,12.052.02q1.715.1,3.427.252l-.284-.284c0,.593.035,1.185.039,1.776l.284-.284c-2-.109-4.006-.146-6.009-.15-2.048,0-4.094.03-6.14.073q-1.684.036-3.37.076a.284.284,0,0,0,0,.568c2-.045,4.008-.095,6.013-.125,2.046-.03,4.093-.039,6.139,0,1.123.023,2.244.061,3.366.122a.286.286,0,0,0,.284-.284c0-.593-.035-1.185-.039-1.776a.291.291,0,0,0-.284-.284,108.157,108.157,0,0,0-12.046-.4q-1.718.038-3.434.131C268.421,166.805,268.419,167.373,268.784,167.353Z" transform="translate(-209.95 -35.957)"/>
      <path id="Path_38064" data-name="Path 38064" d="M383.25,224.492c-.672-.565-1.39-1.077-2.092-1.607a32.31,32.31,0,0,1-2.5-2.058,2.14,2.14,0,0,0-.322-.293,1.306,1.306,0,0,0-.512-.066c-.28-.019-.561-.038-.842-.054-.5-.029-1.009-.053-1.515-.068-.91-.029-1.821-.032-2.73-.02-1.168.015-2.335.048-3.5.071a.284.284,0,0,0,0,.568c2.271-.044,4.542-.125,6.812-.029.717.03,1.432.074,2.147.127l-.2-.083a31.46,31.46,0,0,0,2.675,2.237c.729.555,1.481,1.085,2.184,1.674a.292.292,0,0,0,.4,0A.28.28,0,0,0,383.25,224.492Zm-1.823,2.214a103.326,103.326,0,0,1,.25,10.88q-.045,1.533-.138,3.063l.284-.284c-3.8-.235-7.61-.225-11.414-.111q-1.6.047-3.192.117c-.363.015-.366.583,0,.568,3.8-.163,7.611-.257,11.417-.149q1.6.045,3.189.143a.288.288,0,0,0,.284-.284,103.012,103.012,0,0,0,.074-10.883q-.07-1.531-.187-3.061a.291.291,0,0,0-.284-.284A.285.285,0,0,0,381.427,226.706Z" transform="translate(-308.913 -93.541)"/>
      <path id="Path_38065" data-name="Path 38065" d="M252.221,120.919a35.422,35.422,0,0,1-.136-5.251.523.523,0,0,1,.748-.019,1.349,1.349,0,0,1,.167.771l.045,4.086" transform="translate(-208.509 -1.945)" fill="#00f5ff"/>
      <path id="Path_38066" data-name="Path 38066" d="M250.528,118.974a35.772,35.772,0,0,1-.136-5.251l-.083.2a.285.285,0,0,1,.271-.077c.1.029.131.214.145.326a5.579,5.579,0,0,1,.016.65c0,.251.005.5.009.754q.017,1.493.033,2.986a.284.284,0,0,0,.568,0q-.013-1.226-.026-2.451c-.005-.419-.009-.838-.014-1.257a3.283,3.283,0,0,0-.09-1.048.729.729,0,0,0-.693-.532.91.91,0,0,0-.419.1.468.468,0,0,0-.286.415c-.05.811-.048,1.629-.029,2.44.02.918.078,1.834.169,2.748a.292.292,0,0,0,.284.284A.287.287,0,0,0,250.528,118.974Z" transform="translate(-206.532 0)"/>
      <path id="Path_38067" data-name="Path 38067" d="M258.224,120.762c1.086-.058,2.159.2,3.245.172a3.742,3.742,0,0,0,2.754-1.159c.2-.218.361-.464.534-.7s-.159-.508-.389-.389a2.594,2.594,0,0,1-2.412-.308,11.878,11.878,0,0,0-2.48-1.318,2.745,2.745,0,0,0-1.559-.014c-.348.109-.2.656.151.548a3.188,3.188,0,0,1,2.557.633,6.743,6.743,0,0,0,2.512,1.178,2.464,2.464,0,0,0,1.518-.23l-.389-.389c-.111.151-.217.307-.333.453a2.938,2.938,0,0,1-1.024.818,5.4,5.4,0,0,1-2.917.223,11.7,11.7,0,0,0-1.77-.086C257.861,120.213,257.858,120.78,258.224,120.762Z" transform="translate(-213.468 -3.202)"/>
    </g>
    <path id="Path_38497" data-name="Path 38497" d="M2216.29,1024.122a3.581,3.581,0,1,1,.425-5.047A3.582,3.582,0,0,1,2216.29,1024.122Z" transform="translate(-2055.166 -679.704)"/>
    <path id="Path_38588" data-name="Path 38588" d="M2211.481,1023.163a3.038,3.038,0,1,0-.36-4.281A3.039,3.039,0,0,0,2211.481,1023.163Z" transform="translate(-1940.254 -640.543)"/>
    <path id="Path_38585" data-name="Path 38585" d="M2211.955,1025.521a4.374,4.374,0,1,0-.519-6.164A4.375,4.375,0,0,0,2211.955,1025.521Z" transform="translate(-1919.301 -846.004)"/>
    <path id="Path_38498" data-name="Path 38498" d="M1996.817,1055.578a.432.432,0,0,1-.192-.045.423.423,0,0,1-.186-.569c.181-.356,4.5-8.742,11.922-10.723,3.312-.884,6.643-.018,9.864.817,4.026,1.045,7.829,2.03,11.115-.539,5.982-4.676,9.666-12.352,9.7-12.429a.425.425,0,1,1,.768.363c-.038.079-3.8,7.932-9.946,12.735-3.617,2.827-7.8,1.743-11.851.692-3.116-.808-6.339-1.643-9.432-.819-7.052,1.882-11.339,10.2-11.383,10.286A.429.429,0,0,1,1996.817,1055.578Z" transform="translate(-1879.841 -691.209)" stroke="#000" stroke-width="1"/>
    <path id="Path_38587" data-name="Path 38587" d="M2032.892,1051.975a.365.365,0,0,0,.162-.038.359.359,0,0,0,.158-.483c-.153-.3-3.815-7.414-10.112-9.095-2.809-.75-5.634-.015-8.366.693-3.414.886-6.64,1.722-9.427-.457-5.073-3.966-8.2-10.476-8.229-10.542a.36.36,0,1,0-.651.308c.032.067,3.226,6.728,8.435,10.8,3.068,2.4,6.617,1.478,10.052.587,2.643-.685,5.377-1.394,8-.694,5.981,1.6,9.618,8.653,9.654,8.724A.364.364,0,0,0,2032.892,1051.975Z" transform="translate(-1724.22 -652.433)" stroke="#101010" stroke-width="1"/>
    <path id="Path_38586" data-name="Path 38586" d="M2048.953,1060.832a.528.528,0,0,0,.234-.055.516.516,0,0,0,.228-.7c-.221-.435-5.493-10.677-14.561-13.1-4.045-1.08-8.114-.022-12.048,1-4.917,1.276-9.562,2.479-13.576-.658-7.306-5.712-11.805-15.086-11.849-15.181a.519.519,0,1,0-.938.444c.046.1,4.645,9.688,12.147,15.554,4.418,3.453,9.529,2.128,14.475.845,3.806-.987,7.743-2.007,11.52-1,8.613,2.3,13.85,12.461,13.9,12.563A.525.525,0,0,0,2048.953,1060.832Z" transform="translate(-1702.376 -856.948)" stroke="#000" stroke-width="2"/>
    <g id="Group_37344" data-name="Group 37344" transform="translate(77.103 360.371)">
      <path id="Path_38574" data-name="Path 38574" d="M1854.1,1143.36l-34.029,26.435-39.557,4.056,34.8-28.21Z" transform="translate(-1780.085 -1142.936)" fill="#fff"/>
      <path id="Path_38575" data-name="Path 38575" d="M1778.584,1172.356a.427.427,0,0,1-.392-.262.422.422,0,0,1,.125-.492l34.8-28.21a.423.423,0,0,1,.242-.094l38.787-2.281a.43.43,0,0,1,.421.275.426.426,0,0,1-.137.484l-34.029,26.435a.414.414,0,0,1-.217.087l-39.557,4.056A.324.324,0,0,1,1778.584,1172.356Zm34.962-28.219-33.588,27.227,38.019-3.9,32.852-25.522Z" transform="translate(-1778.159 -1141.016)" stroke="#000" stroke-width="1"/>
      <path id="Path_38577" data-name="Path 38577" d="M1778.589,1172.355a.424.424,0,0,1-.266-.754l34.8-28.21a.426.426,0,0,1,.242-.094l38.785-2.281a.425.425,0,0,1,.049.848l-38.649,2.274-34.694,28.125A.432.432,0,0,1,1778.589,1172.355Z" transform="translate(-1778.164 -1141.015)" stroke="#000" stroke-width="1"/>
      <path id="Path_38578" data-name="Path 38578" d="M1923.867,1215.755l-.727-11.048s-20.081-5.573-33.47,13.689l7.543,8.892Z" transform="translate(-1869.513 -1192.58)" fill="#fff" stroke="#000" stroke-width="1"/>
      <path id="Path_38579" data-name="Path 38579" d="M1895.291,1225.943a.425.425,0,0,1-.323-.15l-7.543-8.892a.426.426,0,0,1-.025-.517c13.406-19.288,33.731-13.913,33.933-13.856a.423.423,0,0,1,.309.381l.727,11.048a.425.425,0,0,1-.255.417l-26.654,11.533A.446.446,0,0,1,1895.291,1225.943Zm-7.008-9.342,7.128,8.4,26.092-11.289-.687-10.439A31.528,31.528,0,0,0,1888.283,1216.6Z" transform="translate(-1867.59 -1190.81)" stroke="#040404" stroke-width="1"/>
      <g id="Group_37342" data-name="Group 37342" transform="translate(25.305 20.087)">
        <path id="Path_38591" data-name="Path 38591" d="M15.24-.012C23.705.18,30.6,1.858,30.648,3.736S23.867,6.978,15.4,6.786.038,4.915-.007,3.038,6.775-.205,15.24-.012Z" transform="matrix(0.918, -0.397, 0.397, 0.918, 0.221, 11.828)"/>
      </g>
      <g id="Group_37343" data-name="Group 37343" transform="translate(27.208 21.971)">
        <path id="Path_38580" data-name="Path 38580" d="M1931.393,1276.686c-1.437,0-2.312-.35-2.613-1.048-.46-1.068.592-2.563,3.128-4.44a48.552,48.552,0,0,1,9.21-5.1c6.885-2.99,14.379-4.8,15.378-2.491h0c1,2.314-5.452,6.549-12.339,9.539a48.521,48.521,0,0,1-10.01,3.244A15.706,15.706,0,0,1,1931.393,1276.686Zm22.537-13.268c-2.347,0-6.814,1.017-12.472,3.471a47.766,47.766,0,0,0-9.04,5c-2.416,1.79-3.046,2.955-2.851,3.407s1.472.79,4.427.249a47.744,47.744,0,0,0,9.824-3.187c8.1-3.516,12.383-7.265,11.891-8.407h0C1955.561,1263.606,1954.941,1263.417,1953.93,1263.417Z" transform="translate(-1928.96 -1262.56)"/>
      </g>
    </g>
    <g id="Group_37354" data-name="Group 37354" transform="translate(279.357 396.151)">
      <path id="Path_38574-2" data-name="Path 38574" d="M1780.51,1143.36l28.862,22.421,33.55,3.44-29.516-23.927Z" transform="translate(-1780.149 -1143)" fill="#fff" stroke="#000" stroke-width="2"/>
      <path id="Path_38575-2" data-name="Path 38575" d="M1840.93,1167.6a.362.362,0,0,0,.333-.222.358.358,0,0,0-.106-.417l-29.515-23.927a.358.358,0,0,0-.205-.08l-32.9-1.935a.365.365,0,0,0-.357.233.361.361,0,0,0,.117.411l28.862,22.421a.352.352,0,0,0,.184.073l33.55,3.44A.271.271,0,0,0,1840.93,1167.6Zm-29.653-23.934,28.488,23.093-32.246-3.307-27.864-21.647Z" transform="translate(-1778.157 -1141.016)"/>
      <path id="Path_38577-2" data-name="Path 38577" d="M1840.939,1167.6a.36.36,0,0,0,.225-.639l-29.516-23.927a.361.361,0,0,0-.206-.08l-32.9-1.935a.36.36,0,0,0-.042.719l32.781,1.929,29.426,23.854A.366.366,0,0,0,1840.939,1167.6Z" transform="translate(-1778.166 -1141.015)"/>
      <path id="Path_38578-2" data-name="Path 38578" d="M1889.67,1213.964l.616-9.371s17.032-4.727,28.388,11.611l-6.4,7.542Z" transform="translate(-1872.637 -1194.308)" fill="#fff" stroke="#000" stroke-width="2"/>
      <path id="Path_38579-2" data-name="Path 38579" d="M1910.29,1222.276a.361.361,0,0,0,.274-.127l6.4-7.542a.361.361,0,0,0,.021-.438,27.468,27.468,0,0,0-28.781-11.752.358.358,0,0,0-.262.323l-.616,9.371a.36.36,0,0,0,.216.354l22.607,9.782A.379.379,0,0,0,1910.29,1222.276Zm5.944-7.923-6.045,7.126-22.13-9.575.583-8.854A26.741,26.741,0,0,1,1916.234,1214.353Z" transform="translate(-1870.651 -1192.478)"/>
      <g id="Group_37342-2" data-name="Group 37342" transform="translate(15.867 17.048)">
        <ellipse id="Ellipse_75" data-name="Ellipse 75" cx="12.326" cy="2.849" rx="12.326" ry="2.849" transform="translate(22.631 15.017) rotate(-156.607)" stroke="#000" stroke-width="2"/>
      </g>
      <g id="Group_37343-2" data-name="Group 37343" transform="translate(16.616 18.635)">
        <path id="Path_38580-2" data-name="Path 38580" d="M1949.834,1274.382c1.207,0,1.941-.293,2.194-.877.386-.894-.5-2.145-2.626-3.716a40.8,40.8,0,0,0-7.732-4.265c-5.78-2.5-12.071-4.021-12.909-2.085h0c-.837,1.937,4.576,5.481,10.358,7.983a40.843,40.843,0,0,0,8.4,2.715A13.236,13.236,0,0,0,1949.834,1274.382Zm-18.919-11.1c1.97,0,5.72.851,10.47,2.905a40.139,40.139,0,0,1,7.589,4.184c2.028,1.5,2.557,2.473,2.393,2.852s-1.236.661-3.716.208a40.16,40.16,0,0,1-8.247-2.668c-6.8-2.942-10.4-6.081-9.983-7.036h0C1929.545,1263.436,1930.065,1263.278,1930.914,1263.278Z" transform="translate(-1928.674 -1262.56)"/>
      </g>
    </g>
    <g id="Group_37353" data-name="Group 37353" transform="translate(304.362 199.002)">
      <path id="Path_38574-3" data-name="Path 38574" d="M1780.51,1143.36l41.562,32.287,48.314,4.954-42.505-34.455Z" transform="translate(-1779.99 -1142.842)" fill="#fff" stroke="#000" stroke-width="2"/>
      <path id="Path_38575-3" data-name="Path 38575" d="M1868.552,1179.294a.521.521,0,0,0,.479-.32.516.516,0,0,0-.152-.6l-42.5-34.455a.517.517,0,0,0-.3-.115l-47.373-2.786a.526.526,0,0,0-.515.336.52.52,0,0,0,.168.592l41.562,32.287a.507.507,0,0,0,.265.106l48.314,4.954A.4.4,0,0,0,1868.552,1179.294Zm-42.7-34.466,41.024,33.254-46.435-4.762-40.125-31.172Z" transform="translate(-1778.156 -1141.016)"/>
      <path id="Path_38577-3" data-name="Path 38577" d="M1868.562,1179.294a.518.518,0,0,0,.324-.921l-42.505-34.455a.518.518,0,0,0-.3-.115l-47.371-2.786a.519.519,0,1,0-.06,1.036l47.206,2.777,42.375,34.352A.529.529,0,0,0,1868.562,1179.294Z" transform="translate(-1778.166 -1141.015)"/>
      <path id="Path_38578-3" data-name="Path 38578" d="M1889.67,1218.367l.888-13.494s24.527-6.807,40.88,16.72l-9.213,10.86Z" transform="translate(-1865.142 -1190.061)" fill="#fff" stroke="#000" stroke-width="2"/>
      <path id="Path_38579-3" data-name="Path 38579" d="M1920.4,1231.288a.519.519,0,0,0,.4-.183l9.213-10.86a.521.521,0,0,0,.031-.631c-16.373-23.557-41.2-16.994-41.445-16.923a.516.516,0,0,0-.377.466l-.887,13.494a.519.519,0,0,0,.311.51l32.554,14.086A.542.542,0,0,0,1920.4,1231.288Zm8.56-11.41-8.706,10.262-31.868-13.788.839-12.75C1892.257,1202.911,1914.073,1198.826,1928.956,1219.878Z" transform="translate(-1863.314 -1188.378)"/>
      <g id="Group_37342-3" data-name="Group 37342" transform="translate(22.886 24.549)">
        <ellipse id="Ellipse_75-2" data-name="Ellipse 75" cx="17.735" cy="4.109" rx="17.735" ry="4.109" transform="translate(32.555 21.625) rotate(-156.607)" stroke="#000" stroke-width="2"/>
      </g>
      <g id="Group_37343-3" data-name="Group 37343" transform="translate(23.927 26.835)">
        <path id="Path_38580-3" data-name="Path 38580" d="M1959.145,1279.585c1.738,0,2.8-.422,3.16-1.263.556-1.287-.715-3.089-3.782-5.352a58.752,58.752,0,0,0-11.134-6.142c-8.323-3.6-17.382-5.791-18.59-3h0c-1.205,2.789,6.59,7.893,14.916,11.5a58.792,58.792,0,0,0,12.1,3.91A19.028,19.028,0,0,0,1959.145,1279.585Zm-27.245-15.991c2.837,0,8.237,1.225,15.077,4.184a57.775,57.775,0,0,1,10.929,6.025c2.921,2.157,3.683,3.561,3.446,4.106s-1.78.952-5.352.3a57.845,57.845,0,0,1-11.876-3.842c-9.79-4.237-14.969-8.756-14.375-10.132h0C1929.928,1263.821,1930.677,1263.593,1931.9,1263.593Z" transform="translate(-1928.674 -1262.56)"/>
      </g>
    </g>
  </g>
</svg>
