<svg xmlns="http://www.w3.org/2000/svg" width="95.119" height="57.712" viewBox="0 0 95.119 57.712">
  <g id="Group_37757" data-name="Group 37757" transform="translate(1693.382 -1026.808)">
    <path id="Path_39320" data-name="Path 39320" d="M1123.37,570.066s-9.015-6.321-7.826-12.651,8.182-4.245,9.892,0c0,0-4.537-20.106,2.752-21.67s8.628,10.575,7.809,15.117c0,0,2.975-12.66,7.364-8.638s0,14.6,0,14.6,4.976-5.362,7.286,1.266-4,11.8-4,11.8l-23.282.179Z" transform="translate(-2749.419 512.932)" fill="rgba(246,216,84,0.48)"/>
    <path id="Path_39318" data-name="Path 39318" d="M1128.373,591.8s-14.7-10.307-12.76-20.629,13.342-6.921,16.13,0c0,0-7.4-32.785,4.487-35.335s14.068,17.243,12.734,24.65c0,0,4.851-20.644,12.008-14.085s0,23.8,0,23.8,8.113-8.743,11.88,2.065-6.516,19.246-6.516,19.246l-37.963.291Z" transform="translate(-2808.818 491.201)" fill="rgba(246,216,84,0.48)"/>
    <path id="Path_39321" data-name="Path 39321" d="M1537.348,1943a34.833,34.833,0,0,1,4.615-18.645l.458.265a34.3,34.3,0,0,0-4.544,18.359Zm-3.234-.177-.53-.007.1-7.669c.028-2.17.057-4.413-.118-6.606a35.432,35.432,0,0,0-2.478-10.483l.491-.2a35.96,35.96,0,0,1,2.515,10.64c.177,2.217.148,4.473.119,6.655Zm8.334.066-.516-.121a21.071,21.071,0,0,1,5.3-9.76l.381.366A20.534,20.534,0,0,0,1542.448,1942.889Zm-13.2-.042c-.641-3.172-2.921-6.339-6.774-9.415l.33-.413c3.953,3.155,6.3,6.427,6.963,9.724Z" transform="translate(-3151.165 -859)" stroke="#000" stroke-width="1"/>
    <path id="Path_39319" data-name="Path 39319" d="M1546.73,1958.854a56.8,56.8,0,0,1,7.526-30.4l.746.433a55.932,55.932,0,0,0-7.41,29.936Zm-5.274-.289-.864-.011.163-12.506c.046-3.538.093-7.2-.193-10.772a57.764,57.764,0,0,0-4.041-17.094l.8-.323a58.647,58.647,0,0,1,4.1,17.35c.289,3.615.242,7.294.194,10.852Zm13.59.108-.841-.2a34.362,34.362,0,0,1,8.643-15.915l.622.6A33.486,33.486,0,0,0,1555.046,1958.673Zm-21.53-.069c-1.045-5.173-4.763-10.337-11.046-15.352l.539-.674c6.446,5.145,10.267,10.479,11.354,15.856Z" transform="translate(-3208.404 -875.305)" stroke="#000" stroke-width="1"/>
  </g>
</svg>
