<svg xmlns="http://www.w3.org/2000/svg" width="258.069" height="110.373" viewBox="0 0 258.069 110.373">
  <g id="Group_37687" data-name="Group 37687" transform="translate(-152.901 -535.986)">
    <g id="Group_37500" data-name="Group 37500" transform="translate(220.551 558.022)">
      <path id="Path_39084" data-name="Path 39084" d="M4500.189-1532.594s-25.823-15.366-7.767-37.48S4531-1572.74,4531-1572.74s5.065-44.85,46.01-45.326,44.949,31.662,44.949,31.662,12.536-10.1,23,0,4.248,24.33,4.248,24.33,18.307-1.206,22.335,12.75-7.47,16.579-7.47,16.579h-164.5" transform="translate(-4483.002 1620.072)" stroke="#000" stroke-width="2"/>
      <path id="Path_39083" data-name="Path 39083" d="M4500.134-1532.589s-25.769-15.37-7.712-37.484S4531-1572.74,4531-1572.74s5.065-44.85,46.011-45.327,44.948,31.662,44.948,31.662,12.536-10.1,23.005,0,4.247,24.33,4.247,24.33,18.308-1.206,22.335,12.75-7.47,16.579-7.47,16.579h-164.5" transform="translate(-4486.002 1618.072)" fill="#cfecf1" stroke="#000" stroke-width="2"/>
    </g>
    <g id="Group_37501" data-name="Group 37501" transform="translate(153.951 536.986)">
      <path id="Path_39084-2" data-name="Path 39084" d="M4493.479-1570.261s-13.6-8.594-4.091-20.964,20.319-1.491,20.319-1.491,2.668-25.086,24.234-25.353,23.674,17.71,23.674,17.71,6.6-5.649,12.117,0,2.237,13.608,2.237,13.608,9.643-.675,11.764,7.132-3.935,9.273-3.935,9.273h-86.642" transform="translate(-4484.434 1619.12)" stroke="#000" stroke-width="2"/>
      <path id="Path_39083-2" data-name="Path 39083" d="M4493.445-1570.259s-13.572-8.6-4.062-20.966,20.32-1.491,20.32-1.491,2.667-25.086,24.234-25.353,23.674,17.71,23.674,17.71,6.6-5.649,12.117,0,2.237,13.608,2.237,13.608,9.643-.675,11.764,7.132-3.934,9.273-3.934,9.273h-86.642" transform="translate(-4486.002 1618.072)" fill="#cfecf1" stroke="#000" stroke-width="2"/>
    </g>
  </g>
</svg>
