<svg xmlns="http://www.w3.org/2000/svg" width="359.365" height="358.116" viewBox="0 0 359.365 358.116">
  <g id="Group_37585" data-name="Group 37585" transform="translate(-1476.635 -328.345)">
    <path id="Path_38437" data-name="Path 38437" d="M315.552,1923.881s16.985-13.139,14.827-24.67-14.839-7.733-17.941,0c0,0,8.229-36.627-4.991-39.476S291.8,1879,293.284,1887.273c0,0-5.4-23.063-13.355-15.736s0,26.59,0,26.59-9.024-9.767-13.214,2.307a16.588,16.588,0,0,0-.917,6.12c.343,9.075,8.067,17.22,17.1,17.22l32.658.111Z" transform="translate(1505.431 -1247.684)" fill="#fbecad"/>
    <path id="Path_38824" data-name="Path 38824" d="M315.552,1923.881s16.985-13.139,14.827-24.67-14.839-7.733-17.941,0c0,0,8.229-36.627-4.991-39.476S291.8,1879,293.284,1887.273c0,0-5.4-23.063-13.355-15.736s0,26.59,0,26.59-9.024-9.767-13.214,2.307a16.588,16.588,0,0,0-.917,6.12c.343,9.075,8.067,17.22,17.1,17.22l32.658.111Z" transform="translate(1284.431 -1247.684)" fill="#fbecad"/>
    <path id="Path_38438" data-name="Path 38438" d="M330.028,2002.028a63.172,63.172,0,0,0-8.37-33.815l-.83.481a62.207,62.207,0,0,1,8.241,33.3Zm5.866-.323.961-.013-.182-13.909c-.051-3.935-.1-8,.214-11.98a64.26,64.26,0,0,1,4.495-19.013l-.89-.359a65.22,65.22,0,0,0-4.562,19.3c-.321,4.021-.269,8.112-.216,12.069Zm-15.115.12.935-.22a38.219,38.219,0,0,0-9.612-17.7l-.692.665A37.241,37.241,0,0,1,320.779,2001.824Zm23.947-.076c1.162-5.753,5.3-11.5,12.286-17.075l-.6-.75c-7.17,5.722-11.419,11.655-12.629,17.636Z" transform="translate(1470.712 -1325.828)" stroke="#000" stroke-width="1"/>
    <path id="Path_38439" data-name="Path 38439" d="M1206.258,418.492a12.2,12.2,0,0,1-1.513,3.875,9.558,9.558,0,0,1-2.464,2.7,9.026,9.026,0,0,1-3.222,1.486,11.022,11.022,0,0,1-3.786.225l-1.682,6.672c-.089.321-.4.51-.933.563a7.478,7.478,0,0,1-2.21-.227c-.6-.131-1.1-.252-1.5-.369a4.482,4.482,0,0,1-.93-.36,1.107,1.107,0,0,1-.451-.41.862.862,0,0,1-.083-.53l1.464-7.885a6.543,6.543,0,0,1,.389-1.393,1.884,1.884,0,0,1,.583-.783,1.49,1.49,0,0,1,.817-.291,3.915,3.915,0,0,1,1.057.1l.38.084a6.245,6.245,0,0,0,2.582.08,5.091,5.091,0,0,0,1.989-.844,4.772,4.772,0,0,0,1.38-1.575,7.755,7.755,0,0,0,.792-2.128,7.644,7.644,0,0,0,.154-2.466,5.108,5.108,0,0,0-.7-2.114,5,5,0,0,0-1.609-1.614,7.749,7.749,0,0,0-2.553-1,10.083,10.083,0,0,0-2.5-.262,13.12,13.12,0,0,0-1.949.2c-.554.105-1.017.214-1.391.321a1.9,1.9,0,0,1-.832.1.588.588,0,0,1-.327-.2.929.929,0,0,1-.174-.507,4.846,4.846,0,0,1,.025-.961,14.252,14.252,0,0,1,.263-1.535,8.474,8.474,0,0,1,.383-1.366,1.337,1.337,0,0,1,.507-.628,4.088,4.088,0,0,1,1.17-.412,12.339,12.339,0,0,1,1.965-.282,20.625,20.625,0,0,1,2.475-.014,16.906,16.906,0,0,1,2.758.374,15.585,15.585,0,0,1,5.287,2.076,10.542,10.542,0,0,1,3.213,3.187,9.5,9.5,0,0,1,1.384,3.883A12.372,12.372,0,0,1,1206.258,418.492Zm-13.411,22.926a8.554,8.554,0,0,1-.585,1.832,2.41,2.41,0,0,1-2.228,1.489,8.719,8.719,0,0,1-3.7-.808,2.418,2.418,0,0,1-1.393-2.279,8.63,8.63,0,0,1,.233-1.91,8.929,8.929,0,0,1,.594-1.874,2.688,2.688,0,0,1,.9-1.111,2.562,2.562,0,0,1,1.328-.421,7.345,7.345,0,0,1,1.916.205,7.213,7.213,0,0,1,1.787.6,2.561,2.561,0,0,1,1.046.939,2.7,2.7,0,0,1,.352,1.384A8.9,8.9,0,0,1,1192.847,441.418Z" transform="translate(462.527 -51.122)" fill="#f6d854"/>
    <path id="Path_38440" data-name="Path 38440" d="M1128.109,263.546a12.59,12.59,0,0,1-.8,3.066,5.72,5.72,0,0,1-1.477,1.62,5.42,5.42,0,0,1-1.93.891,6.6,6.6,0,0,1-2.268.135l-1.008,4c-.054.193-.24.305-.559.338a4.451,4.451,0,0,1-1.324-.136q-.537-.117-.9-.222a2.763,2.763,0,0,1-.557-.215.66.66,0,0,1-.271-.247.521.521,0,0,1-.051-.318l.877-4.729a4.016,4.016,0,0,1,.233-.836,1.133,1.133,0,0,1,.349-.469.889.889,0,0,1,.488-.175,2.331,2.331,0,0,1,.634.062l.227.049a3.719,3.719,0,0,0,1.547.047,3,3,0,0,0,1.191-.507,2.892,2.892,0,0,0,.828-.944,4.871,4.871,0,0,0,.567-2.756,3.083,3.083,0,0,0-.421-1.269,2.992,2.992,0,0,0-.964-.969,4.644,4.644,0,0,0-1.529-.6,6.072,6.072,0,0,0-1.5-.156,7.8,7.8,0,0,0-1.168.12c-.332.064-.61.129-.833.193a1.113,1.113,0,0,1-.5.062.35.35,0,0,1-.2-.12.551.551,0,0,1-.1-.3,3.044,3.044,0,0,1,.015-.576,8.863,8.863,0,0,1,.158-.92,5.415,5.415,0,0,1,.229-.82.8.8,0,0,1,.3-.376,2.45,2.45,0,0,1,.7-.247,7.481,7.481,0,0,1,1.177-.169,12.467,12.467,0,0,1,1.484-.009,10.056,10.056,0,0,1,1.653.225,9.336,9.336,0,0,1,3.167,1.246,6.331,6.331,0,0,1,1.925,1.911,5.694,5.694,0,0,1,.83,2.329A3.8,3.8,0,0,1,1128.109,263.546Zm-7.931,14.494a5.165,5.165,0,0,1-.35,1.1,1.542,1.542,0,0,1-.534.651,1.571,1.571,0,0,1-.8.242,4.336,4.336,0,0,1-1.124-.118,4.411,4.411,0,0,1-1.095-.367,1.585,1.585,0,0,1-.621-.553,1.557,1.557,0,0,1-.214-.815,5.158,5.158,0,0,1,.14-1.146,5.374,5.374,0,0,1,.356-1.124,1.6,1.6,0,0,1,.538-.667,1.534,1.534,0,0,1,.8-.253,4.326,4.326,0,0,1,1.148.124,4.265,4.265,0,0,1,1.07.362,1.549,1.549,0,0,1,.627.564,1.616,1.616,0,0,1,.211.831A5.082,5.082,0,0,1,1120.177,278.04Zm44.9-19.8a7.358,7.358,0,0,1-.906,2.326,5.72,5.72,0,0,1-1.476,1.62,5.421,5.421,0,0,1-1.931.891,6.593,6.593,0,0,1-2.268.135l-1.008,4c-.054.193-.24.305-.559.338a4.452,4.452,0,0,1-1.324-.136c-.358-.078-.657-.153-.9-.222a2.763,2.763,0,0,1-.558-.215.661.661,0,0,1-.271-.247.521.521,0,0,1-.051-.318l.877-4.729a4.009,4.009,0,0,1,.233-.836,1.136,1.136,0,0,1,.349-.469.89.89,0,0,1,.489-.175,2.327,2.327,0,0,1,.634.062l.227.049a3.719,3.719,0,0,0,1.547.047,3,3,0,0,0,1.191-.507,2.892,2.892,0,0,0,.828-.944,4.872,4.872,0,0,0,.567-2.756,3.08,3.08,0,0,0-.421-1.269,2.994,2.994,0,0,0-.964-.969,4.644,4.644,0,0,0-1.529-.6,6.067,6.067,0,0,0-1.5-.156,7.8,7.8,0,0,0-1.168.12c-.332.064-.61.129-.834.193a1.113,1.113,0,0,1-.5.062.35.35,0,0,1-.2-.12.552.552,0,0,1-.1-.3,3.067,3.067,0,0,1,.015-.576,8.824,8.824,0,0,1,.158-.92,5.413,5.413,0,0,1,.229-.82.8.8,0,0,1,.3-.376,2.452,2.452,0,0,1,.7-.247,7.479,7.479,0,0,1,1.177-.169,12.479,12.479,0,0,1,1.484-.009,10.059,10.059,0,0,1,1.653.225,9.338,9.338,0,0,1,3.167,1.245,6.329,6.329,0,0,1,1.925,1.911,5.7,5.7,0,0,1,.83,2.329A7.344,7.344,0,0,1,1165.082,258.237Zm-8.034,13.753a5.166,5.166,0,0,1-.35,1.1,1.541,1.541,0,0,1-.534.651,1.573,1.573,0,0,1-.8.242,4.332,4.332,0,0,1-1.124-.118,4.4,4.4,0,0,1-1.1-.367,1.585,1.585,0,0,1-.621-.553,1.554,1.554,0,0,1-.214-.815,5.151,5.151,0,0,1,.14-1.146,5.374,5.374,0,0,1,.356-1.124,1.6,1.6,0,0,1,.537-.667,1.535,1.535,0,0,1,.8-.253,4.324,4.324,0,0,1,1.148.124,4.26,4.26,0,0,1,1.07.362,1.549,1.549,0,0,1,.627.564,1.617,1.617,0,0,1,.211.831A5.184,5.184,0,0,1,1157.047,271.99Z" transform="translate(519.852 78.371)" fill="rgba(246,216,84,0.48)"/>
    <path id="Path_38441" data-name="Path 38441" d="M1541.088,1963.456a63.175,63.175,0,0,0-8.37-33.815l-.83.481a62.211,62.211,0,0,1,8.241,33.3Zm5.866-.321.961-.013-.182-13.909c-.051-3.935-.1-8,.214-11.981a64.256,64.256,0,0,1,4.495-19.012l-.89-.359a65.219,65.219,0,0,0-4.562,19.3c-.321,4.021-.269,8.112-.216,12.07Zm-15.115.12.935-.22a38.218,38.218,0,0,0-9.613-17.7l-.692.665A37.242,37.242,0,0,1,1531.839,1963.254Zm23.947-.076c1.162-5.753,5.3-11.5,12.286-17.075l-.6-.75c-7.17,5.723-11.419,11.656-12.629,17.636Z" transform="translate(38.715 -1287.256)" stroke="#000" stroke-width="1"/>
    <path id="Path_38442" data-name="Path 38442" d="M1495.018,521.676s-7.451-12.589-9.115-15.674-2.09-8.407-4.853-8.4-1.4,5.539-1.4,5.539-4.642-9.024-7.2-8.706-.321,5.254-.321,5.254-3.089-4.486-4.927-3.022.162,4.3.162,4.3-2.873-2.552-4.108-1.042,1.622,6.658,1.622,6.658-3.082-2.241-3.273,1.829,12.017,19.643,15.3,22.717Z" transform="translate(123.823 -124.531)" fill="#fff"/>
    <path id="Path_38443" data-name="Path 38443" d="M1474.743,529.437a.476.476,0,0,0,.222-.055l18.115-9.454a.484.484,0,0,0,.24-.294.478.478,0,0,0-.049-.376c-.075-.125-7.464-12.616-9.106-15.658a22.066,22.066,0,0,1-1.322-3.385c-.855-2.59-1.742-5.268-3.95-5.268h0a1.918,1.918,0,0,0-1.564.736,4.5,4.5,0,0,0-.654,2.8c-1.642-2.82-4.406-6.954-6.443-6.7a1.725,1.725,0,0,0-1.353.868,4,4,0,0,0-.14,2.655,5.171,5.171,0,0,0-2.555-1.564,1.828,1.828,0,0,0-1.442.376,2.855,2.855,0,0,0-.761,3.24,3.8,3.8,0,0,0-2.01-.556,1.758,1.758,0,0,0-1.248.647c-1.033,1.262.1,4.188.933,5.944a2.086,2.086,0,0,0-1.42.1c-.776.372-1.2,1.291-1.271,2.728-.209,4.455,12.445,20.277,15.453,23.09A.478.478,0,0,0,1474.743,529.437Zm17.445-10.125-17.36,9.06c-3.592-3.549-15.082-18.351-14.908-22.109.035-.726.187-1.647.726-1.907.574-.276,1.484.227,1.785.443a.481.481,0,0,0,.7-.623c-1.12-2.019-2.379-5.256-1.671-6.122a.785.785,0,0,1,.579-.3c.957-.074,2.372.981,2.837,1.395a.479.479,0,0,0,.71-.634c-.016-.025-1.714-2.486-.254-3.65a.847.847,0,0,1,.7-.176c1.279.189,2.982,2.3,3.531,3.095a.48.48,0,0,0,.832-.47c-.525-1.162-1.177-3.329-.69-4.2a.758.758,0,0,1,.634-.385.663.663,0,0,1,.087-.005c1.569,0,4.8,4.9,6.625,8.456a.48.48,0,0,0,.893-.332c-.229-.935-.652-3.581.129-4.577a.95.95,0,0,1,.81-.367h0c1.515,0,2.256,2.239,3.04,4.611a22.763,22.763,0,0,0,1.387,3.54C1484.8,506.791,1490.859,517.064,1492.188,519.313Z" transform="translate(125.982 -122.358)" stroke="#000" stroke-width="1"/>
    <path id="Path_38444" data-name="Path 38444" d="M1545,529.889a.479.479,0,0,0,.4-.746c-.63-.944-3.071-4.715-3.071-4.715l-.806.521s2.446,3.779,3.078,4.727A.482.482,0,0,0,1545,529.889Zm-3.48,2.472a.48.48,0,0,0,.338-.823c-1.767-1.734-6.99-10.461-7.043-10.549a.479.479,0,1,0-.823.492c.216.363,5.341,8.922,7.2,10.742A.465.465,0,0,0,1541.522,532.36Zm-4.34,1.845a.479.479,0,0,0,.291-.861c-1.213-.926-5.77-8.309-7.424-11.074a.479.479,0,0,0-.823.492c.618,1.033,6.086,10.137,7.666,11.345A.476.476,0,0,0,1537.182,534.205Zm-3.983,2.719a.479.479,0,0,0,.329-.83c-.894-.839-4.616-6.225-5.975-8.23a.48.48,0,1,0-.8.538c.2.3,4.958,7.31,6.115,8.392A.471.471,0,0,0,1533.2,536.924Z" transform="translate(61.542 -146.079)" stroke="#000" stroke-width="1"/>
    <g id="Group_37301" data-name="Group 37301" transform="translate(1478.53 328.345)">
      <path id="Path_38445" data-name="Path 38445" d="M1292.89,1066.73l56.652,3.156,22.823,15.228-18.549,15.306-58.8-1.605Z" transform="translate(-1201.415 -921.246)"/>
      <path id="Path_38446" data-name="Path 38446" d="M1802.87,1192.22l-69.439,17.36-22.9,20.317,26.963,10.341,68.141-15.936Z" transform="translate(-1710.53 -1023.947)" fill="#fff" stroke="#000" stroke-width="2"/>
      <rect id="Rectangle_2544" data-name="Rectangle 2544" width="1.28" height="57.355" transform="translate(32.545 190.969) rotate(-104.035)" stroke="#000" stroke-width="1"/>
      <rect id="Rectangle_2545" data-name="Rectangle 2545" width="1.28" height="57.355" transform="translate(32.107 199.874) rotate(-104.035)" stroke="#000" stroke-width="1"/>
      <rect id="Rectangle_2546" data-name="Rectangle 2546" width="1.28" height="37.731" transform="translate(50.585 203.543) rotate(-103.321)" stroke="#000" stroke-width="1"/>
      <path id="Path_38447" data-name="Path 38447" d="M1819.2,699.828l-64.231-31.56-23.133-29.987,22.549-6.921,61.786,29.6Z" transform="translate(-1727.97 -564.943)" fill="#a4e3db" stroke="#000" stroke-width="2"/>
      <rect id="Rectangle_2547" data-name="Rectangle 2547" width="46.319" height="1.28" transform="matrix(-0.902, -0.432, 0.432, -0.902, 79.292, 101.235)" stroke="#000" stroke-width="1"/>
      <rect id="Rectangle_2548" data-name="Rectangle 2548" width="46.319" height="1.28" transform="matrix(-0.902, -0.432, 0.432, -0.902, 79.292, 109.259)" stroke="#000" stroke-width="1"/>
      <rect id="Rectangle_2549" data-name="Rectangle 2549" width="34.618" height="1.28" transform="matrix(-0.902, -0.432, 0.432, -0.902, 79.293, 117.282)" stroke="#000" stroke-width="1"/>
      <rect id="Rectangle_2551" data-name="Rectangle 2551" width="42.235" height="0.961" transform="translate(43.715 356.655)" stroke="#000" stroke-width="1"/>
      <rect id="Rectangle_2552" data-name="Rectangle 2552" width="11.307" height="0.961" transform="translate(98.255 356.655)" stroke="#000" stroke-width="1"/>
      <rect id="Rectangle_2553" data-name="Rectangle 2553" width="7.893" height="0.961" transform="translate(227.886 356.655)" stroke="#000" stroke-width="1"/>
      <rect id="Rectangle_2554" data-name="Rectangle 2554" width="22.672" height="0.961" transform="translate(243.76 356.655)" stroke="#000" stroke-width="1"/>
      <g id="Group_37296" data-name="Group 37296" transform="translate(118.661 0)">
        <path id="Path_38448" data-name="Path 38448" d="M1126.389,1957.21l2.6,31.906a7.371,7.371,0,0,1-6.788,7.916l-28.917,2.217a6.322,6.322,0,0,1-6.768-5.855A13.8,13.8,0,0,1,1099.2,1978.7l1.792-.138a8.247,8.247,0,0,0,7.589-8.851l-1-11.06Z" transform="translate(-1039.234 -1650.009)" fill="#c16cf9" stroke="#000" stroke-width="2"/>
        <path id="Path_38449" data-name="Path 38449" d="M1250.716,2078.047a13.6,13.6,0,0,1-12.518,14.6,12.966,12.966,0,0,1-1.823.014,6.271,6.271,0,0,1-1.093-3.127,13.8,13.8,0,0,1,12.685-14.694l2.056-.158A13.665,13.665,0,0,1,1250.716,2078.047Z" transform="translate(-1187.999 -1746.146)" fill="#fff" stroke="#000" stroke-width="2"/>
        <path id="Path_38450" data-name="Path 38450" d="M1087.43,2148.151a6.3,6.3,0,0,0,6.578,4.725l28.919-2.218a7.375,7.375,0,0,0,6.632-5.739Z" transform="translate(-1039.958 -1803.63)"/>
        <path id="Path_38451" data-name="Path 38451" d="M1114.783,1969.464l-1.088-12.224-18.805,1.442,1.088,12.224Z" transform="translate(-1026.536 -1650.034)"/>
        <path id="Path_38452" data-name="Path 38452" d="M1198.943,2053.05l-1,.6a.21.21,0,0,1-.287-.071l-1.329-2.214a.21.21,0,0,1,.071-.287l1-.6a.209.209,0,0,1,.287.071l1.329,2.214A.209.209,0,0,1,1198.943,2053.05Zm1.85-1.571-1,.6a.209.209,0,0,1-.287-.071l-1.329-2.214a.209.209,0,0,1,.071-.287l1-.6a.21.21,0,0,1,.287.071l1.329,2.214A.209.209,0,0,1,1200.793,2051.479Zm1.849-1.573-1,.6a.21.21,0,0,1-.287-.071l-1.329-2.214a.21.21,0,0,1,.071-.287l1-.6a.21.21,0,0,1,.287.071l1.329,2.214A.207.207,0,0,1,1202.642,2049.906Z" transform="translate(-1131.912 -1723.238)"/>
        <path id="Path_38453" data-name="Path 38453" d="M786.809,1957.21l2.6,31.906a7.371,7.371,0,0,1-6.788,7.916L753.7,1999.25a6.322,6.322,0,0,1-6.768-5.855,13.8,13.8,0,0,1,12.685-14.694l1.792-.138a8.247,8.247,0,0,0,7.589-8.851l-1-11.06Z" transform="translate(-637.984 -1650.009)" fill="#c16cf9" stroke="#000" stroke-width="2"/>
        <path id="Path_38454" data-name="Path 38454" d="M911.146,2078.047a13.6,13.6,0,0,1-12.518,14.6,12.966,12.966,0,0,1-1.823.014,6.273,6.273,0,0,1-1.093-3.127,13.8,13.8,0,0,1,12.685-14.694l2.056-.158A13.491,13.491,0,0,1,911.146,2078.047Z" transform="translate(-786.761 -1746.146)" fill="#fff" stroke="#000" stroke-width="2"/>
        <path id="Path_38455" data-name="Path 38455" d="M747.86,2148.151a6.3,6.3,0,0,0,6.578,4.725l28.919-2.218a7.374,7.374,0,0,0,6.632-5.739Z" transform="translate(-638.719 -1803.63)"/>
        <path id="Path_38456" data-name="Path 38456" d="M775.211,1969.464l-1.086-12.224-18.805,1.442,1.088,12.224Z" transform="translate(-625.296 -1650.034)"/>
        <path id="Path_38457" data-name="Path 38457" d="M859.365,2053.05l-1,.6a.21.21,0,0,1-.287-.071l-1.329-2.214a.21.21,0,0,1,.071-.287l1-.6a.209.209,0,0,1,.287.071l1.329,2.214A.209.209,0,0,1,859.365,2053.05Zm1.849-1.571-1,.6a.209.209,0,0,1-.287-.071l-1.329-2.214a.21.21,0,0,1,.071-.287l1-.6a.21.21,0,0,1,.287.071l1.329,2.214A.207.207,0,0,1,861.214,2051.479Zm1.851-1.573-1,.6a.21.21,0,0,1-.287-.071l-1.329-2.214a.21.21,0,0,1,.071-.287l1-.6a.21.21,0,0,1,.287.071l1.329,2.214A.209.209,0,0,1,863.064,2049.906Z" transform="translate(-730.977 -1722.742)"/>
        <path id="Path_38458" data-name="Path 38458" d="M925.37,631.461c.12,2.746,12.694,43.39,55.588,49.72,1.872.278,3.7.458,5.494.554a54.729,54.729,0,0,0,35.929-10.884,77.385,77.385,0,0,0,22.022-25.63l-15.526-13.62s-21.139,26.462-49.588,18.758c-20.06-5.432-30.472-33.339-30.472-33.339S925.251,628.715,925.37,631.461Z" transform="translate(-925.37 -553.207)" fill="#ed85c0" stroke="#000" stroke-width="2"/>
        <path id="Path_38460" data-name="Path 38460" d="M898.59,1148.482c-.005,14.439,2.228,24.715,4.56,42.061.385,2.854.772,5.579,1.144,8.121,1.536,10.275,2.946,17.61,3.627,18.432,2.457,3,29.172.512,29.172-4.492,0-1-.138-4.086-.361-8.5-.114-2.324-.247-5.026-.4-7.992-.975-19.413-2.475-38.356-1.909-49.719.216-4.276,3.752-12.572,8.476-21.891,3.988-7.875,8.824-16.483,13.21-24.005,2.306-3.957,4.488-7.609,6.354-10.7,3.567-5.9,6-9.766,6-9.766l-4.1-33.183s-19.479-2.8-27.677,6.195S898.6,1122.891,898.59,1148.482Z" transform="translate(-844.567 -900.199)" fill="#80d4ec" stroke="#000" stroke-width="2"/>
        <path id="Path_38461" data-name="Path 38461" d="M945.931,1219.77Z" transform="translate(-833.299 -1046.493)" fill="#e28d05"/>
        <path id="Path_38462" data-name="Path 38462" d="M696.08,686.631a34.669,34.669,0,1,0,24.457-33.163A34.707,34.707,0,0,0,696.08,686.631Z" transform="translate(-604.824 -581.777)" fill="#ed85c0" stroke="#000" stroke-width="2"/>
        <g id="Group_37281" data-name="Group 37281" transform="translate(111.542 146.231)">
          <path id="Path_38465" data-name="Path 38465" d="M728.239,1102.544s7.469,62.64,11.83,97.141c.38,3.008.735,5.716,1.061,8.04.741,5.269,1.326,8.587,1.669,9.082,3.53,5.086,27.919,3.079,28.708,0,.054-.213.013-4.22-.1-10.847-.049-2.383-.1-5.109-.156-8.117-.8-40.375-3.1-120.029-3.994-128.239-2.259-20.634-30.762-20.834-30.762-20.834C730.782,1062.217,728.728,1081.2,728.239,1102.544Z" transform="translate(-728.239 -1048.77)" fill="#80d4ec" stroke="#000" stroke-width="2"/>
        </g>
        <g id="Group_37282" data-name="Group 37282" transform="translate(111.06 166.534)">
          <path id="Path_38466" data-name="Path 38466" d="M952.811,1221.689l.955-.094c-.518-5.2-.819-8.278-.819-8.278a267.4,267.4,0,0,1,2.181-30.545l-.952-.133a268.267,268.267,0,0,0-2.187,30.712C951.992,1213.412,952.293,1216.488,952.811,1221.689Z" transform="translate(-951.99 -1182.64)"/>
        </g>
        <g id="Group_37283" data-name="Group 37283" transform="translate(128.838 171.17)">
          <path id="Path_38467" data-name="Path 38467" d="M753.016,1241.722a8.923,8.923,0,0,0,.9-.047l12.722-1.349-.1-.955-12.722,1.349a7.417,7.417,0,0,1-8.181-6.883l-1.268-19.11a4.411,4.411,0,0,1,4.168-4.7l17.055-.9-.051-.959-17.055.9a5.37,5.37,0,0,0-5.074,5.719l1.268,19.11a8.381,8.381,0,0,0,8.336,7.822Z" transform="translate(-743.4 -1208.17)" stroke="#000" stroke-width="1"/>
          <rect id="Rectangle_2555" data-name="Rectangle 2555" width="0.961" height="21.853" transform="matrix(-0.048, -0.999, 0.999, -0.048, 0.605, 8.479)" stroke="#000" stroke-width="1"/>
        </g>
        <g id="Group_37284" data-name="Group 37284" transform="translate(70.698 163.93)">
          <path id="Path_38468" data-name="Path 38468" d="M1087.829,1192.634a8.168,8.168,0,0,0,2.23-.312,8.05,8.05,0,0,0,4.938-3.981l8.723-16.323a5.2,5.2,0,0,0-2.2-7.074l-4.144-2.145-.441.852,4.144,2.145a4.246,4.246,0,0,1,1.8,5.77l-8.721,16.323a7.146,7.146,0,0,1-9.89,2.817l-.483.83A8.053,8.053,0,0,0,1087.829,1192.634Z" transform="translate(-1083.777 -1162.8)" stroke="#000" stroke-width="1"/>
          <rect id="Rectangle_2556" data-name="Rectangle 2556" width="9.353" height="0.961" transform="translate(18.648 10.635) rotate(-152.969)" stroke="#070707" stroke-width="1"/>
        </g>
        <g id="Group_37285" data-name="Group 37285" transform="translate(94.432 150.073)">
          <path id="Path_38469" data-name="Path 38469" d="M795.807,1106.616a99.251,99.251,0,0,0,11.387-.668l-.094-.955c-36.348,4.188-54.813-12.82-55-12.992l-.584.723C751.684,1092.879,766.57,1106.616,795.807,1106.616Z" transform="translate(-751.52 -1092)" stroke="#000" stroke-width="1"/>
        </g>
        <g id="Group_37286" data-name="Group 37286" transform="translate(146.207 110.212)">
          <path id="Path_38470" data-name="Path 38470" d="M615.373,874.811a111.793,111.793,0,0,0,17.754-1.353l-.154-.948a118.624,118.624,0,0,1-31.358.559l-.134.95A111.106,111.106,0,0,0,615.373,874.811Z" transform="translate(-601.48 -872.51)"/>
        </g>
        <g id="Group_37287" data-name="Group 37287" transform="translate(123.366 294.309)">
          <path id="Path_38471" data-name="Path 38471" d="M729.541,1889.064c10.226-.122,20.73-.757,31.222-1.889l-.1-.955c-10.462,1.128-20.936,1.761-31.131,1.883Z" transform="translate(-729.53 -1886.22)" stroke="#000" stroke-width="1"/>
        </g>
        <g id="Group_37288" data-name="Group 37288" transform="translate(58.461 289.16)">
          <path id="Path_38472" data-name="Path 38472" d="M1108.508,1864.522l.094-.955a215.415,215.415,0,0,1-33.109-5.7l-.243.928A216.235,216.235,0,0,0,1108.508,1864.522Z" transform="translate(-1075.25 -1857.87)" stroke="#000" stroke-width="1"/>
        </g>
        <g id="Group_37289" data-name="Group 37289" transform="translate(124.427 302.617)">
          <path id="Path_38473" data-name="Path 38473" d="M728.671,1934.734c9.9-.122,20.1-.73,30.319-1.809l-.1-.955c-10.19,1.077-20.36,1.684-30.228,1.805Z" transform="translate(-728.66 -1931.97)" stroke="#000" stroke-width="1"/>
        </g>
        <g id="Group_37290" data-name="Group 37290" transform="translate(59.607 297.492)">
          <path id="Path_38474" data-name="Path 38474" d="M1105.567,1910.27l.1-.955a216.357,216.357,0,0,1-32.362-5.564l-.242.93A217.771,217.771,0,0,0,1105.567,1910.27Z" transform="translate(-1073.06 -1903.75)" stroke="#000" stroke-width="1"/>
        </g>
        <g id="Group_37293" data-name="Group 37293" transform="translate(97.968)">
          <ellipse id="Ellipse_62" data-name="Ellipse 62" cx="20.625" cy="20.625" rx="20.625" ry="20.625" transform="translate(8.123 25.42)" fill="#fff" stroke="#101010" stroke-width="2"/>
          <path id="Path_38475" data-name="Path 38475" d="M787.908,445.157a21.477,21.477,0,0,0,3.189-.24,21.026,21.026,0,1,0-3.189.24Zm.087-41.259a20.147,20.147,0,1,1-19.964,23.151h0a20.147,20.147,0,0,1,16.919-22.924A20.559,20.559,0,0,1,787.995,403.9Z" transform="translate(-759.205 -378.002)"/>
          <path id="Path_38476" data-name="Path 38476" d="M743.261,499.487a6.052,6.052,0,0,1-11.97,1.8,5.967,5.967,0,0,1,.042-2.029,6.047,6.047,0,0,1,10.9-2.328A5.928,5.928,0,0,1,743.261,499.487Z" transform="translate(-687.007 -452.81)" fill="#fff"/>
          <path id="Path_38477" data-name="Path 38477" d="M735.021,504.769a6.41,6.41,0,0,0,.968-.073,6.534,6.534,0,0,0,5.485-7.431,6.427,6.427,0,0,0-1.11-2.76,6.528,6.528,0,0,0-11.765,2.519.481.481,0,1,0,.944.178,5.568,5.568,0,0,1,10.036-2.143,5.466,5.466,0,0,1,.946,2.352,5.569,5.569,0,0,1-8.363,5.615.479.479,0,0,0-.492.823A6.557,6.557,0,0,0,735.021,504.769Z" transform="translate(-684.747 -450.66)" stroke="#090909" stroke-width="1"/>
          <path id="Path_38478" data-name="Path 38478" d="M738.183,374.342a12.611,12.611,0,0,1-4.589,5.021,6.047,6.047,0,0,0-10.9,2.328,21.322,21.322,0,0,1-7.293-2.17c-8.9-4.467-13.11-14.042-9.422-21.377s13.895-9.658,22.783-5.179S741.872,367.007,738.183,374.342Z" transform="translate(-678.367 -335.24)"/>
          <ellipse id="Ellipse_63" data-name="Ellipse 63" cx="16.061" cy="16.061" rx="16.061" ry="16.061" transform="translate(0 3.291)"/>
          <ellipse id="Ellipse_64" data-name="Ellipse 64" cx="12.197" cy="12.197" rx="12.197" ry="12.197" transform="translate(17.474)"/>
          <ellipse id="Ellipse_65" data-name="Ellipse 65" cx="12.197" cy="12.197" rx="12.197" ry="12.197" transform="translate(38.522 4.882)"/>
          <ellipse id="Ellipse_66" data-name="Ellipse 66" cx="1.662" cy="2.099" rx="1.662" ry="2.099" transform="translate(24.965 49.247) rotate(-178.854)"/>
          <path id="Path_38479" data-name="Path 38479" d="M895.28,501.405a4.518,4.518,0,0,1,4.667,1.128" transform="translate(-873.418 -458.388)" fill="#fff"/>
          <path id="Path_38480" data-name="Path 38480" d="M897.784,500.861a.479.479,0,0,0,.34-.819,5.016,5.016,0,0,0-5.172-1.239.479.479,0,1,0,.332.9,4.042,4.042,0,0,1,4.161,1.017A.477.477,0,0,0,897.784,500.861Z" transform="translate(-871.255 -456.237)" stroke="#000" stroke-width="1"/>
          <ellipse id="Ellipse_67" data-name="Ellipse 67" cx="1.662" cy="2.099" rx="1.662" ry="2.099" transform="translate(14.261 47.397) rotate(-178.854)"/>
          <path id="Path_38481" data-name="Path 38481" d="M954.21,491.215a4.518,4.518,0,0,1,4.667,1.128" transform="translate(-943.05 -450.048)" fill="#fff"/>
          <path id="Path_38482" data-name="Path 38482" d="M956.714,490.671a.479.479,0,0,0,.34-.819,5.017,5.017,0,0,0-5.172-1.239.479.479,0,1,0,.332.9,4.042,4.042,0,0,1,4.161,1.017A.474.474,0,0,0,956.714,490.671Z" transform="translate(-940.887 -447.897)" stroke="#000" stroke-width="1"/>
          <g id="Group_37291" data-name="Group 37291" transform="translate(14.521 42.864)">
            <path id="Path_38483" data-name="Path 38483" d="M937.2,514.711a.48.48,0,0,0,.045-.957,6.731,6.731,0,0,1-2.784-.67,1.951,1.951,0,0,1-1.031-2.043,3.186,3.186,0,0,1,1.117-1.342c.133-.113.265-.227.391-.341a7.591,7.591,0,0,0,2.181-7.33.48.48,0,0,0-.93.24,6.61,6.61,0,0,1-1.9,6.38c-.12.109-.243.214-.369.321a3.991,3.991,0,0,0-1.413,1.8,2.887,2.887,0,0,0,1.462,3.142,7.46,7.46,0,0,0,3.183.8A.2.2,0,0,0,937.2,514.711Z" transform="translate(-932.418 -501.667)" stroke="#000" stroke-width="1"/>
          </g>
          <g id="Group_37292" data-name="Group 37292" transform="translate(23.457 56.028)">
            <path id="Path_38484" data-name="Path 38484" d="M872.5,578.505a.48.48,0,0,0,.425-.258,6.047,6.047,0,0,1,5.855-3.1.48.48,0,1,0,.111-.953,6.948,6.948,0,0,0-6.816,3.61.48.48,0,0,0,.2.648A.493.493,0,0,0,872.5,578.505Z" transform="translate(-872.022 -574.15)" stroke="#000" stroke-width="1"/>
          </g>
        </g>
      </g>
      <g id="Group_37297" data-name="Group 37297" transform="translate(86.94 89.664)">
        <rect id="Rectangle_2557" data-name="Rectangle 2557" width="258.485" height="1.28" transform="matrix(-0.066, -0.998, 0.998, -0.066, 17.06, 258.006)" stroke="#000" stroke-width="1"/>
      </g>
      <g id="Group_37298" data-name="Group 37298" transform="translate(102.018 153.581)">
        <rect id="Rectangle_2558" data-name="Rectangle 2558" width="46.669" height="1.28" transform="matrix(-0.998, -0.056, 0.056, -0.998, 46.597, 3.878)" fill="#fff"/>
      </g>
      <g id="Group_37299" data-name="Group 37299" transform="translate(101.794 161.058)">
        <rect id="Rectangle_2559" data-name="Rectangle 2559" width="46.669" height="1.28" transform="matrix(-0.998, -0.056, 0.056, -0.998, 46.597, 3.878)" fill="#fff"/>
      </g>
      <g id="Group_37300" data-name="Group 37300" transform="translate(101.57 168.538)">
        <rect id="Rectangle_2560" data-name="Rectangle 2560" width="34.88" height="1.28" transform="matrix(-0.998, -0.056, 0.056, -0.998, 34.825, 3.221)" fill="#fff"/>
      </g>
    </g>
    <g id="Group_37304" data-name="Group 37304" transform="translate(1753.504 335.036)">
      <path id="Path_38487" data-name="Path 38487" d="M551.065,324.366s-10.9-9.76-13.414-12.2-4.526-7.386-7.159-6.549.331,5.7.331,5.7-7.144-7.206-9.487-6.133,1.277,5.107,1.277,5.107-4.3-3.347-5.608-1.4,1.449,4.053,1.449,4.053-3.509-1.567-4.232.243,3.552,5.86,3.552,5.86-3.614-1.21-2.57,2.731,17.376,15.11,21.435,17.051Z" transform="translate(-513.663 -304.608)" fill="#fff"/>
      <path id="Path_38488" data-name="Path 38488" d="M534.476,337.192a.476.476,0,0,0,.34-.142l14.425-14.472a.482.482,0,0,0,.14-.352.476.476,0,0,0-.16-.343c-.109-.1-10.918-9.781-13.4-12.186a21.927,21.927,0,0,1-2.281-2.831c-1.6-2.214-3.247-4.5-5.357-3.832a1.911,1.911,0,0,0-1.269,1.173,4.512,4.512,0,0,0,.22,2.869c-2.415-2.194-6.3-5.3-8.163-4.451a1.722,1.722,0,0,0-1.028,1.235,4.013,4.013,0,0,0,.665,2.573,5.181,5.181,0,0,0-2.907-.721,1.824,1.824,0,0,0-1.26.792,2.854,2.854,0,0,0,.251,3.318,3.8,3.8,0,0,0-2.085.076,1.75,1.75,0,0,0-.993.992c-.6,1.515,1.353,3.964,2.681,5.386a2.078,2.078,0,0,0-1.324.521c-.628.588-.759,1.593-.391,2.984,1.142,4.311,17.975,15.584,21.691,17.362A.444.444,0,0,0,534.476,337.192ZM548.2,322.26,534.38,336.13c-4.495-2.3-19.91-12.954-20.876-16.592-.187-.7-.316-1.627.118-2.038.463-.438,1.482-.231,1.836-.114a.485.485,0,0,0,.563-.209.477.477,0,0,0-.082-.594c-1.676-1.589-3.852-4.3-3.438-5.334a.784.784,0,0,1,.463-.458c.884-.36,2.557.222,3.127.476a.48.48,0,0,0,.487-.819c-.024-.018-2.385-1.854-1.344-3.4a.855.855,0,0,1,.616-.38c1.275-.2,3.534,1.293,4.3,1.887a.48.48,0,0,0,.652-.7c-.85-.95-2.125-2.82-1.921-3.794a.757.757,0,0,1,.489-.558c1.4-.645,6.078,3.142,8.948,6.035a.479.479,0,0,0,.75-.587c-.5-.823-1.7-3.218-1.255-4.4a.947.947,0,0,1,.661-.594c1.446-.459,2.826,1.455,4.288,3.48a22.749,22.749,0,0,0,2.39,2.958C537.384,312.546,546.261,320.515,548.2,322.26Z" transform="translate(-511.499 -302.482)" stroke="#000" stroke-width="1"/>
      <path id="Path_38489" data-name="Path 38489" d="M616.874,336.715a.48.48,0,0,0,.3-.855c-.886-.71-4.35-3.57-4.35-3.57l-.612.741s3.472,2.868,4.359,3.579A.5.5,0,0,0,616.874,336.715ZM614.3,340.12a.48.48,0,0,0,.218-.908c-2.206-1.121-9.818-7.869-9.894-7.938a.48.48,0,0,0-.637.717c.316.281,7.78,6.9,10.1,8.076A.476.476,0,0,0,614.3,340.12Zm-3.581,3.067a.48.48,0,0,0,.162-.932c-1.435-.518-8.005-6.184-10.415-8.323a.48.48,0,1,0-.637.717c.9.8,8.857,7.833,10.726,8.508A.49.49,0,0,0,610.721,343.187Zm-2.982,3.792a.48.48,0,0,0,.207-.913c-1.106-.53-6.278-4.546-8.178-6.049a.48.48,0,0,0-.6.752c.281.223,6.93,5.475,8.358,6.16A.465.465,0,0,0,607.739,346.979Z" transform="translate(-595.36 -325.946)" stroke="#000" stroke-width="1"/>
    </g>
    <g id="Group_37305" data-name="Group 37305" transform="translate(1741.062 351.059)">
      <path id="Path_38490" data-name="Path 38490" d="M375.657,479.245s60.542,8.508,71.688-30.228c8.238-28.632-24.254-58.307-24.254-58.307l-20.236,18.822S432.9,424.006,415.8,442.924c-17.342,19.192-42.549.193-42.549.193" transform="translate(-373.252 -390.71)" fill="#ed85c0" stroke="#000" stroke-width="2"/>
    </g>
  </g>
</svg>
