<svg xmlns="http://www.w3.org/2000/svg" width="379.534" height="361.181" viewBox="0 0 379.534 361.181">
  <g id="education" transform="translate(-26.883 7.458)">
    <path id="Path_38499" data-name="Path 38499" d="M921.381,899.58c1.354,2.192-2.121,4.818-2.121,4.818s4.8-2.573,5.763-.43-2.115,3.751-2.115,3.751,3.722-.953,4.129.955-4.493,5.176-4.493,5.176,3.767-.581,2.072,3.125-21.1,11.958-25.427,13.187l-10.357-16.7S919.019,895.75,921.381,899.58Z" transform="translate(-652.55 -793.196)" fill="#fff"/>
    <path id="Path_38500" data-name="Path 38500" d="M897.313,928.821a.475.475,0,0,0,.131-.018c3.614-1.025,23.879-9.4,25.732-13.449.6-1.309.64-2.321.121-3.008a2.091,2.091,0,0,0-1.217-.736c1.548-1.178,3.892-3.262,3.55-4.857a1.745,1.745,0,0,0-.812-1.145,3.8,3.8,0,0,0-2.041-.427,2.859,2.859,0,0,0,.808-3.227,1.829,1.829,0,0,0-1.11-.994,5.287,5.287,0,0,0-3.088.252,3.24,3.24,0,0,0,.524-3.7c-.734-1.188-3.379-1.927-17.783,5.327-7.765,3.911-15.338,8.346-15.414,8.391a.481.481,0,0,0-.166.667l10.357,16.7A.484.484,0,0,0,897.313,928.821Zm23.873-16.347a1.735,1.735,0,0,1,1.346.452c.36.479.076,1.366-.227,2.029-1.5,3.28-19.482,11.2-24.777,12.821l-9.9-15.973c14.518-8.485,30.158-15.921,31.468-13.794h0c1.108,1.8-1.969,4.16-2,4.184a.48.48,0,0,0,.515.806c.855-.456,3.333-1.55,4.557-1.133a.847.847,0,0,1,.542.478c.769,1.71-1.871,3.115-1.9,3.129a.481.481,0,0,0,.341.892c.605-.153,2.352-.444,3.162.059a.782.782,0,0,1,.378.53c.233,1.1-2.368,3.395-4.289,4.677a.481.481,0,0,0,.337.875A2.562,2.562,0,0,1,921.185,912.474ZM919.5,897.757h0Z" transform="translate(-650.669 -791.373)"/>
    <path id="Path_38501" data-name="Path 38501" d="M907.254,930.066a.424.424,0,0,0,.141-.023c2.483-.769,10.956-6.031,11.316-6.254a.48.48,0,0,0-.507-.814c-.086.055-8.729,5.42-11.093,6.152a.48.48,0,0,0,.143.939Zm3.013,3.628a.4.4,0,0,0,.086-.008c1.957-.35,10.986-5.939,12.011-6.575a.479.479,0,0,0-.507-.814c-2.739,1.7-10.171,6.176-11.674,6.444a.48.48,0,0,0,.084.953Zm2.3,4.242a.477.477,0,0,0,.131-.018c1.524-.433,8.964-4.489,9.281-4.661a.48.48,0,0,0-.458-.843c-2.127,1.16-7.9,4.244-9.083,4.581a.481.481,0,0,0-.331.593A.474.474,0,0,0,912.565,937.936Z" transform="translate(-651.747 -812.18)"/>
    <path id="Path_38502" data-name="Path 38502" d="M936.83,1233.57l-4.988,16.369c-1.5,4.923.7,9.956,4.906,11.24l12.469,3.8c4.211,1.282,8.841-1.673,10.34-6.593l4.988-16.37Z" transform="translate(-696.357 -1067.951)" fill="#ed85c0"/>
    <path id="Path_38503" data-name="Path 38503" d="M949.518,1263.9a8.312,8.312,0,0,0,4.454-1.348,10.6,10.6,0,0,0,4.386-5.888l5.025-16.369a.478.478,0,0,0-.321-.6l-27.921-8.444a.484.484,0,0,0-.6.319l-5.025,16.369c-1.586,5.17.777,10.481,5.266,11.84l12.562,3.8A7.606,7.606,0,0,0,949.518,1263.9Zm12.8-23.427-4.883,15.911a9.627,9.627,0,0,1-3.981,5.358,7,7,0,0,1-5.831.916l-12.562-3.8c-3.98-1.2-6.053-5.976-4.621-10.641l4.883-15.911Z" transform="translate(-694.382 -1066.089)" fill="#fea300" stroke="#000" stroke-width="1"/>
    <rect id="Rectangle_2561" data-name="Rectangle 2561" width="28.971" height="122.589" transform="translate(265.821 182.713) rotate(-163.058)" fill="#fbecad" stroke="#000" stroke-width="2"/>
    <rect id="Rectangle_2562" data-name="Rectangle 2562" width="0.329" height="121.502" transform="translate(252.271 178.212) rotate(-163.058)" fill="#f6d854" stroke="#000" stroke-width="2"/>
    <path id="Path_38504" data-name="Path 38504" d="M782.533,784.492a.46.46,0,0,0,.225-.057.474.474,0,0,0,.233-.284l35.727-117.268a.48.48,0,0,0-.319-.6l-27.714-8.444a.484.484,0,0,0-.366.035.475.475,0,0,0-.233.284L754.357,775.426a.485.485,0,0,0,.035.366.476.476,0,0,0,.284.233l27.716,8.444A.479.479,0,0,0,782.533,784.492Zm35.127-117.43-35.448,116.35-26.8-8.164L790.865,658.9Z" transform="translate(-516.721 -601.309)"/>
    <path id="Path_38505" data-name="Path 38505" d="M23.566,0h0l5.162,33.785L0,25.233Z" transform="matrix(1, 0.017, -0.017, 1, 274.309, 30.987)" fill="#fff" stroke="#000" stroke-width="2"/>
    <path id="Path_38507" data-name="Path 38507" d="M772.48,547.087l7.98-8.747,1.749,11.713Z" transform="translate(-482.616 -507.353)"/>
    <path id="Path_38508" data-name="Path 38508" d="M935.879,897.62s4.287-7.23,6.426-8.972c2.851-2.323,13.616-6.045,14.434-2.833s-7.639,7.436-7.639,7.436,1.321,10.539-5.814,11.027" transform="translate(-691.905 -781.683)" fill="#fff"/>
    <path id="Path_38509" data-name="Path 38509" d="M941.425,902.914a.205.205,0,0,0,.035,0,5.837,5.837,0,0,0,4.276-2.127c2.378-2.888,2.135-7.767,2.017-9.1,1.691-.877,8.416-4.6,7.592-7.833a1.97,1.97,0,0,0-1.421-1.389c-3.268-1.082-11.455,2.074-13.78,3.968-2.18,1.775-6.358,8.8-6.536,9.1a.481.481,0,1,0,.826.491c.041-.072,4.268-7.174,6.315-8.843,2.387-1.943,10.2-4.689,12.872-3.8a1.064,1.064,0,0,1,.793.714c.526,2.067-4.254,5.323-7.387,6.888a.48.48,0,0,0-.262.489c.006.057.681,5.735-1.771,8.71a4.908,4.908,0,0,1-3.6,1.779.479.479,0,0,0,.031.957Z" transform="translate(-690.045 -779.836)" stroke="#090909" stroke-width="1"/>
    <path id="Path_38510" data-name="Path 38510" d="M1031.611,806.68s7.6,28.56,37.009,35.258,45.1-8.708,45.1-8.708c3.187,2.295,10.377,20.507,5.442,25.523,0,0-29.135,16.472-62.632,7.485-33.18-8.9-43.878-40.678-43.878-40.678" transform="translate(-871.653 -719.727)" fill="#ed85c0" stroke="#000" stroke-width="2"/>
    <path id="Path_38511" data-name="Path 38511" d="M1837.63,510.088l9,15.38s3.194,7.673,4.127,9.774a4.541,4.541,0,0,0,.25.526c.018,0,.237-.057.628-.172.571-.166,1.5-.442,2.708-.806,8.833-2.636,32.62-9.862,32.62-9.862l-.839-9.919c-11.091-2.029-27.45,6.24-27.45,6.24-3.264-7.782-8.193-15.43-11.213-18.228-1.115-1.031-2.477,1.037-2.477,1.037,1.966,1.575,4.07,5.792,4.2,6.054a56.583,56.583,0,0,0-5.53-5.119C1841.093,506.19,1837.63,510.088,1837.63,510.088Z" transform="translate(-1806.497 -477.94)" fill="#fff" stroke="#000" stroke-width="2"/>
    <path id="Path_38512" data-name="Path 38512" d="M1975.94,510.064l9,15.379s3.195,7.673,4.127,9.774l.877.352,2.176.863.532-1.671,4.333-13.543c-3.264-7.782-8.193-15.431-11.214-18.228-1.115-1.031-2.477,1.037-2.477,1.037,1.966,1.575,4.07,5.792,4.2,6.054a56.63,56.63,0,0,0-5.53-5.119C1979.4,506.166,1975.94,510.064,1975.94,510.064Z" transform="translate(-1944.807 -477.916)" fill="#fff" stroke="#090909" stroke-width="2"/>
    <path id="Path_38513" data-name="Path 38513" d="M317.972,1945.4H419.3a20.57,20.57,0,0,0,20.652-20.257c0-.147,0-.3,0-.444A20.569,20.569,0,0,0,419.3,1904.44H317.972A28.963,28.963,0,0,1,317.972,1945.4Z" transform="translate(-48.694 -1592.979)" fill="#ed85c0" stroke="#090909" stroke-width="2"/>
    <path id="Path_38515" data-name="Path 38515" d="M872.937,1945.39a28.962,28.962,0,0,0,0-40.96H988.093a28.962,28.962,0,0,1,0,40.96Z" transform="translate(-718.814 -1592.972)" fill="#fff" stroke="#090909" stroke-width="2"/>
    <path id="Path_38517" data-name="Path 38517" d="M315.642,1944.009H418.128a21.07,21.07,0,0,0,21.13-20.733c0-.152,0-.3,0-.452a21.071,21.071,0,0,0-21.13-20.734H315.642l.82.82a28.516,28.516,0,0,1,0,40.281Zm102.486-40.96a20.109,20.109,0,0,1,20.171,19.78c0,.146,0,.291,0,.438a20.109,20.109,0,0,1-20.171,19.781h-100.2a29.481,29.481,0,0,0,0-40Z" transform="translate(-47.523 -1591.111)"/>
    <path id="Path_38518" data-name="Path 38518" d="M870.662,1944H987.176l.141-.141a29.478,29.478,0,0,0,0-41.639l-.141-.141H870.662l.82.82a28.484,28.484,0,0,1,0,40.281Zm116.115-.961H872.951a29.443,29.443,0,0,0,0-40H986.777A28.515,28.515,0,0,1,986.777,1943.04Z" transform="translate(-717.699 -1591.103)"/>
    <rect id="Rectangle_2563" data-name="Rectangle 2563" width="76.255" height="0.959" transform="translate(177.469 326.319)" stroke="#000" stroke-width="1"/>
    <rect id="Rectangle_2564" data-name="Rectangle 2564" width="76.255" height="0.959" transform="translate(177.469 333.673)" stroke="#000" stroke-width="1"/>
    <rect id="Rectangle_2565" data-name="Rectangle 2565" width="47.549" height="0.959" transform="translate(206.174 341.026)" stroke="#000" stroke-width="1"/>
    <path id="Path_38519" data-name="Path 38519" d="M940.722,1745.118H839.393a20.57,20.57,0,0,1-20.652-20.257c0-.147,0-.3,0-.444a20.569,20.569,0,0,1,20.652-20.257H940.722A28.962,28.962,0,0,0,940.722,1745.118Z" transform="translate(-651.875 -1433.66)" fill="#f6d854" stroke="#000" stroke-width="2"/>
    <path id="Path_38521" data-name="Path 38521" d="M379.309,1745.11a28.961,28.961,0,0,1,0-40.96H264.154a28.961,28.961,0,0,0,0,40.96Z" transform="translate(24.693 -1433.652)" fill="#fff" stroke="#000" stroke-width="2"/>
    <path id="Path_38523" data-name="Path 38523" d="M834.2,1743.721H936.688l-.82-.82a28.516,28.516,0,0,1,0-40.281l.82-.82H834.2a21.07,21.07,0,0,0-21.13,20.734c0,.151,0,.3,0,.452A21.069,21.069,0,0,0,834.2,1743.721Zm100.2-.961H834.2a20.109,20.109,0,0,1-20.171-19.781c0-.145,0-.291,0-.438a20.109,20.109,0,0,1,20.171-19.78H934.4A29.476,29.476,0,0,0,934.4,1742.76Z" transform="translate(-646.681 -1431.782)"/>
    <path id="Path_38524" data-name="Path 38524" d="M258.751,1743.721H375.264l-.82-.82a28.484,28.484,0,0,1,0-40.281l.82-.82H258.751l-.141.141a29.478,29.478,0,0,0,0,41.639Zm114.227-.961H259.152a28.515,28.515,0,0,1,0-40H372.978a29.443,29.443,0,0,0,0,40Z" transform="translate(29.898 -1431.782)"/>
    <rect id="Rectangle_2566" data-name="Rectangle 2566" width="76.255" height="0.959" transform="translate(299.13 283.146)" stroke="#000" stroke-width="1"/>
    <rect id="Rectangle_2567" data-name="Rectangle 2567" width="76.255" height="0.959" transform="translate(299.13 290.498)" stroke="#000" stroke-width="1"/>
    <rect id="Rectangle_2568" data-name="Rectangle 2568" width="47.549" height="0.959" transform="translate(299.13 297.851)" stroke="#000" stroke-width="1"/>
    <g id="Group_37308" data-name="Group 37308" transform="translate(165.709 229.055)">
      <path id="Path_38525" data-name="Path 38525" d="M255.652,1544.828H356.981a20.571,20.571,0,0,0,20.652-20.257c0-.148,0-.3,0-.444a20.569,20.569,0,0,0-20.652-20.257H255.652A28.963,28.963,0,0,1,255.652,1544.828Z" transform="translate(-139.337 -1503.387)" fill="#a4e3db" stroke="#0f0f0f" stroke-width="1"/>
      <path id="Path_38527" data-name="Path 38527" d="M810.617,1544.82a28.962,28.962,0,0,0,0-40.96H925.773a28.962,28.962,0,0,1,0,40.96Z" transform="translate(-809.458 -1503.379)" fill="#fff" stroke="#0f0f0f" stroke-width="1"/>
      <path id="Path_38529" data-name="Path 38529" d="M253.322,1543.439H355.808a21.07,21.07,0,0,0,21.13-20.734c0-.151,0-.3,0-.452a21.072,21.072,0,0,0-21.13-20.733H253.322l.82.82a28.516,28.516,0,0,1,0,40.281Zm102.486-40.96a20.109,20.109,0,0,1,20.171,19.781c0,.145,0,.29,0,.438a20.109,20.109,0,0,1-20.171,19.781h-100.2a29.48,29.48,0,0,0,0-40Z" transform="translate(-138.167 -1501.518)" stroke="#0f0f0f" stroke-width="1"/>
      <path id="Path_38530" data-name="Path 38530" d="M808.343,1543.431H924.856l.141-.141a29.478,29.478,0,0,0,0-41.639l-.141-.141H808.343l.82.82a28.516,28.516,0,0,1,0,40.281Zm116.115-.961H810.629a29.48,29.48,0,0,0,0-40H924.457A28.515,28.515,0,0,1,924.457,1542.47Z" transform="translate(-808.343 -1501.51)" stroke="#0f0f0f" stroke-width="1"/>
      <rect id="Rectangle_2569" data-name="Rectangle 2569" width="76.255" height="0.959" transform="translate(18.245 13.13)" stroke="#0f0f0f" stroke-width="1"/>
      <rect id="Rectangle_2570" data-name="Rectangle 2570" width="76.255" height="0.959" transform="translate(18.245 20.482)" stroke="#0f0f0f" stroke-width="1"/>
      <rect id="Rectangle_2571" data-name="Rectangle 2571" width="47.549" height="0.959" transform="translate(46.95 27.835)" stroke="#0f0f0f" stroke-width="1"/>
    </g>
    <g id="Group_37321" data-name="Group 37321" transform="translate(80.202 143.864)">
      <path id="Path_38531" data-name="Path 38531" d="M1535,1960.626l45.7.295a.212.212,0,0,0,.023-.084c.385-6.988-1.605-14.344-7.788-15.2a8.9,8.9,0,0,0-1.182-.082c-1.307,0-15.922-.413-15.922-.413l-1.82-15.623-19.312.8Z" transform="translate(-1529.425 -1756.794)" fill="#c16cf9" stroke="#000" stroke-width="2"/>
      <path id="Path_38532" data-name="Path 38532" d="M1660.494,1936.625l-.035-6.475,19.312-.63,1.039,7.009Z" transform="translate(-1655.179 -1756.794)" fill="#fff" stroke="#000" stroke-width="2"/>
      <path id="Path_38533" data-name="Path 38533" d="M1534.707,2018.762a10.759,10.759,0,0,0,1.061,4.745l15.052.1a.211.211,0,0,0,.023-.084c.384-6.989-1.606-14.345-7.788-15.2A10.791,10.791,0,0,0,1534.707,2018.762Z" transform="translate(-1499.538 -1819.478)" fill="#fff" stroke="#000" stroke-width="2"/>
      <path id="Path_38534" data-name="Path 38534" d="M1581.869,2012.673c.161-3.807-1.09-.944-1.157-1.4l-46.8-.127-.031,1.726a3.84,3.84,0,0,0,4.009,3.7l39.009.1C1579.321,2016.684,1581.226,2015.78,1581.869,2012.673ZM1554.627,1999a.877.877,0,0,0,1.047-.583l.766-2.9a.788.788,0,0,0-.643-.95.876.876,0,0,0-1.047.583l-.766,2.9A.788.788,0,0,0,1554.627,1999Zm4.1.024a.876.876,0,0,0,1.047-.583l.766-2.9a.788.788,0,0,0-.643-.95.876.876,0,0,0-1.047.583l-.766,2.9A.788.788,0,0,0,1558.732,1999.029Zm4.1.025a.876.876,0,0,0,1.046-.583l.766-2.9a.787.787,0,0,0-.643-.949.876.876,0,0,0-1.046.583l-.766,2.9A.789.789,0,0,0,1562.837,1999.053Z" transform="translate(-1529.434 -1806.819)"/>
      <path id="Path_38535" data-name="Path 38535" d="M1078.352,1752.069l45.7-.916a.224.224,0,0,0,.02-.086c.2-7-1.986-14.3-8.189-14.987a8.933,8.933,0,0,0-1.184-.049c-1.307.033-15.928.008-15.928.008l-2.233-15.569-19.286,1.313Z" transform="translate(-968.306 -1590.498)" fill="#c16cf9" stroke="#000" stroke-width="2"/>
      <path id="Path_38536" data-name="Path 38536" d="M1205.947,1733.746l-.247-11.451,18.635-1.826,1.231,12.358Z" transform="translate(-1095.667 -1590.498)" fill="#fff" stroke="#000" stroke-width="2"/>
      <path id="Path_38537" data-name="Path 38537" d="M1077.252,1807.459a10.73,10.73,0,0,0,1.188,4.716l15.048-.3a.226.226,0,0,0,.021-.086c.2-7-1.986-14.3-8.189-14.987A10.789,10.789,0,0,0,1077.252,1807.459Z" transform="translate(-937.746 -1651.217)" fill="#fff" stroke="#000" stroke-width="2"/>
      <path id="Path_38538" data-name="Path 38538" d="M1123.837,1801.782a12.252,12.252,0,0,0,0-2.668L1076,1801.4l.019,1.7a3.885,3.885,0,0,0,4.186,3.548h39.7C1122.378,1806.588,1123.661,1804.608,1123.837,1801.782Zm-27.124-12.819a.89.89,0,0,0,1.048-.6l.692-2.873a.782.782,0,0,0-.681-.919.891.891,0,0,0-1.048.6l-.692,2.873A.781.781,0,0,0,1096.713,1788.963Zm4.176-.073a.889.889,0,0,0,1.048-.6l.692-2.873a.783.783,0,0,0-.681-.919.89.89,0,0,0-1.048.6l-.692,2.873A.78.78,0,0,0,1100.89,1788.89Zm4.176-.073a.889.889,0,0,0,1.048-.6l.692-2.873a.783.783,0,0,0-.682-.919.889.889,0,0,0-1.048.6l-.692,2.873A.782.782,0,0,0,1105.066,1788.817Z" transform="translate(-967.058 -1639.188)"/>
      <path id="Path_38539" data-name="Path 38539" d="M1181.413,1141.987l3.554,2.841,24.45,19.509,3.082,2.463c.006.006.018.012.025.018l2.1,1.677,22.04,17.594.755,47.034a5.763,5.763,0,0,0,5.951,5.686l17.9-.579a5.751,5.751,0,0,0,5.556-5.32c1.158-15.332,3.814-47.75-3.755-62.628-3.135-6.164-18.786-22.325-33.577-36.866-1.339-1.323-2.681-2.628-4-3.914-3.808-3.714-7.475-7.24-10.758-10.375a46.624,46.624,0,0,0-32.2-12.907Z" transform="translate(-1133.766 -1101.87)" fill="#80d4ec" stroke="#000" stroke-width="2"/>
      <g id="Group_37310" data-name="Group 37310" transform="translate(0 0)">
        <path id="Path_38541" data-name="Path 38541" d="M1522.817,1279.092l14.087.761a7.6,7.6,0,0,0,7.835-5.939c5.326-23.961,15.668-119.453,25.045-162.431.147-.679-2.681-1.6-6.246-2.485h0l-11.095-2.788h-2.51a22.2,22.2,0,0,0-21.828,18.079l-3.974,25.607-1.883,12.14-6.534,108.294A7.6,7.6,0,0,0,1522.817,1279.092Z" transform="translate(-1515.623 -1106.21)" fill="#80d4ec" stroke="#000" stroke-width="2"/>
      </g>
      <g id="Group_37313" data-name="Group 37313" transform="translate(78.756 64.945)">
        <path id="Path_38544" data-name="Path 38544" d="M1445.672,1404.187a16.039,16.039,0,0,0-2.1-1.677Z" transform="translate(-1443.57 -1402.51)" fill="#4a61d8" stroke="#000" stroke-width="2"/>
      </g>
      <g id="Group_37314" data-name="Group 37314" transform="translate(4.687 20.163) rotate(-3)">
        <path id="Path_38545" data-name="Path 38545" d="M.532,39.573a32.781,32.781,0,0,0,11.906-12.24,21.4,21.4,0,0,0,2.686-12l-.019-.182a22.4,22.4,0,0,0-1.236-5.64l-.034-.1A30.492,30.492,0,0,0,8.247,0L7.484.635a29.59,29.59,0,0,1,5.378,9.022l.034.1a21.383,21.383,0,0,1,1.222,5.626l.019.184a20.5,20.5,0,0,1-2.584,11.3A31.765,31.765,0,0,1,0,38.741Z" stroke="#000" stroke-width="1"/>
      </g>
      <g id="Group_37316" data-name="Group 37316" transform="translate(76.629 13.933)">
        <path id="Path_38547" data-name="Path 38547" d="M1389.92,1171.169l.008-.959a21.952,21.952,0,0,1-8.223-1.617,15.021,15.021,0,0,1-6.735-5.252l-.145-.2a15.988,15.988,0,0,1-1.781-3.458l-.029-.082a21.408,21.408,0,0,1-1.235-6.518l-.959.035a22.5,22.5,0,0,0,1.264,6.734h.458l-.393.182c.07.187.142.372.35.869a15.851,15.851,0,0,0,1.587,2.859h.418l-.177.335a16.011,16.011,0,0,0,7.012,5.391A23.085,23.085,0,0,0,1389.92,1171.169Z" transform="translate(-1370.82 -1153.08)" stroke="#000" stroke-width="1"/>
      </g>
      <g id="Group_37317" data-name="Group 37317" transform="translate(1.357 163.668)">
        <rect id="Rectangle_2572" data-name="Rectangle 2572" width="28.567" height="0.939" transform="translate(0)" stroke="#000" stroke-width="1"/>
      </g>
      <g id="Group_37318" data-name="Group 37318" transform="translate(1.357 154.306)">
        <rect id="Rectangle_2573" data-name="Rectangle 2573" width="30.113" height="0.8" transform="translate(0)" stroke="#000" stroke-width="1"/>
      </g>
      <g id="Group_37319" data-name="Group 37319" transform="translate(103.549 122.493)">
        <rect id="Rectangle_2574" data-name="Rectangle 2574" width="30.059" height="0.959" transform="translate(0)" stroke="#000" stroke-width="1"/>
      </g>
      <g id="Group_37320" data-name="Group 37320" transform="translate(103.432 112.991)">
        <rect id="Rectangle_2575" data-name="Rectangle 2575" width="30.667" height="0.959" transform="translate(0)" stroke="#000" stroke-width="1"/>
      </g>
    </g>
    <g id="Group_37322" data-name="Group 37322" transform="translate(91.206 64.911)">
      <path id="Path_38548" data-name="Path 38548" d="M1424.678,762.068c.018.108.051.225.078.339.1.43.2.851.313,1.268a36.92,36.92,0,0,0,7.168,14.021c.743.9,1.524,1.773,2.348,2.6a37.251,37.251,0,1,0,18.169-62.5c-.493.121-.986.243-1.472.378A37.232,37.232,0,0,0,1424.678,762.068Z" transform="translate(-1423.81 -716.861)" fill="#ed85c0" stroke="#000" stroke-width="2"/>
    </g>
    <g id="Group_37323" data-name="Group 37323" transform="translate(28.006 31.727)">
      <path id="Path_38552" data-name="Path 38552" d="M1983.17,536.645s13.811-.526,21.629,19.625l1.07,40.518s-6.146-13.021-17.377-16.208Z" transform="translate(-1983.17 -536.644)" fill="#fea300" stroke="#000" stroke-width="2"/>
      <path id="Path_38553" data-name="Path 38553" d="M1825.98,602.682a39.752,39.752,0,0,1,33.219-6.53l-.717,42.081a44.887,44.887,0,0,0-31.432,4.966Z" transform="translate(-1804.352 -583.056)" fill="#fea300" stroke="#000" stroke-width="2"/>
    </g>
    <g id="Group_37324" data-name="Group 37324" transform="translate(36.096 64.909)">
      <path id="Path_38555" data-name="Path 38555" d="M1951.357,736.017s-1.747-13.708-2.295-16.975-3.317-7.481-1.256-9.08,4.26,3.315,4.26,3.315-1.773-9.422.317-10.667,3.289,3.73,3.289,3.73-.3-5.137,1.92-5.111,2.375,3.3,2.375,3.3.663-3.569,2.458-3.16,2.653,5.906,2.653,5.906,1-3.46,3.5-.534,2.434,21.617,1.767,25.816Z" transform="translate(-1946.574 -700.751)" fill="#fff" stroke="#000" stroke-width="1"/>
      <path id="Path_38556" data-name="Path 38556" d="M1949.494,734.645a.4.4,0,0,0,.086-.008l18.993-3.458a.478.478,0,0,0,.387-.4c.611-3.845.867-23-1.877-26.2-.89-1.041-1.751-1.479-2.557-1.3a1.968,1.968,0,0,0-1.1.718c-.4-1.8-1.26-4.6-2.761-4.939a1.678,1.678,0,0,0-1.325.245,3.572,3.572,0,0,0-1.161,1.534,2.7,2.7,0,0,0-2.448-1.933,1.738,1.738,0,0,0-1.311.564,4.813,4.813,0,0,0-.994,2.577,3.725,3.725,0,0,0-1.62-1.835,1.653,1.653,0,0,0-1.536.139c-1.65.984-1.348,5.6-.943,8.661a4.181,4.181,0,0,0-2.067-1.64,1.834,1.834,0,0,0-1.618.364c-1.665,1.293-.769,3.814.1,6.252a20.784,20.784,0,0,1,.978,3.287c.54,3.219,2.274,16.819,2.293,16.956a.479.479,0,0,0,.192.327A.516.516,0,0,0,1949.494,734.645Zm18.568-4.35-18.155,3.307c-.321-2.5-1.751-13.61-2.233-16.492a21.388,21.388,0,0,0-1.019-3.45c-.787-2.215-1.531-4.3-.415-5.172a.874.874,0,0,1,.794-.19c1.149.288,2.362,2.5,2.734,3.323a.48.48,0,0,0,.91-.284c-.71-3.775-1.151-9.426.092-10.166a.7.7,0,0,1,.673-.08c.859.362,1.624,2.346,1.9,3.51a.481.481,0,0,0,.947-.141c-.053-.91,0-3.462.83-4.336a.732.732,0,0,1,.605-.268c1.747.02,1.9,2.816,1.9,2.845a.48.48,0,0,0,.951.065,4.889,4.889,0,0,1,1.3-2.669.718.718,0,0,1,.583-.11c1.019.231,1.949,3.362,2.285,5.512a.478.478,0,0,0,.444.4.468.468,0,0,0,.493-.344c.092-.311.481-1.225,1.055-1.348.538-.114,1.18.477,1.622.992C1968.659,707.894,1968.679,725.542,1968.061,730.295Z" transform="translate(-1944.71 -698.9)" stroke="#000" stroke-width="1"/>
      <path id="Path_38557" data-name="Path 38557" d="M1971.512,730.04a.2.2,0,0,0,.034,0,.479.479,0,0,0,.444-.513c-.078-1.074-.446-5.311-.446-5.311l-.957.084s.368,4.227.446,5.3A.48.48,0,0,0,1971.512,730.04Zm4.029-.172a.48.48,0,0,0,.474-.415c.327-2.436-.818-11.792-.867-12.189a.48.48,0,1,0-.953.119c.012.1,1.178,9.63.867,11.944a.48.48,0,0,0,.411.54Zm4.307-1.143a.482.482,0,0,0,.464-.358c.479-1.82-.726-11.786-.865-12.915a.48.48,0,0,0-.953.119c.536,4.364,1.217,11.31.889,12.553a.481.481,0,0,0,.342.587A.5.5,0,0,0,1979.848,728.726Zm4.546-.284a.484.484,0,0,0,.475-.4c.233-1.481-.288-9.471-.311-9.81a.486.486,0,0,0-.509-.448.48.48,0,0,0-.448.511c.15,2.282.5,8.457.319,9.6a.481.481,0,0,0,.4.548A.45.45,0,0,0,1984.394,728.441Z" transform="translate(-1965.572 -711.733)" stroke="#000" stroke-width="1"/>
    </g>
    <g id="Group_37325" data-name="Group 37325" transform="translate(38.463 76.846)">
      <path id="Path_38558" data-name="Path 38558" d="M1771.952,785.819c-5.827,5.72-15.3,33.211-26.952,31.957-13.031-1.4-13.78-19.147-13.78-19.147-.508-2.636-20.535-1.853-21.951,2.434,0,0,8.238,36.5,38.019,38.31,23.312,1.415,32.413-34.968,32.413-34.968" transform="translate(-1709.27 -785.819)" fill="#ed85c0" stroke="#000" stroke-width="2"/>
    </g>
    <g id="Group_37327" data-name="Group 37327" transform="translate(105.32 12.927)">
      <path id="Path_38560" data-name="Path 38560" d="M1513.055,496.279c-1.356,13.01,6.409,25.6,19.089,26.88s25.48-9.242,26.835-22.254-7.828-24.592-20.51-25.871S1514.411,483.269,1513.055,496.279Z" transform="translate(-1512.902 -474.92)" fill="#fff"/>
    </g>
    <g id="Group_37328" data-name="Group 37328" transform="translate(104.788 12.397)">
      <path id="Path_38561" data-name="Path 38561" d="M1532.407,521.975c12.235,0,23.975-10.358,25.274-22.832a24.254,24.254,0,0,0-5.3-17.962,23.1,23.1,0,0,0-15.687-8.492c-12.951-1.3-24.612,8.438-26,21.716h0a27.056,27.056,0,0,0,5.578,19.814,20.389,20.389,0,0,0,13.986,7.649A21.3,21.3,0,0,0,1532.407,521.975Zm1.963-48.341a21.653,21.653,0,0,1,2.221.113,22.048,22.048,0,0,1,14.971,8.105,23.2,23.2,0,0,1,5.065,17.182c-1.317,12.651-13.823,23.033-26.255,21.78a19.353,19.353,0,0,1-13.272-7.263,25.986,25.986,0,0,1-5.345-19.035h0A23.063,23.063,0,0,1,1534.37,473.634Z" transform="translate(-1510.543 -472.572)" stroke="#000" stroke-width="1"/>
    </g>
    <g id="Group_37329" data-name="Group 37329" transform="translate(144.374 37.268)">
      <path id="Path_38562" data-name="Path 38562" d="M1495.193,590.006a7.21,7.21,0,0,1-14.388-.8,6.7,6.7,0,0,1,.535-2.27,7.3,7.3,0,0,1,13.267-.043A6.58,6.58,0,0,1,1495.193,590.006Z" transform="translate(-1480.794 -582.668)" fill="#fff"/>
    </g>
    <g id="Group_37330" data-name="Group 37330" transform="translate(144.392 36.735)">
      <path id="Path_38563" data-name="Path 38563" d="M1485.664,595.257a7.6,7.6,0,0,0,7.69-7.053,7.187,7.187,0,0,0-.63-3.361,7.793,7.793,0,0,0-6.678-4.525,7.713,7.713,0,0,0-7.561,4.581.53.53,0,1,0,.976.416,6.774,6.774,0,0,1,12.294-.038,6.119,6.119,0,0,1,.54,2.869,6.575,6.575,0,0,1-7.019,6.038,6.841,6.841,0,0,1-4.152-1.7.53.53,0,1,0-.7.793,7.894,7.894,0,0,0,4.8,1.963C1485.366,595.255,1485.515,595.257,1485.664,595.257Z" transform="translate(-1478.442 -580.306)" stroke="#000" stroke-width="1"/>
    </g>
    <g id="Group_37331" data-name="Group 37331" transform="translate(126.474 5.546)">
      <path id="Path_38564" data-name="Path 38564" d="M1494.425,473.778a12.894,12.894,0,0,0-7.035,4.916s-15.551-2.634-17.86-15.219,9.524-24.172,21.4-20.56,5.932,15.47,5.932,15.47,7.077.877,7.285,8.137-4.506,9.54-4.506,9.54A6.788,6.788,0,0,0,1494.425,473.778Z" transform="translate(-1469.24 -442.244)"/>
    </g>
    <g id="Group_37332" data-name="Group 37332" transform="translate(102.434 -7.459)">
      <ellipse id="Ellipse_72" data-name="Ellipse 72" cx="17.801" cy="17.169" rx="17.801" ry="17.169" transform="translate(35.548 36.257) rotate(-176.824)"/>
    </g>
    <g id="Group_37333" data-name="Group 37333" transform="translate(120.917 35.814)">
      <ellipse id="Ellipse_73" data-name="Ellipse 73" cx="1.663" cy="2.227" rx="1.663" ry="2.227" transform="translate(3.275 4.966) rotate(-169.973)"/>
    </g>
    <g id="Group_37334" data-name="Group 37334" transform="translate(121.239 32.621)">
      <path id="Path_38565" data-name="Path 38565" d="M1630.032,564.936a.547.547,0,0,0,.206-.041.53.53,0,0,0,.282-.693,3.4,3.4,0,0,0-2.015-1.9,3.111,3.111,0,0,0-2.453.093.53.53,0,1,0,.492.94,2.081,2.081,0,0,1,1.6-.034,2.354,2.354,0,0,1,1.394,1.31A.533.533,0,0,0,1630.032,564.936Z" transform="translate(-1625.767 -562.098)" stroke="#000" stroke-width="1"/>
    </g>
    <g id="Group_37335" data-name="Group 37335" transform="translate(109.029 31.48)">
      <ellipse id="Ellipse_74" data-name="Ellipse 74" cx="1.663" cy="2.227" rx="1.663" ry="2.227" transform="translate(3.275 4.966) rotate(-169.973)"/>
    </g>
    <g id="Group_37336" data-name="Group 37336" transform="translate(109.35 28.289)">
      <path id="Path_38566" data-name="Path 38566" d="M1682.661,545.756a.548.548,0,0,0,.206-.041.53.53,0,0,0,.282-.693,3.4,3.4,0,0,0-2.015-1.9,3.112,3.112,0,0,0-2.453.092.531.531,0,0,0,.492.94,2.079,2.079,0,0,1,1.6-.034,2.36,2.36,0,0,1,1.4,1.312A.534.534,0,0,0,1682.661,545.756Z" transform="translate(-1678.397 -542.918)" stroke="#000" stroke-width="1"/>
    </g>
    <g id="Group_37337" data-name="Group 37337" transform="translate(110.692 31.262)">
      <path id="Path_38567" data-name="Path 38567" d="M1668.285,572.706a.53.53,0,0,0,.153-1.037c-1.938-.594-5.123-2.008-5.41-3.269-.045-.2-.049-.515.434-.96,2.953-2.718,5.519-10.337,5.627-10.66a.53.53,0,1,0-1.005-.337c-.025.077-2.587,7.683-5.34,10.216a2,2,0,0,0-.75,1.977c.515,2.266,5.559,3.872,6.133,4.046A.5.5,0,0,0,1668.285,572.706Z" transform="translate(-1661.948 -556.082)" stroke="#000" stroke-width="1"/>
    </g>
    <g id="Group_37338" data-name="Group 37338" transform="translate(120.131 51.135)">
      <path id="Path_38568" data-name="Path 38568" d="M1624.85,646.2a7.3,7.3,0,0,0,3.2-.82.53.53,0,1,0-.466-.953c-3.422,1.665-5.114-.122-5.184-.2a.53.53,0,0,0-.793.7A4.436,4.436,0,0,0,1624.85,646.2Z" transform="translate(-1621.472 -644.049)" stroke="#000" stroke-width="1"/>
    </g>
    <g id="Group_37339" data-name="Group 37339" transform="translate(299.13 129.994)">
      <path id="Path_38569" data-name="Path 38569" d="M590.144,1025.015l-10.25,12.265s-3.966,6.313-5.1,8.031a3.931,3.931,0,0,1-.3.427c-.016,0-.2-.086-.53-.246-.478-.231-1.264-.614-2.274-1.114-7.42-3.645-27.389-13.57-27.389-13.57l2.215-8.651c10.111-.147,23.353,9.6,23.353,9.6,4.043-6.4,9.539-12.432,12.627-14.457,1.137-.746,2.037,1.284,2.037,1.284-1.972,1.1-4.461,4.518-4.614,4.733a50.986,50.986,0,0,1,5.651-3.708C587.661,1021.054,590.144,1025.015,590.144,1025.015Z" transform="translate(-544.3 -1017.134)" fill="#fff" stroke="#000" stroke-width="2"/>
    </g>
    <g id="Group_37340" data-name="Group 37340" transform="translate(324.698 129.994)">
      <path id="Path_38570" data-name="Path 38570" d="M564.576,1025.015l-10.25,12.265s-3.966,6.313-5.1,8.031l-.828.182-2.053.442-.221-1.556-1.82-12.623c4.043-6.4,9.538-12.432,12.627-14.457,1.137-.746,2.037,1.284,2.037,1.284-1.971,1.1-4.46,4.518-4.614,4.733a50.986,50.986,0,0,1,5.651-3.708C562.093,1021.054,564.576,1025.015,564.576,1025.015Z" transform="translate(-544.3 -1017.134)" fill="#fff" stroke="#000" stroke-width="2"/>
    </g>
    <g id="Group_37341" data-name="Group 37341" transform="translate(291.726 137.836)">
      <path id="Path_38571" data-name="Path 38571" d="M559.472,1055.613s-12.138-2.517-22.047,14.146l-6.966,35.681s7.371-10.6,17.778-11.754Z" transform="translate(-503.395 -1055.477)" fill="#c16cf9" stroke="#000" stroke-width="2"/>
      <path id="Path_38572" data-name="Path 38572" d="M672.3,1083.281a35.65,35.65,0,0,0-28.413-10.71l-5.616,37.33a40.252,40.252,0,0,1,27.063,9.062Z" transform="translate(-638.27 -1069.001)" fill="#c16cf9" stroke="#000" stroke-width="2"/>
    </g>
    <g id="Group_37345" data-name="Group 37345" transform="translate(207.115 11.022)">
      <path id="Path_38581" data-name="Path 38581" d="M1107.15,505.687c7.1,0,12.669-15.437,12.669-35.143s-5.565-35.144-12.669-35.144-12.67,15.437-12.67,35.144S1100.045,505.687,1107.15,505.687Zm0-69.33c6.346,0,11.708,15.654,11.708,34.184s-5.362,34.184-11.708,34.184-11.708-15.655-11.708-34.184S1100.8,436.357,1107.15,436.357Z" transform="translate(-1094.48 -435.4)"/>
    </g>
    <g id="Group_37346" data-name="Group 37346" transform="translate(190.03 25.557)">
      <path id="Path_38582" data-name="Path 38582" d="M1068.991,549.022a15.077,15.077,0,0,0,3.884-.458,6.77,6.77,0,0,0,4.508-3.26c3.536-6.657-5.99-19.588-21.685-29.442-11.481-7.207-23.208-10.715-29.873-8.933a6.775,6.775,0,0,0-4.508,3.26c-3.536,6.657,5.988,19.588,21.682,29.442C1052.5,545.592,1062.163,549.022,1068.991,549.022Zm-39.348-41.584c6.624,0,16.3,3.43,25.546,9.236,15.015,9.426,24.591,22.067,21.345,28.178a5.855,5.855,0,0,1-3.908,2.784c-6.319,1.689-18.022-1.855-29.117-8.819-15.016-9.426-24.591-22.067-21.345-28.178a5.855,5.855,0,0,1,3.908-2.783A13.967,13.967,0,0,1,1029.643,507.438Z" transform="translate(-1020.581 -506.471)" stroke="#000" stroke-width="1"/>
    </g>
    <g id="Group_37347" data-name="Group 37347" transform="translate(189.99 24.295)">
      <path id="Path_38583" data-name="Path 38583" d="M1029.9,542.852c6.831,0,16.494-3.43,25.99-9.391,15.694-9.852,25.219-22.785,21.685-29.442a6.772,6.772,0,0,0-4.51-3.26c-6.667-1.781-18.394,1.726-29.873,8.933-15.695,9.851-25.219,22.785-21.685,29.442a6.772,6.772,0,0,0,4.51,3.26A15.086,15.086,0,0,0,1029.9,542.852Zm39.35-41.582a13.938,13.938,0,0,1,3.569.417,5.854,5.854,0,0,1,3.908,2.784c3.244,6.111-6.332,18.752-21.345,28.178-11.093,6.964-22.791,10.508-29.116,8.819a5.854,5.854,0,0,1-3.908-2.783c-3.243-6.111,6.332-18.752,21.345-28.178C1052.956,504.7,1062.629,501.27,1069.253,501.27Z" transform="translate(-1020.774 -500.301)" stroke="#000" stroke-width="1"/>
    </g>
    <g id="Group_37348" data-name="Group 37348" transform="translate(207.115 11.022)">
      <path id="Path_38584" data-name="Path 38584" d="M1107.15,505.687c7.1,0,12.669-15.437,12.669-35.143s-5.565-35.144-12.669-35.144-12.67,15.437-12.67,35.144S1100.045,505.687,1107.15,505.687Zm0-69.33c6.346,0,11.708,15.654,11.708,34.184s-5.362,34.184-11.708,34.184-11.708-15.655-11.708-34.184S1100.8,436.357,1107.15,436.357Z" transform="translate(-1094.48 -435.4)" stroke="#000" stroke-width="1"/>
    </g>
    <g id="Group_37349" data-name="Group 37349" transform="translate(213.886 40.864)">
      <ellipse id="Ellipse_76" data-name="Ellipse 76" cx="4.874" cy="5.299" rx="4.874" ry="5.299" transform="translate(0)" fill="#ed85c0"/>
    </g>
    <g id="Group_37350" data-name="Group 37350" transform="translate(188.152 25.82)">
      <ellipse id="Ellipse_77" data-name="Ellipse 77" cx="3.855" cy="4.193" rx="3.855" ry="4.193" transform="translate(0)" fill="#80d4ec"/>
    </g>
    <g id="Group_37351" data-name="Group 37351" transform="translate(220.948 72.756)">
      <ellipse id="Ellipse_78" data-name="Ellipse 78" cx="3.855" cy="4.193" rx="3.855" ry="4.193" transform="translate(0)" fill="#f6d854"/>
    </g>
    <g id="Group_37352" data-name="Group 37352" transform="translate(242.663 26.305)">
      <ellipse id="Ellipse_79" data-name="Ellipse 79" cx="3.855" cy="4.193" rx="3.855" ry="4.193" transform="translate(0)" fill="#a4e3db"/>
    </g>
  </g>
</svg>
