<svg xmlns="http://www.w3.org/2000/svg" width="237.25" height="326.683" viewBox="0 0 237.25 326.683">
  <g id="Group_37404" data-name="Group 37404" transform="translate(-1370.75 -5146.708)">
    <text id="_" data-name="?" transform="translate(1500.354 5394.703) rotate(7)" fill="#ed85c0" font-size="224" font-family="Poppins-Bold, Poppins" font-weight="700"><tspan x="-120.512" y="0">?</tspan></text>
    <path id="_-_Outline" data-name="? - Outline" d="M-60.7-167.984A71.666,71.666,0,0,1-38.5-164.749a50.357,50.357,0,0,1,17.518,9.8A41.717,41.717,0,0,1-9.6-139.076a55.511,55.511,0,0,1,3.76,21.028,50.224,50.224,0,0,1-3.6,19.506A39.417,39.417,0,0,1-20.317-83.711a49.153,49.153,0,0,1-16.661,9.255,68.171,68.171,0,0,1-19.164,3.17l-1.123,16.838H-94.683l-1.228-45.664h15.494c11.149,0,19.719-1.368,25.471-4.067,5.33-2.5,7.921-6.964,7.921-13.645,0-4.738-1.212-8.318-3.706-10.943-2.466-2.6-5.875-3.857-10.422-3.857-4.859,0-8.494,1.3-11.112,3.989s-3.912,6.308-3.912,11.035v2h-40l-.063-1.934a52.292,52.292,0,0,1,1.255-13.509,46.168,46.168,0,0,1,4.712-12.175,43.372,43.372,0,0,1,8.042-10.3,49.719,49.719,0,0,1,11.143-7.851,55.5,55.5,0,0,1,13.971-4.97A77.819,77.819,0,0,1-60.7-167.984Zm-.3,109.536,1.119-16.782,1.853-.018c14.53-.144,26.347-4.015,35.121-11.505,8.676-7.406,13.075-17.935,13.075-31.295C-9.84-132.6-14.469-144-23.6-151.93c-9.213-8-21.7-12.054-37.1-12.054-11.119,0-20.718,2.071-28.529,6.156a41.774,41.774,0,0,0-17.551,16.567,44,44,0,0,0-5.486,21.661H-80.1a18.3,18.3,0,0,1,4.977-11.829c3.363-3.447,8.065-5.2,13.976-5.2,5.623,0,10.106,1.717,13.322,5.1,3.189,3.357,4.806,7.965,4.806,13.7a20.447,20.447,0,0,1-2.543,10.476,17.034,17.034,0,0,1-7.679,6.79A44.293,44.293,0,0,1-64.893-97.2a98.647,98.647,0,0,1-15.523,1.09H-91.8l1.012,37.664ZM-75.488-41.872c7.069,0,13,2.219,17.616,6.6a21.852,21.852,0,0,1,7.008,16.46A21.246,21.246,0,0,1-57.886-2.679c-4.618,4.294-10.54,6.471-17.6,6.471-7.21,0-13.208-2.177-17.826-6.471a21.246,21.246,0,0,1-7.022-16.137,21.852,21.852,0,0,1,7.008-16.46C-88.707-39.653-82.705-41.872-75.488-41.872Zm0,41.664c6.1,0,10.97-1.767,14.878-5.4a17.169,17.169,0,0,0,5.746-13.207,17.764,17.764,0,0,0-5.76-13.556c-3.906-3.7-8.769-5.5-14.864-5.5-6.247,0-11.182,1.8-15.089,5.5a17.764,17.764,0,0,0-5.759,13.556A17.169,17.169,0,0,0-90.59-5.609C-86.682-1.975-81.742-.208-75.488-.208Z" transform="translate(1500.354 5394.703) rotate(7)"/>
    <path id="Path_39273" data-name="Path 39273" d="M-60.7-165.984q23.968,0,38.416,12.544T-7.84-118.048q0,21.056-13.776,32.816t-36.4,11.984l-1.12,16.8h-33.6l-1.12-41.664h13.44q17.248,0,26.32-4.256t9.072-15.456q0-7.84-4.256-12.32t-11.872-4.48q-8.064,0-12.544,4.592t-4.48,12.432H-114.24a46.268,46.268,0,0,1,5.712-24.64A43.543,43.543,0,0,1-90.16-159.6Q-77.952-165.984-60.7-165.984ZM-75.488,1.792q-10.08,0-16.464-5.936a19.235,19.235,0,0,1-6.384-14.672,19.837,19.837,0,0,1,6.384-15.008q6.384-6.048,16.464-6.048,9.856,0,16.24,6.048a19.837,19.837,0,0,1,6.384,15.008A19.235,19.235,0,0,1-59.248-4.144Q-65.632,1.792-75.488,1.792Z" transform="translate(1497.604 5391.995) rotate(7)" fill="#ed85c0"/>
    <path id="_-_Outline-2" data-name="? - Outline" d="M-60.7-167.984A71.666,71.666,0,0,1-38.5-164.749a50.357,50.357,0,0,1,17.518,9.8A41.717,41.717,0,0,1-9.6-139.076a55.511,55.511,0,0,1,3.76,21.028,50.224,50.224,0,0,1-3.6,19.506A39.417,39.417,0,0,1-20.317-83.711a49.153,49.153,0,0,1-16.661,9.255,68.171,68.171,0,0,1-19.164,3.17l-1.123,16.838H-94.683l-1.228-45.664h15.494c11.149,0,19.719-1.368,25.471-4.067,5.33-2.5,7.921-6.964,7.921-13.645,0-4.738-1.212-8.318-3.706-10.943-2.466-2.6-5.875-3.857-10.422-3.857-4.859,0-8.494,1.3-11.112,3.989s-3.912,6.308-3.912,11.035v2h-40l-.063-1.934a52.292,52.292,0,0,1,1.255-13.509,46.168,46.168,0,0,1,4.712-12.175,43.372,43.372,0,0,1,8.042-10.3,49.719,49.719,0,0,1,11.143-7.851,55.5,55.5,0,0,1,13.971-4.97A77.819,77.819,0,0,1-60.7-167.984Zm-.3,109.536,1.119-16.782,1.853-.018c14.53-.144,26.347-4.015,35.121-11.505,8.676-7.406,13.075-17.935,13.075-31.295C-9.84-132.6-14.469-144-23.6-151.93c-9.213-8-21.7-12.054-37.1-12.054-11.119,0-20.718,2.071-28.529,6.156a41.774,41.774,0,0,0-17.551,16.567,44,44,0,0,0-5.486,21.661H-80.1a18.3,18.3,0,0,1,4.977-11.829c3.363-3.447,8.065-5.2,13.976-5.2,5.623,0,10.106,1.717,13.322,5.1,3.189,3.357,4.806,7.965,4.806,13.7a20.447,20.447,0,0,1-2.543,10.476,17.034,17.034,0,0,1-7.679,6.79A44.293,44.293,0,0,1-64.893-97.2a98.647,98.647,0,0,1-15.523,1.09H-91.8l1.012,37.664ZM-75.488-41.872c7.069,0,13,2.219,17.616,6.6a21.852,21.852,0,0,1,7.008,16.46A21.246,21.246,0,0,1-57.886-2.679c-4.618,4.294-10.54,6.471-17.6,6.471-7.21,0-13.208-2.177-17.826-6.471a21.246,21.246,0,0,1-7.022-16.137,21.852,21.852,0,0,1,7.008-16.46C-88.707-39.653-82.705-41.872-75.488-41.872Zm0,41.664c6.1,0,10.97-1.767,14.878-5.4a17.169,17.169,0,0,0,5.746-13.207,17.764,17.764,0,0,0-5.76-13.556c-3.906-3.7-8.769-5.5-14.864-5.5-6.247,0-11.182,1.8-15.089,5.5a17.764,17.764,0,0,0-5.759,13.556A17.169,17.169,0,0,0-90.59-5.609C-86.682-1.975-81.742-.208-75.488-.208Z" transform="translate(1497.604 5391.995) rotate(7)"/>
    <text id="_2" data-name="!" transform="translate(1579.361 5395.973) rotate(7)" fill="#a4e3db" font-size="224" font-family="Poppins-Bold, Poppins" font-weight="700"><tspan x="-87.808" y="0">!</tspan></text>
    <path id="_-_Outline-3" data-name="! - Outline" d="M-67.045-164.848h45.61l-4.647,111.3H-62.4Zm41.44,4h-37.27l4.313,103.3h28.644ZM-43.68-41.872c7.069,0,13,2.219,17.616,6.6a21.852,21.852,0,0,1,7.008,16.46A21.246,21.246,0,0,1-26.078-2.679c-4.618,4.294-10.54,6.471-17.6,6.471-7.21,0-13.208-2.177-17.826-6.471a21.246,21.246,0,0,1-7.022-16.137,21.852,21.852,0,0,1,7.008-16.46C-56.9-39.653-50.9-41.872-43.68-41.872Zm0,41.664c6.1,0,10.97-1.767,14.878-5.4a17.169,17.169,0,0,0,5.746-13.207,17.764,17.764,0,0,0-5.759-13.556c-3.906-3.7-8.769-5.5-14.865-5.5-6.247,0-11.182,1.8-15.089,5.5a17.764,17.764,0,0,0-5.759,13.556A17.169,17.169,0,0,0-58.782-5.609C-54.874-1.975-49.934-.208-43.68-.208Z" transform="translate(1579.361 5395.973) rotate(7)"/>
    <path id="Path_39274" data-name="Path 39274" d="M-23.52-162.848-28-55.552H-60.48l-4.48-107.3ZM-43.68,1.792q-10.08,0-16.464-5.936a19.235,19.235,0,0,1-6.384-14.672,19.837,19.837,0,0,1,6.384-15.008q6.384-6.048,16.464-6.048,9.856,0,16.24,6.048a19.837,19.837,0,0,1,6.384,15.008A19.235,19.235,0,0,1-27.44-4.144Q-33.824,1.792-43.68,1.792Z" transform="translate(1576.85 5395.973) rotate(7)" fill="#a4e3db"/>
    <path id="_-_Outline-4" data-name="! - Outline" d="M-67.045-164.848h45.61l-4.647,111.3H-62.4Zm41.44,4h-37.27l4.313,103.3h28.644ZM-43.68-41.872c7.069,0,13,2.219,17.616,6.6a21.852,21.852,0,0,1,7.008,16.46A21.246,21.246,0,0,1-26.078-2.679c-4.618,4.294-10.54,6.471-17.6,6.471-7.21,0-13.208-2.177-17.826-6.471a21.246,21.246,0,0,1-7.022-16.137,21.852,21.852,0,0,1,7.008-16.46C-56.9-39.653-50.9-41.872-43.68-41.872Zm0,41.664c6.1,0,10.97-1.767,14.878-5.4a17.169,17.169,0,0,0,5.746-13.207,17.764,17.764,0,0,0-5.759-13.556c-3.906-3.7-8.769-5.5-14.865-5.5-6.247,0-11.182,1.8-15.089,5.5a17.764,17.764,0,0,0-5.759,13.556A17.169,17.169,0,0,0-58.782-5.609C-54.874-1.975-49.934-.208-43.68-.208Z" transform="translate(1576.85 5395.973) rotate(7)"/>
  </g>
</svg>
