<svg xmlns="http://www.w3.org/2000/svg" width="679.209" height="484.649" viewBox="0 0 679.209 484.649">
  <g id="Group_37624" data-name="Group 37624" transform="translate(7.209 -4626.343)">
    <path id="Path_38838" data-name="Path 38838" d="M-5943.695,3007.142H-6622.9" transform="translate(6615.695 1784.858)" fill="none" stroke="#000" stroke-width="4"/>
    <g id="bookmark" transform="translate(7366 3522.843)">
      <path id="Path_38268" data-name="Path 38268" d="M1416.963,323.057V530.3a27.239,27.239,0,0,1-27.237,27.237H1189.547A27.239,27.239,0,0,1,1162.31,530.3V323.057a27.239,27.239,0,0,1,27.237-27.237h200.178A27.24,27.24,0,0,1,1416.963,323.057Z" transform="translate(-8162.949 808.829)" fill="#fff"/>
      <path id="Path_38269" data-name="Path 38269" d="M1484.086,837.578H1282.12a2.52,2.52,0,0,1-2.52-2.52V803.43a2.52,2.52,0,0,1,2.52-2.52h201.966a2.521,2.521,0,0,1,2.52,2.52v31.628A2.521,2.521,0,0,1,1484.086,837.578Zm0,56.123H1282.12a2.52,2.52,0,0,1-2.52-2.52V859.553a2.52,2.52,0,0,1,2.52-2.52h201.966a2.521,2.521,0,0,1,2.52,2.52v31.628A2.521,2.521,0,0,1,1484.086,893.7Z" transform="translate(-8250.624 431.273)" fill="#ecedeb"/>
      <path id="Path_38270" data-name="Path 38270" d="M1387.8,556.26H1187.626a27.916,27.916,0,0,1-27.886-27.886V321.136a27.918,27.918,0,0,1,27.886-27.886H1387.8a27.916,27.916,0,0,1,27.886,27.886V528.375A27.914,27.914,0,0,1,1387.8,556.26ZM1187.626,294.55a26.615,26.615,0,0,0-26.586,26.586V528.375a26.616,26.616,0,0,0,26.586,26.586H1387.8a26.615,26.615,0,0,0,26.586-26.586V321.136A26.617,26.617,0,0,0,1387.8,294.55Z" transform="translate(-8161.029 810.75)" stroke="#000" stroke-width="1"/>
      <ellipse id="Ellipse_23" data-name="Ellipse 23" cx="3.644" cy="3.644" rx="3.644" ry="3.644" transform="translate(-6983.095 1121.354)"/>
      <ellipse id="Ellipse_24" data-name="Ellipse 24" cx="3.644" cy="3.644" rx="3.644" ry="3.644" transform="translate(-6971.023 1121.354)"/>
      <ellipse id="Ellipse_25" data-name="Ellipse 25" cx="3.644" cy="3.644" rx="3.644" ry="3.644" transform="translate(-6958.952 1121.354)"/>
      <path id="Path_38271" data-name="Path 38271" d="M1507.947,582.111H1263.18a2.52,2.52,0,0,1-2.52-2.52V533.48a2.521,2.521,0,0,1,2.52-2.52h244.767a2.521,2.521,0,0,1,2.52,2.52v46.112A2.52,2.52,0,0,1,1507.947,582.111Z" transform="translate(-8236.467 633.061)" fill="#fea300"/>
      <path id="Path_38272" data-name="Path 38272" d="M281.554,1113.57s-13.792,10.491-17.2,12.875-9.605,3.611-9.221,6.863,6.711.894,6.711.894-9.981,6.7-9.259,9.666,6.227-.341,6.227-.341-4.856,4.249-2.881,6.212,5.04-.781,5.04-.781-2.608,3.73-.664,4.977,7.613-2.821,7.613-2.821-2.214,3.934,2.6,3.6,21.467-16.832,24.634-21.119Z" transform="translate(-7482.904 198.56)" fill="#fff" stroke="#000" stroke-width="2"/>
      <path id="Path_38274" data-name="Path 38274" d="M278.883,1181.214l-.828-1s4.1-3.388,5.126-4.26a.65.65,0,0,1,.843.99C283,1177.818,278.883,1181.214,278.883,1181.214Zm-3.444,9.474a.65.65,0,0,1-.4-1.167c.1-.073,9.64-7.411,11.433-9.719a.652.652,0,0,1,1.03.8c-1.894,2.439-11.269,9.645-11.668,9.954A.661.661,0,0,1,275.439,1190.687Zm2.159,5.432a.651.651,0,0,1-.4-1.167c4.371-3.356,11.173-8.85,11.994-10.231a.65.65,0,1,1,1.119.664c-1.212,2.038-11.186,9.727-12.319,10.6A.634.634,0,0,1,277.6,1196.119Zm6.949,2.154a.649.649,0,0,1-.424-1.141c2.171-1.874,7.994-6.987,8.855-8.148a.651.651,0,0,1,1.045.775c-1.124,1.515-8.726,8.077-9.05,8.358A.658.658,0,0,1,284.547,1198.273Z" transform="translate(-7499.525 152.045)" stroke="#000" stroke-width="1"/>
      <path id="Path_38275" data-name="Path 38275" d="M915.29,2049.84v30.305a9.3,9.3,0,0,0,9.307,9.307h36.612a7.967,7.967,0,0,0,7.951-8.024,17.419,17.419,0,0,0-17.389-17.266H939.093l-1.467-14.322Z" transform="translate(-7978.301 -502.303)" fill="#c16cf9" stroke="#000" stroke-width="2"/>
      <path id="Path_38276" data-name="Path 38276" d="M969.078,2080.16c.035.426.071.853.073,1.29a7.967,7.967,0,0,1-7.951,8.024H924.587a9.3,9.3,0,0,1-9.307-9.307v-.007Zm-53.8-22.752v-7.548h22.336l.732,7.106C932.748,2058.1,915.28,2058.973,915.28,2057.408Z" transform="translate(-7978.294 -502.318)"/>
      <g id="Group_37187" data-name="Group 37187" transform="translate(-7213.138 1532.67)">
        <path id="Path_38279" data-name="Path 38279" d="M332.425,1990.96l-11.037,28.225a9.306,9.306,0,0,0,5.28,12.059l34.1,13.334A7.967,7.967,0,0,0,371.1,2040a17.419,17.419,0,0,0-9.905-22.415l-11.807-4.618,3.848-13.872Z" transform="translate(-320.741 -1990.96)" fill="#c16cf9" stroke="#000" stroke-width="2"/>
        <path id="Path_38280" data-name="Path 38280" d="M371.476,2038.788c-.124.412-.245.821-.4,1.23a7.966,7.966,0,0,1-10.327,4.578l-34.1-13.334a9.305,9.305,0,0,1-5.28-12.06l0-.005Zm-41.819-40.779,2.75-7.03,20.8,8.136L351.3,2006C345.673,2005.019,329.089,1999.464,329.658,1998.01Z" transform="translate(-320.726 -1990.975)"/>
      </g>
      <g id="Group_37189" data-name="Group 37189" transform="translate(-7210.01 1222.172)">
        <path id="Path_38283" data-name="Path 38283" d="M428.358,853.316s-.682.581-1.934,1.631c-3.378,2.846-10.893,9.163-20.223,17.008-25.765,21.642-47.76,40.173-52.171,43.5-4.752,3.583-24.273-17.622-20.415-23.9,3.51-5.719,90.193-77.479,90.193-77.479Z" transform="translate(-333.114 -800.736)" fill="#ed85c0" stroke="#000" stroke-width="2"/>
        <path id="Path_38285" data-name="Path 38285" d="M447.707,1093.76h0a42.016,42.016,0,0,0-38.486,25.146c-26.74,60.981-74.679,198.785-74.116,200.421,2.692,7.805,32.567,14.534,38.488,10.229,7.656-5.568,80.84-181.426,80.84-181.426l-6.727-54.371" transform="translate(-334.599 -1009.804)" fill="#80d4ec" stroke="#000" stroke-width="2"/>
        <path id="Path_38287" data-name="Path 38287" d="M732.135,800.155c0,.5-.01.985-.028,1.475a38.631,38.631,0,0,1-3.969,15.71,36.333,36.333,0,0,1-3.25,5.4c-.091.146-.194.3-.3.442a39.008,39.008,0,1,1,7.55-23.023Z" transform="translate(-573.238 -761.26)" fill="#ed85c0" stroke="#000" stroke-width="2"/>
        <path id="Path_38290" data-name="Path 38290" d="M816.528,1334.116c-4.749,7.189-37.86,9.148-40.1,1.611-1.141-3.831-31.494-165.526-31.494-165.526a102.033,102.033,0,0,1,4.679-74.921l.709-1.52,4.651.3a42.01,42.01,0,0,1,38.981,36.034C803.138,1194.881,820.068,1328.761,816.528,1334.116Z" transform="translate(-637.209 -1009.804)" fill="#80d4ec" stroke="#000" stroke-width="2"/>
        <path id="Path_38292" data-name="Path 38292" d="M659.643,1233.458h-.034l-13.839-.783a.644.644,0,0,1-.6-.684.653.653,0,0,1,.668-.614l13.839.783a.65.65,0,0,1-.034,1.3Zm-87.8,22.523a.667.667,0,0,1-.229-.043l-8.7-3.436a.655.655,0,0,1-.365-.838l10.96-29.671a.636.636,0,0,1,.5-.414l7.573-1.1a.65.65,0,0,1,.177,1.287l-8.239,1.089L562.3,1251.132l9.772,3.591a.655.655,0,0,1,.365.84A.631.631,0,0,1,571.845,1255.981Z" transform="matrix(1, 0.017, -0.017, 1, -480.884, -1114.985)" stroke="#000" stroke-width="1"/>
        <path id="Path_38293" data-name="Path 38293" d="M421.472,1251.765a.649.649,0,0,1-.121-.01l-8.027-1.517c-.352-.066-.065-.4,0-.755s-.115-.591.239-.525l8.027,1.517a.651.651,0,0,1-.118,1.29Zm75.872,189.112A65.167,65.167,0,0,1,481.7,1439a.651.651,0,0,1,.309-1.265c18.164,4.479,34.221-.225,42.178-3.426.329-.133-1.388.234-1.255.567s2.069.506,1.735.64A74.3,74.3,0,0,1,497.344,1440.876Zm-.053-13.753a64.422,64.422,0,0,1-18.395-2.636.65.65,0,0,1,.367-1.247c18.6,5.522,35.464.949,43.863-2.267.334-.129-.321.109-.193.446s.986.643.653.769A74.672,74.672,0,0,1,497.291,1427.123Zm-106.2,7.042c-8.971,0-25.28-1.707-40.37-12.249a.649.649,0,0,1,.738-1.068c15.359,10.731,32.032,12.143,40.6,12.011l-.7-.255c.354,0-.273.365-.268.721s-.1.834-.453.84C390.318,1434.167,391.429,1434.165,391.09,1434.165Z" transform="translate(-345.066 -1125.806)" stroke="#000" stroke-width="1"/>
        <g id="Group_37188" data-name="Group 37188" transform="translate(9.839 281.092)">
          <path id="Path_38294" data-name="Path 38294" d="M413.626,1889.507h0c-8.885-.025-26.061-1.856-41.3-13.849a.657.657,0,0,1-.117-.9.618.618,0,0,1,.88-.12c14.943,11.763,31.811,13.561,40.536,13.584a.645.645,0,0,1,0,1.289Z" transform="translate(-372.081 -1874.501)" stroke="#000" stroke-width="1"/>
        </g>
      </g>
      <g id="Group_37190" data-name="Group 37190" transform="translate(-6897.695 1179)">
        <path id="Path_38295" data-name="Path 38295" d="M1715.687,591.583H1570.662a.651.651,0,1,1,0-1.3h145.025a.651.651,0,0,1,0,1.3Zm0,9.946H1570.662a.651.651,0,1,1,0-1.3h145.025a.651.651,0,0,1,0,1.3Zm0,9.943H1610.44a.651.651,0,0,1,0-1.3h105.247a.651.651,0,0,1,0,1.3Z" transform="translate(-1570.01 -590.28)" stroke="#191919" stroke-width="1"/>
      </g>
      <g id="Group_37191" data-name="Group 37191" transform="translate(-6958.952 1170.235)">
        <path id="Path_38296" data-name="Path 38296" d="M1345.926,555.57l5.722,11.595,12.8,1.858-9.259,9.024,2.186,12.744-11.446-6.017-11.443,6.017,2.187-12.744-9.259-9.024,12.794-1.858Z" transform="translate(-1327.41 -555.57)" fill="#fff"/>
      </g>
      <g id="Group_37193" data-name="Group 37193" transform="translate(-6984.969 1193.054)">
        <line id="Line_26" data-name="Line 26" x1="1.204" y2="4.106" transform="translate(7.983 20.96)" fill="#fff" stroke="#000" stroke-width="1"/>
        <path id="Path_38297" data-name="Path 38297" d="M1226.95,686.387l20.778,8.987s7.592-12.734,8.759-18.473c1.364-6.7-3.032-6.376-3.348-6.136-.341-4.818-4.575-3.055-4.575-3.055-.374-5.113-5.338-3.24-5.338-3.24s5.578-15.329.56-15.94c-3.525-.429-8.118,19.574-8.3,20.3-.03-.437-.568-7.57-3.669-6.53C1228.619,663.377,1226.95,686.387,1226.95,686.387Z" transform="translate(-1226.299 -647.871)" fill="#fff" stroke="#000" stroke-width="1"/>
        <path id="Path_38298" data-name="Path 38298" d="M1245.8,694.092a.669.669,0,0,1-.258-.053l-20.778-8.986a.649.649,0,0,1-.391-.644c.4-5.5,1.96-23.528,5.308-24.654a2.266,2.266,0,0,1,2.048.247,6.152,6.152,0,0,1,1.969,3.593c2.247-8.843,5.29-18,8.237-17.645a2.609,2.609,0,0,1,1.962,1.273c1.9,3.093-.545,11.266-1.6,14.4a4.654,4.654,0,0,1,3.187.525,3.963,3.963,0,0,1,1.694,2.788,4.036,4.036,0,0,1,2.957.364,3.792,3.792,0,0,1,1.636,2.788,3.7,3.7,0,0,1,1.9.538c1.144.722,2.338,2.431,1.515,6.474-1.177,5.78-8.527,18.152-8.838,18.677A.647.647,0,0,1,1245.8,694.092Zm-20.1-10.049,19.826,8.572c1.394-2.388,7.388-12.842,8.39-17.778.485-2.384.26-4.078-.654-4.9a2.227,2.227,0,0,0-1.755-.528.654.654,0,0,1-.57.015.645.645,0,0,1-.379-.545,2.968,2.968,0,0,0-1.1-2.469,3.274,3.274,0,0,0-2.581-.03.647.647,0,0,1-.588-.048.656.656,0,0,1-.308-.5,3.139,3.139,0,0,0-1.194-2.576c-1.285-.826-3.25-.109-3.267-.1a.65.65,0,0,1-.84-.831c1.134-3.116,3.719-11.777,2.1-14.41a1.3,1.3,0,0,0-1.01-.662.369.369,0,0,0-.053,0c-1.414,0-4.414,6.681-7.489,19.622l-.045.194a.65.65,0,0,1-1.28-.111c-.131-1.932-.745-5.085-1.9-5.86a.964.964,0,0,0-.909-.1C1228.4,661.56,1226.513,673.306,1225.705,684.042Zm25.786-14.627Zm.114-.063Z" transform="translate(-1224.373 -645.94)" stroke="#000" stroke-width="1"/>
        <path id="Path_38299" data-name="Path 38299" d="M1254.066,728.458a.64.64,0,0,1-.182-.025.652.652,0,0,1-.442-.808l1.2-4.106a.651.651,0,1,1,1.25.366l-1.2,4.106A.657.657,0,0,1,1254.066,728.458Zm14.7,6.31a.677.677,0,0,1-.172-.023.652.652,0,0,1-.457-.8c.712-2.609,4.083-8.4,4.227-8.643a.65.65,0,1,1,1.124.654c-.032.058-3.426,5.886-4.093,8.33A.65.65,0,0,1,1268.762,734.768Zm-4.573-2.77a.647.647,0,0,1-.624-.831,50.368,50.368,0,0,1,4.222-8.921.65.65,0,0,1,1.119.664,50.155,50.155,0,0,0-4.093,8.62A.647.647,0,0,1,1264.189,732Z" transform="translate(-1246.083 -702.741)" stroke="#000" stroke-width="1"/>
        <g id="Group_37192" data-name="Group 37192" transform="translate(12.594 15.948)">
          <path id="Path_38300" data-name="Path 38300" d="M1274.9,720.43a.684.684,0,0,1-.172-.023.651.651,0,0,1-.457-.8,87.668,87.668,0,0,1,3.712-10.123.65.65,0,1,1,1.189.528,86.673,86.673,0,0,0-3.646,9.941A.645.645,0,0,1,1274.9,720.43Z" transform="translate(-1274.25 -709.101)" stroke="#000" stroke-width="1"/>
        </g>
      </g>
      <g id="Group_37194" data-name="Group 37194" transform="translate(-7070.713 1226.298)">
        <path id="Path_38301" data-name="Path 38301" d="M968.925,777.6c-2.924,11.837-10.552,27.171-24.177,30.542-22.806,5.643-46.791-17.208-46.791-17.208L884.79,811.867s12.819,24.151,53.462,23.866c36.426-.255,54.732-33.938,57.908-48.927Z" transform="translate(-884.79 -777.6)" fill="#ed85c0" stroke="#000" stroke-width="2"/>
      </g>
      <g id="Group_37196" data-name="Group 37196" transform="translate(-7105.135 1157.798)">
        <path id="Path_38303" data-name="Path 38303" d="M807.888,535.472c.813,16.827-10.067,32.466-26.467,33.2s-32.105-13.7-32.921-30.53,11.819-31.065,28.219-31.8S807.075,518.643,807.888,535.472Z" transform="translate(-748.463 -506.311)" fill="#fff" stroke="#000" stroke-width="2"/>
      </g>
      <g id="Group_37197" data-name="Group 37197" transform="translate(-7105.785 1157.148)">
        <path id="Path_38304" data-name="Path 38304" d="M778.3,567.429c-16.306,0-31.567-14.537-32.373-31.176a31.2,31.2,0,0,1,8.085-22.695,29.727,29.727,0,0,1,20.756-9.789c16.741-.76,31.017,12.592,31.845,29.749a34.8,34.8,0,0,1-8.577,25.058,26.208,26.208,0,0,1-18.508,8.827C779.117,567.419,778.708,567.429,778.3,567.429Zm-2.184-62.393c-.429,0-.859.01-1.29.028a28.435,28.435,0,0,0-19.851,9.365,29.909,29.909,0,0,0-7.747,21.758c.793,16.38,16.155,30.616,32.242,29.914a24.943,24.943,0,0,0,17.607-8.4,33.5,33.5,0,0,0,8.239-24.119C804.542,517.58,791.568,505.036,776.115,505.036Z" transform="translate(-745.888 -503.738)"/>
      </g>
      <g id="Group_37198" data-name="Group 37198" transform="translate(-7117.948 1147.241)">
        <path id="Path_38305" data-name="Path 38305" d="M721.561,509.906s9.115-8.694,11.978-3.654c0,0,5.706,2.805,9.572-13.213s-10.524-31.762-26.058-27.964-8.734,19.47-8.734,19.47-7.729.856-9.951,9.943c-4.987,20.392,20.25,32.461,20.25,32.461C720.457,525.182,719.563,513.2,721.561,509.906Z" transform="translate(-697.716 -464.502)"/>
      </g>
      <g id="Group_37199" data-name="Group 37199" transform="translate(-7087.118 1133.355)">
        <ellipse id="Ellipse_34" data-name="Ellipse 34" cx="22.924" cy="22.114" rx="22.924" ry="22.114" transform="translate(0)"/>
      </g>
      <g id="Group_37200" data-name="Group 37200" transform="translate(-7070 1186.668)">
        <ellipse id="Ellipse_35" data-name="Ellipse 35" cx="2.141" cy="2.868" rx="2.141" ry="2.868" transform="translate(0 0.511) rotate(-6.851)"/>
      </g>
      <g id="Group_37201" data-name="Group 37201" transform="translate(-7071.917 1183.058)">
        <path id="Path_38306" data-name="Path 38306" d="M905.855,607.011a.648.648,0,0,1-.583-.934,4.348,4.348,0,0,1,2.707-2.28,3.98,3.98,0,0,1,3.123.29.65.65,0,0,1-.667,1.116,2.716,2.716,0,0,0-2.083-.161,3.064,3.064,0,0,0-1.909,1.6A.658.658,0,0,1,905.855,607.011Z" transform="translate(-905.205 -603.61)" stroke="#000" stroke-width="1"/>
      </g>
      <g id="Group_37202" data-name="Group 37202" transform="translate(-7055.266 1181.157)">
        <ellipse id="Ellipse_36" data-name="Ellipse 36" cx="2.017" cy="2.704" rx="2.017" ry="2.704" transform="translate(0 0.481) rotate(-6.851)"/>
      </g>
      <g id="Group_37203" data-name="Group 37203" transform="translate(-7056.549 1177.876)">
        <path id="Path_38307" data-name="Path 38307" d="M951.195,592.118a.648.648,0,0,1-.583-.934,4.149,4.149,0,0,1,2.575-2.169,3.791,3.791,0,0,1,2.975.278.65.65,0,1,1-.667,1.116,2.512,2.512,0,0,0-1.936-.146,2.855,2.855,0,0,0-1.775,1.492A.661.661,0,0,1,951.195,592.118Z" transform="translate(-950.544 -588.837)" stroke="#000" stroke-width="1"/>
      </g>
      <g id="Group_37204" data-name="Group 37204" transform="translate(-7061.945 1179.103)">
        <path id="Path_38308" data-name="Path 38308" d="M934.685,614.094a.651.651,0,0,1-.156-1.283c2.542-.629,6.752-2.227,7.214-3.841.076-.26.1-.679-.5-1.3-3.6-3.7-6.353-13.673-6.469-14.094a.65.65,0,1,1,1.255-.341c.028.1,2.783,10.073,6.146,13.532a2.542,2.542,0,0,1,.816,2.563c-.818,2.861-7.4,4.56-8.151,4.745A.846.846,0,0,1,934.685,614.094Z" transform="translate(-934.034 -592.756)" stroke="#000" stroke-width="1"/>
      </g>
      <g id="Group_37205" data-name="Group 37205" transform="translate(-7075.401 1205.158)">
        <path id="Path_38309" data-name="Path 38309" d="M888.65,700.079A12.58,12.58,0,0,1,881,697.115a.649.649,0,1,1,.788-1.033c6.252,4.772,10.436,1.773,10.61,1.644a.651.651,0,0,1,.783,1.04A7.88,7.88,0,0,1,888.65,700.079Z" transform="translate(-880.745 -695.947)" stroke="#000" stroke-width="1"/>
      </g>
      <g id="Group_37206" data-name="Group 37206" transform="translate(-7099.285 1184.759)">
        <path id="Path_38310" data-name="Path 38310" d="M771.63,622.026a9.285,9.285,0,0,0,18.559,0,8.561,8.561,0,0,0-.528-2.957,9.407,9.407,0,0,0-17.059-1A8.531,8.531,0,0,0,771.63,622.026Z" transform="translate(-771.63 -613.09)" fill="#fff"/>
      </g>
      <g id="Group_37207" data-name="Group 37207" transform="translate(-7099.937 1184.108)">
        <path id="Path_38311" data-name="Path 38311" d="M772.421,627.074a.653.653,0,0,1-.452-.182,9.384,9.384,0,0,1-2.919-6.795,9.188,9.188,0,0,1,1.048-4.262,10.055,10.055,0,0,1,18.243,1.083.651.651,0,0,1-1.225.442,8.6,8.6,0,0,0-8.141-5.55,8.688,8.688,0,0,0-7.726,4.621,7.927,7.927,0,0,0-.9,3.666,8.087,8.087,0,0,0,2.52,5.858.65.65,0,0,1,.018.919A.631.631,0,0,1,772.421,627.074Z" transform="translate(-769.05 -610.51)" stroke="#060606" stroke-width="1"/>
      </g>
      <g id="Group_37208" data-name="Group 37208" transform="translate(-6950.228 1241.72)">
        <path id="Path_38312" data-name="Path 38312" d="M1526.723,839.983H1362.611a.651.651,0,1,1,0-1.3h164.112a.651.651,0,1,1,0,1.3Zm0,8.143H1362.611a.651.651,0,1,1,0-1.3h164.112a.651.651,0,1,1,0,1.3Zm-75.914,8.143h-88.2a.652.652,0,0,1,0-1.3h88.2a.652.652,0,0,1,0,1.3Z" transform="translate(-1361.96 -838.68)" fill="#d3d3d3" stroke="#d3d3d3" stroke-width="1"/>
      </g>
      <g id="Group_37209" data-name="Group 37209" transform="translate(-6950.228 1299.174)">
        <path id="Path_38313" data-name="Path 38313" d="M1526.723,1067.523H1362.611a.652.652,0,0,1,0-1.3h164.112a.652.652,0,1,1,0,1.3Zm0,8.143H1362.611a.651.651,0,1,1,0-1.3h164.112a.651.651,0,1,1,0,1.3Zm-75.914,8.143h-88.2a.651.651,0,1,1,0-1.3h88.2a.651.651,0,1,1,0,1.3Z" transform="translate(-1361.96 -1066.22)" fill="#d3d3d3" stroke="#d3d3d3" stroke-width="1"/>
      </g>
      <g id="Group_37210" data-name="Group 37210" transform="translate(-6887.022 1313.264)">
        <path id="Path_38314" data-name="Path 38314" d="M1703.793,1264.78l-39.981-33.249-51.533,6.946,33.469-116.458,91.516,26.3Z" transform="translate(-1612.28 -1122.02)" fill="#f6d854" stroke="#060606" stroke-width="2"/>
      </g>
      <g id="Group_37211" data-name="Group 37211" transform="translate(-6848.001 1348.227)">
        <path id="Path_38315" data-name="Path 38315" d="M1800.274,1260.49l4.083,19.872,18.685,7.906-17.64,10.022-1.742,20.215-14.983-13.678-19.763,4.588,8.378-18.478-10.471-17.377,20.162,2.257Z" transform="translate(-1766.82 -1260.49)" fill="#fff"/>
      </g>
      <g id="Group_37212" data-name="Group 37212" transform="translate(-7031.777 1324.747)">
        <path id="Path_38316" data-name="Path 38316" d="M1117.786,1270.514a55.832,55.832,0,0,1-15.463-2.113c-14.3-4.113-25.9-15.011-30.237-27.727a23.743,23.743,0,0,1-5.712-.894c-12.2-3.409-22.311-15.382-25.75-30.5-3.111-13.681-1.131-28.31.616-41.216a.651.651,0,0,1,1.291.174c-1.819,13.423-3.7,27.3-.637,40.753,3.335,14.66,13.082,26.255,24.833,29.54a22.625,22.625,0,0,0,4.941.828,34,34,0,0,1-1.167-5.535c-.591-4.767.424-11.044,5.234-13.049a7.334,7.334,0,0,1,6.388.538,8.9,8.9,0,0,1,4.477,6.128c.729,4.464-2.043,9.355-6.6,11.628a16.091,16.091,0,0,1-6.55,1.6c4.3,12.148,15.478,22.533,29.224,26.487,11.779,3.389,25.237,2.593,38.923-2.3a.65.65,0,1,1,.437,1.225A72.372,72.372,0,0,1,1117.786,1270.514Zm-39.508-48.942a5.291,5.291,0,0,0-2.045.4c-4.136,1.722-4.977,7.373-4.444,11.688a33.071,33.071,0,0,0,1.24,5.717,14.959,14.959,0,0,0,6.4-1.472c4.053-2.025,6.532-6.338,5.891-10.254a7.576,7.576,0,0,0-3.825-5.2A6.6,6.6,0,0,0,1078.278,1221.572Z" transform="translate(-1038.992 -1167.499)" stroke="#000" stroke-width="1"/>
      </g>
      <g id="Group_37213" data-name="Group 37213" transform="translate(-6937.084 1415.589)">
        <path id="Path_38317" data-name="Path 38317" d="M1420.247,1542.079l-.528-6.338a1.444,1.444,0,0,0-.354-.828l-4.992-5.648c-.707-.8-.308-2.045.639-1.99l16.327.957a1.333,1.333,0,0,1,.919,2.06l-10.1,12.686C1421.558,1543.732,1420.338,1543.159,1420.247,1542.079Z" transform="translate(-1414.015 -1527.273)"/>
      </g>
    </g>
    <g id="Group_37398" data-name="Group 37398" transform="matrix(0.809, -0.588, 0.588, 0.809, 179.896, 5080.376)">
      <path id="Path_38209" data-name="Path 38209" d="M.062,2.02a2.037,2.037,0,0,0,2.295.959l1.784-.334C5.149,2.458,5.748,1.721,5.49,1A1.535,1.535,0,0,0,4.619.18,2.618,2.618,0,0,0,3.185.044L1.4.377C.4.57-.2,1.3.062,2.02Z"/>
    </g>
    <g id="Group_37399" data-name="Group 37399" transform="matrix(0.809, -0.588, 0.588, 0.809, 184, 5082.406)">
      <path id="Path_38210" data-name="Path 38210" d="M.061,1.934a2.07,2.07,0,0,0,2.295.919L4.14,2.533c1.008-.18,1.608-.886,1.349-1.572A1.508,1.508,0,0,0,4.619.172,2.726,2.726,0,0,0,3.184.042L1.4.361C.4.545-.2,1.244.061,1.934Z"/>
    </g>
    <g id="Group_37400" data-name="Group 37400" transform="matrix(0.809, -0.588, 0.588, 0.809, 188.898, 5084.208)">
      <path id="Path_38211" data-name="Path 38211" d="M.062,1.97a2.056,2.056,0,0,0,2.295.936L4.141,2.58c1.008-.183,1.607-.9,1.35-1.6a1.519,1.519,0,0,0-.871-.8A2.67,2.67,0,0,0,3.185.043L1.4.368C.4.556-.2,1.268.062,1.97Z"/>
    </g>
    <path id="Path_38836" data-name="Path 38836" d="M.43,7.573C2.126,2,7.808-1.051,13.987.331a27.474,27.474,0,0,1,4.006,1.843,26.543,26.543,0,0,1-2.626,3.62,20.98,20.98,0,0,1-5.236,3.935,11.657,11.657,0,0,1-8.521.917L0,10.2A10.056,10.056,0,0,1,.43,7.573Z" transform="translate(192.388 5102.521) rotate(-81)" fill="#fff" stroke="#000" stroke-width="2"/>
    <g id="Group_37401" data-name="Group 37401" transform="matrix(0.809, -0.588, 0.588, 0.809, 326, 5086.923)">
      <path id="Path_38209-2" data-name="Path 38209" d="M.062,2.238A1.969,1.969,0,0,0,2.357,3.3l1.784-.37A1.5,1.5,0,0,0,5.49,1.112,1.617,1.617,0,0,0,4.619.2,2.381,2.381,0,0,0,3.185.049L1.4.418C.4.631-.2,1.439.062,2.238Z"/>
    </g>
    <g id="Group_37402" data-name="Group 37402" transform="matrix(0.809, -0.588, 0.588, 0.809, 331.92, 5087.002)">
      <path id="Path_38210-2" data-name="Path 38210" d="M.061,2.172A1.986,1.986,0,0,0,2.356,3.2L4.14,2.846c1.008-.2,1.608-.995,1.349-1.765A1.591,1.591,0,0,0,4.619.194,2.446,2.446,0,0,0,3.184.047L1.4.405C.4.612-.2,1.4.061,2.172Z" transform="translate(0 0)"/>
    </g>
    <g id="Group_37403" data-name="Group 37403" transform="matrix(0.819, -0.574, 0.574, 0.819, 337.896, 5087.398)">
      <path id="Path_38211-2" data-name="Path 38211" d="M.062,2.1a2.009,2.009,0,0,0,2.295,1l1.784-.347c1.008-.195,1.607-.961,1.35-1.705A1.563,1.563,0,0,0,4.619.187,2.518,2.518,0,0,0,3.185.046L1.4.392C.4.592-.2,1.35.062,2.1Z" transform="translate(0 0)"/>
    </g>
    <path id="Path_38837" data-name="Path 38837" d="M.344,7.736c1.357-5.7,5.9-8.809,10.848-7.4A20.279,20.279,0,0,1,14.4,2.22a28.02,28.02,0,0,1-2.1,3.7,17.849,17.849,0,0,1-4.19,4.019,7.545,7.545,0,0,1-6.818.936L0,10.421A12.9,12.9,0,0,1,.344,7.736Z" transform="matrix(0.07, -0.998, 0.998, 0.07, 344.244, 5101.368)" fill="#fff" stroke="#000" stroke-width="2"/>
  </g>
</svg>
