<svg xmlns="http://www.w3.org/2000/svg" width="49.645" height="54.151" viewBox="0 0 49.645 54.151">
  <g id="Group_37554" data-name="Group 37554" transform="translate(0.5 0.499)">
    <path id="Path_39119" data-name="Path 39119" d="M22.892,1.345H46.211l5.256,6.021,6.4,4.587L56.915,26.1,51.468,38.521l-16.82,13L23.657,43.4,16.3,34.6,13.431,23.708V11.953Z" transform="translate(-9.219 0.927)"/>
    <g id="security" transform="translate(2.27 1.207)">
      <path id="Path_39117" data-name="Path 39117" d="M126.819,106.508q2.9-1.847,5.814-3.689c.876-.556,1.764-1.106,2.618-1.7a33.486,33.486,0,0,0,12.591-16.629,34.838,34.838,0,0,0,1.833-11.468V65.4a1.171,1.171,0,0,0-.842-1.106c-.252-.074-.51-.149-.762-.229s-.481-.16-.716-.246c-.12-.046-.235-.092-.349-.137a.675.675,0,0,0-.155-.063l.08.034-.115-.052a14.86,14.86,0,0,1-2.658-1.512c-.092-.063-.178-.126-.264-.195-.011-.011-.229-.172-.08-.057.126.1-.017-.011-.046-.034q-.309-.241-.6-.5a14.6,14.6,0,0,1-1.088-1.06c-.166-.183-.332-.367-.487-.556-.08-.092-.16-.189-.235-.286a.808.808,0,0,0-.1-.132l.052.069c-.023-.034-.052-.063-.074-.1-.3-.4-.573-.808-.831-1.232a15.818,15.818,0,0,1-.813-1.541l-.069-.155c-.017-.04-.034-.074-.052-.115-.034-.08-.023-.052.034.08a1.493,1.493,0,0,0-.155-.39c-.1-.263-.195-.527-.281-.8a1.178,1.178,0,0,0-1.106-.842H117.4c-.945,0-1.9-.034-2.841,0h-.04a1.178,1.178,0,0,0-1.106.842c-.069.212-.143.43-.218.636-.046.12-.092.235-.137.355a1.4,1.4,0,0,1-.08.195c.063-.126.057-.137,0-.006q-.309.7-.687,1.375c-.252.441-.527.876-.819,1.289-.069.1-.143.2-.218.3a.522.522,0,0,0-.1.132c.063-.16.092-.115.029-.034-.172.212-.344.424-.527.63-.327.367-.67.722-1.031,1.06-.183.166-.367.332-.556.493-.092.08-.189.16-.286.235-.04.034-.086.069-.132.1l.069-.052c-.034.023-.063.052-.1.074a15.555,15.555,0,0,1-2.583,1.558c-.137.063-.275.126-.418.189-.069.029-.235.126.006,0-.063.034-.132.052-.195.08-.275.109-.55.212-.831.3-.321.1-.642.2-.962.3a1.178,1.178,0,0,0-.842,1.106v6.908c0,1.214,0,2.429.086,3.643a33.5,33.5,0,0,0,7.876,19.31,32.472,32.472,0,0,0,4.938,4.737c1.111.865,2.274,1.644,3.46,2.394l6.341,4.021c.052.034.109.069.16.1a1.148,1.148,0,1,0,1.157-1.982q-2.878-1.822-5.757-3.649c-.836-.533-1.684-1.054-2.5-1.615-.475-.327-.957-.653-1.4-1.02.229.189-.132-.1-.178-.137-.1-.08-.2-.16-.3-.246-.235-.189-.464-.384-.693-.579a31.118,31.118,0,0,1-2.469-2.371q-.584-.619-1.134-1.272c-.166-.195-.327-.39-.487-.59l-.263-.332c-.126-.16,0,.006.023.029-.063-.074-.12-.155-.178-.235a32.2,32.2,0,0,1-1.873-2.772,33.172,33.172,0,0,1-1.6-2.984c-.12-.258-.235-.516-.349-.773l-.069-.155c-.006-.011-.115-.269-.04-.1s-.034-.086-.04-.1c-.034-.08-.063-.155-.1-.235-.212-.527-.412-1.054-.6-1.592a32.4,32.4,0,0,1-.939-3.277c-.126-.556-.241-1.117-.338-1.678-.046-.252-.086-.51-.126-.762a3.434,3.434,0,0,0-.063-.424c.063.241.017.12.006.046-.011-.1-.023-.2-.034-.3a36.957,36.957,0,0,1-.229-4.434V65.413c-.281.367-.561.739-.842,1.106a17.554,17.554,0,0,0,5.293-2.48,16.494,16.494,0,0,0,4.531-4.892,16.29,16.29,0,0,0,1.541-3.425c-.367.281-.739.561-1.106.842h20.559c.945,0,1.9.04,2.841,0h.04c-.367-.281-.739-.561-1.106-.842a16.284,16.284,0,0,0,8.461,9.721,21.113,21.113,0,0,0,2.91,1.077c-.281-.367-.561-.739-.842-1.106v6.84c0,1.163.006,2.331-.074,3.494-.04.573-.092,1.151-.16,1.718-.006.063-.057.538-.023.206-.011.126-.034.258-.057.384-.046.3-.092.6-.143.888a32.976,32.976,0,0,1-.773,3.328,30.9,30.9,0,0,1-1.1,3.168c-.046.12-.092.235-.143.355.126-.286-.052.126-.086.195-.12.269-.241.544-.367.808q-.352.748-.739,1.478a31.679,31.679,0,0,1-1.753,2.9c-.315.47-.647.928-.985,1.381-.04.057-.086.115-.126.166-.109.143.172-.218,0,.006l-.264.332c-.178.223-.355.441-.538.659A33.039,33.039,0,0,1,137.7,96.2q-.619.593-1.272,1.151c-.195.166-.4.332-.6.5-.109.092-.223.183-.338.269-.046.034-.092.069-.137.109s-.092.069-.137.109c.109-.08.126-.1.063-.046-1.02.779-2.085,1.478-3.168,2.165q-3.145,1.993-6.3,3.993c-.052.034-.109.069-.16.1a1.168,1.168,0,0,0-.412,1.57,1.194,1.194,0,0,0,1.575.384Z" transform="translate(-102.8 -54.233)"/>
      <path id="Path_39118" data-name="Path 39118" d="M316.924,353.913l5.883,5.883.836.836a1.164,1.164,0,0,0,1.621,0l4.543-4.543L337,348.9l1.655-1.655a1.146,1.146,0,0,0-1.621-1.621l-4.543,4.542-7.189,7.189-1.655,1.655h1.621l-5.883-5.883-.836-.836a1.146,1.146,0,0,0-1.621,1.621Z" transform="translate(-304.351 -328.625)"/>
    </g>
    <g id="Group_37528" data-name="Group 37528" transform="translate(0)">
      <path id="Path_39120" data-name="Path 39120" d="M22.892,1.345H46.211l5.256,6.021,6.4,4.587L56.915,26.1,51.468,38.521l-16.82,13L23.657,43.4,16.3,34.6,13.431,23.708V11.953Z" transform="translate(-12.214 0.927)" fill="#f7d854"/>
      <g id="security-2" data-name="security" transform="translate(0 0)">
        <path id="Path_39117-2" data-name="Path 39117" d="M126.819,106.508q2.9-1.847,5.814-3.689c.876-.556,1.764-1.106,2.618-1.7a33.486,33.486,0,0,0,12.591-16.629,34.838,34.838,0,0,0,1.833-11.468V65.4a1.171,1.171,0,0,0-.842-1.106c-.252-.074-.51-.149-.762-.229s-.481-.16-.716-.246c-.12-.046-.235-.092-.349-.137a.675.675,0,0,0-.155-.063l.08.034-.115-.052a14.86,14.86,0,0,1-2.658-1.512c-.092-.063-.178-.126-.264-.195-.011-.011-.229-.172-.08-.057.126.1-.017-.011-.046-.034q-.309-.241-.6-.5a14.6,14.6,0,0,1-1.088-1.06c-.166-.183-.332-.367-.487-.556-.08-.092-.16-.189-.235-.286a.808.808,0,0,0-.1-.132l.052.069c-.023-.034-.052-.063-.074-.1-.3-.4-.573-.808-.831-1.232a15.818,15.818,0,0,1-.813-1.541l-.069-.155c-.017-.04-.034-.074-.052-.115-.034-.08-.023-.052.034.08a1.493,1.493,0,0,0-.155-.39c-.1-.263-.195-.527-.281-.8a1.178,1.178,0,0,0-1.106-.842H117.4c-.945,0-1.9-.034-2.841,0h-.04a1.178,1.178,0,0,0-1.106.842c-.069.212-.143.43-.218.636-.046.12-.092.235-.137.355a1.4,1.4,0,0,1-.08.195c.063-.126.057-.137,0-.006q-.309.7-.687,1.375c-.252.441-.527.876-.819,1.289-.069.1-.143.2-.218.3a.522.522,0,0,0-.1.132c.063-.16.092-.115.029-.034-.172.212-.344.424-.527.63-.327.367-.67.722-1.031,1.06-.183.166-.367.332-.556.493-.092.08-.189.16-.286.235-.04.034-.086.069-.132.1l.069-.052c-.034.023-.063.052-.1.074a15.555,15.555,0,0,1-2.583,1.558c-.137.063-.275.126-.418.189-.069.029-.235.126.006,0-.063.034-.132.052-.195.08-.275.109-.55.212-.831.3-.321.1-.642.2-.962.3a1.178,1.178,0,0,0-.842,1.106v6.908c0,1.214,0,2.429.086,3.643a33.5,33.5,0,0,0,7.876,19.31,32.472,32.472,0,0,0,4.938,4.737c1.111.865,2.274,1.644,3.46,2.394l6.341,4.021c.052.034.109.069.16.1a1.148,1.148,0,1,0,1.157-1.982q-2.878-1.822-5.757-3.649c-.836-.533-1.684-1.054-2.5-1.615-.475-.327-.957-.653-1.4-1.02.229.189-.132-.1-.178-.137-.1-.08-.2-.16-.3-.246-.235-.189-.464-.384-.693-.579a31.118,31.118,0,0,1-2.469-2.371q-.584-.619-1.134-1.272c-.166-.195-.327-.39-.487-.59l-.263-.332c-.126-.16,0,.006.023.029-.063-.074-.12-.155-.178-.235a32.2,32.2,0,0,1-1.873-2.772,33.172,33.172,0,0,1-1.6-2.984c-.12-.258-.235-.516-.349-.773l-.069-.155c-.006-.011-.115-.269-.04-.1s-.034-.086-.04-.1c-.034-.08-.063-.155-.1-.235-.212-.527-.412-1.054-.6-1.592a32.4,32.4,0,0,1-.939-3.277c-.126-.556-.241-1.117-.338-1.678-.046-.252-.086-.51-.126-.762a3.434,3.434,0,0,0-.063-.424c.063.241.017.12.006.046-.011-.1-.023-.2-.034-.3a36.957,36.957,0,0,1-.229-4.434V65.413c-.281.367-.561.739-.842,1.106a17.554,17.554,0,0,0,5.293-2.48,16.494,16.494,0,0,0,4.531-4.892,16.29,16.29,0,0,0,1.541-3.425c-.367.281-.739.561-1.106.842h20.559c.945,0,1.9.04,2.841,0h.04c-.367-.281-.739-.561-1.106-.842a16.284,16.284,0,0,0,8.461,9.721,21.113,21.113,0,0,0,2.91,1.077c-.281-.367-.561-.739-.842-1.106v6.84c0,1.163.006,2.331-.074,3.494-.04.573-.092,1.151-.16,1.718-.006.063-.057.538-.023.206-.011.126-.034.258-.057.384-.046.3-.092.6-.143.888a32.976,32.976,0,0,1-.773,3.328,30.9,30.9,0,0,1-1.1,3.168c-.046.12-.092.235-.143.355.126-.286-.052.126-.086.195-.12.269-.241.544-.367.808q-.352.748-.739,1.478a31.679,31.679,0,0,1-1.753,2.9c-.315.47-.647.928-.985,1.381-.04.057-.086.115-.126.166-.109.143.172-.218,0,.006l-.264.332c-.178.223-.355.441-.538.659A33.039,33.039,0,0,1,137.7,96.2q-.619.593-1.272,1.151c-.195.166-.4.332-.6.5-.109.092-.223.183-.338.269-.046.034-.092.069-.137.109s-.092.069-.137.109c.109-.08.126-.1.063-.046-1.02.779-2.085,1.478-3.168,2.165q-3.145,1.993-6.3,3.993c-.052.034-.109.069-.16.1a1.168,1.168,0,0,0-.412,1.57,1.194,1.194,0,0,0,1.575.384Z" transform="translate(-102.8 -54.233)" stroke="#000" stroke-width="1"/>
        <path id="Path_39118-2" data-name="Path 39118" d="M316.924,353.913l5.883,5.883.836.836a1.164,1.164,0,0,0,1.621,0l4.543-4.543L337,348.9l1.655-1.655a1.146,1.146,0,0,0-1.621-1.621l-4.543,4.542-7.189,7.189-1.655,1.655h1.621l-5.883-5.883-.836-.836a1.146,1.146,0,0,0-1.621,1.621Z" transform="translate(-304.351 -328.625)" stroke="#000" stroke-width="1"/>
      </g>
    </g>
  </g>
</svg>
