<svg xmlns="http://www.w3.org/2000/svg" width="235.145" height="140.563" viewBox="0 0 235.145 140.563">
  <g id="Group_37695" data-name="Group 37695" transform="translate(-165.565 -2138.219)">
    <g id="Group_37694" data-name="Group 37694">
      <path id="Path_39264" data-name="Path 39264" d="M1205.681,416.578a9.827,9.827,0,0,1-1.472,3.336,8.7,8.7,0,0,1-2.4,2.327,9.348,9.348,0,0,1-3.135,1.279,12.085,12.085,0,0,1-3.684.194l-1.636,5.744c-.086.277-.389.439-.908.485a8.187,8.187,0,0,1-2.15-.2c-.58-.113-1.066-.217-1.456-.317a4.716,4.716,0,0,1-.9-.31,1.038,1.038,0,0,1-.438-.353.667.667,0,0,1-.081-.457l1.424-6.789a5.132,5.132,0,0,1,.378-1.2,1.656,1.656,0,0,1,.567-.674,1.573,1.573,0,0,1,.8-.25,4.29,4.29,0,0,1,1.028.089l.369.072a6.85,6.85,0,0,0,2.512.069,5.308,5.308,0,0,0,1.935-.727,4.313,4.313,0,0,0,1.343-1.356,6.219,6.219,0,0,0,.77-1.832,5.849,5.849,0,0,0,.15-2.123,4.065,4.065,0,0,0-.686-1.82,4.619,4.619,0,0,0-1.565-1.39,8.14,8.14,0,0,0-2.484-.858,11.04,11.04,0,0,0-2.433-.225,14.379,14.379,0,0,0-1.9.172c-.539.091-.99.185-1.354.277a2.079,2.079,0,0,1-.809.089.588.588,0,0,1-.318-.172.745.745,0,0,1-.17-.436,3.682,3.682,0,0,1,.025-.827,10.99,10.99,0,0,1,.256-1.321,6.654,6.654,0,0,1,.373-1.176,1.191,1.191,0,0,1,.493-.541,4.318,4.318,0,0,1,1.138-.355,13.474,13.474,0,0,1,1.912-.242,22.673,22.673,0,0,1,2.408-.012,18.476,18.476,0,0,1,2.684.322,16.359,16.359,0,0,1,5.143,1.787,9.756,9.756,0,0,1,3.125,2.744,7.6,7.6,0,0,1,1.346,3.343A9.451,9.451,0,0,1,1205.681,416.578Zm-13.048,19.738a6.779,6.779,0,0,1-.569,1.578,2.317,2.317,0,0,1-.866.933,2.781,2.781,0,0,1-1.3.349,7.91,7.91,0,0,1-1.825-.169,7.687,7.687,0,0,1-1.777-.527,2.443,2.443,0,0,1-1.007-.794,2.043,2.043,0,0,1-.348-1.168,6.627,6.627,0,0,1,.226-1.645,7.068,7.068,0,0,1,.578-1.614,2.4,2.4,0,0,1,.871-.957,2.722,2.722,0,0,1,1.292-.363,8.042,8.042,0,0,1,1.864.177,7.659,7.659,0,0,1,1.739.519,2.411,2.411,0,0,1,1.018.808,2.117,2.117,0,0,1,.343,1.191A6.841,6.841,0,0,1,1192.633,436.315Z" transform="translate(-962.4 1755.239)" fill="#f6d854"/>
      <path id="Path_39259" data-name="Path 39259" d="M1127.766,261.658a9.86,9.86,0,0,1-.78,2.639,5.205,5.205,0,0,1-1.437,1.395,5.609,5.609,0,0,1-1.878.767,7.232,7.232,0,0,1-2.207.116l-.981,3.445c-.053.166-.233.263-.544.291a4.875,4.875,0,0,1-1.288-.117q-.522-.1-.873-.191a2.908,2.908,0,0,1-.542-.185.619.619,0,0,1-.263-.213.4.4,0,0,1-.049-.274l.853-4.072a3.157,3.157,0,0,1,.226-.72,1,1,0,0,1,.339-.4.938.938,0,0,1,.475-.15,2.554,2.554,0,0,1,.617.053l.221.042a4.077,4.077,0,0,0,1.505.041,3.129,3.129,0,0,0,1.159-.437,2.614,2.614,0,0,0,.806-.812,3.728,3.728,0,0,0,.461-1.1,3.523,3.523,0,0,0,.09-1.274,2.45,2.45,0,0,0-.41-1.093,2.763,2.763,0,0,0-.938-.834,4.876,4.876,0,0,0-1.488-.515,6.65,6.65,0,0,0-1.458-.135,8.535,8.535,0,0,0-1.136.1c-.323.055-.594.111-.811.166a1.216,1.216,0,0,1-.486.053.349.349,0,0,1-.191-.1.44.44,0,0,1-.1-.261,2.306,2.306,0,0,1,.014-.5,6.833,6.833,0,0,1,.154-.792,4.255,4.255,0,0,1,.223-.706.711.711,0,0,1,.295-.324,2.592,2.592,0,0,1,.682-.213,8.171,8.171,0,0,1,1.145-.146,13.709,13.709,0,0,1,1.444-.008,10.992,10.992,0,0,1,1.608.194,9.8,9.8,0,0,1,3.082,1.072,5.858,5.858,0,0,1,1.873,1.645,4.551,4.551,0,0,1,.807,2.005A2.921,2.921,0,0,1,1127.766,261.658Zm-7.717,12.478a4.111,4.111,0,0,1-.341.947,1.383,1.383,0,0,1-.52.56,1.675,1.675,0,0,1-.781.208,4.747,4.747,0,0,1-1.094-.1,4.685,4.685,0,0,1-1.065-.316,1.5,1.5,0,0,1-.6-.476,1.226,1.226,0,0,1-.208-.7,3.952,3.952,0,0,1,.136-.986,4.253,4.253,0,0,1,.346-.967,1.429,1.429,0,0,1,.523-.574,1.628,1.628,0,0,1,.774-.218,4.738,4.738,0,0,1,1.117.106,4.529,4.529,0,0,1,1.041.311,1.457,1.457,0,0,1,.61.485,1.267,1.267,0,0,1,.2.715A3.882,3.882,0,0,1,1120.049,274.136Zm43.688-17.048a5.927,5.927,0,0,1-.882,2,5.2,5.2,0,0,1-1.436,1.395,5.611,5.611,0,0,1-1.878.767,7.227,7.227,0,0,1-2.207.116l-.981,3.445c-.053.166-.233.263-.544.291a4.873,4.873,0,0,1-1.288-.117q-.523-.1-.873-.191a2.906,2.906,0,0,1-.542-.185.62.62,0,0,1-.263-.213.4.4,0,0,1-.049-.274l.853-4.071a3.147,3.147,0,0,1,.226-.72,1,1,0,0,1,.339-.4.939.939,0,0,1,.475-.15,2.549,2.549,0,0,1,.616.053l.221.042a4.078,4.078,0,0,0,1.505.041,3.13,3.13,0,0,0,1.159-.437,2.614,2.614,0,0,0,.806-.812,3.73,3.73,0,0,0,.461-1.1,3.529,3.529,0,0,0,.09-1.274,2.448,2.448,0,0,0-.41-1.093,2.765,2.765,0,0,0-.938-.834,4.874,4.874,0,0,0-1.488-.515,6.646,6.646,0,0,0-1.458-.135,8.543,8.543,0,0,0-1.136.1c-.323.055-.594.111-.811.166a1.215,1.215,0,0,1-.486.053.351.351,0,0,1-.191-.1.442.442,0,0,1-.1-.261,2.342,2.342,0,0,1,.014-.5,6.824,6.824,0,0,1,.154-.792,4.257,4.257,0,0,1,.223-.706.714.714,0,0,1,.295-.324,2.593,2.593,0,0,1,.682-.213,8.156,8.156,0,0,1,1.145-.146,13.712,13.712,0,0,1,1.443-.008,10.989,10.989,0,0,1,1.608.194,9.8,9.8,0,0,1,3.081,1.072,5.859,5.859,0,0,1,1.873,1.645,4.554,4.554,0,0,1,.807,2.005A5.61,5.61,0,0,1,1163.738,257.088Zm-7.817,11.84a4.111,4.111,0,0,1-.341.947,1.381,1.381,0,0,1-.52.56,1.676,1.676,0,0,1-.781.208,4.743,4.743,0,0,1-1.094-.1,4.675,4.675,0,0,1-1.065-.316,1.5,1.5,0,0,1-.6-.476,1.222,1.222,0,0,1-.208-.7,3.952,3.952,0,0,1,.136-.986,4.254,4.254,0,0,1,.346-.967,1.432,1.432,0,0,1,.523-.574,1.631,1.631,0,0,1,.774-.218,4.736,4.736,0,0,1,1.117.106,4.52,4.52,0,0,1,1.041.311,1.458,1.458,0,0,1,.61.485,1.267,1.267,0,0,1,.2.715A3.966,3.966,0,0,1,1155.921,268.928Z" transform="translate(-904.745 1888.245)" fill="rgba(246,216,84,0.48)"/>
    </g>
    <g id="Group_37693" data-name="Group 37693">
      <path id="Path_39265" data-name="Path 39265" d="M696.08,686.631c0,19.17,17.56,34.709,39.224,34.709,14.19,0,26.613-6.658,33.5-16.642a31.662,31.662,0,0,0,5.722-18.066,30.807,30.807,0,0,0-.419-5.061c-2.186-13.241-12.827-24.054-26.91-28.013a44.347,44.347,0,0,0-23.481-.089C707.708,657.841,696.08,671.035,696.08,686.631Z" transform="translate(-441.114 1556.441)" fill="#ed85c0" stroke="#000" stroke-width="2"/>
      <g id="Group_37692" data-name="Group 37692" transform="translate(317.064 2248.43)">
        <path id="Path_38470" data-name="Path 38470" d="M617.18,874.811a142.465,142.465,0,0,0,20.064-1.353l-.174-.948a151.346,151.346,0,0,1-35.438.559l-.152.95A141.665,141.665,0,0,0,617.18,874.811Z" transform="translate(-601.48 -872.51)"/>
      </g>
      <g id="Group_37691" data-name="Group 37691" transform="translate(262.551 2138.219)">
        <ellipse id="Ellipse_62" data-name="Ellipse 62" cx="23.308" cy="20.625" rx="23.308" ry="20.625" transform="translate(9.18 25.42)" fill="#fff" stroke="#101010" stroke-width="2"/>
        <path id="Path_38475" data-name="Path 38475" d="M790.648,445.157a27.37,27.37,0,0,0,3.6-.24c13-1.734,21.991-12.507,20.031-24.016a20.728,20.728,0,0,0-9.42-13.837,26.069,26.069,0,0,0-17.718-3.888,24.369,24.369,0,0,0-15.637,8.338,19.167,19.167,0,0,0-4.394,15.678,20.729,20.729,0,0,0,9.42,13.837A25.78,25.78,0,0,0,790.648,445.157Zm.1-41.259a24.613,24.613,0,0,1,13.472,3.941,19.784,19.784,0,0,1,8.993,13.206c1.87,10.984-6.707,21.268-19.12,22.922a24.878,24.878,0,0,1-16.913-3.712,19.784,19.784,0,0,1-8.993-13.206h0a18.3,18.3,0,0,1,4.195-14.966,23.267,23.267,0,0,1,14.925-7.958A26.2,26.2,0,0,1,790.747,403.9Z" transform="translate(-758.211 -378.002)"/>
        <path id="Path_38476" data-name="Path 38476" d="M744.827,499.487c.562,3.3-2.013,6.389-5.744,6.886s-7.22-1.782-7.782-5.083a5.293,5.293,0,0,1,.047-2.029,6.514,6.514,0,0,1,5.7-4.849,7.221,7.221,0,0,1,6.621,2.521A5.568,5.568,0,0,1,744.827,499.487Z" transform="translate(-681.255 -452.81)" fill="#fff"/>
        <path id="Path_38477" data-name="Path 38477" d="M735.858,504.769a8.169,8.169,0,0,0,1.094-.073,7.544,7.544,0,0,0,4.837-2.581,5.932,5.932,0,0,0,1.361-4.851,6.034,6.034,0,0,0-1.254-2.76,7.856,7.856,0,0,0-7.144-2.717,7.039,7.039,0,0,0-6.151,5.236.487.487,0,0,0,.433.561.543.543,0,0,0,.634-.383,6,6,0,0,1,5.246-4.462,6.689,6.689,0,0,1,6.1,2.319,5.132,5.132,0,0,1,1.069,2.352,5.062,5.062,0,0,1-1.162,4.139,6.432,6.432,0,0,1-4.125,2.2,6.994,6.994,0,0,1-4.164-.726.583.583,0,0,0-.743.165.449.449,0,0,0,.187.657A8.155,8.155,0,0,0,735.858,504.769Z" transform="translate(-679.043 -450.66)" stroke="#090909" stroke-width="1"/>
        <path id="Path_38478" data-name="Path 38478" d="M742.547,374.342a13.336,13.336,0,0,1-5.186,5.021,7.221,7.221,0,0,0-6.621-2.521,6.514,6.514,0,0,0-5.7,4.849,26.479,26.479,0,0,1-8.242-2.17c-10.054-4.467-14.816-14.042-10.648-21.377s15.7-9.658,25.747-5.179S746.715,367.007,742.547,374.342Z" transform="translate(-674.949 -335.24)"/>
        <ellipse id="Ellipse_63" data-name="Ellipse 63" cx="18.151" cy="16.061" rx="18.151" ry="16.061" transform="translate(0 3.291)"/>
        <ellipse id="Ellipse_64" data-name="Ellipse 64" cx="13.784" cy="12.197" rx="13.784" ry="12.197" transform="translate(19.747)"/>
        <ellipse id="Ellipse_65" data-name="Ellipse 65" cx="13.784" cy="12.197" rx="13.784" ry="12.197" transform="translate(43.534 4.882)"/>
        <path id="Path_39131" data-name="Path 39131" d="M1.878,0a1.986,1.986,0,0,1,1.872,2.1,2.01,2.01,0,0,1-1.883,2.1A1.986,1.986,0,0,1-.005,2.1,2.01,2.01,0,0,1,1.878,0Z" transform="translate(28.212 49.247) rotate(-178.854)"/>
        <path id="Path_38479" data-name="Path 38479" d="M895.28,501.405a5.583,5.583,0,0,1,5.275,1.128" transform="translate(-870.574 -458.388)" fill="#fff"/>
        <path id="Path_38480" data-name="Path 38480" d="M898.454,500.861a.585.585,0,0,0,.384-.14.443.443,0,0,0,0-.679,6.2,6.2,0,0,0-5.845-1.239.467.467,0,0,0-.322.616.564.564,0,0,0,.7.283,4.993,4.993,0,0,1,4.7,1.017A.577.577,0,0,0,898.454,500.861Z" transform="translate(-868.474 -456.237)" stroke="#000" stroke-width="1"/>
        <path id="Path_39132" data-name="Path 39132" d="M1.878,0a1.986,1.986,0,0,1,1.872,2.1,2.01,2.01,0,0,1-1.883,2.1A1.986,1.986,0,0,1-.005,2.1,2.01,2.01,0,0,1,1.878,0Z" transform="translate(16.116 47.397) rotate(-178.854)"/>
        <path id="Path_38481" data-name="Path 38481" d="M954.21,491.215a5.583,5.583,0,0,1,5.275,1.128" transform="translate(-941.599 -450.048)" fill="#fff"/>
        <path id="Path_38482" data-name="Path 38482" d="M957.384,490.671a.584.584,0,0,0,.384-.14.443.443,0,0,0,0-.679,6.2,6.2,0,0,0-5.845-1.239.467.467,0,0,0-.322.616.565.565,0,0,0,.7.283,4.994,4.994,0,0,1,4.7,1.017A.573.573,0,0,0,957.384,490.671Z" transform="translate(-939.498 -447.897)" stroke="#000" stroke-width="1"/>
        <g id="Group_37291" data-name="Group 37291" transform="translate(16.41 42.864)">
          <path id="Path_38483" data-name="Path 38483" d="M937.824,514.711a.523.523,0,0,0,.54-.434.5.5,0,0,0-.489-.523,8.423,8.423,0,0,1-3.146-.67c-.763-.4-1.432-1.253-1.166-2.043a3.307,3.307,0,0,1,1.262-1.342c.15-.113.3-.227.441-.341a7.048,7.048,0,0,0,2.465-7.33.555.555,0,0,0-.661-.345.48.48,0,0,0-.39.585,6.137,6.137,0,0,1-2.145,6.38c-.135.109-.275.214-.417.321a4.111,4.111,0,0,0-1.6,1.8,2.788,2.788,0,0,0,1.652,3.142,9.324,9.324,0,0,0,3.6.8A.253.253,0,0,0,937.824,514.711Z" transform="translate(-932.418 -501.667)" stroke="#000" stroke-width="1"/>
        </g>
        <g id="Group_37292" data-name="Group 37292" transform="translate(26.509 56.028)">
          <path id="Path_38484" data-name="Path 38484" d="M872.565,578.505a.555.555,0,0,0,.48-.258,7.094,7.094,0,0,1,6.617-3.1.527.527,0,0,0,.6-.421.5.5,0,0,0-.476-.532,8.148,8.148,0,0,0-7.7,3.61.455.455,0,0,0,.228.648A.617.617,0,0,0,872.565,578.505Z" transform="translate(-872.022 -574.15)" stroke="#000" stroke-width="1"/>
        </g>
      </g>
      <path id="Path_39267" data-name="Path 39267" d="M555.869,324.366s-12.314-9.76-15.159-12.2-5.114-7.386-8.09-6.549.374,5.7.374,5.7-8.074-7.206-10.721-6.133,1.443,5.107,1.443,5.107-4.856-3.347-6.338-1.4,1.638,4.053,1.638,4.053-3.965-1.567-4.782.243,4.014,5.86,4.014,5.86-4.084-1.21-2.9,2.731,19.637,15.11,24.224,17.051Z" transform="translate(-185.115 1840.301)" fill="#fff"/>
      <path id="Path_39268" data-name="Path 39268" d="M537.466,337.192a.574.574,0,0,0,.384-.142l16.3-14.472a.442.442,0,0,0-.023-.7c-.123-.1-12.339-9.781-15.142-12.186a22.67,22.67,0,0,1-2.578-2.831c-1.806-2.214-3.67-4.5-6.054-3.832a2.077,2.077,0,0,0-1.435,1.173,4.029,4.029,0,0,0,.248,2.869c-2.73-2.194-7.124-5.3-9.225-4.451a1.79,1.79,0,0,0-1.162,1.235,3.663,3.663,0,0,0,.751,2.573,6.47,6.47,0,0,0-3.286-.721,2.106,2.106,0,0,0-1.424.792,2.6,2.6,0,0,0,.283,3.318,4.83,4.83,0,0,0-2.356.076,1.879,1.879,0,0,0-1.123.992c-.683,1.515,1.529,3.964,3.029,5.386a2.526,2.526,0,0,0-1.5.521c-.71.588-.858,1.593-.441,2.984,1.291,4.311,20.314,15.584,24.513,17.362A.556.556,0,0,0,537.466,337.192Zm15.514-14.932L537.357,336.13c-5.08-2.3-22.5-12.954-23.592-16.592-.211-.7-.357-1.627.133-2.038.523-.438,1.675-.231,2.075-.114a.584.584,0,0,0,.636-.209.438.438,0,0,0-.092-.594c-1.894-1.589-4.353-4.3-3.885-5.334a.843.843,0,0,1,.523-.458c1-.36,2.89.222,3.534.476a.58.58,0,0,0,.685-.193.446.446,0,0,0-.135-.627c-.027-.018-2.695-1.854-1.519-3.4a.988.988,0,0,1,.7-.38c1.441-.2,3.994,1.293,4.858,1.887A.6.6,0,0,0,522,308.5a.44.44,0,0,0,.008-.648c-.96-.95-2.4-2.82-2.171-3.794a.785.785,0,0,1,.552-.558c1.586-.645,6.869,3.142,10.112,6.035a.593.593,0,0,0,.718.04.444.444,0,0,0,.129-.627c-.564-.823-1.921-3.218-1.418-4.4a1.033,1.033,0,0,1,.747-.594c1.634-.459,3.193,1.455,4.846,3.48a23.529,23.529,0,0,0,2.7,2.958C540.751,312.546,550.783,320.515,552.979,322.26Z" transform="translate(-183.013 1842.427)" stroke="#000" stroke-width="1"/>
      <path id="Path_39269" data-name="Path 39269" d="M619.2,336.715a.571.571,0,0,0,.423-.18.445.445,0,0,0-.084-.676c-1-.71-4.915-3.57-4.915-3.57l-.692.741s3.924,2.868,4.926,3.579A.609.609,0,0,0,619.2,336.715Zm-2.906,3.405a.556.556,0,0,0,.484-.263.455.455,0,0,0-.238-.645c-2.494-1.121-11.095-7.869-11.181-7.938a.593.593,0,0,0-.766.04.442.442,0,0,0,.045.677c.357.281,8.792,6.9,11.409,8.076A.6.6,0,0,0,616.294,340.12Zm-4.047,3.067a.54.54,0,0,0,.509-.318.465.465,0,0,0-.326-.614c-1.621-.518-9.047-6.184-11.77-8.323a.593.593,0,0,0-.766.04.442.442,0,0,0,.045.677c1.018.8,10.009,7.833,12.121,8.508A.618.618,0,0,0,612.247,343.187Zm-3.37,3.792a.548.548,0,0,0,.488-.272.458.458,0,0,0-.254-.641c-1.25-.53-7.095-4.546-9.242-6.049a.59.59,0,0,0-.761.078.443.443,0,0,0,.088.674c.318.223,7.832,5.475,9.445,6.16A.582.582,0,0,0,608.877,346.979Z" transform="translate(-266.402 1818.963)" stroke="#000" stroke-width="1"/>
      <path id="Path_39266" data-name="Path 39266" d="M375.969,479.245s68.419,8.508,81.014-30.228c9.309-28.632-27.409-58.307-27.409-58.307l-22.869,18.822s33.95,14.474,14.631,33.392c-19.6,19.192-48.084.193-48.084.193" transform="translate(-58.826 1770.222)" fill="#ed85c0" stroke="#000" stroke-width="2"/>
      <path id="Path_39260" data-name="Path 39260" d="M1499.365,521.676s-8.421-12.589-10.3-15.674-2.362-8.407-5.484-8.4-1.586,5.539-1.586,5.539-5.246-9.024-8.135-8.706-.363,5.254-.363,5.254-3.491-4.486-5.568-3.022.183,4.3.183,4.3-3.247-2.552-4.643-1.042,1.833,6.658,1.833,6.658-3.483-2.241-3.7,1.829,13.581,19.643,17.293,22.717Z" transform="translate(-1294.991 1677.853)" fill="#fff"/>
      <path id="Path_39261" data-name="Path 39261" d="M1476.8,529.437a.6.6,0,0,0,.25-.055l20.472-9.454a.5.5,0,0,0,.271-.294.43.43,0,0,0-.055-.376c-.084-.125-8.435-12.616-10.291-15.658a20.626,20.626,0,0,1-1.494-3.385c-.967-2.59-1.968-5.268-4.464-5.268h0a2.286,2.286,0,0,0-1.767.736,4.1,4.1,0,0,0-.739,2.8c-1.855-2.82-4.979-6.954-7.282-6.7a1.981,1.981,0,0,0-1.529.868,3.575,3.575,0,0,0-.158,2.655,6.019,6.019,0,0,0-2.888-1.564,2.267,2.267,0,0,0-1.629.376,2.638,2.638,0,0,0-.86,3.24,4.72,4.72,0,0,0-2.272-.556,2.079,2.079,0,0,0-1.41.647c-1.168,1.262.109,4.188,1.055,5.944a2.643,2.643,0,0,0-1.6.1c-.876.372-1.361,1.291-1.437,2.728-.236,4.455,14.065,20.277,17.463,23.09A.58.58,0,0,0,1476.8,529.437Zm19.715-10.125-19.618,9.06c-4.059-3.549-17.045-18.351-16.848-22.109.039-.726.211-1.647.821-1.907a2.692,2.692,0,0,1,2.018.443.6.6,0,0,0,.677-.031.441.441,0,0,0,.115-.592c-1.266-2.019-2.689-5.256-1.888-6.122a.929.929,0,0,1,.655-.3,6.182,6.182,0,0,1,3.206,1.395.6.6,0,0,0,.72,0,.441.441,0,0,0,.082-.634c-.019-.025-1.937-2.486-.287-3.65a1.05,1.05,0,0,1,.792-.176c1.445.189,3.37,2.3,3.99,3.095a.586.586,0,0,0,.712.145.455.455,0,0,0,.228-.616c-.593-1.162-1.33-3.329-.78-4.2a.868.868,0,0,1,.716-.385.846.846,0,0,1,.1-.005c1.773,0,5.42,4.9,7.487,8.456a.576.576,0,0,0,.673.231.471.471,0,0,0,.337-.563c-.259-.935-.737-3.581.146-4.577a1.134,1.134,0,0,1,.915-.367h0c1.712,0,2.549,2.239,3.436,4.611a21.272,21.272,0,0,0,1.568,3.54C1488.156,506.791,1495.009,517.064,1496.511,519.313Z" transform="translate(-1292.895 1680.026)" stroke="#000" stroke-width="1"/>
      <path id="Path_39262" data-name="Path 39262" d="M1547.386,529.889a.59.59,0,0,0,.3-.08.448.448,0,0,0,.15-.667c-.712-.944-3.47-4.715-3.47-4.715l-.911.521s2.765,3.779,3.479,4.727A.568.568,0,0,0,1547.386,529.889Zm-3.932,2.472a.579.579,0,0,0,.388-.143.443.443,0,0,0-.006-.679c-2-1.734-7.9-10.461-7.959-10.549a.583.583,0,0,0-.743-.165.449.449,0,0,0-.187.657c.244.363,6.036,8.922,8.131,10.742A.562.562,0,0,0,1543.454,532.36Zm-4.905,1.845a.567.567,0,0,0,.431-.189.443.443,0,0,0-.1-.672c-1.371-.926-6.52-8.309-8.39-11.074a.583.583,0,0,0-.743-.165.45.45,0,0,0-.187.657c.7,1.033,6.878,10.137,8.663,11.345A.585.585,0,0,0,1538.549,534.205Zm-4.5,2.719a.579.579,0,0,0,.4-.151.442.442,0,0,0-.025-.679c-1.01-.839-5.217-6.225-6.752-8.23a.589.589,0,0,0-.753-.129.448.448,0,0,0-.146.667c.228.3,5.6,7.31,6.91,8.392A.571.571,0,0,0,1534.048,536.924Z" transform="translate(-1356.908 1656.304)" stroke="#000" stroke-width="1"/>
      <path id="Path_39263" data-name="Path 39263" d="M925.37,631.461c.135,2.746,14.346,43.39,62.82,49.72,2.116.278,4.187.458,6.208.554a67.5,67.5,0,0,0,40.6-10.884,80.093,80.093,0,0,0,24.887-25.63l-17.545-13.62s-23.889,26.462-56.039,18.758c-22.67-5.432-34.436-33.339-34.436-33.339S925.235,628.715,925.37,631.461Z" transform="translate(-745.463 1577.522)" fill="#ed85c0" stroke="#000" stroke-width="2"/>
    </g>
  </g>
</svg>
