<svg id="Group_37556" data-name="Group 37556" xmlns="http://www.w3.org/2000/svg" width="47.315" height="33.686" viewBox="0 0 47.315 33.686">
  <g id="Rectangle_2716" data-name="Rectangle 2716" transform="translate(2.366 1.39)" stroke="#000" stroke-width="2">
    <rect width="44.949" height="32.295" rx="6" stroke="none"/>
    <rect x="1" y="1" width="42.949" height="30.295" rx="5" fill="none"/>
  </g>
  <g id="Path_39108" data-name="Path 39108" transform="translate(0 0)" fill="#ec85c0">
    <path d="M 40.13164520263672 31.01657676696777 L 4.543205261230469 31.01657676696777 C 2.589475154876709 31.01657676696777 1.00000524520874 29.36333656311035 1.00000524520874 27.33122825622559 L 1.00000524520874 4.685357570648193 C 1.00000524520874 2.653247356414795 2.589475154876709 0.9999974370002747 4.543205261230469 0.9999974370002747 L 40.13164520263672 0.9999974370002747 C 42.08537673950195 0.9999974370002747 43.67485427856445 2.653247356414795 43.67485427856445 4.685357570648193 L 43.67485427856445 27.33122825622559 C 43.67485427856445 29.36333656311035 42.08537673950195 31.01657676696777 40.13164520263672 31.01657676696777 Z" stroke="none"/>
    <path d="M 4.543205261230469 1.999998092651367 C 3.140876770019531 1.999998092651367 1.999996185302734 3.20463752746582 1.999996185302734 4.685346603393555 L 1.999996185302734 27.33121681213379 C 1.999996185302734 28.81192779541016 3.140876770019531 30.01657676696777 4.543205261230469 30.01657676696777 L 40.13164520263672 30.01657676696777 C 41.53397369384766 30.01657676696777 42.67484664916992 28.81192779541016 42.67484664916992 27.33121681213379 L 42.67484664916992 4.685346603393555 C 42.67484664916992 3.20463752746582 41.53397369384766 1.999998092651367 40.13164520263672 1.999998092651367 L 4.543205261230469 1.999998092651367 M 4.543205261230469 -3.814697265625e-06 L 40.13164520263672 -3.814697265625e-06 C 42.64078521728516 -3.814697265625e-06 44.67484664916992 2.097707748413086 44.67484664916992 4.685346603393555 L 44.67484664916992 27.33121681213379 C 44.67484664916992 29.91886711120605 42.64078521728516 32.01657867431641 40.13164520263672 32.01657867431641 L 4.543205261230469 32.01657867431641 C 2.034065246582031 32.01657867431641 -3.814697265625e-06 29.91886711120605 -3.814697265625e-06 27.33121681213379 L -3.814697265625e-06 4.685346603393555 C -3.814697265625e-06 2.097707748413086 2.034065246582031 -3.814697265625e-06 4.543205261230469 -3.814697265625e-06 Z" stroke="none" fill="#000"/>
  </g>
  <path id="Path_39107" data-name="Path 39107" d="M4591.66,473.789s17.3,18.61,20.16,17.842,20.478-17.842,20.478-17.842" transform="translate(-4589.563 -472.296)" fill="none" stroke="#000" stroke-width="2"/>
</svg>
