<svg xmlns="http://www.w3.org/2000/svg" width="230.904" height="119.984" viewBox="0 0 230.904 119.984">
  <path id="us-map" d="M5.259,127.972a17.874,17.874,0,0,1,2.233,9.411c-.113,9.727.069,19.458-.115,29.184a7.09,7.09,0,0,0,3.465,6.8,6.419,6.419,0,0,1,3.361,5.624,8.186,8.186,0,0,0,2.9,6.4c5.209,4.766,10.454,9.488,15.184,14.707a4.42,4.42,0,0,0,4.529,1.28,8.54,8.54,0,0,1,6.767.9c7.031,4.615,14.893,6.205,23.32,5.53a43.235,43.235,0,0,1,9.992-.126c2.771.42,5.065,1.351,6,4.24a15.885,15.885,0,0,0,3.171,5.007c2.91,3.513,3.043,3.5,5.449-.3,1.487-2.351,3.137-2.649,5.375-.905a12.227,12.227,0,0,1,4.127,6.138,20.855,20.855,0,0,0,11.139,12.63c.7.354,1.361.992,2.447.517.5-3.159.1-6.427.511-9.66a5.862,5.862,0,0,1,2.856-4.423c2.649-1.772,5.712-2.671,8.675-3.8a11.465,11.465,0,0,1,8.2-.06c2.7.952,5.492,1.685,8.218,2.584,2.373.783,4.587,1.312,5.815-1.629.153-.367.618-.63.969-.9,5.8-4.534,6.511-4.52,11.891.5a2.621,2.621,0,0,0,3.177.649,6.083,6.083,0,0,1,8.2,4.181,21.632,21.632,0,0,1,1.009,5.991c.012,4.307,2.782,7.081,5.713,9.749,1.314,1.2,2.069.858,2.458-.836a32.964,32.964,0,0,0,.664-7.575c-.011-1.92.071-4.034-1.175-5.689-3.414-4.534-3.755-9.691-3.58-14.97a6.8,6.8,0,0,1,2.949-5.587c4.085-3.017,8.04-6.2,11.963-9.41a48.809,48.809,0,0,0,7.518-7.269c.833-1.051,1.183-2-.261-2.923a3.6,3.6,0,0,1-1.668-3.392,56.371,56.371,0,0,1,1.278-8.8,2.409,2.409,0,0,1,2.48-2.131c2.469-.064,3.66-1.371,4.214-3.529.865-3.369,3.243-5.476,6.477-6.831a57.534,57.534,0,0,1,7.157-2.155c1.067-.291,1.975-.571,1.51-2.079-1.092-3.542.083-6.357,3.257-8.512a78.866,78.866,0,0,0,9.7-7.216c.62-.578,1.546-1.2,1.085-2.2-.42-.915-1.444-.982-2.366-.987-3.265-.016-6.531.019-9.8-.01a2.765,2.765,0,0,0-2.482,1.255,5.383,5.383,0,0,1-4.275,2.159c-2.571.2-5.149.457-7.725.464-10.1.024-20.218.391-30.3-.452-3.3-.276-6.576-.342-9.557-2.708-2.431-1.93-5.268-1.846-7.218.741a9.7,9.7,0,0,1-3.03,2.611c-2.257,1.259-3.6.591-3.829-1.933a8.381,8.381,0,0,1,.073-1.949,4.947,4.947,0,0,0-1.4-4.409c-3.826-3.962-7.475-8.191-14.009-7.609a4.139,4.139,0,0,1-1.11-.222,111.693,111.693,0,0,1-14.587-4.216,15.206,15.206,0,0,0-5.113-.9q-50.842.022-101.683,0c-5.192,0-5.192,0-6.392,4.74-.618,2.44-1.149,2.634-3.346,1.321C6.347,124.159,4.533,126.707,5.259,127.972Z" transform="translate(-5.093 -118.92)" fill="#f6d854"/>
</svg>
