<svg xmlns="http://www.w3.org/2000/svg" width="459.629" height="270.565" viewBox="0 0 459.629 270.565">
  <g id="Group_37763" data-name="Group 37763" transform="translate(1501.623 -1005.769)">
    <g id="Group_37762" data-name="Group 37762" transform="translate(-1486.494 -1986.231)">
      <line id="Line_78" data-name="Line 78" x2="371.931" transform="translate(72.569 3094.454)" fill="none" stroke="#000" stroke-width="2"/>
      <g id="education" transform="translate(-14.006 2992)">
        <path id="Path_38499" data-name="Path 38499" d="M913.213,899.444c1.014,1.642-1.589,3.609-1.589,3.609s3.6-1.927,4.317-.322-1.584,2.81-1.584,2.81,2.788-.714,3.093.715-3.365,3.877-3.365,3.877,2.822-.435,1.552,2.341-15.8,8.957-19.046,9.878l-7.758-12.511S911.443,896.575,913.213,899.444Z" transform="translate(-732.823 -814.17)" fill="#fff"/>
        <path id="Path_38500" data-name="Path 38500" d="M894.593,920.771a.355.355,0,0,0,.1-.014c2.707-.767,17.886-7.039,19.274-10.074a2.175,2.175,0,0,0,.091-2.254,1.566,1.566,0,0,0-.911-.551c1.16-.882,2.915-2.443,2.659-3.638a1.308,1.308,0,0,0-.608-.858,2.847,2.847,0,0,0-1.529-.32,2.141,2.141,0,0,0,.605-2.417,1.37,1.37,0,0,0-.832-.744,3.958,3.958,0,0,0-2.313.188,2.427,2.427,0,0,0,.392-2.774c-.55-.89-2.531-1.443-13.32,3.991-5.817,2.929-11.489,6.252-11.546,6.286a.36.36,0,0,0-.124.5l7.758,12.511A.362.362,0,0,0,894.593,920.771Zm17.882-12.244a1.3,1.3,0,0,1,1.008.339c.27.358.057,1.023-.17,1.52-1.124,2.457-14.593,8.386-18.559,9.6l-7.418-11.964c10.875-6.356,22.589-11.926,23.571-10.333h0c.831,1.345-1.475,3.116-1.5,3.134a.359.359,0,0,0,.386.6c.641-.342,2.5-1.161,3.413-.849a.635.635,0,0,1,.406.358c.576,1.281-1.4,2.333-1.421,2.344a.36.36,0,0,0,.256.668,3.91,3.91,0,0,1,2.368.044.587.587,0,0,1,.284.4c.175.821-1.774,2.543-3.212,3.5a.36.36,0,0,0,.253.656A1.905,1.905,0,0,1,912.475,908.527ZM911.213,897.5h0Z" transform="translate(-730.823 -812.229)"/>
        <path id="Path_38501" data-name="Path 38501" d="M907.133,928.268a.317.317,0,0,0,.106-.017c1.86-.576,8.207-4.518,8.476-4.685a.359.359,0,1,0-.38-.61c-.064.041-6.538,4.059-8.309,4.608a.36.36,0,0,0,.107.7Zm2.257,2.718a.3.3,0,0,0,.064-.006c1.466-.262,8.229-4.449,9-4.925a.359.359,0,1,0-.38-.61c-2.051,1.275-7.618,4.626-8.744,4.827a.36.36,0,0,0,.063.714Zm1.722,3.177a.354.354,0,0,0,.1-.014c1.141-.325,6.714-3.362,6.952-3.491a.359.359,0,0,0-.343-.631c-1.593.869-5.919,3.179-6.8,3.432a.36.36,0,0,0-.248.444A.356.356,0,0,0,911.111,934.163Z" transform="translate(-736.723 -834.379)"/>
        <path id="Path_38502" data-name="Path 38502" d="M935.459,1233.57l-3.736,12.261c-1.123,3.688.521,7.457,3.675,8.419l9.34,2.844c3.154.961,6.622-1.253,7.745-4.939l3.736-12.261Z" transform="translate(-776.312 -1103.926)" fill="#ed85c0"/>
        <path id="Path_38503" data-name="Path 38503" d="M944.373,1255.7a6.227,6.227,0,0,0,3.336-1.009,7.942,7.942,0,0,0,3.286-4.411l3.764-12.261a.358.358,0,0,0-.241-.449l-20.914-6.325a.363.363,0,0,0-.452.239l-3.764,12.262c-1.188,3.873.582,7.851,3.945,8.869l9.409,2.846A5.693,5.693,0,0,0,944.373,1255.7Zm9.587-17.548-3.658,11.918a7.211,7.211,0,0,1-2.982,4.014,5.244,5.244,0,0,1-4.367.686l-9.409-2.846c-2.982-.9-4.534-4.476-3.462-7.97l3.657-11.918Z" transform="translate(-774.242 -1101.943)" fill="#fea300" stroke="#000" stroke-width="1"/>
        <rect id="Rectangle_2561" data-name="Rectangle 2561" width="21.701" height="91.825" transform="translate(178.135 142.448) rotate(-163.058)" fill="#fbecad" stroke="#000" stroke-width="2"/>
        <rect id="Rectangle_2562" data-name="Rectangle 2562" width="0.246" height="91.011" transform="translate(167.986 139.076) rotate(-163.058)" fill="#f6d854" stroke="#000" stroke-width="2"/>
        <path id="Path_38504" data-name="Path 38504" d="M775.457,752.7a.347.347,0,0,0,.169-.043.355.355,0,0,0,.174-.213l26.761-87.839a.359.359,0,0,0-.239-.449l-20.759-6.325a.363.363,0,0,0-.274.026.356.356,0,0,0-.175.213l-26.762,87.839a.363.363,0,0,0,.026.274.356.356,0,0,0,.213.175l20.76,6.325A.362.362,0,0,0,775.457,752.7Zm26.312-87.961-26.553,87.152-20.071-6.115L781.7,658.627Z" transform="translate(-597.329 -609.903)"/>
        <path id="Path_38505" data-name="Path 38505" d="M17.652,0h0l3.867,25.307L0,18.9Z" transform="matrix(1, 0.017, -0.017, 1, 184.493, 28.798)" fill="#fff" stroke="#000" stroke-width="2"/>
        <path id="Path_38507" data-name="Path 38507" d="M772.48,544.892l5.978-6.552,1.31,8.773Z" transform="translate(-576.336 -509.542)"/>
        <path id="Path_38508" data-name="Path 38508" d="M935.879,894.343s3.211-5.415,4.813-6.721c2.135-1.74,10.2-4.528,10.812-2.122s-5.722,5.57-5.722,5.57.989,7.894-4.355,8.26" transform="translate(-774.108 -801.914)" fill="#fff"/>
        <path id="Path_38509" data-name="Path 38509" d="M939.446,897.727l.026,0a4.373,4.373,0,0,0,3.2-1.593c1.782-2.163,1.6-5.818,1.51-6.817,1.267-.657,6.3-3.442,5.687-5.867a1.476,1.476,0,0,0-1.065-1.04c-2.448-.81-8.58,1.553-10.322,2.972-1.633,1.33-4.763,6.592-4.9,6.815a.36.36,0,1,0,.619.368c.03-.054,3.2-5.374,4.73-6.624,1.788-1.455,7.637-3.513,9.642-2.846a.8.8,0,0,1,.594.535c.394,1.549-3.186,3.987-5.533,5.159a.359.359,0,0,0-.2.366c0,.043.51,4.3-1.327,6.525a3.677,3.677,0,0,1-2.7,1.333.359.359,0,0,0,.023.717Z" transform="translate(-772.128 -799.948)" stroke="#090909" stroke-width="1"/>
        <path id="Path_38510" data-name="Path 38510" d="M1026.853,806.68s5.691,21.393,27.722,26.41,33.781-6.523,33.781-6.523c2.387,1.719,7.773,15.36,4.077,19.118,0,0-21.824,12.338-46.915,5.607-24.854-6.668-32.867-30.47-32.867-30.47" transform="translate(-928.014 -735.961)" fill="#ed85c0" stroke="#000" stroke-width="2"/>
        <path id="Path_38511" data-name="Path 38511" d="M1837.63,508.242l6.745,11.52s2.393,5.748,3.091,7.321a3.306,3.306,0,0,0,.187.394c.013,0,.178-.043.47-.129.427-.124,1.126-.331,2.028-.6,6.616-1.975,24.434-7.387,24.434-7.387l-.628-7.43c-8.308-1.52-20.561,4.674-20.561,4.674-2.445-5.829-6.137-11.558-8.4-13.654-.835-.772-1.855.777-1.855.777,1.472,1.18,3.049,4.338,3.145,4.534a42.375,42.375,0,0,0-4.142-3.834C1840.223,505.322,1837.63,508.242,1837.63,508.242Z" transform="translate(-1835.287 -478.575)" fill="#fff" stroke="#000" stroke-width="2"/>
        <path id="Path_38512" data-name="Path 38512" d="M1975.94,508.216l6.745,11.52s2.393,5.748,3.092,7.321l.657.263,1.63.646.4-1.251,3.246-10.144c-2.445-5.829-6.137-11.558-8.4-13.654-.835-.772-1.855.777-1.855.777,1.473,1.18,3.049,4.338,3.146,4.534a42.411,42.411,0,0,0-4.143-3.834C1978.533,505.3,1975.94,508.216,1975.94,508.216Z" transform="translate(-1973.597 -478.549)" fill="#fff" stroke="#090909" stroke-width="2"/>
        <path id="Path_38513" data-name="Path 38513" d="M317.973,1935.119h75.9a15.408,15.408,0,0,0,15.469-15.174c0-.11,0-.222,0-.332a15.407,15.407,0,0,0-15.469-15.174h-75.9A21.7,21.7,0,0,1,317.973,1935.119Z" transform="translate(-137.247 -1665.554)" fill="#ed85c0" stroke="#090909" stroke-width="2"/>
        <path id="Path_38515" data-name="Path 38515" d="M872.938,1935.111a21.693,21.693,0,0,0,0-30.681h86.257a21.693,21.693,0,0,1,0,30.681Z" transform="translate(-778.469 -1665.545)" fill="#fff" stroke="#090909" stroke-width="2"/>
        <path id="Path_38517" data-name="Path 38517" d="M315.642,1933.49h76.767a15.782,15.782,0,0,0,15.828-15.53c0-.114,0-.226,0-.339a15.783,15.783,0,0,0-15.828-15.53H315.642l.614.614a21.36,21.36,0,0,1,0,30.173Zm76.767-30.681a15.063,15.063,0,0,1,15.109,14.816c0,.109,0,.218,0,.328a15.062,15.062,0,0,1-15.109,14.816H317.355a22.082,22.082,0,0,0,0-29.961Z" transform="translate(-135.786 -1663.564)"/>
        <path id="Path_38518" data-name="Path 38518" d="M870.663,1933.481h87.274l.106-.106a22.08,22.08,0,0,0,0-31.189l-.106-.106H870.663l.614.614a21.336,21.336,0,0,1,0,30.172Zm86.975-.72H872.377a22.054,22.054,0,0,0,0-29.961h85.261A21.359,21.359,0,0,1,957.638,1932.761Z" transform="translate(-777.063 -1663.556)"/>
        <rect id="Rectangle_2563" data-name="Rectangle 2563" width="57.119" height="0.718" transform="translate(111.955 250.016)" stroke="#000" stroke-width="1"/>
        <rect id="Rectangle_2564" data-name="Rectangle 2564" width="57.119" height="0.718" transform="translate(111.955 255.525)" stroke="#000" stroke-width="1"/>
        <rect id="Rectangle_2565" data-name="Rectangle 2565" width="35.617" height="0.718" transform="translate(133.457 261.032)" stroke="#000" stroke-width="1"/>
        <path id="Path_38519" data-name="Path 38519" d="M910.11,1734.839h-75.9a15.408,15.408,0,0,1-15.469-15.173c0-.11,0-.222,0-.333a15.407,15.407,0,0,1,15.469-15.173h75.9A21.694,21.694,0,0,0,910.11,1734.839Z" transform="translate(-714.728 -1495.955)" fill="#f6d854" stroke="#000" stroke-width="2"/>
        <path id="Path_38521" data-name="Path 38521" d="M348.282,1734.831a21.694,21.694,0,0,1,0-30.681H262.025a21.694,21.694,0,0,0,0,30.681Z" transform="translate(-66.642 -1495.947)" fill="#fff" stroke="#000" stroke-width="2"/>
        <path id="Path_38523" data-name="Path 38523" d="M828.9,1733.2h76.768l-.614-.614a21.36,21.36,0,0,1,0-30.173l.614-.614H828.9a15.782,15.782,0,0,0-15.828,15.531c0,.113,0,.225,0,.339A15.782,15.782,0,0,0,828.9,1733.2Zm75.056-.72H828.9a15.063,15.063,0,0,1-15.109-14.816c0-.109,0-.218,0-.328A15.062,15.062,0,0,1,828.9,1702.52h75.054A22.079,22.079,0,0,0,903.953,1732.481Z" transform="translate(-709.414 -1493.956)"/>
        <path id="Path_38524" data-name="Path 38524" d="M256.555,1733.2h87.274l-.614-.614a21.336,21.336,0,0,1,0-30.173l.614-.614H256.555l-.106.106a22.08,22.08,0,0,0,0,31.19Zm85.562-.72H256.855a21.359,21.359,0,0,1,0-29.961h85.261a22.054,22.054,0,0,0,0,29.961Z" transform="translate(-61.321 -1493.956)"/>
        <rect id="Rectangle_2566" data-name="Rectangle 2566" width="57.119" height="0.718" transform="translate(203.085 217.677)" stroke="#000" stroke-width="1"/>
        <rect id="Rectangle_2567" data-name="Rectangle 2567" width="57.119" height="0.718" transform="translate(203.085 223.184)" stroke="#000" stroke-width="1"/>
        <rect id="Rectangle_2568" data-name="Rectangle 2568" width="35.617" height="0.718" transform="translate(203.085 228.692)" stroke="#000" stroke-width="1"/>
        <g id="Group_37308" data-name="Group 37308" transform="translate(103.146 177.161)">
          <path id="Path_38525" data-name="Path 38525" d="M255.652,1534.55h75.9a15.408,15.408,0,0,0,15.469-15.173c0-.111,0-.222,0-.333a15.407,15.407,0,0,0-15.469-15.173h-75.9A21.7,21.7,0,0,1,255.652,1534.55Z" transform="translate(-168.527 -1503.508)" fill="#a4e3db" stroke="#0f0f0f" stroke-width="1"/>
          <path id="Path_38527" data-name="Path 38527" d="M810.617,1534.541a21.693,21.693,0,0,0,0-30.681h86.257a21.694,21.694,0,0,1,0,30.681Z" transform="translate(-809.749 -1503.5)" fill="#fff" stroke="#0f0f0f" stroke-width="1"/>
          <path id="Path_38529" data-name="Path 38529" d="M253.322,1532.919h76.767a15.782,15.782,0,0,0,15.828-15.531c0-.113,0-.225,0-.338a15.784,15.784,0,0,0-15.828-15.53H253.322l.614.614a21.36,21.36,0,0,1,0,30.172Zm76.767-30.681a15.062,15.062,0,0,1,15.109,14.817c0,.109,0,.218,0,.328a15.063,15.063,0,0,1-15.109,14.817H255.035a22.083,22.083,0,0,0,0-29.961Z" transform="translate(-167.065 -1501.519)" stroke="#0f0f0f" stroke-width="1"/>
          <path id="Path_38530" data-name="Path 38530" d="M808.343,1532.911h87.274l.106-.105a22.08,22.08,0,0,0,0-31.189l-.106-.106H808.343l.614.614a21.36,21.36,0,0,1,0,30.173Zm86.975-.72H810.055a22.082,22.082,0,0,0,0-29.961h85.263A21.359,21.359,0,0,1,895.318,1532.191Z" transform="translate(-808.343 -1501.51)" stroke="#0f0f0f" stroke-width="1"/>
          <rect id="Rectangle_2569" data-name="Rectangle 2569" width="57.119" height="0.718" transform="translate(13.666 9.835)" stroke="#0f0f0f" stroke-width="1"/>
          <rect id="Rectangle_2570" data-name="Rectangle 2570" width="57.119" height="0.718" transform="translate(13.666 15.342)" stroke="#0f0f0f" stroke-width="1"/>
          <rect id="Rectangle_2571" data-name="Rectangle 2571" width="35.617" height="0.718" transform="translate(35.168 20.849)" stroke="#0f0f0f" stroke-width="1"/>
        </g>
        <g id="Group_37321" data-name="Group 37321" transform="translate(39.097 113.348)">
          <path id="Path_38531" data-name="Path 38531" d="M1534.928,1952.82l34.235.221a.16.16,0,0,0,.017-.063c.288-5.235-1.2-10.745-5.834-11.385a6.617,6.617,0,0,0-.885-.062c-.979,0-11.926-.31-11.926-.31l-1.363-11.7-14.466.6Z" transform="translate(-1530.75 -1800.139)" fill="#c16cf9" stroke="#000" stroke-width="2"/>
          <path id="Path_38532" data-name="Path 38532" d="M1660.486,1934.842l-.026-4.85,14.466-.472.778,5.251Z" transform="translate(-1656.504 -1800.139)" fill="#fff" stroke="#000" stroke-width="2"/>
          <path id="Path_38533" data-name="Path 38533" d="M1534.706,2016.142a8.059,8.059,0,0,0,.795,3.554l11.275.072a.16.16,0,0,0,.017-.063c.288-5.235-1.2-10.745-5.833-11.385A8.083,8.083,0,0,0,1534.706,2016.142Z" transform="translate(-1508.364 -1866.868)" fill="#fff" stroke="#000" stroke-width="2"/>
          <path id="Path_38534" data-name="Path 38534" d="M1569.825,2008.124c.121-2.852-.816-.707-.867-1.047l-35.059-.1-.023,1.293a2.876,2.876,0,0,0,3,2.774l29.22.075A3.364,3.364,0,0,0,1569.825,2008.124Zm-20.406-10.239a.657.657,0,0,0,.784-.437l.574-2.175a.59.59,0,0,0-.482-.711.656.656,0,0,0-.784.436l-.574,2.175A.59.59,0,0,0,1549.419,1997.885Zm3.075.018a.656.656,0,0,0,.784-.437l.574-2.175a.59.59,0,0,0-.481-.711.655.655,0,0,0-.784.437l-.574,2.175A.59.59,0,0,0,1552.494,1997.9Zm3.075.018a.656.656,0,0,0,.784-.436l.574-2.175a.59.59,0,0,0-.481-.711.655.655,0,0,0-.784.437l-.574,2.175A.591.591,0,0,0,1555.569,1997.922Z" transform="translate(-1530.549 -1853.929)"/>
          <path id="Path_38535" data-name="Path 38535" d="M1078.076,1744.14l34.229-.686a.177.177,0,0,0,.015-.065c.148-5.241-1.488-10.708-6.134-11.226a6.635,6.635,0,0,0-.887-.037c-.979.024-11.93.006-11.93.006l-1.673-11.662-14.446.983Z" transform="translate(-995.645 -1623.114)" fill="#c16cf9" stroke="#000" stroke-width="2"/>
          <path id="Path_38536" data-name="Path 38536" d="M1205.885,1730.415l-.185-8.577,13.958-1.368.922,9.257Z" transform="translate(-1123.279 -1623.114)" fill="#fff" stroke="#000" stroke-width="2"/>
          <path id="Path_38537" data-name="Path 38537" d="M1077.252,1804.784a8.036,8.036,0,0,0,.89,3.532l11.271-.227a.165.165,0,0,0,.016-.064c.148-5.241-1.488-10.708-6.134-11.226A8.081,8.081,0,0,0,1077.252,1804.784Z" transform="translate(-972.754 -1687.751)" fill="#fff" stroke="#000" stroke-width="2"/>
          <path id="Path_38538" data-name="Path 38538" d="M1111.833,1797.423a9.176,9.176,0,0,0,0-2l-35.829,1.71.014,1.272a2.91,2.91,0,0,0,3.136,2.657h29.737C1110.74,1801.023,1111.7,1799.54,1111.833,1797.423Zm-20.317-9.6a.666.666,0,0,0,.785-.448l.518-2.152a.586.586,0,0,0-.51-.688.667.667,0,0,0-.785.448l-.518,2.152A.585.585,0,0,0,1091.516,1787.821Zm3.128-.054a.667.667,0,0,0,.785-.448l.518-2.152a.587.587,0,0,0-.51-.689.667.667,0,0,0-.785.448l-.518,2.152A.584.584,0,0,0,1094.645,1787.766Zm3.128-.055a.666.666,0,0,0,.785-.447l.519-2.152a.586.586,0,0,0-.511-.689.666.666,0,0,0-.785.448l-.518,2.152A.586.586,0,0,0,1097.773,1787.711Z" transform="translate(-994.398 -1675.632)"/>
          <path id="Path_38539" data-name="Path 38539" d="M1181.413,1133.011l2.662,2.128,18.314,14.613,2.308,1.845s.014.009.019.014l1.574,1.256,16.51,13.179.565,35.231a4.317,4.317,0,0,0,4.458,4.259l13.409-.433a4.308,4.308,0,0,0,4.162-3.985c.867-11.484,2.857-35.767-2.812-46.911-2.348-4.617-14.072-16.722-25.151-27.614-1-.991-2.008-1.968-2.995-2.932-2.852-2.781-5.6-5.423-8.058-7.771a34.923,34.923,0,0,0-24.121-9.668Z" transform="translate(-1145.723 -1102.962)" fill="#80d4ec" stroke="#000" stroke-width="2"/>
          <g id="Group_37310" data-name="Group 37310" transform="translate(0 0)">
            <path id="Path_38541" data-name="Path 38541" d="M1521.011,1235.707l10.552.57a5.694,5.694,0,0,0,5.868-4.448c3.989-17.948,11.736-89.476,18.76-121.669.11-.508-2.008-1.2-4.678-1.861h0l-8.31-2.088h-1.88a16.632,16.632,0,0,0-16.35,13.542L1522,1138.933l-1.411,9.094-4.895,81.118A5.7,5.7,0,0,0,1521.011,1235.707Z" transform="translate(-1515.623 -1106.21)" fill="#80d4ec" stroke="#000" stroke-width="2"/>
          </g>
          <g id="Group_37313" data-name="Group 37313" transform="translate(58.992 48.647)">
            <path id="Path_38544" data-name="Path 38544" d="M1445.144,1403.766a12,12,0,0,0-1.574-1.256Z" transform="translate(-1443.57 -1402.51)" fill="#4a61d8" stroke="#000" stroke-width="2"/>
          </g>
          <g id="Group_37314" data-name="Group 37314" transform="translate(3.511 15.103) rotate(-3)">
            <path id="Path_38545" data-name="Path 38545" d="M.4,29.642a24.554,24.554,0,0,0,8.918-9.168,16.027,16.027,0,0,0,2.012-8.987l-.015-.137a16.777,16.777,0,0,0-.926-4.225l-.026-.077A22.84,22.84,0,0,0,6.178,0L5.606.475A22.164,22.164,0,0,1,9.635,7.234l.025.077a16.017,16.017,0,0,1,.915,4.214l.014.138a15.354,15.354,0,0,1-1.935,8.466A23.793,23.793,0,0,1,0,29.019Z" transform="translate(0 0)" stroke="#000" stroke-width="1"/>
          </g>
          <g id="Group_37316" data-name="Group 37316" transform="translate(57.399 10.437)">
            <path id="Path_38547" data-name="Path 38547" d="M1385.127,1166.63l.005-.719a16.445,16.445,0,0,1-6.159-1.212,11.251,11.251,0,0,1-5.045-3.934l-.109-.152a11.967,11.967,0,0,1-1.334-2.59l-.022-.061a16.037,16.037,0,0,1-.925-4.882l-.718.026a16.848,16.848,0,0,0,.946,5.044h.343l-.294.137c.052.14.107.279.263.651a11.874,11.874,0,0,0,1.188,2.142h.313l-.132.251a11.993,11.993,0,0,0,5.253,4.038A17.3,17.3,0,0,0,1385.127,1166.63Z" transform="translate(-1370.82 -1153.08)" stroke="#000" stroke-width="1"/>
          </g>
          <g id="Group_37317" data-name="Group 37317" transform="translate(1.016 122.595)">
            <rect id="Rectangle_2572" data-name="Rectangle 2572" width="21.398" height="0.703" stroke="#000" stroke-width="1"/>
          </g>
          <g id="Group_37318" data-name="Group 37318" transform="translate(1.017 115.583)">
            <rect id="Rectangle_2573" data-name="Rectangle 2573" width="22.556" height="0.6" stroke="#000" stroke-width="1"/>
          </g>
          <g id="Group_37319" data-name="Group 37319" transform="translate(77.563 91.753)">
            <rect id="Rectangle_2574" data-name="Rectangle 2574" width="22.516" height="0.718" stroke="#000" stroke-width="1"/>
          </g>
          <g id="Group_37320" data-name="Group 37320" transform="translate(77.476 84.636)">
            <rect id="Rectangle_2575" data-name="Rectangle 2575" width="22.971" height="0.718" stroke="#000" stroke-width="1"/>
          </g>
        </g>
        <g id="Group_37322" data-name="Group 37322" transform="translate(47.34 54.208)">
          <path id="Path_38548" data-name="Path 38548" d="M1424.46,750.723c.014.081.039.169.058.254.072.322.148.637.234.95a27.656,27.656,0,0,0,5.369,10.5c.556.676,1.141,1.328,1.759,1.947a27.9,27.9,0,1,0,13.609-46.812c-.369.09-.738.182-1.1.283A27.888,27.888,0,0,0,1424.46,750.723Z" transform="translate(-1423.81 -716.861)" fill="#ed85c0" stroke="#000" stroke-width="2"/>
        </g>
        <g id="Group_37323" data-name="Group 37323" transform="translate(0 29.352)">
          <path id="Path_38552" data-name="Path 38552" d="M1983.17,536.645s10.345-.394,16.2,14.7l.8,30.35s-4.6-9.754-13.017-12.141Z" transform="translate(-1983.17 -536.644)" fill="#fea300" stroke="#000" stroke-width="2"/>
          <path id="Path_38553" data-name="Path 38553" d="M1825.98,600.751a29.776,29.776,0,0,1,24.882-4.891l-.537,31.521a33.623,33.623,0,0,0-23.544,3.719Z" transform="translate(-1809.78 -586.05)" fill="#fea300" stroke="#000" stroke-width="2"/>
        </g>
        <g id="Group_37324" data-name="Group 37324" transform="translate(6.06 54.207)">
          <path id="Path_38555" data-name="Path 38555" d="M1950.277,727.287s-1.308-10.268-1.719-12.715-2.484-5.6-.94-6.8,3.191,2.483,3.191,2.483-1.328-7.057.237-7.99,2.464,2.794,2.464,2.794-.224-3.848,1.438-3.828,1.778,2.472,1.778,2.472.5-2.673,1.842-2.367,1.987,4.424,1.987,4.424.747-2.592,2.622-.4S1965,721.552,1964.5,724.7Z" transform="translate(-1946.694 -700.871)" fill="#fff" stroke="#000" stroke-width="1"/>
          <path id="Path_38556" data-name="Path 38556" d="M1948.293,725.674a.308.308,0,0,0,.064-.006l14.227-2.59a.358.358,0,0,0,.289-.3c.458-2.88.65-17.226-1.406-19.627-.667-.78-1.311-1.107-1.915-.977a1.475,1.475,0,0,0-.821.538c-.3-1.35-.943-3.444-2.068-3.7a1.258,1.258,0,0,0-.993.184,2.674,2.674,0,0,0-.87,1.149,2.024,2.024,0,0,0-1.834-1.448,1.3,1.3,0,0,0-.982.423,3.607,3.607,0,0,0-.745,1.93,2.791,2.791,0,0,0-1.213-1.374,1.239,1.239,0,0,0-1.151.1c-1.236.737-1.009,4.194-.707,6.488a3.13,3.13,0,0,0-1.548-1.229,1.374,1.374,0,0,0-1.212.273c-1.247.968-.576,2.857.074,4.683a15.6,15.6,0,0,1,.732,2.462c.4,2.411,1.7,12.6,1.717,12.7a.36.36,0,0,0,.144.245A.388.388,0,0,0,1948.293,725.674Zm13.908-3.258-13.6,2.477c-.241-1.875-1.311-10.195-1.673-12.353a16.04,16.04,0,0,0-.763-2.584c-.59-1.659-1.147-3.224-.311-3.874a.654.654,0,0,1,.594-.143c.861.216,1.77,1.871,2.048,2.49a.36.36,0,0,0,.682-.213c-.531-2.828-.862-7.061.069-7.615a.524.524,0,0,1,.5-.06c.644.271,1.216,1.757,1.426,2.629a.36.36,0,0,0,.71-.106c-.04-.682,0-2.593.622-3.248a.549.549,0,0,1,.453-.2c1.308.015,1.423,2.109,1.425,2.131a.359.359,0,0,0,.712.049,3.665,3.665,0,0,1,.971-2,.537.537,0,0,1,.436-.083c.763.173,1.46,2.518,1.711,4.128a.359.359,0,0,0,.333.3.351.351,0,0,0,.369-.257c.069-.233.36-.918.79-1.01.4-.086.884.357,1.215.743C1962.649,705.637,1962.664,718.856,1962.2,722.416Z" transform="translate(-1944.71 -698.9)" stroke="#000" stroke-width="1"/>
          <path id="Path_38557" data-name="Path 38557" d="M1971.28,726.274a.149.149,0,0,0,.026,0,.359.359,0,0,0,.332-.385c-.058-.8-.334-3.978-.334-3.978l-.717.063s.276,3.166.333,3.968A.36.36,0,0,0,1971.28,726.274Zm3.018-.129a.359.359,0,0,0,.355-.311c.246-1.825-.613-8.833-.649-9.13a.36.36,0,1,0-.714.089c.01.072.882,7.214.649,8.946a.359.359,0,0,0,.308.4Zm3.226-.857a.36.36,0,0,0,.347-.268c.358-1.363-.544-8.828-.647-9.674a.36.36,0,0,0-.714.089c.4,3.269.911,8.472.666,9.4a.36.36,0,0,0,.256.44A.371.371,0,0,0,1977.524,725.289Zm3.405-.213a.363.363,0,0,0,.355-.3c.175-1.109-.216-7.094-.233-7.349a.364.364,0,0,0-.382-.336.36.36,0,0,0-.335.383c.112,1.71.374,6.335.239,7.189a.36.36,0,0,0,.3.41A.322.322,0,0,0,1980.929,725.076Z" transform="translate(-1966.831 -712.56)" stroke="#000" stroke-width="1"/>
        </g>
        <g id="Group_37325" data-name="Group 37325" transform="translate(7.832 63.148)">
          <path id="Path_38558" data-name="Path 38558" d="M1756.222,785.819c-4.365,4.285-11.461,24.876-20.188,23.937-9.761-1.049-10.322-14.342-10.322-14.342-.38-1.975-15.381-1.388-16.442,1.823,0,0,6.171,27.34,28.478,28.7,17.462,1.06,24.279-26.192,24.279-26.192" transform="translate(-1709.27 -785.819)" fill="#ed85c0" stroke="#000" stroke-width="2"/>
        </g>
        <g id="Group_37327" data-name="Group 37327" transform="translate(57.912 15.27)">
          <path id="Path_38560" data-name="Path 38560" d="M1513.017,490.919c-1.016,9.745,4.8,19.177,14.3,20.135s19.086-6.922,20.1-16.669a17.293,17.293,0,1,0-34.4-3.466Z" transform="translate(-1512.902 -474.92)" fill="#fff"/>
        </g>
        <g id="Group_37328" data-name="Group 37328" transform="translate(57.513 14.873)">
          <path id="Path_38561" data-name="Path 38561" d="M1526.92,509.577c9.165,0,17.958-7.758,18.932-17.1a18.17,18.17,0,0,0-3.968-13.454,17.306,17.306,0,0,0-11.75-6.361,18.01,18.01,0,0,0-19.473,16.267h0a20.265,20.265,0,0,0,4.178,14.842,15.271,15.271,0,0,0,10.476,5.729A15.936,15.936,0,0,0,1526.92,509.577Zm1.471-36.21a16.229,16.229,0,0,1,1.663.085,16.516,16.516,0,0,1,11.214,6.071,17.376,17.376,0,0,1,3.794,12.87c-.987,9.476-10.354,17.253-19.666,16.314a14.5,14.5,0,0,1-9.941-5.44,19.464,19.464,0,0,1-4-14.258h0A17.275,17.275,0,0,1,1528.39,473.367Z" transform="translate(-1510.543 -472.572)" stroke="#000" stroke-width="1"/>
        </g>
        <g id="Group_37329" data-name="Group 37329" transform="translate(87.166 33.503)">
          <path id="Path_38562" data-name="Path 38562" d="M1491.579,588.165a5.4,5.4,0,0,1-10.777-.6,5.029,5.029,0,0,1,.4-1.7,5.471,5.471,0,0,1,9.938-.032A4.925,4.925,0,0,1,1491.579,588.165Z" transform="translate(-1480.794 -582.669)" fill="#fff"/>
        </g>
        <g id="Group_37330" data-name="Group 37330" transform="translate(87.179 33.103)">
          <path id="Path_38563" data-name="Path 38563" d="M1483.852,591.505a5.7,5.7,0,0,0,5.76-5.283,5.384,5.384,0,0,0-.472-2.518,5.838,5.838,0,0,0-5-3.389,5.777,5.777,0,0,0-5.663,3.432.4.4,0,1,0,.731.311,5.074,5.074,0,0,1,9.209-.029,4.581,4.581,0,0,1,.4,2.149,4.925,4.925,0,0,1-5.258,4.523,5.124,5.124,0,0,1-3.11-1.272.4.4,0,1,0-.526.594,5.911,5.911,0,0,0,3.594,1.47C1483.628,591.5,1483.74,591.505,1483.852,591.505Z" transform="translate(-1478.442 -580.306)" stroke="#000" stroke-width="1"/>
        </g>
        <g id="Group_37331" data-name="Group 37331" transform="translate(73.757 9.741)">
          <path id="Path_38564" data-name="Path 38564" d="M1488.1,465.864a9.657,9.657,0,0,0-5.269,3.682s-11.649-1.973-13.378-11.4,7.134-18.106,16.033-15.4,4.444,11.588,4.444,11.588,5.3.657,5.457,6.1-3.376,7.146-3.376,7.146A5.082,5.082,0,0,0,1488.1,465.864Z" transform="translate(-1469.24 -442.245)"/>
        </g>
        <g id="Group_37332" data-name="Group 37332" transform="translate(55.75)">
          <ellipse id="Ellipse_72" data-name="Ellipse 72" cx="13.334" cy="12.86" rx="13.334" ry="12.86" transform="translate(26.627 27.158) rotate(-176.824)"/>
        </g>
        <g id="Group_37333" data-name="Group 37333" transform="translate(69.595 32.413)">
          <ellipse id="Ellipse_73" data-name="Ellipse 73" cx="1.245" cy="1.668" rx="1.245" ry="1.668" transform="translate(2.453 3.72) rotate(-169.973)"/>
        </g>
        <g id="Group_37334" data-name="Group 37334" transform="translate(69.836 30.022)">
          <path id="Path_38565" data-name="Path 38565" d="M1628.962,564.224a.408.408,0,0,0,.154-.03.4.4,0,0,0,.212-.519,2.544,2.544,0,0,0-1.509-1.421,2.33,2.33,0,0,0-1.838.069.4.4,0,0,0,.369.7,1.559,1.559,0,0,1,1.2-.025,1.765,1.765,0,0,1,1.044.981A.4.4,0,0,0,1628.962,564.224Z" transform="translate(-1625.767 -562.098)" stroke="#000" stroke-width="1"/>
        </g>
        <g id="Group_37335" data-name="Group 37335" transform="translate(60.691 29.167)">
          <ellipse id="Ellipse_74" data-name="Ellipse 74" cx="1.245" cy="1.668" rx="1.245" ry="1.668" transform="translate(2.453 3.72) rotate(-169.973)"/>
        </g>
        <g id="Group_37336" data-name="Group 37336" transform="translate(60.931 26.776)">
          <path id="Path_38566" data-name="Path 38566" d="M1681.592,545.044a.411.411,0,0,0,.154-.031.4.4,0,0,0,.212-.52,2.549,2.549,0,0,0-1.51-1.421,2.33,2.33,0,0,0-1.838.069.4.4,0,1,0,.369.7,1.557,1.557,0,0,1,1.2-.025,1.768,1.768,0,0,1,1.046.983A.4.4,0,0,0,1681.592,545.044Z" transform="translate(-1678.397 -542.918)" stroke="#000" stroke-width="1"/>
        </g>
        <g id="Group_37337" data-name="Group 37337" transform="translate(61.936 29.004)">
          <path id="Path_38567" data-name="Path 38567" d="M1666.695,568.534a.4.4,0,0,0,.115-.777c-1.452-.445-3.838-1.5-4.053-2.448-.034-.149-.037-.386.325-.719,2.212-2.036,4.134-7.743,4.215-7.985a.4.4,0,1,0-.753-.252c-.018.057-1.938,5.755-4,7.652a1.5,1.5,0,0,0-.562,1.48c.386,1.7,4.164,2.9,4.594,3.031A.376.376,0,0,0,1666.695,568.534Z" transform="translate(-1661.948 -556.082)" stroke="#000" stroke-width="1"/>
        </g>
        <g id="Group_37338" data-name="Group 37338" transform="translate(69.006 43.889)">
          <path id="Path_38568" data-name="Path 38568" d="M1624,645.657a5.468,5.468,0,0,0,2.394-.614.4.4,0,1,0-.349-.714c-2.563,1.247-3.831-.091-3.883-.149a.4.4,0,0,0-.594.528A3.323,3.323,0,0,0,1624,645.657Z" transform="translate(-1621.472 -644.049)" stroke="#000" stroke-width="1"/>
        </g>
        <g id="Group_37339" data-name="Group 37339" transform="translate(203.085 119.869)">
          <path id="Path_38569" data-name="Path 38569" d="M578.639,1023.037l-7.678,9.187s-2.97,4.729-3.822,6.016a2.984,2.984,0,0,1-.224.32c-.012,0-.15-.065-.4-.184-.358-.173-.947-.459-1.7-.834-5.558-2.73-20.515-10.164-20.515-10.164l1.659-6.48c7.574-.11,17.493,7.189,17.493,7.189,3.029-4.793,7.145-9.312,9.458-10.829.852-.559,1.526.962,1.526.962a15.316,15.316,0,0,0-3.456,3.545,38.19,38.19,0,0,1,4.233-2.778A17.714,17.714,0,0,1,578.639,1023.037Z" transform="translate(-544.3 -1017.134)" fill="#fff" stroke="#000" stroke-width="2"/>
        </g>
        <g id="Group_37340" data-name="Group 37340" transform="translate(222.237 119.869)">
          <path id="Path_38570" data-name="Path 38570" d="M559.487,1023.037l-7.678,9.187s-2.97,4.729-3.822,6.016l-.62.136-1.538.331-.166-1.166-1.363-9.455c3.029-4.793,7.145-9.312,9.458-10.829.852-.559,1.526.962,1.526.962a15.321,15.321,0,0,0-3.456,3.545,38.2,38.2,0,0,1,4.233-2.778A17.714,17.714,0,0,1,559.487,1023.037Z" transform="translate(-544.3 -1017.134)" fill="#fff" stroke="#000" stroke-width="2"/>
        </g>
        <g id="Group_37341" data-name="Group 37341" transform="translate(197.539 125.743)">
          <path id="Path_38571" data-name="Path 38571" d="M552.192,1055.578s-9.092-1.885-16.514,10.6L530.46,1092.9s5.521-7.943,13.317-8.8Z" transform="translate(-510.187 -1055.477)" fill="#c16cf9" stroke="#000" stroke-width="2"/>
          <path id="Path_38572" data-name="Path 38572" d="M663.759,1080.57a26.7,26.7,0,0,0-21.283-8.022l-4.207,27.962a30.15,30.15,0,0,1,20.272,6.788Z" transform="translate(-638.27 -1069.874)" fill="#c16cf9" stroke="#000" stroke-width="2"/>
        </g>
        <g id="Group_37345" data-name="Group 37345" transform="translate(134.161 13.843)">
          <path id="Path_38581" data-name="Path 38581" d="M1103.971,488.049c5.32,0,9.49-11.563,9.49-26.324s-4.168-26.324-9.49-26.324-9.49,11.563-9.49,26.324S1098.649,488.049,1103.971,488.049Zm0-51.932c4.753,0,8.77,11.725,8.77,25.606s-4.017,25.606-8.77,25.606-8.771-11.727-8.771-25.606S1099.217,436.117,1103.971,436.117Z" transform="translate(-1094.48 -435.4)"/>
        </g>
        <g id="Group_37346" data-name="Group 37346" transform="translate(121.364 24.73)">
          <path id="Path_38582" data-name="Path 38582" d="M1056.843,538.344a11.294,11.294,0,0,0,2.909-.343,5.07,5.07,0,0,0,3.376-2.442c2.648-4.986-4.487-14.673-16.243-22.053-8.6-5.4-17.384-8.026-22.377-6.691a5.074,5.074,0,0,0-3.376,2.442c-2.649,4.986,4.485,14.672,16.241,22.053C1044.488,535.775,1051.728,538.344,1056.843,538.344ZM1027.369,507.2c4.962,0,12.206,2.569,19.135,6.918,11.247,7.061,18.42,16.529,15.989,21.107a4.385,4.385,0,0,1-2.927,2.085c-4.734,1.265-13.5-1.389-21.81-6.606-11.247-7.061-18.42-16.529-15.989-21.107a4.386,4.386,0,0,1,2.928-2.085A10.461,10.461,0,0,1,1027.369,507.2Z" transform="translate(-1020.581 -506.471)" stroke="#000" stroke-width="1"/>
        </g>
        <g id="Group_37347" data-name="Group 37347" transform="translate(121.334 23.785)">
          <path id="Path_38583" data-name="Path 38583" d="M1027.612,532.174c5.117,0,12.355-2.569,19.468-7.034,11.756-7.379,18.89-17.067,16.243-22.054a5.072,5.072,0,0,0-3.378-2.442c-4.995-1.334-13.778,1.293-22.377,6.691-11.756,7.379-18.89,17.067-16.243,22.053a5.073,5.073,0,0,0,3.378,2.442A11.3,11.3,0,0,0,1027.612,532.174Zm29.475-31.147a10.44,10.44,0,0,1,2.673.312,4.384,4.384,0,0,1,2.927,2.085c2.43,4.577-4.743,14.046-15.988,21.107-8.309,5.216-17.072,7.871-21.81,6.606a4.385,4.385,0,0,1-2.928-2.085c-2.43-4.577,4.743-14.046,15.989-21.107C1044.88,503.6,1052.126,501.027,1057.088,501.027Z" transform="translate(-1020.774 -500.301)" stroke="#000" stroke-width="1"/>
        </g>
        <g id="Group_37348" data-name="Group 37348" transform="translate(134.161 13.843)">
          <path id="Path_38584" data-name="Path 38584" d="M1103.971,488.049c5.32,0,9.49-11.563,9.49-26.324s-4.168-26.324-9.49-26.324-9.49,11.563-9.49,26.324S1098.649,488.049,1103.971,488.049Zm0-51.932c4.753,0,8.77,11.725,8.77,25.606s-4.017,25.606-8.77,25.606-8.771-11.727-8.771-25.606S1099.217,436.117,1103.971,436.117Z" transform="translate(-1094.48 -435.4)" stroke="#000" stroke-width="1"/>
        </g>
        <g id="Group_37349" data-name="Group 37349" transform="translate(139.234 36.196)">
          <ellipse id="Ellipse_76" data-name="Ellipse 76" cx="3.651" cy="3.969" rx="3.651" ry="3.969" transform="translate(0)" fill="#ed85c0"/>
        </g>
        <g id="Group_37350" data-name="Group 37350" transform="translate(119.958 24.927)">
          <ellipse id="Ellipse_77" data-name="Ellipse 77" cx="2.888" cy="3.14" rx="2.888" ry="3.14" transform="translate(0)" fill="#80d4ec"/>
        </g>
        <g id="Group_37351" data-name="Group 37351" transform="translate(144.523 60.085)">
          <ellipse id="Ellipse_78" data-name="Ellipse 78" cx="2.888" cy="3.14" rx="2.888" ry="3.14" transform="translate(0)" fill="#f6d854"/>
        </g>
        <g id="Group_37352" data-name="Group 37352" transform="translate(160.789 25.29)">
          <ellipse id="Ellipse_79" data-name="Ellipse 79" cx="2.888" cy="3.14" rx="2.888" ry="3.14" transform="translate(0)" fill="#a4e3db"/>
        </g>
      </g>
    </g>
  </g>
</svg>
