<svg xmlns="http://www.w3.org/2000/svg" width="161.096" height="182.699" viewBox="0 0 161.096 182.699">
  <g id="Group_37754" data-name="Group 37754" transform="translate(-227.311 -4296.447)">
    <g id="bookmark" transform="translate(7473.744 4320.92) rotate(9)">
      <path id="Path_38268" data-name="Path 38268" d="M1281.469,308.565v96.972a12.746,12.746,0,0,1-12.745,12.745h-93.669a12.746,12.746,0,0,1-12.745-12.745V308.565a12.746,12.746,0,0,1,12.745-12.745h93.669A12.747,12.747,0,0,1,1281.469,308.565Z" transform="translate(-8285.173 808.484)" fill="#fff"/>
      <path id="Path_38269" data-name="Path 38269" d="M1375.284,818.068h-94.505a1.179,1.179,0,0,1-1.179-1.179v-14.8a1.179,1.179,0,0,1,1.179-1.179h94.505a1.18,1.18,0,0,1,1.179,1.179v14.8A1.18,1.18,0,0,1,1375.284,818.068Zm0,26.261h-94.505a1.179,1.179,0,0,1-1.179-1.179v-14.8a1.179,1.179,0,0,1,1.179-1.179h94.505a1.18,1.18,0,0,1,1.179,1.179v14.8A1.18,1.18,0,0,1,1375.284,844.329Z" transform="translate(-8388.605 363.07)" fill="#ecedeb"/>
      <path id="Path_38270" data-name="Path 38270" d="M1266.458,416.32h-93.669a13.063,13.063,0,0,1-13.048-13.049V306.3a13.064,13.064,0,0,1,13.048-13.049h93.669a13.063,13.063,0,0,1,13.048,13.049v96.972A13.062,13.062,0,0,1,1266.458,416.32Zm-93.669-122.461a12.454,12.454,0,0,0-12.44,12.44v96.972a12.454,12.454,0,0,0,12.44,12.44h93.669a12.454,12.454,0,0,0,12.44-12.44V306.3a12.455,12.455,0,0,0-12.44-12.44Z" transform="translate(-8282.907 810.75)" stroke="#000" stroke-width="1"/>
      <ellipse id="Ellipse_23" data-name="Ellipse 23" cx="1.705" cy="1.705" rx="1.705" ry="1.705" transform="translate(-7114.654 1112.12)"/>
      <ellipse id="Ellipse_24" data-name="Ellipse 24" cx="1.705" cy="1.705" rx="1.705" ry="1.705" transform="translate(-7109.005 1112.12)"/>
      <ellipse id="Ellipse_25" data-name="Ellipse 25" cx="1.705" cy="1.705" rx="1.705" ry="1.705" transform="translate(-7103.356 1112.12)"/>
      <path id="Path_38271" data-name="Path 38271" d="M1376.372,554.9H1261.839a1.179,1.179,0,0,1-1.179-1.179V532.139a1.179,1.179,0,0,1,1.179-1.179h114.533a1.179,1.179,0,0,1,1.179,1.179v21.577A1.179,1.179,0,0,1,1376.372,554.9Z" transform="translate(-8371.903 601.125)" fill="#fea300"/>
      <g id="Group_37190" data-name="Group 37190" transform="translate(-7074.693 1139.094)">
        <path id="Path_38295" data-name="Path 38295" d="M1638.176,590.89h-67.861a.3.3,0,1,1,0-.61h67.861a.3.3,0,0,1,0,.61Zm0,4.654h-67.861a.3.3,0,1,1,0-.61h67.861a.3.3,0,1,1,0,.61Zm0,4.653h-49.248a.3.3,0,0,1,0-.61h49.248a.3.3,0,1,1,0,.61Z" transform="translate(-1570.01 -590.28)" stroke="#191919" stroke-width="1"/>
      </g>
      <g id="Group_37191" data-name="Group 37191" transform="translate(-7103.356 1134.993)">
        <path id="Path_38296" data-name="Path 38296" d="M1336.074,555.57l2.677,5.426,5.988.87-4.333,4.223,1.023,5.963-5.356-2.816-5.355,2.816,1.023-5.963-4.333-4.223,5.986-.87Z" transform="translate(-1327.41 -555.57)" fill="#fff"/>
      </g>
      <g id="Group_37208" data-name="Group 37208" transform="translate(-7099.274 1168.443)">
        <path id="Path_38312" data-name="Path 38312" d="M1439.057,839.29h-76.792a.3.3,0,1,1,0-.61h76.792a.3.3,0,1,1,0,.61Zm0,3.81h-76.792a.3.3,0,1,1,0-.61h76.792a.3.3,0,1,1,0,.61Zm-35.522,3.81h-41.27a.3.3,0,0,1,0-.61h41.27a.3.3,0,0,1,0,.61Z" transform="translate(-1361.96 -838.68)" fill="#d3d3d3" stroke="#d3d3d3" stroke-width="1"/>
      </g>
      <g id="Group_37209" data-name="Group 37209" transform="translate(-7099.274 1195.327)">
        <path id="Path_38313" data-name="Path 38313" d="M1439.057,1066.83h-76.792a.3.3,0,0,1,0-.61h76.792a.3.3,0,1,1,0,.61Zm0,3.81h-76.792a.3.3,0,1,1,0-.61h76.792a.3.3,0,1,1,0,.61Zm-35.522,3.81h-41.27a.3.3,0,1,1,0-.609h41.27a.3.3,0,0,1,0,.609Z" transform="translate(-1361.96 -1066.22)" fill="#d3d3d3" stroke="#d3d3d3" stroke-width="1"/>
      </g>
      <g id="Group_37210" data-name="Group 37210" transform="translate(-7069.699 1201.92)">
        <path id="Path_38314" data-name="Path 38314" d="M1655.1,1188.821l-18.708-15.558-24.114,3.25,15.661-54.494,42.823,12.307Z" transform="translate(-1612.28 -1122.02)" fill="#f6d854" stroke="#060606" stroke-width="2"/>
      </g>
      <g id="Group_37211" data-name="Group 37211" transform="translate(-7051.44 1218.28)">
        <path id="Path_38315" data-name="Path 38315" d="M1782.474,1260.49l1.911,9.3,8.743,3.7-8.254,4.689-.815,9.459-7.011-6.4-9.248,2.147,3.92-8.646-4.9-8.131,9.434,1.056Z" transform="translate(-1766.82 -1260.49)" fill="#fff"/>
      </g>
      <g id="Group_37212" data-name="Group 37212" transform="translate(-7137.434 1207.293)">
        <path id="Path_38316" data-name="Path 38316" d="M1075.862,1215.7a26.124,26.124,0,0,1-7.236-.989,21.207,21.207,0,0,1-14.149-12.974,11.115,11.115,0,0,1-2.673-.418c-5.71-1.6-10.44-7.2-12.049-14.273-1.456-6.4-.529-13.247.288-19.286a.3.3,0,0,1,.6.082c-.851,6.281-1.73,12.776-.3,19.07,1.561,6.86,6.121,12.286,11.62,13.823a10.587,10.587,0,0,0,2.312.388,15.914,15.914,0,0,1-.546-2.59c-.276-2.231.2-5.168,2.449-6.106a3.432,3.432,0,0,1,2.989.252,4.166,4.166,0,0,1,2.095,2.868,5.4,5.4,0,0,1-3.086,5.441,7.528,7.528,0,0,1-3.065.747,20.619,20.619,0,0,0,13.675,12.394c5.512,1.586,11.809,1.214,18.213-1.076a.3.3,0,1,1,.2.573A33.865,33.865,0,0,1,1075.862,1215.7Zm-18.487-22.9a2.476,2.476,0,0,0-.957.187c-1.935.806-2.329,3.45-2.079,5.469a15.471,15.471,0,0,0,.58,2.675,7,7,0,0,0,2.993-.689,4.784,4.784,0,0,0,2.757-4.8,3.545,3.545,0,0,0-1.79-2.434A3.09,3.09,0,0,0,1057.375,1192.8Z" transform="translate(-1038.992 -1167.499)" stroke="#000" stroke-width="1"/>
      </g>
      <g id="Group_37213" data-name="Group 37213" transform="translate(-7093.125 1249.801)">
        <path id="Path_38317" data-name="Path 38317" d="M1416.931,1534.2l-.247-2.966a.675.675,0,0,0-.165-.387l-2.336-2.643c-.331-.375-.144-.957.3-.931l7.64.448a.624.624,0,0,1,.43.964l-4.726,5.936C1417.544,1534.975,1416.974,1534.707,1416.931,1534.2Z" transform="translate(-1414.015 -1527.273)"/>
      </g>
    </g>
  </g>
</svg>
