<svg xmlns="http://www.w3.org/2000/svg" xmlns:xlink="http://www.w3.org/1999/xlink" width="318" height="283" viewBox="0 0 318 283">
  <defs>
    <clipPath id="clip-path">
      <rect id="Rectangle_2995" data-name="Rectangle 2995" width="318" height="283" transform="translate(-3751 -1274)" fill="#fff"/>
    </clipPath>
  </defs>
  <g id="Mask_Group_26" data-name="Mask Group 26" transform="translate(3751 1274)" clip-path="url(#clip-path)">
    <g id="Group_37746" data-name="Group 37746" transform="translate(-3758 -1860)">
      <line id="Line_76" data-name="Line 76" x2="326.5" transform="translate(-23.5 737.939)" fill="none" stroke="#000" stroke-width="2"/>
      <g id="Group_37695" data-name="Group 37695" transform="translate(42 588.227)">
        <g id="Group_37694" data-name="Group 37694" transform="translate(0 0)">
          <g id="developer-working-on-project" transform="translate(0)">
            <path id="Path_38491" data-name="Path 38491" d="M0,0H72.194V102.35H0Z" transform="translate(209.846)" fill="#fea300" stroke="#000" stroke-width="2"/>
            <rect id="Rectangle_2499" data-name="Rectangle 2499" width="3.878" height="2.173" transform="translate(216.04 7.159)" fill="#fff"/>
            <rect id="Rectangle_2500" data-name="Rectangle 2500" width="51.481" height="2.173" transform="translate(225.25 7.159)" fill="#fff"/>
            <rect id="Rectangle_2501" data-name="Rectangle 2501" width="3.878" height="2.173" transform="translate(216.04 13.764)" fill="#fff"/>
            <rect id="Rectangle_2502" data-name="Rectangle 2502" width="5.565" height="2.173" transform="translate(225.25 13.764)" fill="#fff"/>
            <rect id="Rectangle_2503" data-name="Rectangle 2503" width="12.873" height="2.173" transform="translate(240.237 13.764)" fill="#fff"/>
            <rect id="Rectangle_2504" data-name="Rectangle 2504" width="18.978" height="2.173" transform="translate(257.755 13.764)" fill="#fff"/>
            <rect id="Rectangle_2505" data-name="Rectangle 2505" width="3.878" height="2.173" transform="translate(216.04 20.368)" fill="#fff"/>
            <rect id="Rectangle_2506" data-name="Rectangle 2506" width="22.418" height="2.173" transform="translate(225.25 20.368)" fill="#fff"/>
            <rect id="Rectangle_2507" data-name="Rectangle 2507" width="23.489" height="2.173" transform="translate(253.242 20.368)" fill="#fff"/>
            <rect id="Rectangle_2508" data-name="Rectangle 2508" width="3.878" height="2.173" transform="translate(216.04 26.973)" fill="#fff"/>
            <rect id="Rectangle_2509" data-name="Rectangle 2509" width="9.158" height="2.173" transform="translate(267.575 26.973)" fill="#fff"/>
            <rect id="Rectangle_2510" data-name="Rectangle 2510" width="22.418" height="2.173" transform="translate(225.25 26.973)" fill="#fff"/>
            <rect id="Rectangle_2511" data-name="Rectangle 2511" width="3.878" height="2.173" transform="translate(216.04 33.577)" fill="#fff"/>
            <rect id="Rectangle_2512" data-name="Rectangle 2512" width="34.637" height="2.173" transform="translate(242.095 33.577)" fill="#fff"/>
            <rect id="Rectangle_2513" data-name="Rectangle 2513" width="9.148" height="2.173" transform="translate(225.25 33.577)" fill="#fff"/>
            <rect id="Rectangle_2514" data-name="Rectangle 2514" width="3.878" height="2.173" transform="translate(216.04 40.182)" fill="#fff"/>
            <rect id="Rectangle_2515" data-name="Rectangle 2515" width="19.897" height="2.173" transform="translate(225.25 40.182)" fill="#fff"/>
            <rect id="Rectangle_2516" data-name="Rectangle 2516" width="28.002" height="2.173" transform="translate(248.731 40.182)" fill="#fff"/>
            <rect id="Rectangle_2517" data-name="Rectangle 2517" width="3.878" height="2.173" transform="translate(216.04 46.786)" fill="#fff"/>
            <rect id="Rectangle_2518" data-name="Rectangle 2518" width="37.69" height="2.173" transform="translate(239.042 46.786)" fill="#fff"/>
            <rect id="Rectangle_2519" data-name="Rectangle 2519" width="3.878" height="2.173" transform="translate(216.04 53.392)" fill="#fff"/>
            <rect id="Rectangle_2520" data-name="Rectangle 2520" width="13.262" height="2.173" transform="translate(225.25 53.392)" fill="#fff"/>
            <rect id="Rectangle_2521" data-name="Rectangle 2521" width="11.412" height="2.173" transform="translate(243.422 53.392)" fill="#fff"/>
            <rect id="Rectangle_2522" data-name="Rectangle 2522" width="11.943" height="2.173" transform="translate(264.788 53.392)" fill="#fff"/>
            <rect id="Rectangle_2523" data-name="Rectangle 2523" width="3.878" height="2.173" transform="translate(216.04 59.997)" fill="#fff"/>
            <rect id="Rectangle_2524" data-name="Rectangle 2524" width="40.874" height="2.173" transform="translate(235.858 59.997)" fill="#fff"/>
            <rect id="Rectangle_2525" data-name="Rectangle 2525" width="3.878" height="2.173" transform="translate(216.04 66.601)" fill="#fff"/>
            <rect id="Rectangle_2526" data-name="Rectangle 2526" width="24.816" height="2.173" transform="translate(251.915 66.601)" fill="#fff"/>
            <rect id="Rectangle_2527" data-name="Rectangle 2527" width="3.878" height="2.173" transform="translate(216.04 73.206)" fill="#fff"/>
            <rect id="Rectangle_2528" data-name="Rectangle 2528" width="51.481" height="2.173" transform="translate(225.25 73.206)" fill="#fff"/>
            <rect id="Rectangle_2529" data-name="Rectangle 2529" width="3.878" height="2.173" transform="translate(216.04 79.81)" fill="#fff"/>
            <rect id="Rectangle_2530" data-name="Rectangle 2530" width="5.962" height="2.173" transform="translate(225.25 79.81)" fill="#fff"/>
            <rect id="Rectangle_2531" data-name="Rectangle 2531" width="33.973" height="2.173" transform="translate(242.758 79.81)" fill="#fff"/>
            <rect id="Rectangle_2532" data-name="Rectangle 2532" width="3.878" height="2.173" transform="translate(216.04 86.415)" fill="#fff"/>
            <rect id="Rectangle_2533" data-name="Rectangle 2533" width="27.461" height="2.173" transform="translate(225.25 86.415)" fill="#fff"/>
            <rect id="Rectangle_2534" data-name="Rectangle 2534" width="11.546" height="2.173" transform="translate(265.187 86.415)" fill="#fff"/>
            <rect id="Rectangle_2535" data-name="Rectangle 2535" width="3.878" height="2.173" transform="translate(216.04 93.019)" fill="#fff"/>
            <rect id="Rectangle_2536" data-name="Rectangle 2536" width="9.81" height="2.173" transform="translate(225.25 93.019)" fill="#fff"/>
            <rect id="Rectangle_2537" data-name="Rectangle 2537" width="15.129" height="2.173" transform="translate(242.626 93.019)" fill="#fff"/>
            <g id="Group_37240" data-name="Group 37240" transform="translate(0 31.26)">
              <path id="Path_38318" data-name="Path 38318" d="M1109.351,1889.185l-1.915-13.205-17.5,1.628L1094,1898.5Z" transform="translate(-953.198 -1666.75)" fill="#fff" stroke="#000" stroke-width="2"/>
              <path id="Path_38319" data-name="Path 38319" d="M1136.353,1935.522l.3,2.05a3.028,3.028,0,0,1-2.611,3.413l-33.231,4.648a3.069,3.069,0,0,1-3.4-2.2l-.646-2.368-3.819-13.969a1.6,1.6,0,0,1,1.34-1.992l12.337-1.725-.37-3.366a4.564,4.564,0,0,1,7.23-4.348,4.448,4.448,0,0,1,1.778,2.952s-.28,3.232.524,4.438c1.731,2.6,10.418.831,15.317,3.382C1135.564,1928.752,1136.353,1935.522,1136.353,1935.522Z" transform="translate(-955.665 -1699.333)" fill="#c16cf9" stroke="#000" stroke-width="2"/>
              <path id="Path_38321" data-name="Path 38321" d="M1156.271,1987.5l.3,2.05a3.027,3.027,0,0,1-2.609,3.414l-33.233,4.649a3.073,3.073,0,0,1-3.4-2.205l-.646-2.37Z" transform="translate(-975.585 -1751.315)"/>
              <g id="Group_37214" data-name="Group 37214" transform="translate(71.886 210.11)">
                <path id="Path_38322" data-name="Path 38322" d="M724.013,1897.14l1.236-13.282-17.407-2.378-.952,21.251Z" transform="translate(-704.395 -1881.48)" fill="#fff" stroke="#000" stroke-width="2"/>
                <path id="Path_38323" data-name="Path 38323" d="M731.832,1960.632l-.192,2.061c-.155,1.658-1.336,1.3-3.027,1.146l-33.741-1.418a3.039,3.039,0,0,1-2.792-2.915l-.073-2.452-.44-14.458a1.613,1.613,0,0,1,1.773-1.636l12.41,1.115.43-3.358a4.666,4.666,0,0,1,4.956-4.186,4.58,4.58,0,0,1,3.1,1.593,4.41,4.41,0,0,1,1.037,3.275s-1.031,3.081-.531,4.438c1.074,2.922,10.731,2.194,14.9,5.786C733.443,1952.894,731.832,1960.632,731.832,1960.632Z" transform="translate(-691.566 -1926.033)" fill="#c16cf9" stroke="#000" stroke-width="2"/>
                <path id="Path_38325" data-name="Path 38325" d="M734.086,2019.049l-.192,2.061a3.057,3.057,0,0,1-3.341,2.731l-33.428-3a3.043,3.043,0,0,1-2.792-2.915l-.073-2.452Z" transform="translate(-693.821 -1984.452)"/>
              </g>
              <g id="Group_37239" data-name="Group 37239" transform="translate(0 0)">
                <path id="Path_38326" data-name="Path 38326" d="M727.96,1305.382H506.26a.766.766,0,1,1,0-1.532h221.7a.766.766,0,1,1,0,1.532Z" transform="translate(-463.889 -1186.112)"/>
                <path id="Path_38327" data-name="Path 38327" d="M667.047,1433.946l-6.838-129.123c-.023-.422.194.023.626,0s.909-.5.932-.08l6.52,123.593c.023.422.43,5.816,0,5.839l-.273-.229ZM443.332,1434c-.057,0-.447.013-.505,0-.42-.093-.283.413-.189,0l20.007-89.012a.78.78,0,0,1,.931-.578.764.764,0,0,1,.589.914l-20.182,89.017C443.9,1434.695,443.689,1434,443.332,1434Z" transform="translate(-411.407 -1186.278)" stroke="#000" stroke-width="1"/>
                <path id="Path_38328" data-name="Path 38328" d="M1323.816,1168.989H1280.81l1.169-3.854a3.472,3.472,0,0,1,3.025-1.823h4.111l4.871-19.973.161-.659h16.331l2.084,8.531,2.952,12.1h4.1a3.486,3.486,0,0,1,3.03,1.818Z" transform="translate(-1112.994 -1050.715)" fill="#fff"/>
                <path id="Path_38329" data-name="Path 38329" d="M1361.74,1143.339l.161-.659h16.332Z" transform="translate(-1180.749 -1050.715)"/>
                <path id="Path_38330" data-name="Path 38330" d="M1321.82,1167.357h-43.005a.393.393,0,0,1-.313-.154.382.382,0,0,1-.062-.337l1.166-3.854a.422.422,0,0,1,.031-.075,3.883,3.883,0,0,1,3.37-2.025h3.8l4.962-20.338a.388.388,0,0,1,.379-.294h16.332a.389.389,0,0,1,.379.294l4.963,20.338h3.8a3.889,3.889,0,0,1,3.37,2.018.439.439,0,0,1,.032.075l1.171,3.859a.375.375,0,0,1-.062.339A.388.388,0,0,1,1321.82,1167.357Zm-42.483-.766h41.96l-1.009-3.326a3.1,3.1,0,0,0-2.667-1.586h-4.1a.389.389,0,0,1-.379-.294l-4.962-20.338h-15.717l-4.962,20.338a.389.389,0,0,1-.379.294h-4.109a3.1,3.1,0,0,0-2.667,1.591Z" transform="translate(-1110.997 -1048.699)" stroke="#000" stroke-width="1"/>
                <path id="Path_38331" data-name="Path 38331" d="M1159.839,716.389v55.332a8.115,8.115,0,0,1-8.184,8.044H1048.524a8.115,8.115,0,0,1-8.184-8.044V716.389a8.114,8.114,0,0,1,8.184-8.039h103.131A8.113,8.113,0,0,1,1159.839,716.389Z" transform="translate(-911.673 -685.841)" fill="#fff"/>
                <path id="Path_38332" data-name="Path 38332" d="M1040.33,1093.89v1.718a8.115,8.115,0,0,0,8.184,8.043h103.131a8.115,8.115,0,0,0,8.184-8.043v-1.718Z" transform="translate(-911.664 -1009.727)"/>
                <path id="Path_38333" data-name="Path 38333" d="M1149.635,778.132H1046.5a8.512,8.512,0,0,1-8.575-8.428V714.373a8.51,8.51,0,0,1,8.575-8.423h103.131a8.51,8.51,0,0,1,8.575,8.423V769.7A8.512,8.512,0,0,1,1149.635,778.132Zm-103.129-71.416a7.736,7.736,0,0,0-7.795,7.657V769.7a7.738,7.738,0,0,0,7.795,7.662h103.131a7.738,7.738,0,0,0,7.8-7.662V714.373a7.736,7.736,0,0,0-7.8-7.657Z" transform="translate(-909.655 -683.824)" stroke="#000" stroke-width="1"/>
                <path id="Path_38334" data-name="Path 38334" d="M669,1356.691l51.087-1.993a19.925,19.925,0,0,1,20.037,14.389c7.57,27.011,20.772,66.7,20.308,68.4-1.46,5.364-20.662,9.742-26.856,6.919-4.213-1.92-19.5-61.878-19.5-61.878H678.015Z" transform="translate(-600.787 -1228.815)" fill="#80d4ec" stroke="#000" stroke-width="2"/>
                <path id="Path_38335" data-name="Path 38335" d="M1042.6,1819.835a39.475,39.475,0,0,1-4.8-.293.383.383,0,1,1,.1-.759,40.959,40.959,0,0,0,28.334-7.411.394.394,0,0,1,.544.088.378.378,0,0,1-.09.534A42.388,42.388,0,0,1,1042.6,1819.835Z" transform="translate(-909.263 -1612.413)" stroke="#000" stroke-width="1"/>
                <path id="Path_38336" data-name="Path 38336" d="M721.1,1420.425s-6.86,59.712-9.432,61.52c-4.275,3-26.875,1.156-28.163-.732s8.515-60.389,8.515-60.389Z" transform="translate(-613.293 -1267.058)" fill="#80d4ec" stroke="#000" stroke-width="2"/>
                <path id="Path_38337" data-name="Path 38337" d="M649.331,1386.4a38.622,38.622,0,0,1-16.531-3.476c-.2-.088-.09-.134,0-.327s.037-.48.234-.392a41.157,41.157,0,0,0,29.431,1.449.39.39,0,0,1,.488.25.379.379,0,0,1-.255.478A45.782,45.782,0,0,1,649.331,1386.4Zm.665,8.581A41.467,41.467,0,0,1,632.1,1391a.378.378,0,0,1-.18-.51.393.393,0,0,1,.521-.177,41.1,41.1,0,0,0,29.139,2.211c.207-.059-.06.157,0,.359a.628.628,0,0,1-.3.654A38.724,38.724,0,0,1,650,1394.977Zm-27.573,39.3a.718.718,0,0,0-1.267,0l.311-6.536,6.516-123.163a.779.779,0,0,1,1.555.08l-6.515,123.163C623,1428.224,622.835,1434.274,622.424,1434.274Z" transform="translate(-560.95 -1186.113)" stroke="#000" stroke-width="1"/>
                <path id="Path_38338" data-name="Path 38338" d="M524.782,1005.384a32.5,32.5,0,0,1-13.659,9.1,33.064,33.064,0,0,1-6.144,1.49c-17.812,2.559-34.362-9.547-36.972-27.04s9.714-33.758,27.528-36.321,34.362,9.547,36.972,27.04A31.565,31.565,0,0,1,524.782,1005.384Z" transform="translate(-432.225 -890.759)" fill="#ed85c0" stroke="#000" stroke-width="2"/>
                <path id="Path_38340" data-name="Path 38340" d="M1012.56,1175.505s7.873-6.78,13.091-5.344,13.49,13.2,12.287,14.414-6.24-2.809-6.24-2.809-1.983,4.709-2.991,4.39-1.495-1.74-1.495-1.74-7.215,4.317-7.735,4.637S1012.56,1175.505,1012.56,1175.505Z" transform="translate(-888.416 -1073.634)" fill="#fff"/>
                <path id="Path_38341" data-name="Path 38341" d="M1017.441,1187.418a.39.39,0,0,1-.117-.016c-.6-.178-2.992-4.807-7.121-13.761a.381.381,0,0,1,.1-.446c.327-.283,8.093-6.9,13.452-5.424,4.9,1.35,11.759,10.743,12.591,13.782.164.6.122,1.017-.131,1.27-1.224,1.236-4.789-1.254-6.36-2.463-.827,1.882-2.183,4.482-3.269,4.14a2.941,2.941,0,0,1-1.558-1.547c-1.5.9-6.9,4.133-7.346,4.4A.473.473,0,0,1,1017.441,1187.418Zm-6.408-13.828c2.147,4.644,5.573,11.783,6.47,12.976,1.335-.8,7.23-4.333,7.5-4.5a.393.393,0,0,1,.336-.032.387.387,0,0,1,.236.237c.119.345.576,1.287,1.245,1.5.41-.043,1.592-1.991,2.51-4.172a.389.389,0,0,1,.264-.226.4.4,0,0,1,.342.073c2.3,1.836,5.145,3.416,5.716,2.84h0s.109-.262-.344-1.3c-1.537-3.505-7.7-11.365-11.768-12.484C1019.061,1167.274,1012.331,1172.53,1011.034,1173.59Z" transform="translate(-886.414 -1071.613)" stroke="#000" stroke-width="1"/>
                <path id="Path_38342" data-name="Path 38342" d="M1104.1,1205.851a.4.4,0,0,1-.142-.026.383.383,0,0,1-.223-.5,9.86,9.86,0,0,0,.656-2.575c-.094-.517-2.745-2.421-5.161-3.872a.38.38,0,0,1-.13-.526.4.4,0,0,1,.536-.128c1.664,1,5.534,3.438,5.534,4.526a10.415,10.415,0,0,1-.708,2.853A.387.387,0,0,1,1104.1,1205.851Zm-4.485,2.65a.411.411,0,0,1-.122-.019.381.381,0,0,1-.249-.483l1.187-3.544a.392.392,0,0,1,.491-.244.382.382,0,0,1,.249.483l-1.187,3.544A.389.389,0,0,1,1099.615,1208.5Z" transform="translate(-960.82 -1097.335)" stroke="#000" stroke-width="1"/>
                <g id="Group_37215" data-name="Group 37215" transform="translate(74.014 80.778)">
                  <path id="Path_38343" data-name="Path 38343" d="M707.03,1090.689s11.479,29.837,26.675,30.822c19.232,1.246,32.018-11.443,32.018-11.443l-9.511-17.077s-14.335,12.1-18.128,9.559c-7.225-4.834-13.589-27.44-13.589-27.44" transform="translate(-706.64 -1074.728)" fill="#ed85c0" stroke="#000" stroke-width="2"/>
                  <path id="Path_38344" data-name="Path 38344" d="M734.323,1119.974c-.869,0-1.753-.027-2.65-.086-15.271-.99-26.541-29.842-27.013-31.07a.382.382,0,0,1,.226-.494.394.394,0,0,1,.5.222c.114.3,11.564,29.618,26.335,30.576,17.529,1.137,29.783-9.541,31.507-11.133l-9.138-16.407c-2.6,2.159-14.532,11.757-18.235,9.28-7.259-4.858-13.485-26.727-13.745-27.654a.381.381,0,0,1,.272-.47.39.39,0,0,1,.479.267c.063.224,6.408,22.526,13.434,27.225,2.909,1.946,13.731-6.222,17.654-9.534a.4.4,0,0,1,.324-.086.384.384,0,0,1,.272.193l9.511,17.077a.378.378,0,0,1-.065.453C763.872,1108.456,752.049,1119.974,734.323,1119.974Z" transform="translate(-704.634 -1072.723)"/>
                </g>
                <g id="Group_37216" data-name="Group 37216" transform="translate(78.237 158.11)">
                  <path id="Path_38345" data-name="Path 38345" d="M751.169,1644.22a.777.777,0,0,1-.76-.6l-19.817-86.382a.765.765,0,0,1,.589-.915.782.782,0,0,1,.931.579l19.818,86.383a.765.765,0,0,1-.589.915A.787.787,0,0,1,751.169,1644.22Z" transform="translate(-730.572 -1556.306)"/>
                </g>
                <g id="Group_37217" data-name="Group 37217" transform="translate(0.387 72.008)">
                  <path id="Path_38346" data-name="Path 38346" d="M329.315,1108.341H281.536a13.463,13.463,0,0,1-13.208-10.466L252.543,1026.1a6.818,6.818,0,0,1,6.751-8.22H310.4Z" transform="translate(-252.384 -1017.88)" fill="#faeba9"/>
                </g>
                <g id="Group_37218" data-name="Group 37218" transform="translate(57.416 72.009)">
                  <path id="Path_38347" data-name="Path 38347" d="M673.93,1107.641v.71H622.582l-19.9-90.46h1.747a6.878,6.878,0,0,1,6.751,5.356l16.6,75.46h37.06A9.01,9.01,0,0,1,673.93,1107.641Z" transform="translate(-602.68 -1017.89)" fill="#faeba9"/>
                </g>
                <g id="Group_37219" data-name="Group 37219" transform="translate(57.027 71.629)">
                  <path id="Path_38348" data-name="Path 38348" d="M671.929,1106.733H620.581a.382.382,0,1,1,0-.765H671.54v-.326a8.64,8.64,0,0,0-8.707-8.552h-37.06a.389.389,0,0,1-.381-.3l-16.6-75.46a6.528,6.528,0,0,0-6.37-5.053h-1.747a.382.382,0,1,1,0-.764h1.747a7.307,7.307,0,0,1,7.132,5.658l16.531,75.158h36.746a9.414,9.414,0,0,1,9.486,9.319v.71A.388.388,0,0,1,671.929,1106.733Z" transform="translate(-600.29 -1015.51)" stroke="#000" stroke-width="1"/>
                </g>
                <g id="Group_37220" data-name="Group 37220" transform="translate(0 71.626)">
                  <path id="Path_38349" data-name="Path 38349" d="M327.324,1106.717h-47.78a13.919,13.919,0,0,1-13.586-10.77l-15.785-71.773a7.042,7.042,0,0,1,1.454-6.016,7.316,7.316,0,0,1,5.678-2.667h50.117a.382.382,0,1,1,0,.764H257.3a6.535,6.535,0,0,0-5.073,2.383,6.292,6.292,0,0,0-1.3,5.375l15.785,71.773a13.14,13.14,0,0,0,12.824,10.166h47.3l-14.462-65.732a.384.384,0,0,1,.3-.456.39.39,0,0,1,.464.293l14.564,66.2a.376.376,0,0,1-.078.321A.384.384,0,0,1,327.324,1106.717Z" transform="translate(-250.006 -1015.49)" stroke="#000" stroke-width="1"/>
                </g>
                <g id="Group_37221" data-name="Group 37221" transform="translate(132.071 115.536)">
                  <path id="Path_38350" data-name="Path 38350" d="M1120.839,1288.289H1075.1a.334.334,0,0,1-.345-.323v-2.374a.334.334,0,0,1,.345-.323h45.744a.334.334,0,0,1,.345.323v2.374A.335.335,0,0,1,1120.839,1288.289Z" transform="translate(-1074.75 -1285.27)"/>
                </g>
                <g id="Group_37222" data-name="Group 37222" transform="translate(125.609 190.318)">
                  <path id="Path_38351" data-name="Path 38351" d="M1025.915,1766.832a39.537,39.537,0,0,1-4.006-.2.385.385,0,0,1-.348-.42.391.391,0,0,1,.428-.342,40.961,40.961,0,0,0,28.313-8.074.393.393,0,0,1,.546.075.377.377,0,0,1-.077.536A42.237,42.237,0,0,1,1025.915,1766.832Z" transform="translate(-1021.558 -1757.714)" stroke="#000" stroke-width="1"/>
                </g>
                <g id="Group_37223" data-name="Group 37223" transform="translate(53.303 16.385)">
                  <path id="Path_38352" data-name="Path 38352" d="M619.108,693.989a19.887,19.887,0,0,1-21.96,15,19.625,19.625,0,0,1-17.174-21.908,19.956,19.956,0,0,1,39.42-.384,22.014,22.014,0,0,1,2.812,4.259C623.043,692.846,620.926,693.647,619.108,693.989Z" transform="translate(-579.417 -670.052)" fill="#fff"/>
                  <path id="Path_38353" data-name="Path 38353" d="M597.769,707.548a21.25,21.25,0,0,1-2.67-.169,20.029,20.029,0,0,1-17.509-22.337,20.347,20.347,0,0,1,40.176-.491,21.488,21.488,0,0,1,2.8,4.262,1.961,1.961,0,0,1,.011,1.791c-.425.793-1.483,1.37-3.144,1.716A20.125,20.125,0,0,1,597.769,707.548Zm-.07-39.107a19.194,19.194,0,1,0,19.03,23.468.386.386,0,0,1,.306-.291c1.538-.29,2.523-.763,2.849-1.37a1.231,1.231,0,0,0-.036-1.128,21.056,21.056,0,0,0-2.761-4.175.374.374,0,0,1-.078-.181A19.417,19.417,0,0,0,600.222,668.6,20.1,20.1,0,0,0,597.7,668.44Z" transform="translate(-577.419 -664.855)" stroke="#000" stroke-width="1"/>
                </g>
                <g id="Group_37224" data-name="Group 37224" transform="translate(46.006 11.089)">
                  <path id="Path_38354" data-name="Path 38354" d="M549.022,660.8s2.906-5.215,2.733-8.456a36.8,36.8,0,0,0-1.28-7.028l6.548.835s2.253-1.538,1.441-2.823-6.2-3.473-6.2-3.473,10.04.476,11.233-3.181-1.079-4.644-1.079-4.644,12.967,2.3,12.327-6.9-15.306-8.979-21.918-7.3-6.813,8.575-6.813,8.575-9.6-.785-12.8,12.153C528.864,656.131,549.022,660.8,549.022,660.8Z" transform="translate(-532.594 -616.922)"/>
                </g>
                <g id="Group_37225" data-name="Group 37225" transform="translate(62.381)">
                  <ellipse id="Ellipse_37" data-name="Ellipse 37" cx="15.061" cy="14.794" rx="15.061" ry="14.794"/>
                </g>
                <g id="Group_37226" data-name="Group 37226" transform="translate(47.385 10.972)">
                  <ellipse id="Ellipse_38" data-name="Ellipse 38" cx="10.595" cy="10.407" rx="10.595" ry="10.407"/>
                </g>
                <g id="Group_37227" data-name="Group 37227" transform="translate(63.031 18.497)">
                  <ellipse id="Ellipse_39" data-name="Ellipse 39" cx="10.97" cy="10.775" rx="10.97" ry="10.775"/>
                </g>
                <g id="Group_37228" data-name="Group 37228" transform="translate(60.613 38.415)">
                  <path id="Path_38355" data-name="Path 38355" d="M629.573,801.116a5.5,5.5,0,0,1-4.814-6.139,5.612,5.612,0,0,1,9.22-3.406" transform="translate(-624.323 -789.818)" fill="#fff" stroke="#000" stroke-width="2"/>
                  <path id="Path_38356" data-name="Path 38356" d="M627.57,799.481c-.016,0-.034,0-.051,0a5.949,5.949,0,0,1-3.959-2.237,5.754,5.754,0,0,1-1.19-4.332,6,6,0,0,1,9.864-3.643.378.378,0,0,1,.034.541.4.4,0,0,1-.55.034,5.222,5.222,0,0,0-8.576,3.168,5,5,0,0,0,1.034,3.766,5.171,5.171,0,0,0,3.443,1.944.383.383,0,0,1-.049.763Z" transform="translate(-622.319 -787.8)" stroke="#000" stroke-width="2"/>
                </g>
                <g id="Group_37229" data-name="Group 37229" transform="translate(87.552 33.037)">
                  <path id="Path_39314" data-name="Path 39314" d="M1.224.008c.676,0,1.229.8,1.236,1.775S1.923,3.546,1.247,3.542.018,2.743.011,1.767.548,0,1.224.008Z" transform="translate(0 0.94) rotate(-22.942)"/>
                </g>
                <g id="Group_37230" data-name="Group 37230" transform="translate(85.757 31.572)">
                  <path id="Path_38357" data-name="Path 38357" d="M782.7,747.422s-3.085-.147-3.551,2.543" transform="translate(-778.762 -747.036)" fill="#fff" stroke="#000" stroke-width="1"/>
                  <path id="Path_38358" data-name="Path 38358" d="M777.156,748.323a.433.433,0,0,1-.065,0,.384.384,0,0,1-.319-.441,3.671,3.671,0,0,1,3.953-2.861.383.383,0,1,1-.037.764c-.114,0-2.748-.091-3.149,2.224A.387.387,0,0,1,777.156,748.323Z" transform="translate(-776.766 -745.012)" stroke="#000" stroke-width="1"/>
                </g>
                <g id="Group_37231" data-name="Group 37231" transform="translate(83.004 44.773)">
                  <path id="Path_38359" data-name="Path 38359" d="M768.435,831.036a4.525,4.525,0,0,1-6.185-1.086" transform="translate(-761.86 -829.568)" fill="#fff" stroke="#000" stroke-width="1"/>
                  <path id="Path_38360" data-name="Path 38360" d="M763.718,830.2a4.626,4.626,0,0,1-3.782-2.025.377.377,0,0,1,.078-.536.394.394,0,0,1,.545.077,4.1,4.1,0,0,0,5.654,1,.4.4,0,0,1,.542.1.381.381,0,0,1-.1.532A5.937,5.937,0,0,1,763.718,830.2Z" transform="translate(-759.858 -827.562)" stroke="#000" stroke-width="1"/>
                </g>
                <g id="Group_37232" data-name="Group 37232" transform="translate(142.645 31.61)">
                  <ellipse id="Ellipse_41" data-name="Ellipse 41" cx="1.75" cy="1.719" rx="1.75" ry="1.719"/>
                  <path id="Path_38361" data-name="Path 38361" d="M1269.956,774.394H1247.4a.382.382,0,1,1,0-.764h22.561a.382.382,0,1,1,0,.764Zm-26.541,0h-12.74a.382.382,0,1,1,0-.764h12.74a.382.382,0,1,1,0,.764Zm-18.006,0h-6.944a.382.382,0,1,1,0-.764h6.944a.382.382,0,1,1,0,.764Zm-15.7,0h-20.368a.382.382,0,1,1,0-.764h20.368a.382.382,0,1,1,0,.764Z" transform="translate(-1178.734 -772.292)"/>
                </g>
                <g id="Group_37233" data-name="Group 37233" transform="translate(142.645 37.618)">
                  <ellipse id="Ellipse_42" data-name="Ellipse 42" cx="1.75" cy="1.719" rx="1.75" ry="1.719"/>
                  <path id="Path_38362" data-name="Path 38362" d="M1269.957,811.954h-18.048a.382.382,0,1,1,0-.764h18.048a.382.382,0,1,1,0,.764Zm-25.348,0h-5.972a.382.382,0,1,1,0-.764h5.972a.382.382,0,1,1,0,.764Zm-18.238,0h-37.031a.382.382,0,1,1,0-.764h37.031a.382.382,0,1,1,0,.764Z" transform="translate(-1178.734 -809.853)"/>
                </g>
                <g id="Group_37234" data-name="Group 37234" transform="translate(142.645 43.625)">
                  <ellipse id="Ellipse_43" data-name="Ellipse 43" cx="1.75" cy="1.719" rx="1.75" ry="1.719"/>
                  <path id="Path_38363" data-name="Path 38363" d="M1369.918,849.524h-17.385a.382.382,0,1,1,0-.764h17.385a.382.382,0,1,1,0,.764Zm-23.044,0h-38.135a.382.382,0,1,1,0-.764h38.135a.382.382,0,1,1,0,.764Z" transform="translate(-1278.696 -847.422)"/>
                </g>
                <g id="Group_37235" data-name="Group 37235" transform="translate(142.645 55.639)">
                  <ellipse id="Ellipse_44" data-name="Ellipse 44" cx="1.75" cy="1.719" rx="1.75" ry="1.719"/>
                  <path id="Path_38364" data-name="Path 38364" d="M1356.271,924.644h-29.993a.382.382,0,1,1,0-.764h29.993a.382.382,0,1,1,0,.764Zm-37.822,0h-26.011a.382.382,0,1,1,0-.764h26.011a.382.382,0,1,1,0,.764Z" transform="translate(-1265.049 -922.543)"/>
                </g>
                <g id="Group_37236" data-name="Group 37236" transform="translate(142.645 61.645)">
                  <ellipse id="Ellipse_45" data-name="Ellipse 45" cx="1.75" cy="1.719" rx="1.75" ry="1.719"/>
                  <path id="Path_38365" data-name="Path 38365" d="M1302.815,962.215h-19.774a.382.382,0,1,1,0-.764h19.774a.382.382,0,1,1,0,.764Zm-24.078,0h-9.288a.382.382,0,1,1,0-.764h9.288a.382.382,0,1,1,0,.764Zm-17.592,0h-9.255a.382.382,0,1,1,0-.764h9.255a.382.382,0,1,1,0,.764Z" transform="translate(-1231.101 -960.112)"/>
                </g>
                <g id="Group_37237" data-name="Group 37237" transform="translate(142.645 67.653)">
                  <ellipse id="Ellipse_46" data-name="Ellipse 46" cx="1.75" cy="1.719" rx="1.75" ry="1.719"/>
                  <path id="Path_38366" data-name="Path 38366" d="M1269.956,999.774h-18.579a.382.382,0,1,1,0-.764h18.579a.382.382,0,1,1,0,.764Zm-24.02,0h-12.21a.382.382,0,1,1,0-.764h12.21a.382.382,0,1,1,0,.764Zm-21.9,0h-34.7a.382.382,0,1,1,0-.764h34.7a.382.382,0,1,1,0,.764Z" transform="translate(-1178.734 -997.673)"/>
                </g>
                <g id="Group_37238" data-name="Group 37238" transform="translate(142.645 73.66)">
                  <ellipse id="Ellipse_47" data-name="Ellipse 47" cx="1.75" cy="1.719" rx="1.75" ry="1.719"/>
                  <path id="Path_38367" data-name="Path 38367" d="M1269.956,1037.345h-24.02a.382.382,0,1,1,0-.765h24.02a.382.382,0,1,1,0,.765Zm-33.708,0h-19.166a.382.382,0,1,1,0-.765h19.166a.382.382,0,1,1,0,.765Zm-26.541,0h-20.368a.382.382,0,1,1,0-.765h20.368a.382.382,0,1,1,0,.765Z" transform="translate(-1178.734 -1035.242)"/>
                </g>
              </g>
            </g>
            <g id="Group_37243" data-name="Group 37243" transform="translate(101.64 19.078)">
              <rect id="Rectangle_2538" data-name="Rectangle 2538" width="62.133" height="39.382" transform="translate(0.389 0.382)" fill="#fff"/>
              <rect id="Rectangle_2539" data-name="Rectangle 2539" width="62.133" height="5.477" transform="translate(0.389 0.382)"/>
              <path id="Path_38368" data-name="Path 38368" d="M936.854,531.557H874.719a.386.386,0,0,1-.389-.382V491.792a.385.385,0,0,1,.389-.382h62.133a.386.386,0,0,1,.389.382v39.382A.383.383,0,0,1,936.854,531.557Zm-61.744-.766h61.353V492.174H875.11Z" transform="translate(-874.33 -491.41)" stroke="#000" stroke-width="1"/>
              <ellipse id="Ellipse_48" data-name="Ellipse 48" cx="0.951" cy="0.934" rx="0.951" ry="0.934" transform="translate(2.965 2.199)" fill="#fff"/>
              <g id="Group_37241" data-name="Group 37241" transform="translate(6.523 2.199)">
                <ellipse id="Ellipse_49" data-name="Ellipse 49" cx="0.951" cy="0.934" rx="0.951" ry="0.934" fill="#fff"/>
              </g>
              <g id="Group_37242" data-name="Group 37242" transform="translate(10.082 2.199)">
                <ellipse id="Ellipse_50" data-name="Ellipse 50" cx="0.951" cy="0.934" rx="0.951" ry="0.934" fill="#fff"/>
              </g>
            </g>
          </g>
          <path id="Path_38492" data-name="Path 38492" d="M2.347.6,1.456.038A.179.179,0,0,0,1.2.1L.041,2.15a.2.2,0,0,0,.064.267L1,2.983a.179.179,0,0,0,.253-.064L2.411.871A.2.2,0,0,0,2.347.6Zm1.644,1.47L3.1,1.508a.179.179,0,0,0-.253.064L1.686,3.62a.2.2,0,0,0,.064.267l.892.566a.179.179,0,0,0,.253-.064L4.056,2.341A.2.2,0,0,0,3.991,2.074ZM5.637,3.546,4.746,2.98a.179.179,0,0,0-.253.064L3.331,5.092a.2.2,0,0,0,.065.267l.892.566a.179.179,0,0,0,.253-.064L5.7,3.813A.2.2,0,0,0,5.637,3.546Z" transform="translate(160.667 256.012) rotate(-25)"/>
          <path id="Path_38493" data-name="Path 38493" d="M2.347.6,1.456.038A.179.179,0,0,0,1.2.1L.041,2.15a.2.2,0,0,0,.064.267L1,2.983a.179.179,0,0,0,.253-.064L2.411.871A.2.2,0,0,0,2.347.6Zm1.644,1.47L3.1,1.508a.179.179,0,0,0-.253.064L1.686,3.62a.2.2,0,0,0,.064.267l.892.566a.179.179,0,0,0,.253-.064L4.056,2.341A.2.2,0,0,0,3.991,2.074ZM5.637,3.546,4.746,2.98a.179.179,0,0,0-.253.064L3.331,5.092a.2.2,0,0,0,.065.267l.892.566a.179.179,0,0,0,.253-.064L5.7,3.813A.2.2,0,0,0,5.637,3.546Z" transform="translate(93.653 260.596) rotate(-25)"/>
          <path id="Path_38494" data-name="Path 38494" d="M10.448,2.14c.411,4.634-3.348,8.664-8.4,8.992a9.511,9.511,0,0,1-1.23,0,3.719,3.719,0,0,1-.748-1.94A7.966,7.966,0,0,1,2.259,3.068,9.427,9.427,0,0,1,8.582.143L9.969.053A7.906,7.906,0,0,1,10.448,2.14Z" transform="matrix(-0.309, 0.951, -0.951, -0.309, 114.82, 266.364)" fill="#fff" stroke="#000" stroke-width="2"/>
          <path id="Path_38495" data-name="Path 38495" d="M8.976,2.259c1.629,6.32-2.871,9.215-7.21,9.572a6.621,6.621,0,0,1-1.057,0A4.535,4.535,0,0,1,.066,9.774,9.743,9.743,0,0,1,1.942,3.258,7.577,7.577,0,0,1,7.372.139l1.191-.1A10.113,10.113,0,0,1,8.976,2.259Z" transform="translate(181.982 260.713) rotate(106)" fill="#fff" stroke="#000" stroke-width="2"/>
        </g>
        <g id="educational-institution" transform="translate(109.784 27.848)">
          <path id="Path_38023" data-name="Path 38023" d="M161.253,190.757q-.011-.74-.035-1.478-.031-.978-.086-1.955l-.007-.021c-2.029-.044-4.042-.1-6.078-.138a63.649,63.649,0,0,0-4.606-4.462,63.466,63.466,0,0,0-4.606,4.463c-2.036.036-4.047.093-6.076.138l-.007.021q-.054.978-.085,1.955c-.017.493-.027.985-.035,1.478a82.521,82.521,0,0,0,.477,10.1q0,.052.011.1c1.779.031,3.559.183,5.339.215h.267a3.9,3.9,0,0,0-.145-.62l.225-.14c.245-.006.495-.013.746-.017l0-.14q-.021-2.211-.04-4.419v-.152c-.259,0-.52-.008-.779-.015a2.267,2.267,0,0,0-.155-1.21l.218-.1c3.013-.06,6.435-.037,9.447-.1a1.761,1.761,0,0,0,0,1.241l-.157,0-.446.025v.235q.021,2.209.04,4.419l.027.127c.295-.005.586-.013.874-.02a3.043,3.043,0,0,0-.116.891c1.766-.033,3.533-.183,5.3-.214l.011-.1A83.122,83.122,0,0,0,161.253,190.757Zm-19.641-1.692.226-.085a10.5,10.5,0,0,1,2.061-.057,30.885,30.885,0,0,1,.173,4.513l0,.179-2.345.015Q141.611,191.349,141.611,189.065Zm2.589,10.521-2.345.015q-.117-2.279-.117-4.564l.225-.085a10.5,10.5,0,0,1,2.061-.058,31.028,31.028,0,0,1,.174,4.513Zm7.985-7.824a3.258,3.258,0,0,1-3.52-.113,3.081,3.081,0,0,1-1.155-3.262,3.113,3.113,0,0,1,2.72-2.18l.729.007a2.737,2.737,0,0,1,2.655,2.38A3.174,3.174,0,0,1,152.185,191.762Zm6.842,7.839-2.344-.015,0-.179a31.024,31.024,0,0,1,.174-4.513,10.5,10.5,0,0,1,2.061.058l.225.085Q159.147,197.32,159.027,199.6Zm.126-5.973-2.344-.015,0-.179a31.026,31.026,0,0,1,.174-4.513,10.5,10.5,0,0,1,2.061.058l.225.085Q159.273,191.348,159.153,193.628Z" transform="translate(-127.892 -176.363)" fill="#fff"/>
          <path id="Path_38024" data-name="Path 38024" d="M213.568,316.2a3.189,3.189,0,0,0,.115.783l-.164-.006a91.529,91.529,0,0,1-9.678.236,3.875,3.875,0,0,0-.162-1.632l.225-.14c.245-.006.495-.013.746-.017l1.066-.018.858-.011c1.46-.016,2.959-.023,4.419-.039l.7-.008,1.115-.018c.295-.006.586-.013.874-.02A3.127,3.127,0,0,0,213.568,316.2Zm-.221-5.67-.157,0-.446.025c-.349.019-.7.036-1.046.052q-2.99.138-5.984.125c-.366,0-.732-.005-1.1-.013-.259,0-.52-.008-.779-.015a2.266,2.266,0,0,0-.155-1.21l.218-.1c3.013-.06,6.435-.037,9.447-.1A1.756,1.756,0,0,0,213.347,310.53Z" transform="translate(-185.995 -291.391)" fill="#ed85c0"/>
          <path id="Path_38025" data-name="Path 38025" d="M290,327.874l-1.114.018-.014-.094a24.209,24.209,0,0,1,.015-4.367v-.286c.35-.015.7-.033,1.046-.052v.235q.021,2.209.04,4.418Z" transform="translate(-263.181 -303.935)" fill="#f6d854"/>
          <path id="Path_38026" data-name="Path 38026" d="M237.575,339.8v.173c-1.46.016-2.959.023-4.419.039l-.027-.143a10.4,10.4,0,0,1-.034-3.253,14.071,14.071,0,0,1,4.284-.131A20.584,20.584,0,0,0,237.575,339.8Z" transform="translate(-212.573 -316.003)" fill="#80d4ec"/>
          <path id="Path_38027" data-name="Path 38027" d="M214.836,329.36l.017.224-1.066.018,0-.14q-.021-2.211-.04-4.419v-.152q.549.01,1.1.013l0,.089A24.371,24.371,0,0,1,214.836,329.36Z" transform="translate(-195.129 -305.568)" fill="#f6d854"/>
          <path id="Path_38028" data-name="Path 38028" d="M231.417,323.957a24.288,24.288,0,0,0-.015,4.366l.014.094-.7.008v-.173a20.712,20.712,0,0,1-.2-3.314,14.071,14.071,0,0,0-4.283.131,10.373,10.373,0,0,0,.034,3.252l.027.143-.858.011-.017-.224a24.3,24.3,0,0,0,.015-4.366l0-.089q2.992.018,5.984-.125v.285Z" transform="translate(-205.714 -304.46)" fill="#fff"/>
          <path id="Path_38029" data-name="Path 38029" d="M163.47,255.078l0,.179-2.345.015q-.118-2.279-.118-4.564l.226-.085a10.5,10.5,0,0,1,2.061-.058A30.9,30.9,0,0,1,163.47,255.078Zm.126,5.972,0,.179-2.345.015q-.117-2.279-.117-4.564l.225-.085a10.5,10.5,0,0,1,2.061-.058A31.16,31.16,0,0,1,163.6,261.049Z" transform="translate(-147.291 -238.006)" fill="#80d4ec"/>
          <path id="Path_38030" data-name="Path 38030" d="M228.11,226.625a3.258,3.258,0,0,1-3.52-.113,3.081,3.081,0,0,1-1.155-3.263,3.113,3.113,0,0,1,2.72-2.18l.729.007a2.737,2.737,0,0,1,2.655,2.38A3.174,3.174,0,0,1,228.11,226.625Z" transform="translate(-203.817 -211.227)" fill="#f6d854"/>
          <path id="Path_38031" data-name="Path 38031" d="M27.245,253.535c-.017.493-.027.985-.035,1.478h-.095c-3.276-.073-6.929-.173-10.28-.052-.389.015-.775.032-1.155.052,0-.429.027-.856.03-1.286l.219-.018a80.682,80.682,0,0,1,11.187-.18Z" transform="translate(-15.471 -240.618)" fill="#80d4ec"/>
          <path id="Path_38032" data-name="Path 38032" d="M28.9,223.538l-.007.021q-.054.978-.086,1.955l-.13-.005a80.549,80.549,0,0,0-11.187.18l-.088-.151c.863-.715,2.265-1.6,3.58-2.831a59.166,59.166,0,0,1,6.6-.071l.179-.016a2.963,2.963,0,0,0,.1.939Z" transform="translate(-17.031 -212.598)" fill="#ed85c0"/>
          <path id="Path_38033" data-name="Path 38033" d="M36.283,269.835h-.095c-3.276-.073-6.929-.173-10.28-.052l-.007.054a73.125,73.125,0,0,0-.083,10.092,105.234,105.234,0,0,1,10.762,0h.18A82.339,82.339,0,0,1,36.283,269.835ZM28.61,271.02a7.749,7.749,0,0,1,1.512-.042,22.647,22.647,0,0,1,.128,3.31l0,.131-1.72.011q-.086-1.674-.087-3.348Zm1.667,7.754-1.72.011q-.086-1.672-.087-3.348l.165-.061a7.747,7.747,0,0,1,1.511-.042,22.643,22.643,0,0,1,.128,3.31Zm2.172-7.754a7.747,7.747,0,0,1,1.512-.042,22.644,22.644,0,0,1,.128,3.31l0,.131-1.72.011q-.086-1.674-.087-3.348Zm1.667,7.754-1.72.011q-.086-1.672-.087-3.348l.165-.061a7.745,7.745,0,0,1,1.512-.042,22.643,22.643,0,0,1,.128,3.31Z" transform="translate(-24.544 -255.441)" fill="#fff"/>
          <path id="Path_38034" data-name="Path 38034" d="M57.221,175.876l0,.131-1.72.011q-.086-1.672-.087-3.348l.165-.061a7.744,7.744,0,0,1,1.512-.042A22.628,22.628,0,0,1,57.221,175.876Zm3.838,0,0,.131-1.72.011q-.086-1.672-.087-3.348l.165-.061a7.742,7.742,0,0,1,1.511-.042A22.63,22.63,0,0,1,61.059,175.876Zm-.025-4.354,0,.131-1.72.011q-.086-1.674-.087-3.348l.165-.061a7.745,7.745,0,0,1,1.512-.042A22.626,22.626,0,0,1,61.034,171.521Zm-3.838,0,0,.131-1.72.011q-.086-1.674-.087-3.348l.165-.061a7.747,7.747,0,0,1,1.511-.042A22.755,22.755,0,0,1,57.2,171.521Zm25.672-6.145q0,2.282-.118,4.564l-2.344-.015,0-.179a31.031,31.031,0,0,1,.174-4.513,10.5,10.5,0,0,1,2.061.058Zm-.125,5.972q0,2.282-.118,4.564l-2.344-.015,0-.179a31.025,31.025,0,0,1,.174-4.513,10.5,10.5,0,0,1,2.061.058Zm3.016-7.713-1.036-.02c-2.029-.044-4.042-.1-6.078-.138a63.453,63.453,0,0,0-4.606-4.463,63.457,63.457,0,0,0-4.606,4.463c-2.036.037-4.047.093-6.076.138l-1.037.02a3.007,3.007,0,0,1,0-1.567l.261-.077a36.239,36.239,0,0,1,6.19-.249,56.207,56.207,0,0,1,5.034-4.9c.078-.07.156-.14.235-.208l.457.405a54.083,54.083,0,0,1,4.811,4.7,36.144,36.144,0,0,1,6.19.249l.261.077a2.91,2.91,0,0,1,.1.605A2.945,2.945,0,0,1,85.759,163.635Zm10.62,3.433c-.379-.02-.765-.037-1.155-.052-3.351-.121-7-.021-10.279.052H84.85q-.011-.74-.035-1.478l.13-.005a80.686,80.686,0,0,1,11.237.184l.169.015C96.353,166.212,96.377,166.638,96.379,167.067Z" transform="translate(-51.49 -152.674)" fill="#80d4ec"/>
          <path id="Path_38035" data-name="Path 38035" d="M382.427,225.522l-.038.154a80.694,80.694,0,0,0-11.237-.184l-.13.005q-.031-.978-.085-1.955l-.007-.021,1.036.02a2.951,2.951,0,0,0,.1-.962l.18.038a59.154,59.154,0,0,1,6.6.071C380.162,223.924,381.564,224.807,382.427,225.522Z" transform="translate(-337.697 -212.583)" fill="#ed85c0"/>
          <path id="Path_38036" data-name="Path 38036" d="M378.039,269.837l-.008-.054c-3.351-.121-7-.021-10.279.052h-.095a82.528,82.528,0,0,1-.477,10.1h.179a105.207,105.207,0,0,1,10.762,0A73.113,73.113,0,0,0,378.039,269.837Zm-6.562,8.973-1.72-.011,0-.131a22.64,22.64,0,0,1,.128-3.31,7.8,7.8,0,0,1,1.511.041l.165.062Q371.564,277.139,371.477,278.811Zm.092-4.38-1.72-.011,0-.131a22.651,22.651,0,0,1,.128-3.31,7.752,7.752,0,0,1,1.512.042l.165.061Q371.656,272.758,371.569,274.43Zm3.746,4.38-1.721-.011,0-.131a22.5,22.5,0,0,1,.127-3.31,7.812,7.812,0,0,1,1.512.041l.165.062Q375.4,277.139,375.315,278.811Zm.092-4.38-1.721-.011,0-.131a22.791,22.791,0,0,1,.127-3.31,7.748,7.748,0,0,1,1.512.042l.165.061Q375.493,272.758,375.407,274.43Z" transform="translate(-334.296 -255.441)" fill="#fff"/>
          <path id="Path_38037" data-name="Path 38037" d="M396.638,283.342q0,1.675-.087,3.348l-1.72-.011,0-.132a22.636,22.636,0,0,1,.128-3.31,7.752,7.752,0,0,1,1.512.042Zm3.838,0q0,1.675-.087,3.348l-1.721-.011,0-.132a22.777,22.777,0,0,1,.127-3.31,7.748,7.748,0,0,1,1.512.042Zm-.092,4.381q0,1.675-.086,3.348l-1.721-.011,0-.131a22.5,22.5,0,0,1,.127-3.31,7.813,7.813,0,0,1,1.511.041Zm-3.838,0q0,1.675-.086,3.348l-1.72-.011,0-.131a22.631,22.631,0,0,1,.128-3.31,7.805,7.805,0,0,1,1.511.041Z" transform="translate(-359.278 -267.701)" fill="#80d4ec"/>
          <path id="Path_38038" data-name="Path 38038" d="M252.863,119.66c-.153-.138-.306-.272-.457-.405l-.235.208,0-.041a25.074,25.074,0,0,1-.1-3.8.389.389,0,0,1,.55-.014.677.677,0,0,1,.113.329c.007.076.008.153.01.23q.013,1.053.023,2.109c0,.282.007.564.01.846Z" transform="translate(-229.857 -115.296)" fill="#fff"/>
          <path id="Path_38039" data-name="Path 38039" d="M264.34,120.387l-.233.312a2.314,2.314,0,0,1-1.044.765c-1.057.386-2.231-.022-3.356.043l-.174.084q-.01-1.055-.023-2.109c0-.076,0-.153-.01-.23l.037-.032a2.214,2.214,0,0,1,1.656.258c.508.263.965.618,1.488.849A1.924,1.924,0,0,0,264.34,120.387Z" transform="translate(-236.626 -118.612)" fill="#ed85c0"/>
          <path id="Path_38040" data-name="Path 38040" d="M137.5,231.347q-.148,2.664-.125,5.333t.218,5.307q.11,1.5.274,2.994a.212.212,0,0,0,.209.206c1.781.032,3.557.183,5.339.215a.205.205,0,0,0,0-.411c-1.781-.032-3.558-.183-5.339-.215l.209.205q-.29-2.652-.411-5.319t-.068-5.311q.029-1.5.113-3C137.936,231.082,137.518,231.083,137.5,231.347Z" transform="translate(-125.853 -220.385)"/>
          <path id="Path_38041" data-name="Path 38041" d="M201.417,376.284a3.826,3.826,0,0,1,.154,1.578.209.209,0,0,0,.209.205c2.52.076,5.043.038,7.561-.1q1.06-.057,2.118-.138a.213.213,0,0,0,.209-.205.209.209,0,0,0-.209-.205c-2.514.19-5.036.288-7.557.274q-1.061-.006-2.121-.037l.209.205a4.119,4.119,0,0,0-.169-1.687C201.741,375.924,201.336,376.03,201.417,376.284Z" transform="translate(-183.933 -352.039)"/>
          <path id="Path_38042" data-name="Path 38042" d="M201.841,315.613c2.561-.067,5.122-.058,7.684-.093q1.047-.014,2.094-.039l-.2-.26a3.421,3.421,0,0,0,0,1.783.209.209,0,0,0,.4-.109,3,3,0,0,1,0-1.565.209.209,0,0,0-.2-.26c-2.561.067-5.122.058-7.684.093q-1.047.014-2.094.039A.206.206,0,0,0,201.841,315.613Zm-.428-6.1a2.128,2.128,0,0,1,.156,1.1.21.21,0,0,0,.2.26q3.648.084,7.294-.072,1.029-.042,2.058-.1c.268-.016.27-.426,0-.411-2.427.141-4.859.213-7.292.2q-1.03,0-2.061-.028l.2.26a2.507,2.507,0,0,0-.156-1.319.216.216,0,0,0-.258-.143A.205.205,0,0,0,201.413,309.51Z" transform="translate(-183.928 -291.356)"/>
          <path id="Path_38043" data-name="Path 38043" d="M204.062,307.549c2.464-.049,4.929-.044,7.393-.069q1.028-.011,2.055-.029l-.2-.26a2.036,2.036,0,0,0,0,1.35c.085.249.489.142.4-.11a1.676,1.676,0,0,1,0-1.131.208.208,0,0,0-.2-.26c-2.464.049-4.929.044-7.393.069q-1.028.011-2.055.03A.205.205,0,0,0,204.062,307.549Zm.508,1.274q.02,2.209.04,4.419a.209.209,0,0,0,.418,0q-.02-2.209-.04-4.419A.209.209,0,0,0,204.569,308.823Zm1.1-.051a24.55,24.55,0,0,1-.015,4.366.209.209,0,0,0,.209.205.211.211,0,0,0,.209-.205,24.64,24.64,0,0,0,.015-4.366.213.213,0,0,0-.209-.206A.21.21,0,0,0,205.67,308.772Z" transform="translate(-186.158 -289.347)"/>
          <path id="Path_38044" data-name="Path 38044" d="M237.568,328.117q-.02-2.209-.04-4.418a.209.209,0,0,0-.418,0q.019,2.209.04,4.418A.209.209,0,0,0,237.568,328.117Zm-1.1.05a24.554,24.554,0,0,1,.015-4.366.209.209,0,0,0-.209-.205.211.211,0,0,0-.209.205,24.644,24.644,0,0,0-.015,4.366.213.213,0,0,0,.209.205A.209.209,0,0,0,236.467,328.167Zm-5.142-.056a10.182,10.182,0,0,1-.034-3.143l-.146.143a13.971,13.971,0,0,1,4.228-.123l-.209-.205a20.473,20.473,0,0,0,.2,3.314.215.215,0,0,0,.209.205c.1,0,.224-.1.209-.205a20.381,20.381,0,0,1-.2-3.314.212.212,0,0,0-.209-.205,14.35,14.35,0,0,0-4.339.138.2.2,0,0,0-.146.143,10.867,10.867,0,0,0,.034,3.361.211.211,0,0,0,.257.143A.208.208,0,0,0,231.326,328.111Z" transform="translate(-210.57 -304.304)"/>
          <path id="Path_38045" data-name="Path 38045" d="M167.624,258.266q.045,1.615.088,3.23c.007.264.426.265.418,0q-.045-1.615-.088-3.23C168.034,258,167.616,258,167.624,258.266ZM158.76,250.4q0,2.283.118,4.564a.211.211,0,0,0,.209.205l2.345-.015a.206.206,0,0,0,0-.411l-2.345.015.209.206q-.119-2.28-.118-4.564A.209.209,0,0,0,158.76,250.4Z" transform="translate(-145.25 -237.7)"/>
          <path id="Path_38046" data-name="Path 38046" d="M160.419,248.79a10.79,10.79,0,0,1,2.06-.058l-.209-.205a31.538,31.538,0,0,1,.174,4.513c-.013.264.405.264.418,0a31.549,31.549,0,0,0-.174-4.513.214.214,0,0,0-.209-.205,10.78,10.78,0,0,0-2.06.058.214.214,0,0,0-.209.205A.208.208,0,0,0,160.419,248.79Zm-.31,5.851q0,2.283.118,4.564a.211.211,0,0,0,.209.206l2.345-.015a.206.206,0,0,0,0-.411l-2.345.015.209.205q-.119-2.28-.118-4.564A.209.209,0,0,0,160.109,254.642Z" transform="translate(-146.474 -235.968)"/>
          <path id="Path_38047" data-name="Path 38047" d="M100.97,285.75a10.792,10.792,0,0,1,2.06-.057l-.209-.206a31.544,31.544,0,0,1,.174,4.513c-.013.264.405.264.418,0a31.548,31.548,0,0,0-.174-4.513.214.214,0,0,0-.209-.205,10.783,10.783,0,0,0-2.06.058.214.214,0,0,0-.209.205A.208.208,0,0,0,100.97,285.75ZM94.43,282.6q0,1.675.086,3.348a.211.211,0,0,0,.209.205l1.721-.011a.205.205,0,0,0,0-.411l-1.721.011.209.205q-.086-1.672-.086-3.348A.209.209,0,0,0,94.43,282.6Z" transform="translate(-86.9 -266.955)"/>
          <path id="Path_38048" data-name="Path 38048" d="M95.7,281.455a7.963,7.963,0,0,1,1.512-.042L97,281.207a23.16,23.16,0,0,1,.127,3.31c-.013.265.405.264.418,0a23.3,23.3,0,0,0-.127-3.31.214.214,0,0,0-.209-.205,7.971,7.971,0,0,0-1.512.042.214.214,0,0,0-.209.205A.208.208,0,0,0,95.7,281.455Zm-.283,4.237q0,1.675.086,3.348a.211.211,0,0,0,.209.205l1.721-.011a.206.206,0,0,0,0-.411l-1.721.011.209.206q-.086-1.672-.086-3.348A.209.209,0,0,0,95.42,285.692Z" transform="translate(-87.798 -265.67)"/>
          <path id="Path_38049" data-name="Path 38049" d="M57.445,287.121a7.963,7.963,0,0,1,1.511-.042l-.209-.205a23.165,23.165,0,0,1,.127,3.31c-.013.265.405.264.418,0a23.3,23.3,0,0,0-.127-3.31.214.214,0,0,0-.209-.205,7.963,7.963,0,0,0-1.511.042.214.214,0,0,0-.209.206A.208.208,0,0,0,57.445,287.121Zm-4.3-4.524q0,1.675.086,3.348a.211.211,0,0,0,.209.205l1.721-.011a.205.205,0,0,0,0-.411l-1.721.011.209.205q-.086-1.672-.086-3.348A.209.209,0,0,0,53.141,282.6Z" transform="translate(-49.449 -266.955)"/>
          <path id="Path_38050" data-name="Path 38050" d="M54.413,281.455a7.963,7.963,0,0,1,1.512-.042l-.209-.206a23.163,23.163,0,0,1,.127,3.31c-.013.265.405.264.418,0a23.293,23.293,0,0,0-.127-3.31.214.214,0,0,0-.209-.205,7.971,7.971,0,0,0-1.512.042.214.214,0,0,0-.209.205A.209.209,0,0,0,54.413,281.455Zm-.282,4.237q0,1.675.086,3.348a.211.211,0,0,0,.209.205l1.721-.011a.206.206,0,0,0,0-.411l-1.721.011.209.206q-.086-1.672-.086-3.348A.209.209,0,0,0,54.131,285.692Z" transform="translate(-50.347 -265.67)"/>
          <path id="Path_38051" data-name="Path 38051" d="M56.119,194.541a7.963,7.963,0,0,1,1.512-.042l-.209-.205a23.163,23.163,0,0,1,.127,3.31c-.013.265.405.264.418,0a23.3,23.3,0,0,0-.127-3.31.214.214,0,0,0-.209-.205,7.961,7.961,0,0,0-1.512.042.214.214,0,0,0-.209.205A.208.208,0,0,0,56.119,194.541Zm6.469-10.828a3.258,3.258,0,0,0,0,1.677.211.211,0,0,0,.2.151c1.816-.034,3.632-.083,5.447-.123l1.388-.029a1.452,1.452,0,0,0,.334-.013c.105-.028.185-.153.257-.229.145-.154.29-.309.437-.461q.9-.945,1.852-1.849,1.056-1.011,2.154-1.976c.2-.177-.1-.467-.3-.29-1.248,1.1-2.462,2.241-3.624,3.431q-.5.51-.982,1.032l.148-.06c-1.847.035-3.693.084-5.539.126l-1.574.033.2.151a2.811,2.811,0,0,1,0-1.458A.21.21,0,0,0,62.588,183.713Z" transform="translate(-51.961 -174.375)"/>
          <path id="Path_38052" data-name="Path 38052" d="M130.7,160.185a36.345,36.345,0,0,1,5.593-.271l.322.011a.788.788,0,0,0,.381-.016,1,1,0,0,0,.2-.215l.218-.244q.428-.472.874-.929c.61-.626,1.24-1.231,1.88-1.825.7-.653,1.419-1.292,2.137-1.928.2-.177-.1-.468-.3-.29-1.436,1.271-2.865,2.556-4.193,3.936-.368.383-.728.772-1.076,1.172l.148-.06a36.437,36.437,0,0,0-4.82.1q-.686.06-1.37.147a.213.213,0,0,0-.209.205A.206.206,0,0,0,130.7,160.185Zm11.248.117a3.335,3.335,0,0,0-2.9,2.267,3.275,3.275,0,0,0,1.122,3.475,3.463,3.463,0,0,0,3.87.177,3.384,3.384,0,0,0,1.491-3.412,3,3,0,0,0-2.348-2.459,3.1,3.1,0,0,0-.5-.042.205.205,0,0,0,0,.411,2.327,2.327,0,0,1,1.5.531,2.785,2.785,0,0,1,.848,1.281,2.963,2.963,0,0,1-.867,3.084,3.023,3.023,0,0,1-3.345.36,2.791,2.791,0,0,1,.729-5.2,2.635,2.635,0,0,1,.4-.062.213.213,0,0,0,.209-.205A.21.21,0,0,0,141.946,160.3Z" transform="translate(-119.608 -150.665)"/>
          <path id="Path_38053" data-name="Path 38053" d="M254.969,228.715l.089,2.351c.01.264.429.265.418,0l-.089-2.351C255.377,228.451,254.959,228.449,254.969,228.715Z" transform="translate(-232.516 -217.993)"/>
          <path id="Path_38054" data-name="Path 38054" d="M35.826,251.7a10.207,10.207,0,0,1,2.264-.036.209.209,0,0,0,.209-.205.212.212,0,0,0-.209-.205,10.206,10.206,0,0,0-2.264.036.215.215,0,0,0-.209.205A.208.208,0,0,0,35.826,251.7Zm-10.753-.429a81.161,81.161,0,0,0-8.88.015q-1.263.071-2.525.183a.212.212,0,0,0-.209.205c0,.429-.026.857-.029,1.286a.209.209,0,0,0,.209.205c1.474-.079,2.951-.106,4.428-.109,1.509,0,3.016.022,4.524.053l2.483.055a.205.205,0,0,0,0-.411c-1.477-.033-2.953-.069-4.43-.09-1.508-.022-3.016-.028-4.523,0-.827.016-1.654.044-2.48.089l.209.205c0-.429.026-.857.029-1.286l-.209.205a81.132,81.132,0,0,1,8.876-.293q1.266.028,2.53.1C25.342,251.7,25.341,251.286,25.073,251.271Z" transform="translate(-13.43 -238.566)"/>
          <path id="Path_38055" data-name="Path 38055" d="M15.495,223.644c.518-.427,1.071-.811,1.609-1.212a23.087,23.087,0,0,0,1.971-1.619l-.148.06c1.672-.121,3.34-.14,5.015-.105.528.011,1.057.024,1.585.034a.205.205,0,0,0,0-.411c-1.441-.027-2.883-.079-4.323-.044q-.552.014-1.1.042c-.2.01-.4.022-.6.034l-.306.02a1.159,1.159,0,0,0-.352.037,1.013,1.013,0,0,0-.245.207c-.081.073-.162.146-.244.218q-.233.2-.473.4c-.3.246-.6.482-.914.715-.591.443-1.2.864-1.771,1.334a.2.2,0,0,0,0,.29A.219.219,0,0,0,15.495,223.644Zm.63,1.312a73.454,73.454,0,0,0-.184,7.875q.033,1.109.1,2.217a.21.21,0,0,0,.209.206c2.8-.17,5.607-.163,8.41-.08q1.177.034,2.352.085c.27.011.269-.4,0-.411-2.8-.118-5.608-.186-8.412-.108q-1.175.033-2.35.1l.209.205a73.23,73.23,0,0,1-.055-7.876q.052-1.108.138-2.215a.209.209,0,0,0-.418,0Zm31.883-3.435q.148,2.664.125,5.332t-.218,5.307q-.11,1.5-.274,2.994l.209-.205c-1.781.032-3.558.183-5.339.215a.205.205,0,0,0,0,.411c1.781-.032,3.558-.183,5.339-.215a.213.213,0,0,0,.209-.205q.29-2.652.411-5.319t.068-5.312q-.029-1.5-.112-3C48.412,221.258,47.994,221.257,48.008,221.521Z" transform="translate(-14.978 -210.56)"/>
          <path id="Path_38056" data-name="Path 38056" d="M324.77,250.4q0,2.283-.118,4.564l.209-.206-2.345-.015a.206.206,0,0,0,0,.411l2.345.015a.211.211,0,0,0,.209-.205q.119-2.28.118-4.564A.209.209,0,0,0,324.77,250.4Z" transform="translate(-293.601 -237.7)"/>
          <path id="Path_38057" data-name="Path 38057" d="M323.53,248.379a10.788,10.788,0,0,0-2.061-.058.214.214,0,0,0-.209.205,31.524,31.524,0,0,0-.174,4.513c.013.263.431.265.418,0a31.561,31.561,0,0,1,.174-4.513l-.209.205a10.8,10.8,0,0,1,2.061.058.208.208,0,0,0,.209-.205A.212.212,0,0,0,323.53,248.379Zm-.109,6.262q0,2.283-.118,4.564l.209-.205-2.345-.015a.206.206,0,0,0,0,.411l2.345.015a.211.211,0,0,0,.209-.206q.119-2.28.118-4.564A.209.209,0,0,0,323.421,254.642Z" transform="translate(-292.377 -235.968)"/>
          <path id="Path_38058" data-name="Path 38058" d="M323.142,285.34a10.791,10.791,0,0,0-2.061-.058.214.214,0,0,0-.209.205A31.539,31.539,0,0,0,320.7,290c.013.263.431.265.418,0a31.553,31.553,0,0,1,.174-4.513l-.209.206a10.8,10.8,0,0,1,2.061.057.208.208,0,0,0,.209-.205A.213.213,0,0,0,323.142,285.34Zm6.121-2.743q0,1.675-.087,3.348l.209-.205-1.721-.011a.205.205,0,0,0,0,.411l1.721.011a.211.211,0,0,0,.209-.205q.087-1.672.087-3.348A.209.209,0,0,0,329.263,282.6Z" transform="translate(-292.113 -266.955)"/>
          <path id="Path_38059" data-name="Path 38059" d="M394.651,281.044a7.97,7.97,0,0,0-1.511-.042.214.214,0,0,0-.209.205,23.162,23.162,0,0,0-.127,3.31c.013.263.431.265.418,0a23.3,23.3,0,0,1,.127-3.31l-.209.206a7.962,7.962,0,0,1,1.511.042.208.208,0,0,0,.209-.206A.212.212,0,0,0,394.651,281.044Zm-.136,4.648q0,1.675-.086,3.348l.209-.206-1.721-.011a.206.206,0,0,0,0,.411l1.721.011a.211.211,0,0,0,.209-.205q.086-1.672.086-3.348A.21.21,0,0,0,394.515,285.692Z" transform="translate(-357.457 -265.67)"/>
          <path id="Path_38060" data-name="Path 38060" d="M394.348,286.71a7.963,7.963,0,0,0-1.511-.042.214.214,0,0,0-.209.205,23.167,23.167,0,0,0-.128,3.31c.013.263.431.265.418,0a23.292,23.292,0,0,1,.127-3.31l-.209.205a7.963,7.963,0,0,1,1.511.042.208.208,0,0,0,.209-.205A.212.212,0,0,0,394.348,286.71Zm3.887-4.113q0,1.675-.086,3.348l.209-.205-1.721-.011a.205.205,0,0,0,0,.411l1.721.011a.211.211,0,0,0,.209-.205q.087-1.672.086-3.348A.209.209,0,0,0,398.235,282.6Z" transform="translate(-357.247 -266.955)"/>
          <path id="Path_38061" data-name="Path 38061" d="M435.942,281.044A7.971,7.971,0,0,0,434.43,281a.214.214,0,0,0-.209.205,23.171,23.171,0,0,0-.127,3.31c.013.263.431.265.418,0a23.3,23.3,0,0,1,.127-3.31l-.209.206a7.963,7.963,0,0,1,1.512.042.208.208,0,0,0,.209-.206A.213.213,0,0,0,435.942,281.044Zm-.136,4.648q0,1.675-.086,3.348l.209-.206-1.721-.011a.206.206,0,0,0,0,.411l1.721.011a.211.211,0,0,0,.209-.205q.086-1.672.086-3.348A.209.209,0,0,0,435.806,285.692Z" transform="translate(-394.91 -265.67)"/>
          <path id="Path_38062" data-name="Path 38062" d="M272.306,194.124a7.959,7.959,0,0,0-1.511-.042.214.214,0,0,0-.209.205,23.148,23.148,0,0,0-.127,3.31c.013.263.431.265.418,0a23.287,23.287,0,0,1,.127-3.31l-.209.205a7.965,7.965,0,0,1,1.511.042.208.208,0,0,0,.209-.205A.212.212,0,0,0,272.306,194.124Zm-6.871-10.307a2.82,2.82,0,0,1,0,1.458l.2-.151c-1.847-.035-3.693-.084-5.539-.126l-1.574-.033.148.06c-1.129-1.219-2.317-2.385-3.544-3.509q-.526-.482-1.062-.953c-.2-.176-.5.113-.3.29,1.3,1.145,2.559,2.331,3.762,3.572.152.157.3.316.456.475l.21.223c.074.079.161.216.271.245a1.453,1.453,0,0,0,.334.013l.348.007.671.014q1.372.03,2.744.064,1.537.037,3.073.068a.211.211,0,0,0,.2-.151,3.246,3.246,0,0,0,0-1.677A.21.21,0,0,0,265.435,183.816Z" transform="translate(-231.366 -174.369)"/>
          <path id="Path_38063" data-name="Path 38063" d="M265.365,159.775a36.377,36.377,0,0,0-4.812-.285c-.459,0-.919.016-1.378.037l.148.06a47.487,47.487,0,0,0-4.078-4.047q-.593-.534-1.191-1.063c-.2-.176-.5.113-.3.29,1.293,1.145,2.579,2.3,3.793,3.526q.445.449.875.912c.144.156.287.313.428.472a1.54,1.54,0,0,0,.194.214c.1.075.262.038.379.034q1.4-.053,2.8,0,1.573.062,3.136.258a.208.208,0,0,0,.209-.205A.212.212,0,0,0,265.365,159.775Zm-.553,4.006a81.153,81.153,0,0,1,8.88.015q1.263.071,2.525.183l-.209-.206c0,.429.026.857.029,1.286l.209-.205c-1.474-.079-2.951-.106-4.428-.109-1.509,0-3.017.022-4.524.053l-2.483.055a.205.205,0,0,0,0,.411c1.477-.033,2.953-.068,4.43-.09,1.508-.022,3.016-.028,4.523,0,.827.016,1.654.044,2.48.089a.209.209,0,0,0,.209-.205c0-.429-.026-.857-.029-1.286a.212.212,0,0,0-.209-.205,81.1,81.1,0,0,0-8.876-.293q-1.266.027-2.53.095C264.544,163.384,264.542,163.8,264.812,163.781Z" transform="translate(-231.357 -150.665)"/>
          <path id="Path_38064" data-name="Path 38064" d="M378.958,223.34c-.5-.409-1.024-.78-1.541-1.163-.636-.471-1.26-.958-1.844-1.489a1.564,1.564,0,0,0-.237-.212.976.976,0,0,0-.377-.047c-.206-.014-.414-.027-.62-.039-.372-.021-.744-.038-1.116-.049-.67-.021-1.341-.023-2.012-.015-.861.011-1.721.035-2.581.051a.205.205,0,0,0,0,.411c1.673-.032,3.346-.09,5.019-.021.528.022,1.055.054,1.582.092l-.148-.06a23.087,23.087,0,0,0,1.971,1.619c.537.4,1.091.785,1.609,1.212a.218.218,0,0,0,.3,0A.2.2,0,0,0,378.958,223.34Zm-1.343,1.6a73.437,73.437,0,0,1,.184,7.875q-.033,1.109-.1,2.217l.209-.205c-2.8-.17-5.607-.163-8.41-.08q-1.177.034-2.352.085c-.268.011-.27.422,0,.411,2.8-.118,5.608-.186,8.412-.108q1.175.033,2.35.1a.211.211,0,0,0,.209-.205,73.223,73.223,0,0,0,.055-7.876q-.052-1.108-.138-2.215a.212.212,0,0,0-.209-.205A.208.208,0,0,0,377.615,224.942Z" transform="translate(-334.081 -210.546)"/>
          <path id="Path_38065" data-name="Path 38065" d="M252.174,119.422a25.186,25.186,0,0,1-.1-3.8.39.39,0,0,1,.551-.014.962.962,0,0,1,.123.558q.017,1.479.033,2.958" transform="translate(-229.862 -115.297)" fill="#00f5ff"/>
          <path id="Path_38066" data-name="Path 38066" d="M250.331,117.4a25.436,25.436,0,0,1-.1-3.8l-.061.145a.213.213,0,0,1,.2-.056c.072.021.1.155.107.236a3.962,3.962,0,0,1,.012.47c0,.182,0,.364.007.546q.013,1.081.024,2.161a.209.209,0,0,0,.418,0l-.019-1.774c0-.3-.007-.606-.01-.909a2.337,2.337,0,0,0-.066-.759.536.536,0,0,0-.51-.385.68.68,0,0,0-.309.071.339.339,0,0,0-.211.3c-.037.587-.035,1.179-.021,1.766.015.665.058,1.328.125,1.989a.213.213,0,0,0,.209.205A.21.21,0,0,0,250.331,117.4Z" transform="translate(-227.81 -113.274)"/>
          <path id="Path_38067" data-name="Path 38067" d="M258.091,119.705c.8-.042,1.591.143,2.391.124a2.782,2.782,0,0,0,2.029-.839c.144-.158.266-.336.393-.507s-.117-.368-.286-.281a1.94,1.94,0,0,1-1.777-.223,8.808,8.808,0,0,0-1.828-.954,2.057,2.057,0,0,0-1.149-.01.206.206,0,0,0,.112.4,2.381,2.381,0,0,1,1.884.458,5.009,5.009,0,0,0,1.851.853,1.845,1.845,0,0,0,1.118-.166l-.286-.281c-.082.11-.16.222-.245.328a2.158,2.158,0,0,1-.755.592,4.049,4.049,0,0,1-2.149.162,8.776,8.776,0,0,0-1.3-.062C257.823,119.308,257.822,119.719,258.091,119.705Z" transform="translate(-235.01 -116.603)"/>
        </g>
      </g>
    </g>
  </g>
</svg>
