<svg xmlns="http://www.w3.org/2000/svg" width="106.337" height="105.702" viewBox="0 0 106.337 105.702">
  <g id="Group_37678" data-name="Group 37678" transform="translate(-1652.346 -1903.601)">
    <g id="Group_37530" data-name="Group 37530" transform="translate(1652.346 1920.364) rotate(-11)">
      <g id="Group_37525" data-name="Group 37525" transform="translate(2.762 2.762)">
        <path id="Path_39114" data-name="Path 39114" d="M0,0,20.615,41.06l12.008-3.747L38.016,30.8l1.221-10.889L42.29,9.328l9.362-6.92,13.467.868A61.678,61.678,0,0,1,75.4,12a28.227,28.227,0,0,1,5.366,9.167l4.667,17.678L80.77,63.194,70.039,77.055l-16.1,8.719L35.385,87.563,15.263,81.75,0,64.982V54.7L8.78,41.06Z" transform="translate(1.381 0)"/>
        <g id="color-palette" transform="translate(0)">
          <path id="Path_39112" data-name="Path 39112" d="M78.739,13.257C71.42,4,59.683-3.314,48.773,3.59,42.559,7.457,38.554,14.914,38.416,22.785a45.463,45.463,0,0,1-.552,5.8A12.353,12.353,0,0,1,35.1,34.661c-4.971,5.662-13.257,4-13.533,4A168.42,168.42,0,0,0,2.512.552,1.318,1.318,0,0,0,.855.138,1.312,1.312,0,0,0,.027,1.519,172.023,172.023,0,0,0,10.246,41.29C1.27,47.78-.111,55.237.3,60.346c.69,8.7,7.319,17.4,17.262,22.647a51.478,51.478,0,0,0,45.847,0c11.6-5.8,20.023-17.123,23.2-31.209C89.787,37.837,86.749,23.476,78.739,13.257ZM3.617,7.319c5.248,8.424,15.19,26.238,18.5,45.156L19.36,53.718C9.831,37.561,5.412,17.262,3.617,7.319ZM28.612,75.674q-8.286-4.143-9.943-9.943c-1.381-4.419.69-8.286,1.243-9.39l4-1.8c7.181,1.243,7.6,6.767,7.6,8.286A16.2,16.2,0,0,0,28.612,75.674ZM83.987,51.232c-2.9,13.119-10.771,23.89-21.68,29.276a49.143,49.143,0,0,1-43.5,0C9.693,75.813,3.617,67.941,2.927,60.07c-.414-6.214,2.486-11.738,8.424-16.295a93.513,93.513,0,0,0,5.938,11.738A14.608,14.608,0,0,0,15.907,66.7c1.519,5.247,6.352,9.528,14.085,12.7.138,0,.276.138.552.138a1.254,1.254,0,0,0,.967-.414,1.1,1.1,0,0,0,.276-1.381,15.126,15.126,0,0,1,1.933-13.533,1.055,1.055,0,0,0,.276-.69c0-.138.69-9.252-9.252-11.324-.69-3.59-1.519-7.181-2.486-10.633,3.038.276,9.943.414,14.776-5.109A15.521,15.521,0,0,0,40.488,29a52.126,52.126,0,0,0,.552-6.076A20.766,20.766,0,0,1,50.154,5.938c12.014-7.457,23.338,5.109,26.514,9.114C84.125,24.442,86.887,38.113,83.987,51.232Z"/>
          <path id="Path_39113" data-name="Path 39113" d="M18.919,19.333a9.7,9.7,0,0,0,9.666-9.666,9.666,9.666,0,1,0-19.333,0A9.7,9.7,0,0,0,18.919,19.333Zm0-16.847a7.043,7.043,0,1,1-7.043,7.043A7.072,7.072,0,0,1,18.919,2.486ZM17.538,35.628A9.666,9.666,0,1,0,27.2,25.961,9.695,9.695,0,0,0,17.538,35.628Zm16.847,0a7.043,7.043,0,1,1-7.043-7.043A7.072,7.072,0,0,1,34.385,35.628ZM9.666,46.675a9.666,9.666,0,1,0,0,19.333,9.666,9.666,0,1,0,0-19.333Zm0,16.847a7.043,7.043,0,1,1,7.043-7.043,6.984,6.984,0,0,1-7.043,7.043Z" transform="translate(42.421 12.566)"/>
        </g>
      </g>
      <g id="Group_37524" data-name="Group 37524" transform="translate(0 0)">
        <path id="Path_39116" data-name="Path 39116" d="M0,0,20.615,41.06l12.008-3.747L38.016,30.8l1.221-10.889L42.29,9.328l9.362-6.92,13.467.868A61.678,61.678,0,0,1,75.4,12a28.227,28.227,0,0,1,5.366,9.167l4.667,17.678L80.77,63.194,70.039,77.055l-16.1,8.719L35.385,87.563,15.263,81.75,0,64.982V54.7L8.78,41.06Z" transform="translate(1.206 0)" fill="#fff"/>
        <g id="Group_37523" data-name="Group 37523" transform="translate(0 0)">
          <circle id="Ellipse_380" data-name="Ellipse 380" cx="8.24" cy="8.24" r="8.24" transform="translate(54.055 13.843)" fill="#ec85c0"/>
          <circle id="Ellipse_382" data-name="Ellipse 382" cx="8.24" cy="8.24" r="8.24" transform="translate(44.167 60.647)" fill="#80d5ec"/>
          <path id="Path_39115" data-name="Path 39115" d="M8.286,0a8.286,8.286,0,0,1,8.286,8.286c0,4.576-3.255,8.711-4.843,14.8-.332,1.272-.164,1.31-1.452.75C7.218,22.608,0,11.905,0,8.286A8.286,8.286,0,0,1,8.286,0Z" transform="translate(16.571 53.856)" fill="#f7d854"/>
          <circle id="Ellipse_381" data-name="Ellipse 381" cx="8.24" cy="8.24" r="8.24" transform="translate(61.965 40.211)" fill="#a4e3db"/>
          <g id="color-palette-2" data-name="color-palette" transform="translate(0 0)">
            <path id="Path_39112-2" data-name="Path 39112" d="M78.739,13.257C71.42,4,59.683-3.314,48.773,3.59,42.559,7.457,38.554,14.914,38.416,22.785a45.463,45.463,0,0,1-.552,5.8A12.353,12.353,0,0,1,35.1,34.661c-4.971,5.662-13.257,4-13.533,4A168.42,168.42,0,0,0,2.512.552,1.318,1.318,0,0,0,.855.138,1.312,1.312,0,0,0,.027,1.519,172.023,172.023,0,0,0,10.246,41.29C1.27,47.78-.111,55.237.3,60.346c.69,8.7,7.319,17.4,17.262,22.647a51.478,51.478,0,0,0,45.847,0c11.6-5.8,20.023-17.123,23.2-31.209C89.787,37.837,86.749,23.476,78.739,13.257ZM3.617,7.319c5.248,8.424,15.19,26.238,18.5,45.156L19.36,53.718C9.831,37.561,5.412,17.262,3.617,7.319ZM28.612,75.674q-8.286-4.143-9.943-9.943c-1.381-4.419.69-8.286,1.243-9.39l4-1.8c7.181,1.243,7.6,6.767,7.6,8.286A16.2,16.2,0,0,0,28.612,75.674ZM83.987,51.232c-2.9,13.119-10.771,23.89-21.68,29.276a49.143,49.143,0,0,1-43.5,0C9.693,75.813,3.617,67.941,2.927,60.07c-.414-6.214,2.486-11.738,8.424-16.295a93.513,93.513,0,0,0,5.938,11.738A14.608,14.608,0,0,0,15.907,66.7c1.519,5.247,6.352,9.528,14.085,12.7.138,0,.276.138.552.138a1.254,1.254,0,0,0,.967-.414,1.1,1.1,0,0,0,.276-1.381,15.126,15.126,0,0,1,1.933-13.533,1.055,1.055,0,0,0,.276-.69c0-.138.69-9.252-9.252-11.324-.69-3.59-1.519-7.181-2.486-10.633,3.038.276,9.943.414,14.776-5.109A15.521,15.521,0,0,0,40.488,29a52.126,52.126,0,0,0,.552-6.076A20.766,20.766,0,0,1,50.154,5.938c12.014-7.457,23.338,5.109,26.514,9.114C84.125,24.442,86.887,38.113,83.987,51.232Z"/>
            <path id="Path_39113-2" data-name="Path 39113" d="M18.919,19.333a9.7,9.7,0,0,0,9.666-9.666,9.666,9.666,0,1,0-19.333,0A9.7,9.7,0,0,0,18.919,19.333Zm0-16.847a7.043,7.043,0,1,1-7.043,7.043A7.072,7.072,0,0,1,18.919,2.486ZM17.538,35.628A9.666,9.666,0,1,0,27.2,25.961,9.695,9.695,0,0,0,17.538,35.628Zm16.847,0a7.043,7.043,0,1,1-7.043-7.043A7.072,7.072,0,0,1,34.385,35.628ZM9.666,46.675a9.666,9.666,0,1,0,0,19.333,9.666,9.666,0,1,0,0-19.333Zm0,16.847a7.043,7.043,0,1,1,7.043-7.043,6.984,6.984,0,0,1-7.043,7.043Z" transform="translate(42.421 12.566)"/>
          </g>
        </g>
      </g>
    </g>
  </g>
</svg>
