<svg xmlns="http://www.w3.org/2000/svg" width="317.156" height="152.253" viewBox="0 0 317.156 152.253">
  <g id="Group_37691" data-name="Group 37691" transform="translate(-526.523 -1950.086)">
    <path id="Path_37731" data-name="Path 37731" d="M0,14.091a2,2,0,0,1-1.738-1.007,2,2,0,0,1,.743-2.729L6.538,6.045-.993,1.736A2,2,0,0,1-1.736-.993,2,2,0,0,1,.993-1.736L9.935,3.381a3.089,3.089,0,0,1,1.641,2.664A3.09,3.09,0,0,1,9.934,8.71L.993,13.827A1.991,1.991,0,0,1,0,14.091Z" transform="translate(832.104 1952.086)"/>
    <path id="Path_37734" data-name="Path 37734" d="M0,2V-2c1.006,0,2.02,0,3.014-.008l.021,4C2.033,2,1.012,2,0,2Zm6.026-.031-.042-4c1-.01,2.015-.024,3.007-.04l.064,4C8.056,1.945,7.037,1.958,6.026,1.969Zm6.024-.1-.087-4c1-.022,2.013-.047,3-.074l.11,4C14.078,1.826,13.06,1.851,12.049,1.873Zm6.021-.166-.135-4c1-.034,2.012-.071,3-.111l.16,4C20.1,1.635,19.081,1.672,18.07,1.706Zm6.018-.242-.187-4c1-.047,2.012-.1,3-.151l.214,3.994C26.119,1.366,25.1,1.417,24.089,1.465Zm6.019-.323-.243-3.993c1-.061,2.009-.126,3-.193L33.134.946C32.137,1.014,31.119,1.08,30.108,1.142ZM36.132.73l-.3-3.988c1-.076,2-.156,2.981-.239L39.145.488C38.152.572,37.139.653,36.132.73ZM42.15.222,41.78-3.76c.99-.092,1.985-.189,2.96-.288l.4,3.98C44.159.032,43.151.13,42.15.222Zm6.008-.611-.441-3.976c.986-.109,1.978-.224,2.948-.342l.48,3.971C50.161-.616,49.156-.5,48.158-.389Zm5.991-.724-.52-3.966c.988-.13,1.982-.265,2.954-.4l.562,3.96C56.159-1.382,55.151-1.245,54.149-1.113Zm5.969-.847-.605-3.954c.989-.151,1.983-.31,2.954-.47l.652,3.947C62.132-2.275,61.123-2.114,60.118-1.96ZM66.1-2.948l-.7-3.938c.976-.173,1.956-.354,2.913-.537l.75,3.929C68.089-3.308,67.092-3.125,66.1-2.948Zm5.941-1.135L71.238-8c.976-.2,1.955-.408,2.911-.618l.859,3.907C74.033-4.5,73.035-4.288,72.041-4.084Zm5.916-1.3L77.04-9.279c.964-.227,1.93-.463,2.873-.7L80.892-6.1C79.928-5.858,78.941-5.617,77.957-5.385ZM83.836-6.87l-1.043-3.862c.959-.259,1.921-.528,2.859-.8l1.111,3.843C85.8-7.411,84.818-7.135,83.836-6.87Zm5.836-1.688L88.49-12.38c.946-.293,1.894-.6,2.817-.9l1.256,3.8C91.615-9.17,90.643-8.858,89.672-8.558Zm5.764-1.908L94.1-14.237c.932-.33,1.865-.671,2.773-1.015l1.416,3.741C97.355-11.157,96.395-10.805,95.436-10.466Zm5.694-2.156-1.5-3.708c.916-.371,1.833-.755,2.724-1.141l1.59,3.67C103.022-13.4,102.076-13.005,101.13-12.622Zm5.6-2.427-1.683-3.629c.894-.415,1.788-.844,2.657-1.275l1.779,3.583C108.58-15.923,107.654-15.479,106.728-15.049Zm5.47-2.717L110.319-21.3c.868-.461,1.734-.938,2.576-1.418l1.98,3.476C114-18.742,113.1-18.246,112.2-17.767Zm5.313-3.028-2.084-3.414c.836-.51,1.67-1.038,2.481-1.568l2.19,3.347C119.252-21.877,118.382-21.327,117.51-20.795Zm5.125-3.356-2.3-3.274c.8-.562,1.6-1.142,2.375-1.726l2.405,3.2C124.307-25.344,123.472-24.737,122.635-24.15Zm4.9-3.69-2.512-3.113c.758-.611,1.515-1.244,2.249-1.879l2.617,3.025C129.123-29.142,128.331-28.481,127.538-27.841Zm4.639-4.013-2.719-2.934c.712-.66,1.423-1.342,2.115-2.028l2.817,2.84C133.666-33.257,132.921-32.543,132.176-31.853Zm4.355-4.32-2.911-2.743c.664-.7,1.329-1.434,1.977-2.168l3,2.647C137.92-37.672,137.225-36.91,136.531-36.173Zm4.054-4.592L137.5-43.316c.616-.744,1.236-1.516,1.841-2.293l3.156,2.458C141.872-42.343,141.227-41.54,140.586-40.765Zm3.759-4.824-3.224-2.368c.57-.777,1.147-1.583,1.713-2.4l3.284,2.283C145.533-47.229,144.936-46.394,144.345-45.59Zm3.483-5.005L144.491-52.8c.53-.8,1.069-1.638,1.6-2.485l3.383,2.134C148.928-52.28,148.373-51.42,147.828-50.595Zm3.245-5.139-3.422-2.072c.494-.816,1-1.675,1.517-2.552l3.454,2.018C152.1-57.445,151.578-56.568,151.073-55.734Zm3.058-5.227-3.479-1.974c.469-.826.945-1.676,1.458-2.6l3.5,1.941C155.089-62.659,154.606-61.8,154.131-60.961Zm2.93-5.273-3.51-1.918c.414-.758.869-1.594,1.43-2.629l3.517,1.906C157.934-67.836,157.478-67,157.061-66.234Zm2.866-5.28-3.517-1.905c.394-.727.913-1.684,1.435-2.641l3.512,1.915C160.837-73.193,160.319-72.239,159.927-71.514Zm2.867-5.25-3.5-1.936c.519-.938,1-1.8,1.472-2.635l3.482,1.968C163.783-78.543,163.307-77.692,162.794-76.764Zm2.933-5.185-3.458-2.01c.521-.9,1.04-1.775,1.542-2.609l3.428,2.062C166.747-83.689,166.238-82.829,165.727-81.949Zm3.061-5.083-3.39-2.123c.547-.873,1.1-1.735,1.64-2.561l3.346,2.192C169.857-88.721,169.32-87.883,168.788-87.033Zm3.242-4.944-3.294-2.269c.583-.846,1.175-1.683,1.762-2.49l3.235,2.353C173.166-93.6,172.593-92.794,172.03-91.976Zm3.467-4.763-3.168-2.442c.626-.812,1.266-1.618,1.9-2.4l3.094,2.535C176.714-98.3,176.1-97.52,175.5-96.739Zm3.726-4.546-3.014-2.63c.672-.77,1.362-1.536,2.051-2.275l2.927,2.727C180.527-102.756,179.866-102.023,179.223-101.285Zm4-4.292-2.834-2.823c.72-.723,1.462-1.443,2.2-2.138l2.736,2.918C184.619-106.956,183.91-106.268,183.222-105.577Zm4.276-4.01-2.635-3.01c.765-.67,1.553-1.336,2.341-1.98l2.53,3.1C188.981-110.863,188.229-110.227,187.5-109.587Zm4.538-3.707-2.424-3.182c.807-.615,1.638-1.226,2.471-1.818l2.316,3.261C193.6-114.467,192.808-113.882,192.036-113.294Zm4.785-3.4-2.209-3.335c.843-.559,1.712-1.115,2.582-1.652l2.1,3.4C198.462-117.762,197.629-117.229,196.821-116.694Zm5-3.091-2-3.465c.873-.5,1.772-1,2.671-1.488l1.9,3.522C203.525-120.75,202.661-120.269,201.821-119.785Zm5.18-2.789-1.8-3.574c.9-.451,1.823-.9,2.747-1.334l1.7,3.621C208.76-123.442,207.868-123.009,207-122.574Zm5.337-2.506-1.606-3.663c.918-.4,1.862-.8,2.8-1.189l1.516,3.7C214.141-125.856,213.227-125.469,212.339-125.079Zm5.458-2.237-1.43-3.735c.934-.358,1.893-.713,2.851-1.056l1.348,3.766C219.635-128.009,218.7-127.664,217.8-127.317Zm5.562-1.992-1.27-3.793c.948-.317,1.92-.632,2.891-.936l1.195,3.817C225.229-129.924,224.281-129.618,223.359-129.309Zm5.653-1.77-1.123-3.839c.96-.281,1.945-.559,2.928-.828l1.055,3.858C230.912-131.625,229.95-131.353,229.012-131.079Zm5.725-1.566-.99-3.876c.964-.246,1.952-.49,2.936-.725l.928,3.891C236.647-133.125,235.68-132.886,234.737-132.645Zm5.768-1.376-.869-3.9c.975-.217,1.974-.432,2.97-.638l.813,3.917C242.441-134.445,241.461-134.234,240.5-134.021Zm5.825-1.21-.759-3.927c.975-.189,1.973-.375,2.967-.554l.708,3.937C248.269-135.6,247.288-135.416,246.329-135.231Zm5.854-1.054-.66-3.945c.983-.164,1.988-.326,2.988-.482l.613,3.953C254.14-136.606,253.15-136.447,252.183-136.285Zm5.877-.913-.569-3.959c.987-.142,2-.282,3-.415l.527,3.965C260.028-137.475,259.033-137.337,258.06-137.2Zm5.912-.786-.487-3.97c.985-.121,1.992-.239,2.992-.352l.448,3.975C265.938-138.22,264.944-138.1,263.972-137.984Zm5.936-.669-.411-3.979c.983-.1,1.987-.2,2.985-.295l.376,3.982C271.871-138.851,270.879-138.753,269.908-138.653Zm5.928-.559-.342-3.985c.989-.085,2-.167,3-.245l.309,3.988C277.813-139.377,276.814-139.3,275.835-139.212Zm5.944-.461-.278-3.99c.994-.069,2.009-.136,3.017-.2l.248,3.992C283.768-139.808,282.763-139.742,281.779-139.673Zm5.956-.37-.219-3.994c1-.055,2.016-.107,3.026-.156l.191,4C289.733-140.149,288.724-140.1,287.736-140.043Zm5.965-.286-.165-4c1-.041,2.019-.08,3.032-.115l.139,4C295.7-140.409,294.691-140.37,293.7-140.33Zm5.971-.208-.115-4c1-.029,2.021-.055,3.033-.078l.091,4C301.676-140.592,300.663-140.566,299.671-140.538Zm5.975-.136-.068-4c1-.017,2.02-.031,3.031-.043l.046,4C307.65-140.7,306.638-140.691,305.646-140.674Zm5.978-.069-.024-4c1-.006,2.017-.01,3.027-.01l0,4C313.626-140.752,312.615-140.748,311.623-140.742Z" transform="translate(526.523 2100.339)"/>
  </g>
</svg>
