<svg xmlns="http://www.w3.org/2000/svg" width="14.091" height="70.503" viewBox="0 0 14.091 70.503">
  <g id="Group_37692" data-name="Group 37692" transform="translate(-357.433 -2002.632)">
    <path id="Line_53" data-name="Line 53" d="M1.5,68.661h-3v-3h3Zm0-6h-3v-3h3Zm0-6h-3v-3h3Zm0-6h-3v-3h3Zm0-6h-3v-3h3Zm0-6h-3v-3h3Zm0-6h-3v-3h3Zm0-6h-3v-3h3Zm0-6h-3v-3h3Zm0-6h-3v-3h3Zm0-6h-3v-3h3Zm0-6h-3V0h3Z" transform="translate(364.478 2002.632)"/>
    <path id="Path_39124" data-name="Path 39124" d="M0,13.091a1,1,0,0,1-.869-.5A1,1,0,0,1-.5,11.223L8.445,6.106a.645.645,0,0,0,.089-.061.641.641,0,0,0-.089-.06L-.5.868A1,1,0,0,1-.868-.5,1,1,0,0,1,.5-.868L9.439,4.249a2.077,2.077,0,0,1,1.137,1.8,2.077,2.077,0,0,1-1.138,1.8L.5,12.959A1,1,0,0,1,0,13.091Z" transform="translate(370.523 2062.559) rotate(90)"/>
  </g>
</svg>
