<svg xmlns="http://www.w3.org/2000/svg" width="84.16" height="55.689" viewBox="0 0 84.16 55.689">
  <g id="Group_36878" data-name="Group 36878" transform="translate(6.698 1)">
    <path id="Path_37264" data-name="Path 37264" d="M82.573,49.186c-1.021-.005-2.035-.018-3.014-.038l.041-2c.969.02,1.973.033,2.984.038Zm-6.028-.126c-1.025-.039-2.04-.088-3.015-.144l.116-2c.962.056,1.963.1,2.975.142Zm-6.032-.354c-1.031-.084-2.046-.181-3.016-.288l.218-1.988c.952.1,1.948.2,2.961.283Zm-6.026-.668c-1.033-.149-2.042-.314-3-.492l.365-1.966c.93.173,1.912.334,2.918.479Zm-5.981-1.122c-1.032-.247-2.027-.518-2.958-.806l.591-1.911c.89.275,1.843.535,2.832.771Zm-5.868-1.839a27.211,27.211,0,0,1-2.815-1.328l.961-1.754a25.208,25.208,0,0,0,2.608,1.229Zm-5.458-3.04a16.178,16.178,0,0,1-2.333-2.181l1.508-1.314A14.176,14.176,0,0,0,48.4,40.452Zm-4.164-4.825a15.66,15.66,0,0,1-1.21-2.962l1.917-.569a13.469,13.469,0,0,0,1.054,2.583Zm-1.857-6.044c-.127-.93-.212-1.938-.26-3.081l2-.085c.046,1.08.126,2.028.244,2.9Zm-.316-6.121q0-.476,0-.953c0-.67,0-1.362-.008-2.038l2-.022c.008.687.008,1.386.008,2.061q0,.474,0,.948Zm-.115-5.93a25.072,25.072,0,0,0-.351-2.862l1.966-.367a27.039,27.039,0,0,1,.38,3.09Zm-1.095-5.585a12.661,12.661,0,0,0-1.245-2.482l1.678-1.089a14.842,14.842,0,0,1,1.44,2.869ZM36.628,8.9a15.469,15.469,0,0,0-2.184-1.771l1.119-1.658a17.471,17.471,0,0,1,2.467,2ZM31.962,5.709A28.234,28.234,0,0,0,29.3,4.58L29.987,2.7a30.242,30.242,0,0,1,2.854,1.209ZM26.515,3.686c-.9-.253-1.86-.491-2.854-.708l.426-1.954c1.033.225,2.032.473,2.969.737ZM20.764,2.42c-.936-.158-1.921-.305-2.929-.437L18.094,0c1.033.135,2.044.286,3,.448Zm-5.877-.774c-.954-.094-1.951-.18-2.963-.253L12.069-.6c1.029.075,2.044.162,3.015.258ZM8.952,1.211c-.964-.049-1.966-.089-2.978-.121l.063-2c1.025.032,2.039.073,3.016.123ZM2.991,1.021C2.019,1.007,1.013,1,0,1V-1c1.023,0,2.039.007,3.02.022Z" transform="translate(-6.698)" fill="#131313"/>
    <path id="Path_37265" data-name="Path 37265" d="M0,12a1,1,0,0,1-.784-.378,1,1,0,0,1,.162-1.4L5.243,5.562c.034-.027.037-.048.037-.062a.076.076,0,0,0-.037-.061L-.622.783a1,1,0,0,1-.162-1.4,1,1,0,0,1,1.4-.162L6.487,3.872a2.066,2.066,0,0,1,0,3.257L.622,11.783A1,1,0,0,1,0,12Z" transform="translate(70.182 42.689)" fill="#131313"/>
  </g>
</svg>
