<svg xmlns="http://www.w3.org/2000/svg" width="318.476" height="227.84" viewBox="0 0 318.476 227.84">
  <g id="Group_37689" data-name="Group 37689" transform="translate(-526.523 -1874.498)">
    <path id="Path_37732" data-name="Path 37732" d="M0,2.263v-4c1,0,2.015,0,3.006-.012l.032,4C2.036,2.259,1.014,2.263,0,2.263Zm6.033-.048-.064-4c1-.016,2.012-.036,3-.061l.1,4C8.068,2.179,7.047,2.2,6.033,2.215Zm6.032-.147-.132-4c1-.033,2.011-.071,3-.113l.168,4C14.1,2,13.079,2.035,12.065,2.068ZM18.1,1.814l-.206-3.995c1-.051,2.007-.108,2.993-.169l.245,3.993C20.131,1.7,19.11,1.762,18.1,1.814Zm6.033-.37-.285-3.99c1-.071,2-.148,2.981-.228l.326,3.987C26.158,1.294,25.141,1.372,24.131,1.444ZM30.159.95l-.369-3.983c.99-.092,1.987-.19,2.964-.292L33.167.654C32.176.758,31.164.857,30.159.95ZM36.177.323,35.716-3.65c.983-.114,1.972-.235,2.941-.359l.509,3.967C38.181.084,37.175.207,36.177.323Zm6-.771-.56-3.961c.98-.139,1.967-.285,2.933-.434l.612,3.953C44.179-.737,43.175-.589,42.178-.448Zm5.977-.926-.666-3.944c.98-.165,1.966-.339,2.93-.516L51.141-1.9C50.158-1.719,49.153-1.542,48.155-1.373ZM54.1-2.466l-.78-3.923c.977-.194,1.959-.4,2.919-.6l.841,3.911C56.1-2.871,55.1-2.664,54.1-2.466Zm5.939-1.278-.9-3.9c.961-.223,1.927-.456,2.872-.692l.969,3.881C62.013-4.21,61.025-3.972,60.042-3.744Zm5.885-1.471L64.89-9.078c.957-.257,1.918-.524,2.857-.795L68.854-6.03C67.892-5.752,66.908-5.478,65.928-5.215ZM71.758-6.9l-1.18-3.822c.945-.292,1.894-.6,2.821-.9l1.255,3.8C73.7-7.507,72.728-7.2,71.758-6.9Zm5.779-1.911L76.2-12.578c.931-.329,1.865-.67,2.777-1.015l1.413,3.742C79.455-9.5,78.494-9.145,77.537-8.807Zm5.687-2.148-1.5-3.71c.914-.369,1.832-.75,2.726-1.135l1.58,3.675C85.112-11.729,84.166-11.335,83.224-10.955Zm5.6-2.409L87.158-17c.9-.41,1.793-.835,2.668-1.263l1.756,3.594C90.677-14.227,89.749-13.788,88.825-13.364Zm5.48-2.677L92.459-19.59c.871-.453,1.744-.922,2.595-1.393l1.937,3.5C96.11-17,95.206-16.511,94.3-16.042ZM99.639-19l-2.03-3.447c.846-.5,1.693-1.013,2.518-1.53l2.124,3.39C101.395-20.046,100.516-19.512,99.639-19Zm5.18-3.247L102.6-25.571c.815-.543,1.632-1.1,2.427-1.667l2.312,3.264C106.514-23.389,105.666-22.806,104.819-22.242Zm4.99-3.534-2.4-3.2c.781-.588,1.563-1.194,2.324-1.8l2.5,3.125C111.434-27.018,110.621-26.388,109.809-25.777Zm4.777-3.818L112-32.645c.744-.631,1.489-1.282,2.214-1.935l2.677,2.973C116.135-30.929,115.36-30.252,114.587-29.6Zm4.545-4.092-2.763-2.893c.7-.673,1.41-1.367,2.1-2.062l2.846,2.811C120.6-35.109,119.864-34.387,119.131-33.687Zm4.3-4.35L120.5-40.765c.664-.712,1.328-1.446,1.975-2.181l3,2.643C124.808-39.54,124.118-38.777,123.428-38.038Zm4.038-4.587-3.075-2.558c.622-.748,1.245-1.518,1.852-2.29L129.387-45C128.758-44.2,128.112-43.4,127.466-42.625Zm3.777-4.8-3.208-2.389c.581-.78,1.163-1.583,1.731-2.387l3.268,2.307C132.447-49.061,131.844-48.23,131.243-47.423Zm3.518-4.982-3.324-2.226c.541-.808,1.084-1.64,1.614-2.473l3.375,2.147C135.88-54.1,135.32-53.239,134.761-52.405Zm3.27-5.139-3.423-2.07c.5-.832,1.009-1.689,1.5-2.547l3.466,2C139.069-59.282,138.549-58.4,138.031-57.545Zm3.037-5.27-3.505-1.927c.468-.852.94-1.73,1.4-2.609l3.541,1.86C142.033-64.589,141.549-63.688,141.069-62.814Zm2.825-5.376-3.574-1.8c.437-.868.878-1.764,1.311-2.662l3.6,1.738C144.791-69.994,144.34-69.078,143.893-68.19Zm2.635-5.461L142.9-75.333c.409-.881.823-1.791,1.231-2.705l3.652,1.631C147.367-75.477,146.945-74.549,146.528-73.651ZM149-79.178l-3.673-1.584c.384-.891.776-1.813,1.163-2.74l3.691,1.542C149.786-81.019,149.389-80.083,149-79.178Zm2.331-5.576-3.707-1.5c.364-.9.737-1.828,1.108-2.768l3.72,1.47C152.075-86.6,151.7-85.661,151.329-84.754Zm2.218-5.612-3.732-1.44c.346-.9.7-1.836,1.066-2.79l3.741,1.415C154.259-92.218,153.9-91.271,153.548-90.365ZM155.68-96l-3.749-1.394c.335-.9.674-1.82,1.036-2.806l3.755,1.378C156.358-97.831,156.017-96.907,155.68-96Zm2.073-5.647-3.76-1.365q.511-1.408,1.019-2.817l3.763,1.358Q158.265-103.059,157.753-101.647Zm2.04-5.649-3.764-1.354.328-.911.688-1.912,3.764,1.355-.688,1.911Zm2.032-5.642-3.762-1.36c.37-1.024.705-1.948,1.025-2.825l3.758,1.369C162.528-114.88,162.194-113.959,161.825-112.938Zm2.051-5.626-3.753-1.383c.359-.975.711-1.924,1.047-2.822l3.747,1.4C164.582-120.476,164.232-119.533,163.875-118.564Zm2.1-5.6-3.738-1.424c.366-.96.73-1.907,1.083-2.813l3.728,1.45C166.694-126.052,166.333-125.115,165.971-124.163Zm2.165-5.562-3.716-1.481c.379-.95.759-1.892,1.131-2.8l3.7,1.517C168.886-131.594,168.51-130.664,168.136-129.726Zm2.261-5.514-3.685-1.557c.4-.94.8-1.875,1.193-2.779l3.666,1.6C171.183-137.085,170.788-136.164,170.4-135.239Zm2.382-5.452-3.644-1.649c.42-.928.847-1.854,1.268-2.751l3.62,1.7C173.609-142.51,173.191-141.6,172.779-140.691Zm2.527-5.375-3.593-1.758c.448-.915.9-1.828,1.356-2.714l3.563,1.819C176.19-147.854,175.744-146.961,175.306-146.066Zm2.7-5.281-3.529-1.883c.479-.9.969-1.8,1.456-2.667l3.492,1.951C178.948-153.1,178.47-152.223,178-151.347Zm2.888-5.167-3.451-2.023c.515-.879,1.042-1.757,1.567-2.609l3.406,2.1C181.9-158.22,181.392-157.368,180.891-156.514Zm3.1-5.032-3.357-2.174c.554-.855,1.121-1.709,1.687-2.538l3.3,2.254C185.077-163.2,184.527-162.374,183.991-161.546Zm3.327-4.875-3.247-2.336c.595-.827,1.2-1.652,1.814-2.454l3.186,2.419C188.481-168.017,187.892-167.219,187.317-166.421Zm3.565-4.693-3.12-2.5c.637-.794,1.291-1.587,1.944-2.356l3.05,2.588C192.127-172.644,191.5-171.88,190.883-171.114Zm3.81-4.489-2.976-2.673c.68-.757,1.378-1.512,2.075-2.245l2.9,2.757C196.019-177.059,195.347-176.332,194.693-175.6Zm4.056-4.263-2.817-2.84c.721-.716,1.463-1.43,2.2-2.122l2.732,2.921C200.156-181.241,199.443-180.555,198.749-179.866Zm4.3-4.018-2.645-3c.761-.671,1.542-1.34,2.323-1.988l2.556,3.077C204.528-185.172,203.776-184.529,203.045-183.884Zm4.523-3.757-2.465-3.15c.8-.624,1.617-1.246,2.435-1.848l2.372,3.221C209.122-188.839,208.334-188.241,207.567-187.641Zm4.735-3.488-2.279-3.288c.831-.576,1.684-1.149,2.536-1.7l2.185,3.351C213.924-192.236,213.1-191.683,212.3-191.129Zm4.93-3.215-2.091-3.41c.861-.528,1.745-1.053,2.626-1.561l2,3.466C218.915-195.359,218.063-194.853,217.233-194.344Zm5.108-2.945-1.9-3.517c.887-.48,1.8-.958,2.7-1.419l1.813,3.565C224.077-198.214,223.2-197.752,222.341-197.288Zm5.254-2.673-1.724-3.609c.907-.433,1.837-.863,2.764-1.279l1.636,3.65C229.373-200.8,228.473-200.381,227.595-199.962Zm5.385-2.414-1.55-3.688c.927-.39,1.878-.776,2.825-1.149l1.466,3.722C234.8-203.129,233.879-202.754,232.979-202.375Zm5.506-2.169L237.1-208.3c.939-.346,1.9-.689,2.858-1.02l1.305,3.781C240.332-205.215,239.4-204.881,238.485-204.545Zm5.585-1.928-1.229-3.807c.955-.308,1.934-.613,2.907-.907l1.154,3.83C245.953-207.071,245-206.774,244.069-206.473Zm5.676-1.711-1.082-3.851c.961-.27,1.945-.537,2.923-.793l1.013,3.87C251.644-208.709,250.684-208.448,249.746-208.185Zm5.733-1.5-.946-3.886c.973-.237,1.968-.47,2.957-.694l.882,3.9C257.4-210.146,256.43-209.918,255.479-209.686Zm5.784-1.308-.82-3.915c.979-.205,1.981-.407,2.976-.6l.76,3.927C263.2-211.392,262.222-211.195,261.263-210.994Zm5.838-1.13-.7-3.938c.98-.175,1.982-.346,2.977-.509l.647,3.947C269.045-212.463,268.062-212.3,267.1-212.124Zm5.871-.962-.593-3.956c.983-.147,1.987-.291,2.985-.427l.542,3.963C274.924-213.372,273.937-213.23,272.972-213.086Zm5.885-.8-.492-3.97c.991-.123,2-.242,3.008-.354l.444,3.975C280.827-214.128,279.831-214.011,278.856-213.89Zm5.912-.661-.4-3.98c1-.1,2.016-.2,3.027-.286l.354,3.984C286.754-214.744,285.751-214.65,284.768-214.551Zm5.932-.528-.311-3.988c1-.078,2.015-.152,3.026-.22l.27,3.991C292.688-215.229,291.684-215.156,290.7-215.079Zm5.946-.4-.231-3.993c1-.058,2.014-.111,3.023-.16l.192,4C298.635-215.592,297.63-215.539,296.646-215.482Zm5.956-.287-.156-4c1-.039,2.013-.074,3.021-.1l.12,4C304.592-215.842,303.587-215.808,302.6-215.769Zm5.962-.179-.086-4c1-.021,2.013-.039,3.021-.052l.052,4C310.555-215.987,309.55-215.969,308.565-215.948Zm5.966-.078-.02-4c.65,0,1.311,0,1.966,0v4C315.829-216.032,315.174-216.03,314.531-216.027Z" transform="translate(526.523 2100.076)"/>
    <path id="Path_37735" data-name="Path 37735" d="M0,14.091a2,2,0,0,1-1.738-1.007,2,2,0,0,1,.743-2.729L6.538,6.045-.993,1.736A2,2,0,0,1-1.736-.993,2,2,0,0,1,.993-1.736L9.935,3.381a3.089,3.089,0,0,1,1.641,2.664A3.09,3.09,0,0,1,9.934,8.71L.993,13.827A1.991,1.991,0,0,1,0,14.091Z" transform="translate(833.424 1876.499)"/>
  </g>
</svg>
