<svg xmlns="http://www.w3.org/2000/svg" width="317.156" height="78.446" viewBox="0 0 317.156 78.446">
  <g id="Group_37690" data-name="Group 37690" transform="translate(-526.523 -2027.916)">
    <path id="Path_37733" data-name="Path 37733" d="M0,14.091a2,2,0,0,1-1.738-1.007,2,2,0,0,1,.743-2.729L6.538,6.045-.993,1.736A2,2,0,0,1-1.736-.993,2,2,0,0,1,.993-1.736L9.935,3.381a3.089,3.089,0,0,1,1.641,2.664A3.09,3.09,0,0,1,9.934,8.71L.993,13.827A1.991,1.991,0,0,1,0,14.091Z" transform="translate(832.104 2029.917)"/>
    <path id="Path_39123" data-name="Path 39123" d="M0-71.84v-4c1.008,0,2.024,0,3.02,0l.01,4C2.03-71.841,1.011-71.84,0-71.84Zm6.016-.015-.02-4c1.005-.005,2.019-.012,3.012-.019l.031,4C8.042-71.866,7.025-71.86,6.017-71.855ZM12.03-71.9l-.042-4c1-.01,2.016-.022,3.007-.036l.053,4C14.054-71.924,13.038-71.912,12.03-71.9Zm6.012-.08-.065-4c1-.016,2.015-.034,3.005-.054l.077,4C20.065-72.016,19.05-72,18.042-71.981Zm6.01-.117-.09-4c1-.023,2.015-.047,3.006-.073l.1,4C26.076-72.145,25.061-72.121,24.052-72.1Zm6.007-.156-.117-4c1.005-.03,2.018-.061,3.009-.094l.132,4C32.087-72.315,31.07-72.283,30.059-72.253Zm6.01-.2-.147-4c1.005-.037,2.017-.076,3.008-.117l.163,4C38.1-72.528,37.08-72.489,36.07-72.452Zm6.02-.245-.179-4c1-.045,2.007-.092,2.992-.141l.2,4C44.108-72.79,43.1-72.742,42.09-72.7Zm6.017-.3-.215-3.994c.994-.053,1.993-.109,2.971-.166l.233,3.993C50.113-73.1,49.107-73.047,48.107-72.993Zm6.01-.352-.253-3.992c1-.063,2-.129,2.976-.2l.274,3.991C56.128-73.475,55.12-73.408,54.117-73.345Zm6-.412-.3-3.989c1-.074,2.006-.152,2.989-.23l.319,3.987C62.136-73.91,61.123-73.832,60.115-73.757Zm6.006-.481-.344-3.985c1-.086,2-.175,2.972-.266l.369,3.983C68.133-74.415,67.124-74.325,66.12-74.238Zm6.007-.557-.4-3.98c.995-.1,1.993-.2,2.967-.307l.426,3.977C74.14-75,73.132-74.9,72.128-74.8Zm5.982-.64-.456-3.974c1-.114,1.995-.233,2.968-.353l.489,3.97C80.126-75.672,79.116-75.551,78.109-75.436Zm6-.739-.524-3.966c.992-.131,1.986-.267,2.954-.4l.561,3.961C86.12-76.446,85.114-76.308,84.11-76.175Zm5.976-.847-.6-3.955c.987-.15,1.975-.305,2.937-.462l.643,3.948C92.089-77.332,91.086-77.174,90.086-77.022Zm5.955-.97-.688-3.94c.985-.172,1.971-.35,2.929-.53l.737,3.932C98.044-78.348,97.042-78.167,96.04-77.992Zm5.951-1.117-.79-3.921c.979-.2,1.958-.4,2.909-.607l.846,3.909C103.987-79.518,102.99-79.31,101.991-79.109Zm5.922-1.283-.907-3.9c.971-.226,1.94-.46,2.88-.7l.973,3.88C109.9-80.863,108.906-80.623,107.913-80.392Zm5.888-1.479-1.045-3.861c.963-.261,1.923-.531,2.853-.8l1.123,3.839C115.776-82.416,114.79-82.138,113.8-81.871Zm5.845-1.711L118.44-87.4c.946-.3,1.889-.61,2.8-.922l1.3,3.784C121.6-84.211,120.623-83.891,119.646-83.582Zm5.76-1.976-1.394-3.749c.93-.346,1.856-.7,2.751-1.067l1.5,3.709C127.332-86.289,126.372-85.917,125.407-85.558Zm5.671-2.294-1.611-3.661c.9-.4,1.8-.81,2.671-1.226l1.729,3.607C132.958-88.7,132.019-88.267,131.077-87.852ZM136.6-90.5l-1.852-3.545c.868-.453,1.734-.926,2.574-1.4l1.979,3.476C138.424-91.474,137.515-90.979,136.6-90.5Zm5.344-3.043-2.106-3.4c.822-.509,1.649-1.043,2.457-1.585l2.23,3.321C143.681-94.642,142.812-94.081,141.948-93.546Zm5.1-3.422-2.347-3.239c.773-.56,1.562-1.152,2.347-1.761l2.451,3.161C148.679-98.172,147.854-97.554,147.047-96.969Zm4.839-3.746-2.538-3.091c.726-.6,1.467-1.218,2.263-1.9l2.6,3.036C153.4-101.969,152.634-101.329,151.886-100.714Zm4.612-3.947-2.647-3c.735-.649,1.447-1.283,2.235-1.985l2.662,2.986C157.956-105.954,157.24-105.316,156.5-104.661Zm4.486-3.987-2.65-3c.858-.759,1.581-1.392,2.277-1.991l2.612,3.029C162.54-110.018,161.828-109.4,160.983-108.648Zm4.5-3.868-2.549-3.082c.819-.678,1.6-1.3,2.378-1.915l2.465,3.15C167.022-113.775,166.272-113.171,165.481-112.517Zm4.633-3.619-2.363-3.228c.831-.608,1.675-1.2,2.508-1.77l2.247,3.309C171.712-117.284,170.907-116.716,170.114-116.136Zm4.843-3.288-2.124-3.389c.864-.541,1.751-1.075,2.637-1.585l2,3.466C176.624-120.446,175.779-119.939,174.957-119.424Zm5.07-2.922-1.87-3.536c.892-.472,1.813-.938,2.736-1.386l1.746,3.6C181.757-123.242,180.879-122.8,180.027-122.346Zm5.276-2.562-1.627-3.654c.915-.408,1.861-.811,2.811-1.2l1.515,3.7C187.09-125.687,186.182-125.3,185.3-124.908Zm5.439-2.227-1.409-3.744c.936-.352,1.9-.7,2.875-1.038l1.31,3.779C192.58-127.813,191.646-127.476,190.742-127.135Zm5.57-1.933-1.219-3.81c.948-.3,1.927-.6,2.908-.895l1.134,3.836C198.183-129.655,197.233-129.363,196.312-129.069Zm5.672-1.679-1.056-3.858c.96-.263,1.949-.523,2.94-.775l.984,3.877C203.885-131.258,202.92-131,201.984-130.748Zm5.751-1.46-.917-3.894c.966-.227,1.962-.453,2.958-.671l.855,3.908C209.656-132.652,208.682-132.431,207.735-132.208Zm5.8-1.27-.8-3.92c.971-.2,1.97-.394,2.968-.583l.744,3.93C215.472-133.865,214.491-133.672,213.538-133.478Zm5.838-1.107-.695-3.939c.975-.172,1.976-.342,2.976-.507l.649,3.947C221.321-134.922,220.336-134.754,219.376-134.585Zm5.869-.966-.606-3.954c.979-.15,1.984-.3,2.987-.442l.566,3.96C227.2-135.846,226.21-135.7,225.245-135.551Zm5.9-.845-.529-3.965c.985-.131,1.995-.261,3-.387l.494,3.969C233.119-136.654,232.121-136.525,231.148-136.4Zm5.923-.737-.461-3.973c.981-.114,1.987-.226,2.989-.335l.43,3.977C239.037-137.357,238.042-137.245,237.071-137.133Zm5.929-.641-.4-3.98c.99-.1,2-.2,3.014-.293l.373,3.983C244.985-137.971,243.981-137.873,243-137.774Zm5.947-.558-.347-3.985c.986-.086,1.994-.171,3-.252l.323,3.987C250.925-138.5,249.925-138.417,248.947-138.332Zm5.967-.483-.3-3.989c.984-.074,1.99-.146,2.991-.216l.277,3.99C256.89-138.96,255.891-138.888,254.915-138.815Zm5.95-.414-.256-3.992c.993-.064,2.009-.126,3.02-.186l.236,3.993C262.861-139.354,261.852-139.292,260.865-139.229Zm5.968-.353-.217-3.994c.992-.054,2.006-.107,3.014-.157l.2,4C268.827-139.688,267.819-139.635,266.833-139.582Zm5.979-.3-.182-4c.989-.045,2-.089,3-.13l.165,4C274.8-139.968,273.8-139.925,272.812-139.88Zm5.986-.247-.149-4c.986-.037,1.993-.072,2.993-.106l.134,4C280.78-140.2,279.778-140.164,278.8-140.127Zm5.989-.2-.119-4c.984-.029,1.988-.058,2.985-.084l.106,4C286.765-140.386,285.765-140.357,284.786-140.328Zm5.983-.158-.092-4c.984-.023,1.988-.044,2.985-.064l.079,4C292.75-140.53,291.75-140.509,290.77-140.486Zm5.984-.119-.067-4c.985-.016,1.99-.032,2.987-.045l.055,4C298.736-140.636,297.735-140.621,296.754-140.6Zm5.989-.082-.043-4c.984-.011,1.989-.02,2.985-.028l.032,4C304.724-140.707,303.724-140.7,302.743-140.687Zm5.993-.049-.022-4c.983-.005,1.986-.009,2.981-.012l.011,4C310.715-140.745,309.715-140.741,308.735-140.736Zm5.984-.017v-4h.438v4Z" transform="translate(526.523 2178.202)"/>
  </g>
</svg>
