<svg xmlns="http://www.w3.org/2000/svg" xmlns:xlink="http://www.w3.org/1999/xlink" width="835" height="479" viewBox="0 0 835 479">
  <defs>
    <clipPath id="clip-path">
      <rect id="Rectangle_2786" data-name="Rectangle 2786" width="835" height="479" transform="translate(0 1775)" fill="#fff" stroke="#707070" stroke-width="1"/>
    </clipPath>
  </defs>
  <g id="Mask_Group_26" data-name="Mask Group 26" transform="translate(0 -1775)" clip-path="url(#clip-path)">
    <g id="Group_37617" data-name="Group 37617">
      <path id="Path_39136" data-name="Path 39136" d="M387.048,489.371a1.176,1.176,0,0,0-1.181.8,1.028,1.028,0,0,0,.932,1.2c129.225,22.856,237.312,76.653,321.809,160.078a267.744,267.744,0,0,0-28.669,32.788c-18.055,24.487-25.274,45.8-22.075,65.152,3.692,22.33,26.942,45,55.712,43.153,29.061-1.865,48.207-27.97,47.852-51.18-.376-24.934-8.93-45.894-26.9-65.956q-11.067-12.352-22.732-23.944c53.08-51.132,134.177-90.4,246.194-119.4,51.157-13.247,111.726-25.95,173-19.714,63.4,6.453,120.4,38.427,145.061,78.018.307.495.01-.826.6-1.086s.313-1.79,0-2.29c-25.02-40.174-81.187-70.12-145.368-76.653-61.744-6.285-122.615,6.48-174.016,19.789C844.978,559.2,763.6,598.578,710.213,649.89,625.4,566.258,516.945,512.315,387.3,489.388A2.451,2.451,0,0,0,387.048,489.371ZM710.271,790.625c-25.947,0-46.608-20.911-50.013-41.513-3.12-18.865,3.993-39.741,21.741-63.813a265.939,265.939,0,0,1,28.187-32.28q11.488,11.43,22.393,23.6c17.653,19.7,26.047,40.285,26.418,64.772.339,22.295-17.907,47.357-45.612,49.138C712.342,790.59,711.3,790.625,710.271,790.625Z" transform="translate(-441.059 1307.193)"/>
      <path id="Path_39137" data-name="Path 39137" d="M1449.458,654.9a.575.575,0,0,0,.27-.067.589.589,0,0,0,.254-.794c-.83-1.611-20.6-39.407-43.5-32.237a.588.588,0,1,0,.352,1.123c21.951-6.877,41.9,31.266,42.1,31.652A.578.578,0,0,0,1449.458,654.9Z" transform="translate(-1114.104 1263.527)" fill="#fea300"/>
      <path id="Path_39138" data-name="Path 39138" d="M1076.478,553.955a.646.646,0,0,0,.118-.012l23.342-5.044a.559.559,0,0,0,.438-.479c.6-4.777.144-28.449-3.37-32.3-1.135-1.243-2.2-1.746-3.182-1.5a2.437,2.437,0,0,0-1.348.974c-.56-2.2-1.732-5.675-3.6-6.037a2.059,2.059,0,0,0-1.6.35,4.452,4.452,0,0,0-1.392,2,3.368,3.368,0,0,0-3.1-2.341,2.135,2.135,0,0,0-1.575.739,6.033,6.033,0,0,0-1.128,3.314,4.677,4.677,0,0,0-2.111-2.28,2.009,2.009,0,0,0-1.864.23c-2.008,1.289-1.411,7.076-.78,10.838a5.258,5.258,0,0,0-2.683-2.03,2.243,2.243,0,0,0-1.957.509c-1.989,1.649-.783,4.718.384,7.688a25.664,25.664,0,0,1,1.343,4.031c.8,3.958,3.493,20.705,3.52,20.874a.559.559,0,0,0,.237.374A.571.571,0,0,0,1076.478,553.955Zm22.831-6.068-22.371,4.833c-.487-3.013-2.718-16.777-3.434-20.333a26.612,26.612,0,0,0-1.4-4.219c-1.066-2.717-2.077-5.283-.712-6.416a1.117,1.117,0,0,1,1-.274c1.446.313,3.043,3,3.537,4.016a.561.561,0,0,0,1.052-.367c-1.032-4.65-1.8-11.635-.284-12.609a.877.877,0,0,1,.856-.127c1.086.416,2.121,2.85,2.517,4.285a.562.562,0,0,0,1.1-.2c-.1-1.128-.144-4.3.859-5.42a1,1,0,0,1,.763-.364h.042c2.143,0,2.453,3.437,2.456,3.471a.562.562,0,0,0,.54.514.575.575,0,0,0,.575-.475c.11-.722.6-2.735,1.507-3.375a.917.917,0,0,1,.744-.166c1.286.249,2.571,4.1,3.074,6.749a.559.559,0,0,0,.533.455.571.571,0,0,0,.563-.421c.108-.421.55-1.553,1.272-1.734.675-.169,1.5.543,2.077,1.172C1099.145,520.128,1099.884,542.014,1099.309,547.887Z" transform="translate(-683.961 1354.642)" stroke="#000" stroke-width="1"/>
      <path id="Path_39139" data-name="Path 39139" d="M1099.309,544.825a.483.483,0,0,0,.059,0,.561.561,0,0,0,.5-.616c-.139-1.323-.765-6.548-.765-6.548l-1.113.135s.626,5.212.763,6.531A.561.561,0,0,0,1099.309,544.825Zm4.975-.377a.562.562,0,0,0,.558-.5c.306-3.021-1.487-14.539-1.563-15.028a.561.561,0,0,0-1.108.174c.02.117,1.847,11.863,1.556,14.742a.559.559,0,0,0,.5.614Zm5.276-1.585a.559.559,0,0,0,.545-.435c.516-2.265-1.375-14.532-1.592-15.921a.561.561,0,1,0-1.108.174c.582,3.72,2,13.759,1.607,15.5a.563.563,0,0,0,.421.673A.8.8,0,0,0,1109.56,542.863Zm5.613-.536a.56.56,0,0,0,.555-.492c.228-1.837-.736-11.692-.778-12.11a.562.562,0,0,0-1.118.11c.276,2.818.959,10.439.783,11.863a.561.561,0,0,0,.487.626Z" transform="translate(-706.068 1342.167)" stroke="#000" stroke-width="1"/>
      <path id="Path_39140" data-name="Path 39140" d="M1030.749,754.394a81.676,81.676,0,0,0,16.034,4.82,84.93,84.93,0,0,0,21.065,1.631c.269-.014.538-.036.807-.05a64.721,64.721,0,0,0,23.84-6.037,60.76,60.76,0,0,0,8.875-5.2,63.941,63.941,0,0,0,6.634-5.389c1.493-1.384,2.972-2.877,4.4-4.487,32.919-36.744,14.345-81.444,12.459-83.935s-31.019,4.427-31.019,4.427,11.2,31.989-2.4,51.335c-19.282,27.438-57.031,19.675-57.031,19.675Z" transform="translate(-705.889 1243.646)" fill="#ed85c0" stroke="#000" stroke-width="2"/>
      <path id="Path_39141" data-name="Path 39141" d="M745.021,1923.371l10.952,38.554a9.226,9.226,0,0,0,11.43,6.3l34.88-10.085a7.915,7.915,0,0,0,5.367-9.837,17.284,17.284,0,0,0-21.32-11.666l-2.162.626a10.326,10.326,0,0,1-12.783-7.049L767.7,1916.81Z" transform="translate(-314.044 282.474)" fill="#c16cf9" stroke="#000" stroke-width="2"/>
      <path id="Path_39142" data-name="Path 39142" d="M745.683,2002.889a17.027,17.027,0,0,0,21.082,11.626,16.565,16.565,0,0,0,2.146-.783,7.857,7.857,0,0,0-.09-4.148,17.284,17.284,0,0,0-21.32-11.666l-2.479.717A17.064,17.064,0,0,0,745.683,2002.889Z" transform="translate(-275.214 221.199)" fill="#fff" stroke="#141414" stroke-width="2"/>
      <path id="Path_39143" data-name="Path 39143" d="M795.865,2055.03a7.893,7.893,0,0,1-5.639,8.425l-34.882,10.085a9.229,9.229,0,0,1-10.292-3.82Z" transform="translate(-301.984 177.169)"/>
      <path id="Path_39144" data-name="Path 39144" d="M901.067,1938.22l-4.086-14.812,22.682-6.558,4.086,14.812Z" transform="translate(-466.003 282.444)" fill="#fff" stroke="#111" stroke-width="2"/>
      <path id="Path_39145" data-name="Path 39145" d="M5.942,5.761l1.419.262A.275.275,0,0,0,7.68,5.8l.583-3.155a.275.275,0,0,0-.219-.319L6.625,2.067a.275.275,0,0,0-.319.219L5.722,5.441A.271.271,0,0,0,5.942,5.761ZM3.082,4.729,4.5,4.991a.275.275,0,0,0,.319-.219L5.4,1.617A.275.275,0,0,0,5.184,1.3L3.765,1.036a.275.275,0,0,0-.319.219L2.863,4.41A.277.277,0,0,0,3.082,4.729ZM.224,3.7l1.419.262a.275.275,0,0,0,.319-.219L2.546.586A.275.275,0,0,0,2.327.267L.907,0A.275.275,0,0,0,.588.224L0,3.379A.273.273,0,0,0,.224,3.7Z" transform="matrix(0.978, 0.208, -0.208, 0.978, 457.635, 2216.857)"/>
      <path id="Path_39146" data-name="Path 39146" d="M1207.932,1856.29l-19.772,34.863a9.227,9.227,0,0,0,3.534,12.566l31.667,17.765a7.913,7.913,0,0,0,10.773-3.082,17.281,17.281,0,0,0-6.656-23.373l-1.965-1.1a10.327,10.327,0,0,1-3.953-14.052l6.965-12.033Z" transform="translate(-847.591 328.583)" fill="#c16cf9" stroke="#000" stroke-width="2"/>
      <path id="Path_39147" data-name="Path 39147" d="M1189.165,2017.133a17.029,17.029,0,0,0,6.518,23.177,16.573,16.573,0,0,0,2.062.979,7.89,7.89,0,0,0,2.891-2.974,17.282,17.282,0,0,0-6.656-23.373l-2.25-1.262A16.918,16.918,0,0,0,1189.165,2017.133Z" transform="translate(-814.648 208.615)" fill="#fff" stroke="#000" stroke-width="2"/>
      <path id="Path_39148" data-name="Path 39148" d="M1245.756,2039.318a7.9,7.9,0,0,1-9.961,1.9l-31.669-17.765a9.231,9.231,0,0,1-4.506-10.011Z" transform="translate(-860.03 208.855)"/>
      <path id="Path_39149" data-name="Path 39149" d="M1219.56,1869.617l7.68-13.307,20.594,11.552-7.68,13.309Z" transform="translate(-866.905 328.567)" fill="#fff" stroke="#000" stroke-width="2"/>
      <path id="Path_39150" data-name="Path 39150" d="M860.306,1275.2l.81,1.2a.275.275,0,0,0,.381.074l2.657-1.8a.275.275,0,0,0,.074-.381l-.81-1.2a.275.275,0,0,0-.381-.074l-2.658,1.8A.275.275,0,0,0,860.306,1275.2Zm-1.272-2.76.81,1.2a.275.275,0,0,0,.381.074l2.658-1.8a.275.275,0,0,0,.074-.381l-.81-1.2a.275.275,0,0,0-.381-.074l-2.658,1.8A.275.275,0,0,0,859.034,1272.437Zm-1.272-2.76.81,1.2a.275.275,0,0,0,.381.074l2.658-1.8a.275.275,0,0,0,.074-.381l-.81-1.2a.275.275,0,0,0-.381-.074l-2.658,1.8A.275.275,0,0,0,857.762,1269.677Zm-12.085-161.9,26.731-55.792a10.564,10.564,0,0,1,9.968-5.989l67,2.815a8.562,8.562,0,0,1,6.956,13.007l-30.833,50.658Z" transform="translate(-489.092 945.783)"/>
      <path id="Path_39151" data-name="Path 39151" d="M903.723,1331.521c-17.25-.262-25.673,15.221-26.5,32.455-.007.133-.012.267-.017.4a23.089,23.089,0,0,0,23.132,23.821h74.584s20.8,99.707,29.374,99.861c6.758.124,38.356-5.625,37.313-15.445-.879-8.261-20.5-126.651-34.2-134.053C993.333,1330.961,903.723,1331.521,903.723,1331.521Z" transform="translate(-579.18 728.394)" fill="#80d4ec" stroke="#000" stroke-width="2"/>
      <path id="Path_39152" data-name="Path 39152" d="M988.576,1333.144c10.638-28.274,20.6-54.392,20.6-54.392l-77.386-2s66.98-12.824,94.608-16.724c12.266-1.731,29.148-.476,32.832,24.24s-54.747,132.929-57.309,137.013c-5.113,8.151-40.547-9.973-38.521-18.953,1.034-4.572,13.512-38.175,25.178-69.185Z" transform="translate(-609.938 783.253)" fill="#80d4ec" stroke="#000" stroke-width="2"/>
      <path id="Path_39153" data-name="Path 39153" d="M1031.715,1445.942c10.7-21.077,25.287-51.182,34.063-74.9l-1.024-.379c-8.756,23.666-23.33,53.728-34.013,74.781Zm-29.238-57.838c10.514-27.947,20.5-54.128,20.6-54.39l.274-.719-62.11-1.6-.029,1.091,60.569,1.564c-1.679,4.408-10.785,28.312-20.325,53.673Z" transform="translate(-623.327 728.486)"/>
      <g id="Group_37591" data-name="Group 37591" transform="translate(269.814 1971.203)">
        <path id="Path_39154" data-name="Path 39154" d="M1354.182,1046.778a46.311,46.311,0,0,1-22.489-89.831c.607-.167,1.219-.317,1.838-.46a46.311,46.311,0,1,1,20.651,90.291Z" transform="translate(-1297.531 -955.308)" fill="#ed85c0" stroke="#000" stroke-width="2"/>
      </g>
      <g id="Group_37592" data-name="Group 37592" transform="translate(340.397 2024.607)">
        <path id="Path_39155" data-name="Path 39155" d="M1223.533,1195.467s9.918-2.622,13.469-4.525,7.327-6.734,9.975-4.979-2.162,6.2-2.162,6.2,10.166-5.71,12.416-3.786-3.02,5.241-3.02,5.241,5.8-2.343,6.637.224-2.879,4.022-2.879,4.022,4.37-.626,4.6,1.6-5.772,5.355-5.772,5.355,4.375-.2,1.979,3.827-23.961,11.219-29.057,12.083Z" transform="translate(-1222.989 -1185.037)" fill="#fff" stroke="#0d0d0d" stroke-width="1"/>
        <path id="Path_39156" data-name="Path 39156" d="M1227.977,1219.523a.609.609,0,0,0,.093-.007c4.665-.793,26.814-7.942,29.436-12.343.845-1.419,1.017-2.567.51-3.415a2.391,2.391,0,0,0-1.307-.993c1.912-1.153,4.855-3.243,4.665-5.108a2.014,2.014,0,0,0-.784-1.407,4.392,4.392,0,0,0-2.288-.741,3.28,3.28,0,0,0,1.331-3.589,2.084,2.084,0,0,0-1.141-1.269,5.95,5.95,0,0,0-3.453-.117,4.614,4.614,0,0,0,1.557-2.643,1.964,1.964,0,0,0-.745-1.684c-1.784-1.526-7.075.691-10.435,2.353a5.2,5.2,0,0,0,1.16-3.115,2.2,2.2,0,0,0-1.031-1.693c-2.112-1.4-4.66.6-7.123,2.543a25.527,25.527,0,0,1-3.412,2.41c-3.453,1.85-13.252,4.453-13.35,4.479a.545.545,0,0,0-.391.657l6.18,25.264A.541.541,0,0,0,1227.977,1219.523Zm27.2-15.912c.491,0,1.548.121,1.9.71s-.083,1.574-.512,2.293c-2.2,3.689-22.334,10.535-28.181,11.73l-5.93-24.242c2.11-.572,9.933-2.751,13.069-4.432a25.944,25.944,0,0,0,3.572-2.515c2.255-1.779,4.386-3.455,5.841-2.491a1.1,1.1,0,0,1,.545.869c.117,1.455-1.965,3.722-2.779,4.472a.546.546,0,0,0,.638.876c4.084-2.293,10.444-5,11.795-3.846a.873.873,0,0,1,.364.774c-.083,1.141-2.081,2.808-3.322,3.589a.545.545,0,0,0,.5.967c1.031-.417,4-1.357,5.349-.731a.988.988,0,0,1,.564.617c.667,2.055-2.527,3.332-2.56,3.344a.545.545,0,0,0-.329.648.552.552,0,0,0,.6.4c.71-.1,2.743-.214,3.608.462a.909.909,0,0,1,.369.657c.131,1.281-3.127,3.586-5.482,4.815a.546.546,0,0,0,.276,1.029A.768.768,0,0,0,1255.179,1203.611Z" transform="translate(-1221.253 -1183.285)" stroke="#0d0d0d" stroke-width="1"/>
        <path id="Path_39157" data-name="Path 39157" d="M1241.139,1214.724a.552.552,0,0,0,.212-.043c1.205-.507,5.944-2.582,5.944-2.582l-.438-1s-4.727,2.069-5.929,2.574a.545.545,0,0,0-.293.714A.552.552,0,0,0,1241.139,1214.724Zm1.767,4.572a.526.526,0,0,0,.1-.01c2.929-.569,13.262-5.53,13.7-5.739a.546.546,0,1,0-.474-.983c-.1.05-10.642,5.108-13.433,5.651a.546.546,0,0,0,.1,1.081Zm2.991,4.517a.217.217,0,0,0,.038,0c2.277-.157,13.283-5.42,14.531-6.02a.546.546,0,1,0-.474-.983c-3.339,1.6-12.383,5.794-14.133,5.913a.547.547,0,0,0,.038,1.093Zm2.1,5.13a.592.592,0,0,0,.093-.007c1.793-.307,10.795-4.015,11.176-4.172a.546.546,0,0,0-.415-1.01c-2.572,1.062-9.554,3.867-10.944,4.105a.546.546,0,0,0,.09,1.084Z" transform="translate(-1225.252 -1204.476)" stroke="#0d0d0d" stroke-width="1"/>
      </g>
      <g id="Group_37593" data-name="Group 37593" transform="translate(263.625 1981.472)">
        <path id="Path_39158" data-name="Path 39158" d="M1363.6,993.81c-24.071,18.686-31.739,53.978-16.205,74.7,21.13,28.2,80.237,5.437,80.237,5.437l-6.646-28.609s-43.093,18.386-53.735,5.194c-5.872-7.282-3.744-19.394-.655-28.786a33.821,33.821,0,0,0-3-27.94Z" transform="translate(-1339.32 -993.81)" fill="#ed85c0" stroke="#030303" stroke-width="2"/>
      </g>
      <g id="Group_37594" data-name="Group 37594" transform="translate(299.446 2081.668)">
        <path id="Path_39159" data-name="Path 39159" d="M1415.424,1457.856l1.948-30.526-45.017-4.429-.1,1.088,43.964,4.324-1.881,29.474Z" transform="translate(-1372.25 -1422.9)" stroke="#000" stroke-width="1"/>
      </g>
      <g id="Group_37595" data-name="Group 37595" transform="translate(307.782 2083.14)">
        <rect id="Rectangle_2785" data-name="Rectangle 2785" width="1.093" height="29.96" transform="translate(1.093 29.977) rotate(-178.597)" stroke="#000" stroke-width="1"/>
      </g>
      <g id="Group_37596" data-name="Group 37596" transform="translate(356.624 2174.492)">
        <path id="Path_39160" data-name="Path 39160" d="M1190.019,1832.9l.126-1.086a69.633,69.633,0,0,1-40.321-19.117l-.774.769A70.739,70.739,0,0,0,1190.019,1832.9Z" transform="translate(-1149.05 -1812.7)" stroke="#000" stroke-width="1"/>
      </g>
      <g id="Group_37597" data-name="Group 37597" transform="translate(360.392 2164.017)">
        <path id="Path_39161" data-name="Path 39161" d="M1170.064,1789.754l.117-1.086a69.161,69.161,0,0,1-41.595-19.958l-.8.748A70.292,70.292,0,0,0,1170.064,1789.754Z" transform="translate(-1127.79 -1768.71)" stroke="#000" stroke-width="1"/>
      </g>
      <g id="Group_37598" data-name="Group 37598" transform="translate(416.549 2189.676)">
        <path id="Path_39162" data-name="Path 39162" d="M889.706,1887.5a76.4,76.4,0,0,0,37.9-10.087l-.543-.948a74.845,74.845,0,0,1-43.85,9.63l-.109,1.086C884.731,1887.341,886.979,1887.5,889.706,1887.5Z" transform="translate(-883.1 -1876.46)" stroke="#000" stroke-width="1"/>
      </g>
      <g id="Group_37599" data-name="Group 37599" transform="translate(413.064 2178.1)">
        <path id="Path_39163" data-name="Path 39163" d="M899.007,1839.242a75.906,75.906,0,0,0,38.38-10.452l-.553-.941a74.221,74.221,0,0,1-45.338,9.882l-.126,1.083A65.935,65.935,0,0,0,899.007,1839.242Z" transform="translate(-891.37 -1827.85)" stroke="#000" stroke-width="1"/>
      </g>
      <g id="Group_37600" data-name="Group 37600" transform="translate(409.272 2016.098)">
        <path id="Path_39164" data-name="Path 39164" d="M1031.475,1165.186a11.79,11.79,0,0,0,10.809-8.69,7.323,7.323,0,0,0-1.172-6.4,6.954,6.954,0,0,0-5.627-2.548,11.79,11.79,0,0,0-10.809,8.69h0a7.33,7.33,0,0,0,1.172,6.4A6.955,6.955,0,0,0,1031.475,1165.186Zm4.01-16.546a5.885,5.885,0,0,1,4.767,2.131,6.263,6.263,0,0,1,.967,5.468,10.642,10.642,0,0,1-9.747,7.856,5.887,5.887,0,0,1-4.767-2.131,6.265,6.265,0,0,1-.967-5.468A10.642,10.642,0,0,1,1035.485,1148.641Z" transform="translate(-1024.417 -1147.55)" fill="#fff"/>
      </g>
      <g id="Group_37602" data-name="Group 37602" transform="translate(323.402 1910.969)">
        <path id="Path_39165" data-name="Path 39165" d="M1386.268,742.651c1.359,7.642,7.82,13.314,14.447,12.664s10.885-7.373,9.534-15.018-7.82-13.314-14.447-12.664S1384.916,735.008,1386.268,742.651Z" transform="translate(-1385.431 -726.715)" fill="#fea300"/>
        <path id="Path_39166" data-name="Path 39166" d="M1397.989,754.257c.362,0,.722-.018,1.085-.054a10.813,10.813,0,0,0,7.614-4.32,14.628,14.628,0,0,0,2.444-11.386c-1.411-7.928-8.179-13.818-15.084-13.147a10.813,10.813,0,0,0-7.614,4.32,14.627,14.627,0,0,0-2.444,11.387h0C1385.326,748.567,1391.472,754.257,1397.989,754.257Zm-2.847-27.781c5.959,0,11.592,5.273,12.831,12.229a13.451,13.451,0,0,1-2.223,10.469,9.636,9.636,0,0,1-6.789,3.857c-6.306.622-12.5-4.846-13.81-12.18h0a13.462,13.462,0,0,1,2.22-10.469,9.642,9.642,0,0,1,6.789-3.857C1394.489,726.493,1394.816,726.475,1395.142,726.475Zm-10.572,14.478h0Z" transform="translate(-1383.733 -725.017)"/>
        <g id="Group_37601" data-name="Group 37601" transform="translate(9.785 0)">
          <path id="Path_39167" data-name="Path 39167" d="M1377.686,726.543c6.628-.65,13.088,5.021,14.447,12.664s-2.917,14.367-9.534,15.018l-2.878.283c6.617-.65,10.885-7.373,9.534-15.018s-7.82-13.314-14.447-12.664Z" transform="translate(-1374.219 -725.905)"/>
          <path id="Path_39168" data-name="Path 39168" d="M1378.022,753.4a.477.477,0,0,0,.059,0l2.878-.283a10.812,10.812,0,0,0,7.614-4.32,14.628,14.628,0,0,0,2.444-11.386c-1.411-7.928-8.18-13.82-15.084-13.147l-2.878.283a.59.59,0,1,0,.116,1.174h0c6.309-.619,12.5,4.846,13.807,12.181a13.45,13.45,0,0,1-2.223,10.469,9.649,9.649,0,0,1-6.789,3.857h0a.589.589,0,0,0,.056,1.174Zm1.108-27.8c5.132,1.059,9.637,5.882,10.726,12.011a13.451,13.451,0,0,1-2.223,10.469,9.843,9.843,0,0,1-4.163,3.217,11.368,11.368,0,0,0,2.223-2.22,14.627,14.627,0,0,0,2.444-11.387A16.452,16.452,0,0,0,1379.13,725.6Z" transform="translate(-1372.523 -724.206)"/>
        </g>
      </g>
      <g id="Group_37603" data-name="Group 37603" transform="translate(264.887 1877.596)">
        <path id="Path_39169" data-name="Path 39169" d="M1463.625,723.779c2.056,16.454-7.455,32.615-23.493,34.566s-32.533-11.05-34.591-27.5,9.279-31.371,25.319-33.322S1461.569,707.327,1463.625,723.779Z" transform="translate(-1385.275 -670.847)" fill="#fff" stroke="#090909" stroke-width="1"/>
        <path id="Path_39170" data-name="Path 39170" d="M1435.231,757.416a26.831,26.831,0,0,0,3.269-.2,25.752,25.752,0,0,0,17.472-10.027,34.213,34.213,0,0,0,6.535-25.2h0c-2.094-16.75-17.086-28.758-33.419-26.774a29.211,29.211,0,0,0-19.6,11.14,30.658,30.658,0,0,0-6.229,22.84C1405.2,744.747,1419.964,757.416,1435.231,757.416Zm26.109-35.272a33.029,33.029,0,0,1-6.3,24.325,24.6,24.6,0,0,1-16.685,9.583c-15.758,1.917-31.929-10.95-33.933-26.992a29.487,29.487,0,0,1,5.99-21.969,28.021,28.021,0,0,1,18.816-10.693c15.691-1.909,30.094,9.639,32.109,25.746Z" transform="translate(-1383.573 -669.137)" stroke="#090909" stroke-width="1"/>
        <path id="Path_39171" data-name="Path 39171" d="M1597.258,829.174a9.138,9.138,0,0,0,18.212-1.388,8.432,8.432,0,0,0-.738-2.863,9.259,9.259,0,0,0-16.816.29A8.368,8.368,0,0,0,1597.258,829.174Z" transform="translate(-1593.559 -761.774)" fill="#fff" stroke="#090909" stroke-width="1"/>
        <path id="Path_39172" data-name="Path 39172" d="M1607.581,836.195c.255,0,.511-.01.771-.028a9.944,9.944,0,0,0,5.98-2.593.589.589,0,1,0-.8-.866,8.761,8.761,0,0,1-5.271,2.282,8.394,8.394,0,0,1-9.143-7.547,7.841,7.841,0,0,1,.612-3.68,8.669,8.669,0,0,1,15.737-.28.589.589,0,1,0,1.074-.483,9.848,9.848,0,0,0-17.9.306,9.013,9.013,0,0,0-.7,4.23A9.552,9.552,0,0,0,1607.581,836.195Z" transform="translate(-1594.835 -760.086)" stroke="#090909" stroke-width="1"/>
        <path id="Path_39173" data-name="Path 39173" d="M1523.529,702.613s5.856,1.313,9.046,6.047c0,0,19.641-3.744,22.239-19.754s-12.7-30.387-27.663-25.5-7.116,19.761-7.116,19.761-8.945,1.3-9.022,10.5,5.959,11.973,5.959,11.973A8.607,8.607,0,0,1,1523.529,702.613Z" transform="translate(-1511.01 -644.937)" stroke="#090909" stroke-width="1"/>
        <ellipse id="Ellipse_394" data-name="Ellipse 394" cx="21.766" cy="22.565" rx="21.766" ry="22.565" transform="matrix(-0.076, -0.997, 0.997, -0.076, 30.413, 46.831)" stroke="#090909" stroke-width="1"/>
        <ellipse id="Ellipse_395" data-name="Ellipse 395" cx="2.824" cy="2.107" rx="2.824" ry="2.107" transform="translate(52.358 61.64) rotate(-101.204)"/>
        <path id="Path_39174" data-name="Path 39174" d="M1485.135,797.675a.59.59,0,0,0,.547-.373,3.061,3.061,0,0,1,1.784-1.745,2.711,2.711,0,0,1,2.1,0,.59.59,0,0,0,.527-1.056,3.862,3.862,0,0,0-3.045-.051,4.237,4.237,0,0,0-2.457,2.41.589.589,0,0,0,.332.766A.5.5,0,0,0,1485.135,797.675Z" transform="translate(-1434.698 -742.816)" stroke="#090909" stroke-width="1"/>
        <ellipse id="Ellipse_396" data-name="Ellipse 396" cx="2.824" cy="2.107" rx="2.824" ry="2.107" transform="translate(68.673 55.836) rotate(-101.204)"/>
        <path id="Path_39175" data-name="Path 39175" d="M1432.572,775.1a.591.591,0,0,0,.547-.373,3.068,3.068,0,0,1,1.783-1.745,2.71,2.71,0,0,1,2.1,0,.59.59,0,0,0,.527-1.056,3.872,3.872,0,0,0-3.045-.051,4.226,4.226,0,0,0-2.457,2.413.59.59,0,0,0,.329.766A.561.561,0,0,0,1432.572,775.1Zm-4.97,20.35c1.539,0,5.1-.159,6.491-1.555a2.013,2.013,0,0,0,.619-1.524c-.064-1.65-.879-3.084-1.912-4.9a34.427,34.427,0,0,1-4.034-9.788.59.59,0,1,0-1.146.278,35.906,35.906,0,0,0,4.155,10.091c.989,1.742,1.706,3,1.758,4.361a.817.817,0,0,1-.275.645c-1.138,1.138-4.926,1.251-6.291,1.2a.583.583,0,0,0-.612.565.59.59,0,0,0,.565.612C1427.027,795.44,1427.266,795.448,1427.6,795.448Z" transform="translate(-1366.575 -726.041)" stroke="#090909" stroke-width="1"/>
      </g>
      <g id="Group_37604" data-name="Group 37604" transform="translate(280.758 1956.452)">
        <path id="Path_39176" data-name="Path 39176" d="M1516.83,914.59c10.533,0,15.832-12.44,15.886-12.571a.59.59,0,1,0-1.089-.452c-.054.131-5.577,13.06-16.323,11.752-9.693-1.177-11.813-11.435-11.834-11.538a.589.589,0,0,0-1.156.226c.023.111,2.315,11.2,12.849,12.481A13.276,13.276,0,0,0,1516.83,914.59Z" transform="translate(-1502.303 -901.203)"/>
      </g>
      <g id="Group_37605" data-name="Group 37605" transform="translate(306.821 1953.735)">
        <ellipse id="Ellipse_397" data-name="Ellipse 397" cx="3.652" cy="3.652" rx="3.652" ry="3.652" transform="translate(0 0)"/>
      </g>
      <g id="Group_37607" data-name="Group 37607" transform="translate(267.926 1930.419)">
        <path id="Path_39177" data-name="Path 39177" d="M1573.458,818.351c1.359,7.642,7.82,13.314,14.447,12.664s10.885-7.373,9.534-15.018-7.82-13.314-14.447-12.664S1572.106,810.708,1573.458,818.351Z" transform="translate(-1572.619 -802.412)" fill="#fea300"/>
        <path id="Path_39178" data-name="Path 39178" d="M1585.189,829.948c.362,0,.722-.018,1.084-.054a10.813,10.813,0,0,0,7.614-4.32,14.628,14.628,0,0,0,2.444-11.387c-1.411-7.928-8.172-13.823-15.084-13.149a10.813,10.813,0,0,0-7.614,4.32,14.627,14.627,0,0,0-2.444,11.386h0C1572.528,824.259,1578.672,829.948,1585.189,829.948Zm-2.847-27.781c5.959,0,11.592,5.273,12.831,12.229a13.45,13.45,0,0,1-2.223,10.469,9.642,9.642,0,0,1-6.789,3.857c-6.306.624-12.5-4.844-13.81-12.181h0a13.446,13.446,0,0,1,2.223-10.469,9.659,9.659,0,0,1,7.768-3.906Zm-10.569,14.478h0Z" transform="translate(-1570.933 -800.706)"/>
        <g id="Group_37606" data-name="Group 37606" transform="translate(9.785)">
          <path id="Path_39179" data-name="Path 39179" d="M1564.886,802.243c6.627-.65,13.088,5.021,14.447,12.664s-2.917,14.367-9.534,15.018l-2.878.283c6.617-.65,10.885-7.373,9.534-15.018s-7.82-13.314-14.447-12.664Z" transform="translate(-1561.419 -801.602)"/>
          <path id="Path_39180" data-name="Path 39180" d="M1565.223,829.089a.466.466,0,0,0,.059,0l2.878-.283a10.813,10.813,0,0,0,7.614-4.32,14.627,14.627,0,0,0,2.444-11.387c-1.411-7.928-8.179-13.823-15.084-13.149l-2.868.283h-.01a.59.59,0,1,0,.116,1.174h0c6.309-.619,12.5,4.847,13.807,12.181a13.45,13.45,0,0,1-2.223,10.469,9.654,9.654,0,0,1-6.789,3.857h0a.59.59,0,0,0,.057,1.177Zm1.108-27.8c5.132,1.059,9.637,5.882,10.726,12.011a13.451,13.451,0,0,1-2.223,10.469,9.843,9.843,0,0,1-4.163,3.217,11.316,11.316,0,0,0,2.223-2.223,14.627,14.627,0,0,0,2.444-11.386A16.442,16.442,0,0,0,1566.33,801.293Z" transform="translate(-1559.723 -799.896)"/>
        </g>
      </g>
      <g id="Group_37608" data-name="Group 37608" transform="translate(277.323 1885.301)">
        <path id="Path_39181" data-name="Path 39181" d="M1576.556,685.246a.6.6,0,0,0,.136-.016.589.589,0,0,0,.437-.709c-.123-.516-12.088-51.847,10.906-59.05a.588.588,0,1,0-.352-1.123c-24.04,7.529-12.217,58.292-11.7,60.448A.588.588,0,0,0,1576.556,685.246Z" transform="translate(-1572.624 -624.32)" fill="#fea300"/>
      </g>
      <g id="Group_37609" data-name="Group 37609" transform="translate(313.401 1949.797)">
        <path id="Path_39182" data-name="Path 39182" d="M1470.736,879.963h.077a.59.59,0,0,0,.586-.594.6.6,0,0,0-.594-.586h-.067a6.806,6.806,0,0,1-5.977-3.163.59.59,0,1,0-1.043.55A7.9,7.9,0,0,0,1470.736,879.963Z" transform="translate(-1463.65 -875.305)" stroke="#000" stroke-width="1"/>
      </g>
      <g id="Group_37612" data-name="Group 37612" transform="translate(137 1781.785)">
        <g id="Group_37610" data-name="Group 37610" transform="translate(0 2.959)">
          <path id="Path_39183" data-name="Path 39183" d="M1731.763,615.265H1896.3l-5.025-46.015H1715.81Z" transform="translate(-1715.81 -569.25)" stroke="#000" stroke-width="2"/>
        </g>
        <g id="Group_37611" data-name="Group 37611" transform="translate(1.255 0)">
          <path id="Path_39184" data-name="Path 39184" d="M1731.763,615.265H1896.3l-5.025-46.015H1715.81Z" transform="translate(-1715.81 -569.25)" fill="#fff" stroke="#000" stroke-width="2"/>
        </g>
      </g>
      <g id="Group_37613" data-name="Group 37613" transform="translate(249.109 1795.673)">
        <path id="Path_39185" data-name="Path 39185" d="M1794.851,639l-2.553,5.172-5.707.829,4.13,4.025-.974,5.685,5.1-2.685,5.1,2.685-.974-5.685,4.127-4.025-5.707-.829Z" transform="translate(-1786.591 -639)" fill="#f6d854" stroke="#000" stroke-width="2"/>
      </g>
      <path id="Path_39186" data-name="Path 39186" d="M1794.851,639l-2.553,5.172-5.707.829,4.13,4.025-.974,5.685,5.1-2.685,5.1,2.685-.974-5.685,4.127-4.025-5.707-.829Z" transform="translate(-1514.624 1156.673)" fill="#f6d854" stroke="#000" stroke-width="2"/>
      <g id="Group_37614" data-name="Group 37614" transform="translate(222.986 1795.673)">
        <path id="Path_39187" data-name="Path 39187" d="M1889.938,639l-2.551,5.172-5.707.829,4.128,4.025-.974,5.685,5.1-2.685,5.1,2.685-.974-5.685L1898.2,645l-5.707-.829Z" transform="translate(-1881.68 -639)" fill="#f6d854" stroke="#000" stroke-width="2"/>
      </g>
      <g id="Group_37615" data-name="Group 37615" transform="translate(197.952 1795.673)">
        <path id="Path_39188" data-name="Path 39188" d="M1985.041,639l-2.553,5.172-5.707.829,4.13,4.025-.974,5.685,5.1-2.685,5.1,2.685-.974-5.685L1993.3,645l-5.707-.829Z" transform="translate(-1976.781 -639)" fill="#f6d854" stroke="#000" stroke-width="2"/>
      </g>
      <g id="Group_37616" data-name="Group 37616" transform="translate(171.83 1795.673)">
        <path id="Path_39189" data-name="Path 39189" d="M2080.128,639l-2.551,5.172-5.707.829,4.127,4.025-.974,5.685,5.1-2.685,5.1,2.685-.974-5.685,4.13-4.025-5.707-.829Z" transform="translate(-2071.871 -639)" fill="#f6d854" stroke="#000" stroke-width="2"/>
      </g>
      <path id="Path_39190" data-name="Path 39190" d="M17.008,0C28.269.826,33.879,11.088,33.879,24.765S26.326,49.528,17.008,49.528-1.558,39.545-1.558,25.868,5.748-.824,17.008,0Z" transform="translate(280.984 1978.453)" fill="#ed85c0"/>
      <path id="Path_39191" data-name="Path 39191" d="M1165.829,598.1s16.35-11.464,14.193-22.944-14.839-7.7-17.941,0c0,0,8.228-36.465-4.991-39.3s-15.647,19.179-14.163,27.417c0,0-5.4-22.961-13.355-15.666s0,26.472,0,26.472-9.024-9.724-13.214,2.3,7.247,21.406,7.247,21.406l42.224.324Z" transform="translate(-571.238 1517.402)" fill="rgba(246,216,84,0.48)"/>
      <path id="Path_39192" data-name="Path 39192" d="M1197.608,637.513s26.661-18.693,23.143-37.413-24.2-12.553-29.255,0c0,0,13.417-59.46-8.138-64.085s-25.514,31.273-23.095,44.707c0,0-8.8-37.44-21.778-25.545s0,43.165,0,43.165-14.715-15.856-21.546,3.745,11.818,34.9,11.818,34.9l68.851.528Z" transform="translate(-503.07 1477.23)" fill="rgba(246,216,84,0.48)"/>
      <path id="Path_39193" data-name="Path 39193" d="M1541.088,1963.456a63.175,63.175,0,0,0-8.37-33.815l-.83.481a62.211,62.211,0,0,1,8.241,33.3Zm5.866-.321.961-.013-.182-13.909c-.051-3.935-.1-8,.214-11.981a64.256,64.256,0,0,1,4.495-19.012l-.89-.359a65.219,65.219,0,0,0-4.562,19.3c-.321,4.021-.269,8.112-.216,12.07Zm-15.115.12.935-.22a38.218,38.218,0,0,0-9.613-17.7l-.692.665A37.242,37.242,0,0,1,1531.839,1963.254Zm23.947-.076c1.162-5.753,5.3-11.5,12.286-17.075l-.6-.75c-7.17,5.723-11.419,11.656-12.629,17.636Z" transform="translate(-967.39 153.257)" stroke="#000" stroke-width="1"/>
      <path id="Path_39194" data-name="Path 39194" d="M1552.829,1992.209a103.015,103.015,0,0,0-13.649-55.139l-1.353.785a101.442,101.442,0,0,1,13.439,54.292Zm9.565-.524,1.566-.021-.3-22.68c-.083-6.417-.169-13.051.35-19.536a104.77,104.77,0,0,1,7.329-31l-1.451-.586a106.357,106.357,0,0,0-7.439,31.467c-.524,6.556-.438,13.228-.352,19.681Zm-24.647.2,1.525-.358a62.319,62.319,0,0,0-15.674-28.864l-1.128,1.083A60.727,60.727,0,0,1,1537.747,1991.88Zm39.048-.124c1.9-9.382,8.638-18.748,20.033-27.842l-.977-1.223c-11.691,9.331-18.621,19.006-20.593,28.757Z" transform="translate(-892.335 124.504)" stroke="#000" stroke-width="1"/>
      <path id="Path_39195" data-name="Path 39195" d="M1165.829,598.1s16.35-11.464,14.193-22.944-14.839-7.7-17.941,0c0,0,8.228-36.465-4.991-39.3s-15.647,19.179-14.163,27.417c0,0-5.4-22.961-13.355-15.666s0,26.472,0,26.472-9.024-9.724-13.214,2.3,7.247,21.406,7.247,21.406l42.224.324Z" transform="translate(-980.436 1517.402)" fill="rgba(246,216,84,0.48)"/>
      <path id="Path_39196" data-name="Path 39196" d="M1541.088,1963.456a63.175,63.175,0,0,0-8.37-33.815l-.83.481a62.211,62.211,0,0,1,8.241,33.3Zm5.866-.321.961-.013-.182-13.909c-.051-3.935-.1-8,.214-11.981a64.256,64.256,0,0,1,4.495-19.012l-.89-.359a65.219,65.219,0,0,0-4.562,19.3c-.321,4.021-.269,8.112-.216,12.07Zm-15.115.12.935-.22a38.218,38.218,0,0,0-9.613-17.7l-.692.665A37.242,37.242,0,0,1,1531.839,1963.254Zm23.947-.076c1.162-5.753,5.3-11.5,12.286-17.075l-.6-.75c-7.17,5.723-11.419,11.656-12.629,17.636Z" transform="translate(-1376.572 153.257)" stroke="#000" stroke-width="1"/>
    </g>
  </g>
</svg>
