<svg xmlns="http://www.w3.org/2000/svg" width="615.164" height="389.763" viewBox="0 0 615.164 389.763">
  <g id="Group_37691" data-name="Group 37691" transform="translate(-1219.836 -2750.143)">
    <g id="education" transform="translate(1221 2750.143)">
      <path id="Path_38499" data-name="Path 38499" d="M894.956,899.622c-1.459,2.363,2.286,5.194,2.286,5.194s-5.177-2.774-6.213-.463,2.28,4.043,2.28,4.043-4.013-1.028-4.451,1.029,4.844,5.58,4.844,5.58-4.061-.626-2.233,3.369,22.746,12.891,27.411,14.216l11.165-18.005S897.5,895.493,894.956,899.622Z" transform="translate(-747.991 -776.899)" fill="#fff"/>
      <path id="Path_38500" data-name="Path 38500" d="M917.038,931.323a.513.513,0,0,1-.141-.02c-3.9-1.1-25.742-10.13-27.739-14.5-.646-1.411-.69-2.5-.13-3.243a2.254,2.254,0,0,1,1.312-.794c-1.669-1.27-4.2-3.516-3.827-5.236a1.881,1.881,0,0,1,.875-1.235,4.1,4.1,0,0,1,2.2-.461,3.082,3.082,0,0,1-.871-3.479,1.972,1.972,0,0,1,1.2-1.072,5.7,5.7,0,0,1,3.329.271c-.822-1.122-1.429-2.595-.565-3.993.792-1.281,3.642-2.077,19.17,5.743,8.371,4.216,16.535,9,16.617,9.046a.518.518,0,0,1,.178.719l-11.164,18.006A.521.521,0,0,1,917.038,931.323ZM891.3,913.7a1.87,1.87,0,0,0-1.451.487c-.388.516-.082,1.473.245,2.187,1.618,3.536,21,12.068,26.71,13.821l10.675-17.219c-15.651-9.147-32.51-17.164-33.923-14.87h0c-1.195,1.936,2.123,4.484,2.158,4.511a.517.517,0,0,1-.555.869c-.922-.492-3.594-1.671-4.912-1.221a.913.913,0,0,0-.584.516c-.829,1.843,2.017,3.358,2.046,3.373a.518.518,0,0,1-.368.961c-.653-.165-2.535-.478-3.408.064a.844.844,0,0,0-.408.571c-.251,1.182,2.553,3.66,4.623,5.042a.518.518,0,0,1-.364.944A2.763,2.763,0,0,0,891.3,913.7Zm1.817-15.865h0Z" transform="translate(-746.154 -775.112)"/>
      <path id="Path_38501" data-name="Path 38501" d="M923.3,930.625a.457.457,0,0,1-.152-.024c-2.677-.829-11.811-6.5-12.2-6.742a.517.517,0,0,1,.547-.878c.093.06,9.41,5.842,11.958,6.632a.518.518,0,0,1-.154,1.012Zm-3.248,3.911a.434.434,0,0,1-.093-.009c-2.11-.377-11.844-6.4-12.948-7.088a.517.517,0,0,1,.547-.877c2.952,1.834,10.964,6.658,12.585,6.947a.518.518,0,0,1-.091,1.027Zm-2.478,4.572a.514.514,0,0,1-.141-.02c-1.643-.467-9.663-4.839-10.005-5.024a.517.517,0,1,1,.494-.908c2.293,1.25,8.519,4.575,9.791,4.939a.519.519,0,0,1,.357.639A.511.511,0,0,1,917.579,939.108Z" transform="translate(-761.975 -795.502)"/>
      <path id="Path_38502" data-name="Path 38502" d="M961.248,1233.57l5.377,17.646c1.616,5.307-.75,10.732-5.289,12.117l-13.442,4.094c-4.539,1.382-9.531-1.8-11.147-7.108l-5.377-17.646Z" transform="translate(-783.711 -1046.99)" fill="#ed85c0"/>
      <path id="Path_38503" data-name="Path 38503" d="M943.988,1266.444a8.96,8.96,0,0,1-4.8-1.453,11.427,11.427,0,0,1-4.729-6.348L929.041,1241a.515.515,0,0,1,.346-.646l30.1-9.1a.522.522,0,0,1,.651.344l5.417,17.646c1.71,5.574-.838,11.3-5.677,12.763l-13.542,4.1A8.2,8.2,0,0,1,943.988,1266.444Zm-13.8-25.255,5.264,17.153a10.378,10.378,0,0,0,4.291,5.776,7.547,7.547,0,0,0,6.285.988l13.542-4.1c4.291-1.3,6.525-6.442,4.982-11.471l-5.264-17.152Z" transform="translate(-782.259 -1045.166)" fill="#fea300" stroke="#000" stroke-width="1"/>
      <rect id="Rectangle_2561" data-name="Rectangle 2561" width="31.231" height="132.153" transform="translate(111.702 78.59) rotate(-16.942)" fill="#fbecad" stroke="#000" stroke-width="2"/>
      <rect id="Rectangle_2562" data-name="Rectangle 2562" width="0.354" height="130.981" transform="translate(126.65 74.858) rotate(-16.942)" fill="#f6d854" stroke="#000" stroke-width="2"/>
      <path id="Path_38504" data-name="Path 38504" d="M793.367,794.374a.5.5,0,0,1-.243-.062.511.511,0,0,1-.251-.306L754.359,667.59a.517.517,0,0,1,.344-.646l29.876-9.1a.522.522,0,0,1,.395.037.513.513,0,0,1,.251.307L823.741,784.6a.523.523,0,0,1-.037.395.513.513,0,0,1-.307.251l-29.878,9.1A.517.517,0,0,1,793.367,794.374ZM755.5,667.784,793.713,793.21l28.886-8.8L784.385,658.983Z" transform="translate(-643.147 -588.86)"/>
      <path id="Path_38505" data-name="Path 38505" d="M25.4,36.421h0L30.969,0,0,9.219Z" transform="matrix(-1, 0.017, -0.017, -1, 141.696, 77.86)" fill="#fff" stroke="#000" stroke-width="2"/>
      <path id="Path_38507" data-name="Path 38507" d="M782.967,547.769l-8.6-9.43-1.885,12.626Z" transform="translate(-658.675 -496.895)"/>
      <path id="Path_38508" data-name="Path 38508" d="M958.426,898.638s-4.621-7.794-6.927-9.672c-3.073-2.5-14.678-6.517-15.56-3.053s8.234,8.016,8.234,8.016-1.424,11.361,6.268,11.888" transform="translate(-784.664 -765.616)" fill="#fff"/>
      <path id="Path_38509" data-name="Path 38509" d="M948.619,904.527a.219.219,0,0,1-.037,0,6.293,6.293,0,0,1-4.61-2.293c-2.564-3.113-2.3-8.373-2.174-9.811-1.823-.946-9.072-4.954-8.184-8.444a2.124,2.124,0,0,1,1.532-1.5c3.523-1.166,12.348,2.235,14.855,4.277,2.35,1.914,6.854,9.487,7.046,9.809a.518.518,0,1,1-.891.529c-.044-.077-4.6-7.734-6.808-9.533-2.573-2.094-10.99-5.055-13.876-4.1a1.146,1.146,0,0,0-.855.77c-.567,2.229,4.586,5.739,7.963,7.425a.517.517,0,0,1,.282.527c-.007.062-.734,6.182,1.909,9.39a5.29,5.29,0,0,0,3.88,1.918.517.517,0,0,1-.033,1.032Z" transform="translate(-782.841 -763.806)" stroke="#090909" stroke-width="1"/>
      <path id="Path_38510" data-name="Path 38510" d="M1108.843,806.68s-8.19,30.788-39.9,38.009-48.617-9.387-48.617-9.387c-3.435,2.474-11.187,22.106-5.867,27.514,0,0,31.408,17.756,67.518,8.069,35.769-9.6,47.3-43.851,47.3-43.851" transform="translate(-844.511 -704.903)" fill="#ed85c0" stroke="#000" stroke-width="2"/>
      <path id="Path_38511" data-name="Path 38511" d="M1890.816,510.662l-9.707,16.579s-3.443,8.272-4.449,10.536a4.905,4.905,0,0,1-.269.567c-.02,0-.256-.062-.677-.185-.615-.179-1.62-.476-2.919-.869-9.522-2.842-35.165-10.631-35.165-10.631l.9-10.693c11.956-2.187,29.591,6.726,29.591,6.726,3.518-8.389,8.832-16.634,12.088-19.65,1.2-1.111,2.67,1.118,2.67,1.118-2.119,1.7-4.388,6.243-4.526,6.526a60.99,60.99,0,0,1,5.961-5.518C1887.083,506.46,1890.816,510.662,1890.816,510.662Z" transform="translate(-1487.609 -467.966)" fill="#fff" stroke="#000" stroke-width="2"/>
      <path id="Path_38512" data-name="Path 38512" d="M1998.633,510.638l-9.707,16.579s-3.444,8.272-4.449,10.536l-.946.379-2.346.93-.573-1.8-4.671-14.6c3.519-8.389,8.832-16.634,12.088-19.65,1.2-1.111,2.67,1.118,2.67,1.118-2.119,1.7-4.387,6.244-4.527,6.526a61.05,61.05,0,0,1,5.962-5.518C1994.9,506.436,1998.633,510.638,1998.633,510.638Z" transform="translate(-1595.426 -467.942)" fill="#fff" stroke="#090909" stroke-width="2"/>
      <path id="Path_38513" data-name="Path 38513" d="M449.47,1948.593H340.237a22.175,22.175,0,0,1-22.263-21.837c0-.159,0-.319,0-.478a22.174,22.174,0,0,1,22.263-21.837H449.47A31.222,31.222,0,0,0,449.47,1948.593Z" transform="translate(-302.987 -1560.642)" fill="#ed85c0" stroke="#090909" stroke-width="2"/>
      <path id="Path_38515" data-name="Path 38515" d="M1006.221,1948.585a31.221,31.221,0,0,1,0-44.156H882.083a31.221,31.221,0,0,0,0,44.156Z" transform="translate(-735.6 -1560.634)" fill="#fff" stroke="#090909" stroke-width="2"/>
      <path id="Path_38517" data-name="Path 38517" d="M448.9,1947.279H338.423a22.713,22.713,0,0,1-22.779-22.351c0-.164,0-.324,0-.488a22.715,22.715,0,0,1,22.779-22.351H448.9l-.884.884a30.741,30.741,0,0,0,0,43.424Zm-110.481-44.155a21.678,21.678,0,0,0-21.745,21.323c0,.157,0,.313,0,.472a21.678,21.678,0,0,0,21.745,21.323H446.439a31.78,31.78,0,0,1,0-43.119Z" transform="translate(-301.17 -1558.811)"/>
      <path id="Path_38518" data-name="Path 38518" d="M1005.7,1947.272H880.1l-.152-.153a31.777,31.777,0,0,1,0-44.887l.152-.152h125.6l-.884.883a30.706,30.706,0,0,0,0,43.424Zm-125.173-1.037h122.706a31.739,31.739,0,0,1,0-43.119H880.525A30.739,30.739,0,0,0,880.525,1946.235Z" transform="translate(-733.826 -1558.803)"/>
      <rect id="Rectangle_2563" data-name="Rectangle 2563" width="82.204" height="1.034" transform="translate(163.252 359.816)" stroke="#000" stroke-width="1"/>
      <rect id="Rectangle_2564" data-name="Rectangle 2564" width="82.204" height="1.034" transform="translate(163.252 367.744)" stroke="#000" stroke-width="1"/>
      <rect id="Rectangle_2565" data-name="Rectangle 2565" width="51.259" height="1.034" transform="translate(163.252 375.669)" stroke="#000" stroke-width="1"/>
      <path id="Path_38519" data-name="Path 38519" d="M818.74,1748.313H927.973a22.175,22.175,0,0,0,22.263-21.837c0-.159,0-.32,0-.478a22.173,22.173,0,0,0-22.263-21.837H818.74A31.222,31.222,0,0,1,818.74,1748.313Z" transform="translate(-693.351 -1404.518)" fill="#f6d854" stroke="#000" stroke-width="2"/>
      <path id="Path_38521" data-name="Path 38521" d="M255.67,1748.3a31.221,31.221,0,0,0,0-44.155H379.809a31.221,31.221,0,0,1,0,44.155Z" transform="translate(-254.42 -1404.51)" fill="#fff" stroke="#000" stroke-width="2"/>
      <path id="Path_38523" data-name="Path 38523" d="M923.553,1746.991H813.07l.884-.884a30.741,30.741,0,0,0,0-43.423l-.884-.884H923.551a22.713,22.713,0,0,1,22.779,22.351c0,.163,0,.324,0,.487A22.713,22.713,0,0,1,923.553,1746.991Zm-108.018-1.036H923.551a21.678,21.678,0,0,0,21.745-21.324c0-.157,0-.313,0-.472a21.677,21.677,0,0,0-21.745-21.323H815.535A31.776,31.776,0,0,1,815.535,1745.955Z" transform="translate(-688.931 -1402.678)"/>
      <path id="Path_38524" data-name="Path 38524" d="M375.6,1746.991H250l.884-.884a30.706,30.706,0,0,0,0-43.423L250,1701.8H375.6l.152.152a31.777,31.777,0,0,1,0,44.887Zm-123.138-1.036H375.171a30.739,30.739,0,0,0,0-43.119H252.465a31.739,31.739,0,0,1,0,43.119Z" transform="translate(-250 -1402.678)"/>
      <rect id="Rectangle_2566" data-name="Rectangle 2566" width="82.204" height="1.034" transform="translate(32.1 313.275)" stroke="#000" stroke-width="1"/>
      <rect id="Rectangle_2567" data-name="Rectangle 2567" width="82.204" height="1.034" transform="translate(32.1 321.201)" stroke="#000" stroke-width="1"/>
      <rect id="Rectangle_2568" data-name="Rectangle 2568" width="51.259" height="1.034" transform="translate(63.045 329.126)" stroke="#000" stroke-width="1"/>
      <g id="Group_37308" data-name="Group 37308" transform="translate(0.733 254.965)">
        <path id="Path_38525" data-name="Path 38525" d="M387.15,1548.023H277.917a22.175,22.175,0,0,1-22.263-21.837c0-.159,0-.32,0-.479a22.174,22.174,0,0,1,22.263-21.837H387.15A31.223,31.223,0,0,0,387.15,1548.023Z" transform="translate(-255.139 -1503.349)" fill="#a4e3db" stroke="#0f0f0f" stroke-width="1"/>
        <path id="Path_38527" data-name="Path 38527" d="M943.9,1548.015a31.221,31.221,0,0,1,0-44.156H819.763a31.221,31.221,0,0,0,0,44.156Z" transform="translate(-687.752 -1503.341)" fill="#fff" stroke="#0f0f0f" stroke-width="1"/>
        <path id="Path_38529" data-name="Path 38529" d="M386.584,1546.709H276.1a22.713,22.713,0,0,1-22.779-22.351c0-.163,0-.324,0-.487A22.716,22.716,0,0,1,276.1,1501.52H386.584l-.884.884a30.74,30.74,0,0,0,0,43.423ZM276.1,1502.554a21.678,21.678,0,0,0-21.745,21.324c0,.156,0,.313,0,.472a21.678,21.678,0,0,0,21.745,21.324H384.119a31.78,31.78,0,0,1,0-43.119Z" transform="translate(-253.322 -1501.518)" stroke="#0f0f0f" stroke-width="1"/>
        <path id="Path_38530" data-name="Path 38530" d="M943.378,1546.7h-125.6l-.152-.152a31.777,31.777,0,0,1,0-44.887l.152-.152h125.6l-.884.884a30.741,30.741,0,0,0,0,43.424Zm-125.173-1.036H940.914a31.78,31.78,0,0,1,0-43.119H818.206A30.74,30.74,0,0,0,818.206,1545.665Z" transform="translate(-685.978 -1501.51)" stroke="#0f0f0f" stroke-width="1"/>
        <rect id="Rectangle_2569" data-name="Rectangle 2569" width="82.204" height="1.034" transform="translate(155.528 14.154)" stroke="#0f0f0f" stroke-width="1"/>
        <rect id="Rectangle_2570" data-name="Rectangle 2570" width="82.204" height="1.034" transform="translate(155.528 22.08)" stroke="#0f0f0f" stroke-width="1"/>
        <rect id="Rectangle_2571" data-name="Rectangle 2571" width="51.259" height="1.034" transform="translate(155.528 30.006)" stroke="#0f0f0f" stroke-width="1"/>
      </g>
      <g id="Group_37321" data-name="Group 37321" transform="translate(181.221 163.127)">
        <path id="Path_38531" data-name="Path 38531" d="M1584.05,1963.053l-49.27.318a.229.229,0,0,1-.025-.091c-.414-7.533,1.731-15.463,8.4-16.385a9.6,9.6,0,0,1,1.274-.088c1.409,0,17.163-.445,17.163-.445l1.962-16.842,20.819.864Z" transform="translate(-1420.974 -1743.32)" fill="#c16cf9" stroke="#000" stroke-width="2"/>
        <path id="Path_38532" data-name="Path 38532" d="M1682.361,1937.18l.037-6.98-20.819-.679-1.12,7.556Z" transform="translate(-1519.003 -1743.32)" fill="#fff" stroke="#000" stroke-width="2"/>
        <path id="Path_38533" data-name="Path 38533" d="M1552.15,2019.577a11.6,11.6,0,0,1-1.144,5.115l-16.226.1a.226.226,0,0,1-.024-.09c-.414-7.534,1.731-15.464,8.4-16.385A11.633,11.633,0,0,1,1552.15,2019.577Z" transform="translate(-1420.974 -1804.747)" fill="#fff" stroke="#000" stroke-width="2"/>
        <path id="Path_38534" data-name="Path 38534" d="M1533.891,2014.087c-.174-4.1,1.175-1.017,1.247-1.507l50.456-.137.034,1.861a4.14,4.14,0,0,1-4.321,3.992l-42.052.108C1536.639,2018.411,1534.585,2017.436,1533.891,2014.087Zm29.368-14.735a.945.945,0,0,1-1.128-.629l-.826-3.13a.85.85,0,0,1,.693-1.024.945.945,0,0,1,1.128.628l.826,3.13A.849.849,0,0,1,1563.259,1999.352Zm-4.425.026a.944.944,0,0,1-1.128-.628l-.826-3.13a.849.849,0,0,1,.693-1.024.944.944,0,0,1,1.128.629l.826,3.13A.849.849,0,0,1,1558.834,1999.378Zm-4.425.027a.944.944,0,0,1-1.128-.628l-.826-3.131a.849.849,0,0,1,.693-1.023.944.944,0,0,1,1.128.629l.826,3.13A.85.85,0,0,1,1554.409,1999.4Z" transform="translate(-1421.328 -1792.175)"/>
        <path id="Path_38535" data-name="Path 38535" d="M1126.547,1754.534l-49.261-.988a.238.238,0,0,1-.022-.093c-.214-7.542,2.141-15.411,8.827-16.156a9.626,9.626,0,0,1,1.276-.053c1.409.035,17.17.009,17.17.009l2.407-16.784,20.79,1.416Z" transform="translate(-1076.089 -1580.358)" fill="#c16cf9" stroke="#000" stroke-width="2"/>
        <path id="Path_38536" data-name="Path 38536" d="M1226.849,1734.782l.266-12.344-20.089-1.969-1.327,13.322Z" transform="translate(-1176.643 -1580.358)" fill="#fff" stroke="#000" stroke-width="2"/>
        <path id="Path_38537" data-name="Path 38537" d="M1094.788,1808.291a11.569,11.569,0,0,1-1.281,5.084l-16.222-.326a.24.24,0,0,1-.022-.093c-.214-7.542,2.141-15.411,8.828-16.156A11.631,11.631,0,0,1,1094.788,1808.291Z" transform="translate(-1076.089 -1639.86)" fill="#fff" stroke="#000" stroke-width="2"/>
        <path id="Path_38538" data-name="Path 38538" d="M1076.083,1803.137a13.217,13.217,0,0,1,0-2.876l51.565,2.461-.021,1.83a4.188,4.188,0,0,1-4.513,3.824h-42.8C1077.656,1808.318,1076.273,1806.184,1076.083,1803.137Zm29.24-13.819a.959.959,0,0,1-1.13-.645l-.746-3.1a.843.843,0,0,1,.734-.991.961.961,0,0,1,1.13.644l.746,3.1A.842.842,0,0,1,1105.323,1789.318Zm-4.5-.079a.959.959,0,0,1-1.13-.644l-.746-3.1a.844.844,0,0,1,.735-.991.96.96,0,0,1,1.129.645l.746,3.1A.841.841,0,0,1,1100.821,1789.239Zm-4.5-.079a.958.958,0,0,1-1.129-.644l-.746-3.1a.844.844,0,0,1,.735-.991.958.958,0,0,1,1.13.644l.746,3.1A.843.843,0,0,1,1096.319,1789.161Z" transform="translate(-1076.004 -1627.859)"/>
        <path id="Path_38539" data-name="Path 38539" d="M1275.012,1144.778l-3.832,3.062-26.357,21.031-3.322,2.655c-.007.007-.02.013-.026.02l-2.266,1.808-23.76,18.967-.813,50.7a6.212,6.212,0,0,1-6.416,6.129l-19.3-.624a6.2,6.2,0,0,1-5.99-5.735c-1.248-16.528-4.112-51.475,4.048-67.514,3.38-6.645,20.252-24.066,36.2-39.741,1.444-1.426,2.891-2.833,4.31-4.22,4.1-4,8.058-7.8,11.6-11.184a50.261,50.261,0,0,1,34.714-13.914Z" transform="translate(-1157.287 -1101.531)" fill="#80d4ec" stroke="#000" stroke-width="2"/>
        <g id="Group_37310" data-name="Group 37310" transform="translate(110.697 0)">
          <path id="Path_38541" data-name="Path 38541" d="M1566.259,1292.578l-15.186.82a8.2,8.2,0,0,1-8.446-6.4c-5.741-25.83-16.89-128.771-27-175.1-.158-.732,2.89-1.724,6.733-2.678h0l11.96-3.005h2.705a23.935,23.935,0,0,1,23.531,19.489l4.284,27.6,2.03,13.087,7.044,116.742A8.2,8.2,0,0,1,1566.259,1292.578Z" transform="translate(-1515.623 -1106.21)" fill="#80d4ec" stroke="#000" stroke-width="2"/>
        </g>
        <g id="Group_37313" data-name="Group 37313" transform="translate(81.923 70.011)">
          <path id="Path_38544" data-name="Path 38544" d="M1443.57,1404.318a17.291,17.291,0,0,1,2.266-1.808Z" transform="translate(-1443.57 -1402.51)" fill="#4a61d8" stroke="#000" stroke-width="2"/>
        </g>
        <g id="Group_37314" data-name="Group 37314" transform="translate(161.804 64.337) rotate(-177)">
          <path id="Path_38545" data-name="Path 38545" d="M.574,0A35.338,35.338,0,0,1,13.409,13.195a23.065,23.065,0,0,1,2.9,12.934l-.021.2a24.144,24.144,0,0,1-1.333,6.08l-.037.111A32.871,32.871,0,0,1,8.891,42.66l-.823-.684a31.9,31.9,0,0,0,5.8-9.726l.036-.111a23.052,23.052,0,0,0,1.317-6.065l.021-.2a22.1,22.1,0,0,0-2.785-12.184A34.242,34.242,0,0,0,0,.9Z" transform="translate(0)" stroke="#000" stroke-width="1"/>
        </g>
        <g id="Group_37316" data-name="Group 37316" transform="translate(65.884 15.02)">
          <path id="Path_38547" data-name="Path 38547" d="M1370.829,1172.58l-.008-1.034a23.664,23.664,0,0,0,8.865-1.744,16.194,16.194,0,0,0,7.26-5.662l.156-.218a17.24,17.24,0,0,0,1.92-3.728l.031-.089a23.075,23.075,0,0,0,1.332-7.026l1.034.038a24.254,24.254,0,0,1-1.362,7.26h-.494l.423.2c-.075.2-.153.4-.378.937a17.085,17.085,0,0,1-1.71,3.083h-.451l.19.362a17.26,17.26,0,0,1-7.559,5.812A24.887,24.887,0,0,1,1370.829,1172.58Z" transform="translate(-1370.82 -1153.08)" stroke="#000" stroke-width="1"/>
        </g>
        <g id="Group_37317" data-name="Group 37317" transform="translate(136.83 176.435)">
          <rect id="Rectangle_2572" data-name="Rectangle 2572" width="30.796" height="1.012" stroke="#000" stroke-width="1"/>
        </g>
        <g id="Group_37318" data-name="Group 37318" transform="translate(135.164 166.344)">
          <rect id="Rectangle_2573" data-name="Rectangle 2573" width="32.462" height="0.863" stroke="#000" stroke-width="1"/>
        </g>
        <g id="Group_37319" data-name="Group 37319" transform="translate(25.058 132.049)">
          <rect id="Rectangle_2574" data-name="Rectangle 2574" width="32.404" height="1.034" transform="translate(0)" stroke="#000" stroke-width="1"/>
        </g>
        <g id="Group_37320" data-name="Group 37320" transform="translate(24.529 121.806)">
          <rect id="Rectangle_2575" data-name="Rectangle 2575" width="33.059" height="1.034" stroke="#000" stroke-width="1"/>
        </g>
      </g>
      <g id="Group_37322" data-name="Group 37322" transform="translate(258.132 78.015)">
        <path id="Path_38548" data-name="Path 38548" d="M1503.189,765.595c-.02.117-.055.242-.084.366-.1.463-.214.917-.337,1.367a39.8,39.8,0,0,1-7.727,15.115c-.8.972-1.643,1.911-2.531,2.8a40.157,40.157,0,1,1-19.586-67.37c.531.13,1.063.263,1.587.408A40.136,40.136,0,0,1,1503.189,765.595Z" transform="translate(-1423.81 -716.861)" fill="#ed85c0" stroke="#000" stroke-width="2"/>
      </g>
      <g id="Group_37323" data-name="Group 37323" transform="translate(347.453 42.243)">
        <path id="Path_38552" data-name="Path 38552" d="M2007.639,536.645s-14.888-.567-23.317,21.156l-1.153,43.679s6.625-14.037,18.733-17.472Z" transform="translate(-1948.514 -536.644)" fill="#fea300" stroke="#000" stroke-width="2"/>
        <path id="Path_38553" data-name="Path 38553" d="M1861.79,603.282a42.853,42.853,0,0,0-35.81-7.039l.773,45.364a48.388,48.388,0,0,1,33.884,5.353Z" transform="translate(-1825.979 -582.125)" fill="#fea300" stroke="#000" stroke-width="2"/>
      </g>
      <g id="Group_37324" data-name="Group 37324" transform="translate(371.285 78.013)">
        <path id="Path_38555" data-name="Path 38555" d="M1967.951,738.731s1.883-14.778,2.474-18.3,3.576-8.065,1.354-9.789-4.592,3.574-4.592,3.574,1.912-10.157-.342-11.5-3.545,4.021-3.545,4.021.322-5.538-2.07-5.51-2.56,3.558-2.56,3.558-.714-3.847-2.65-3.406-2.859,6.367-2.859,6.367-1.076-3.73-3.774-.575-2.624,23.3-1.9,27.83Z" transform="translate(-1946.536 -700.714)" fill="#fff" stroke="#000" stroke-width="1"/>
        <path id="Path_38556" data-name="Path 38556" d="M1966.124,737.433a.439.439,0,0,1-.093-.009l-20.475-3.728a.515.515,0,0,1-.417-.428c-.659-4.145-.935-24.792,2.024-28.246.959-1.122,1.887-1.594,2.756-1.406a2.121,2.121,0,0,1,1.181.774c.434-1.942,1.358-4.956,2.976-5.324a1.809,1.809,0,0,1,1.429.265,3.852,3.852,0,0,1,1.252,1.653,2.912,2.912,0,0,1,2.639-2.083,1.873,1.873,0,0,1,1.414.608,5.188,5.188,0,0,1,1.071,2.778,4.016,4.016,0,0,1,1.746-1.978,1.783,1.783,0,0,1,1.656.15c1.779,1.061,1.453,6.036,1.017,9.337a4.507,4.507,0,0,1,2.229-1.768,1.977,1.977,0,0,1,1.744.392c1.795,1.393.829,4.112-.106,6.74a22.4,22.4,0,0,0-1.054,3.543c-.582,3.47-2.452,18.131-2.472,18.279a.516.516,0,0,1-.207.353A.557.557,0,0,1,1966.124,737.433Zm-20.016-4.689,19.571,3.565c.346-2.7,1.887-14.672,2.407-17.779a23.055,23.055,0,0,1,1.1-3.719c.848-2.388,1.651-4.641.447-5.576a.942.942,0,0,0-.855-.205c-1.239.311-2.546,2.692-2.948,3.583a.518.518,0,0,1-.981-.307c.765-4.07,1.241-10.161-.1-10.959a.754.754,0,0,0-.725-.086c-.926.39-1.751,2.529-2.053,3.783a.518.518,0,0,1-1.021-.152c.057-.981,0-3.733-.9-4.674a.79.79,0,0,0-.653-.289c-1.883.022-2.048,3.036-2.051,3.067a.518.518,0,0,1-1.026.07c-.116-.622-.592-2.35-1.4-2.877a.773.773,0,0,0-.628-.119c-1.1.249-2.1,3.624-2.463,5.942a.516.516,0,0,1-.479.436.5.5,0,0,1-.531-.37c-.1-.335-.518-1.321-1.137-1.453-.58-.123-1.272.514-1.749,1.069C1945.464,708.6,1945.442,727.62,1946.108,732.744Z" transform="translate(-1944.71 -698.9)" stroke="#000" stroke-width="1"/>
        <path id="Path_38557" data-name="Path 38557" d="M1985.05,731.211a.218.218,0,0,1-.037,0,.517.517,0,0,1-.479-.553c.084-1.157.481-5.726.481-5.726l1.031.091s-.4,4.557-.48,5.71A.518.518,0,0,1,1985.05,731.211Zm-4.343-.185a.517.517,0,0,1-.511-.448c-.353-2.626.882-12.712.935-13.14a.518.518,0,1,1,1.027.128c-.013.1-1.27,10.382-.935,12.875a.517.517,0,0,1-.443.582Zm-4.644-1.232a.519.519,0,0,1-.5-.386c-.516-1.962.783-12.706.932-13.922a.518.518,0,0,1,1.028.128c-.578,4.7-1.312,12.192-.959,13.532a.519.519,0,0,1-.368.633A.538.538,0,0,1,1976.064,729.794Zm-4.9-.307a.522.522,0,0,1-.512-.437c-.251-1.6.311-10.21.335-10.576a.524.524,0,0,1,.549-.483.518.518,0,0,1,.483.551c-.162,2.46-.538,9.116-.344,10.346a.518.518,0,0,1-.432.591A.485.485,0,0,1,1971.163,729.487Z" transform="translate(-1964.882 -711.475)" stroke="#000" stroke-width="1"/>
      </g>
      <g id="Group_37325" data-name="Group 37325" transform="translate(319.378 90.881)">
        <path id="Path_38558" data-name="Path 38558" d="M1717.625,785.819c6.281,6.167,16.494,35.8,29.054,34.45,14.048-1.51,14.855-20.64,14.855-20.64.547-2.842,22.137-2,23.663,2.623,0,0-8.881,39.347-40.985,41.3-25.131,1.526-34.942-37.7-34.942-37.7" transform="translate(-1709.27 -785.819)" fill="#ed85c0" stroke="#000" stroke-width="2"/>
      </g>
      <g id="Group_37327" data-name="Group 37327" transform="translate(273.418 21.976)">
        <path id="Path_38560" data-name="Path 38560" d="M1562.552,497.946c1.461,14.025-6.909,27.6-20.578,28.977s-27.467-9.963-28.929-23.99,8.439-26.51,22.11-27.889S1561.091,483.921,1562.552,497.946Z" transform="translate(-1512.902 -474.92)" fill="#fff"/>
      </g>
      <g id="Group_37328" data-name="Group 37328" transform="translate(272.843 21.405)">
        <path id="Path_38561" data-name="Path 38561" d="M1537.937,525.829c-13.19,0-25.845-11.166-27.246-24.613a26.146,26.146,0,0,1,5.711-19.363,24.906,24.906,0,0,1,16.911-9.154c13.961-1.405,26.532,9.1,28.025,23.41h0a29.166,29.166,0,0,1-6.013,21.36,21.98,21.98,0,0,1-15.077,8.246A22.959,22.959,0,0,1,1537.937,525.829Zm-2.116-52.112a23.346,23.346,0,0,0-2.394.122,23.768,23.768,0,0,0-16.139,8.738,25.009,25.009,0,0,0-5.46,18.523c1.42,13.638,14.9,24.83,28.3,23.478a20.863,20.863,0,0,0,14.307-7.829,28.013,28.013,0,0,0,5.762-20.52h0C1558.858,483.362,1548.17,473.716,1535.82,473.716Z" transform="translate(-1510.543 -472.572)" stroke="#000" stroke-width="1"/>
      </g>
      <g id="Group_37329" data-name="Group 37329" transform="translate(265.599 48.216)">
        <path id="Path_38562" data-name="Path 38562" d="M1480.805,590.579a7.772,7.772,0,0,0,15.51-.86,7.229,7.229,0,0,0-.577-2.447,7.874,7.874,0,0,0-14.3-.046A7.093,7.093,0,0,0,1480.805,590.579Z" transform="translate(-1480.794 -582.668)" fill="#fff"/>
      </g>
      <g id="Group_37330" data-name="Group 37330" transform="translate(265.026 47.641)">
        <path id="Path_38563" data-name="Path 38563" d="M1486.743,596.423a8.2,8.2,0,0,1-8.29-7.6,7.748,7.748,0,0,1,.679-3.624,8.4,8.4,0,0,1,7.2-4.878,8.315,8.315,0,0,1,8.151,4.939.572.572,0,1,1-1.052.448,7.3,7.3,0,0,0-13.253-.041,6.6,6.6,0,0,0-.582,3.093,7.088,7.088,0,0,0,7.566,6.509,7.375,7.375,0,0,0,4.476-1.831.571.571,0,1,1,.757.855,8.509,8.509,0,0,1-5.173,2.116C1487.065,596.421,1486.9,596.423,1486.743,596.423Z" transform="translate(-1478.442 -580.306)" stroke="#000" stroke-width="1"/>
      </g>
      <g id="Group_37331" data-name="Group 37331" transform="translate(262.785 14.019)">
        <path id="Path_38564" data-name="Path 38564" d="M1479.733,476.237a13.9,13.9,0,0,1,7.584,5.3s16.765-2.84,19.253-16.406-10.267-26.057-23.074-22.163-6.4,16.677-6.4,16.677-7.63.945-7.853,8.772,4.858,10.284,4.858,10.284A7.317,7.317,0,0,1,1479.733,476.237Z" transform="translate(-1469.24 -442.244)"/>
      </g>
      <g id="Group_37332" data-name="Group 37332" transform="translate(285.972 0)">
        <ellipse id="Ellipse_72" data-name="Ellipse 72" cx="19.19" cy="18.508" rx="19.19" ry="18.508" transform="translate(0 2.126) rotate(-3.176)"/>
      </g>
      <g id="Group_37333" data-name="Group 37333" transform="translate(302.053 46.649)">
        <ellipse id="Ellipse_73" data-name="Ellipse 73" cx="1.792" cy="2.401" rx="1.792" ry="2.401" transform="translate(0 0.624) rotate(-10.027)"/>
      </g>
      <g id="Group_37334" data-name="Group 37334" transform="translate(300.903 43.207)">
        <path id="Path_38565" data-name="Path 38565" d="M1626.338,565.157a.59.59,0,0,1-.222-.044.571.571,0,0,1-.3-.748,3.662,3.662,0,0,1,2.172-2.046,3.354,3.354,0,0,1,2.645.1.572.572,0,1,1-.531,1.013,2.243,2.243,0,0,0-1.729-.036,2.537,2.537,0,0,0-1.5,1.412A.574.574,0,0,1,1626.338,565.157Z" transform="translate(-1625.767 -562.098)" stroke="#000" stroke-width="1"/>
      </g>
      <g id="Group_37335" data-name="Group 37335" transform="translate(314.867 41.976)">
        <ellipse id="Ellipse_74" data-name="Ellipse 74" cx="1.792" cy="2.401" rx="1.792" ry="2.401" transform="translate(0 0.624) rotate(-10.027)"/>
      </g>
      <g id="Group_37336" data-name="Group 37336" transform="translate(313.72 38.536)">
        <path id="Path_38566" data-name="Path 38566" d="M1678.968,545.977a.591.591,0,0,1-.222-.044.572.572,0,0,1-.3-.748,3.666,3.666,0,0,1,2.172-2.046,3.354,3.354,0,0,1,2.645.1.572.572,0,0,1-.531,1.013,2.242,2.242,0,0,0-1.729-.036,2.544,2.544,0,0,0-1.505,1.415A.575.575,0,0,1,1678.968,545.977Z" transform="translate(-1678.397 -542.918)" stroke="#000" stroke-width="1"/>
      </g>
      <g id="Group_37337" data-name="Group 37337" transform="translate(309.715 41.742)">
        <path id="Path_38567" data-name="Path 38567" d="M1662.844,574a.571.571,0,0,1-.165-1.118c2.089-.64,5.523-2.165,5.832-3.524.049-.214.053-.555-.467-1.035-3.183-2.93-5.949-11.144-6.066-11.492a.571.571,0,1,1,1.083-.363c.027.083,2.789,8.283,5.757,11.013a2.153,2.153,0,0,1,.809,2.131c-.555,2.443-5.993,4.174-6.611,4.362A.536.536,0,0,1,1662.844,574Z" transform="translate(-1661.948 -556.082)" stroke="#000" stroke-width="1"/>
      </g>
      <g id="Group_37338" data-name="Group 37338" transform="translate(299.857 63.164)">
        <path id="Path_38568" data-name="Path 38568" d="M1625.239,646.363a7.873,7.873,0,0,1-3.446-.884.572.572,0,1,1,.5-1.028c3.689,1.795,5.513-.131,5.589-.214a.572.572,0,0,1,.855.76A4.781,4.781,0,0,1,1625.239,646.363Z" transform="translate(-1621.472 -644.049)" stroke="#000" stroke-width="1"/>
      </g>
      <g id="Group_37339" data-name="Group 37339" transform="translate(64.884 148.175)">
        <path id="Path_38569" data-name="Path 38569" d="M544.3,1025.63l11.05,13.221s4.275,6.806,5.5,8.658a4.247,4.247,0,0,0,.322.461c.018,0,.216-.093.571-.265.516-.249,1.363-.661,2.452-1.2,8-3.929,29.525-14.628,29.525-14.628l-2.388-9.326c-10.9-.159-25.175,10.346-25.175,10.346-4.359-6.9-10.283-13.4-13.612-15.584-1.226-.8-2.2,1.384-2.2,1.384,2.125,1.186,4.809,4.87,4.974,5.1a54.961,54.961,0,0,0-6.092-4C546.976,1021.359,544.3,1025.63,544.3,1025.63Z" transform="translate(-544.3 -1017.134)" fill="#fff" stroke="#000" stroke-width="2"/>
      </g>
      <g id="Group_37340" data-name="Group 37340" transform="translate(64.884 148.175)">
        <path id="Path_38570" data-name="Path 38570" d="M544.3,1025.63l11.05,13.221s4.275,6.806,5.5,8.658l.893.2,2.214.476.238-1.678,1.962-13.607c-4.359-6.9-10.283-13.4-13.612-15.584-1.226-.8-2.2,1.384-2.2,1.384,2.125,1.186,4.808,4.87,4.974,5.1a54.961,54.961,0,0,0-6.092-4C546.976,1021.359,544.3,1025.63,544.3,1025.63Z" transform="translate(-544.3 -1017.134)" fill="#fff" stroke="#000" stroke-width="2"/>
      </g>
      <g id="Group_37341" data-name="Group 37341" transform="translate(61.832 156.629)">
        <path id="Path_38571" data-name="Path 38571" d="M530.46,1055.623s13.085-2.714,23.766,15.25l7.509,38.465s-7.946-11.432-19.165-12.671Z" transform="translate(-530.46 -1055.477)" fill="#c16cf9" stroke="#000" stroke-width="2"/>
        <path id="Path_38572" data-name="Path 38572" d="M638.27,1084.124a38.432,38.432,0,0,1,30.63-11.546l6.054,40.242a43.392,43.392,0,0,0-29.174,9.769Z" transform="translate(-614.501 -1068.73)" fill="#c16cf9" stroke="#000" stroke-width="2"/>
      </g>
      <g id="Group_37345" data-name="Group 37345" transform="translate(186.18 19.922)">
        <path id="Path_38581" data-name="Path 38581" d="M1108.138,511.17c-7.657,0-13.658-16.641-13.658-37.885s6-37.885,13.658-37.885,13.658,16.641,13.658,37.885S1115.8,511.17,1108.138,511.17Zm0-74.738c-6.841,0-12.622,16.875-12.622,36.851s5.781,36.851,12.622,36.851,12.622-16.877,12.622-36.851S1114.979,436.432,1108.138,436.432Z" transform="translate(-1094.48 -435.4)"/>
      </g>
      <g id="Group_37346" data-name="Group 37346" transform="translate(169.888 35.591)">
        <path id="Path_38582" data-name="Path 38582" d="M1030.42,552.341a16.253,16.253,0,0,1-4.187-.494,7.3,7.3,0,0,1-4.859-3.514c-3.812-7.176,6.458-21.116,23.376-31.739,12.377-7.769,25.019-11.55,32.2-9.63a7.3,7.3,0,0,1,4.859,3.514c3.812,7.176-6.455,21.116-23.374,31.739C1048.2,548.644,1037.782,552.341,1030.42,552.341Zm42.418-44.828c-7.141,0-17.567,3.7-27.538,9.956-16.187,10.161-26.509,23.788-23.01,30.376a6.311,6.311,0,0,0,4.213,3c6.813,1.821,19.428-2,31.388-9.507,16.187-10.161,26.509-23.788,23.01-30.376a6.311,6.311,0,0,0-4.213-3A15.057,15.057,0,0,0,1072.838,507.514Z" transform="translate(-1020.581 -506.471)" stroke="#000" stroke-width="1"/>
      </g>
      <g id="Group_37347" data-name="Group 37347" transform="translate(169.93 34.23)">
        <path id="Path_38583" data-name="Path 38583" d="M1072.96,546.171c-7.364,0-17.781-3.7-28.017-10.124-16.918-10.62-27.186-24.562-23.376-31.739a7.3,7.3,0,0,1,4.861-3.514c7.187-1.92,19.829,1.861,32.2,9.63,16.919,10.62,27.186,24.562,23.376,31.739a7.3,7.3,0,0,1-4.861,3.514A16.262,16.262,0,0,1,1072.96,546.171Zm-42.42-44.825a15.026,15.026,0,0,0-3.847.45,6.311,6.311,0,0,0-4.213,3c-3.5,6.587,6.826,20.215,23.01,30.376,11.958,7.507,24.569,11.328,31.388,9.507a6.31,6.31,0,0,0,4.213-3c3.5-6.588-6.826-20.215-23.01-30.376C1048.109,505.043,1037.681,501.346,1030.54,501.346Z" transform="translate(-1020.774 -500.301)" stroke="#000" stroke-width="1"/>
      </g>
      <g id="Group_37348" data-name="Group 37348" transform="translate(186.18 19.922)">
        <path id="Path_38584" data-name="Path 38584" d="M1108.138,511.17c-7.657,0-13.658-16.641-13.658-37.885s6-37.885,13.658-37.885,13.658,16.641,13.658,37.885S1115.8,511.17,1108.138,511.17Zm0-74.738c-6.841,0-12.622,16.875-12.622,36.851s5.781,36.851,12.622,36.851,12.622-16.877,12.622-36.851S1114.979,436.432,1108.138,436.432Z" transform="translate(-1094.48 -435.4)" stroke="#000" stroke-width="1"/>
      </g>
      <g id="Group_37349" data-name="Group 37349" transform="translate(195.689 52.092)">
        <ellipse id="Ellipse_76" data-name="Ellipse 76" cx="5.254" cy="5.712" rx="5.254" ry="5.712" transform="translate(0)" fill="#ed85c0"/>
      </g>
      <g id="Group_37350" data-name="Group 37350" transform="translate(225.627 35.875)">
        <ellipse id="Ellipse_77" data-name="Ellipse 77" cx="4.156" cy="4.52" rx="4.156" ry="4.52" transform="translate(0)" fill="#80d4ec"/>
      </g>
      <g id="Group_37351" data-name="Group 37351" transform="translate(190.272 86.472)">
        <ellipse id="Ellipse_78" data-name="Ellipse 78" cx="4.156" cy="4.52" rx="4.156" ry="4.52" transform="translate(0)" fill="#f6d854"/>
      </g>
      <g id="Group_37352" data-name="Group 37352" transform="translate(166.863 36.397)">
        <ellipse id="Ellipse_79" data-name="Ellipse 79" cx="4.156" cy="4.52" rx="4.156" ry="4.52" transform="translate(0)" fill="#a4e3db"/>
      </g>
    </g>
    <path id="Path_38796" data-name="Path 38796" d="M1165.829,598.1s16.35-11.464,14.193-22.944-14.839-7.7-17.941,0c0,0,8.228-36.465-4.991-39.3s-15.647,19.179-14.163,27.417c0,0-5.4-22.961-13.355-15.666s0,26.472,0,26.472-9.024-9.724-13.214,2.3,7.247,21.406,7.247,21.406l42.224.324Z" transform="translate(545.762 2540.076)" fill="rgba(246,216,84,0.48)"/>
    <path id="Path_38798" data-name="Path 38798" d="M1197.608,637.513s26.661-18.693,23.143-37.413-24.2-12.553-29.255,0c0,0,13.417-59.46-8.138-64.085s-25.514,31.273-23.095,44.707c0,0-8.8-37.44-21.778-25.545s0,43.165,0,43.165-14.715-15.856-21.546,3.745,11.818,34.9,11.818,34.9l68.851.528Z" transform="translate(613.93 2499.085)" fill="rgba(246,216,84,0.48)"/>
    <path id="Path_38797" data-name="Path 38797" d="M1541.088,1963.456a63.175,63.175,0,0,0-8.37-33.815l-.83.481a62.211,62.211,0,0,1,8.241,33.3Zm5.866-.321.961-.013-.182-13.909c-.051-3.935-.1-8,.214-11.981a64.256,64.256,0,0,1,4.495-19.012l-.89-.359a65.219,65.219,0,0,0-4.562,19.3c-.321,4.021-.269,8.112-.216,12.07Zm-15.115.12.935-.22a38.218,38.218,0,0,0-9.613-17.7l-.692.665A37.242,37.242,0,0,1,1531.839,1963.254Zm23.947-.076c1.162-5.753,5.3-11.5,12.286-17.075l-.6-.75c-7.17,5.723-11.419,11.656-12.629,17.636Z" transform="translate(149.609 1175.931)" stroke="#000" stroke-width="1"/>
    <path id="Path_38799" data-name="Path 38799" d="M1552.829,1992.209a103.015,103.015,0,0,0-13.649-55.139l-1.353.785a101.442,101.442,0,0,1,13.439,54.292Zm9.565-.524,1.566-.021-.3-22.68c-.083-6.417-.169-13.051.35-19.536a104.77,104.77,0,0,1,7.329-31l-1.451-.586a106.357,106.357,0,0,0-7.439,31.467c-.524,6.556-.438,13.228-.352,19.681Zm-24.647.2,1.525-.358a62.319,62.319,0,0,0-15.674-28.864l-1.128,1.083A60.727,60.727,0,0,1,1537.747,1991.88Zm39.048-.124c1.9-9.382,8.638-18.748,20.033-27.842l-.977-1.223c-11.691,9.331-18.621,19.006-20.593,28.757Z" transform="translate(224.664 1146.36)" stroke="#000" stroke-width="1"/>
  </g>
</svg>
