<svg xmlns="http://www.w3.org/2000/svg" width="268.566" height="220.931" viewBox="0 0 268.566 220.931">
  <g id="Group_37677" data-name="Group 37677" transform="translate(-637.948 -2104.085)">
    <g id="Rectangle_4" data-name="Rectangle 4" transform="translate(743.837 2105.755)" stroke="#000" stroke-width="3">
      <rect width="122.766" height="62.636" rx="12" stroke="none"/>
      <rect x="1.5" y="1.5" width="119.766" height="59.636" rx="10.5" fill="none"/>
    </g>
    <g id="Rectangle_3" data-name="Rectangle 3" transform="translate(742.514 2104.085)" fill="#f7d854" stroke="#000" stroke-width="2">
      <rect width="122.766" height="62.636" rx="12" stroke="none"/>
      <rect x="1" y="1" width="120.766" height="60.636" rx="11" fill="none"/>
    </g>
    <path id="Path_39275" data-name="Path 39275" d="M-21.983.091a4.31,4.31,0,0,1-1.71-.325,2.807,2.807,0,0,1-1.2-.936,2.464,2.464,0,0,1-.455-1.443h1.95a1.261,1.261,0,0,0,.4.884,1.4,1.4,0,0,0,.982.325,1.51,1.51,0,0,0,1-.306.994.994,0,0,0,.364-.8.924.924,0,0,0-.247-.663,1.731,1.731,0,0,0-.618-.409,10.219,10.219,0,0,0-1.021-.332,10.929,10.929,0,0,1-1.437-.513,2.516,2.516,0,0,1-.949-.767,2.186,2.186,0,0,1-.4-1.372,2.452,2.452,0,0,1,.4-1.4,2.563,2.563,0,0,1,1.131-.917A4.115,4.115,0,0,1-22.126-9.2a3.61,3.61,0,0,1,2.281.682,2.53,2.53,0,0,1,.969,1.9h-2a1.04,1.04,0,0,0-.4-.774,1.494,1.494,0,0,0-.982-.305,1.264,1.264,0,0,0-.851.273.987.987,0,0,0-.319.793.82.82,0,0,0,.24.6,1.834,1.834,0,0,0,.6.39q.357.15,1.007.345a10.584,10.584,0,0,1,1.443.52,2.591,2.591,0,0,1,.962.78,2.167,2.167,0,0,1,.4,1.365,2.568,2.568,0,0,1-.377,1.352,2.661,2.661,0,0,1-1.1.995A3.769,3.769,0,0,1-21.983.091Zm6.9-5.8v3.484A.689.689,0,0,0-14.9-1.7a.862.862,0,0,0,.592.162h.845V0h-1.144a2.006,2.006,0,0,1-2.3-2.236V-5.707h-.858V-7.2h.858V-8.983h1.833V-7.2h1.612v1.495ZM-5.356-7.2V0H-7.189V-.91a2.4,2.4,0,0,1-.916.735A2.845,2.845,0,0,1-9.334.091a3.051,3.051,0,0,1-1.5-.358,2.52,2.52,0,0,1-1.02-1.053,3.48,3.48,0,0,1-.371-1.658V-7.2h1.82v3.965a1.867,1.867,0,0,0,.429,1.32,1.519,1.519,0,0,0,1.17.462,1.536,1.536,0,0,0,1.183-.462,1.867,1.867,0,0,0,.429-1.32V-7.2ZM-4.03-3.627a4.168,4.168,0,0,1,.436-1.937,3.177,3.177,0,0,1,1.19-1.3A3.183,3.183,0,0,1-.728-7.319a3.059,3.059,0,0,1,1.339.306A2.677,2.677,0,0,1,1.625-6.2V-9.62H3.471V0H1.625V-1.066a2.466,2.466,0,0,1-.949.858A2.973,2.973,0,0,1-.741.117,3.093,3.093,0,0,1-2.4-.351a3.259,3.259,0,0,1-1.19-1.32A4.238,4.238,0,0,1-4.03-3.627ZM1.638-3.6a2.334,2.334,0,0,0-.26-1.138,1.833,1.833,0,0,0-.7-.728A1.876,1.876,0,0,0-.273-5.72a1.843,1.843,0,0,0-.936.247,1.86,1.86,0,0,0-.7.722,2.26,2.26,0,0,0-.266,1.125A2.335,2.335,0,0,0-1.9-2.49a1.919,1.919,0,0,0,.7.747,1.783,1.783,0,0,0,.93.26,1.876,1.876,0,0,0,.949-.253,1.833,1.833,0,0,0,.7-.728A2.334,2.334,0,0,0,1.638-3.6Zm10.309-.156a4.3,4.3,0,0,1-.052.7H6.63a1.791,1.791,0,0,0,.546,1.222,1.684,1.684,0,0,0,1.183.442A1.486,1.486,0,0,0,9.8-2.262h1.963a3.281,3.281,0,0,1-1.2,1.71A3.492,3.492,0,0,1,8.4.117,3.757,3.757,0,0,1,6.532-.345,3.248,3.248,0,0,1,5.245-1.651,4,4,0,0,1,4.784-3.6a4.078,4.078,0,0,1,.455-1.963,3.175,3.175,0,0,1,1.274-1.3A3.817,3.817,0,0,1,8.4-7.319a3.786,3.786,0,0,1,1.839.442A3.111,3.111,0,0,1,11.5-5.623,3.8,3.8,0,0,1,11.947-3.757Zm-1.885-.52A1.443,1.443,0,0,0,9.555-5.4a1.8,1.8,0,0,0-1.209-.423,1.652,1.652,0,0,0-1.137.41,1.8,1.8,0,0,0-.566,1.137Zm7.2-3.029a2.776,2.776,0,0,1,2.08.813,3.111,3.111,0,0,1,.793,2.269V0h-1.82V-3.978a1.867,1.867,0,0,0-.429-1.32,1.519,1.519,0,0,0-1.17-.461,1.557,1.557,0,0,0-1.19.461,1.85,1.85,0,0,0-.436,1.32V0h-1.82V-7.2h1.82v.9a2.514,2.514,0,0,1,.929-.734A2.875,2.875,0,0,1,17.264-7.306Zm6.721,1.6v3.484a.689.689,0,0,0,.175.526.862.862,0,0,0,.592.162H25.6V0H24.453a2.006,2.006,0,0,1-2.3-2.236V-5.707h-.858V-7.2h.858V-8.983h1.833V-7.2H25.6v1.495ZM-33.286,11.656a2.131,2.131,0,0,0-.858-.871,2.611,2.611,0,0,0-1.274-.3,2.785,2.785,0,0,0-1.43.364,2.514,2.514,0,0,0-.975,1.04,3.338,3.338,0,0,0-.351,1.56,3.346,3.346,0,0,0,.358,1.586,2.531,2.531,0,0,0,.994,1.04,2.935,2.935,0,0,0,1.482.364,2.571,2.571,0,0,0,1.7-.553,2.637,2.637,0,0,0,.871-1.54h-3.12V12.956h4.914v1.586a4.263,4.263,0,0,1-.78,1.755,4.4,4.4,0,0,1-1.541,1.294,4.529,4.529,0,0,1-2.112.487,4.783,4.783,0,0,1-2.373-.591,4.3,4.3,0,0,1-1.664-1.644,4.717,4.717,0,0,1-.6-2.392,4.753,4.753,0,0,1,.6-2.4A4.291,4.291,0,0,1-37.778,9.4a4.757,4.757,0,0,1,2.36-.591,4.722,4.722,0,0,1,2.665.747,3.817,3.817,0,0,1,1.56,2.1Zm10.361,2.587a4.3,4.3,0,0,1-.052.7h-5.265a1.791,1.791,0,0,0,.546,1.222,1.684,1.684,0,0,0,1.183.442,1.486,1.486,0,0,0,1.443-.871h1.963a3.281,3.281,0,0,1-1.2,1.71,3.492,3.492,0,0,1-2.171.67,3.757,3.757,0,0,1-1.865-.462,3.248,3.248,0,0,1-1.287-1.307,4,4,0,0,1-.461-1.95,4.078,4.078,0,0,1,.455-1.963,3.175,3.175,0,0,1,1.274-1.3,3.817,3.817,0,0,1,1.885-.455,3.786,3.786,0,0,1,1.84.442,3.111,3.111,0,0,1,1.261,1.255A3.8,3.8,0,0,1-22.925,14.243Zm-1.885-.52a1.443,1.443,0,0,0-.507-1.125,1.8,1.8,0,0,0-1.209-.422,1.652,1.652,0,0,0-1.138.41,1.8,1.8,0,0,0-.566,1.137Zm5.33-1.43v3.484a.689.689,0,0,0,.175.526.862.862,0,0,0,.592.163h.845V18h-1.144a2.006,2.006,0,0,1-2.3-2.236V12.293h-.858V10.8h.858V9.017h1.833V10.8h1.612v1.495Zm5.681,5.824a3.8,3.8,0,0,1-1.586-.319,2.8,2.8,0,0,1-1.112-.865,2.191,2.191,0,0,1-.448-1.209h1.833a1,1,0,0,0,.41.689,1.424,1.424,0,0,0,.891.273A1.383,1.383,0,0,0-13,16.479a.63.63,0,0,0,.292-.533.562.562,0,0,0-.357-.526,6.727,6.727,0,0,0-1.138-.384,9.64,9.64,0,0,1-1.319-.4A2.291,2.291,0,0,1-16.406,14a1.71,1.71,0,0,1-.37-1.157,1.867,1.867,0,0,1,.344-1.092,2.313,2.313,0,0,1,.988-.78,3.7,3.7,0,0,1,1.515-.286,3.092,3.092,0,0,1,2.054.643,2.384,2.384,0,0,1,.845,1.736h-1.742a.943.943,0,0,0-.358-.682,1.329,1.329,0,0,0-.851-.253,1.342,1.342,0,0,0-.76.182.58.58,0,0,0-.267.507.6.6,0,0,0,.364.552,5.653,5.653,0,0,0,1.131.384,9.6,9.6,0,0,1,1.287.4,2.274,2.274,0,0,1,.878.643,1.767,1.767,0,0,1,.383,1.151,1.908,1.908,0,0,1-.344,1.118,2.269,2.269,0,0,1-.988.774A3.743,3.743,0,0,1-13.8,18.117ZM-1.7,18l-2-3.536h-.858V18h-1.82V8.926H-2.97a3.977,3.977,0,0,1,1.794.37,2.588,2.588,0,0,1,1.112,1,2.732,2.732,0,0,1,.37,1.411,2.7,2.7,0,0,1-.52,1.618,2.671,2.671,0,0,1-1.547.994L.41,18Zm-2.86-4.9h1.521a1.52,1.52,0,0,0,1.105-.358,1.33,1.33,0,0,0,.364-.995,1.269,1.269,0,0,0-.364-.969,1.556,1.556,0,0,0-1.105-.344H-4.556ZM8.652,14.243a4.3,4.3,0,0,1-.052.7H3.335a1.791,1.791,0,0,0,.546,1.222,1.684,1.684,0,0,0,1.183.442,1.486,1.486,0,0,0,1.443-.871H8.47a3.281,3.281,0,0,1-1.2,1.71,3.492,3.492,0,0,1-2.171.67,3.757,3.757,0,0,1-1.866-.462A3.248,3.248,0,0,1,1.95,16.349a4,4,0,0,1-.462-1.95,4.078,4.078,0,0,1,.455-1.963,3.175,3.175,0,0,1,1.274-1.3A3.817,3.817,0,0,1,5.1,10.681a3.786,3.786,0,0,1,1.839.442A3.111,3.111,0,0,1,8.2,12.377,3.8,3.8,0,0,1,8.652,14.243Zm-1.885-.52A1.443,1.443,0,0,0,6.26,12.6a1.8,1.8,0,0,0-1.209-.422,1.652,1.652,0,0,0-1.138.41,1.8,1.8,0,0,0-.566,1.137Zm5.967,4.394a3.8,3.8,0,0,1-1.586-.319,2.8,2.8,0,0,1-1.112-.865,2.191,2.191,0,0,1-.448-1.209h1.833a1,1,0,0,0,.41.689,1.424,1.424,0,0,0,.891.273,1.383,1.383,0,0,0,.813-.208.63.63,0,0,0,.292-.533.562.562,0,0,0-.357-.526,6.727,6.727,0,0,0-1.138-.384,9.64,9.64,0,0,1-1.319-.4A2.291,2.291,0,0,1,10.127,14a1.71,1.71,0,0,1-.371-1.157,1.867,1.867,0,0,1,.345-1.092,2.313,2.313,0,0,1,.988-.78,3.7,3.7,0,0,1,1.515-.286,3.092,3.092,0,0,1,2.054.643A2.384,2.384,0,0,1,15.5,13.06H13.761a.943.943,0,0,0-.358-.682,1.329,1.329,0,0,0-.851-.253,1.342,1.342,0,0,0-.76.182.58.58,0,0,0-.267.507.6.6,0,0,0,.364.552,5.653,5.653,0,0,0,1.131.384,9.6,9.6,0,0,1,1.287.4,2.274,2.274,0,0,1,.878.643,1.767,1.767,0,0,1,.383,1.151,1.908,1.908,0,0,1-.344,1.118,2.269,2.269,0,0,1-.988.774A3.743,3.743,0,0,1,12.734,18.117ZM23.862,10.8V18H22.029v-.91a2.4,2.4,0,0,1-.917.734,2.845,2.845,0,0,1-1.229.267,3.051,3.051,0,0,1-1.5-.358,2.52,2.52,0,0,1-1.021-1.053A3.48,3.48,0,0,1,17,15.023V10.8h1.82v3.965a1.867,1.867,0,0,0,.429,1.32,1.519,1.519,0,0,0,1.17.462,1.536,1.536,0,0,0,1.183-.462,1.867,1.867,0,0,0,.429-1.32V10.8ZM27.476,8.38V18h-1.82V8.38Zm3.913,3.913v3.484a.689.689,0,0,0,.175.526.862.862,0,0,0,.592.163H33V18H31.857a2.006,2.006,0,0,1-2.3-2.236V12.293H28.7V10.8h.858V9.017h1.833V10.8H33v1.495Zm5.681,5.824a3.8,3.8,0,0,1-1.586-.319,2.8,2.8,0,0,1-1.111-.865,2.191,2.191,0,0,1-.449-1.209h1.833a1,1,0,0,0,.41.689,1.424,1.424,0,0,0,.89.273,1.383,1.383,0,0,0,.813-.208.63.63,0,0,0,.292-.533.562.562,0,0,0-.357-.526,6.727,6.727,0,0,0-1.138-.384,9.64,9.64,0,0,1-1.319-.4A2.291,2.291,0,0,1,34.463,14a1.71,1.71,0,0,1-.371-1.157,1.867,1.867,0,0,1,.345-1.092,2.313,2.313,0,0,1,.988-.78,3.7,3.7,0,0,1,1.514-.286,3.092,3.092,0,0,1,2.054.643,2.384,2.384,0,0,1,.845,1.736H38.1a.943.943,0,0,0-.358-.682,1.612,1.612,0,0,0-1.612-.071.58.58,0,0,0-.266.507.6.6,0,0,0,.364.552,5.653,5.653,0,0,0,1.131.384,9.6,9.6,0,0,1,1.287.4,2.274,2.274,0,0,1,.877.643,1.767,1.767,0,0,1,.383,1.151,1.908,1.908,0,0,1-.344,1.118,2.269,2.269,0,0,1-.988.774A3.743,3.743,0,0,1,37.069,18.117Z" transform="translate(804.514 2129.777)"/>
    <path id="Path_37262" data-name="Path 37262" d="M0,45V42c1.008,0,2.016,0,3-.01l.02,3C2.029,44.993,1.015,45,0,45Zm6.029-.04-.041-3C7,41.943,8,41.925,8.975,41.9l.065,3C8.057,44.924,7.044,44.942,6.029,44.956Zm6.015-.13-.091-3c1.011-.031,2.017-.066,2.992-.1l.119,3C14.08,44.759,13.064,44.795,12.044,44.826Zm6.03-.241-.152-3c1.01-.051,2.012-.108,2.979-.169l.188,2.994C20.11,44.475,19.1,44.533,18.074,44.584ZM24.1,44.2l-.23-2.991c1.01-.078,2.01-.162,2.971-.251l.277,2.987C26.14,44.04,25.124,44.125,24.1,44.2Zm6.03-.562L29.8,40.661c1.007-.112,2-.233,2.944-.36l.4,2.974C32.169,43.4,31.157,43.527,30.128,43.642Zm6.017-.808-.475-2.962c1-.161,1.98-.333,2.907-.512l.569,2.945C38.188,42.49,37.178,42.668,36.145,42.834Zm5.99-1.166-.686-2.92c.988-.232,1.94-.481,2.829-.739l.836,2.881C44.175,41.162,43.173,41.424,42.135,41.668Zm5.927-1.739-1.031-2.817c.945-.346,1.832-.716,2.638-1.1l1.293,2.707C50.071,39.143,49.1,39.55,48.062,39.929Zm5.693-2.773-1.648-2.507a13.966,13.966,0,0,0,2.114-1.684l2.1,2.141A16.965,16.965,0,0,1,53.755,37.156Zm4.663-4.693-2.574-1.541a9.933,9.933,0,0,0,1.028-2.392l2.883.829A12.892,12.892,0,0,1,58.418,32.463Zm1.922-6.325-2.987-.283c.1-1.019.116-2.067.123-2.867l3,.024C60.47,23.873,60.448,25.006,60.341,26.139Zm.148-6.114-3-.047a30.559,30.559,0,0,1,.186-3.147l2.979.354A27.314,27.314,0,0,0,60.489,20.024Zm.727-5.475-2.848-.942a12.655,12.655,0,0,1,1.473-3.05l2.5,1.654A9.7,9.7,0,0,0,61.216,14.55Zm2.841-4.32L62.035,8.013a17.881,17.881,0,0,1,2.619-1.96L66.236,8.6A14.879,14.879,0,0,0,64.057,10.229Zm4.659-2.942-1.244-2.73c.9-.408,1.874-.8,2.908-1.163l1,2.83C70.425,6.559,69.531,6.916,68.716,7.288Zm5.427-1.931-.809-2.889c.94-.263,1.943-.516,2.98-.752l.665,2.925C75.991,4.866,75.036,5.107,74.143,5.357Zm5.718-1.311L79.309,1.1c.961-.18,1.972-.353,3.006-.514l.461,2.964C81.773,3.7,80.792,3.871,79.861,4.046Zm5.848-.915L85.324.156C86.293.03,87.3-.09,88.332-.2l.323,2.983C87.648,2.891,86.658,3.008,85.71,3.131Zm5.9-.641L91.34-.5c.975-.088,1.989-.171,3.013-.247l.222,2.992C93.567,2.322,92.569,2.4,91.609,2.49Zm5.944-.444L97.371-.948c.977-.059,1.989-.115,3.008-.164l.146,3C99.519,1.933,98.519,1.987,97.553,2.046Zm5.957-.292-.114-3c.981-.037,1.994-.071,3.011-.1l.086,3C105.485,1.684,104.482,1.717,103.51,1.754Zm5.966-.172-.061-3c.984-.02,2-.036,3.014-.049l.037,3C111.459,1.546,110.453,1.562,109.476,1.582Zm5.986-.075-.016-3c.824,0,1.67-.007,2.514-.007v3C117.121,1.5,116.281,1.5,115.462,1.507Z" transform="translate(882.176 2166.721) rotate(90)"/>
    <path id="Path_37263" data-name="Path 37263" d="M0,0,4.679,3.888a.916.916,0,0,1,0,1.411L0,9.187" transform="translate(886.77 2279.252) rotate(90)" fill="none" stroke="#000" stroke-linecap="round" stroke-width="3"/>
    <path id="Path_37264" data-name="Path 37264" d="M55.824,49.506c-1.043-.018-2.069-.053-3.048-.1l.157-3c.944.049,1.934.083,2.942.1Zm-6.1-.327c-1.056-.1-2.085-.226-3.057-.373l.446-2.967c.919.138,1.894.257,2.9.353Zm-6.111-.936c-1.061-.235-2.08-.508-3.027-.81l.911-2.858c.862.275,1.792.524,2.766.74ZM37.614,46.3a20.332,20.332,0,0,1-2.831-1.568l1.667-2.494a17.327,17.327,0,0,0,2.413,1.334Zm-5.38-3.659a14.92,14.92,0,0,1-2.062-2.613L32.72,38.44a11.916,11.916,0,0,0,1.647,2.087Zm-3.5-5.586a20.338,20.338,0,0,1-.854-3.118l2.945-.574a17.377,17.377,0,0,0,.727,2.663ZM27.453,30.8c-.081-.928-.134-1.937-.163-3.088l3-.076c.028,1.088.077,2.038.153,2.9Zm-.194-6.124q0-.335,0-.669c0-.762,0-1.549-.008-2.317l3-.03c.008.783.008,1.578.008,2.347q0,.334,0,.667Zm-.093-5.918c-.057-1.054-.145-1.989-.267-2.859l2.971-.417c.134.955.229,1.973.291,3.113Zm-.827-5.6a14.672,14.672,0,0,0-.962-2.54l2.689-1.331a17.675,17.675,0,0,1,1.162,3.061Zm-2.4-4.785a12.42,12.42,0,0,0-1.9-1.878l1.873-2.343A15.425,15.425,0,0,1,26.274,6.49ZM19.763,5a20.506,20.506,0,0,0-2.545-1.145l1.051-2.81a23.511,23.511,0,0,1,2.919,1.315Zm-5.26-2c-.883-.23-1.83-.437-2.815-.614l.531-2.953C13.28-.37,14.3-.147,15.261.1ZM8.809,1.966c-.929-.11-1.91-.2-2.915-.273L6.1-1.3c1.053.074,2.082.17,3.057.286ZM2.956,1.546C2.006,1.515,1.011,1.5,0,1.5v-3c1.043,0,2.07.016,3.051.047Z" transform="translate(809.533 2166.721) rotate(90)"/>
    <path id="Path_37265" data-name="Path 37265" d="M0,0,4.679,3.888a.916.916,0,0,1,0,1.411L0,9.187" transform="translate(766.105 2218.81) rotate(90)" fill="none" stroke="#000" stroke-linecap="round" stroke-width="3"/>
    <g id="Rectangle_2717" data-name="Rectangle 2717" transform="translate(639.618 2226.992)" stroke="#000" stroke-width="3">
      <rect width="182.896" height="36.746" rx="12" stroke="none"/>
      <rect x="1.5" y="1.5" width="179.896" height="33.746" rx="10.5" fill="none"/>
    </g>
    <g id="Rectangle_2720" data-name="Rectangle 2720" transform="translate(723.618 2288.27)" stroke="#000" stroke-width="3">
      <rect width="182.896" height="36.746" rx="12" stroke="none"/>
      <rect x="1.5" y="1.5" width="179.896" height="33.746" rx="10.5" fill="none"/>
    </g>
    <g id="Rectangle_2718" data-name="Rectangle 2718" transform="translate(637.948 2225.322)" fill="#a4e3db" stroke="#000" stroke-width="2">
      <rect width="182.896" height="36.746" rx="12" stroke="none"/>
      <rect x="1" y="1" width="180.896" height="34.746" rx="11" fill="none"/>
    </g>
    <path id="Path_39276" data-name="Path 39276" d="M4.03.091a4.31,4.31,0,0,1-1.71-.325,2.807,2.807,0,0,1-1.2-.936A2.464,2.464,0,0,1,.663-2.613h1.95a1.261,1.261,0,0,0,.4.884,1.4,1.4,0,0,0,.981.325,1.51,1.51,0,0,0,1-.306.994.994,0,0,0,.364-.8.924.924,0,0,0-.247-.663,1.731,1.731,0,0,0-.617-.409,10.219,10.219,0,0,0-1.021-.332,10.929,10.929,0,0,1-1.437-.513,2.516,2.516,0,0,1-.949-.767,2.186,2.186,0,0,1-.4-1.372,2.452,2.452,0,0,1,.4-1.4,2.563,2.563,0,0,1,1.131-.917A4.115,4.115,0,0,1,3.887-9.2a3.61,3.61,0,0,1,2.282.682,2.53,2.53,0,0,1,.968,1.9h-2a1.04,1.04,0,0,0-.4-.774A1.494,1.494,0,0,0,3.757-7.7a1.264,1.264,0,0,0-.851.273.987.987,0,0,0-.319.793.82.82,0,0,0,.24.6,1.834,1.834,0,0,0,.6.39q.357.15,1.007.345a10.584,10.584,0,0,1,1.443.52,2.591,2.591,0,0,1,.962.78,2.167,2.167,0,0,1,.4,1.365,2.568,2.568,0,0,1-.377,1.352,2.661,2.661,0,0,1-1.1.995A3.769,3.769,0,0,1,4.03.091ZM15.509-3.757a4.3,4.3,0,0,1-.052.7H10.192a1.791,1.791,0,0,0,.546,1.222,1.684,1.684,0,0,0,1.183.442,1.486,1.486,0,0,0,1.443-.871h1.963a3.281,3.281,0,0,1-1.2,1.71,3.492,3.492,0,0,1-2.171.67,3.757,3.757,0,0,1-1.866-.462A3.248,3.248,0,0,1,8.808-1.651,4,4,0,0,1,8.346-3.6,4.078,4.078,0,0,1,8.8-5.564a3.175,3.175,0,0,1,1.274-1.3,3.817,3.817,0,0,1,1.885-.455,3.786,3.786,0,0,1,1.839.442,3.111,3.111,0,0,1,1.261,1.255A3.8,3.8,0,0,1,15.509-3.757Zm-1.885-.52A1.443,1.443,0,0,0,13.117-5.4a1.8,1.8,0,0,0-1.209-.423,1.652,1.652,0,0,0-1.138.41A1.8,1.8,0,0,0,10.2-4.277Zm7.2-3.029a2.776,2.776,0,0,1,2.08.813A3.111,3.111,0,0,1,23.7-4.225V0h-1.82V-3.978A1.867,1.867,0,0,0,21.45-5.3a1.519,1.519,0,0,0-1.17-.461,1.557,1.557,0,0,0-1.19.461,1.85,1.85,0,0,0-.436,1.32V0h-1.82V-7.2h1.82v.9a2.514,2.514,0,0,1,.93-.734A2.875,2.875,0,0,1,20.826-7.306ZM24.96-3.627A4.168,4.168,0,0,1,25.4-5.564a3.177,3.177,0,0,1,1.19-1.3,3.183,3.183,0,0,1,1.677-.455,3.059,3.059,0,0,1,1.339.306,2.677,2.677,0,0,1,1.014.813V-9.62h1.846V0H30.615V-1.066a2.466,2.466,0,0,1-.949.858,2.973,2.973,0,0,1-1.417.325,3.093,3.093,0,0,1-1.664-.468,3.259,3.259,0,0,1-1.19-1.32A4.238,4.238,0,0,1,24.96-3.627Zm5.668.026a2.334,2.334,0,0,0-.26-1.138,1.833,1.833,0,0,0-.7-.728,1.876,1.876,0,0,0-.949-.253,1.843,1.843,0,0,0-.936.247,1.86,1.86,0,0,0-.7.722,2.26,2.26,0,0,0-.267,1.125,2.335,2.335,0,0,0,.267,1.138,1.919,1.919,0,0,0,.7.747,1.783,1.783,0,0,0,.93.26,1.876,1.876,0,0,0,.949-.253,1.833,1.833,0,0,0,.7-.728A2.334,2.334,0,0,0,30.628-3.6Zm7.852-6.773-.156,2.756H37.089l-.169-2.756Zm2.21,0-.169,2.756H39.286l-.169-2.756Zm.936,5.824a4.753,4.753,0,0,1,.6-2.4A4.316,4.316,0,0,1,43.882-8.6a4.685,4.685,0,0,1,2.347-.591,4.616,4.616,0,0,1,2.665.78,4.078,4.078,0,0,1,1.6,2.158H48.4a2.169,2.169,0,0,0-.877-.975,2.575,2.575,0,0,0-1.307-.325,2.688,2.688,0,0,0-1.41.371,2.528,2.528,0,0,0-.962,1.046A3.45,3.45,0,0,0,43.5-4.55a3.46,3.46,0,0,0,.345,1.58A2.52,2.52,0,0,0,44.8-1.918a2.688,2.688,0,0,0,1.41.371,2.535,2.535,0,0,0,1.307-.331A2.209,2.209,0,0,0,48.4-2.86h2.093A4.056,4.056,0,0,1,48.9-.7a4.636,4.636,0,0,1-2.672.774,4.685,4.685,0,0,1-2.347-.592,4.329,4.329,0,0,1-1.651-1.644A4.717,4.717,0,0,1,41.626-4.55ZM55.25.117a3.793,3.793,0,0,1-1.872-.462,3.323,3.323,0,0,1-1.306-1.307A3.915,3.915,0,0,1,51.6-3.6a3.832,3.832,0,0,1,.487-1.95,3.388,3.388,0,0,1,1.333-1.307A3.867,3.867,0,0,1,55.3-7.319a3.867,3.867,0,0,1,1.885.461A3.388,3.388,0,0,1,58.52-5.551a3.832,3.832,0,0,1,.488,1.95,3.754,3.754,0,0,1-.5,1.95A3.466,3.466,0,0,1,57.155-.345,3.931,3.931,0,0,1,55.25.117Zm0-1.586a1.893,1.893,0,0,0,.93-.24,1.748,1.748,0,0,0,.7-.721,2.431,2.431,0,0,0,.26-1.17,2.168,2.168,0,0,0-.539-1.58,1.773,1.773,0,0,0-1.32-.552,1.732,1.732,0,0,0-1.306.552,2.2,2.2,0,0,0-.527,1.58,2.236,2.236,0,0,0,.514,1.579A1.691,1.691,0,0,0,55.25-1.469Zm9.087-5.837a2.776,2.776,0,0,1,2.08.813,3.111,3.111,0,0,1,.793,2.269V0H65.39V-3.978a1.867,1.867,0,0,0-.429-1.32,1.519,1.519,0,0,0-1.17-.461A1.557,1.557,0,0,0,62.6-5.3a1.85,1.85,0,0,0-.436,1.32V0h-1.82V-7.2h1.82v.9a2.514,2.514,0,0,1,.93-.734A2.875,2.875,0,0,1,64.337-7.306Zm7.423-.013A3.023,3.023,0,0,1,73.177-7a2.609,2.609,0,0,1,.962.826V-7.2h1.833V.052a3.864,3.864,0,0,1-.4,1.788A2.992,2.992,0,0,1,74.36,3.088a3.865,3.865,0,0,1-1.95.461,4.165,4.165,0,0,1-2.516-.715A2.65,2.65,0,0,1,68.783.884H70.59a1.346,1.346,0,0,0,.618.786,2.151,2.151,0,0,0,1.151.293,1.78,1.78,0,0,0,1.287-.474A1.906,1.906,0,0,0,74.139.052V-1.066a2.765,2.765,0,0,1-.968.845,2.889,2.889,0,0,1-1.41.338A3.093,3.093,0,0,1,70.1-.351a3.259,3.259,0,0,1-1.189-1.32,4.237,4.237,0,0,1-.436-1.957,4.168,4.168,0,0,1,.436-1.937,3.192,3.192,0,0,1,1.183-1.3A3.15,3.15,0,0,1,71.76-7.319ZM74.139-3.6a2.334,2.334,0,0,0-.26-1.138,1.833,1.833,0,0,0-.7-.728,1.876,1.876,0,0,0-.949-.253,1.843,1.843,0,0,0-.936.247,1.86,1.86,0,0,0-.7.722,2.26,2.26,0,0,0-.266,1.125A2.335,2.335,0,0,0,70.6-2.49a1.919,1.919,0,0,0,.7.747,1.783,1.783,0,0,0,.929.26,1.876,1.876,0,0,0,.949-.253,1.833,1.833,0,0,0,.7-.728A2.334,2.334,0,0,0,74.139-3.6Zm5.434-2.483a2.559,2.559,0,0,1,.916-.9,2.549,2.549,0,0,1,1.294-.325V-5.4H81.3a1.843,1.843,0,0,0-1.293.4,1.858,1.858,0,0,0-.436,1.4V0h-1.82V-7.2h1.82Zm2.964,2.457a4.168,4.168,0,0,1,.436-1.937,3.192,3.192,0,0,1,1.183-1.3,3.15,3.15,0,0,1,1.671-.455,2.934,2.934,0,0,1,1.41.325,2.862,2.862,0,0,1,.968.819V-7.2h1.833V0H88.205V-1.053a2.707,2.707,0,0,1-.968.838,2.963,2.963,0,0,1-1.424.332,3.061,3.061,0,0,1-1.658-.468,3.275,3.275,0,0,1-1.183-1.32A4.237,4.237,0,0,1,82.537-3.627Zm5.668.026a2.334,2.334,0,0,0-.26-1.138,1.833,1.833,0,0,0-.7-.728,1.876,1.876,0,0,0-.949-.253,1.843,1.843,0,0,0-.936.247,1.86,1.86,0,0,0-.7.722A2.26,2.26,0,0,0,84.4-3.627a2.335,2.335,0,0,0,.266,1.138,1.919,1.919,0,0,0,.7.747,1.783,1.783,0,0,0,.929.26,1.876,1.876,0,0,0,.949-.253,1.833,1.833,0,0,0,.7-.728A2.334,2.334,0,0,0,88.205-3.6Zm5.733-2.106v3.484a.689.689,0,0,0,.175.526.862.862,0,0,0,.591.162h.845V0H94.406a2.006,2.006,0,0,1-2.3-2.236V-5.707h-.858V-7.2h.858V-8.983h1.833V-7.2H95.55v1.495ZM99.619.117A3.8,3.8,0,0,1,98.033-.2a2.8,2.8,0,0,1-1.112-.864,2.191,2.191,0,0,1-.448-1.209h1.833a1,1,0,0,0,.409.689,1.424,1.424,0,0,0,.891.273,1.383,1.383,0,0,0,.812-.208.63.63,0,0,0,.293-.533.562.562,0,0,0-.358-.526,6.727,6.727,0,0,0-1.137-.384,9.64,9.64,0,0,1-1.319-.4A2.291,2.291,0,0,1,97.013-4a1.71,1.71,0,0,1-.37-1.157,1.867,1.867,0,0,1,.344-1.092,2.313,2.313,0,0,1,.988-.78,3.7,3.7,0,0,1,1.515-.286,3.092,3.092,0,0,1,2.054.643,2.384,2.384,0,0,1,.845,1.735h-1.742a.943.943,0,0,0-.357-.682,1.329,1.329,0,0,0-.852-.253,1.342,1.342,0,0,0-.76.182.58.58,0,0,0-.267.507.6.6,0,0,0,.364.552,5.652,5.652,0,0,0,1.131.384,9.6,9.6,0,0,1,1.287.4,2.274,2.274,0,0,1,.878.643,1.767,1.767,0,0,1,.383,1.151,1.908,1.908,0,0,1-.344,1.118,2.269,2.269,0,0,1-.988.774A3.743,3.743,0,0,1,99.619.117Zm5.473-10.491-.156,2.756H103.7l-.169-2.756Zm2.21,0-.169,2.756H105.9l-.169-2.756Zm6.292,2.769V-5.33h3.055v1.443h-3.055v2.405h3.445V0h-5.265V-9.087h5.265v1.482Zm14.04.3a2.891,2.891,0,0,1,2.139.813,3.066,3.066,0,0,1,.813,2.269V0h-1.82V-3.978a1.8,1.8,0,0,0-.429-1.293,1.543,1.543,0,0,0-1.17-.449,1.564,1.564,0,0,0-1.176.449,1.783,1.783,0,0,0-.436,1.293V0h-1.82V-3.978a1.8,1.8,0,0,0-.429-1.293,1.543,1.543,0,0,0-1.17-.449,1.581,1.581,0,0,0-1.19.449,1.783,1.783,0,0,0-.435,1.293V0h-1.82V-7.2h1.82v.871a2.422,2.422,0,0,1,.9-.715,2.819,2.819,0,0,1,1.215-.26,3.127,3.127,0,0,1,1.508.358,2.505,2.505,0,0,1,1.027,1.02,2.607,2.607,0,0,1,1.021-1A2.905,2.905,0,0,1,127.634-7.306Zm4.212,3.679a4.168,4.168,0,0,1,.436-1.937,3.192,3.192,0,0,1,1.183-1.3,3.15,3.15,0,0,1,1.671-.455,2.934,2.934,0,0,1,1.41.325,2.862,2.862,0,0,1,.969.819V-7.2h1.833V0h-1.833V-1.053a2.707,2.707,0,0,1-.969.838,2.963,2.963,0,0,1-1.423.332,3.061,3.061,0,0,1-1.658-.468,3.275,3.275,0,0,1-1.183-1.32A4.238,4.238,0,0,1,131.846-3.627Zm5.668.026a2.335,2.335,0,0,0-.26-1.138,1.833,1.833,0,0,0-.7-.728,1.876,1.876,0,0,0-.949-.253,1.843,1.843,0,0,0-.936.247,1.86,1.86,0,0,0-.7.722,2.26,2.26,0,0,0-.267,1.125,2.335,2.335,0,0,0,.267,1.138,1.919,1.919,0,0,0,.7.747,1.783,1.783,0,0,0,.93.26,1.876,1.876,0,0,0,.949-.253,1.833,1.833,0,0,0,.7-.728A2.335,2.335,0,0,0,137.514-3.6Zm4.537-4.459a1.109,1.109,0,0,1-.8-.306,1.011,1.011,0,0,1-.318-.76,1.011,1.011,0,0,1,.318-.76,1.109,1.109,0,0,1,.8-.306,1.109,1.109,0,0,1,.8.306,1.011,1.011,0,0,1,.318.76,1.011,1.011,0,0,1-.318.76A1.109,1.109,0,0,1,142.051-8.06Zm.9.858V0h-1.82V-7.2Zm3.614-2.418V0h-1.82V-9.62Z" transform="translate(653.815 2249.343)"/>
    <g id="Rectangle_2719" data-name="Rectangle 2719" transform="translate(721.948 2285.765)" fill="#a4e3db" stroke="#000" stroke-width="2">
      <rect width="182.896" height="36.746" rx="12" stroke="none"/>
      <rect x="1" y="1" width="180.896" height="34.746" rx="11" fill="none"/>
    </g>
    <path id="Path_39277" data-name="Path 39277" d="M6.461-1.729H2.847L2.249,0H.338L3.6-9.087H5.72L8.983,0H7.059ZM5.967-3.185l-1.313-3.8-1.313,3.8Zm6.994,3.3A3.8,3.8,0,0,1,11.375-.2a2.8,2.8,0,0,1-1.112-.864,2.191,2.191,0,0,1-.448-1.209h1.833a1,1,0,0,0,.41.689,1.424,1.424,0,0,0,.891.273,1.383,1.383,0,0,0,.813-.208.63.63,0,0,0,.292-.533.562.562,0,0,0-.357-.526,6.727,6.727,0,0,0-1.138-.384,9.64,9.64,0,0,1-1.319-.4A2.291,2.291,0,0,1,10.355-4a1.71,1.71,0,0,1-.371-1.157,1.867,1.867,0,0,1,.345-1.092,2.313,2.313,0,0,1,.988-.78,3.7,3.7,0,0,1,1.515-.286,3.092,3.092,0,0,1,2.054.643A2.384,2.384,0,0,1,15.73-4.94H13.988a.943.943,0,0,0-.358-.682,1.329,1.329,0,0,0-.851-.253,1.342,1.342,0,0,0-.76.182.58.58,0,0,0-.267.507.6.6,0,0,0,.364.552,5.652,5.652,0,0,0,1.131.384,9.6,9.6,0,0,1,1.287.4,2.274,2.274,0,0,1,.878.643A1.767,1.767,0,0,1,15.8-2.054a1.908,1.908,0,0,1-.344,1.118,2.269,2.269,0,0,1-.988.774A3.743,3.743,0,0,1,12.961.117Zm7.085,0A3.8,3.8,0,0,1,18.46-.2a2.8,2.8,0,0,1-1.111-.864A2.191,2.191,0,0,1,16.9-2.275h1.833a1,1,0,0,0,.41.689,1.424,1.424,0,0,0,.89.273,1.383,1.383,0,0,0,.813-.208.63.63,0,0,0,.292-.533.562.562,0,0,0-.357-.526,6.727,6.727,0,0,0-1.138-.384,9.64,9.64,0,0,1-1.319-.4A2.291,2.291,0,0,1,17.44-4a1.71,1.71,0,0,1-.37-1.157,1.867,1.867,0,0,1,.344-1.092,2.313,2.313,0,0,1,.988-.78,3.7,3.7,0,0,1,1.515-.286,3.092,3.092,0,0,1,2.054.643,2.384,2.384,0,0,1,.845,1.735H21.073a.943.943,0,0,0-.358-.682,1.329,1.329,0,0,0-.851-.253,1.342,1.342,0,0,0-.76.182.58.58,0,0,0-.267.507.6.6,0,0,0,.364.552,5.652,5.652,0,0,0,1.131.384,9.6,9.6,0,0,1,1.287.4A2.274,2.274,0,0,1,22.5-3.2a1.767,1.767,0,0,1,.383,1.151,1.908,1.908,0,0,1-.344,1.118,2.269,2.269,0,0,1-.988.774A3.743,3.743,0,0,1,20.046.117ZM25.3-8.06a1.109,1.109,0,0,1-.8-.306,1.011,1.011,0,0,1-.319-.76,1.011,1.011,0,0,1,.319-.76,1.109,1.109,0,0,1,.8-.306,1.109,1.109,0,0,1,.8.306,1.011,1.011,0,0,1,.319.76,1.011,1.011,0,0,1-.319.76A1.109,1.109,0,0,1,25.3-8.06Zm.9.858V0h-1.82V-7.2Zm4.615-.117A3.023,3.023,0,0,1,32.227-7a2.609,2.609,0,0,1,.962.826V-7.2h1.833V.052a3.864,3.864,0,0,1-.4,1.788A2.992,2.992,0,0,1,33.41,3.088a3.865,3.865,0,0,1-1.95.461,4.165,4.165,0,0,1-2.515-.715A2.65,2.65,0,0,1,27.833.884H29.64a1.345,1.345,0,0,0,.618.786,2.151,2.151,0,0,0,1.15.293,1.78,1.78,0,0,0,1.287-.474A1.906,1.906,0,0,0,33.189.052V-1.066a2.765,2.765,0,0,1-.969.845,2.889,2.889,0,0,1-1.41.338,3.093,3.093,0,0,1-1.664-.468,3.259,3.259,0,0,1-1.19-1.32,4.238,4.238,0,0,1-.435-1.957,4.168,4.168,0,0,1,.435-1.937,3.192,3.192,0,0,1,1.183-1.3A3.15,3.15,0,0,1,30.81-7.319ZM33.189-3.6a2.335,2.335,0,0,0-.26-1.138,1.833,1.833,0,0,0-.7-.728,1.876,1.876,0,0,0-.949-.253,1.843,1.843,0,0,0-.936.247,1.86,1.86,0,0,0-.7.722,2.26,2.26,0,0,0-.267,1.125,2.335,2.335,0,0,0,.267,1.138,1.919,1.919,0,0,0,.7.747,1.783,1.783,0,0,0,.93.26,1.876,1.876,0,0,0,.949-.253,1.833,1.833,0,0,0,.7-.728A2.335,2.335,0,0,0,33.189-3.6Zm7.6-3.705a2.776,2.776,0,0,1,2.08.813,3.111,3.111,0,0,1,.793,2.269V0h-1.82V-3.978a1.867,1.867,0,0,0-.429-1.32,1.519,1.519,0,0,0-1.17-.461,1.557,1.557,0,0,0-1.189.461,1.85,1.85,0,0,0-.436,1.32V0H36.8V-7.2h1.82v.9a2.514,2.514,0,0,1,.93-.734A2.875,2.875,0,0,1,40.794-7.306ZM54.665-9.074v1.469H52.247V0h-1.82V-7.605H48.009V-9.074ZM59.189.117a3.793,3.793,0,0,1-1.872-.462,3.323,3.323,0,0,1-1.306-1.307,3.915,3.915,0,0,1-.474-1.95,3.832,3.832,0,0,1,.487-1.95,3.388,3.388,0,0,1,1.333-1.307,3.867,3.867,0,0,1,1.885-.461,3.867,3.867,0,0,1,1.885.461,3.388,3.388,0,0,1,1.333,1.307,3.832,3.832,0,0,1,.487,1.95,3.754,3.754,0,0,1-.5,1.95A3.466,3.466,0,0,1,61.094-.345,3.931,3.931,0,0,1,59.189.117Zm0-1.586a1.893,1.893,0,0,0,.93-.24,1.748,1.748,0,0,0,.7-.721,2.431,2.431,0,0,0,.26-1.17,2.168,2.168,0,0,0-.54-1.58,1.773,1.773,0,0,0-1.319-.552,1.732,1.732,0,0,0-1.306.552,2.2,2.2,0,0,0-.526,1.58A2.236,2.236,0,0,0,57.9-2.022,1.691,1.691,0,0,0,59.189-1.469ZM66.937-4.55a4.753,4.753,0,0,1,.6-2.4A4.316,4.316,0,0,1,69.193-8.6a4.685,4.685,0,0,1,2.346-.591,4.616,4.616,0,0,1,2.665.78,4.078,4.078,0,0,1,1.6,2.158H73.71a2.169,2.169,0,0,0-.878-.975,2.575,2.575,0,0,0-1.307-.325,2.688,2.688,0,0,0-1.41.371,2.528,2.528,0,0,0-.962,1.046,3.45,3.45,0,0,0-.344,1.586,3.46,3.46,0,0,0,.344,1.58,2.52,2.52,0,0,0,.962,1.053,2.688,2.688,0,0,0,1.41.371,2.535,2.535,0,0,0,1.307-.331,2.209,2.209,0,0,0,.878-.982H75.8A4.056,4.056,0,0,1,74.211-.7a4.636,4.636,0,0,1-2.672.774,4.685,4.685,0,0,1-2.346-.592,4.329,4.329,0,0,1-1.651-1.644A4.717,4.717,0,0,1,66.937-4.55ZM80.561.117a3.793,3.793,0,0,1-1.872-.462,3.323,3.323,0,0,1-1.307-1.307,3.915,3.915,0,0,1-.474-1.95,3.832,3.832,0,0,1,.487-1.95,3.388,3.388,0,0,1,1.333-1.307,3.867,3.867,0,0,1,1.885-.461,3.867,3.867,0,0,1,1.885.461,3.388,3.388,0,0,1,1.333,1.307,3.832,3.832,0,0,1,.487,1.95,3.754,3.754,0,0,1-.5,1.95A3.466,3.466,0,0,1,82.465-.345,3.931,3.931,0,0,1,80.561.117Zm0-1.586a1.893,1.893,0,0,0,.929-.24,1.748,1.748,0,0,0,.7-.721,2.431,2.431,0,0,0,.26-1.17,2.168,2.168,0,0,0-.54-1.58,1.773,1.773,0,0,0-1.319-.552,1.732,1.732,0,0,0-1.307.552,2.2,2.2,0,0,0-.526,1.58,2.236,2.236,0,0,0,.513,1.579A1.691,1.691,0,0,0,80.561-1.469ZM92.456-7.2V0H90.623V-.91a2.4,2.4,0,0,1-.916.735,2.845,2.845,0,0,1-1.229.267,3.051,3.051,0,0,1-1.5-.358A2.52,2.52,0,0,1,85.963-1.32a3.48,3.48,0,0,1-.37-1.658V-7.2h1.82v3.965a1.867,1.867,0,0,0,.429,1.32,1.519,1.519,0,0,0,1.17.462,1.536,1.536,0,0,0,1.183-.462,1.867,1.867,0,0,0,.429-1.32V-7.2Zm5.785-.1a2.776,2.776,0,0,1,2.08.813,3.111,3.111,0,0,1,.793,2.269V0h-1.82V-3.978a1.867,1.867,0,0,0-.429-1.32,1.519,1.519,0,0,0-1.17-.461,1.557,1.557,0,0,0-1.189.461,1.85,1.85,0,0,0-.436,1.32V0H94.25V-7.2h1.82v.9A2.514,2.514,0,0,1,97-7.04,2.875,2.875,0,0,1,98.241-7.306ZM105.6.117A3.8,3.8,0,0,1,104.013-.2a2.8,2.8,0,0,1-1.112-.864,2.191,2.191,0,0,1-.448-1.209h1.833a1,1,0,0,0,.409.689,1.424,1.424,0,0,0,.891.273,1.383,1.383,0,0,0,.813-.208.63.63,0,0,0,.293-.533.562.562,0,0,0-.358-.526,6.727,6.727,0,0,0-1.137-.384,9.64,9.64,0,0,1-1.319-.4A2.291,2.291,0,0,1,102.993-4a1.71,1.71,0,0,1-.37-1.157,1.867,1.867,0,0,1,.344-1.092,2.313,2.313,0,0,1,.988-.78,3.7,3.7,0,0,1,1.515-.286,3.092,3.092,0,0,1,2.054.643,2.384,2.384,0,0,1,.845,1.735h-1.742a.943.943,0,0,0-.357-.682,1.329,1.329,0,0,0-.852-.253,1.342,1.342,0,0,0-.76.182.58.58,0,0,0-.267.507.6.6,0,0,0,.364.552,5.652,5.652,0,0,0,1.131.384,9.6,9.6,0,0,1,1.287.4,2.274,2.274,0,0,1,.878.643,1.767,1.767,0,0,1,.383,1.151,1.908,1.908,0,0,1-.344,1.118,2.269,2.269,0,0,1-.988.774A3.743,3.743,0,0,1,105.6.117Zm11.024-3.874a4.3,4.3,0,0,1-.052.7h-5.265a1.791,1.791,0,0,0,.546,1.222,1.684,1.684,0,0,0,1.183.442,1.486,1.486,0,0,0,1.443-.871h1.963a3.281,3.281,0,0,1-1.2,1.71,3.492,3.492,0,0,1-2.171.67,3.757,3.757,0,0,1-1.866-.462,3.248,3.248,0,0,1-1.287-1.307,4,4,0,0,1-.462-1.95,4.078,4.078,0,0,1,.455-1.963,3.175,3.175,0,0,1,1.274-1.3,3.817,3.817,0,0,1,1.885-.455,3.786,3.786,0,0,1,1.84.442,3.111,3.111,0,0,1,1.261,1.255A3.8,3.8,0,0,1,116.623-3.757Zm-1.885-.52a1.443,1.443,0,0,0-.507-1.124,1.8,1.8,0,0,0-1.209-.423,1.652,1.652,0,0,0-1.137.41,1.8,1.8,0,0,0-.565,1.137Zm5.031-5.343V0h-1.82V-9.62ZM124.761.117a3.793,3.793,0,0,1-1.872-.462,3.323,3.323,0,0,1-1.307-1.307,3.915,3.915,0,0,1-.474-1.95,3.832,3.832,0,0,1,.487-1.95,3.388,3.388,0,0,1,1.333-1.307,3.867,3.867,0,0,1,1.885-.461,3.867,3.867,0,0,1,1.885.461,3.388,3.388,0,0,1,1.333,1.307,3.832,3.832,0,0,1,.488,1.95,3.754,3.754,0,0,1-.5,1.95,3.466,3.466,0,0,1-1.352,1.307A3.931,3.931,0,0,1,124.761.117Zm0-1.586a1.893,1.893,0,0,0,.929-.24,1.748,1.748,0,0,0,.7-.721,2.431,2.431,0,0,0,.26-1.17,2.168,2.168,0,0,0-.54-1.58,1.773,1.773,0,0,0-1.319-.552,1.732,1.732,0,0,0-1.307.552,2.2,2.2,0,0,0-.526,1.58,2.236,2.236,0,0,0,.513,1.579A1.691,1.691,0,0,0,124.761-1.469Zm6.916-4.615a2.559,2.559,0,0,1,.917-.9,2.549,2.549,0,0,1,1.294-.325V-5.4h-.481a1.844,1.844,0,0,0-1.294.4,1.858,1.858,0,0,0-.436,1.4V0h-1.82V-7.2h1.82Z" transform="translate(746.167 2308.951)"/>
  </g>
</svg>
