<svg id="Group_37517" data-name="Group 37517" xmlns="http://www.w3.org/2000/svg" width="42.031" height="41.149" viewBox="0 0 42.031 41.149">
  <rect id="Rectangle_2713" data-name="Rectangle 2713" width="12.617" height="22.213" transform="translate(1.577 16.233)"/>
  <path id="Path_39103" data-name="Path 39103" d="M0,.415,4.5-4.8l3.485-10.07,4.316.9L14.475-7.5,12.3-2.166H24.446V9.586L19.769,20.048H0Z" transform="translate(14.983 18.399)"/>
  <path id="Path_39100" data-name="Path 39100" d="M28.252,38.6H12.432c-1.428,0-4.319-2.032-4.319-3.692V19.779a.946.946,0,0,1,.439-.813c3.156-1.909,4.751-5.3,6.418-10.505V3.472a.985.985,0,0,1,.122-.479,2.769,2.769,0,0,1,2.473-1.478,4.94,4.94,0,0,1,3.807,2.36c1.04,1.495,2.525,4.795,1.3,10.578h7.221c1.608,0,5.254,1.794,5.254,4.743a6.708,6.708,0,0,1-.677,3.32,5.384,5.384,0,0,1-.845,5.125c.113,2.622-.5,4.528-1.779,5.571a7.4,7.4,0,0,1-1.5,4.182A2.745,2.745,0,0,1,28.252,38.6ZM9.831,20.307V34.9a4.678,4.678,0,0,0,2.605,1.835H28.254a1.278,1.278,0,0,0,.814-.572,5.234,5.234,0,0,0,1.059-3.326.956.956,0,0,1,.442-.947c1.392-.813,1.43-3.211,1.332-4.57a.971.971,0,0,1,.305-.787,3.405,3.405,0,0,0,.5-3.768,1,1,0,0,1-.078-.853.881.881,0,0,1,.6-.558,13.893,13.893,0,0,0,.211-2.169c0-1.51-2.547-2.886-3.538-2.886H21.579a.824.824,0,0,1-.68-.366,1,1,0,0,1-.141-.813c1.1-4.2.824-7.894-.737-10.136A3.264,3.264,0,0,0,17.58,3.363a1.075,1.075,0,0,0-.884.4V8.6a1.05,1.05,0,0,1-.046.3c-1.709,5.354-3.462,9.152-6.819,11.4Z" transform="translate(6.385 0.194)" stroke="#000" stroke-width="1"/>
  <path id="Path_39101" data-name="Path 39101" d="M12.535,34.484H3.122A3.143,3.143,0,0,1,.115,31.226V11.738A3.142,3.142,0,0,1,3.122,8.483h9.414a3.142,3.142,0,0,1,3.007,3.255V31.226A3.143,3.143,0,0,1,12.535,34.484ZM3.122,10.34a1.349,1.349,0,0,0-1.292,1.4V31.226a1.351,1.351,0,0,0,1.292,1.4h9.414a1.351,1.351,0,0,0,1.292-1.4V11.738a1.349,1.349,0,0,0-1.292-1.4Z" transform="translate(0.674 6.166)" stroke="#000" stroke-width="1"/>
  <g id="Group_37516" data-name="Group 37516">
    <rect id="Rectangle_2714" data-name="Rectangle 2714" width="12.617" height="23.068" transform="translate(1.577 14.524)" fill="#a4e3db"/>
    <path id="Path_39104" data-name="Path 39104" d="M-.423,1.691,4.409-4.9l2.5-10.676H8.189l4.021,1.505v11.8H24.357L23.9,9.63,19.679,19.945l-20.1-.9Z" transform="translate(15.073 16.793)" fill="#a4e3db"/>
    <g id="like">
      <path id="Path_39100-2" data-name="Path 39100" d="M28.252,38.6H12.432c-1.428,0-4.319-2.032-4.319-3.692V19.779a.946.946,0,0,1,.439-.813c3.156-1.909,4.751-5.3,6.418-10.505V3.472a.985.985,0,0,1,.122-.479,2.769,2.769,0,0,1,2.473-1.478,4.94,4.94,0,0,1,3.807,2.36c1.04,1.495,2.525,4.795,1.3,10.578h7.221c1.608,0,5.254,1.794,5.254,4.743a6.708,6.708,0,0,1-.677,3.32,5.384,5.384,0,0,1-.845,5.125c.113,2.622-.5,4.528-1.779,5.571a7.4,7.4,0,0,1-1.5,4.182A2.745,2.745,0,0,1,28.252,38.6ZM9.831,20.307V34.9a4.678,4.678,0,0,0,2.605,1.835H28.254a1.278,1.278,0,0,0,.814-.572,5.234,5.234,0,0,0,1.059-3.326.956.956,0,0,1,.442-.947c1.392-.813,1.43-3.211,1.332-4.57a.971.971,0,0,1,.305-.787,3.405,3.405,0,0,0,.5-3.768,1,1,0,0,1-.078-.853.881.881,0,0,1,.6-.558,13.893,13.893,0,0,0,.211-2.169c0-1.51-2.547-2.886-3.538-2.886H21.579a.824.824,0,0,1-.68-.366,1,1,0,0,1-.141-.813c1.1-4.2.824-7.894-.737-10.136A3.264,3.264,0,0,0,17.58,3.363a1.075,1.075,0,0,0-.884.4V8.6a1.05,1.05,0,0,1-.046.3c-1.709,5.354-3.462,9.152-6.819,11.4Z" transform="translate(5.596 -1.515)"/>
      <path id="Path_39101-2" data-name="Path 39101" d="M12.535,34.484H3.122A3.143,3.143,0,0,1,.115,31.226V11.738A3.142,3.142,0,0,1,3.122,8.483h9.414a3.142,3.142,0,0,1,3.007,3.255V31.226A3.143,3.143,0,0,1,12.535,34.484ZM3.122,10.34a1.349,1.349,0,0,0-1.292,1.4V31.226a1.351,1.351,0,0,0,1.292,1.4h9.414a1.351,1.351,0,0,0,1.292-1.4V11.738a1.349,1.349,0,0,0-1.292-1.4Z" transform="translate(-0.115 4.457)"/>
    </g>
  </g>
</svg>
