<svg xmlns="http://www.w3.org/2000/svg" width="299" height="76.733" viewBox="0 0 299 76.733">
  <g id="Group_37761" data-name="Group 37761" transform="translate(-68 -1741)">
    <g id="Rectangle_2751" data-name="Rectangle 2751" transform="translate(70 1757.043)" stroke="#000" stroke-width="2">
      <rect width="297" height="49" rx="12" stroke="none"/>
      <rect x="1" y="1" width="295" height="47" rx="11" fill="none"/>
    </g>
    <g id="Rectangle_2009" data-name="Rectangle 2009" transform="translate(68 1755.043)" fill="#fff" stroke="#000" stroke-width="2">
      <rect width="297" height="49" rx="12" stroke="none"/>
      <rect x="1" y="1" width="295" height="47" rx="11" fill="none"/>
    </g>
    <path id="us-map" d="M5.2,124.709a11.431,11.431,0,0,1,1.428,6.019c-.072,6.221.044,12.444-.074,18.664A4.534,4.534,0,0,0,8.77,153.74a4.105,4.105,0,0,1,2.15,3.6,5.235,5.235,0,0,0,1.858,4.1c3.331,3.048,6.686,6.068,9.711,9.405a2.827,2.827,0,0,0,2.9.818,5.462,5.462,0,0,1,4.328.576,23.046,23.046,0,0,0,14.914,3.537,27.651,27.651,0,0,1,6.39-.081c1.772.269,3.239.864,3.84,2.711a10.159,10.159,0,0,0,2.028,3.2c1.861,2.247,1.946,2.241,3.485-.191.951-1.5,2.006-1.694,3.437-.579a7.82,7.82,0,0,1,2.64,3.926,13.338,13.338,0,0,0,7.123,8.077c.45.226.871.634,1.565.331.319-2.02.067-4.11.327-6.178a3.749,3.749,0,0,1,1.827-2.829,26.658,26.658,0,0,1,5.548-2.427,7.332,7.332,0,0,1,5.241-.038c1.73.609,3.512,1.077,5.255,1.653,1.518.5,2.933.839,3.719-1.042.1-.235.395-.4.62-.579,3.709-2.9,4.164-2.89,7.6.317a1.676,1.676,0,0,0,2.032.415,3.89,3.89,0,0,1,5.246,2.674,13.834,13.834,0,0,1,.645,3.832c.008,2.754,1.779,4.528,3.653,6.235.841.765,1.323.549,1.572-.535a21.081,21.081,0,0,0,.424-4.845,5.846,5.846,0,0,0-.751-3.638c-2.184-2.9-2.4-6.2-2.289-9.574a4.347,4.347,0,0,1,1.886-3.573c2.612-1.93,5.142-3.965,7.651-6.018a31.214,31.214,0,0,0,4.808-4.649c.533-.672.757-1.281-.167-1.87a2.3,2.3,0,0,1-1.067-2.169,36.053,36.053,0,0,1,.818-5.63,1.54,1.54,0,0,1,1.586-1.363,2.611,2.611,0,0,0,2.695-2.257,6.455,6.455,0,0,1,4.142-4.369,36.791,36.791,0,0,1,4.577-1.378c.682-.186,1.263-.365.966-1.33-.7-2.265.053-4.065,2.083-5.443a50.438,50.438,0,0,0,6.206-4.615c.4-.369.988-.764.694-1.4-.269-.585-.924-.628-1.513-.631-2.088-.01-4.177.012-6.265-.007a1.768,1.768,0,0,0-1.587.8,3.442,3.442,0,0,1-2.734,1.381c-1.644.13-3.293.293-4.94.3-6.461.016-12.93.25-19.376-.289-2.11-.176-4.205-.219-6.112-1.732a3.015,3.015,0,0,0-4.616.474,6.2,6.2,0,0,1-1.938,1.67c-1.443.8-2.3.378-2.448-1.236a5.36,5.36,0,0,1,.047-1.247,3.164,3.164,0,0,0-.9-2.819c-2.447-2.534-4.78-5.238-8.959-4.866a2.647,2.647,0,0,1-.71-.142,71.433,71.433,0,0,1-9.329-2.7,9.725,9.725,0,0,0-3.27-.578q-32.515.014-65.029,0c-3.32,0-3.32,0-4.088,3.031-.4,1.561-.735,1.684-2.14.845C5.9,122.27,4.735,123.9,5.2,124.709Z" transform="translate(68.032 1622.08)" fill="#f6d854"/>
    <path id="Path_39335" data-name="Path 39335" d="M5.44-6.98v1.13H3.58V0H2.18V-5.85H.32V-6.98ZM8.92.09A2.918,2.918,0,0,1,7.48-.265a2.556,2.556,0,0,1-1.005-1,3.011,3.011,0,0,1-.365-1.5,2.947,2.947,0,0,1,.375-1.5A2.606,2.606,0,0,1,7.51-5.275,2.975,2.975,0,0,1,8.96-5.63a2.975,2.975,0,0,1,1.45.355A2.606,2.606,0,0,1,11.435-4.27a2.947,2.947,0,0,1,.375,1.5,2.887,2.887,0,0,1-.385,1.5,2.666,2.666,0,0,1-1.04,1A3.024,3.024,0,0,1,8.92.09Zm0-1.22a1.456,1.456,0,0,0,.715-.185,1.344,1.344,0,0,0,.535-.555,1.87,1.87,0,0,0,.2-.9,1.668,1.668,0,0,0-.415-1.215A1.364,1.364,0,0,0,8.94-4.41a1.332,1.332,0,0,0-1.005.425A1.693,1.693,0,0,0,7.53-2.77a1.72,1.72,0,0,0,.395,1.215A1.3,1.3,0,0,0,8.92-1.13Zm5.32-3.61a2.126,2.126,0,0,1,.745-.635A2.258,2.258,0,0,1,16.07-5.63a2.423,2.423,0,0,1,1.285.35,2.463,2.463,0,0,1,.91.995,3.2,3.2,0,0,1,.335,1.5,3.26,3.26,0,0,1-.335,1.505,2.519,2.519,0,0,1-.91,1.015A2.372,2.372,0,0,1,16.07.09a2.235,2.235,0,0,1-1.075-.25,2.306,2.306,0,0,1-.755-.63V2.64h-1.4V-5.54h1.4Zm2.93,1.95a1.739,1.739,0,0,0-.2-.865,1.419,1.419,0,0,0-.54-.555A1.445,1.445,0,0,0,15.7-4.4a1.4,1.4,0,0,0-.715.2,1.447,1.447,0,0,0-.54.565,1.767,1.767,0,0,0-.2.87,1.767,1.767,0,0,0,.2.87,1.447,1.447,0,0,0,.54.565,1.4,1.4,0,0,0,.715.195,1.389,1.389,0,0,0,.725-.2,1.485,1.485,0,0,0,.54-.57A1.789,1.789,0,0,0,17.17-2.79Zm4.49-.71a3.656,3.656,0,0,1,.465-1.845,3.32,3.32,0,0,1,1.27-1.27A3.6,3.6,0,0,1,25.2-7.07a3.551,3.551,0,0,1,2.05.6,3.137,3.137,0,0,1,1.23,1.66H26.87a1.669,1.669,0,0,0-.675-.75,1.981,1.981,0,0,0-1.005-.25,2.068,2.068,0,0,0-1.085.285,1.945,1.945,0,0,0-.74.8A2.654,2.654,0,0,0,23.1-3.5a2.662,2.662,0,0,0,.265,1.215,1.938,1.938,0,0,0,.74.81,2.068,2.068,0,0,0,1.085.285,1.95,1.95,0,0,0,1.005-.255A1.7,1.7,0,0,0,26.87-2.2h1.61A3.12,3.12,0,0,1,27.255-.535,3.566,3.566,0,0,1,25.2.06,3.6,3.6,0,0,1,23.4-.4a3.33,3.33,0,0,1-1.27-1.265A3.629,3.629,0,0,1,21.66-3.5ZM32.14.09A2.918,2.918,0,0,1,30.7-.265a2.556,2.556,0,0,1-1.005-1,3.011,3.011,0,0,1-.365-1.5,2.947,2.947,0,0,1,.375-1.5A2.606,2.606,0,0,1,30.73-5.275a2.975,2.975,0,0,1,1.45-.355,2.975,2.975,0,0,1,1.45.355A2.606,2.606,0,0,1,34.655-4.27a2.947,2.947,0,0,1,.375,1.5,2.887,2.887,0,0,1-.385,1.5,2.666,2.666,0,0,1-1.04,1A3.024,3.024,0,0,1,32.14.09Zm0-1.22a1.456,1.456,0,0,0,.715-.185,1.345,1.345,0,0,0,.535-.555,1.87,1.87,0,0,0,.2-.9,1.668,1.668,0,0,0-.415-1.215A1.364,1.364,0,0,0,32.16-4.41a1.332,1.332,0,0,0-1,.425A1.693,1.693,0,0,0,30.75-2.77a1.72,1.72,0,0,0,.4,1.215A1.3,1.3,0,0,0,32.14-1.13Zm9.15-4.41V0H39.88V-.7a1.848,1.848,0,0,1-.7.565A2.189,2.189,0,0,1,38.23.07a2.347,2.347,0,0,1-1.15-.275,1.939,1.939,0,0,1-.785-.81A2.677,2.677,0,0,1,36.01-2.29V-5.54h1.4v3.05a1.437,1.437,0,0,0,.33,1.015,1.169,1.169,0,0,0,.9.355,1.181,1.181,0,0,0,.91-.355,1.436,1.436,0,0,0,.33-1.015V-5.54Zm4.45-.08A2.135,2.135,0,0,1,47.34-5a2.393,2.393,0,0,1,.61,1.745V0h-1.4V-3.06a1.437,1.437,0,0,0-.33-1.015,1.169,1.169,0,0,0-.9-.355,1.2,1.2,0,0,0-.915.355A1.423,1.423,0,0,0,44.07-3.06V0h-1.4V-5.54h1.4v.69a1.934,1.934,0,0,1,.715-.565A2.212,2.212,0,0,1,45.74-5.62Zm5.17,1.23v2.68a.53.53,0,0,0,.135.4.663.663,0,0,0,.455.125h.65V0h-.88A1.543,1.543,0,0,1,49.5-1.72V-4.39h-.66V-5.54h.66V-6.91h1.41v1.37h1.24v1.15Zm3.65-.29a1.968,1.968,0,0,1,.7-.69,1.961,1.961,0,0,1,1-.25v1.47h-.37a1.418,1.418,0,0,0-.995.31,1.429,1.429,0,0,0-.335,1.08V0h-1.4V-5.54h1.4ZM57.91-6.2a.853.853,0,0,1-.615-.235.778.778,0,0,1-.245-.585.778.778,0,0,1,.245-.585.853.853,0,0,1,.615-.235.853.853,0,0,1,.615.235.778.778,0,0,1,.245.585.778.778,0,0,1-.245.585A.853.853,0,0,1,57.91-6.2Zm.69.66V0H57.2V-5.54Zm6.53,2.65a3.3,3.3,0,0,1-.04.54H61.04a1.377,1.377,0,0,0,.42.94,1.3,1.3,0,0,0,.91.34,1.143,1.143,0,0,0,1.11-.67h1.51a2.524,2.524,0,0,1-.92,1.315A2.686,2.686,0,0,1,62.4.09a2.89,2.89,0,0,1-1.435-.355,2.5,2.5,0,0,1-.99-1,3.079,3.079,0,0,1-.355-1.5,3.137,3.137,0,0,1,.35-1.51,2.442,2.442,0,0,1,.98-1,2.936,2.936,0,0,1,1.45-.35,2.913,2.913,0,0,1,1.415.34,2.393,2.393,0,0,1,.97.965A2.92,2.92,0,0,1,65.13-2.89Zm-1.45-.4a1.11,1.11,0,0,0-.39-.865,1.382,1.382,0,0,0-.93-.325,1.271,1.271,0,0,0-.875.315,1.385,1.385,0,0,0-.435.875ZM68.27.09a2.921,2.921,0,0,1-1.22-.245,2.156,2.156,0,0,1-.855-.665,1.685,1.685,0,0,1-.345-.93h1.41a.768.768,0,0,0,.315.53,1.1,1.1,0,0,0,.685.21,1.064,1.064,0,0,0,.625-.16.484.484,0,0,0,.225-.41.432.432,0,0,0-.275-.405,5.175,5.175,0,0,0-.875-.3,7.415,7.415,0,0,1-1.015-.31,1.762,1.762,0,0,1-.68-.49,1.315,1.315,0,0,1-.285-.89,1.436,1.436,0,0,1,.265-.84,1.779,1.779,0,0,1,.76-.6,2.849,2.849,0,0,1,1.165-.22,2.379,2.379,0,0,1,1.58.495A1.834,1.834,0,0,1,70.4-3.8H69.06a.725.725,0,0,0-.275-.525,1.022,1.022,0,0,0-.655-.2,1.032,1.032,0,0,0-.585.14.446.446,0,0,0-.205.39.458.458,0,0,0,.28.425,4.348,4.348,0,0,0,.87.3,7.385,7.385,0,0,1,.99.31,1.749,1.749,0,0,1,.675.495,1.359,1.359,0,0,1,.295.885,1.468,1.468,0,0,1-.265.86,1.746,1.746,0,0,1-.76.6A2.879,2.879,0,0,1,68.27.09ZM72.22.07a.866.866,0,0,1-.625-.235A.778.778,0,0,1,71.35-.75a.778.778,0,0,1,.245-.585.866.866,0,0,1,.625-.235.836.836,0,0,1,.61.235.786.786,0,0,1,.24.585.786.786,0,0,1-.24.585A.836.836,0,0,1,72.22.07Zm0-4.14a.866.866,0,0,1-.625-.235.778.778,0,0,1-.245-.585.778.778,0,0,1,.245-.585.866.866,0,0,1,.625-.235.836.836,0,0,1,.61.235.786.786,0,0,1,.24.585.786.786,0,0,1-.24.585A.836.836,0,0,1,72.22-4.07Z" transform="translate(246.49 1773.043)"/>
    <path id="Path_39334" data-name="Path 39334" d="M4.37-13.338v7.98a2.64,2.64,0,0,0,.589,1.843,2.222,2.222,0,0,0,1.729.646,2.285,2.285,0,0,0,1.748-.646,2.587,2.587,0,0,0,.608-1.843v-7.98h3.249v7.961a5.66,5.66,0,0,1-.76,3.021A4.866,4.866,0,0,1,9.491-.494a6.423,6.423,0,0,1-2.86.627A6.263,6.263,0,0,1,3.81-.485,4.6,4.6,0,0,1,1.843-2.347a5.946,5.946,0,0,1-.722-3.031v-7.961ZM19.4.133a6.861,6.861,0,0,1-2.622-.475,4.274,4.274,0,0,1-1.853-1.406,3.841,3.841,0,0,1-.731-2.242h3.458a1.678,1.678,0,0,0,.513,1.131,1.649,1.649,0,0,0,1.14.389,1.783,1.783,0,0,0,1.14-.332,1.112,1.112,0,0,0,.418-.921,1.091,1.091,0,0,0-.333-.817,2.682,2.682,0,0,0-.817-.532,13.142,13.142,0,0,0-1.378-.475,15,15,0,0,1-2.109-.8A3.9,3.9,0,0,1,14.82-7.524a3.282,3.282,0,0,1-.589-2.033,3.5,3.5,0,0,1,1.349-2.917,5.543,5.543,0,0,1,3.515-1.054,5.607,5.607,0,0,1,3.553,1.054,3.775,3.775,0,0,1,1.444,2.936H20.577a1.375,1.375,0,0,0-.475-1.016,1.673,1.673,0,0,0-1.121-.371,1.4,1.4,0,0,0-.95.314,1.131,1.131,0,0,0-.361.9A1.119,1.119,0,0,0,18.278-8.7a9.967,9.967,0,0,0,1.9.779,17.571,17.571,0,0,1,2.1.836,4,4,0,0,1,1.4,1.159,3.1,3.1,0,0,1,.589,1.957,3.84,3.84,0,0,1-.58,2.071A4.059,4.059,0,0,1,22-.418,5.756,5.756,0,0,1,19.4.133ZM34.561-2.356H29.583L28.785,0h-3.4L30.21-13.338h3.762L38.8,0H35.359Zm-.836-2.508L32.072-9.747,30.438-4.864Z" transform="translate(246.49 1794.043)"/>
  </g>
</svg>
