<svg xmlns="http://www.w3.org/2000/svg" width="848.605" height="271.588" viewBox="0 0 848.605 271.588">
  <g id="Group_37692" data-name="Group 37692" transform="translate(-236.395 -1858.544)">
    <rect id="Rectangle_2757" data-name="Rectangle 2757" width="170.557" height="44" rx="12" transform="translate(239.395 1961.132)"/>
    <path id="Rectangle_2757_-_Outline" data-name="Rectangle 2757 - Outline" d="M12,2A10.011,10.011,0,0,0,2,12V32A10.011,10.011,0,0,0,12,42H158.557a10.011,10.011,0,0,0,10-10V12a10.011,10.011,0,0,0-10-10H12m0-2H158.557a12,12,0,0,1,12,12V32a12,12,0,0,1-12,12H12A12,12,0,0,1,0,32V12A12,12,0,0,1,12,0Z" transform="translate(239.395 1961.132)"/>
    <rect id="Rectangle_2760" data-name="Rectangle 2760" width="239" height="44" rx="12" transform="translate(846 1937.722)"/>
    <path id="Rectangle_2760_-_Outline" data-name="Rectangle 2760 - Outline" d="M12,2A10.011,10.011,0,0,0,2,12V32A10.011,10.011,0,0,0,12,42H227a10.011,10.011,0,0,0,10-10V12A10.011,10.011,0,0,0,227,2H12m0-2H227a12,12,0,0,1,12,12V32a12,12,0,0,1-12,12H12A12,12,0,0,1,0,32V12A12,12,0,0,1,12,0Z" transform="translate(846 1937.722)"/>
    <rect id="Rectangle_2762" data-name="Rectangle 2762" width="239" height="44" rx="12" transform="translate(846 2014.444)"/>
    <path id="Rectangle_2762_-_Outline" data-name="Rectangle 2762 - Outline" d="M12,2A10.011,10.011,0,0,0,2,12V32A10.011,10.011,0,0,0,12,42H227a10.011,10.011,0,0,0,10-10V12A10.011,10.011,0,0,0,227,2H12m0-2H227a12,12,0,0,1,12,12V32a12,12,0,0,1-12,12H12A12,12,0,0,1,0,32V12A12,12,0,0,1,12,0Z" transform="translate(846 2014.444)"/>
    <rect id="Rectangle_2764" data-name="Rectangle 2764" width="239" height="44" rx="12" transform="translate(846 1861.544)"/>
    <path id="Rectangle_2764_-_Outline" data-name="Rectangle 2764 - Outline" d="M12,2A10.011,10.011,0,0,0,2,12V32A10.011,10.011,0,0,0,12,42H227a10.011,10.011,0,0,0,10-10V12A10.011,10.011,0,0,0,227,2H12m0-2H227a12,12,0,0,1,12,12V32a12,12,0,0,1-12,12H12A12,12,0,0,1,0,32V12A12,12,0,0,1,12,0Z" transform="translate(846 1861.544)"/>
    <rect id="Rectangle_2758" data-name="Rectangle 2758" width="239" height="55" rx="12" transform="translate(287.523 2075.132)"/>
    <path id="Rectangle_2758_-_Outline" data-name="Rectangle 2758 - Outline" d="M12,2A10.011,10.011,0,0,0,2,12V43A10.011,10.011,0,0,0,12,53H227a10.011,10.011,0,0,0,10-10V12A10.011,10.011,0,0,0,227,2H12m0-2H227a12,12,0,0,1,12,12V43a12,12,0,0,1-12,12H12A12,12,0,0,1,0,43V12A12,12,0,0,1,12,0Z" transform="translate(287.523 2075.132)"/>
    <rect id="Rectangle_2006" data-name="Rectangle 2006" width="170.557" height="44" rx="12" transform="translate(236.395 1958.132)" fill="#a4e3db"/>
    <path id="Rectangle_2006_-_Outline" data-name="Rectangle 2006 - Outline" d="M12,2A10.011,10.011,0,0,0,2,12V32A10.011,10.011,0,0,0,12,42H158.557a10.011,10.011,0,0,0,10-10V12a10.011,10.011,0,0,0-10-10H12m0-2H158.557a12,12,0,0,1,12,12V32a12,12,0,0,1-12,12H12A12,12,0,0,1,0,32V12A12,12,0,0,1,12,0Z" transform="translate(236.395 1958.132)"/>
    <rect id="Rectangle_2761" data-name="Rectangle 2761" width="239" height="44" rx="12" transform="translate(843 1934.722)" fill="#ec85c0"/>
    <path id="Rectangle_2761_-_Outline" data-name="Rectangle 2761 - Outline" d="M12,2A10.011,10.011,0,0,0,2,12V32A10.011,10.011,0,0,0,12,42H227a10.011,10.011,0,0,0,10-10V12A10.011,10.011,0,0,0,227,2H12m0-2H227a12,12,0,0,1,12,12V32a12,12,0,0,1-12,12H12A12,12,0,0,1,0,32V12A12,12,0,0,1,12,0Z" transform="translate(843 1934.722)"/>
    <rect id="Rectangle_2763" data-name="Rectangle 2763" width="239" height="44" rx="12" transform="translate(843 2011.444)" fill="#ec85c0"/>
    <path id="Rectangle_2763_-_Outline" data-name="Rectangle 2763 - Outline" d="M12,2A10.011,10.011,0,0,0,2,12V32A10.011,10.011,0,0,0,12,42H227a10.011,10.011,0,0,0,10-10V12A10.011,10.011,0,0,0,227,2H12m0-2H227a12,12,0,0,1,12,12V32a12,12,0,0,1-12,12H12A12,12,0,0,1,0,32V12A12,12,0,0,1,12,0Z" transform="translate(843 2011.444)"/>
    <rect id="Rectangle_2765" data-name="Rectangle 2765" width="239" height="44" rx="12" transform="translate(843 1858.544)" fill="#ec85c0"/>
    <path id="Rectangle_2765_-_Outline" data-name="Rectangle 2765 - Outline" d="M12,2A10.011,10.011,0,0,0,2,12V32A10.011,10.011,0,0,0,12,42H227a10.011,10.011,0,0,0,10-10V12A10.011,10.011,0,0,0,227,2H12m0-2H227a12,12,0,0,1,12,12V32a12,12,0,0,1-12,12H12A12,12,0,0,1,0,32V12A12,12,0,0,1,12,0Z" transform="translate(843 1858.544)"/>
    <rect id="Rectangle_2759" data-name="Rectangle 2759" width="239" height="55" rx="12" transform="translate(284.523 2072.132)" fill="#f7d854"/>
    <path id="Rectangle_2759_-_Outline" data-name="Rectangle 2759 - Outline" d="M12,2A10.011,10.011,0,0,0,2,12V43A10.011,10.011,0,0,0,12,53H227a10.011,10.011,0,0,0,10-10V12A10.011,10.011,0,0,0,227,2H12m0-2H227a12,12,0,0,1,12,12V43a12,12,0,0,1-12,12H12A12,12,0,0,1,0,43V12A12,12,0,0,1,12,0Z" transform="translate(284.523 2072.132)"/>
    <path id="Path_39254" data-name="Path 39254" d="M10-14.658v10.29A4.391,4.391,0,0,1,8.757-1.04,4.6,4.6,0,0,1,5.439.147,4.741,4.741,0,0,1,2.048-1.071a4.45,4.45,0,0,1-1.292-3.4H3.7A2.343,2.343,0,0,0,4.148-3,1.523,1.523,0,0,0,5.4-2.478a1.5,1.5,0,0,0,1.218-.5,2.1,2.1,0,0,0,.42-1.386v-10.29ZM18.585.189a6.128,6.128,0,0,1-3.024-.746,5.368,5.368,0,0,1-2.111-2.111,6.324,6.324,0,0,1-.767-3.15,6.19,6.19,0,0,1,.788-3.15,5.472,5.472,0,0,1,2.153-2.111,6.247,6.247,0,0,1,3.045-.746,6.247,6.247,0,0,1,3.045.746,5.472,5.472,0,0,1,2.153,2.111,6.19,6.19,0,0,1,.788,3.15,6.063,6.063,0,0,1-.809,3.15A5.6,5.6,0,0,1,21.662-.557,6.351,6.351,0,0,1,18.585.189Zm0-2.562a3.058,3.058,0,0,0,1.5-.388A2.823,2.823,0,0,0,21.21-3.927a3.928,3.928,0,0,0,.42-1.89,3.5,3.5,0,0,0-.872-2.552,2.865,2.865,0,0,0-2.131-.892,2.8,2.8,0,0,0-2.111.892,3.555,3.555,0,0,0-.851,2.552,3.611,3.611,0,0,0,.83,2.552A2.731,2.731,0,0,0,18.585-2.373ZM33.369-11.8a4.723,4.723,0,0,1,2.352.578,3.979,3.979,0,0,1,1.606,1.7,5.84,5.84,0,0,1,.577,2.7V0h-2.94V-6.426a3.017,3.017,0,0,0-.693-2.132,2.454,2.454,0,0,0-1.89-.745,2.515,2.515,0,0,0-1.921.745,2.988,2.988,0,0,0-.7,2.132V0h-2.94V-15.54h2.94v5.355a3.833,3.833,0,0,1,1.512-1.187A5.007,5.007,0,0,1,33.369-11.8Zm13.776,0a4.484,4.484,0,0,1,3.36,1.313,5.025,5.025,0,0,1,1.281,3.665V0h-2.94V-6.426a3.017,3.017,0,0,0-.693-2.132,2.454,2.454,0,0,0-1.89-.745,2.515,2.515,0,0,0-1.922.745,2.988,2.988,0,0,0-.7,2.132V0H40.7V-11.634h2.94v1.449a4.062,4.062,0,0,1,1.5-1.187A4.645,4.645,0,0,1,47.145-11.8ZM64.7-14.658a8.755,8.755,0,0,1,4.063.9,6.451,6.451,0,0,1,2.709,2.573,7.663,7.663,0,0,1,.955,3.875,7.547,7.547,0,0,1-.955,3.854A6.489,6.489,0,0,1,68.765-.9,8.755,8.755,0,0,1,64.7,0H59.577V-14.658ZM64.6-2.5a4.828,4.828,0,0,0,3.57-1.26,4.8,4.8,0,0,0,1.26-3.549,4.91,4.91,0,0,0-1.26-3.58A4.76,4.76,0,0,0,64.6-12.18H62.517V-2.5ZM79.8.189a6.128,6.128,0,0,1-3.024-.746,5.368,5.368,0,0,1-2.111-2.111,6.324,6.324,0,0,1-.767-3.15,6.19,6.19,0,0,1,.788-3.15,5.472,5.472,0,0,1,2.152-2.111,6.247,6.247,0,0,1,3.045-.746,6.247,6.247,0,0,1,3.045.746,5.472,5.472,0,0,1,2.152,2.111,6.19,6.19,0,0,1,.787,3.15,6.063,6.063,0,0,1-.808,3.15A5.6,5.6,0,0,1,82.877-.557,6.351,6.351,0,0,1,79.8.189Zm0-2.562a3.058,3.058,0,0,0,1.5-.388,2.823,2.823,0,0,0,1.123-1.165,3.928,3.928,0,0,0,.42-1.89,3.5,3.5,0,0,0-.871-2.552,2.865,2.865,0,0,0-2.132-.892,2.8,2.8,0,0,0-2.11.892,3.555,3.555,0,0,0-.851,2.552,3.611,3.611,0,0,0,.829,2.552A2.731,2.731,0,0,0,79.8-2.373Zm19.047-3.7a6.938,6.938,0,0,1-.084,1.134h-8.5a2.892,2.892,0,0,0,.882,1.974,2.72,2.72,0,0,0,1.911.714,2.4,2.4,0,0,0,2.331-1.407h3.171A5.3,5.3,0,0,1,96.621-.892,5.64,5.64,0,0,1,93.114.189,6.069,6.069,0,0,1,90.1-.557a5.247,5.247,0,0,1-2.079-2.111,6.467,6.467,0,0,1-.745-3.15,6.587,6.587,0,0,1,.735-3.171,5.128,5.128,0,0,1,2.058-2.1,6.165,6.165,0,0,1,3.045-.735,6.116,6.116,0,0,1,2.972.714,5.025,5.025,0,0,1,2.037,2.027A6.133,6.133,0,0,1,98.847-6.069ZM95.8-6.909a2.331,2.331,0,0,0-.819-1.816,2.9,2.9,0,0,0-1.953-.682,2.669,2.669,0,0,0-1.838.661,2.908,2.908,0,0,0-.913,1.838Z" transform="translate(270.522 1987.632)"/>
    <path id="Path_39256" data-name="Path 39256" d="M4.14-13.96v8.64a2.962,2.962,0,0,0,.74,2.17,2.79,2.79,0,0,0,2.08.75,2.818,2.818,0,0,0,2.1-.75A2.962,2.962,0,0,0,9.8-5.32v-8.64h2.82v8.62a5.565,5.565,0,0,1-.77,3.01A4.884,4.884,0,0,1,9.79-.48,6.539,6.539,0,0,1,6.92.14,6.365,6.365,0,0,1,4.09-.48,4.72,4.72,0,0,1,2.08-2.33a5.74,5.74,0,0,1-.74-3.01v-8.62Zm17.32,2.72a4.271,4.271,0,0,1,3.2,1.25A4.786,4.786,0,0,1,25.88-6.5V0h-2.8V-6.12a2.873,2.873,0,0,0-.66-2.03,2.338,2.338,0,0,0-1.8-.71,2.4,2.4,0,0,0-1.83.71,2.846,2.846,0,0,0-.67,2.03V0h-2.8V-11.08h2.8V-9.7a3.868,3.868,0,0,1,1.43-1.13A4.424,4.424,0,0,1,21.46-11.24Zm8.5-1.16a1.706,1.706,0,0,1-1.23-.47,1.555,1.555,0,0,1-.49-1.17,1.555,1.555,0,0,1,.49-1.17,1.706,1.706,0,0,1,1.23-.47,1.706,1.706,0,0,1,1.23.47,1.555,1.555,0,0,1,.49,1.17,1.555,1.555,0,0,1-.49,1.17A1.706,1.706,0,0,1,29.96-12.4Zm1.38,1.32V0h-2.8V-11.08Zm7.38,8.5,2.8-8.5H44.5L40.4,0H37L32.92-11.08h3Zm17.66-3.2A6.608,6.608,0,0,1,56.3-4.7H48.2a2.755,2.755,0,0,0,.84,1.88,2.59,2.59,0,0,0,1.82.68,2.286,2.286,0,0,0,2.22-1.34H56.1A5.047,5.047,0,0,1,54.26-.85,5.372,5.372,0,0,1,50.92.18a5.78,5.78,0,0,1-2.87-.71,5,5,0,0,1-1.98-2.01,6.159,6.159,0,0,1-.71-3,6.273,6.273,0,0,1,.7-3.02,4.884,4.884,0,0,1,1.96-2,5.872,5.872,0,0,1,2.9-.7,5.825,5.825,0,0,1,2.83.68,4.786,4.786,0,0,1,1.94,1.93A5.841,5.841,0,0,1,56.38-5.78Zm-2.9-.8a2.22,2.22,0,0,0-.78-1.73,2.763,2.763,0,0,0-1.86-.65,2.542,2.542,0,0,0-1.75.63,2.77,2.77,0,0,0-.87,1.75Zm7.74-2.78a3.937,3.937,0,0,1,1.41-1.38,3.921,3.921,0,0,1,1.99-.5V-8.3h-.74a2.836,2.836,0,0,0-1.99.62,2.858,2.858,0,0,0-.67,2.16V0h-2.8V-11.08h2.8ZM70.74.18A5.842,5.842,0,0,1,68.3-.31a4.311,4.311,0,0,1-1.71-1.33A3.371,3.371,0,0,1,65.9-3.5h2.82a1.536,1.536,0,0,0,.63,1.06,2.191,2.191,0,0,0,1.37.42,2.127,2.127,0,0,0,1.25-.32.969.969,0,0,0,.45-.82.865.865,0,0,0-.55-.81,10.35,10.35,0,0,0-1.75-.59,14.83,14.83,0,0,1-2.03-.62,3.524,3.524,0,0,1-1.36-.98,2.63,2.63,0,0,1-.57-1.78,2.872,2.872,0,0,1,.53-1.68,3.558,3.558,0,0,1,1.52-1.2,5.7,5.7,0,0,1,2.33-.44,4.758,4.758,0,0,1,3.16.99A3.668,3.668,0,0,1,75-7.6H72.32a1.451,1.451,0,0,0-.55-1.05,2.044,2.044,0,0,0-1.31-.39,2.064,2.064,0,0,0-1.17.28.893.893,0,0,0-.41.78.917.917,0,0,0,.56.85,8.7,8.7,0,0,0,1.74.59,14.769,14.769,0,0,1,1.98.62,3.5,3.5,0,0,1,1.35.99,2.719,2.719,0,0,1,.59,1.77,2.935,2.935,0,0,1-.53,1.72A3.491,3.491,0,0,1,73.05-.25,5.759,5.759,0,0,1,70.74.18ZM78.82-12.4a1.706,1.706,0,0,1-1.23-.47,1.555,1.555,0,0,1-.49-1.17,1.555,1.555,0,0,1,.49-1.17,1.706,1.706,0,0,1,1.23-.47,1.706,1.706,0,0,1,1.23.47,1.555,1.555,0,0,1,.49,1.17,1.555,1.555,0,0,1-.49,1.17A1.706,1.706,0,0,1,78.82-12.4Zm1.38,1.32V0H77.4V-11.08Zm6.02,2.3v5.36a1.059,1.059,0,0,0,.27.81,1.326,1.326,0,0,0,.91.25h1.3V0H86.94Q83.4,0,83.4-3.44V-8.78H82.08v-2.3H83.4v-2.74h2.82v2.74H88.7v2.3Zm15.1-2.3L94.46,5.24H91.48l2.4-5.52-4.44-10.8h3.14l2.86,7.74,2.9-7.74Zm5.6-.92v-2.58h4.82V0h-2.88V-12Z" transform="translate(900.5 1887.5)"/>
    <path id="Path_39258" data-name="Path 39258" d="M4.347-14.658v9.072a3.11,3.11,0,0,0,.777,2.278,2.93,2.93,0,0,0,2.184.788,2.959,2.959,0,0,0,2.2-.788,3.11,3.11,0,0,0,.777-2.278v-9.072h2.961v9.051a5.843,5.843,0,0,1-.809,3.161A5.128,5.128,0,0,1,10.28-.5,6.866,6.866,0,0,1,7.266.147,6.683,6.683,0,0,1,4.294-.5a4.956,4.956,0,0,1-2.11-1.943,6.027,6.027,0,0,1-.777-3.161v-9.051ZM22.533-11.8a4.484,4.484,0,0,1,3.36,1.313,5.025,5.025,0,0,1,1.281,3.665V0h-2.94V-6.426a3.017,3.017,0,0,0-.693-2.132,2.454,2.454,0,0,0-1.89-.745,2.515,2.515,0,0,0-1.922.745,2.988,2.988,0,0,0-.7,2.132V0h-2.94V-11.634h2.94v1.449a4.062,4.062,0,0,1,1.5-1.187A4.645,4.645,0,0,1,22.533-11.8Zm8.925-1.218a1.791,1.791,0,0,1-1.292-.493,1.633,1.633,0,0,1-.514-1.229,1.633,1.633,0,0,1,.514-1.228,1.791,1.791,0,0,1,1.292-.494,1.791,1.791,0,0,1,1.292.494,1.633,1.633,0,0,1,.514,1.228,1.633,1.633,0,0,1-.514,1.229A1.791,1.791,0,0,1,31.458-13.02Zm1.449,1.386V0h-2.94V-11.634Zm7.749,8.925,2.94-8.925h3.129L42.42,0H38.85L34.566-11.634h3.15ZM59.2-6.069a6.938,6.938,0,0,1-.084,1.134H50.61a2.892,2.892,0,0,0,.882,1.974,2.72,2.72,0,0,0,1.911.714,2.4,2.4,0,0,0,2.331-1.407H58.9A5.3,5.3,0,0,1,56.973-.892,5.64,5.64,0,0,1,53.466.189a6.069,6.069,0,0,1-3.014-.746,5.247,5.247,0,0,1-2.079-2.111,6.467,6.467,0,0,1-.745-3.15,6.587,6.587,0,0,1,.735-3.171,5.128,5.128,0,0,1,2.058-2.1,6.165,6.165,0,0,1,3.045-.735,6.116,6.116,0,0,1,2.972.714,5.025,5.025,0,0,1,2.037,2.027A6.133,6.133,0,0,1,59.2-6.069Zm-3.045-.84a2.332,2.332,0,0,0-.819-1.816,2.9,2.9,0,0,0-1.953-.682,2.669,2.669,0,0,0-1.837.661,2.908,2.908,0,0,0-.914,1.838Zm8.127-2.919a4.133,4.133,0,0,1,1.48-1.449,4.118,4.118,0,0,1,2.09-.525v3.087h-.777a2.978,2.978,0,0,0-2.09.651,3,3,0,0,0-.7,2.268V0h-2.94V-11.634h2.94Zm10,10.017a6.135,6.135,0,0,1-2.562-.515,4.527,4.527,0,0,1-1.8-1.4,3.539,3.539,0,0,1-.725-1.953h2.961a1.613,1.613,0,0,0,.661,1.113,2.3,2.3,0,0,0,1.438.441,2.234,2.234,0,0,0,1.313-.336,1.017,1.017,0,0,0,.473-.861.908.908,0,0,0-.577-.85,10.867,10.867,0,0,0-1.838-.62,15.572,15.572,0,0,1-2.132-.651,3.7,3.7,0,0,1-1.428-1.029,2.762,2.762,0,0,1-.6-1.869,3.016,3.016,0,0,1,.556-1.764,3.736,3.736,0,0,1,1.6-1.26,5.983,5.983,0,0,1,2.447-.462,5,5,0,0,1,3.318,1.04,3.851,3.851,0,0,1,1.365,2.8H75.936a1.523,1.523,0,0,0-.577-1.1,2.146,2.146,0,0,0-1.375-.41,2.167,2.167,0,0,0-1.229.294.937.937,0,0,0-.431.819.962.962,0,0,0,.588.892,9.131,9.131,0,0,0,1.827.62,15.508,15.508,0,0,1,2.079.651,3.673,3.673,0,0,1,1.418,1.039,2.855,2.855,0,0,1,.619,1.859A3.082,3.082,0,0,1,78.3-1.512a3.666,3.666,0,0,1-1.6,1.25A6.047,6.047,0,0,1,74.277.189ZM82.761-13.02a1.791,1.791,0,0,1-1.292-.493,1.633,1.633,0,0,1-.514-1.229,1.633,1.633,0,0,1,.514-1.228,1.791,1.791,0,0,1,1.292-.494,1.791,1.791,0,0,1,1.291.494,1.633,1.633,0,0,1,.515,1.228,1.633,1.633,0,0,1-.515,1.229A1.791,1.791,0,0,1,82.761-13.02Zm1.449,1.386V0H81.27V-11.634Zm6.321,2.415v5.628a1.112,1.112,0,0,0,.284.851,1.393,1.393,0,0,0,.955.262h1.365V0H91.287Q87.57,0,87.57-3.612V-9.219H86.184v-2.415H87.57v-2.877h2.961v2.877h2.6v2.415Zm15.855-2.415L99.183,5.5H96.054l2.52-5.8-4.662-11.34h3.3l3,8.127,3.045-8.127Zm6.279.357a4.282,4.282,0,0,1,1.48-3.245,5.479,5.479,0,0,1,3.623-1.145,5.911,5.911,0,0,1,2.625.536,3.854,3.854,0,0,1,1.648,1.449,3.9,3.9,0,0,1,.556,2.069,3.631,3.631,0,0,1-.682,2.236,3.345,3.345,0,0,1-1.628,1.229v.084a3.53,3.53,0,0,1,1.9,1.344,4.2,4.2,0,0,1,.682,2.478A4.366,4.366,0,0,1,122.294-2a3.93,3.93,0,0,1-1.7,1.544,6.025,6.025,0,0,1-2.7.557,5.981,5.981,0,0,1-3.864-1.2,4.477,4.477,0,0,1-1.575-3.528h2.856a2.287,2.287,0,0,0,.7,1.649,2.552,2.552,0,0,0,1.816.62,2.185,2.185,0,0,0,1.648-.6,2.131,2.131,0,0,0,.577-1.544,2.029,2.029,0,0,0-.8-1.806,4.451,4.451,0,0,0-2.478-.546h-.609V-9.261h.609q2.982,0,2.982-1.995a1.838,1.838,0,0,0-.535-1.407,2.169,2.169,0,0,0-1.543-.5,2.06,2.06,0,0,0-1.523.536,2.164,2.164,0,0,0-.619,1.354Z" transform="translate(900.5 2040.944)"/>
    <path id="Path_39257" data-name="Path 39257" d="M4.347-14.658v9.072a3.11,3.11,0,0,0,.777,2.278,2.93,2.93,0,0,0,2.184.788,2.959,2.959,0,0,0,2.2-.788,3.11,3.11,0,0,0,.777-2.278v-9.072h2.961v9.051a5.843,5.843,0,0,1-.809,3.161A5.128,5.128,0,0,1,10.28-.5,6.866,6.866,0,0,1,7.266.147,6.683,6.683,0,0,1,4.294-.5a4.956,4.956,0,0,1-2.11-1.943,6.027,6.027,0,0,1-.777-3.161v-9.051ZM22.533-11.8a4.484,4.484,0,0,1,3.36,1.313,5.025,5.025,0,0,1,1.281,3.665V0h-2.94V-6.426a3.017,3.017,0,0,0-.693-2.132,2.454,2.454,0,0,0-1.89-.745,2.515,2.515,0,0,0-1.922.745,2.988,2.988,0,0,0-.7,2.132V0h-2.94V-11.634h2.94v1.449a4.062,4.062,0,0,1,1.5-1.187A4.645,4.645,0,0,1,22.533-11.8Zm8.925-1.218a1.791,1.791,0,0,1-1.292-.493,1.633,1.633,0,0,1-.514-1.229,1.633,1.633,0,0,1,.514-1.228,1.791,1.791,0,0,1,1.292-.494,1.791,1.791,0,0,1,1.292.494,1.633,1.633,0,0,1,.514,1.228,1.633,1.633,0,0,1-.514,1.229A1.791,1.791,0,0,1,31.458-13.02Zm1.449,1.386V0h-2.94V-11.634Zm7.749,8.925,2.94-8.925h3.129L42.42,0H38.85L34.566-11.634h3.15ZM59.2-6.069a6.938,6.938,0,0,1-.084,1.134H50.61a2.892,2.892,0,0,0,.882,1.974,2.72,2.72,0,0,0,1.911.714,2.4,2.4,0,0,0,2.331-1.407H58.9A5.3,5.3,0,0,1,56.973-.892,5.64,5.64,0,0,1,53.466.189a6.069,6.069,0,0,1-3.014-.746,5.247,5.247,0,0,1-2.079-2.111,6.467,6.467,0,0,1-.745-3.15,6.587,6.587,0,0,1,.735-3.171,5.128,5.128,0,0,1,2.058-2.1,6.165,6.165,0,0,1,3.045-.735,6.116,6.116,0,0,1,2.972.714,5.025,5.025,0,0,1,2.037,2.027A6.133,6.133,0,0,1,59.2-6.069Zm-3.045-.84a2.332,2.332,0,0,0-.819-1.816,2.9,2.9,0,0,0-1.953-.682,2.669,2.669,0,0,0-1.837.661,2.908,2.908,0,0,0-.914,1.838Zm8.127-2.919a4.133,4.133,0,0,1,1.48-1.449,4.118,4.118,0,0,1,2.09-.525v3.087h-.777a2.978,2.978,0,0,0-2.09.651,3,3,0,0,0-.7,2.268V0h-2.94V-11.634h2.94Zm10,10.017a6.135,6.135,0,0,1-2.562-.515,4.527,4.527,0,0,1-1.8-1.4,3.539,3.539,0,0,1-.725-1.953h2.961a1.613,1.613,0,0,0,.661,1.113,2.3,2.3,0,0,0,1.438.441,2.234,2.234,0,0,0,1.313-.336,1.017,1.017,0,0,0,.473-.861.908.908,0,0,0-.577-.85,10.867,10.867,0,0,0-1.838-.62,15.572,15.572,0,0,1-2.132-.651,3.7,3.7,0,0,1-1.428-1.029,2.762,2.762,0,0,1-.6-1.869,3.016,3.016,0,0,1,.556-1.764,3.736,3.736,0,0,1,1.6-1.26,5.983,5.983,0,0,1,2.447-.462,5,5,0,0,1,3.318,1.04,3.851,3.851,0,0,1,1.365,2.8H75.936a1.523,1.523,0,0,0-.577-1.1,2.146,2.146,0,0,0-1.375-.41,2.167,2.167,0,0,0-1.229.294.937.937,0,0,0-.431.819.962.962,0,0,0,.588.892,9.131,9.131,0,0,0,1.827.62,15.508,15.508,0,0,1,2.079.651,3.673,3.673,0,0,1,1.418,1.039,2.855,2.855,0,0,1,.619,1.859A3.082,3.082,0,0,1,78.3-1.512a3.666,3.666,0,0,1-1.6,1.25A6.047,6.047,0,0,1,74.277.189ZM82.761-13.02a1.791,1.791,0,0,1-1.292-.493,1.633,1.633,0,0,1-.514-1.229,1.633,1.633,0,0,1,.514-1.228,1.791,1.791,0,0,1,1.292-.494,1.791,1.791,0,0,1,1.291.494,1.633,1.633,0,0,1,.515,1.228,1.633,1.633,0,0,1-.515,1.229A1.791,1.791,0,0,1,82.761-13.02Zm1.449,1.386V0H81.27V-11.634Zm6.321,2.415v5.628a1.112,1.112,0,0,0,.284.851,1.393,1.393,0,0,0,.955.262h1.365V0H91.287Q87.57,0,87.57-3.612V-9.219H86.184v-2.415H87.57v-2.877h2.961v2.877h2.6v2.415Zm15.855-2.415L99.183,5.5H96.054l2.52-5.8-4.662-11.34h3.3l3,8.127,3.045-8.127Zm7.161,8.316q2.016-1.68,3.213-2.8a13,13,0,0,0,2-2.342,4.36,4.36,0,0,0,.8-2.394,2.559,2.559,0,0,0-.5-1.68,1.9,1.9,0,0,0-1.554-.609,1.957,1.957,0,0,0-1.617.7,3.066,3.066,0,0,0-.588,1.922h-2.856a5.181,5.181,0,0,1,1.5-3.822,5.118,5.118,0,0,1,3.6-1.3,5,5,0,0,1,3.675,1.271,4.508,4.508,0,0,1,1.281,3.35,6.055,6.055,0,0,1-.882,3.129A12.383,12.383,0,0,1,119.6-5.3q-1.134,1.1-2.961,2.656h6.195V-.21H112.455V-2.394Z" transform="translate(898 1964.222)"/>
    <path id="Path_39255" data-name="Path 39255" d="M4.14-13.96v8.64a2.962,2.962,0,0,0,.74,2.17,2.79,2.79,0,0,0,2.08.75,2.818,2.818,0,0,0,2.1-.75A2.962,2.962,0,0,0,9.8-5.32v-8.64h2.82v8.62a5.565,5.565,0,0,1-.77,3.01A4.884,4.884,0,0,1,9.79-.48,6.539,6.539,0,0,1,6.92.14,6.365,6.365,0,0,1,4.09-.48,4.72,4.72,0,0,1,2.08-2.33a5.74,5.74,0,0,1-.74-3.01v-8.62Zm17.32,2.72a4.271,4.271,0,0,1,3.2,1.25A4.786,4.786,0,0,1,25.88-6.5V0h-2.8V-6.12a2.873,2.873,0,0,0-.66-2.03,2.338,2.338,0,0,0-1.8-.71,2.4,2.4,0,0,0-1.83.71,2.846,2.846,0,0,0-.67,2.03V0h-2.8V-11.08h2.8V-9.7a3.868,3.868,0,0,1,1.43-1.13A4.424,4.424,0,0,1,21.46-11.24Zm8.5-1.16a1.706,1.706,0,0,1-1.23-.47,1.555,1.555,0,0,1-.49-1.17,1.555,1.555,0,0,1,.49-1.17,1.706,1.706,0,0,1,1.23-.47,1.706,1.706,0,0,1,1.23.47,1.555,1.555,0,0,1,.49,1.17,1.555,1.555,0,0,1-.49,1.17A1.706,1.706,0,0,1,29.96-12.4Zm1.38,1.32V0h-2.8V-11.08Zm7.84,2.3H37.24V0H34.4V-8.78H33.14v-2.3H34.4v-.56a3.673,3.673,0,0,1,1.16-3,5.183,5.183,0,0,1,3.5-.9v2.36a2.078,2.078,0,0,0-1.42.34,1.7,1.7,0,0,0-.4,1.3v.46h1.94Zm3.24-3.62a1.706,1.706,0,0,1-1.23-.47,1.555,1.555,0,0,1-.49-1.17,1.555,1.555,0,0,1,.49-1.17,1.706,1.706,0,0,1,1.23-.47,1.706,1.706,0,0,1,1.23.47,1.555,1.555,0,0,1,.49,1.17,1.555,1.555,0,0,1-.49,1.17A1.706,1.706,0,0,1,42.42-12.4Zm1.38,1.32V0H41V-11.08Zm13.06,5.3a6.608,6.608,0,0,1-.08,1.08h-8.1a2.755,2.755,0,0,0,.84,1.88,2.59,2.59,0,0,0,1.82.68,2.286,2.286,0,0,0,2.22-1.34h3.02A5.047,5.047,0,0,1,54.74-.85,5.372,5.372,0,0,1,51.4.18a5.78,5.78,0,0,1-2.87-.71,5,5,0,0,1-1.98-2.01,6.159,6.159,0,0,1-.71-3,6.273,6.273,0,0,1,.7-3.02,4.884,4.884,0,0,1,1.96-2,5.872,5.872,0,0,1,2.9-.7,5.825,5.825,0,0,1,2.83.68,4.786,4.786,0,0,1,1.94,1.93A5.841,5.841,0,0,1,56.86-5.78Zm-2.9-.8a2.22,2.22,0,0,0-.78-1.73,2.763,2.763,0,0,0-1.86-.65,2.542,2.542,0,0,0-1.75.63,2.77,2.77,0,0,0-.87,1.75Zm4.22,1a6.413,6.413,0,0,1,.67-2.98,4.887,4.887,0,0,1,1.83-2,4.9,4.9,0,0,1,2.58-.7,4.706,4.706,0,0,1,2.06.47,4.119,4.119,0,0,1,1.56,1.25V-14.8h2.84V0H66.88V-1.64A3.8,3.8,0,0,1,65.42-.32a4.574,4.574,0,0,1-2.18.5,4.759,4.759,0,0,1-2.56-.72,5.014,5.014,0,0,1-1.83-2.03A6.519,6.519,0,0,1,58.18-5.58Zm8.72.04a3.592,3.592,0,0,0-.4-1.75,2.82,2.82,0,0,0-1.08-1.12,2.887,2.887,0,0,0-1.46-.39,2.836,2.836,0,0,0-1.44.38,2.862,2.862,0,0,0-1.07,1.11,3.477,3.477,0,0,0-.41,1.73,3.592,3.592,0,0,0,.41,1.75,2.952,2.952,0,0,0,1.08,1.15,2.744,2.744,0,0,0,1.43.4,2.887,2.887,0,0,0,1.46-.39A2.82,2.82,0,0,0,66.5-3.79,3.592,3.592,0,0,0,66.9-5.54ZM85.78-2.66H80.22L79.3,0H76.36l5.02-13.98h3.26L89.66,0H86.7ZM85.02-4.9,83-10.74,80.98-4.9Zm9.32-4.58a4.252,4.252,0,0,1,1.49-1.27A4.516,4.516,0,0,1,98-11.26a4.845,4.845,0,0,1,2.57.7,4.925,4.925,0,0,1,1.82,1.99,6.4,6.4,0,0,1,.67,2.99,6.519,6.519,0,0,1-.67,3.01,5.039,5.039,0,0,1-1.82,2.03A4.744,4.744,0,0,1,98,.18a4.471,4.471,0,0,1-2.15-.5,4.612,4.612,0,0,1-1.51-1.26V5.28h-2.8V-11.08h2.8Zm5.86,3.9a3.477,3.477,0,0,0-.41-1.73,2.839,2.839,0,0,0-1.08-1.11,2.89,2.89,0,0,0-1.45-.38,2.8,2.8,0,0,0-1.43.39,2.9,2.9,0,0,0-1.08,1.13,3.534,3.534,0,0,0-.41,1.74,3.534,3.534,0,0,0,.41,1.74,2.9,2.9,0,0,0,1.08,1.13,2.8,2.8,0,0,0,1.43.39,2.779,2.779,0,0,0,1.45-.4,2.969,2.969,0,0,0,1.08-1.14A3.577,3.577,0,0,0,100.2-5.58Zm7.7-3.9a4.252,4.252,0,0,1,1.49-1.27,4.516,4.516,0,0,1,2.17-.51,4.845,4.845,0,0,1,2.57.7,4.925,4.925,0,0,1,1.82,1.99,6.4,6.4,0,0,1,.67,2.99,6.519,6.519,0,0,1-.67,3.01,5.039,5.039,0,0,1-1.82,2.03,4.744,4.744,0,0,1-2.57.72,4.471,4.471,0,0,1-2.15-.5,4.612,4.612,0,0,1-1.51-1.26V5.28h-2.8V-11.08h2.8Zm5.86,3.9a3.477,3.477,0,0,0-.41-1.73,2.839,2.839,0,0,0-1.08-1.11,2.89,2.89,0,0,0-1.45-.38,2.8,2.8,0,0,0-1.43.39,2.9,2.9,0,0,0-1.08,1.13,3.534,3.534,0,0,0-.41,1.74,3.534,3.534,0,0,0,.41,1.74,2.9,2.9,0,0,0,1.08,1.13,2.8,2.8,0,0,0,1.43.39,2.779,2.779,0,0,0,1.45-.4,2.969,2.969,0,0,0,1.08-1.14A3.577,3.577,0,0,0,113.76-5.58Zm7.7-9.22V0h-2.8V-14.8Zm4.18,2.4a1.706,1.706,0,0,1-1.23-.47,1.555,1.555,0,0,1-.49-1.17,1.555,1.555,0,0,1,.49-1.17,1.706,1.706,0,0,1,1.23-.47,1.706,1.706,0,0,1,1.23.47,1.555,1.555,0,0,1,.49,1.17,1.555,1.555,0,0,1-.49,1.17A1.706,1.706,0,0,1,125.64-12.4Zm1.38,1.32V0h-2.8V-11.08Zm2.04,5.54a6.215,6.215,0,0,1,.7-3.01,5,5,0,0,1,1.94-2,5.613,5.613,0,0,1,2.84-.71,5.46,5.46,0,0,1,3.41,1.03,5.01,5.01,0,0,1,1.81,2.89h-3.02a2.209,2.209,0,0,0-.81-1.13,2.352,2.352,0,0,0-1.41-.41,2.309,2.309,0,0,0-1.9.87,3.851,3.851,0,0,0-.7,2.47,3.815,3.815,0,0,0,.7,2.45,2.309,2.309,0,0,0,1.9.87,2.124,2.124,0,0,0,2.22-1.52h3.02a5.111,5.111,0,0,1-1.82,2.86,5.363,5.363,0,0,1-3.4,1.06,5.613,5.613,0,0,1-2.84-.71,5,5,0,0,1-1.94-2A6.215,6.215,0,0,1,129.06-5.54Zm12.04-.04a6.413,6.413,0,0,1,.67-2.98,4.911,4.911,0,0,1,1.82-2,4.845,4.845,0,0,1,2.57-.7,4.514,4.514,0,0,1,2.17.5,4.4,4.4,0,0,1,1.49,1.26v-1.58h2.82V0h-2.82V-1.62a4.165,4.165,0,0,1-1.49,1.29,4.559,4.559,0,0,1-2.19.51,4.709,4.709,0,0,1-2.55-.72,5.039,5.039,0,0,1-1.82-2.03A6.519,6.519,0,0,1,141.1-5.58Zm8.72.04a3.591,3.591,0,0,0-.4-1.75,2.82,2.82,0,0,0-1.08-1.12,2.886,2.886,0,0,0-1.46-.39,2.836,2.836,0,0,0-1.44.38,2.861,2.861,0,0,0-1.07,1.11,3.477,3.477,0,0,0-.41,1.73,3.592,3.592,0,0,0,.41,1.75,2.952,2.952,0,0,0,1.08,1.15,2.744,2.744,0,0,0,1.43.4,2.886,2.886,0,0,0,1.46-.39,2.82,2.82,0,0,0,1.08-1.12A3.591,3.591,0,0,0,149.82-5.54Zm8.82-3.24v5.36a1.059,1.059,0,0,0,.27.81,1.327,1.327,0,0,0,.91.25h1.3V0h-1.76q-3.54,0-3.54-3.44V-8.78H154.5v-2.3h1.32v-2.74h2.82v2.74h2.48v2.3Zm5.92-3.62a1.706,1.706,0,0,1-1.23-.47,1.555,1.555,0,0,1-.49-1.17,1.555,1.555,0,0,1,.49-1.17,1.706,1.706,0,0,1,1.23-.47,1.706,1.706,0,0,1,1.23.47,1.555,1.555,0,0,1,.49,1.17,1.555,1.555,0,0,1-.49,1.17A1.706,1.706,0,0,1,164.56-12.4Zm1.38,1.32V0h-2.8V-11.08ZM173.62.18a5.836,5.836,0,0,1-2.88-.71,5.113,5.113,0,0,1-2.01-2.01,6.023,6.023,0,0,1-.73-3,5.9,5.9,0,0,1,.75-3,5.212,5.212,0,0,1,2.05-2.01,5.95,5.95,0,0,1,2.9-.71,5.95,5.95,0,0,1,2.9.71,5.212,5.212,0,0,1,2.05,2.01,5.9,5.9,0,0,1,.75,3,5.775,5.775,0,0,1-.77,3,5.332,5.332,0,0,1-2.08,2.01A6.048,6.048,0,0,1,173.62.18Zm0-2.44a2.913,2.913,0,0,0,1.43-.37,2.689,2.689,0,0,0,1.07-1.11,3.741,3.741,0,0,0,.4-1.8,3.335,3.335,0,0,0-.83-2.43,2.728,2.728,0,0,0-2.03-.85,2.664,2.664,0,0,0-2.01.85,3.386,3.386,0,0,0-.81,2.43,3.439,3.439,0,0,0,.79,2.43A2.6,2.6,0,0,0,173.62-2.26Zm13.98-8.98a4.271,4.271,0,0,1,3.2,1.25,4.786,4.786,0,0,1,1.22,3.49V0h-2.8V-6.12a2.873,2.873,0,0,0-.66-2.03,2.338,2.338,0,0,0-1.8-.71,2.4,2.4,0,0,0-1.83.71,2.846,2.846,0,0,0-.67,2.03V0h-2.8V-11.08h2.8V-9.7a3.868,3.868,0,0,1,1.43-1.13A4.424,4.424,0,0,1,187.6-11.24ZM198.78-12v-2.58h4.82V0h-2.88V-12Z" transform="translate(301.406 2107.576)"/>
    <path id="Path_37731" data-name="Path 37731" d="M0,14.091a2,2,0,0,1-1.738-1.007,2,2,0,0,1,.743-2.729L6.538,6.045-.993,1.736A2,2,0,0,1-1.736-.993,2,2,0,0,1,.993-1.736L9.935,3.381a3.089,3.089,0,0,1,1.641,2.664A3.09,3.09,0,0,1,9.934,8.71L.993,13.827A1.991,1.991,0,0,1,0,14.091Z" transform="translate(832.104 1952.086)"/>
    <path id="Path_37732" data-name="Path 37732" d="M0,2.263v-4c1,0,2.015,0,3.006-.012l.032,4C2.036,2.259,1.014,2.263,0,2.263Zm6.033-.048-.064-4c1-.016,2.012-.036,3-.061l.1,4C8.068,2.179,7.047,2.2,6.033,2.215Zm6.032-.147-.132-4c1-.033,2.011-.071,3-.113l.168,4C14.1,2,13.079,2.035,12.065,2.068ZM18.1,1.814l-.206-3.995c1-.051,2.007-.108,2.993-.169l.245,3.993C20.131,1.7,19.11,1.762,18.1,1.814Zm6.033-.37-.285-3.99c1-.071,2-.148,2.981-.228l.326,3.987C26.158,1.294,25.141,1.372,24.131,1.444ZM30.159.95l-.369-3.983c.99-.092,1.987-.19,2.964-.292L33.167.654C32.176.758,31.164.857,30.159.95ZM36.177.323,35.716-3.65c.983-.114,1.972-.235,2.941-.359l.509,3.967C38.181.084,37.175.207,36.177.323Zm6-.771-.56-3.961c.98-.139,1.967-.285,2.933-.434l.612,3.953C44.179-.737,43.175-.589,42.178-.448Zm5.977-.926-.666-3.944c.98-.165,1.966-.339,2.93-.516L51.141-1.9C50.158-1.719,49.153-1.542,48.155-1.373ZM54.1-2.466l-.78-3.923c.977-.194,1.959-.4,2.919-.6l.841,3.911C56.1-2.871,55.1-2.664,54.1-2.466Zm5.939-1.278-.9-3.9c.961-.223,1.927-.456,2.872-.692l.969,3.881C62.013-4.21,61.025-3.972,60.042-3.744Zm5.885-1.471L64.89-9.078c.957-.257,1.918-.524,2.857-.795L68.854-6.03C67.892-5.752,66.908-5.478,65.928-5.215ZM71.758-6.9l-1.18-3.822c.945-.292,1.894-.6,2.821-.9l1.255,3.8C73.7-7.507,72.728-7.2,71.758-6.9Zm5.779-1.911L76.2-12.578c.931-.329,1.865-.67,2.777-1.015l1.413,3.742C79.455-9.5,78.494-9.145,77.537-8.807Zm5.687-2.148-1.5-3.71c.914-.369,1.832-.75,2.726-1.135l1.58,3.675C85.112-11.729,84.166-11.335,83.224-10.955Zm5.6-2.409L87.158-17c.9-.41,1.793-.835,2.668-1.263l1.756,3.594C90.677-14.227,89.749-13.788,88.825-13.364Zm5.48-2.677L92.459-19.59c.871-.453,1.744-.922,2.595-1.393l1.937,3.5C96.11-17,95.206-16.511,94.3-16.042ZM99.639-19l-2.03-3.447c.846-.5,1.693-1.013,2.518-1.53l2.124,3.39C101.395-20.046,100.516-19.512,99.639-19Zm5.18-3.247L102.6-25.571c.815-.543,1.632-1.1,2.427-1.667l2.312,3.264C106.514-23.389,105.666-22.806,104.819-22.242Zm4.99-3.534-2.4-3.2c.781-.588,1.563-1.194,2.324-1.8l2.5,3.125C111.434-27.018,110.621-26.388,109.809-25.777Zm4.777-3.818L112-32.645c.744-.631,1.489-1.282,2.214-1.935l2.677,2.973C116.135-30.929,115.36-30.252,114.587-29.6Zm4.545-4.092-2.763-2.893c.7-.673,1.41-1.367,2.1-2.062l2.846,2.811C120.6-35.109,119.864-34.387,119.131-33.687Zm4.3-4.35L120.5-40.765c.664-.712,1.328-1.446,1.975-2.181l3,2.643C124.808-39.54,124.118-38.777,123.428-38.038Zm4.038-4.587-3.075-2.558c.622-.748,1.245-1.518,1.852-2.29L129.387-45C128.758-44.2,128.112-43.4,127.466-42.625Zm3.777-4.8-3.208-2.389c.581-.78,1.163-1.583,1.731-2.387l3.268,2.307C132.447-49.061,131.844-48.23,131.243-47.423Zm3.518-4.982-3.324-2.226c.541-.808,1.084-1.64,1.614-2.473l3.375,2.147C135.88-54.1,135.32-53.239,134.761-52.405Zm3.27-5.139-3.423-2.07c.5-.832,1.009-1.689,1.5-2.547l3.466,2C139.069-59.282,138.549-58.4,138.031-57.545Zm3.037-5.27-3.505-1.927c.468-.852.94-1.73,1.4-2.609l3.541,1.86C142.033-64.589,141.549-63.688,141.069-62.814Zm2.825-5.376-3.574-1.8c.437-.868.878-1.764,1.311-2.662l3.6,1.738C144.791-69.994,144.34-69.078,143.893-68.19Zm2.635-5.461L142.9-75.333c.409-.881.823-1.791,1.231-2.705l3.652,1.631C147.367-75.477,146.945-74.549,146.528-73.651ZM149-79.178l-3.673-1.584c.384-.891.776-1.813,1.163-2.74l3.691,1.542C149.786-81.019,149.389-80.083,149-79.178Zm2.331-5.576-3.707-1.5c.364-.9.737-1.828,1.108-2.768l3.72,1.47C152.075-86.6,151.7-85.661,151.329-84.754Zm2.218-5.612-3.732-1.44c.346-.9.7-1.836,1.066-2.79l3.741,1.415C154.259-92.218,153.9-91.271,153.548-90.365ZM155.68-96l-3.749-1.394c.335-.9.674-1.82,1.036-2.806l3.755,1.378C156.358-97.831,156.017-96.907,155.68-96Zm2.073-5.647-3.76-1.365q.511-1.408,1.019-2.817l3.763,1.358Q158.265-103.059,157.753-101.647Zm2.04-5.649-3.764-1.354.328-.911.688-1.912,3.764,1.355-.688,1.911Zm2.032-5.642-3.762-1.36c.37-1.024.705-1.948,1.025-2.825l3.758,1.369C162.528-114.88,162.194-113.959,161.825-112.938Zm2.051-5.626-3.753-1.383c.359-.975.711-1.924,1.047-2.822l3.747,1.4C164.582-120.476,164.232-119.533,163.875-118.564Zm2.1-5.6-3.738-1.424c.366-.96.73-1.907,1.083-2.813l3.728,1.45C166.694-126.052,166.333-125.115,165.971-124.163Zm2.165-5.562-3.716-1.481c.379-.95.759-1.892,1.131-2.8l3.7,1.517C168.886-131.594,168.51-130.664,168.136-129.726Zm2.261-5.514-3.685-1.557c.4-.94.8-1.875,1.193-2.779l3.666,1.6C171.183-137.085,170.788-136.164,170.4-135.239Zm2.382-5.452-3.644-1.649c.42-.928.847-1.854,1.268-2.751l3.62,1.7C173.609-142.51,173.191-141.6,172.779-140.691Zm2.527-5.375-3.593-1.758c.448-.915.9-1.828,1.356-2.714l3.563,1.819C176.19-147.854,175.744-146.961,175.306-146.066Zm2.7-5.281-3.529-1.883c.479-.9.969-1.8,1.456-2.667l3.492,1.951C178.948-153.1,178.47-152.223,178-151.347Zm2.888-5.167-3.451-2.023c.515-.879,1.042-1.757,1.567-2.609l3.406,2.1C181.9-158.22,181.392-157.368,180.891-156.514Zm3.1-5.032-3.357-2.174c.554-.855,1.121-1.709,1.687-2.538l3.3,2.254C185.077-163.2,184.527-162.374,183.991-161.546Zm3.327-4.875-3.247-2.336c.595-.827,1.2-1.652,1.814-2.454l3.186,2.419C188.481-168.017,187.892-167.219,187.317-166.421Zm3.565-4.693-3.12-2.5c.637-.794,1.291-1.587,1.944-2.356l3.05,2.588C192.127-172.644,191.5-171.88,190.883-171.114Zm3.81-4.489-2.976-2.673c.68-.757,1.378-1.512,2.075-2.245l2.9,2.757C196.019-177.059,195.347-176.332,194.693-175.6Zm4.056-4.263-2.817-2.84c.721-.716,1.463-1.43,2.2-2.122l2.732,2.921C200.156-181.241,199.443-180.555,198.749-179.866Zm4.3-4.018-2.645-3c.761-.671,1.542-1.34,2.323-1.988l2.556,3.077C204.528-185.172,203.776-184.529,203.045-183.884Zm4.523-3.757-2.465-3.15c.8-.624,1.617-1.246,2.435-1.848l2.372,3.221C209.122-188.839,208.334-188.241,207.567-187.641Zm4.735-3.488-2.279-3.288c.831-.576,1.684-1.149,2.536-1.7l2.185,3.351C213.924-192.236,213.1-191.683,212.3-191.129Zm4.93-3.215-2.091-3.41c.861-.528,1.745-1.053,2.626-1.561l2,3.466C218.915-195.359,218.063-194.853,217.233-194.344Zm5.108-2.945-1.9-3.517c.887-.48,1.8-.958,2.7-1.419l1.813,3.565C224.077-198.214,223.2-197.752,222.341-197.288Zm5.254-2.673-1.724-3.609c.907-.433,1.837-.863,2.764-1.279l1.636,3.65C229.373-200.8,228.473-200.381,227.595-199.962Zm5.385-2.414-1.55-3.688c.927-.39,1.878-.776,2.825-1.149l1.466,3.722C234.8-203.129,233.879-202.754,232.979-202.375Zm5.506-2.169L237.1-208.3c.939-.346,1.9-.689,2.858-1.02l1.305,3.781C240.332-205.215,239.4-204.881,238.485-204.545Zm5.585-1.928-1.229-3.807c.955-.308,1.934-.613,2.907-.907l1.154,3.83C245.953-207.071,245-206.774,244.069-206.473Zm5.676-1.711-1.082-3.851c.961-.27,1.945-.537,2.923-.793l1.013,3.87C251.644-208.709,250.684-208.448,249.746-208.185Zm5.733-1.5-.946-3.886c.973-.237,1.968-.47,2.957-.694l.882,3.9C257.4-210.146,256.43-209.918,255.479-209.686Zm5.784-1.308-.82-3.915c.979-.205,1.981-.407,2.976-.6l.76,3.927C263.2-211.392,262.222-211.195,261.263-210.994Zm5.838-1.13-.7-3.938c.98-.175,1.982-.346,2.977-.509l.647,3.947C269.045-212.463,268.062-212.3,267.1-212.124Zm5.871-.962-.593-3.956c.983-.147,1.987-.291,2.985-.427l.542,3.963C274.924-213.372,273.937-213.23,272.972-213.086Zm5.885-.8-.492-3.97c.991-.123,2-.242,3.008-.354l.444,3.975C280.827-214.128,279.831-214.011,278.856-213.89Zm5.912-.661-.4-3.98c1-.1,2.016-.2,3.027-.286l.354,3.984C286.754-214.744,285.751-214.65,284.768-214.551Zm5.932-.528-.311-3.988c1-.078,2.015-.152,3.026-.22l.27,3.991C292.688-215.229,291.684-215.156,290.7-215.079Zm5.946-.4-.231-3.993c1-.058,2.014-.111,3.023-.16l.192,4C298.635-215.592,297.63-215.539,296.646-215.482Zm5.956-.287-.156-4c1-.039,2.013-.074,3.021-.1l.12,4C304.592-215.842,303.587-215.808,302.6-215.769Zm5.962-.179-.086-4c1-.021,2.013-.039,3.021-.052l.052,4C310.555-215.987,309.55-215.969,308.565-215.948Zm5.966-.078-.02-4c.65,0,1.311,0,1.966,0v4C315.829-216.032,315.174-216.03,314.531-216.027Z" transform="translate(526.523 2100.076)"/>
    <path id="Path_37733" data-name="Path 37733" d="M0,14.091a2,2,0,0,1-1.738-1.007,2,2,0,0,1,.743-2.729L6.538,6.045-.993,1.736A2,2,0,0,1-1.736-.993,2,2,0,0,1,.993-1.736L9.935,3.381a3.089,3.089,0,0,1,1.641,2.664A3.09,3.09,0,0,1,9.934,8.71L.993,13.827A1.991,1.991,0,0,1,0,14.091Z" transform="translate(832.104 2029.917)"/>
    <path id="Path_37734" data-name="Path 37734" d="M0,2V-2c1.006,0,2.02,0,3.014-.008l.021,4C2.033,2,1.012,2,0,2Zm6.026-.031-.042-4c1-.01,2.015-.024,3.007-.04l.064,4C8.056,1.945,7.037,1.958,6.026,1.969Zm6.024-.1-.087-4c1-.022,2.013-.047,3-.074l.11,4C14.078,1.826,13.06,1.851,12.049,1.873Zm6.021-.166-.135-4c1-.034,2.012-.071,3-.111l.16,4C20.1,1.635,19.081,1.672,18.07,1.706Zm6.018-.242-.187-4c1-.047,2.012-.1,3-.151l.214,3.994C26.119,1.366,25.1,1.417,24.089,1.465Zm6.019-.323-.243-3.993c1-.061,2.009-.126,3-.193L33.134.946C32.137,1.014,31.119,1.08,30.108,1.142ZM36.132.73l-.3-3.988c1-.076,2-.156,2.981-.239L39.145.488C38.152.572,37.139.653,36.132.73ZM42.15.222,41.78-3.76c.99-.092,1.985-.189,2.96-.288l.4,3.98C44.159.032,43.151.13,42.15.222Zm6.008-.611-.441-3.976c.986-.109,1.978-.224,2.948-.342l.48,3.971C50.161-.616,49.156-.5,48.158-.389Zm5.991-.724-.52-3.966c.988-.13,1.982-.265,2.954-.4l.562,3.96C56.159-1.382,55.151-1.245,54.149-1.113Zm5.969-.847-.605-3.954c.989-.151,1.983-.31,2.954-.47l.652,3.947C62.132-2.275,61.123-2.114,60.118-1.96ZM66.1-2.948l-.7-3.938c.976-.173,1.956-.354,2.913-.537l.75,3.929C68.089-3.308,67.092-3.125,66.1-2.948Zm5.941-1.135L71.238-8c.976-.2,1.955-.408,2.911-.618l.859,3.907C74.033-4.5,73.035-4.288,72.041-4.084Zm5.916-1.3L77.04-9.279c.964-.227,1.93-.463,2.873-.7L80.892-6.1C79.928-5.858,78.941-5.617,77.957-5.385ZM83.836-6.87l-1.043-3.862c.959-.259,1.921-.528,2.859-.8l1.111,3.843C85.8-7.411,84.818-7.135,83.836-6.87Zm5.836-1.688L88.49-12.38c.946-.293,1.894-.6,2.817-.9l1.256,3.8C91.615-9.17,90.643-8.858,89.672-8.558Zm5.764-1.908L94.1-14.237c.932-.33,1.865-.671,2.773-1.015l1.416,3.741C97.355-11.157,96.395-10.805,95.436-10.466Zm5.694-2.156-1.5-3.708c.916-.371,1.833-.755,2.724-1.141l1.59,3.67C103.022-13.4,102.076-13.005,101.13-12.622Zm5.6-2.427-1.683-3.629c.894-.415,1.788-.844,2.657-1.275l1.779,3.583C108.58-15.923,107.654-15.479,106.728-15.049Zm5.47-2.717L110.319-21.3c.868-.461,1.734-.938,2.576-1.418l1.98,3.476C114-18.742,113.1-18.246,112.2-17.767Zm5.313-3.028-2.084-3.414c.836-.51,1.67-1.038,2.481-1.568l2.19,3.347C119.252-21.877,118.382-21.327,117.51-20.795Zm5.125-3.356-2.3-3.274c.8-.562,1.6-1.142,2.375-1.726l2.405,3.2C124.307-25.344,123.472-24.737,122.635-24.15Zm4.9-3.69-2.512-3.113c.758-.611,1.515-1.244,2.249-1.879l2.617,3.025C129.123-29.142,128.331-28.481,127.538-27.841Zm4.639-4.013-2.719-2.934c.712-.66,1.423-1.342,2.115-2.028l2.817,2.84C133.666-33.257,132.921-32.543,132.176-31.853Zm4.355-4.32-2.911-2.743c.664-.7,1.329-1.434,1.977-2.168l3,2.647C137.92-37.672,137.225-36.91,136.531-36.173Zm4.054-4.592L137.5-43.316c.616-.744,1.236-1.516,1.841-2.293l3.156,2.458C141.872-42.343,141.227-41.54,140.586-40.765Zm3.759-4.824-3.224-2.368c.57-.777,1.147-1.583,1.713-2.4l3.284,2.283C145.533-47.229,144.936-46.394,144.345-45.59Zm3.483-5.005L144.491-52.8c.53-.8,1.069-1.638,1.6-2.485l3.383,2.134C148.928-52.28,148.373-51.42,147.828-50.595Zm3.245-5.139-3.422-2.072c.494-.816,1-1.675,1.517-2.552l3.454,2.018C152.1-57.445,151.578-56.568,151.073-55.734Zm3.058-5.227-3.479-1.974c.469-.826.945-1.676,1.458-2.6l3.5,1.941C155.089-62.659,154.606-61.8,154.131-60.961Zm2.93-5.273-3.51-1.918c.414-.758.869-1.594,1.43-2.629l3.517,1.906C157.934-67.836,157.478-67,157.061-66.234Zm2.866-5.28-3.517-1.905c.394-.727.913-1.684,1.435-2.641l3.512,1.915C160.837-73.193,160.319-72.239,159.927-71.514Zm2.867-5.25-3.5-1.936c.519-.938,1-1.8,1.472-2.635l3.482,1.968C163.783-78.543,163.307-77.692,162.794-76.764Zm2.933-5.185-3.458-2.01c.521-.9,1.04-1.775,1.542-2.609l3.428,2.062C166.747-83.689,166.238-82.829,165.727-81.949Zm3.061-5.083-3.39-2.123c.547-.873,1.1-1.735,1.64-2.561l3.346,2.192C169.857-88.721,169.32-87.883,168.788-87.033Zm3.242-4.944-3.294-2.269c.583-.846,1.175-1.683,1.762-2.49l3.235,2.353C173.166-93.6,172.593-92.794,172.03-91.976Zm3.467-4.763-3.168-2.442c.626-.812,1.266-1.618,1.9-2.4l3.094,2.535C176.714-98.3,176.1-97.52,175.5-96.739Zm3.726-4.546-3.014-2.63c.672-.77,1.362-1.536,2.051-2.275l2.927,2.727C180.527-102.756,179.866-102.023,179.223-101.285Zm4-4.292-2.834-2.823c.72-.723,1.462-1.443,2.2-2.138l2.736,2.918C184.619-106.956,183.91-106.268,183.222-105.577Zm4.276-4.01-2.635-3.01c.765-.67,1.553-1.336,2.341-1.98l2.53,3.1C188.981-110.863,188.229-110.227,187.5-109.587Zm4.538-3.707-2.424-3.182c.807-.615,1.638-1.226,2.471-1.818l2.316,3.261C193.6-114.467,192.808-113.882,192.036-113.294Zm4.785-3.4-2.209-3.335c.843-.559,1.712-1.115,2.582-1.652l2.1,3.4C198.462-117.762,197.629-117.229,196.821-116.694Zm5-3.091-2-3.465c.873-.5,1.772-1,2.671-1.488l1.9,3.522C203.525-120.75,202.661-120.269,201.821-119.785Zm5.18-2.789-1.8-3.574c.9-.451,1.823-.9,2.747-1.334l1.7,3.621C208.76-123.442,207.868-123.009,207-122.574Zm5.337-2.506-1.606-3.663c.918-.4,1.862-.8,2.8-1.189l1.516,3.7C214.141-125.856,213.227-125.469,212.339-125.079Zm5.458-2.237-1.43-3.735c.934-.358,1.893-.713,2.851-1.056l1.348,3.766C219.635-128.009,218.7-127.664,217.8-127.317Zm5.562-1.992-1.27-3.793c.948-.317,1.92-.632,2.891-.936l1.195,3.817C225.229-129.924,224.281-129.618,223.359-129.309Zm5.653-1.77-1.123-3.839c.96-.281,1.945-.559,2.928-.828l1.055,3.858C230.912-131.625,229.95-131.353,229.012-131.079Zm5.725-1.566-.99-3.876c.964-.246,1.952-.49,2.936-.725l.928,3.891C236.647-133.125,235.68-132.886,234.737-132.645Zm5.768-1.376-.869-3.9c.975-.217,1.974-.432,2.97-.638l.813,3.917C242.441-134.445,241.461-134.234,240.5-134.021Zm5.825-1.21-.759-3.927c.975-.189,1.973-.375,2.967-.554l.708,3.937C248.269-135.6,247.288-135.416,246.329-135.231Zm5.854-1.054-.66-3.945c.983-.164,1.988-.326,2.988-.482l.613,3.953C254.14-136.606,253.15-136.447,252.183-136.285Zm5.877-.913-.569-3.959c.987-.142,2-.282,3-.415l.527,3.965C260.028-137.475,259.033-137.337,258.06-137.2Zm5.912-.786-.487-3.97c.985-.121,1.992-.239,2.992-.352l.448,3.975C265.938-138.22,264.944-138.1,263.972-137.984Zm5.936-.669-.411-3.979c.983-.1,1.987-.2,2.985-.295l.376,3.982C271.871-138.851,270.879-138.753,269.908-138.653Zm5.928-.559-.342-3.985c.989-.085,2-.167,3-.245l.309,3.988C277.813-139.377,276.814-139.3,275.835-139.212Zm5.944-.461-.278-3.99c.994-.069,2.009-.136,3.017-.2l.248,3.992C283.768-139.808,282.763-139.742,281.779-139.673Zm5.956-.37-.219-3.994c1-.055,2.016-.107,3.026-.156l.191,4C289.733-140.149,288.724-140.1,287.736-140.043Zm5.965-.286-.165-4c1-.041,2.019-.08,3.032-.115l.139,4C295.7-140.409,294.691-140.37,293.7-140.33Zm5.971-.208-.115-4c1-.029,2.021-.055,3.033-.078l.091,4C301.676-140.592,300.663-140.566,299.671-140.538Zm5.975-.136-.068-4c1-.017,2.02-.031,3.031-.043l.046,4C307.65-140.7,306.638-140.691,305.646-140.674Zm5.978-.069-.024-4c1-.006,2.017-.01,3.027-.01l0,4C313.626-140.752,312.615-140.748,311.623-140.742Z" transform="translate(526.523 2100.339)"/>
    <path id="Path_39123" data-name="Path 39123" d="M0-71.84v-4c1.008,0,2.024,0,3.02,0l.01,4C2.03-71.841,1.011-71.84,0-71.84Zm6.016-.015-.02-4c1.005-.005,2.019-.012,3.012-.019l.031,4C8.042-71.866,7.025-71.86,6.017-71.855ZM12.03-71.9l-.042-4c1-.01,2.016-.022,3.007-.036l.053,4C14.054-71.924,13.038-71.912,12.03-71.9Zm6.012-.08-.065-4c1-.016,2.015-.034,3.005-.054l.077,4C20.065-72.016,19.05-72,18.042-71.981Zm6.01-.117-.09-4c1-.023,2.015-.047,3.006-.073l.1,4C26.076-72.145,25.061-72.121,24.052-72.1Zm6.007-.156-.117-4c1.005-.03,2.018-.061,3.009-.094l.132,4C32.087-72.315,31.07-72.283,30.059-72.253Zm6.01-.2-.147-4c1.005-.037,2.017-.076,3.008-.117l.163,4C38.1-72.528,37.08-72.489,36.07-72.452Zm6.02-.245-.179-4c1-.045,2.007-.092,2.992-.141l.2,4C44.108-72.79,43.1-72.742,42.09-72.7Zm6.017-.3-.215-3.994c.994-.053,1.993-.109,2.971-.166l.233,3.993C50.113-73.1,49.107-73.047,48.107-72.993Zm6.01-.352-.253-3.992c1-.063,2-.129,2.976-.2l.274,3.991C56.128-73.475,55.12-73.408,54.117-73.345Zm6-.412-.3-3.989c1-.074,2.006-.152,2.989-.23l.319,3.987C62.136-73.91,61.123-73.832,60.115-73.757Zm6.006-.481-.344-3.985c1-.086,2-.175,2.972-.266l.369,3.983C68.133-74.415,67.124-74.325,66.12-74.238Zm6.007-.557-.4-3.98c.995-.1,1.993-.2,2.967-.307l.426,3.977C74.14-75,73.132-74.9,72.128-74.8Zm5.982-.64-.456-3.974c1-.114,1.995-.233,2.968-.353l.489,3.97C80.126-75.672,79.116-75.551,78.109-75.436Zm6-.739-.524-3.966c.992-.131,1.986-.267,2.954-.4l.561,3.961C86.12-76.446,85.114-76.308,84.11-76.175Zm5.976-.847-.6-3.955c.987-.15,1.975-.305,2.937-.462l.643,3.948C92.089-77.332,91.086-77.174,90.086-77.022Zm5.955-.97-.688-3.94c.985-.172,1.971-.35,2.929-.53l.737,3.932C98.044-78.348,97.042-78.167,96.04-77.992Zm5.951-1.117-.79-3.921c.979-.2,1.958-.4,2.909-.607l.846,3.909C103.987-79.518,102.99-79.31,101.991-79.109Zm5.922-1.283-.907-3.9c.971-.226,1.94-.46,2.88-.7l.973,3.88C109.9-80.863,108.906-80.623,107.913-80.392Zm5.888-1.479-1.045-3.861c.963-.261,1.923-.531,2.853-.8l1.123,3.839C115.776-82.416,114.79-82.138,113.8-81.871Zm5.845-1.711L118.44-87.4c.946-.3,1.889-.61,2.8-.922l1.3,3.784C121.6-84.211,120.623-83.891,119.646-83.582Zm5.76-1.976-1.394-3.749c.93-.346,1.856-.7,2.751-1.067l1.5,3.709C127.332-86.289,126.372-85.917,125.407-85.558Zm5.671-2.294-1.611-3.661c.9-.4,1.8-.81,2.671-1.226l1.729,3.607C132.958-88.7,132.019-88.267,131.077-87.852ZM136.6-90.5l-1.852-3.545c.868-.453,1.734-.926,2.574-1.4l1.979,3.476C138.424-91.474,137.515-90.979,136.6-90.5Zm5.344-3.043-2.106-3.4c.822-.509,1.649-1.043,2.457-1.585l2.23,3.321C143.681-94.642,142.812-94.081,141.948-93.546Zm5.1-3.422-2.347-3.239c.773-.56,1.562-1.152,2.347-1.761l2.451,3.161C148.679-98.172,147.854-97.554,147.047-96.969Zm4.839-3.746-2.538-3.091c.726-.6,1.467-1.218,2.263-1.9l2.6,3.036C153.4-101.969,152.634-101.329,151.886-100.714Zm4.612-3.947-2.647-3c.735-.649,1.447-1.283,2.235-1.985l2.662,2.986C157.956-105.954,157.24-105.316,156.5-104.661Zm4.486-3.987-2.65-3c.858-.759,1.581-1.392,2.277-1.991l2.612,3.029C162.54-110.018,161.828-109.4,160.983-108.648Zm4.5-3.868-2.549-3.082c.819-.678,1.6-1.3,2.378-1.915l2.465,3.15C167.022-113.775,166.272-113.171,165.481-112.517Zm4.633-3.619-2.363-3.228c.831-.608,1.675-1.2,2.508-1.77l2.247,3.309C171.712-117.284,170.907-116.716,170.114-116.136Zm4.843-3.288-2.124-3.389c.864-.541,1.751-1.075,2.637-1.585l2,3.466C176.624-120.446,175.779-119.939,174.957-119.424Zm5.07-2.922-1.87-3.536c.892-.472,1.813-.938,2.736-1.386l1.746,3.6C181.757-123.242,180.879-122.8,180.027-122.346Zm5.276-2.562-1.627-3.654c.915-.408,1.861-.811,2.811-1.2l1.515,3.7C187.09-125.687,186.182-125.3,185.3-124.908Zm5.439-2.227-1.409-3.744c.936-.352,1.9-.7,2.875-1.038l1.31,3.779C192.58-127.813,191.646-127.476,190.742-127.135Zm5.57-1.933-1.219-3.81c.948-.3,1.927-.6,2.908-.895l1.134,3.836C198.183-129.655,197.233-129.363,196.312-129.069Zm5.672-1.679-1.056-3.858c.96-.263,1.949-.523,2.94-.775l.984,3.877C203.885-131.258,202.92-131,201.984-130.748Zm5.751-1.46-.917-3.894c.966-.227,1.962-.453,2.958-.671l.855,3.908C209.656-132.652,208.682-132.431,207.735-132.208Zm5.8-1.27-.8-3.92c.971-.2,1.97-.394,2.968-.583l.744,3.93C215.472-133.865,214.491-133.672,213.538-133.478Zm5.838-1.107-.695-3.939c.975-.172,1.976-.342,2.976-.507l.649,3.947C221.321-134.922,220.336-134.754,219.376-134.585Zm5.869-.966-.606-3.954c.979-.15,1.984-.3,2.987-.442l.566,3.96C227.2-135.846,226.21-135.7,225.245-135.551Zm5.9-.845-.529-3.965c.985-.131,1.995-.261,3-.387l.494,3.969C233.119-136.654,232.121-136.525,231.148-136.4Zm5.923-.737-.461-3.973c.981-.114,1.987-.226,2.989-.335l.43,3.977C239.037-137.357,238.042-137.245,237.071-137.133Zm5.929-.641-.4-3.98c.99-.1,2-.2,3.014-.293l.373,3.983C244.985-137.971,243.981-137.873,243-137.774Zm5.947-.558-.347-3.985c.986-.086,1.994-.171,3-.252l.323,3.987C250.925-138.5,249.925-138.417,248.947-138.332Zm5.967-.483-.3-3.989c.984-.074,1.99-.146,2.991-.216l.277,3.99C256.89-138.96,255.891-138.888,254.915-138.815Zm5.95-.414-.256-3.992c.993-.064,2.009-.126,3.02-.186l.236,3.993C262.861-139.354,261.852-139.292,260.865-139.229Zm5.968-.353-.217-3.994c.992-.054,2.006-.107,3.014-.157l.2,4C268.827-139.688,267.819-139.635,266.833-139.582Zm5.979-.3-.182-4c.989-.045,2-.089,3-.13l.165,4C274.8-139.968,273.8-139.925,272.812-139.88Zm5.986-.247-.149-4c.986-.037,1.993-.072,2.993-.106l.134,4C280.78-140.2,279.778-140.164,278.8-140.127Zm5.989-.2-.119-4c.984-.029,1.988-.058,2.985-.084l.106,4C286.765-140.386,285.765-140.357,284.786-140.328Zm5.983-.158-.092-4c.984-.023,1.988-.044,2.985-.064l.079,4C292.75-140.53,291.75-140.509,290.77-140.486Zm5.984-.119-.067-4c.985-.016,1.99-.032,2.987-.045l.055,4C298.736-140.636,297.735-140.621,296.754-140.6Zm5.989-.082-.043-4c.984-.011,1.989-.02,2.985-.028l.032,4C304.724-140.707,303.724-140.7,302.743-140.687Zm5.993-.049-.022-4c.983-.005,1.986-.009,2.981-.012l.011,4C310.715-140.745,309.715-140.741,308.735-140.736Zm5.984-.017v-4h.438v4Z" transform="translate(526.523 2178.202)"/>
    <path id="Path_37735" data-name="Path 37735" d="M0,14.091a2,2,0,0,1-1.738-1.007,2,2,0,0,1,.743-2.729L6.538,6.045-.993,1.736A2,2,0,0,1-1.736-.993,2,2,0,0,1,.993-1.736L9.935,3.381a3.089,3.089,0,0,1,1.641,2.664A3.09,3.09,0,0,1,9.934,8.71L.993,13.827A1.991,1.991,0,0,1,0,14.091Z" transform="translate(833.424 1876.499)"/>
    <path id="Line_53" data-name="Line 53" d="M1.5,68.661h-3v-3h3Zm0-6h-3v-3h3Zm0-6h-3v-3h3Zm0-6h-3v-3h3Zm0-6h-3v-3h3Zm0-6h-3v-3h3Zm0-6h-3v-3h3Zm0-6h-3v-3h3Zm0-6h-3v-3h3Zm0-6h-3v-3h3Zm0-6h-3v-3h3Zm0-6h-3V0h3Z" transform="translate(364.478 2002.632)"/>
    <path id="Path_39124" data-name="Path 39124" d="M0,13.091a1,1,0,0,1-.869-.5A1,1,0,0,1-.5,11.223L8.445,6.106a.645.645,0,0,0,.089-.061.641.641,0,0,0-.089-.06L-.5.868A1,1,0,0,1-.868-.5,1,1,0,0,1,.5-.868L9.439,4.249a2.077,2.077,0,0,1,1.137,1.8,2.077,2.077,0,0,1-1.138,1.8L.5,12.959A1,1,0,0,1,0,13.091Z" transform="translate(370.523 2062.559) rotate(90)"/>
  </g>
</svg>
