<svg xmlns="http://www.w3.org/2000/svg" width="588.802" height="588.43" viewBox="0 0 588.802 588.43">
  <g id="Group_37622" data-name="Group 37622" transform="translate(-1244.102 -3561.646)">
    <g id="Group_37378" data-name="Group 37378" transform="translate(1228.25 319.408)">
      <g id="Group_37375" data-name="Group 37375" transform="translate(135 3243.238)">
        <path id="Path_38194" data-name="Path 38194" d="M1358.6,383.984c-40.148,86.669-189.931,78.914-248.228,42.4-3.229-2.032-6.4-4.134-9.465-6.334l-.015-.015c-19.294-13.863-34.427-31.808-34.427-59.969,0-32.659,22.551-59.121,50.366-59.121,13.238,0,25.292,6,34.244,15.8a84.9,84.9,0,0,1,2.269-11.107c8.407-30.905,33.061-53.289,62.182-53.289,27.229,0,50.575,19.6,60.373,47.44a82.066,82.066,0,0,1,2.868,10.078,66.162,66.162,0,0,1,18.665-11.192c.139-.056.294-.111.431-.167,14.365-5.471,29.914-5.219,43.279,2.062C1367.932,315.189,1373.666,351.466,1358.6,383.984Z" transform="translate(-918.497 -251.661)" fill="#fff"/>
        <path id="Path_38196" data-name="Path 38196" d="M1217.546,451.335a267.682,267.682,0,0,1-31.046-1.812c-30.852-3.6-59.338-12.429-78.15-24.211-21.871-13.708-44.229-32.374-44.229-66.9,0-32.981,22.9-59.81,51.054-59.81,12.527,0,24.463,5.3,33.767,14.972,2.669-17.373,10.412-33.254,21.9-44.853C1182.79,256.647,1198.073,250,1213.872,250c26.829,0,50.782,18.8,61.024,47.9a83.769,83.769,0,0,1,2.642,9.055,66.111,66.111,0,0,1,18.425-10.752c15.183-5.782,30.759-5.035,43.853,2.1,12.905,7.043,21.7,19.64,24.768,35.468,2.968,15.32.478,32.664-7.016,48.841-13.16,28.407-39.54,49.193-76.292,60.109C1262.117,448.414,1240.2,451.335,1217.546,451.335ZM1115.174,299.979c-27.389,0-49.674,26.211-49.674,58.429,0,33.855,22.03,52.225,43.582,65.73,36.354,22.768,110.557,35.45,171.8,17.256,36.361-10.8,62.443-31.327,75.43-59.365l.627.29-.627-.29c15.672-33.834,8.453-68.536-17.16-82.514-12.734-6.94-27.9-7.656-42.7-2.02a64.958,64.958,0,0,0-18.9,11.242l-.877.742-.243-1.123a81.766,81.766,0,0,0-2.844-9.993c-10.046-28.542-33.489-46.982-59.722-46.982-31.888,0-58.706,26.832-63.767,63.8l-.2,1.46-.993-1.088C1139.734,305.509,1127.756,299.979,1115.174,299.979Z" transform="translate(-916.836 -250)" stroke="#000" stroke-width="2"/>
        <path id="Path_38197" data-name="Path 38197" d="M1447.544,791.268c-21.856,0-39.98-3.73-55.913-11.386a3.254,3.254,0,1,1,2.817-5.867c20.264,9.738,44.5,12.746,76.281,9.471,13.239-2.214,22.807-5.216,30.1-9.445a3.255,3.255,0,0,1,3.263,5.633c-8.013,4.645-18.309,7.9-32.4,10.251-.068.012-.131.021-.2.026A233.726,233.726,0,0,1,1447.544,791.268Z" transform="translate(-1147.01 -620.074)"/>
        <path id="Path_38199" data-name="Path 38199" d="M1482.35,488.616l-1.323-.4.07-.238c.152-.507.305-1.009.437-1.507a69.8,69.8,0,0,0-.5-38.277l1.3-.466a71.281,71.281,0,0,1,.531,39.1c-.133.5-.287,1.02-.449,1.548Zm-113.24-6.331c-.27-.876-.557-1.721-.841-2.548h0l-.164-.46c-5.988-16.989-14.447-23.827-14.532-23.894l.856-1.085c.354.279,8.693,7,14.817,24.059h.2l.012.583.05.15c.31.9.627,1.83.923,2.792Z" transform="translate(-1121.414 -389.752)" stroke="#000" stroke-width="2"/>
        <path id="Path_38200" data-name="Path 38200" d="M1525.987,588.779h8.524a4.824,4.824,0,0,0,4.824-4.823V560.583a2.21,2.21,0,0,1,2.211-2.211h7.251a4.824,4.824,0,0,0,3.9-7.656l-18.532-25.533a4.821,4.821,0,0,0-7.8,0l-18.54,25.533a4.823,4.823,0,0,0,3.9,7.656h7.23a2.21,2.21,0,0,1,2.211,2.211v23.372A4.818,4.818,0,0,0,1525.987,588.779Z" transform="translate(-1229.782 -443.088)" fill="#ed85c0"/>
        <path id="Path_38201" data-name="Path 38201" d="M955.72,2061.13l8.272,42.2a11.581,11.581,0,0,0,12.077,9.3,11.124,11.124,0,0,0,1.56-.2l44.713-8.931a9.914,9.914,0,0,0,7.746-11.743,21.652,21.652,0,0,0-25.442-16.844L989.168,2078l-2.624-8.51L983,2055.68Z" transform="translate(-840.22 -1526.224)" fill="#c16cf9" stroke="#000" stroke-width="2"/>
        <path id="Path_38204" data-name="Path 38204" d="M1030.063,2093.881c.146.513-.109-2.621,0-2.091.038.185.07.367.166,1.115.707,4.623-2.712,9.583-7.918,10.624l-44.713,8.928a11.587,11.587,0,0,1-13.638-9.1l1.054,3.316Zm-72.179-20.949-2.193-11.766,27.278-5.447,2.868,11.629C976.554,2072.658,967.236,2074.492,957.885,2072.932Zm31.055,9.209A3.117,3.117,0,0,0,992.8,2080l.836-2.944a3.135,3.135,0,0,0-2.149-3.869,3.107,3.107,0,0,0-3.864,2.158l-.836,2.944A3.125,3.125,0,0,0,988.94,2082.141Zm8.884-.769a3.118,3.118,0,0,0,3.856-2.146l.836-2.944a3.134,3.134,0,0,0-2.149-3.867,3.106,3.106,0,0,0-3.865,2.157l-.836,2.944A3.123,3.123,0,0,0,997.824,2081.373Zm8.885-.768a3.119,3.119,0,0,0,3.856-2.146l.836-2.945a3.133,3.133,0,0,0-2.15-3.867,3.105,3.105,0,0,0-3.865,2.157l-.836,2.945A3.123,3.123,0,0,0,1006.709,2080.6Z" transform="translate(-840.193 -1526.252)"/>
        <path id="Path_38205" data-name="Path 38205" d="M658.831,1940.84l-32.137,28.574a11.579,11.579,0,0,0-1.868,15.126,10.666,10.666,0,0,0,.965,1.241l30.415,33.97a9.914,9.914,0,0,0,14.051.7,21.654,21.654,0,0,0,1.575-30.469l-10.529-11.76,5.993-6.583,10.1-10.075Z" transform="translate(-604.942 -1445.057)" fill="#ad61df" stroke="#000" stroke-width="2"/>
        <path id="Path_38208" data-name="Path 38208" d="M669.02,2022.577c-.367.387,1.616-2.473,1.215-2.11a9.922,9.922,0,0,1-14.048-.709l-30.415-33.97a11.588,11.588,0,0,1,.9-16.367l-2.344,3.245Zm-19.228-73.857,9.016-7.87,18.557,20.723-8.559,8.382C659.515,1964.662,653.2,1957.569,649.792,1948.72Z" transform="translate(-604.928 -1445.064)"/>
        <g id="Group_37146" data-name="Group 37146" transform="translate(52.612 530.385)">
          <path id="Path_38209" data-name="Path 38209" d="M741.351,2063.548a3.125,3.125,0,0,0,3.809,2.231l2.961-.777a3.137,3.137,0,0,0,2.24-3.817,3.113,3.113,0,0,0-3.827-2.232l-2.959.774A3.128,3.128,0,0,0,741.351,2063.548Z" transform="translate(-741.248 -2058.851)"/>
        </g>
        <g id="Group_37147" data-name="Group 37147" transform="translate(57.789 537.648)">
          <path id="Path_38210" data-name="Path 38210" d="M759,2088.314a3.123,3.123,0,0,0,3.809,2.231l2.961-.776a3.136,3.136,0,0,0,2.24-3.815,3.111,3.111,0,0,0-3.826-2.232l-2.959.773A3.131,3.131,0,0,0,759,2088.314Z" transform="translate(-758.902 -2083.62)"/>
        </g>
        <g id="Group_37149" data-name="Group 37149" transform="translate(55.322 352.414)">
          <path id="Path_38212" data-name="Path 38212" d="M750.49,1451.89s52.025,179.57,54.553,188.236c2.029,6.955,43.722-5.283,44.437-14.068.63-7.715-44.879-165.1-44.879-165.1Z" transform="translate(-750.49 -1451.89)" fill="#80d4ec" stroke="#000" stroke-width="2"/>
        </g>
        <g id="Group_37151" data-name="Group 37151" transform="translate(32.984 289.792)">
          <path id="Path_38214" data-name="Path 38214" d="M801.284,1371.657c.018,28.439-77.509,98.474-77.509,98.474-10.8,2.551-37.261-22.451-35.5-30.469,0,0,63.513-68.023,64.235-70.565.284-.988-42.308-32.828-66.827-60.376a45.451,45.451,0,0,1-7.158-49.231l.792-1.719a33.153,33.153,0,0,1,24.058-18.944,33.659,33.659,0,0,1,5.809-.507,33.166,33.166,0,0,1,28.386,50.272l-3.393,5.635S801.276,1341.757,801.284,1371.657Z" transform="translate(-674.306 -1238.32)" fill="#80d4ec" stroke="#000" stroke-width="2"/>
        </g>
        <g id="Group_37154" data-name="Group 37154" transform="translate(36.078 305.5)">
          <path id="Path_38217" data-name="Path 38217" d="M685.332,1334.283l-.472-1.3,16.7-6.09,3.524-33.606-16.819.188-.018-1.381h.009l18.364-.208-3.776,36.01Z" transform="translate(-684.86 -1291.89)" stroke="#000" stroke-width="1"/>
        </g>
        <g id="Group_37155" data-name="Group 37155" transform="translate(35.457 314.369)">
          <path id="Path_38218" data-name="Path 38218" d="M682.755,1323.761l-.015-1.381,20.681-.241.059.689v.693h-.05Z" transform="translate(-682.74 -1322.14)"/>
        </g>
        <g id="Group_37156" data-name="Group 37156" transform="translate(89.057 303.612)">
          <path id="Path_38219" data-name="Path 38219" d="M872.457,1322.6l-3.137-1.143-3.78-36.007,6.266.067-.015,1.384-4.715-.053,3.527,33.605,2.325.848Z" transform="translate(-865.54 -1285.45)"/>
        </g>
        <g id="Group_37157" data-name="Group 37157" transform="translate(90.702 312.478)">
          <path id="Path_38220" data-name="Path 38220" d="M879.993,1317.174l-8.8-.1-.044-1.381h.053l8.805.1Z" transform="translate(-871.15 -1315.69)"/>
        </g>
        <path id="Path_38221" data-name="Path 38221" d="M1252.25,1182.13s17.493,5.114,21.73,6.172,10.791-.067,11.638,3.27-6.254,3.4-6.254,3.4,12.323,2.822,12.728,6.006-6.243,2.009-6.243,2.009,6.366,2.345,5.167,5.017-5.242,1.132-5.242,1.132,3.967,2.68,2.525,4.635-8.539.094-8.539.094,3.657,3.029-1.2,4.516-27.416-8.45-32.14-11.468Z" transform="translate(-1045.683 -908.814)" fill="#fff"/>
        <path id="Path_38222" data-name="Path 38222" d="M1275.686,1217.545c-7.14,0-27.281-9.151-31.3-11.719a.692.692,0,0,1-.3-.742l5.826-24.783a.7.7,0,0,1,.325-.44.689.689,0,0,1,.542-.067c.176.049,17.529,5.122,21.7,6.163a27.267,27.267,0,0,0,4.478.548c3.424.238,6.966.484,7.661,3.22a2.485,2.485,0,0,1-.423,2.2,5.35,5.35,0,0,1-2.9,1.6c3.921,1.143,9.495,3.193,9.814,5.694a2.24,2.24,0,0,1-.66,1.979,4.793,4.793,0,0,1-2.929.994,6.208,6.208,0,0,1,2.466,2.492,2.37,2.37,0,0,1-.01,1.93,3.558,3.558,0,0,1-3.547,1.976,4.629,4.629,0,0,1,1.17,2.144,2.278,2.278,0,0,1-.413,1.776c-1.2,1.63-4.959,1.234-7.369.777a2.6,2.6,0,0,1,.243,1.636c-.216,1.088-1.217,1.912-2.964,2.446A4.877,4.877,0,0,1,1275.686,1217.545Zm-30.141-12.628c5.472,3.266,26.7,12.493,31.152,11.133,1.19-.363,1.906-.859,2.015-1.392.146-.73-.733-1.66-1.056-1.93a.691.691,0,0,1,.619-1.2c2.68.7,7.014,1.24,7.805.164a.893.893,0,0,0,.164-.722c-.2-1.136-1.885-2.5-2.519-2.935a.69.69,0,0,1,.63-1.217c.036.012,3.449,1.273,4.37-.768a.975.975,0,0,0-.006-.827c-.61-1.453-3.651-2.844-4.771-3.258a.692.692,0,0,1,.361-1.331c1.548.272,4.325.392,5.2-.436a.843.843,0,0,0,.241-.8c-.238-1.865-7.275-4.293-12.2-5.422a.691.691,0,0,1,.146-1.364c1.652-.017,4.581-.445,5.413-1.531a1.1,1.1,0,0,0,.176-1.011c-.449-1.765-3.348-1.967-6.418-2.181a28.376,28.376,0,0,1-4.718-.587c-3.718-.929-17.751-5.01-21.058-5.975Z" transform="translate(-1044.021 -907.143)"/>
        <path id="Path_38223" data-name="Path 38223" d="M1329.168,1219.481s-5.316-1.789-6.655-2.26a.692.692,0,1,1,.461-1.305c1.334.469,6.635,2.252,6.638,2.252Zm6.709,8.051a.631.631,0,0,1-.2-.03c-.507-.149-12.427-3.7-15.206-5.383a.691.691,0,1,1,.718-1.182c2.627,1.592,14.761,5.2,14.884,5.24a.691.691,0,0,1,.466.86A.7.7,0,0,1,1335.877,1227.532Zm-.075,6.147a.655.655,0,0,1-.2-.03c-1.44-.428-14.133-4.225-16.088-5.771a.691.691,0,1,1,.856-1.084c1.325,1.047,10.069,3.879,15.626,5.53a.692.692,0,0,1-.2,1.355Zm-6.014,4.732a.737.737,0,0,1-.235-.042c-.422-.152-10.362-3.735-12.034-4.8a.69.69,0,1,1,.742-1.164c1.282.818,8.926,3.648,11.76,4.668a.691.691,0,0,1-.234,1.341Z" transform="translate(-1095.709 -932.665)"/>
        <path id="Path_38224" data-name="Path 38224" d="M860.318,962.77s18.986,24.789,65.42,45.792c31.1,14.069,51.4,12.177,51.4,12.177,5.366,6.636-12.213,36.729-16.5,34.688,0,0-83.086-24.352-104.438-56.9C837.192,969.561,860.318,962.77,860.318,962.77Z" transform="translate(-764.582 -753.774)" fill="#ed85c0" stroke="#000" stroke-width="2"/>
        <path id="Path_38225" data-name="Path 38225" d="M658.383,999.884a44.225,44.225,0,0,0,61.784-9.762,43.157,43.157,0,0,0,3.659-5.964,44.231,44.231,0,1,0-65.443,15.725Z" transform="translate(-617.194 -723.462)" fill="#ed85c0" stroke="#000" stroke-width="2"/>
        <path id="Path_38226" data-name="Path 38226" d="M924.622,1074.375l-1.232-.627a43.156,43.156,0,0,0,4.2-26.454l1.367-.214A44.55,44.55,0,0,1,924.622,1074.375Z" transform="translate(-817.371 -813.363)"/>
        <path id="Path_38227" data-name="Path 38227" d="M745.9,719.789c2.42,21.341-10.138,42.134-30.942,44.421s-41.976-14.794-44.4-36.138,12.485-40.5,33.29-42.787S743.484,698.445,745.9,719.789Z" transform="translate(-653.847 -575.911)" fill="#fff" stroke="#000" stroke-width="2"/>
        <path id="Path_38228" data-name="Path 38228" d="M709.7,763.773c-19.968,0-39.193-16.754-41.5-37.1a39.815,39.815,0,0,1,8.424-29.558,37.9,37.9,0,0,1,25.616-14.171c21.243-2.337,40.526,13.478,42.993,35.254,1.359,11.978-1.87,23.863-8.855,32.605A33.472,33.472,0,0,1,713.54,763.57,36.607,36.607,0,0,1,709.7,763.773Zm-3.293-79.348a36.815,36.815,0,0,0-3.975.218,36.225,36.225,0,0,0-24.471,13.54,38.113,38.113,0,0,0-8.062,28.3c2.352,20.761,23.062,37.627,43.454,35.384a31.769,31.769,0,0,0,21.692-12.131c6.706-8.391,9.8-19.815,8.493-31.344C741.337,698.918,725.095,684.425,706.409,684.425Z" transform="translate(-652.335 -574.418)"/>
        <path id="Path_38229" data-name="Path 38229" d="M637.79,808.485A11.837,11.837,0,0,0,661.4,806.96a10.941,10.941,0,0,0-.913-3.718,11.994,11.994,0,0,0-21.787.127A10.869,10.869,0,0,0,637.79,808.485Z" transform="translate(-633.097 -646.864)" fill="#fff" stroke="#000" stroke-width="2"/>
        <path id="Path_38230" data-name="Path 38230" d="M648.023,818.481a12.785,12.785,0,0,1-8.3-3.025,11.991,11.991,0,0,1-4.283-8.424,11.791,11.791,0,0,1,.982-5.522,12.847,12.847,0,0,1,23.348-.12.853.853,0,1,1-1.565.681,10.937,10.937,0,0,0-10.79-6.377,11.061,11.061,0,0,0-9.432,6.5,10.046,10.046,0,0,0-.844,4.725,10.288,10.288,0,0,0,3.682,7.228,11.126,11.126,0,0,0,7.953,2.6,11.249,11.249,0,0,0,6.8-2.855.854.854,0,0,1,1.145,1.268,12.971,12.971,0,0,1-7.84,3.294C648.6,818.47,648.31,818.481,648.023,818.481Z" transform="translate(-631.594 -645.356)"/>
        <path id="Path_38231" data-name="Path 38231" d="M641.451,704.133s7.569,1.79,11.627,7.967c0,0,25.5-4.558,29.1-25.258s-16-39.547-35.453-33.438-9.511,25.493-9.511,25.493-11.609,1.544-11.841,13.467,7.543,15.6,7.543,15.6A11.146,11.146,0,0,1,641.451,704.133Z" transform="translate(-625.188 -554.98)"/>
        <ellipse id="Ellipse_19" data-name="Ellipse 19" cx="29.229" cy="28.192" rx="29.229" ry="28.192" transform="translate(34.955 79.088) rotate(-3.714)"/>
        <ellipse id="Ellipse_20" data-name="Ellipse 20" cx="2.728" cy="3.656" rx="2.728" ry="3.656" transform="translate(60.085 147.604) rotate(-10.549)"/>
        <path id="Path_38232" data-name="Path 38232" d="M786.709,778.791a.833.833,0,0,1-.322-.065.854.854,0,0,1-.467-1.112,5.568,5.568,0,0,1,3.272-3.138,5.093,5.093,0,0,1,4.018.116.853.853,0,1,1-.779,1.518,3.427,3.427,0,0,0-2.645-.032,3.879,3.879,0,0,0-2.283,2.185A.867.867,0,0,1,786.709,778.791Z" transform="translate(-727.529 -632.704)" stroke="#000" stroke-width="0.5"/>
        <ellipse id="Ellipse_21" data-name="Ellipse 21" cx="2.728" cy="3.656" rx="2.728" ry="3.656" transform="translate(79.539 140.311) rotate(-10.549)"/>
        <path id="Path_38233" data-name="Path 38233" d="M803.805,758.655a.839.839,0,0,1-.322-.065.857.857,0,0,1-.467-1.116,5.568,5.568,0,0,1,3.271-3.138,5.092,5.092,0,0,1,4.018.116.853.853,0,1,1-.779,1.518,3.426,3.426,0,0,0-2.645-.032,3.882,3.882,0,0,0-2.283,2.185A.863.863,0,0,1,803.805,758.655Zm-5.351,27.573a.855.855,0,0,1-.257-1.67c3.177-1.008,8.391-3.38,8.844-5.46.072-.334.076-.859-.732-1.587-4.888-4.417-9.214-16.884-9.4-17.413a.853.853,0,1,1,1.613-.558c.043.127,4.366,12.58,8.927,16.7a3.262,3.262,0,0,1,1.254,3.217c-.812,3.721-9.062,6.428-10,6.725A.725.725,0,0,1,798.454,786.228ZM787.82,795.18a12.029,12.029,0,0,1-5.17-1.3.854.854,0,1,1,.732-1.543c5.724,2.721,8.5-.373,8.525-.406a.853.853,0,1,1,1.29,1.116A7.233,7.233,0,0,1,787.82,795.18Z" transform="translate(-725.173 -619.861)" stroke="#000" stroke-width="1"/>
        <g id="Group_37165" data-name="Group 37165" transform="translate(147.364 260.107)">
          <path id="Path_38240" data-name="Path 38240" d="M1238.614,1168.607l-.818,4.92-15.772,94.718c-.979,5.865-5.626,9.333-10.805,8.072l-137.365-33.406c-6.093-1.481-10.423-8.821-9.277-15.7l13.62-81.8c.979-5.865,5.627-9.333,10.805-8.073l72.318,17.588,7.026-10.884a8.315,8.315,0,0,1,9.18-3.736l51.812,12.6C1235.426,1154.392,1239.76,1161.729,1238.614,1168.607Z" transform="translate(-1064.391 -1137.08)"/>
        </g>
        <g id="Group_37166" data-name="Group 37166" transform="translate(146.67 259.42)">
          <path id="Path_38241" data-name="Path 38241" d="M1211.633,1275.611a9.465,9.465,0,0,1-2.255-.276l-137.366-33.406c-6.421-1.563-11-9.266-9.8-16.485l13.62-81.8a10.845,10.845,0,0,1,4.53-7.454,8.953,8.953,0,0,1,7.122-1.178l71.841,17.472,6.762-10.474a9.023,9.023,0,0,1,9.925-4.031l51.812,12.6c6.421,1.563,11,9.265,9.8,16.484l-16.59,99.641a10.849,10.849,0,0,1-4.53,7.454A8.784,8.784,0,0,1,1211.633,1275.611Zm-126.429-139.5a7.323,7.323,0,0,0-4.079,1.228,9.479,9.479,0,0,0-3.926,6.527l-13.62,81.8c-1.091,6.545,3,13.514,8.762,14.913l137.365,33.407a7.486,7.486,0,0,0,6.034-.989,9.481,9.481,0,0,0,3.926-6.527l16.59-99.641c1.091-6.544-3-13.515-8.761-14.913l-51.812-12.6a7.677,7.677,0,0,0-8.439,3.439l-7.293,11.3-72.8-17.7A8.376,8.376,0,0,0,1085.2,1136.115Z" transform="translate(-1062.025 -1134.736)"/>
        </g>
        <g id="Group_37168" data-name="Group 37168" transform="translate(308.745 215.194)">
          <path id="Path_38242" data-name="Path 38242" d="M1684.017,1008.73s-20.829.877-30.758-6.149a50.323,50.323,0,0,1-14.64-16.311s-17.484,22.27-16.147,39.722c.179,2.339.449,4.55.831,7.189,1.875,13.018,5.17,21.878-6.183,30.2l50.513,14.977s8.606-12.763,6.327-22.117-5.055-20.276-1.223-29.662S1684.017,1008.73,1684.017,1008.73Z" transform="translate(-1616.432 -985.577)" fill="#fff" stroke="#000" stroke-width="0.5"/>
          <path id="Path_38243" data-name="Path 38243" d="M1665.979,1077.375a.648.648,0,0,1-.2-.029l-50.513-14.977a.691.691,0,0,1-.21-1.22c9.571-7.014,8.392-14.224,6.6-25.135-.566-3.448-1.205-7.357-1.533-11.637-1.344-17.52,15.572-39.285,16.291-40.2a.69.69,0,0,1,1.158.114A50.044,50.044,0,0,0,1652,1000.347c9.621,6.805,30.125,6.029,30.33,6.022a.691.691,0,0,1,.546,1.147c-.073.085-7.41,8.483-11.154,17.648-3.68,9.008-1.126,19.482,1.126,28.724l.125.516c2.326,9.541-6.068,22.135-6.427,22.668A.682.682,0,0,1,1665.979,1077.375Zm-49.014-15.942,48.715,14.444c1.431-2.267,7.909-13.131,5.959-21.144l-.126-.516c-2.3-9.445-4.911-20.15-1.064-29.571,3-7.342,8.233-14.183,10.406-16.854-5.054.055-21.107-.267-29.65-6.31a51.5,51.5,0,0,1-14.332-15.608c-3.111,4.2-16.522,23.3-15.367,38.4.321,4.222.959,8.1,1.518,11.52C1624.762,1046.391,1626.034,1054.161,1616.965,1061.432Z" transform="translate(-1614.776 -983.909)" stroke="#000" stroke-width="0.5"/>
          <path id="Path_38244" data-name="Path 38244" d="M1702.416,1110.93a.68.68,0,0,1-.107-.009c-.168-.026-16.831-2.627-25.284-4.134a.691.691,0,1,1,.241-1.36c8.441,1.5,25.09,4.1,25.257,4.129a.691.691,0,0,1-.107,1.375Zm2.774-13.93a.629.629,0,0,1-.108-.009c-.2-.031-20.146-3.143-30.269-4.946a.691.691,0,0,1,.241-1.36c10.107,1.8,30.04,4.911,30.24,4.944a.69.69,0,0,1-.1,1.372Zm-6.8,24.486a.728.728,0,0,1-.144-.015c-.138-.03-13.94-2.929-20.358-2.5a.7.7,0,0,1-.735-.642.691.691,0,0,1,.644-.736c6.618-.44,20.164,2.407,20.736,2.528a.69.69,0,0,1-.143,1.366Z" transform="translate(-1656.805 -1059.368)" stroke="#000" stroke-width="0.5"/>
          <g id="Group_37167" data-name="Group 37167" transform="translate(21.797 68.781)">
            <path id="Path_38245" data-name="Path 38245" d="M1710.354,1222.423a.76.76,0,0,1-.144-.015c-.138-.029-13.933-2.927-20.358-2.5a.69.69,0,1,1-.091-1.377c6.617-.44,20.161,2.407,20.736,2.527a.691.691,0,0,1-.143,1.367Z" transform="translate(-1689.114 -1218.483)" stroke="#000" stroke-width="0.5"/>
          </g>
        </g>
        <g id="Group_37170" data-name="Group 37170" transform="translate(222.723 261.368)">
          <path id="Path_38246" data-name="Path 38246" d="M1376.885,1153.568s-18.622,5.588-29.213,1.531a46.889,46.889,0,0,1-16.986-11.368s-10.67,24.153-5.442,39.617,13.409,23.32,3.777,35.016l49.1,1.9s4.838-13.518.624-21.446-9.238-17.16-7.936-26.524S1376.885,1153.568,1376.885,1153.568Z" transform="translate(-1323.098 -1143.042)" fill="#fff" stroke="#000" stroke-width="0.5"/>
          <path id="Path_38247" data-name="Path 38247" d="M1376.424,1219.3h-.026l-49.1-1.9a.691.691,0,0,1-.507-1.129c7.017-8.521,4.292-14.754.17-24.187-1.3-2.987-2.786-6.371-4.067-10.168-5.254-15.542,5.026-39.121,5.466-40.118a.689.689,0,0,1,1.152-.177,46.631,46.631,0,0,0,16.717,11.177c10.253,3.929,28.582-1.49,28.768-1.546a.691.691,0,0,1,.815.977c-.047.094-4.738,9.368-6.011,18.5-1.249,8.972,3.469,17.841,7.63,25.668l.231.439c4.308,8.1-.381,21.44-.583,22A.706.706,0,0,1,1376.424,1219.3Zm-47.718-3.228,47.228,1.826c.789-2.442,4.09-13.664.5-20.41l-.231-.44c-4.26-8.011-9.089-17.092-7.779-26.507a67.926,67.926,0,0,1,5.486-17.552c-4.662,1.238-19.121,4.574-28.182,1.1a48.085,48.085,0,0,1-16.514-10.764c-1.885,4.639-9.509,24.847-5.014,38.144,1.264,3.739,2.73,7.1,4.026,10.057C1332.233,1200.694,1335.174,1207.417,1328.706,1216.067Z" transform="translate(-1321.402 -1141.383)" stroke="#000" stroke-width="0.5"/>
          <path id="Path_38248" data-name="Path 38248" d="M1376.084,1281.1a.69.69,0,0,1-.049-1.378c7.975-.586,23.615-2.074,23.774-2.088a.691.691,0,1,1,.131,1.375c-.158.015-15.813,1.5-23.8,2.09Zm3.437,10.84a.689.689,0,0,1-.215-1.345c5.882-1.927,18.789-2.471,19.334-2.5a.676.676,0,0,1,.719.662.692.692,0,0,1-.662.719c-.133.006-13.263.561-18.963,2.428A.772.772,0,0,1,1379.521,1291.937Z" transform="translate(-1359.562 -1237.678)" stroke="#000" stroke-width="0.5"/>
          <g id="Group_37169" data-name="Group 37169" transform="translate(23.023 59.662)">
            <path id="Path_38249" data-name="Path 38249" d="M1400.612,1348.7a.689.689,0,0,1-.214-1.345c5.881-1.927,18.789-2.472,19.334-2.5a.682.682,0,0,1,.718.662.692.692,0,0,1-.663.719c-.131.006-13.262.56-18.962,2.427A.751.751,0,0,1,1400.612,1348.7Z" transform="translate(-1399.921 -1344.859)" stroke="#000" stroke-width="0.5"/>
          </g>
        </g>
        <g id="Group_37171" data-name="Group 37171" transform="translate(149.47 276.52)">
          <path id="Path_38250" data-name="Path 38250" d="M1257.989,1225.4l-1.533,4.149-29.524,79.878a10.451,10.451,0,0,1-12.3,6.462l-137.366-33.405a10.41,10.41,0,0,1-7.4-13.673l25.5-68.983a10.452,10.452,0,0,1,12.3-6.463l72.318,17.588,8.785-8.991a10.519,10.519,0,0,1,10.013-2.835l51.811,12.6A10.408,10.408,0,0,1,1257.989,1225.4Z" transform="translate(-1069.224 -1193.06)" fill="#fea300" stroke="#000" stroke-width="2"/>
        </g>
        <g id="Group_37172" data-name="Group 37172" transform="translate(148.094 275.828)">
          <path id="Path_38251" data-name="Path 38251" d="M1215.492,1315.208a11.349,11.349,0,0,1-2.677-.322l-137.366-33.406a11.24,11.24,0,0,1-7.271-5.63,10.977,10.977,0,0,1-.616-8.957l25.495-68.983a11.145,11.145,0,0,1,13.113-6.894l71.937,17.5,8.51-8.708a11.256,11.256,0,0,1,10.672-3.026l51.812,12.6a11.246,11.246,0,0,1,7.271,5.627,10.981,10.981,0,0,1,.616,8.958l-31.057,84.027A11.116,11.116,0,0,1,1215.492,1315.208Zm-112-123.131a9.722,9.722,0,0,0-9.138,6.313l-25.5,68.982a9.6,9.6,0,0,0,.539,7.829,9.862,9.862,0,0,0,6.378,4.934l137.366,33.407a9.759,9.759,0,0,0,11.488-6.032l31.057-84.027a9.6,9.6,0,0,0-.54-7.829,9.862,9.862,0,0,0-6.377-4.935l-51.811-12.6a9.866,9.866,0,0,0-9.357,2.648l-9.06,9.272-72.7-17.681A9.875,9.875,0,0,0,1103.491,1192.077Z" transform="translate(-1066.885 -1190.695)"/>
        </g>
        <g id="Group_37173" data-name="Group 37173" transform="translate(118.266 307.465)">
          <path id="Path_38252" data-name="Path 38252" d="M970.3,1300.96s18.828,3,23.363,3.542,11.19-1.492,12.509,1.859-6.04,4.355-6.04,4.355,13.159,1.3,14,4.557-6.216,2.906-6.216,2.906,6.917,1.6,6.023,4.524-5.292,1.865-5.292,1.865,4.469,2.261,3.231,4.48-8.846,1.223-8.846,1.223,4.193,2.663-.652,4.844-29.565-5.16-34.863-7.671Z" transform="translate(-966.827 -1300.266)" fill="#fff"/>
          <path id="Path_38253" data-name="Path 38253" d="M997.97,1334.522c-8.556,0-28.2-6.128-32.421-8.128a.691.691,0,0,1-.39-.7l2.786-26.487a.692.692,0,0,1,.795-.609c.187.029,18.866,3.008,23.337,3.539a28.734,28.734,0,0,0,4.727-.02c3.574-.2,7.272-.414,8.345,2.313a2.558,2.558,0,0,1-.146,2.3,5.686,5.686,0,0,1-2.889,2.076c4.216.659,10.359,2.052,11.019,4.609a2.312,2.312,0,0,1-.416,2.114,5.1,5.1,0,0,1-2.985,1.427,6.543,6.543,0,0,1,2.959,2.291,2.433,2.433,0,0,1,.24,1.979,3.725,3.725,0,0,1-3.466,2.5,4.844,4.844,0,0,1,1.539,2.1,2.346,2.346,0,0,1-.193,1.873c-1.035,1.854-5.029,1.918-7.58,1.757a2.74,2.74,0,0,1,.5,1.7c-.082,1.146-1,2.123-2.736,2.9A7.755,7.755,0,0,1,997.97,1334.522Zm-31.386-9.175c6.082,2.665,29.4,9.465,33.84,7.462,1.217-.548,1.882-1.149,1.926-1.739.058-.792-.992-1.653-1.364-1.891a.691.691,0,0,1,.464-1.267c2.967.387,7.459.375,8.154-.873a.962.962,0,0,0,.076-.8c-.355-1.167-2.3-2.369-3.017-2.732a.691.691,0,0,1,.475-1.288c.038.009,3.776.874,4.469-1.4a1.047,1.047,0,0,0-.118-.882c-.827-1.434-4.178-2.484-5.4-2.768a.692.692,0,0,1,.191-1.364c1.653.079,4.559-.164,5.363-1.149a.917.917,0,0,0,.15-.895c-.5-1.92-8.134-3.521-13.4-4.043a.691.691,0,0,1-.024-1.373c1.235-.169,4.618-.914,5.439-2.316a1.18,1.18,0,0,0,.053-1.1c-.707-1.794-3.754-1.622-6.979-1.437a29.238,29.238,0,0,1-4.967.012c-3.991-.474-19.174-2.876-22.672-3.433Z" transform="translate(-965.156 -1298.592)"/>
          <path id="Path_38254" data-name="Path 38254" d="M1052.666,1329.714s-5.753-1.155-7.2-1.469a.691.691,0,0,1,.29-1.351c1.446.31,7.184,1.462,7.184,1.462Zm7.923,7.477a.749.749,0,0,1-.112-.009c-.545-.088-13.38-2.2-16.482-3.58a.692.692,0,0,1,.56-1.265c2.941,1.309,16.013,3.461,16.144,3.482a.69.69,0,0,1-.111,1.372Zm.73,6.389a.821.821,0,0,1-.115-.008c-1.551-.255-15.215-2.525-17.443-3.868a.691.691,0,0,1,.712-1.185c1.516.912,10.969,2.707,16.957,3.686a.692.692,0,0,1-.111,1.375Zm-5.618,5.7a.683.683,0,0,1-.15-.017c-.458-.1-11.242-2.513-13.117-3.4a.691.691,0,0,1,.593-1.249c1.439.68,9.747,2.61,12.826,3.3a.69.69,0,0,1,.524.824A.7.7,0,0,1,1055.7,1349.28Z" transform="translate(-1019.497 -1318.584)"/>
        </g>
        <g id="Group_37174" data-name="Group 37174" transform="translate(0 211.77)">
          <path id="Path_38255" data-name="Path 38255" d="M595.526,972.23c-13.113,13.5-48.41,57.464-26.938,87.179,23.63,32.7,119.53,43.938,119.53,43.938l2.985-36.925s-92.255-15.693-97.788-27.187,21.762-51.53,21.762-51.53Z" transform="translate(-561.817 -972.23)" fill="#ed85c0" stroke="#000" stroke-width="2"/>
        </g>
        <g id="Group_37175" data-name="Group 37175" transform="translate(30.081 226.859)">
          <path id="Path_38256" data-name="Path 38256" d="M665.2,1075.909c-5.644-11.72,20.689-50.571,21.812-52.219l1.141.78c-.27.4-27.008,39.833-21.71,50.841Z" transform="translate(-664.409 -1023.69)"/>
        </g>
        <g id="Group_37176" data-name="Group 37176" transform="translate(230.03 174.83)">
          <path id="Path_38257" data-name="Path 38257" d="M1348.69,907.222a270.7,270.7,0,0,1,38.81,30.791c15.942-16.08,29.6-34.8,44.827-51.541a338.18,338.18,0,0,0-48.609-37.852C1372.174,868.172,1361.906,888.9,1348.69,907.222Z" transform="translate(-1347.995 -847.924)" fill="#fff" stroke="#000" stroke-width="2"/>
          <path id="Path_38258" data-name="Path 38258" d="M1442.834,1063.125q3.6,3.2,7.095,6.536c10.275-10.428,19.69-21.868,29.1-33.251q-5.045-.536-10.028-.871a303.547,303.547,0,0,0-31.981-.422A237.035,237.035,0,0,1,1442.834,1063.125Z" transform="translate(-1410.425 -979.572)" fill="#a4e3db" stroke="#000" stroke-width="2"/>
          <path id="Path_38259" data-name="Path 38259" d="M1531.638,986.843c7.811-9.339,15.432-18.857,23.577-27.75q-3.053-2.859-6.169-5.635a238.28,238.28,0,0,0-26.487-2.088c2.675,8.369,4.982,16.769,6.9,25.143Q1530.647,981.686,1531.638,986.843Z" transform="translate(-1470.883 -920.547)" fill="#a4e3db" stroke="#000" stroke-width="2"/>
          <path id="Path_38260" data-name="Path 38260" d="M1385.824,937.031a.7.7,0,0,1-.477-.191,271.247,271.247,0,0,0-38.714-30.714.689.689,0,0,1-.182-.982c9.09-12.6,16.913-26.581,24.48-40.1,3.407-6.087,6.929-12.379,10.518-18.457a.686.686,0,0,1,.434-.32.7.7,0,0,1,.533.091,339.829,339.829,0,0,1,48.715,37.933.692.692,0,0,1,.039.97c-6.352,6.985-12.542,14.444-18.526,21.66-8.368,10.089-17.021,20.525-26.328,29.908A.7.7,0,0,1,1385.824,937.031Zm-37.83-31.664a272.35,272.35,0,0,1,37.815,30.007c9.084-9.215,17.565-19.44,25.772-29.336,5.849-7.055,11.9-14.343,18.105-21.2a338.449,338.449,0,0,0-47.416-36.928c-3.455,5.87-6.85,11.937-10.137,17.81C1364.668,879.063,1356.948,892.856,1347.994,905.368Z" transform="translate(-1346.319 -846.249)" stroke="#000" stroke-width="0.3"/>
          <path id="Path_38261" data-name="Path 38261" d="M1457.252,968.1c2.931,2.2,6.805,1.874,8.676-.839s.936-6.829-2.137-9.122-7-1.809-8.73.982S1454.32,965.9,1457.252,968.1Z" transform="translate(-1422.573 -924.305)" fill="#f6d854" stroke="#000" stroke-width="2"/>
        </g>
        <g id="Group_37178" data-name="Group 37178" transform="translate(178.644 228.529)">
          <ellipse id="Ellipse_22" data-name="Ellipse 22" cx="23.786" cy="23.786" rx="23.786" ry="23.786" transform="translate(0.7 0.699)" fill="#fff" stroke="#000" stroke-width="0.3"/>
          <path id="Path_38262" data-name="Path 38262" d="M1195.567,1078.35a24.5,24.5,0,1,1,6.53-.891A24.521,24.521,0,0,1,1195.567,1078.35Zm.026-47.586a23.209,23.209,0,0,0-6.2.85,23.094,23.094,0,1,0,28.425,16.089h0a23.13,23.13,0,0,0-22.22-16.939Z" transform="translate(-1171.073 -1029.384)" stroke="#000" stroke-width="0.5"/>
        </g>
        <text id="a_" data-name="a+" transform="translate(188.415 260.354)" font-size="21" font-family="Poppins-Bold, Poppins" font-weight="700"><tspan x="0" y="0">A+</tspan></text>
        <rect id="Rectangle_2616" data-name="Rectangle 2616" width="14.595" height="10.947" transform="translate(19.082 157.578)" fill="#fff"/>
      </g>
      <path id="Path_38803" data-name="Path 38803" d="M34.677.131c17.478-2.7,34.664,13.886,34.664,31.015S53.822,62.162,34.677,62.162-.79,49.3.013,31.146,17.2,2.827,34.677.131Z" transform="translate(160.529 3443.67)" fill="#ed85c0"/>
      <g id="Group_37376" data-name="Group 37376" transform="translate(198.587 3787.871)">
        <path id="Path_38211" data-name="Path 38211" d="M776.661,2113.066a3.124,3.124,0,0,0,3.809,2.232l2.962-.777a3.138,3.138,0,0,0,2.24-3.817,3.11,3.11,0,0,0-3.827-2.231l-2.958.773A3.129,3.129,0,0,0,776.661,2113.066Z" transform="translate(-776.558 -2108.37)"/>
      </g>
      <path id="Path_38804" data-name="Path 38804" d="M.542,9.2C2.677,2.425,9.829-1.275,17.609.4a19.1,19.1,0,0,1,5.226,3.111c.144.527-1.153,2.907-3.952,5.131a32.262,32.262,0,0,1-5.225,3.235A17.716,17.716,0,0,1,2.028,12.925L0,12.387A11.823,11.823,0,0,1,.542,9.2Z" transform="translate(313.046 3815.191) rotate(-109)" fill="#fff" stroke="#000" stroke-width="2"/>
      <path id="Path_38805" data-name="Path 38805" d="M.518,9.5C2.563,2.5,9.411-1.318,16.86.415a32.55,32.55,0,0,1,4.829,2.312,33.3,33.3,0,0,1-3.165,4.541A25.4,25.4,0,0,1,12.212,12.2a13.561,13.561,0,0,1-10.271,1.15L0,12.8A13.084,13.084,0,0,1,.518,9.5Z" transform="translate(188.864 3810.238) rotate(-45)" fill="#fff" stroke="#000" stroke-width="2"/>
    </g>
    <path id="Path_38808" data-name="Path 38808" d="M1165.829,598.1s16.35-11.464,14.193-22.944-14.839-7.7-17.941,0c0,0,8.228-36.465-4.991-39.3s-15.647,19.179-14.163,27.417c0,0-5.4-22.961-13.355-15.666s0,26.472,0,26.472-9.024-9.724-13.214,2.3,7.247,21.406,7.247,21.406l42.224.324Z" transform="translate(543.667 3549.766)" fill="rgba(246,216,84,0.48)"/>
    <path id="Path_38813" data-name="Path 38813" d="M1165.829,598.1s16.35-11.464,14.193-22.944-14.839-7.7-17.941,0c0,0,8.228-36.465-4.991-39.3s-15.647,19.179-14.163,27.417c0,0-5.4-22.961-13.355-15.666s0,26.472,0,26.472-9.024-9.724-13.214,2.3,7.247,21.406,7.247,21.406l42.224.324Z" transform="translate(128.667 3549.766)" fill="rgba(246,216,84,0.48)"/>
    <path id="Path_38809" data-name="Path 38809" d="M1197.608,637.513s26.661-18.693,23.143-37.413-24.2-12.553-29.255,0c0,0,13.417-59.46-8.138-64.085s-25.514,31.273-23.095,44.707c0,0-8.8-37.44-21.778-25.545s0,43.165,0,43.165-14.715-15.856-21.546,3.745,11.818,34.9,11.818,34.9l68.851.528Z" transform="translate(611.834 3509.595)" fill="rgba(246,216,84,0.48)"/>
    <path id="Path_38810" data-name="Path 38810" d="M1541.088,1963.456a63.175,63.175,0,0,0-8.37-33.815l-.83.481a62.211,62.211,0,0,1,8.241,33.3Zm5.866-.321.961-.013-.182-13.909c-.051-3.935-.1-8,.214-11.981a64.256,64.256,0,0,1,4.495-19.012l-.89-.359a65.219,65.219,0,0,0-4.562,19.3c-.321,4.021-.269,8.112-.216,12.07Zm-15.115.12.935-.22a38.218,38.218,0,0,0-9.613-17.7l-.692.665A37.242,37.242,0,0,1,1531.839,1963.254Zm23.947-.076c1.162-5.753,5.3-11.5,12.286-17.075l-.6-.75c-7.17,5.723-11.419,11.656-12.629,17.636Z" transform="translate(147.514 2185.622)" stroke="#000" stroke-width="1"/>
    <path id="Path_38812" data-name="Path 38812" d="M1541.088,1963.456a63.175,63.175,0,0,0-8.37-33.815l-.83.481a62.211,62.211,0,0,1,8.241,33.3Zm5.866-.321.961-.013-.182-13.909c-.051-3.935-.1-8,.214-11.981a64.256,64.256,0,0,1,4.495-19.012l-.89-.359a65.219,65.219,0,0,0-4.562,19.3c-.321,4.021-.269,8.112-.216,12.07Zm-15.115.12.935-.22a38.218,38.218,0,0,0-9.613-17.7l-.692.665A37.242,37.242,0,0,1,1531.839,1963.254Zm23.947-.076c1.162-5.753,5.3-11.5,12.286-17.075l-.6-.75c-7.17,5.723-11.419,11.656-12.629,17.636Z" transform="translate(-267.486 2185.622)" stroke="#000" stroke-width="1"/>
    <path id="Path_38811" data-name="Path 38811" d="M1552.829,1992.209a103.015,103.015,0,0,0-13.649-55.139l-1.353.785a101.442,101.442,0,0,1,13.439,54.292Zm9.565-.524,1.566-.021-.3-22.68c-.083-6.417-.169-13.051.35-19.536a104.77,104.77,0,0,1,7.329-31l-1.451-.586a106.357,106.357,0,0,0-7.439,31.467c-.524,6.556-.438,13.228-.352,19.681Zm-24.647.2,1.525-.358a62.319,62.319,0,0,0-15.674-28.864l-1.128,1.083A60.727,60.727,0,0,1,1537.747,1991.88Zm39.048-.124c1.9-9.382,8.638-18.748,20.033-27.842l-.977-1.223c-11.691,9.331-18.621,19.006-20.593,28.757Z" transform="translate(222.569 2156.869)" stroke="#000" stroke-width="1"/>
  </g>
</svg>
