<svg xmlns="http://www.w3.org/2000/svg" width="99.829" height="99.83" viewBox="0 0 99.829 99.83">
  <g id="Group_37589" data-name="Group 37589" transform="translate(-602 -1061)">
    <g id="Group_37587" data-name="Group 37587">
      <g id="Group_37356" data-name="Group 37356" transform="translate(602 1061)">
        <path id="Path_37188" data-name="Path 37188" d="M58.439,29.22A29.22,29.22,0,1,1,29.219,0a29.22,29.22,0,0,1,29.22,29.22" transform="translate(14.871 28.016) rotate(-13)" fill="#f6d854"/>
        <path id="Path_37189" data-name="Path 37189" d="M30.377,60.753A30.377,30.377,0,1,1,60.754,30.377,30.41,30.41,0,0,1,30.377,60.753m0-58.439A28.062,28.062,0,1,0,58.439,30.377,28.095,28.095,0,0,0,30.377,2.314" transform="translate(13.483 27.15) rotate(-13)" fill="#010101"/>
        <path id="Path_37190" data-name="Path 37190" d="M14.839,28.808A3.831,3.831,0,0,1,12,27.548L.991,15.381A3.831,3.831,0,1,1,6.671,10.24l7.965,8.8L28.486,1.46A3.831,3.831,0,1,1,34.5,6.2L17.849,27.348a3.835,3.835,0,0,1-2.879,1.458l-.131,0" transform="translate(29.463 39.853) rotate(-13)" fill="#010101"/>
        <g id="Group_37355" data-name="Group 37355" transform="translate(0 0)">
          <path id="Path_37191" data-name="Path 37191" d="M11.922,2.314H1.157A1.157,1.157,0,1,1,1.157,0H11.922a1.157,1.157,0,1,1,0,2.314" transform="translate(0 60.251) rotate(-13)" fill="#010101"/>
          <path id="Path_37192" data-name="Path 37192" d="M11.923,2.314H1.157A1.157,1.157,0,1,1,1.157,0H11.923a1.157,1.157,0,1,1,0,2.314" transform="translate(86.564 40.266) rotate(-13)" fill="#010101"/>
          <path id="Path_37193" data-name="Path 37193" d="M1.157,13.079A1.157,1.157,0,0,1,0,11.922V1.157a1.157,1.157,0,1,1,2.314,0V11.922a1.157,1.157,0,0,1-1.157,1.157" transform="translate(37.324 0.521) rotate(-13)" fill="#010101"/>
          <path id="Path_37194" data-name="Path 37194" d="M1.157,13.081A1.157,1.157,0,0,1,0,11.923V1.157a1.157,1.157,0,1,1,2.314,0V11.923a1.157,1.157,0,0,1-1.157,1.157" transform="translate(57.308 87.084) rotate(-13)" fill="#010101"/>
          <path id="Path_37195" data-name="Path 37195" d="M6.175,11.839a1.157,1.157,0,0,1-1.025-.618L.133,1.7A1.157,1.157,0,1,1,2.181.618L7.2,10.143A1.157,1.157,0,0,1,6.714,11.7a1.139,1.139,0,0,1-.539.134" transform="translate(16 11.332) rotate(-13)" fill="#010101"/>
          <path id="Path_37196" data-name="Path 37196" d="M6.175,11.84a1.157,1.157,0,0,1-1.025-.618L.133,1.7A1.157,1.157,0,1,1,2.181.618L7.2,10.144a1.156,1.156,0,0,1-1.023,1.7" transform="translate(74.021 78.61) rotate(-13)" fill="#010101"/>
          <path id="Path_37197" data-name="Path 37197" d="M1.157,11.839A1.141,1.141,0,0,1,.618,11.7a1.156,1.156,0,0,1-.484-1.562L5.151.618A1.157,1.157,0,1,1,7.2,1.7L2.182,11.221a1.157,1.157,0,0,1-1.025.618" transform="translate(56.339 2.019) rotate(-13)" fill="#010101"/>
          <path id="Path_37198" data-name="Path 37198" d="M1.156,11.84a1.156,1.156,0,0,1-1.023-1.7L5.15.618A1.157,1.157,0,1,1,7.2,1.7L2.181,11.222a1.157,1.157,0,0,1-1.025.618" transform="translate(33.683 87.922) rotate(-13)" fill="#010101"/>
          <path id="Path_37199" data-name="Path 37199" d="M1.158,8.334A1.157,1.157,0,0,1,.51,6.217L9.434.2a1.158,1.158,0,0,1,1.294,1.92L1.8,8.137a1.161,1.161,0,0,1-.646.2" transform="translate(73.791 14.627) rotate(-13)" fill="#010101"/>
          <path id="Path_37200" data-name="Path 37200" d="M1.158,8.336A1.157,1.157,0,0,1,.51,6.219L9.434.2a1.158,1.158,0,0,1,1.294,1.92L1.8,8.139a1.155,1.155,0,0,1-.647.2" transform="translate(13.212 79.608) rotate(-13)" fill="#010101"/>
          <path id="Path_37201" data-name="Path 37201" d="M10.08,8.336a1.154,1.154,0,0,1-.647-.2L.51,2.118A1.158,1.158,0,0,1,1.8.2l8.924,6.021a1.157,1.157,0,0,1-.648,2.117" transform="translate(2.034 31.192) rotate(-13)" fill="#010101"/>
          <path id="Path_37202" data-name="Path 37202" d="M10.081,8.336a1.155,1.155,0,0,1-.647-.2L.51,2.118A1.158,1.158,0,0,1,1.8.2l8.924,6.021a1.157,1.157,0,0,1-.648,2.117" transform="translate(84.969 63.042) rotate(-13)" fill="#010101"/>
        </g>
      </g>
    </g>
  </g>
</svg>
